<svg width="41" height="41" viewBox="0 0 41 41" fill="none" xmlns="http://www.w3.org/2000/svg">
<path d="M37.8125 26.0938C39.375 26.7969 40.2344 28.5156 39.8438 30.1562L38.2031 37.5C37.8125 39.1406 36.4062 40.2344 34.6875 40.2344C15.5469 40.2344 0 24.6875 0 5.54688C0 3.82812 1.09375 2.42188 2.73438 2.10938L10.0781 0.390625C11.7188 0 13.4375 0.859375 14.1406 2.42188L17.5 10.3906C18.125 11.7969 17.7344 13.5156 16.5625 14.5312L13.3594 17.1094C15.625 21.1719 19.0625 24.6094 23.125 26.875L25.7812 23.75C26.7188 22.5 28.4375 22.1094 29.8438 22.6562L37.8125 26.0938ZM35.7031 36.9531L37.4219 29.6094C37.5781 29.0625 37.2656 28.5938 36.7969 28.3594L28.9062 25C28.4375 24.8438 27.9688 24.9219 27.6562 25.3125L24.4531 29.2188C24.0625 29.6875 23.4375 29.8438 22.9688 29.5312C17.6562 26.9531 13.2812 22.5781 10.7031 17.3438C10.3906 16.7969 10.5469 16.1719 11.0156 15.7812L14.9219 12.5781C15.3125 12.2656 15.3906 11.7969 15.2344 11.3281L11.875 3.4375C11.6406 3.04688 11.25 2.73438 10.8594 2.73438C10.7812 2.73438 10.7031 2.8125 10.625 2.8125L3.28125 4.53125C2.8125 4.60938 2.5 5 2.5 5.54688C2.5 23.2812 16.9531 37.8125 34.6875 37.8125C35.2344 37.8125 35.625 37.4219 35.7031 36.9531Z" fill="#BA6827"/>
</svg>
