<svg width="120" height="120" viewBox="0 0 120 120" fill="none" xmlns="http://www.w3.org/2000/svg">
<rect x="30.5" y="28.5" width="59" height="59" stroke="#BA6827"/>
<path d="M84.591 82.375H47.8408C47.5922 82.375 47.3537 82.4738 47.1779 82.6496C47.0021 82.8254 46.9033 83.0639 46.9033 83.3125C46.9033 83.5611 47.0021 83.7996 47.1779 83.9754C47.3537 84.1512 47.5922 84.25 47.8408 84.25H84.591C84.8371 84.2462 85.0719 84.1457 85.2446 83.9703C85.4173 83.7949 85.5141 83.5587 85.5141 83.3125C85.5141 83.0663 85.4173 82.8301 85.2446 82.6547C85.0719 82.4793 84.8371 82.3788 84.591 82.375Z" fill="#BA6827"/>
<path d="M44.0908 82.375H40.2378C39.9915 82.3785 39.7564 82.4788 39.5834 82.6542C39.4104 82.8297 39.3135 83.0661 39.3135 83.3125C39.3135 83.5589 39.4104 83.7953 39.5834 83.9708C39.7564 84.1462 39.9915 84.2465 40.2378 84.25H44.0908C44.3371 84.2465 44.5722 84.1462 44.7452 83.9708C44.9181 83.7954 45.0151 83.5589 45.0151 83.3125C45.0151 83.0662 44.9182 82.8297 44.7452 82.6542C44.5722 82.4788 44.3372 82.3785 44.0908 82.375Z" fill="#BA6827"/>
<path d="M48.1757 74.5391C47.9294 74.5427 47.6945 74.6431 47.5217 74.8185C47.3488 74.9939 47.252 75.2303 47.252 75.4766C47.252 75.7228 47.3488 75.9592 47.5217 76.1346C47.6945 76.31 47.9294 76.4104 48.1757 76.4141C50.7531 76.459 53.3221 76.7211 55.8555 77.1978C56.1004 77.2406 56.3523 77.1844 56.5557 77.0416C56.7592 76.8987 56.8976 76.6809 56.9404 76.436C56.9833 76.1912 56.9271 75.9393 56.7842 75.7358C56.6414 75.5324 56.4236 75.394 56.1787 75.3511C53.5386 74.8555 50.8614 74.5839 48.1757 74.5391Z" fill="#BA6827"/>
<path d="M53.2959 56.365C53.2374 56.5565 53.2413 56.7616 53.3071 56.9507C53.3729 57.1397 53.4971 57.3029 53.6619 57.4167C53.8266 57.5304 54.0233 57.5888 54.2234 57.5833C54.4235 57.5779 54.6167 57.5088 54.775 57.3863C54.8065 57.3616 57.9532 54.87 60.4338 55.6743C61.7352 56.0959 62.6979 57.4151 63.2953 59.595C63.3537 59.7978 63.4784 59.9751 63.6495 60.0987C63.8205 60.2223 64.028 60.285 64.2389 60.2769C65.1055 60.1175 65.0695 59.5862 66.621 58.9128L62.9034 72.9338C43.3808 68.2369 40.3169 72.6736 40.0052 73.2652C39.8872 73.4813 39.8591 73.7351 39.9267 73.9717C39.9944 74.2084 40.1525 74.4089 40.3668 74.53C40.5812 74.651 40.8345 74.6829 41.0721 74.6186C41.3098 74.5544 41.5126 74.3992 41.6367 74.1866C41.6714 74.1372 45.404 69.2602 71.3171 77.1956C71.6701 77.2958 79.4846 79.5082 83.8095 79.5077C84.5764 79.5612 85.5882 79.4285 85.5197 78.4571C85.4978 78.2095 85.3784 77.9807 85.1878 77.821C84.9973 77.6614 84.7511 77.5839 84.5034 77.6057C80.8047 77.9266 71.92 75.4176 71.8486 75.3975C70.5381 74.9961 69.2977 74.6362 68.0919 74.2964L71.8 60.2863C72.1954 60.8505 72.5287 61.4558 72.794 62.0917C72.7364 62.3151 72.7641 62.552 72.8717 62.7561C72.9792 62.9602 73.1589 63.1169 73.3757 63.1958C73.5095 63.2382 73.6508 63.2519 73.7903 63.2358C73.9298 63.2198 74.0643 63.1744 74.185 63.1026C74.3057 63.0309 74.4099 62.9345 74.4907 62.8196C74.5715 62.7048 74.627 62.5741 74.6538 62.4363C77.6397 60.092 81.0618 60.0763 82.7936 65.0489C82.8684 65.2372 83.0019 65.3964 83.1743 65.5029C83.3467 65.6094 83.5488 65.6574 83.7507 65.64C83.9526 65.6226 84.1434 65.5405 84.295 65.4061C84.4466 65.2716 84.5508 65.0919 84.5922 64.8936C86.7261 57.1555 83.6 49.0379 76.3776 45.4397C76.8491 44.924 77.1116 44.251 77.1138 43.5522C76.9705 39.5926 71.1139 39.9402 71.4831 43.8943C69.2516 43.561 66.9749 43.7015 64.8013 44.3066C64.5632 44.3745 64.3616 44.5338 64.2405 44.7498C64.1195 44.9658 64.0888 45.221 64.1552 45.4595C64.2215 45.6981 64.3796 45.9007 64.5948 46.0231C64.8101 46.1455 65.065 46.1778 65.3039 46.113C66.724 45.7177 68.197 45.5459 69.6699 45.6038C67.5224 47.6054 65.4636 51.2906 64.1247 55.7562C64.072 55.935 64.016 56.1367 63.9593 56.3458C62.2642 53.2667 58.5544 53.1128 55.9078 54.5154C57.066 51.6412 59.1292 49.2228 61.7851 47.6263C61.9983 47.4984 62.1519 47.2909 62.2122 47.0497C62.2724 46.8085 62.2344 46.5532 62.1064 46.34C61.9785 46.1268 61.7711 45.9732 61.5298 45.9129C61.2886 45.8527 61.0333 45.8907 60.8201 46.0187C57.0471 48.3417 54.3432 52.0598 53.2959 56.365ZM68.6869 58.4388C69.2304 58.443 69.7649 58.5788 70.2446 58.8345L66.2868 73.7884L64.7263 73.376L68.6869 58.4388ZM83.2524 61.8079C82.5136 60.5757 81.34 59.6652 79.9629 59.2557C78.5859 58.8463 77.1054 58.9677 75.8134 59.5961C77.1473 55.0864 77.4522 50.7434 76.7196 47.7791C79.0449 49.2389 80.8986 51.3398 82.0577 53.8287C83.2167 56.3177 83.6316 59.0886 83.2524 61.8079ZM74.2812 42.5946C74.5329 42.5979 74.7733 42.7003 74.9501 42.8795C75.127 43.0588 75.2262 43.3005 75.2262 43.5523C75.2262 43.8041 75.127 44.0457 74.9501 44.225C74.7732 44.4042 74.5329 44.5066 74.2811 44.5099C74.0293 44.5065 73.789 44.4042 73.6121 44.2249C73.4353 44.0457 73.3361 43.804 73.3361 43.5522C73.3361 43.3004 73.4353 43.0587 73.6122 42.8795C73.789 42.7003 74.0294 42.5979 74.2812 42.5946ZM72.4159 45.9785C73.0239 46.1132 73.6204 46.295 74.2001 46.5223C75.4567 48.2624 75.786 53.1594 73.9818 59.184C73.9135 59.4035 73.834 59.6193 73.7436 59.8307C73.2627 58.9965 72.6286 58.2605 71.8745 57.6616C69.8809 56.156 67.6418 56.381 65.646 57.3016C66.9538 51.7568 70.4653 46.4649 72.4159 45.9785Z" fill="#BA6827"/>
<path d="M44.7981 46.5827C50.7586 46.3932 50.7576 37.7512 44.798 37.5625C38.8372 37.7522 38.8391 46.3941 44.7981 46.5827ZM44.7981 39.4375C45.4914 39.446 46.1534 39.7274 46.6407 40.2206C47.128 40.7139 47.4012 41.3793 47.4012 42.0727C47.4012 42.766 47.1279 43.4314 46.6406 43.9247C46.1534 44.4179 45.4913 44.6993 44.798 44.7077C44.1047 44.6993 43.4427 44.4179 42.9555 43.9246C42.4682 43.4314 42.195 42.7659 42.195 42.0726C42.195 41.3792 42.4682 40.7138 42.9555 40.2206C43.4428 39.7273 44.1048 39.446 44.7981 39.4375Z" fill="#BA6827"/>
<path d="M44.7979 36.7346C45.0465 36.7346 45.2849 36.6358 45.4608 36.46C45.6366 36.2842 45.7353 36.0457 45.7354 35.7971V32.6875C45.7354 32.4389 45.6366 32.2004 45.4608 32.0246C45.2849 31.8488 45.0465 31.75 44.7979 31.75C44.5492 31.75 44.3108 31.8488 44.1349 32.0246C43.9591 32.2004 43.8604 32.4389 43.8604 32.6875V35.7971C43.8604 36.0457 43.9591 36.2842 44.1349 36.46C44.3108 36.6358 44.5492 36.7346 44.7979 36.7346Z" fill="#BA6827"/>
<path d="M39.4602 42.0703C39.4602 41.8217 39.3614 41.5832 39.1856 41.4074C39.0098 41.2316 38.7713 41.1328 38.5227 41.1328H35.4131C35.1644 41.1328 34.926 41.2316 34.7502 41.4074C34.5744 41.5832 34.4756 41.8217 34.4756 42.0703C34.4756 42.319 34.5744 42.5574 34.7502 42.7332C34.926 42.909 35.1644 43.0078 35.4131 43.0078H38.5227C38.7713 43.0078 39.0098 42.909 39.1856 42.7332C39.3614 42.5574 39.4602 42.3189 39.4602 42.0703Z" fill="#BA6827"/>
<path d="M45.7354 51.4563V48.3462C45.7319 48.0999 45.6316 47.8648 45.4561 47.6918C45.2807 47.5188 45.0442 47.4219 44.7979 47.4219C44.5515 47.4219 44.315 47.5188 44.1396 47.6918C43.9641 47.8648 43.8638 48.0999 43.8604 48.3462V51.4563C43.8638 51.7026 43.9641 51.9377 44.1396 52.1107C44.315 52.2836 44.5515 52.3806 44.7979 52.3806C45.0442 52.3806 45.2807 52.2836 45.4561 52.1107C45.6316 51.9377 45.7319 51.7026 45.7354 51.4563Z" fill="#BA6827"/>
<path d="M50.1357 42.0703C50.1357 42.319 50.2345 42.5574 50.4103 42.7332C50.5861 42.909 50.8246 43.0078 51.0732 43.0078H54.1828C54.4315 43.0078 54.6699 42.909 54.8457 42.7332C55.0216 42.5574 55.1203 42.319 55.1203 42.0703C55.1203 41.8217 55.0216 41.5832 54.8457 41.4074C54.6699 41.2316 54.4315 41.1328 54.1828 41.1328H51.0732C50.8246 41.1328 50.5862 41.2316 50.4103 41.4074C50.2345 41.5832 50.1358 41.8217 50.1357 42.0703Z" fill="#BA6827"/>
<path d="M39.6583 38.3414C39.8353 38.5115 40.0719 38.6054 40.3173 38.603C40.5628 38.6005 40.7975 38.502 40.971 38.3284C41.1446 38.1548 41.2431 37.9201 41.2456 37.6747C41.248 37.4293 41.154 37.1927 40.9839 37.0157L39.3209 35.3527C39.2339 35.2656 39.1306 35.1966 39.0168 35.1495C38.9031 35.1024 38.7812 35.0781 38.6581 35.0781C38.535 35.0781 38.4131 35.1024 38.2994 35.1495C38.1856 35.1966 38.0823 35.2656 37.9953 35.3527C37.9082 35.4397 37.8392 35.5431 37.7921 35.6568C37.7449 35.7705 37.7207 35.8924 37.7207 36.0155C37.7207 36.1386 37.745 36.2605 37.7921 36.3743C37.8392 36.488 37.9082 36.5913 37.9953 36.6784L39.6583 38.3414Z" fill="#BA6827"/>
<path d="M41.0648 47.2124C41.2349 47.0354 41.3289 46.7988 41.3265 46.5533C41.3241 46.3079 41.2255 46.0732 41.0519 45.8996C40.8783 45.726 40.6436 45.6274 40.3981 45.625C40.1526 45.6226 39.916 45.7166 39.7391 45.8868L38.0761 47.5497C37.906 47.7267 37.8121 47.9633 37.8145 48.2087C37.8169 48.4542 37.9155 48.6889 38.0891 48.8624C38.2627 49.036 38.4974 49.1346 38.7428 49.137C38.9882 49.1394 39.2248 49.0455 39.4018 48.8754L41.0648 47.2124Z" fill="#BA6827"/>
<path d="M50.2755 48.7945C50.4525 48.9646 50.6891 49.0585 50.9345 49.0561C51.18 49.0537 51.4147 48.9551 51.5882 48.7815C51.7618 48.6079 51.8603 48.3732 51.8627 48.1278C51.8652 47.8824 51.7712 47.6458 51.6011 47.4688L49.9381 45.8058C49.7623 45.63 49.5239 45.5312 49.2753 45.5312C49.0267 45.5312 48.7882 45.63 48.6124 45.8058C48.4367 45.9816 48.3379 46.22 48.3379 46.4686C48.3379 46.7173 48.4367 46.9557 48.6124 47.1315L50.2755 48.7945Z" fill="#BA6827"/>
<path d="M49.1944 38.5297C49.3176 38.5298 49.4395 38.5056 49.5533 38.4585C49.667 38.4114 49.7703 38.3422 49.8572 38.255L51.5203 36.5925C51.6961 36.4167 51.7949 36.1782 51.7949 35.9296C51.7949 35.681 51.6961 35.4426 51.5203 35.2668C51.3445 35.091 51.1061 34.9922 50.8575 34.9922C50.6089 34.9922 50.3704 35.0909 50.1946 35.2667L48.5316 36.9293C48.4035 37.0616 48.3168 37.2284 48.2823 37.4092C48.2478 37.5901 48.267 37.7771 48.3375 37.9472C48.4079 38.1173 48.5266 38.2631 48.6788 38.3666C48.8311 38.4701 49.0103 38.5268 49.1944 38.5297Z" fill="#BA6827"/>
<circle cx="60" cy="60" r="59.5" stroke="#BA6827"/>
</svg>
