<svg width="120" height="120" viewBox="0 0 120 120" fill="none" xmlns="http://www.w3.org/2000/svg">
<circle cx="60" cy="60" r="59.5" stroke="#BA6827"/>
<rect x="30.5" y="30.5" width="59" height="59" stroke="#BA6827"/>
<path d="M89.3741 81.7797C88.1995 81.0126 87.0804 80.6135 85.8519 80.5237C84.5499 80.4285 83.4223 79.5804 82.9792 78.363L82.1496 76.0837C81.9835 75.6275 81.4793 75.3923 81.0231 75.5584C80.567 75.7244 80.3318 76.2288 80.4978 76.6849L81.3274 78.9642C82.0069 80.831 83.7324 82.1313 85.7238 82.277C86.4228 82.3281 87.0642 82.5099 87.7325 82.8533L77.6881 86.5091C77.9795 85.8164 78.3539 85.2649 78.8565 84.7763C80.2883 83.3847 80.7743 81.2795 80.0948 79.4128L76.5608 69.7031C76.7699 69.641 76.9782 69.5747 77.1847 69.4995C77.3908 69.4245 77.5937 69.3426 77.7939 69.2554L79.0161 72.6137C79.146 72.9705 79.483 73.1922 79.8422 73.1922C79.942 73.1922 80.0435 73.1751 80.1426 73.139C80.5989 72.973 80.8339 72.4686 80.6679 72.0125L79.3578 68.4135C81.1659 67.2365 82.599 65.5282 83.4312 63.5031C84.5744 60.721 84.4923 57.566 83.2058 54.8472L76.4999 40.6731C76.1003 39.8291 75.1374 39.4335 74.2598 39.7527L60.3043 44.8322C60.1967 44.8713 60.0954 44.9197 60.0002 44.9758C59.9051 44.9197 59.8036 44.8712 59.696 44.832L55.4889 43.3008C55.0322 43.1348 54.5283 43.37 54.3623 43.8261C54.1963 44.2822 54.4316 44.7866 54.8876 44.9526L59.0947 46.4839C59.1143 46.4911 59.1251 46.5116 59.1198 46.5316L57.4844 52.7744C56.7849 52.1027 55.9487 51.5768 55.0268 51.2433C53.134 50.5579 51.0333 50.739 49.291 51.6882C48.5637 49.8423 47.0683 48.3556 45.1765 47.667C44.2612 47.3339 43.2883 47.2006 42.3266 47.2644L45.0894 41.4249C45.0983 41.4062 45.1195 41.3975 45.1392 41.4045L50.8194 43.472C51.276 43.6379 51.78 43.4027 51.9459 42.9466C52.112 42.4905 51.8767 41.9861 51.4207 41.8201L45.7405 39.7527C44.8632 39.4335 43.9001 39.829 43.5006 40.6732L36.7943 54.8472C35.5079 57.566 35.4259 60.721 36.5692 63.5031C37.4013 65.5281 38.8344 67.2364 40.6424 68.4133L37.0209 78.3629C36.578 79.5802 35.4504 80.4283 34.1483 80.5236C32.9198 80.6135 31.8006 81.0126 30.626 81.7796C30.1854 82.0673 29.9491 82.5705 30.0092 83.0928C30.0694 83.6137 30.4128 84.0487 30.9056 84.2281L42.4714 88.4377C42.6267 88.4942 42.7867 88.5218 42.9452 88.5218C43.29 88.5218 43.6269 88.3913 43.8878 88.1444C44.2697 87.7831 44.4122 87.2457 44.2596 86.742C43.8528 85.3994 43.252 84.3743 42.3688 83.5159C41.4327 82.606 41.1139 81.2314 41.557 80.0141L45.1786 70.0637C45.6099 70.1162 46.0434 70.144 46.4767 70.144C48.194 70.144 49.9065 69.7329 51.4548 68.9212C54.1188 67.5249 56.084 65.0553 56.8462 62.1457L60.0001 50.1077L63.1536 62.1456C63.7059 64.254 64.8654 66.1173 66.5066 67.5342C66.8741 67.8513 67.429 67.8108 67.7462 67.4433C68.0634 67.0759 68.0226 66.5209 67.6554 66.2036C66.2845 65.0202 65.3158 63.4629 64.854 61.7001L64.1115 58.866C64.4717 58.9235 64.835 58.9541 65.1989 58.9541C66.0097 58.9541 66.8217 58.8122 67.5991 58.5275C69.8539 57.7025 71.5428 55.7438 72.0368 53.3962C72.0662 53.3167 72.0837 53.2342 72.0892 53.1511C72.4645 51.3715 73.6967 49.9421 75.4083 49.316C76.4428 48.9372 77.5328 48.8935 78.5816 49.1833L81.617 55.5989C82.6924 57.8717 82.7611 60.5092 81.8053 62.8349C80.8495 65.1606 78.9463 66.9877 76.5833 67.8477C74.8228 68.4887 72.9423 68.5649 71.1453 68.0683C70.6768 67.9391 70.1933 68.2135 70.0639 68.6813C69.9347 69.1493 70.2091 69.6334 70.6769 69.7626C71.6127 70.0213 72.5671 70.1501 73.5204 70.1501C73.9555 70.1501 74.3901 70.1217 74.8229 70.068L78.4428 80.014C78.8859 81.2312 78.5674 82.6058 77.6311 83.5156C76.748 84.374 76.1471 85.3992 75.7403 86.7419C75.5877 87.2456 75.7302 87.7829 76.1121 88.1443C76.3731 88.3912 76.71 88.5218 77.0548 88.5218C77.2132 88.5218 77.3733 88.4942 77.5284 88.4377L89.0944 84.2281C89.5873 84.0487 89.9307 83.6136 89.9906 83.0927C90.0511 82.5704 89.8146 82.0673 89.3741 81.7797ZM44.5752 49.319C46.1226 49.8822 47.3137 51.1598 47.7896 52.722C46.4106 53.6387 44.7039 53.8524 43.1238 53.2803C42.0259 52.8829 41.1028 52.136 40.4852 51.1564L41.4167 49.1877C42.4607 48.9008 43.5453 48.9442 44.5752 49.319ZM39.9054 79.4128C39.226 81.2795 39.7121 83.3847 41.1438 84.7763C41.6464 85.2649 42.0208 85.8164 42.3122 86.5091L32.2677 82.8532C32.936 82.5098 33.5774 82.3279 34.2765 82.2768C36.2678 82.1312 37.9933 80.831 38.6728 78.9642L42.2066 69.2556C42.4066 69.3426 42.6095 69.4245 42.8156 69.4997C43.0219 69.5748 43.2303 69.6408 43.4396 69.7026L39.9054 79.4128ZM55.1462 61.7001C54.5089 64.1325 52.8662 66.1971 50.639 67.3643C48.412 68.5316 45.7796 68.7077 43.4168 67.8477C41.0539 66.9877 39.1507 65.1606 38.1949 62.835C37.2392 60.5093 37.3078 57.8717 38.3831 55.5989L39.636 52.9509C40.4085 53.84 41.3975 54.5249 42.5252 54.933C44.7828 55.7503 47.3356 55.3356 49.2231 53.8547C49.2968 53.8126 49.3632 53.7606 49.4209 53.7004C50.8523 52.5785 52.7151 52.2757 54.4284 52.8961C55.4646 53.271 56.3276 53.938 56.9447 54.8341L55.1462 61.7001ZM66.995 56.8768C65.8985 57.2782 64.7113 57.2993 63.6085 56.9458L63.0566 54.839C63.6719 53.9483 64.5308 53.2842 65.5608 52.9093C67.108 52.346 68.8418 52.5592 70.2104 53.45C69.7434 55.0385 68.5733 56.2993 66.995 56.8768ZM74.804 47.6653C72.9133 48.357 71.4205 49.846 70.6962 51.693C68.9524 50.7465 66.8514 50.5687 64.9596 51.2574C64.0447 51.5905 63.213 52.1124 62.5171 52.779L60.8805 46.5319C60.8753 46.5117 60.886 46.4911 60.9056 46.484L74.8611 41.4047C74.8807 41.3976 74.9021 41.4064 74.911 41.4251L77.6708 47.2581C76.7032 47.1931 75.7246 47.3283 74.804 47.6653Z" fill="#BA6827"/>
<path d="M86.9215 58.6934C86.9206 58.6934 86.9198 58.6934 86.9188 58.6934C86.4347 58.6934 86.0416 59.0851 86.04 59.5697C86.0385 60.0551 86.4309 60.4498 86.9164 60.4512L88.1549 60.4549H88.1575C88.6417 60.4549 89.0349 60.0632 89.0364 59.5786C89.0379 59.0932 88.6456 58.6985 88.1601 58.6971L86.9215 58.6934Z" fill="#BA6827"/>
<path d="M86.3915 57.3547C86.5453 57.3547 86.701 57.3143 86.8424 57.2296L87.9167 56.5861C88.3332 56.3368 88.4686 55.797 88.2192 55.3805C87.9696 54.964 87.4298 54.8288 87.0136 55.0782L85.9392 55.7216C85.5227 55.971 85.3874 56.5108 85.6367 56.9273C85.8015 57.2023 86.0927 57.3547 86.3915 57.3547Z" fill="#BA6827"/>
<path d="M85.9182 63.4155L86.989 64.0655C87.1316 64.1519 87.2889 64.1932 87.4443 64.1932C87.7413 64.1932 88.0311 64.0426 88.1964 63.7703C88.4482 63.3553 88.3161 62.8147 87.9011 62.5629L86.8302 61.9128C86.4152 61.661 85.8748 61.7932 85.6229 62.2082C85.3709 62.6231 85.5032 63.1637 85.9182 63.4155Z" fill="#BA6827"/>
<path d="M31.8427 60.4569H31.8469L33.0854 60.4512C33.5708 60.4489 33.9625 60.0536 33.9602 59.5682C33.9578 59.0828 33.568 58.6892 33.0772 58.6934L31.8387 58.6991C31.3533 58.7015 30.9617 59.0968 30.9639 59.5821C30.9661 60.0661 31.3592 60.4569 31.8427 60.4569Z" fill="#BA6827"/>
<path d="M32.0781 56.587L33.1536 57.2287C33.2947 57.3129 33.4499 57.3529 33.6032 57.3529C33.9025 57.3529 34.1943 57.1999 34.3587 56.9243C34.6075 56.5074 34.4711 55.9679 34.0542 55.7191L32.9787 55.0774C32.5618 54.8287 32.0222 54.9649 31.7736 55.3819C31.525 55.7987 31.6614 56.3382 32.0781 56.587Z" fill="#BA6827"/>
<path d="M33.1741 61.9136L32.1043 62.5654C31.6898 62.8179 31.5586 63.3587 31.811 63.7732C31.9766 64.045 32.2659 64.195 32.5624 64.195C32.7183 64.195 32.8761 64.1535 33.019 64.0666L34.0888 63.4148C34.5033 63.1622 34.6345 62.6214 34.3821 62.2069C34.1294 61.7924 33.5887 61.6611 33.1741 61.9136Z" fill="#BA6827"/>
<path d="M58.8611 42.3354C59.1781 42.6513 59.5939 42.8092 60.0095 42.8092C60.4271 42.8092 60.8446 42.6499 61.162 42.3315L65.404 38.0752C66.91 36.5641 66.9059 34.1094 65.3949 32.6033C63.9078 31.1212 61.5065 31.1018 59.9951 32.5419C58.4789 31.1066 56.0779 31.1344 54.5956 32.6215C53.0895 34.1326 53.0937 36.5873 54.6048 38.0933L58.8611 42.3354ZM55.8408 33.8622C56.2389 33.4627 56.7687 33.2422 57.3326 33.2413H57.3363C57.8989 33.2413 58.428 33.4599 58.8266 33.8572L59.3766 34.4054C59.7204 34.7481 60.2768 34.7472 60.6196 34.4033L61.1677 33.8533C61.9899 33.0287 63.3292 33.0266 64.1539 33.8484C64.9785 34.6704 64.9807 36.0098 64.1588 36.8345L60.0092 40.998L55.8456 36.8483C55.4461 36.4502 55.2256 35.9203 55.2247 35.3564C55.2237 34.7925 55.4425 34.2617 55.8408 33.8622Z" fill="#BA6827"/>
</svg>
