<svg width="120" height="120" viewBox="0 0 120 120" fill="none" xmlns="http://www.w3.org/2000/svg">
<circle cx="60" cy="60" r="59.5" stroke="#BA6827"/>
<path d="M88.2089 42.8549C88.1816 42.8004 88.1634 42.7367 88.1362 42.6822C88.0634 42.5458 87.9634 42.4185 87.8725 42.2913C87.8089 42.2004 87.7543 42.1004 87.6816 42.0095C87.6725 42.0004 87.6634 41.9913 87.6543 41.9822C87.1453 41.3822 86.4725 40.9367 85.6998 40.7095L69.018 35.8095C68.2725 33.5367 65.9907 32.0458 63.5362 32.3731L35.7453 36.1276C34.4089 36.3095 33.2271 37.0004 32.3998 38.0731C31.5816 39.1458 31.2271 40.4822 31.4089 41.8185L37.018 83.2731C37.3634 85.8185 39.5362 87.664 42.0362 87.664C42.2634 87.664 42.4907 87.6458 42.718 87.6185L70.4998 83.864C72.5271 83.5913 74.1634 82.1095 74.6907 80.164C74.8816 80.1913 75.0816 80.2095 75.2725 80.2095C77.0543 80.2095 78.6998 79.0458 79.218 77.2549L84.0816 60.7004C84.0816 60.6913 84.0907 60.6913 84.0907 60.6822L88.4634 45.8004C88.7634 44.8185 88.6543 43.7822 88.2089 42.8549ZM73.7362 70.0367L73.1543 65.7276L74.9271 59.7004C75.0271 59.3549 74.8271 58.9913 74.4816 58.8822C74.1362 58.7822 73.7725 58.9822 73.6634 59.3276L72.718 62.5367L71.7543 55.4185L75.1907 56.4276C75.2543 56.4458 75.318 56.4549 75.3725 56.4549C75.6543 56.4549 75.918 56.2731 75.9998 55.9822L79.718 43.364C79.7634 43.2004 79.7453 43.0185 79.6634 42.864C79.5816 42.7095 79.4362 42.6004 79.2725 42.5458L69.6271 39.7095L69.2907 37.2549L82.2453 41.064L77.0816 58.6276L73.7362 70.0367ZM69.8271 41.1458L78.2816 43.6276L74.9362 54.9913L71.5634 54.0004L69.8271 41.1458ZM83.5089 41.4367L85.318 41.9731C85.9089 42.1458 86.4089 42.5095 86.7725 43.0095C86.8453 43.1095 86.9271 43.2095 86.9816 43.3185C87.3362 43.9731 87.418 44.7276 87.2089 45.4458L83.018 59.7004L78.5271 58.3822L83.5089 41.4367ZM70.318 82.5731L42.5362 86.3276C40.4907 86.6095 38.5998 85.164 38.318 83.1095L32.7089 41.6549C32.5725 40.664 32.8362 39.6822 33.4453 38.8822C34.0543 38.0822 34.9362 37.5731 35.918 37.4367L63.6998 33.6822C63.8816 33.6458 64.0453 33.6367 64.2089 33.6367C66.0543 33.6367 67.6634 35.0004 67.918 36.8822L71.8271 65.7458L72.8362 73.2367L73.5271 78.3367C73.5725 78.664 73.5725 78.9913 73.5271 79.3185C73.3271 81.0095 71.9998 82.3458 70.318 82.5731ZM77.9543 76.8913C77.5634 78.2458 76.2271 79.0549 74.8725 78.864C74.8725 78.6367 74.8634 78.4004 74.8271 78.1731L74.1543 73.2276L78.1543 59.6367L82.6453 60.9549L77.9543 76.8913Z" fill="#BA6827"/>
<path d="M64.1819 72.8912C64.5365 72.8457 64.791 72.5094 64.7456 72.1548C64.7001 71.8003 64.3638 71.5457 64.0092 71.5912L45.7183 74.0639C45.3638 74.1094 45.1092 74.4457 45.1547 74.8003C45.2001 75.1276 45.4819 75.3639 45.8001 75.3639C45.8274 75.3639 45.8547 75.3639 45.891 75.3548L64.1819 72.8912Z" fill="#BA6827"/>
<path d="M64.7094 76.7906L46.4185 79.2633C46.064 79.3088 45.8094 79.6451 45.8549 79.9997C45.9003 80.3269 46.1821 80.5633 46.5003 80.5633C46.5276 80.5633 46.5549 80.5633 46.5912 80.5542L64.8821 78.0815C65.2367 78.036 65.4912 77.6997 65.4458 77.3451C65.4003 76.9906 65.064 76.7451 64.7094 76.7906Z" fill="#BA6827"/>
<path d="M52.3629 66.6918C52.8811 66.6918 53.4084 66.6554 53.9356 66.5918C53.9629 66.5918 53.9902 66.5918 54.0266 66.5827C54.0447 66.5827 54.072 66.5736 54.0902 66.5645C57.9447 66.0281 61.3811 63.6645 63.2902 60.2463C64.6084 57.8736 65.1084 55.2008 64.7447 52.5099C64.7447 52.5099 64.7447 52.5099 64.7447 52.5008C64.7447 52.5008 64.7447 52.5008 64.7447 52.4918C64.3811 49.8008 63.1811 47.3554 61.2902 45.419C58.4993 42.5736 54.6356 41.2463 50.6811 41.7736C46.7356 42.3099 43.3538 44.619 41.4175 48.1008C40.0993 50.4736 39.5993 53.1463 39.9629 55.8463C40.3266 58.519 41.5084 60.9463 43.3811 62.8736C43.3902 62.8827 43.4084 62.9008 43.4175 62.919C45.7629 65.3463 49.0266 66.6918 52.3629 66.6918ZM41.3538 56.3372L46.2902 55.6736C46.5266 57.1463 46.872 58.5372 47.3084 59.7827C46.0266 60.2918 44.8902 60.9099 43.9538 61.6008C42.6175 60.1008 41.7356 58.3008 41.3538 56.3372ZM47.3175 50.2372C47.6629 50.2554 48.0175 50.2645 48.372 50.2645C49.2629 50.2645 50.1902 50.2008 51.1266 50.1008L51.6084 53.6281L47.4175 54.1918C47.2629 52.8099 47.2356 51.4736 47.3175 50.2372ZM63.3175 52.0372L58.3811 52.7008C58.1447 51.2281 57.7993 49.8372 57.3629 48.5827C58.6447 48.0736 59.7811 47.4554 60.7175 46.7645C62.0447 48.2736 62.9356 50.0736 63.3175 52.0372ZM57.3629 58.1463C56.1447 58.0918 54.8629 58.1372 53.5538 58.2736L53.0811 54.7463L57.2629 54.1827C57.4084 55.5554 57.4447 56.8918 57.3629 58.1463ZM52.2538 58.4463C50.9538 58.6554 49.7084 58.9554 48.5447 59.3281C48.1356 58.1554 47.8084 56.8554 47.5811 55.4918L51.772 54.9281L52.2538 58.4463ZM52.4266 59.7463L53.172 65.2554C51.6629 64.9918 50.1447 63.1918 49.0175 60.5645C50.0902 60.219 51.2447 59.9463 52.4266 59.7463ZM50.5266 65.2099C48.4447 64.8645 46.4902 63.9463 44.8902 62.5281C45.6993 61.9554 46.6811 61.4463 47.7811 61.0099C48.5447 62.7918 49.4902 64.2372 50.5266 65.2099ZM54.472 65.0736L53.7266 59.5736C54.9175 59.4463 56.0993 59.4008 57.2175 59.4554C57.0993 60.2827 56.9447 61.0645 56.7175 61.7736C56.1993 63.4645 55.3902 64.619 54.472 65.0736ZM55.6538 47.8099C54.5811 48.1554 53.4356 48.4281 52.2447 48.6281L51.4993 43.1281C52.9175 43.4008 54.4811 45.0827 55.6538 47.8099ZM52.4266 49.919C53.7266 49.7099 54.9811 49.4099 56.1356 49.0372C56.5356 50.1827 56.8538 51.4736 57.0811 52.8827L52.8993 53.4463L52.4266 49.919ZM56.8902 47.3645C56.1175 45.5645 55.1538 44.1099 54.0993 43.1372C56.1993 43.4645 58.1629 44.3918 59.7811 45.8372C58.972 46.4099 57.9902 46.9281 56.8902 47.3645ZM50.2084 43.3008L50.9538 48.8008C49.7538 48.9281 48.5811 48.9736 47.4538 48.919C47.8356 46.0918 48.8266 43.9554 50.2084 43.3008ZM56.9993 64.3554C57.3811 63.7372 57.7084 63.0099 57.9811 62.1645C58.2356 61.3645 58.4175 60.4827 58.5356 59.5554C59.7084 59.6827 60.7902 59.919 61.7266 60.2554C60.5447 62.0736 58.9175 63.4827 56.9993 64.3554ZM62.3902 59.1008C61.2993 58.6827 60.0447 58.3918 58.672 58.2372C58.7629 56.8918 58.7266 55.4645 58.5629 54.0008L63.4993 53.3372C63.6538 55.3372 63.272 57.3099 62.3902 59.1008ZM47.6902 44.019C46.9356 45.2372 46.3993 46.8827 46.1356 48.819C44.9629 48.6918 43.8811 48.4554 42.9447 48.119C44.1266 46.3008 45.7629 44.8918 47.6902 44.019ZM42.2811 49.2827C43.372 49.7008 44.6356 49.9827 46.0084 50.1372C45.9175 51.4645 45.9538 52.8918 46.1175 54.3736L41.1811 55.0372C41.0175 53.0372 41.3993 51.0736 42.2811 49.2827Z" fill="#BA6827"/>
</svg>
