<svg width="120" height="120" viewBox="0 0 120 120" fill="none" xmlns="http://www.w3.org/2000/svg">
<circle cx="60" cy="60" r="59.5" stroke="#BA6827"/>
<g clip-path="url(#clip0_5033_4019)">
<path d="M61.2891 40.2539C60.642 40.2539 60.1172 40.7786 60.1172 41.4258C60.1172 42.073 60.642 42.5977 61.2891 42.5977H65.1418C65.1498 45.3875 66.0552 47.9934 67.5974 50.1205C65.9995 51.6779 63.9064 52.7411 61.5534 53.0365C60.9113 53.1171 60.456 53.703 60.5366 54.3451C60.611 54.9377 61.1156 55.3711 61.6978 55.3711C61.7464 55.3711 61.7958 55.368 61.8452 55.3618C64.6758 55.0065 67.2001 53.7437 69.1407 51.889C71.0814 53.7437 73.6057 55.0065 76.4363 55.3618C76.4858 55.368 76.5349 55.3711 76.5837 55.3711C77.1657 55.3711 77.6705 54.9376 77.7449 54.3451C77.8255 53.7029 77.3704 53.117 76.728 53.0365C74.375 52.7411 72.2818 51.678 70.6841 50.1205C72.2262 47.9933 73.1317 45.3875 73.1396 42.5977H76.9922C77.6393 42.5977 78.1641 42.073 78.1641 41.4258C78.1641 40.7786 77.6393 40.2539 76.9922 40.2539H70.3125V37.207C70.3125 36.5598 69.7877 36.0352 69.1406 36.0352C68.4935 36.0352 67.9688 36.5598 67.9688 37.207V40.2539H61.2891ZM69.1406 48.223C68.0975 46.5875 67.4931 44.6544 67.4859 42.5977H70.7952C70.7882 44.6544 70.1837 46.5875 69.1406 48.223Z" fill="#BA6827"/>
<path d="M83.7846 30H74.4141C73.767 30 73.2422 30.5246 73.2422 31.1719C73.2422 31.8191 73.767 32.3438 74.4141 32.3438H83.7846C85.9195 32.3438 87.6562 34.0806 87.6562 36.2155V55.1909C87.6562 57.3257 85.9194 59.0625 83.7845 59.0625C83.1374 59.0625 82.6126 59.5871 82.6126 60.2344V65.1929L75.7609 59.3432C75.5488 59.162 75.279 59.0625 75 59.0625H54.4966C52.3617 59.0625 50.625 57.3257 50.625 55.1907V36.2155C50.625 34.0806 52.3617 32.3438 54.4966 32.3438H63.8672C64.5143 32.3438 65.0391 31.8191 65.0391 31.1719C65.0391 30.5246 64.5143 30 63.8672 30H54.4966C51.0695 30 48.2812 32.7882 48.2812 36.2155V51.0938H36.2154C32.7882 51.0938 30 53.882 30 57.3093V76.2846C30 79.3112 32.1748 81.8395 35.0435 82.3893V88.8281C35.0435 89.2854 35.3095 89.7008 35.7247 89.8923C35.8816 89.9646 36.049 90 36.2153 90C36.4891 90 36.76 89.9041 36.9764 89.7193L45.4322 82.5H65.5032C68.9305 82.5 71.7188 79.7118 71.7188 76.2845V61.4062H74.5678L83.0236 68.6256C83.24 68.8104 83.5109 68.9064 83.7847 68.9062C83.951 68.9062 84.1184 68.8709 84.2753 68.7986C84.6905 68.6071 84.9565 68.1916 84.9565 67.7344L84.9566 61.2955C87.8254 60.7458 90.0001 58.2175 90.0001 55.1909V36.2155C90 32.7882 87.2118 30 83.7846 30ZM50.8785 62.7546L53.2002 68.9065H48.5355L50.8785 62.7546ZM69.375 76.2845C69.375 78.4194 67.6383 80.1562 65.5034 80.1562H45C44.721 80.1562 44.4512 80.2557 44.2391 80.4369L37.3873 86.2868V81.3281C37.3873 80.6809 36.8625 80.1562 36.2154 80.1562C34.0805 80.1562 32.3438 78.4194 32.3438 76.2845V57.3093C32.3438 55.1743 34.0805 53.4375 36.2154 53.4375H48.2812V55.1907C48.2812 56.755 48.8633 58.1849 49.8205 59.2786C49.6936 59.4105 49.5898 59.5673 49.5173 59.7443C49.5137 59.7532 49.5101 59.7621 49.5068 59.7711L44.4907 72.9416C44.2603 73.5464 44.5638 74.2234 45.1686 74.4538C45.7734 74.6841 46.4504 74.3805 46.6808 73.7757L47.6427 71.2504H54.0845L55.0363 73.7723C55.2134 74.2417 55.6591 74.5308 56.1328 74.5308C56.2703 74.5308 56.4101 74.5064 56.5464 74.455C57.1519 74.2264 57.4574 73.5503 57.2289 72.9448L52.783 61.1641C53.3277 61.3206 53.902 61.4062 54.4963 61.4062H69.375V76.2845Z" fill="#BA6827"/>
<path d="M69.1406 32.3438C69.4488 32.3438 69.7512 32.2184 69.969 32.0004C70.1871 31.7824 70.3125 31.4801 70.3125 31.1719C70.3125 30.8637 70.1871 30.5613 69.969 30.3434C69.7512 30.1254 69.4488 30 69.1406 30C68.8324 30 68.5301 30.1254 68.3121 30.3434C68.094 30.5613 67.9688 30.8637 67.9688 31.1719C67.9688 31.4801 68.094 31.7824 68.3121 32.0004C68.5302 32.2184 68.8324 32.3438 69.1406 32.3438Z" fill="#BA6827"/>
</g>
<defs>
<clipPath id="clip0_5033_4019">
<rect width="60" height="60" fill="white" transform="translate(30 30)"/>
</clipPath>
</defs>
</svg>
