<svg width="120" height="120" viewBox="0 0 120 120" fill="none" xmlns="http://www.w3.org/2000/svg">
<circle cx="60" cy="60" r="59.5" stroke="#BA6827"/>
<path fill-rule="evenodd" clip-rule="evenodd" d="M60 41.25C47.5736 41.25 37.5 51.3236 37.5 63.75C37.5 76.1764 47.5736 86.25 60 86.25C72.4264 86.25 82.5 76.1764 82.5 63.75C82.5 51.3236 72.4264 41.25 60 41.25ZM35 63.75C35 49.9429 46.1929 38.75 60 38.75C73.8071 38.75 85 49.9429 85 63.75C85 77.5571 73.8071 88.75 60 88.75C46.1929 88.75 35 77.5571 35 63.75Z" fill="#BA6827"/>
<path fill-rule="evenodd" clip-rule="evenodd" d="M61.25 33.75V40H58.75V33.75H61.25Z" fill="#BA6827"/>
<path fill-rule="evenodd" clip-rule="evenodd" d="M67.5 35H52.5V32.5H67.5V35Z" fill="#BA6827"/>
<path fill-rule="evenodd" clip-rule="evenodd" d="M82.8668 42.6506L77.678 47.8393L75.9102 46.0715L81.099 40.8828L82.8668 42.6506Z" fill="#BA6827"/>
<path fill-rule="evenodd" clip-rule="evenodd" d="M61.25 46.25V60H58.75V46.25H61.25Z" fill="#BA6827"/>
<path fill-rule="evenodd" clip-rule="evenodd" d="M60 61.25C58.6193 61.25 57.5 62.3693 57.5 63.75C57.5 65.1307 58.6193 66.25 60 66.25C61.3807 66.25 62.5 65.1307 62.5 63.75C62.5 62.3693 61.3807 61.25 60 61.25ZM55 63.75C55 60.9886 57.2386 58.75 60 58.75C62.7614 58.75 65 60.9886 65 63.75C65 66.5114 62.7614 68.75 60 68.75C57.2386 68.75 55 66.5114 55 63.75Z" fill="#BA6827"/>
</svg>
