<svg width="23" height="23" viewBox="0 0 23 23" fill="none" xmlns="http://www.w3.org/2000/svg">
<path d="M19.8276 14.2759L16.6552 15.069L17.8448 15.8621L16.5193 17.1877C16.0985 17.6084 15.5279 17.8448 14.9331 17.8448C13.6942 17.8448 12.6897 16.8403 12.6897 15.6014V14.649L16.7758 12.4017C18.4139 11.5008 19.4311 9.78019 19.4311 7.91128C19.4311 5.83597 18.193 3.97868 16.2772 3.18035L14.6589 2.50614C14.5226 1.10155 13.336 0 11.8966 0C10.3663 0 9.12071 1.24561 9.12071 2.77586C9.12071 4.03058 9.95854 5.09244 11.1035 5.43477V7.13793H9.91381C9.47563 7.13793 9.12071 7.49285 9.12071 7.93103C9.12071 8.36922 9.47563 8.72414 9.91381 8.72414H11.1035V14.6165L6.97414 16.8879L5.94829 15.8621L7.13795 15.069L3.96553 14.2759L3.56898 17.4483L4.75864 16.6552L5.45938 17.7763C3.78836 18.975 2.77588 20.9125 2.77588 23H3.56898C3.56898 21.1803 4.44612 19.4901 5.89563 18.4381C6.59617 19.389 7.57381 20.1052 8.70111 20.4807C9.75155 20.8308 10.6785 21.4773 11.3699 22.3417L11.8966 23L12.4232 22.3417C13.1147 21.4773 14.0416 20.8308 15.092 20.4807C16.3586 20.0584 17.4388 19.2082 18.1467 18.0756L19.0345 16.6552L20.2242 17.4483L19.8276 14.2759ZM9.91381 2.77586C9.91381 1.68263 10.8033 0.793103 11.8966 0.793103C12.9898 0.793103 13.8793 1.68263 13.8793 2.77586C13.8793 3.58678 13.3889 4.28346 12.6897 4.59055V3.56897C12.6897 3.13078 12.3348 2.77586 11.8966 2.77586C11.4584 2.77586 11.1035 3.13078 11.1035 3.56897V4.59055C10.4043 4.28404 9.91381 3.58678 9.91381 2.77586ZM12.6897 8.72414H13.8793C14.3175 8.72414 14.6724 8.36922 14.6724 7.93103C14.6724 7.49285 14.3175 7.13793 13.8793 7.13793H12.6897V5.43477C13.6565 5.14568 14.4035 4.34387 14.613 3.34571L15.9719 3.91208C17.5914 4.58726 18.6379 6.15681 18.6379 7.91128C18.6379 9.4911 17.7778 10.9456 16.3934 11.707L12.6897 13.7442V8.72414ZM8.86008 17.8448C8.40486 17.8448 7.96552 17.7044 7.59511 17.451L11.1035 15.5215V15.6014C11.1035 16.8407 10.0989 17.8448 8.86008 17.8448Z" fill="white"/>
</svg>
