<svg width="20" height="20" viewBox="0 0 20 20" fill="none" xmlns="http://www.w3.org/2000/svg">
<path d="M17.2414 12.4138L14.4828 13.1034L15.5173 13.7931L14.3646 14.9458C13.9987 15.3117 13.5025 15.5172 12.9853 15.5172C11.908 15.5172 11.0345 14.6437 11.0345 13.5665V12.7382L14.5877 10.7841C16.0121 10.0007 16.8966 8.50451 16.8966 6.87938C16.8966 5.07476 15.82 3.45973 14.1541 2.76552L12.7469 2.17925C12.6283 0.957873 11.5965 0 10.3449 0C9.0142 0 7.93106 1.08314 7.93106 2.41379C7.93106 3.50485 8.65961 4.42821 9.6552 4.72589V6.2069H8.62072C8.23969 6.2069 7.93106 6.51552 7.93106 6.89655C7.93106 7.27758 8.23969 7.58621 8.62072 7.58621H9.6552V12.71L6.06448 14.6851L5.17244 13.7931L6.20692 13.1034L3.4483 12.4138L3.10347 15.1724L4.13796 14.4828L4.7473 15.4576C3.29424 16.5 2.41382 18.1848 2.41382 20H3.10347C3.10347 18.4176 3.8662 16.9479 5.12664 16.0331C5.73581 16.86 6.58593 17.4828 7.5662 17.8093C8.47962 18.1137 9.28562 18.6759 9.88688 19.4275L10.3449 20L10.8028 19.4275C11.4041 18.6759 12.2101 18.1137 13.1235 17.8093C14.2248 17.4421 15.1642 16.7028 15.7798 15.7179L16.5517 14.4828L17.5862 15.1724L17.2414 12.4138ZM8.62072 2.41379C8.62072 1.46316 9.39422 0.689655 10.3449 0.689655C11.2955 0.689655 12.069 1.46316 12.069 2.41379C12.069 3.11894 11.6425 3.72474 11.0345 3.99178V3.10345C11.0345 2.72242 10.7259 2.41379 10.3449 2.41379C9.96383 2.41379 9.6552 2.72242 9.6552 3.10345V3.99178C9.0472 3.72525 8.62072 3.11894 8.62072 2.41379ZM11.0345 7.58621H12.069C12.45 7.58621 12.7586 7.27758 12.7586 6.89655C12.7586 6.51552 12.45 6.2069 12.069 6.2069H11.0345V4.72589C11.8752 4.47451 12.5248 3.77728 12.707 2.90931L13.8886 3.4018C15.2969 3.98892 16.2069 5.35375 16.2069 6.87938C16.2069 8.25313 15.459 9.51795 14.2551 10.18L11.0345 11.9514V7.58621ZM7.70443 15.5172C7.30859 15.5172 6.92655 15.3952 6.60445 15.1748L9.6552 13.4969V13.5665C9.6552 14.6441 8.78168 15.5172 7.70443 15.5172Z" fill="#003A59"/>
</svg>
