<svg width="20" height="20" viewBox="0 0 20 20" fill="none" xmlns="http://www.w3.org/2000/svg">
<path d="M17.3116 9.65046L17.3566 9.59523C17.9877 8.82177 18.2004 8.5612 18.3405 7.42171C18.3762 7.13133 18.3082 6.91318 18.1384 6.77327C17.8615 6.54524 17.499 6.6634 17.1484 6.77772C16.7467 6.90865 16.4282 6.9956 16.2876 6.82936L16.1842 6.70683C15.8757 6.341 15.8361 6.29401 15.5962 6.16738C15.5153 6.12472 15.3931 6.06023 15.1729 5.92056C15.0163 5.82119 14.9199 5.3825 14.8562 5.09221C14.8058 4.86258 14.7581 4.64568 14.6764 4.4776C14.5595 4.23746 14.4013 4.10368 14.2617 3.98568C14.1161 3.86265 13.9656 3.73539 13.7925 3.42967C13.71 3.28401 13.7246 3.11887 13.7551 2.8615C13.7953 2.52324 13.8453 2.10229 13.5421 1.67666C13.3705 1.43581 13.1069 1.46452 12.5819 1.5219C12.1863 1.56506 11.5887 1.63029 11.3015 1.5219C11.1877 1.4789 10.907 1.38961 10.6385 1.33289C10.2846 1.25813 9.89438 1.21692 9.68318 1.47784C9.51851 1.68127 9.5237 1.89406 9.56003 2.05448C9.51812 2.03491 9.46437 2.00648 9.39359 1.96679C9.26509 1.89469 9.11939 1.81302 8.95296 1.77489C8.76297 1.73142 8.47783 1.52253 8.43952 1.42257L8.42569 1.36035C8.32542 0.907177 8.24621 0.549193 7.64722 0.223707C7.11878 -0.0634224 6.40735 -0.0751794 5.87676 0.194373C5.81707 0.224683 5.75829 0.264486 5.69021 0.310537C5.55877 0.399477 5.39515 0.510133 5.22098 0.553451C5.15637 0.569465 5.04283 0.559349 4.93299 0.549584C4.75289 0.533491 4.52856 0.513532 4.2987 0.579504C3.64964 0.765741 2.95613 1.2011 2.95613 1.86446C2.95613 2.02203 2.93488 2.13655 2.89781 2.17873C2.86102 2.22064 2.75903 2.26131 2.64099 2.30845C2.33652 2.42997 1.87636 2.61363 1.44146 3.23421C1.40807 3.2819 1.37705 3.32413 1.34838 3.36319C1.06637 3.74773 0.967707 3.95971 0.967707 4.82778C0.967707 5.07893 0.898531 5.29099 0.81842 5.53656C0.625503 6.12804 0.406806 6.79847 1.08043 8.0567C1.24175 8.35801 1.833 8.85845 2.15692 9.10663C3.06753 9.80428 3.42149 9.80284 3.6478 9.70956C4.00965 9.56031 4.22558 9.57426 4.47544 9.59031C4.82058 9.61258 5.21118 9.63777 5.81215 9.25115C5.90945 9.22905 6.21216 9.30689 6.39453 9.35384C6.65014 9.41958 6.91407 9.48747 7.16448 9.49266C7.158 9.56664 7.1241 9.71765 7.00004 10.0422C6.98203 10.0893 6.96582 10.1318 6.95297 10.1681C6.71873 10.8269 7.09617 11.1133 7.34596 11.3028C7.46165 11.3906 7.57094 11.4735 7.66718 11.6014C7.79694 11.7738 8.04173 11.8084 8.21418 11.6786C8.38651 11.5489 8.42112 11.304 8.2914 11.1317C8.12977 10.9169 7.9497 10.7803 7.81819 10.6805C7.76058 10.6368 7.68285 10.5778 7.66101 10.5485C7.66109 10.5363 7.66398 10.5005 7.6891 10.4298C7.70023 10.3985 7.71433 10.3618 7.72988 10.3211C7.87088 9.95212 8.08395 9.3945 7.81694 9.00656C7.72441 8.87212 7.54137 8.71185 7.19499 8.71185C7.03445 8.71185 6.80814 8.65366 6.58925 8.59733C6.16525 8.48828 5.7268 8.37551 5.39796 8.58882C5.00799 8.84188 4.81612 8.82946 4.52579 8.81083C4.24831 8.79294 3.90564 8.77087 3.40794 8.9643C3.29064 8.9302 2.98453 8.76642 2.54178 8.41629C2.09029 8.05928 1.81128 7.76051 1.76929 7.68809C1.253 6.72382 1.39584 6.28596 1.56126 5.77896C1.64926 5.50914 1.74906 5.2033 1.74906 4.82793C1.74906 4.13821 1.79765 4.07193 1.9785 3.82534C2.01018 3.78218 2.04443 3.73543 2.08138 3.6827C2.38234 3.25292 2.66103 3.14168 2.93055 3.03411C3.28997 2.89068 3.73729 2.71214 3.73729 1.86457C3.73729 1.7174 4.05633 1.46187 4.51415 1.33051C4.6043 1.30469 4.73023 1.31594 4.86362 1.32781C5.02951 1.34262 5.21754 1.35937 5.40944 1.31168C5.71809 1.23493 5.96472 1.0681 6.12791 0.957721C6.16416 0.93323 6.21373 0.899678 6.23064 0.890967C6.52765 0.74004 6.97633 0.74836 7.27424 0.910224C7.56039 1.06572 7.57407 1.12751 7.66297 1.52928L7.67781 1.59619C7.78225 2.06335 8.39503 2.44879 8.77871 2.53656C8.83547 2.54957 8.92495 2.59976 9.01151 2.64827C9.27001 2.79322 9.7026 3.0359 10.1722 2.71788C10.4532 2.52754 10.4302 2.25099 10.3851 2.07874C10.5895 2.11581 10.8651 2.19225 11.0257 2.25283C11.4877 2.42723 12.1413 2.35587 12.6667 2.29857C12.7642 2.28791 12.8839 2.27486 12.9761 2.26775C13.0193 2.4013 13.0051 2.55301 12.9794 2.76948C12.944 3.0677 12.9 3.43885 13.1128 3.81468C13.3547 4.24188 13.5874 4.43866 13.7574 4.58232C13.8766 4.6831 13.9311 4.73138 13.974 4.8195C14.0151 4.90402 14.0548 5.08491 14.0932 5.25986C14.1957 5.72623 14.3231 6.30662 14.7545 6.58028C15.001 6.73663 15.1398 6.80987 15.2316 6.85834C15.337 6.91393 15.337 6.91393 15.587 7.21047L15.6911 7.33386C16.1821 7.91445 16.9386 7.66786 17.3906 7.52057C17.437 7.50545 17.4925 7.48733 17.5466 7.47092C17.4394 8.25837 17.3128 8.41344 16.7515 9.10144L16.7063 9.15682C16.2289 9.74222 15.881 10.0232 15.6015 10.2489C15.2818 10.507 15.0294 10.7109 14.8782 11.155C14.7494 11.533 14.7016 12.0649 14.7016 13.1176C14.7016 13.4478 14.7348 13.665 14.7615 13.8396C14.7914 14.0344 14.811 14.1632 14.782 14.3994C14.7563 14.6082 14.6391 14.6827 14.3109 14.8423C13.9069 15.0387 13.232 15.3668 13.493 16.4494C13.5028 16.5607 13.4766 16.9449 13.416 17.0959C13.2523 17.504 12.9272 17.71 12.9239 17.712C12.6884 17.8551 12.4321 18.0645 12.1608 18.2862C11.5877 18.7545 10.8743 19.3372 10.42 19.1985C10.1024 19.1015 10.0573 19.0358 10.0569 19.0351C10.0484 19.0208 10.0386 18.9525 10.0321 18.9073C10.0081 18.7397 9.9718 18.4864 9.76884 18.1812C9.55276 17.8563 9.53487 17.7119 9.50777 17.4933C9.47148 17.2003 9.42633 16.8357 8.98124 16.1271C8.78016 15.807 8.61306 15.3002 8.69317 14.8895C8.73446 14.6777 8.5963 14.4726 8.38456 14.4313C8.17289 14.3901 7.96767 14.5282 7.92642 14.74C7.79733 15.402 8.04497 16.1053 8.31976 16.5427C8.67243 17.1041 8.70161 17.3398 8.7325 17.5893C8.76422 17.8452 8.80012 18.1353 9.11842 18.6139C9.22353 18.7719 9.23989 18.886 9.2588 19.018C9.32266 19.4638 9.48445 19.7296 10.1919 19.9456C10.3144 19.9831 10.4377 20.0001 10.5611 20.0001C11.2982 20 12.041 19.393 12.6552 18.8911C12.9048 18.6871 13.1406 18.4944 13.3295 18.3797C13.3854 18.3457 13.8832 18.0294 14.141 17.3868C14.265 17.078 14.3026 16.4691 14.255 16.2768C14.1978 16.0455 14.2025 15.8822 14.2691 15.7911C14.337 15.6982 14.4903 15.6237 14.6525 15.5448C14.981 15.3851 15.4775 15.1437 15.5573 14.4947C15.5995 14.1515 15.5661 13.9328 15.5337 13.7213C15.5086 13.5576 15.4827 13.3883 15.4827 13.1175C15.4827 12.1838 15.5218 11.6881 15.6176 11.4068C15.6922 11.1878 15.7978 11.0944 16.0922 10.8567C16.3836 10.6213 16.7829 10.2989 17.3116 9.65046Z" fill="#2D4C19"/>
<path d="M19.1162 13.4734C18.9731 13.2734 18.7764 13.1512 18.5473 13.1202C18.0257 13.0498 17.7246 13.5304 17.5256 13.8487L17.4911 13.9036C17.3965 14.0538 17.3553 14.0676 17.1262 14.144C17.0924 14.1553 17.0569 14.1671 17.0193 14.1801C16.6139 14.3204 16.5495 14.7552 16.4872 15.1756C16.4514 15.4175 16.4107 15.6916 16.3115 15.8972C16.0745 16.388 15.9125 17.0791 16.1686 17.547C16.3002 17.7876 16.527 17.9386 16.8072 17.9723C16.8699 17.9798 16.9298 17.9834 16.9874 17.9834C17.7995 17.9834 18.127 17.2685 18.3485 16.7847C18.436 16.5938 18.5263 16.3965 18.6163 16.2994C18.9764 15.9109 19.2218 15.3958 19.3456 14.7685C19.4062 14.4617 19.3951 13.8637 19.1162 13.4734ZM18.5792 14.6172C18.4839 15.1003 18.3036 15.4876 18.0434 15.7683C17.8683 15.9573 17.7513 16.2125 17.6383 16.4593C17.3649 17.0563 17.2275 17.236 16.9004 17.1966C16.865 17.1924 16.8618 17.1864 16.8539 17.172C16.7797 17.0364 16.8202 16.6403 17.015 16.2369C17.166 15.924 17.2182 15.5725 17.26 15.2901C17.2787 15.1638 17.3057 14.9817 17.3355 14.8977C17.3484 14.8934 17.361 14.8891 17.3735 14.885C17.6487 14.7932 17.9086 14.7064 18.1521 14.3201L18.1881 14.2627C18.2571 14.1523 18.3814 13.9535 18.4564 13.9005C18.4623 13.9051 18.4703 13.9132 18.4806 13.9277C18.5911 14.0824 18.6132 14.4452 18.5792 14.6172Z" fill="#2D4C19"/>
<path d="M8.83429 13.0625C8.83429 12.8467 8.65938 12.6719 8.44369 12.6719H8.44342C8.22773 12.6719 8.05298 12.8467 8.05298 13.0625C8.05298 13.2782 8.22797 13.4531 8.44369 13.4531C8.65942 13.4531 8.83429 13.2782 8.83429 13.0625Z" fill="#2D4C19"/>
</svg>
