<svg width="24" height="24" viewBox="0 0 24 24" fill="none" xmlns="http://www.w3.org/2000/svg">
<path d="M21.6559 4.48608C21.5369 4.33266 21.316 4.30472 21.1626 4.42373C21.0092 4.54275 20.9813 4.76358 21.1003 4.917C22.1804 6.30956 22.8019 8.01542 22.874 9.76409L18.1532 8.49917C18.3503 7.24818 18.428 5.97745 18.3835 4.71689C18.3577 3.98724 18.2903 3.25374 18.1833 2.52821C18.8466 2.85713 19.4676 3.27394 20.0233 3.76669C20.1686 3.8955 20.3908 3.8821 20.5196 3.73688C20.6484 3.59157 20.635 3.36938 20.4898 3.24061C19.5714 2.4264 18.4967 1.81276 17.3376 1.42159L17.6773 0.469797C17.7426 0.286938 17.6472 0.0857983 17.4644 0.0205486C17.2816 -0.0447012 17.0804 0.0505953 17.0152 0.233454L16.6615 1.22453C12.6819 0.237063 8.51143 2.04652 6.49628 5.64393C6.46914 5.69432 6.44373 5.75868 6.44917 5.84493L6.57376 7.6776C6.59758 8.02747 6.84114 8.32353 7.1799 8.41433L10.6516 9.34456C10.985 9.434 11.3485 9.30261 11.5449 9.00959L11.9962 8.33773L12.0511 9.14525C12.0749 9.49512 12.3185 9.79118 12.6572 9.88198L14.0534 10.2561L12.0874 17.5933L8.79882 17.5837H8.79779C8.6041 17.5837 8.44683 17.7405 8.44622 17.9343C8.44566 18.1285 8.6026 18.2864 8.7968 18.2869L15.6817 18.3068H15.6851C16.0294 18.3068 16.3648 18.1659 16.6059 17.92L19.0837 15.3916C19.595 14.8698 20.3731 14.6819 21.0661 14.913L21.8197 15.1642L17.1211 19.8952C16.9246 20.0932 16.6518 20.2067 16.3728 20.2067H2.76387C2.72829 19.6724 2.87628 19.1524 3.26079 18.7692C3.57987 18.4512 4.00319 18.2763 4.45333 18.2763H4.45915L7.15585 18.2861H7.15717C7.35071 18.2861 7.50798 18.1296 7.50873 17.9358C7.50943 17.7417 7.35259 17.5837 7.15843 17.583L4.46158 17.5732C3.81954 17.5707 3.21823 17.8189 2.76443 18.2712C2.1928 18.841 2.06075 19.6226 2.06075 20.4177C2.06075 20.6891 2.28153 20.9098 2.55293 20.9098H3.39842L2.67115 22.5081C2.55354 22.7666 2.54956 23.0482 2.63764 23.2968H0.767333C0.573177 23.2968 0.415771 23.4542 0.415771 23.6484C0.415771 23.8426 0.573177 23.9999 0.767333 23.9999H22.4011C22.5953 23.9999 22.7527 23.8426 22.7527 23.6484C22.7527 23.4542 22.5953 23.2968 22.4011 23.2968H19.1007C19.1888 23.0482 19.1848 22.7666 19.0672 22.5081L17.9518 20.0567L22.5582 15.4183C22.8132 15.1655 22.7022 14.714 22.3646 14.6046L21.2885 14.2459C20.3422 13.9305 19.2796 14.187 18.5815 14.8994L16.1036 17.4277C15.9941 17.5395 15.8416 17.6036 15.6852 17.6036H15.6836L12.8147 17.5953L14.7325 10.438L16.1289 10.8121C16.4622 10.9016 16.8258 10.7701 17.0222 10.4771L17.4735 9.80529L17.5284 10.6128C17.5522 10.9627 17.7957 11.2587 18.1345 11.3495L21.6062 12.2798C21.9396 12.3692 22.3031 12.2379 22.4995 11.9448L23.5237 10.42C23.5539 10.3711 23.5835 10.3087 23.5834 10.2225C23.6099 8.15989 22.9256 6.1229 21.6559 4.48608ZM3.63101 23.2968C3.58066 23.2968 3.53173 23.2861 3.48551 23.2651C3.30907 23.1848 3.23084 22.9759 3.31118 22.7993L4.17096 20.9098H4.94393L3.95135 23.0907C3.8944 23.2159 3.76868 23.2968 3.63101 23.2968ZM10.5593 23.2968H4.63005L5.71638 20.9098H11.1988L10.5593 23.2968ZM11.2873 23.2968L11.9267 20.9098H16.022L17.1084 23.2968H11.2873ZM18.4272 22.7993C18.5075 22.9759 18.4293 23.1849 18.2522 23.2654C18.2066 23.2862 18.1581 23.2968 18.1078 23.2968C17.9701 23.2968 17.8441 23.2158 17.787 23.0907L16.773 20.8625C17.0029 20.8083 17.2212 20.7083 17.4123 20.5688L18.4272 22.7993ZM10.9612 8.61744C10.9333 8.65901 10.8819 8.67823 10.8336 8.6653L7.36182 7.73507C7.31345 7.72213 7.27867 7.6798 7.27524 7.62983L7.18403 6.2879L11.7111 7.50093L10.9612 8.61744ZM12.0564 6.86549L7.33932 5.60156C9.042 2.90574 12.1048 1.41512 15.2194 1.69295C14.6728 2.28934 14.1708 2.92758 13.7233 3.59832C13.0438 4.61667 12.4842 5.71448 12.0564 6.86549ZM16.4385 10.0851C16.4105 10.1267 16.3593 10.1459 16.3108 10.1329L12.8391 9.20272C12.7908 9.18978 12.756 9.14745 12.7526 9.09748L12.6613 7.75555L17.1884 8.96858L16.4385 10.0851ZM17.47 8.31608L12.7387 7.04835C13.1445 5.97107 13.6713 4.94325 14.3082 3.9886C14.8258 3.21286 15.4197 2.4826 16.0736 1.81398C16.5304 1.90267 16.9819 2.0311 17.4181 2.19582C17.5621 3.03647 17.6508 3.8918 17.6808 4.74173C17.7228 5.93268 17.6517 7.13319 17.47 8.31608ZM21.9157 11.5527C21.8878 11.5943 21.8365 11.6136 21.7881 11.6006L18.3164 10.6704C18.268 10.6574 18.2332 10.6151 18.2298 10.5651L18.1386 9.22325L22.6657 10.4363L21.9157 11.5527Z" fill="#FF7F50"/>
</svg>
