<svg width="50" height="32" viewBox="0 0 50 32" fill="none" xmlns="http://www.w3.org/2000/svg">
<path d="M49.5842 29.4565C49.5842 30.3659 48.8329 31.1172 47.9235 31.1172H1.66071C0.751274 31.1172 0 30.3659 0 29.4565V1.7779C0 0.868463 0.751274 0.117188 1.66071 0.117188H47.963C48.8724 0.117188 49.6237 0.868463 49.6237 1.7779V29.4565H49.5842Z" fill="#13457C"/>
<path fill-rule="evenodd" clip-rule="evenodd" d="M30.7629 24.5121H31.1978L31.6723 24.4726L32.1073 24.3935L32.5422 24.3144L32.9772 24.2353L33.4121 24.1167L33.8075 23.9585L34.2029 23.8004L34.5984 23.6422L34.9938 23.4445L35.3892 23.2073L35.745 23.0096L36.1009 22.7328L36.4172 22.4955L36.7336 22.1792L37.0499 21.9024L37.3662 21.5861L37.643 21.2698L37.8802 20.9139L38.157 20.5976L38.3943 20.2022L38.592 19.8463L38.7897 19.4509L38.9478 19.0555L39.106 18.6601L39.2642 18.2647L39.3828 17.8297L39.5014 17.3948L39.5805 16.9598L39.62 16.5249L39.6596 16.0504V15.6154V15.1409L39.62 14.706L39.5805 14.2315L39.5014 13.7966L39.3828 13.4011L39.2642 12.9662L39.106 12.5312L38.9478 12.1358L38.7897 11.7404L38.592 11.3846L38.3943 10.9892L38.157 10.6333L37.8802 10.2774L37.643 9.9611L37.3662 9.64477L37.0499 9.32844L36.7336 9.01212L36.4172 8.73533L36.1009 8.49809L35.745 8.2213L35.3892 8.0236L34.9938 7.78635L34.5984 7.58865L34.2029 7.43048L33.8075 7.27232L33.4121 7.11416L32.9772 6.99554L32.5422 6.91645L32.1073 6.83737L31.6723 6.75829L31.1978 6.71875H30.7629H30.2884L29.8535 6.75829L29.379 6.83737L28.944 6.91645L28.5486 6.99554L28.1137 7.11416L27.6787 7.27232L27.2833 7.43048L26.8879 7.58865L26.532 7.78635L26.1366 8.0236L25.7807 8.2213L25.4249 8.49809L25.1086 8.73533L24.7922 9.01212L24.4759 9.32844L24.1596 9.64477L23.8828 9.9611L23.6455 10.2774L23.3688 10.6333L23.1711 10.9892L22.9338 11.3846L22.7361 11.7404L22.5779 12.1358L22.4198 12.5312L22.2616 12.9662L22.143 13.4011L22.0639 13.7966L21.9848 14.2315L21.9057 14.706L21.8662 15.1409V15.6154V16.0504L21.9057 16.5249L21.9848 16.9598L22.0639 17.3948L22.143 17.8297L22.2616 18.2647L22.4198 18.6601L22.5779 19.0555L22.7361 19.4509L22.9338 19.8463L23.1711 20.2022L23.3688 20.5976L23.6455 20.9139L23.8828 21.2698L24.1596 21.5861L24.4759 21.9024L24.7922 22.1792L25.1086 22.4955L25.4249 22.7328L25.7807 23.0096L26.1366 23.2073L26.532 23.4445L26.8879 23.6422L27.2833 23.8004L27.6787 23.9585L28.1137 24.1167L28.5486 24.2353L28.944 24.3144L29.379 24.3935L29.8535 24.4726L30.2884 24.5121H30.7629Z" fill="#FBB231"/>
<path fill-rule="evenodd" clip-rule="evenodd" d="M18.861 24.5121H19.296L19.7705 24.4726L20.2054 24.3935L20.6404 24.3144L21.0753 24.2353L21.5103 24.1167L21.9057 23.9585L22.3011 23.8004L22.6965 23.6422L23.0919 23.4445L23.4478 23.2073L23.8036 23.0096L24.1595 22.7328L24.5154 22.4955L24.8317 22.1792L25.148 21.9024L25.4248 21.5861L25.7016 21.2698L25.9784 20.9139L26.2156 20.5976L26.4529 20.2022L26.6506 19.8463L26.8483 19.4509L27.046 19.0555L27.2041 18.6601L27.3228 18.2647L27.4414 17.8297L27.56 17.3948L27.6391 16.9598L27.6786 16.5249L27.7182 16.0504V15.6154V15.1409L27.6786 14.706L27.6391 14.2315L27.56 13.7966L27.4414 13.4011L27.3228 12.9662L27.2041 12.5312L27.046 12.1358L26.8483 11.7404L26.6506 11.3846L26.4529 10.9892L26.2156 10.6333L25.9784 10.2774L25.7016 9.9611L25.4248 9.64477L25.148 9.32844L24.8317 9.01212L24.5154 8.73533L24.1595 8.49809L23.8036 8.2213L23.4478 8.0236L23.0919 7.78635L22.6965 7.58865L22.3011 7.43048L21.9057 7.27232L21.5103 7.11416L21.0753 6.99554L20.6404 6.91645L20.2054 6.83737L19.7705 6.75829L19.296 6.71875H18.861H18.3865L17.9516 6.75829L17.4771 6.83737L17.0422 6.91645L16.6072 6.99554L16.2118 7.11416L15.7768 7.27232L15.3814 7.43048L14.986 7.58865L14.5906 7.78635L14.2348 8.0236L13.8789 8.2213L13.523 8.49809L13.1672 8.73533L12.8508 9.01212L12.5345 9.32844L12.2577 9.64477L11.9809 9.9611L11.7041 10.2774L11.4669 10.6333L11.2297 10.9892L10.9924 11.3846L10.7947 11.7404L10.6365 12.1358L10.4784 12.5312L10.3202 12.9662L10.2016 13.4011L10.1225 13.7966L10.0434 14.2315L9.96435 14.706V15.1409L9.9248 15.6154L9.96435 16.0504V16.5249L10.0434 16.9598L10.1225 17.3948L10.2016 17.8297L10.3202 18.2647L10.4784 18.6601L10.6365 19.0555L10.7947 19.4509L10.9924 19.8463L11.2297 20.2022L11.4669 20.5976L11.7041 20.9139L11.9809 21.2698L12.2577 21.5861L12.5345 21.9024L12.8508 22.1792L13.1672 22.4955L13.523 22.7328L13.8789 23.0096L14.2348 23.2073L14.5906 23.4445L14.986 23.6422L15.3814 23.8004L15.7768 23.9585L16.2118 24.1167L16.6072 24.2353L17.0422 24.3144L17.4771 24.3935L17.9516 24.4726L18.3865 24.5121H18.861Z" fill="#EC1C2E"/>
<path fill-rule="evenodd" clip-rule="evenodd" d="M23.7642 10.1151H28.4695V9.64062H24.1596L23.7642 10.1151Z" fill="#FBB231"/>
<path fill-rule="evenodd" clip-rule="evenodd" d="M23.0522 11.1854H28.4693V10.7109H23.329L23.0522 11.1854Z" fill="#FBB231"/>
<path fill-rule="evenodd" clip-rule="evenodd" d="M22.5381 12.2953H28.4692V11.7812H22.7358L22.5381 12.2953Z" fill="#FBB231"/>
<path fill-rule="evenodd" clip-rule="evenodd" d="M22.1431 13.3578H28.4696V12.8438H22.3012L22.1431 13.3578Z" fill="#FBB231"/>
<path fill-rule="evenodd" clip-rule="evenodd" d="M22.3803 18.5448H28.5092V18.0703H22.2222L22.3803 18.5448Z" fill="#FBB231"/>
<path fill-rule="evenodd" clip-rule="evenodd" d="M22.8149 19.6073H28.5088V19.1328H22.5776L22.8149 19.6073Z" fill="#FBB231"/>
<path fill-rule="evenodd" clip-rule="evenodd" d="M23.4477 20.6776H28.5089V20.2031H23.1709L23.4477 20.6776Z" fill="#FBB231"/>
<path fill-rule="evenodd" clip-rule="evenodd" d="M24.3178 21.7479H28.5091V21.2734H23.9224L24.3178 21.7479Z" fill="#FBB231"/>
<path fill-rule="evenodd" clip-rule="evenodd" d="M21.9453 14.4276H28.4695V13.9531H22.0244L21.9453 14.4276Z" fill="#FBB231"/>
<path fill-rule="evenodd" clip-rule="evenodd" d="M25.939 17.4745H28.43V17H26.0181L25.939 17.4745Z" fill="#FBB231"/>
<path fill-rule="evenodd" clip-rule="evenodd" d="M26.1367 16.4042H28.4301V15.9297H26.2158L26.1367 16.4042Z" fill="#FBB231"/>
<path fill-rule="evenodd" clip-rule="evenodd" d="M21.7871 15.9297H22.4198V16.4042H21.8267L21.7871 15.9297Z" fill="#FBB231"/>
<path fill-rule="evenodd" clip-rule="evenodd" d="M20.5614 15.3372H20.5218L20.4823 15.2977H20.4428H20.4032H20.3637H20.3241H20.2846H20.245L20.2055 15.2581H20.166H20.1264H20.0473H20.0078H19.9287H19.8496L19.7706 15.2977H19.6915H19.6519H19.5729L19.5333 15.3372H19.4938L19.4542 15.3768L19.4147 15.4163V15.4558H19.3752V15.4954V15.5349V15.5745V15.614V15.6535L19.4147 15.6931L19.4542 15.7326L19.4938 15.7722L19.5729 15.8512L19.6519 15.8908H19.731L19.8496 15.9303L19.9287 15.9699L20.0473 16.0094L20.1264 16.0489L20.245 16.0885L20.3241 16.1676L20.4032 16.2467L20.4428 16.3257L20.4823 16.4444L20.5218 16.563V16.7211V16.9188V17.077L20.4823 17.1956L20.4032 17.3143L20.3637 17.3933L20.2846 17.4724L20.2055 17.5515L20.1264 17.6306L20.0473 17.6701L19.9287 17.7492L19.8496 17.7887H19.731L19.6519 17.8283H19.5333L19.4147 17.8678H19.3356H19.2565H19.0984H18.9797H18.9007H18.782H18.703L18.6239 17.8283H18.5448H18.4657H18.4262H18.3471L18.3076 17.7887H18.2285H18.1889L18.1494 17.7492H18.1098L18.0308 17.7097L18.1889 17.077H18.2285H18.268L18.3471 17.1166H18.3866H18.4657L18.5053 17.1561H18.5843H18.6634H18.7425L18.8216 17.1956H18.9007H18.9797H19.0984H19.1774H19.2565H19.3356L19.4147 17.1561L19.4542 17.1166L19.4938 17.077L19.5333 17.0375L19.5729 16.9979V16.9584V16.8793L19.6124 16.8002L19.5729 16.7211L19.5333 16.6816L19.4542 16.6421L19.3356 16.563L19.2565 16.5234L19.1379 16.4839L19.0193 16.4444L18.9007 16.4048L18.782 16.3257L18.6634 16.2467L18.5843 16.1676L18.5053 16.0489L18.4657 15.8908L18.4262 15.7326V15.5349V15.4163L18.4657 15.3372L18.5053 15.2186L18.5448 15.1395L18.5843 15.0209L18.6239 14.9418L18.703 14.8627L18.782 14.8232L18.8611 14.7441L18.9402 14.7046L19.0588 14.665L19.1774 14.6255H19.2961L19.4542 14.5859H19.6124H19.8101H19.9287H20.0078H20.0869H20.2055H20.245H20.3241H20.4032H20.4428L20.4823 14.6255H20.5218H20.5614H20.6009H20.6405H20.68L20.7195 14.665L20.5614 15.3372Z" fill="white"/>
<path d="M20.5614 15.3372H20.5218L20.4823 15.2977H20.4428H20.4032H20.3637H20.3241H20.2846H20.245L20.2055 15.2581H20.166H20.1264H20.0473H20.0078H19.9287H19.8496L19.7706 15.2977H19.6915H19.6519H19.5729L19.5333 15.3372H19.4938L19.4542 15.3768L19.4147 15.4163V15.4558H19.3752V15.4954V15.5349V15.5745V15.614V15.6535L19.4147 15.6931L19.4542 15.7326L19.4938 15.7722L19.5729 15.8512L19.6519 15.8908H19.731L19.8496 15.9303L19.9287 15.9699L20.0473 16.0094L20.1264 16.0489L20.245 16.0885L20.3241 16.1676L20.4032 16.2467L20.4428 16.3257L20.4823 16.4444L20.5218 16.563V16.7211V16.9188V17.077L20.4823 17.1956L20.4032 17.3143L20.3637 17.3933L20.2846 17.4724L20.2055 17.5515L20.1264 17.6306L20.0473 17.6701L19.9287 17.7492L19.8496 17.7887H19.731L19.6519 17.8283H19.5333L19.4147 17.8678H19.3356H19.2565H19.0984H18.9797H18.9007H18.782H18.703L18.6239 17.8283H18.5448H18.4657H18.4262H18.3471L18.3076 17.7887H18.2285H18.1889L18.1494 17.7492H18.1098L18.0308 17.7097L18.1889 17.077H18.2285H18.268L18.3471 17.1166H18.3866H18.4657L18.5053 17.1561H18.5843H18.6634H18.7425L18.8216 17.1956H18.9007H18.9797H19.0984H19.1774H19.2565H19.3356L19.4147 17.1561L19.4542 17.1166L19.4938 17.077L19.5333 17.0375L19.5729 16.9979V16.9584V16.8793L19.6124 16.8002L19.5729 16.7211L19.5333 16.6816L19.4542 16.6421L19.3356 16.563L19.2565 16.5234L19.1379 16.4839L19.0193 16.4444L18.9007 16.4048L18.782 16.3257L18.6634 16.2467L18.5843 16.1676L18.5053 16.0489L18.4657 15.8908L18.4262 15.7326V15.5349V15.4163L18.4657 15.3372L18.5053 15.2186L18.5448 15.1395L18.5843 15.0209L18.6239 14.9418L18.703 14.8627L18.782 14.8232L18.8611 14.7441L18.9402 14.7046L19.0588 14.665L19.1774 14.6255H19.2961L19.4542 14.5859H19.6124H19.8101H19.9287H20.0078H20.0869H20.2055H20.245H20.3241H20.4032H20.4428L20.4823 14.6255H20.5218H20.5614H20.6009H20.6405H20.68L20.7195 14.665L20.5614 15.3372Z" stroke="white" stroke-width="0.216" stroke-miterlimit="2.6131"/>
<path fill-rule="evenodd" clip-rule="evenodd" d="M21.2728 13.9141H22.1032L21.9845 14.6258H22.4986L22.3799 15.298H21.8659L21.5496 16.9587V17.0378L21.5891 17.0773V17.1169L21.6287 17.1564H21.7077L21.7473 17.1959H21.8264H21.9054H21.9845H22.0241H22.0636H22.1427L22.1822 17.1564H22.2218L22.1032 17.71L22.0636 17.7495H22.0241V17.7891H21.9845H21.945H21.9054L21.8659 17.8286H21.8264H21.7868H21.7473H21.7077H21.6682H21.6287H21.3914H21.2728H21.1542H21.0751L20.996 17.7891L20.9169 17.7495H20.8774L20.7983 17.71L20.7588 17.6704L20.7192 17.6309V17.5518V17.5123L20.6797 17.4727V17.3937V17.3146L20.7192 17.275V17.1959L21.2728 13.9141Z" fill="white"/>
<path d="M21.2728 13.9141H22.1032L21.9845 14.6258H22.4986L22.3799 15.298H21.8659L21.5496 16.9587V17.0378L21.5891 17.0773V17.1169L21.6287 17.1564H21.7077L21.7473 17.1959H21.8264H21.9054H21.9845H22.0241H22.0636H22.1427L22.1822 17.1564H22.2218L22.1032 17.71L22.0636 17.7495H22.0241V17.7891H21.9845H21.945H21.9054L21.8659 17.8286H21.8264H21.7868H21.7473H21.7077H21.6682H21.6287H21.3914H21.2728H21.1542H21.0751L20.996 17.7891L20.9169 17.7495H20.8774L20.7983 17.71L20.7588 17.6704L20.7192 17.6309V17.5518V17.5123L20.6797 17.4727V17.3937V17.3146L20.7192 17.275V17.1959L21.2728 13.9141Z" stroke="white" stroke-width="0.216" stroke-miterlimit="2.6131"/>
<path d="M23.1712 16.4444L23.1316 16.4839V16.563V16.6025L23.1712 16.6816V16.7211L23.2107 16.7607L23.2502 16.8398L23.2898 16.8793L23.3293 16.9188L23.3689 16.9584L23.4084 17.0375L23.4479 17.077H23.527L23.5666 17.1166L23.6456 17.1561H23.6852H23.7643H23.8434L23.9224 17.1956H24.0015H24.0806H24.1597H24.2388H24.3178L24.3969 17.1561H24.476L24.5551 17.1166H24.6342L24.7528 17.077L24.8319 17.0375L24.911 16.9979L24.99 16.9584L24.8714 17.6701L24.8319 17.7097H24.7923L24.7132 17.7492H24.6737L24.6342 17.7887H24.5946H24.5551L24.476 17.8283H24.4365H24.3969H24.3178H24.2388H24.1597H24.0806H24.0015H23.8829H23.7643H23.6061H23.4479L23.2898 17.7887L23.1712 17.7097L23.013 17.6701L22.8944 17.591L22.7362 17.512L22.6176 17.3933L22.5385 17.2747L22.4594 17.1561L22.3803 16.9979L22.3013 16.8002V16.6025L22.2617 16.4048L22.3013 16.128V16.0489L22.3408 15.9303V15.8117L22.3803 15.6931L22.4199 15.5745L22.499 15.4163L22.5385 15.2977L22.6176 15.179L22.7362 15.0604L22.8548 14.9418L22.9734 14.8232L23.1316 14.7441L23.2898 14.665L23.4875 14.6255L23.7247 14.5859H23.962H24.0806H24.1992L24.3178 14.6255H24.4365L24.5551 14.665L24.6737 14.7441L24.7923 14.8232L24.8714 14.9023L24.99 14.9813L25.0691 15.1L25.1087 15.2581L25.1482 15.4163L25.1877 15.5745V15.8117L25.1482 16.0094L25.1087 16.2862V16.4444H22.8944L23.0525 15.8512H24.3574V15.7722V15.7326V15.6535V15.5745L24.3178 15.5349V15.4954L24.2783 15.4558L24.2388 15.4163L24.1992 15.3768L24.1597 15.3372L24.1201 15.2977H24.0806L24.0411 15.2581H24.0015H23.9224L23.8829 15.2186L23.8434 15.2581H23.7643H23.7247L23.6852 15.2977H23.6061L23.5666 15.3372L23.527 15.3768L23.4875 15.4163L23.4479 15.4558L23.4084 15.4954L23.3689 15.5349V15.5745L23.3293 15.6535L23.2898 15.6931V15.7722V15.8117L23.1712 16.4444Z" stroke="white" stroke-width="0.216" stroke-miterlimit="2.6131"/>
<path fill-rule="evenodd" clip-rule="evenodd" d="M30.3278 14.8254L30.2883 14.7859H30.2488L30.2092 14.7463H30.1301L30.0906 14.7068H30.0511L30.0115 14.6673H29.9324H29.8929L29.8138 14.6277H29.7743H29.6952H29.6556L29.5766 14.5882H29.4975H29.4184H29.3393L29.2602 14.6277H29.1812H29.1021L29.023 14.6673L28.9439 14.7068L28.8648 14.7463L28.7857 14.7859L28.6671 14.865L28.6276 14.944L28.5485 15.0231L28.4694 15.1417L28.3903 15.2604L28.3508 15.4185L28.2717 15.5767L28.2322 15.7744L28.1926 15.893V15.9721V16.0907V16.2093V16.2884L28.2322 16.407V16.4861L28.2717 16.5652L28.3113 16.6443L28.3903 16.7234L28.4299 16.8025L28.509 16.8815L28.588 16.9211L28.7067 16.9606L28.7857 17.0002L28.9044 17.0397H28.9439H28.9835H29.0625L29.1021 17.0792H29.1812H29.2602H29.2998H29.3789L29.4579 17.0397H29.537L29.6161 17.0002H29.6952L29.7743 16.9606L29.8533 16.9211L29.8929 16.8815L29.972 16.8025L29.8138 17.6328L29.7743 17.6724L29.7347 17.7119H29.6952L29.6556 17.7514H29.6161L29.5766 17.791H29.4975L29.4184 17.8305H29.3393H29.2207H29.1021H28.9835H28.8253H28.6671H28.509L28.3903 17.791L28.2322 17.7514L28.1135 17.6724L27.9554 17.6328L27.8368 17.5142L27.7181 17.4351L27.5995 17.3165L27.5204 17.1583L27.4414 17.0002L27.3623 16.842L27.2832 16.6443V16.4466L27.2437 16.2489V16.0116L27.2832 15.7744L27.3227 15.6558V15.5371L27.3623 15.4185L27.4018 15.2999L27.4414 15.1813L27.4809 15.1022L27.5204 14.9836L27.56 14.9045L27.5995 14.7859L27.6391 14.7068L27.6786 14.6277L27.7577 14.5486L27.7972 14.4695L27.8763 14.3905L27.9158 14.3509L27.9949 14.2718L28.074 14.1928L28.1135 14.1532L28.1926 14.1137L28.2717 14.0741L28.3508 13.9951L28.4299 13.9555H28.509L28.588 13.916L28.7067 13.8764L28.7857 13.8369H28.9044L28.9835 13.7974H29.1021H29.1812L29.2998 13.7578H29.4184H29.537L29.6161 13.7974H29.6952H29.7743H29.8929L29.972 13.8369H30.0511L30.0906 13.8764H30.1697L30.2488 13.916H30.2883L30.3278 13.9555H30.3674H30.4069L30.4465 13.9951L30.3278 14.8254Z" fill="white"/>
<path d="M30.3278 14.8254L30.2883 14.7859H30.2488L30.2092 14.7463H30.1301L30.0906 14.7068H30.0511L30.0115 14.6673H29.9324H29.8929L29.8138 14.6277H29.7743H29.6952H29.6556L29.5766 14.5882H29.4975H29.4184H29.3393L29.2602 14.6277H29.1812H29.1021L29.023 14.6673L28.9439 14.7068L28.8648 14.7463L28.7857 14.7859L28.6671 14.865L28.6276 14.944L28.5485 15.0231L28.4694 15.1417L28.3903 15.2604L28.3508 15.4185L28.2717 15.5767L28.2322 15.7744L28.1926 15.893V15.9721V16.0907V16.2093V16.2884L28.2322 16.407V16.4861L28.2717 16.5652L28.3113 16.6443L28.3903 16.7234L28.4299 16.8025L28.509 16.8815L28.588 16.9211L28.7067 16.9606L28.7857 17.0002L28.9044 17.0397H28.9439H28.9835H29.0625L29.1021 17.0792H29.1812H29.2602H29.2998H29.3789L29.4579 17.0397H29.537L29.6161 17.0002H29.6952L29.7743 16.9606L29.8533 16.9211L29.8929 16.8815L29.972 16.8025L29.8138 17.6328L29.7743 17.6724L29.7347 17.7119H29.6952L29.6556 17.7514H29.6161L29.5766 17.791H29.4975L29.4184 17.8305H29.3393H29.2207H29.1021H28.9835H28.8253H28.6671H28.509L28.3903 17.791L28.2322 17.7514L28.1135 17.6724L27.9554 17.6328L27.8368 17.5142L27.7181 17.4351L27.5995 17.3165L27.5204 17.1583L27.4414 17.0002L27.3623 16.842L27.2832 16.6443V16.4466L27.2437 16.2489V16.0116L27.2832 15.7744L27.3227 15.6558V15.5371L27.3623 15.4185L27.4018 15.2999L27.4414 15.1813L27.4809 15.1022L27.5204 14.9836L27.56 14.9045L27.5995 14.7859L27.6391 14.7068L27.6786 14.6277L27.7577 14.5486L27.7972 14.4695L27.8763 14.3905L27.9158 14.3509L27.9949 14.2718L28.074 14.1928L28.1135 14.1532L28.1926 14.1137L28.2717 14.0741L28.3508 13.9951L28.4299 13.9555H28.509L28.588 13.916L28.7067 13.8764L28.7857 13.8369H28.9044L28.9835 13.7974H29.1021H29.1812L29.2998 13.7578H29.4184H29.537L29.6161 13.7974H29.6952H29.7743H29.8929L29.972 13.8369H30.0511L30.0906 13.8764H30.1697L30.2488 13.916H30.2883L30.3278 13.9555H30.3674H30.4069L30.4465 13.9951L30.3278 14.8254Z" stroke="white" stroke-width="0.216" stroke-miterlimit="2.6131"/>
<path fill-rule="evenodd" clip-rule="evenodd" d="M37.722 17.8286H36.8521L36.9311 17.5123V17.4727L36.8916 17.5518L36.8521 17.5914L36.773 17.6309L36.7334 17.6704L36.6544 17.71L36.6148 17.7495L36.5753 17.7891L36.4962 17.8286H36.4567L36.3776 17.8681H36.338H36.2589H36.2194L36.1403 17.9077H36.1008H36.0217L35.9031 17.8681L35.7449 17.8286L35.6263 17.7891L35.4681 17.71L35.3891 17.6309L35.2704 17.5518L35.1913 17.4332L35.1123 17.3146L35.0727 17.1564L35.0332 17.0378L34.9936 16.8796L34.9541 16.7215V16.5633V16.4051V16.247L34.9936 16.1283L35.0332 15.9306L35.1123 15.7725L35.1518 15.6143L35.2309 15.4562L35.31 15.3375L35.3891 15.2189L35.5077 15.1003L35.5868 15.0212L35.7054 14.9026L35.824 14.863L35.9426 14.784L36.0217 14.7444L36.1403 14.6653H36.2985L36.4171 14.6258H36.5357H36.6148L36.6939 14.6653H36.773H36.8521L36.9311 14.7049L36.9707 14.7444L37.0498 14.784H37.0893L37.1289 14.8235L37.1684 14.863L37.2079 14.9026L37.2475 14.9421L37.287 14.9817L37.3266 15.0212V15.0607L37.3661 15.1003L37.5638 13.9141H38.3942L37.722 17.8286Z" fill="white"/>
<path d="M37.722 17.8286H36.8521L36.9311 17.5123V17.4727L36.8916 17.5518L36.8521 17.5914L36.773 17.6309L36.7334 17.6704L36.6544 17.71L36.6148 17.7495L36.5753 17.7891L36.4962 17.8286H36.4567L36.3776 17.8681H36.338H36.2589H36.2194L36.1403 17.9077H36.1008H36.0217L35.9031 17.8681L35.7449 17.8286L35.6263 17.7891L35.4681 17.71L35.3891 17.6309L35.2704 17.5518L35.1913 17.4332L35.1123 17.3146L35.0727 17.1564L35.0332 17.0378L34.9936 16.8796L34.9541 16.7215V16.5633V16.4051V16.247L34.9936 16.1283L35.0332 15.9306L35.1123 15.7725L35.1518 15.6143L35.2309 15.4562L35.31 15.3375L35.3891 15.2189L35.5077 15.1003L35.5868 15.0212L35.7054 14.9026L35.824 14.863L35.9426 14.784L36.0217 14.7444L36.1403 14.6653H36.2985L36.4171 14.6258H36.5357H36.6148L36.6939 14.6653H36.773H36.8521L36.9311 14.7049L36.9707 14.7444L37.0498 14.784H37.0893L37.1289 14.8235L37.1684 14.863L37.2079 14.9026L37.2475 14.9421L37.287 14.9817L37.3266 15.0212V15.0607L37.3661 15.1003L37.5638 13.9141H38.3942L37.722 17.8286Z" stroke="white" stroke-width="0.216" stroke-miterlimit="2.6131"/>
<path fill-rule="evenodd" clip-rule="evenodd" d="M36.3383 17.1153H36.4173H36.4964L36.5755 17.0757L36.6546 17.0362L36.6941 16.9967L36.7732 16.9571L36.8128 16.9176L36.8918 16.8385L36.9314 16.7989L36.9709 16.7199L37.0105 16.6803L37.05 16.6012V16.5222L37.0895 16.4431L37.1291 16.364V16.2849V16.2058L37.1686 16.0872V16.0081L37.1291 15.929V15.85V15.7709L37.0895 15.7313V15.6523L37.05 15.5732L37.0105 15.5336L36.9709 15.4941L36.9314 15.4546L36.8918 15.415L36.8128 15.3755H36.7732L36.6941 15.3359L36.6151 15.3755H36.536L36.4964 15.415H36.4173L36.3383 15.4546L36.2987 15.5336L36.2592 15.5732L36.1801 15.6127L36.1406 15.6918L36.101 15.7709L36.0615 15.8104L36.0219 15.8895L35.9824 15.9686V16.0872L35.9429 16.1663V16.2454L35.9033 16.364L35.9429 16.5222V16.6803L35.9824 16.7989L36.0615 16.9176L36.1406 17.0362L36.2196 17.1153H36.3383Z" fill="#FBB231"/>
<path fill-rule="evenodd" clip-rule="evenodd" d="M17.9119 17.1956L17.7933 17.8283H17.042V17.7097L17.0816 17.6306V17.512V17.4724L17.042 17.5515L17.0025 17.591L16.9629 17.6306L16.8838 17.6701L16.8048 17.7097L16.7257 17.7492L16.6466 17.7887L16.5675 17.8283H16.4884L16.4094 17.8678H16.3303L16.2117 17.9074H16.1326H16.0535H15.9744L15.8953 17.8678H15.7767L15.6976 17.8283L15.6185 17.7887L15.5395 17.7492L15.4604 17.6701L15.4208 17.6306L15.3418 17.591L15.3022 17.512L15.2627 17.4724V17.3933L15.2231 17.3143V17.2747L15.1836 17.1956V17.1166V17.0375V16.9979V16.8793L15.2231 16.7607V16.6421L15.2627 16.563L15.3022 16.4444L15.3813 16.3653L15.4208 16.2862L15.4999 16.2071L15.579 16.128L15.6581 16.0885L15.7372 16.0094L15.8558 15.9699L15.9349 15.9303L16.0535 15.8908L16.1326 15.8512H16.2512H16.2907H16.3303H16.3698H16.4094L16.4489 15.8117H16.4884H16.5675H16.6071H16.6466H16.6861H16.7652H16.8048L16.8443 15.7722H16.8838H16.9234L17.0025 15.8117H17.0816H17.1606H17.2002H17.2397H17.2793V15.7722L17.3188 15.7326V15.6535V15.614V15.5349L17.2793 15.4954L17.2397 15.4163L17.2002 15.3768L17.1606 15.3372H17.0816L17.0025 15.2977H16.9234H16.8443H16.7652H16.6466H16.5675H16.4489H16.3698H16.2907L16.1721 15.3372H16.093H16.014L15.9349 15.3768H15.8558L15.7767 15.4163H15.7372L15.6976 15.4558H15.6581L15.8558 14.7441L15.9349 14.7046H16.014L16.093 14.665H16.1326L16.2117 14.6255H16.2907H16.3698H16.4489L16.528 14.5859H16.6466H16.7257H16.8048H16.9234H17.0025H17.1211H17.2002L17.3188 14.6255H17.3979H17.477L17.5956 14.665L17.6747 14.7046L17.7537 14.7441L17.8724 14.7836L17.9515 14.8627L18.0305 14.9023L18.0701 14.9813L18.1492 15.0604L18.1887 15.179L18.2282 15.2581V15.3768V15.4954V15.614L17.9119 17.1956Z" fill="white"/>
<path d="M17.9119 17.1956L17.7933 17.8283H17.042V17.7097L17.0816 17.6306V17.512V17.4724L17.042 17.5515L17.0025 17.591L16.9629 17.6306L16.8839 17.6701L16.8048 17.7097L16.7257 17.7492L16.6466 17.7887L16.5675 17.8283H16.4884L16.4094 17.8678H16.3303L16.2117 17.9074H16.1326H16.0535H15.9744L15.8953 17.8678H15.7767L15.6976 17.8283L15.6185 17.7887L15.5395 17.7492L15.4604 17.6701L15.4208 17.6306L15.3418 17.591L15.3022 17.512L15.2627 17.4724V17.3933L15.2231 17.3143V17.2747L15.1836 17.1956V17.1166V17.0375V16.9979V16.8793L15.2231 16.7607V16.6421L15.2627 16.563L15.3022 16.4444L15.3813 16.3653L15.4208 16.2862L15.4999 16.2071L15.579 16.128L15.6581 16.0885L15.7372 16.0094L15.8558 15.9699L15.9349 15.9303L16.0535 15.8908L16.1326 15.8512H16.2512H16.2907H16.3303H16.3698H16.4094L16.4489 15.8117H16.4884H16.5675H16.6071H16.6466H16.6861H16.7652H16.8048L16.8443 15.7722H16.8839H16.9234L17.0025 15.8117H17.0816H17.1606H17.2002H17.2397H17.2793V15.7722L17.3188 15.7326V15.6535V15.614V15.5349L17.2793 15.4954L17.2397 15.4163L17.2002 15.3768L17.1606 15.3372H17.0816L17.0025 15.2977H16.9234H16.8443H16.7652H16.6466H16.5675H16.4489H16.3698H16.2907L16.1721 15.3372H16.093H16.014L15.9349 15.3768H15.8558L15.7767 15.4163H15.7372L15.6976 15.4558H15.6581L15.8558 14.7441L15.9349 14.7046H16.014L16.093 14.665H16.1326L16.2117 14.6255H16.2907H16.3698H16.4489L16.528 14.5859H16.6466H16.7257H16.8048H16.9234H17.0025H17.1211H17.2002L17.3188 14.6255H17.3979H17.477L17.5956 14.665L17.6747 14.7046L17.7537 14.7441L17.8724 14.7836L17.9515 14.8627L18.0305 14.9023L18.0701 14.9813L18.1492 15.0604L18.1887 15.179L18.2282 15.2581V15.3768V15.4954V15.614L17.9119 17.1956Z" stroke="white" stroke-width="0.216" stroke-miterlimit="2.6131"/>
<path fill-rule="evenodd" clip-rule="evenodd" d="M17.2004 16.4072V16.3677H17.1609H17.1213H17.0818L17.0422 16.3281H17.0027H16.9632L16.9236 16.3677H16.8445H16.805H16.7655H16.7259H16.6864L16.6468 16.4072H16.6073H16.5678L16.5282 16.4467H16.4887H16.4491L16.4096 16.4863H16.37L16.3305 16.5258L16.291 16.5654L16.2514 16.6049H16.2119L16.1723 16.6445V16.684L16.1328 16.7235V16.8026V16.8422L16.0933 16.9212L16.1328 17.0003L16.1723 17.0794L16.2119 17.1189L16.2514 17.1585H16.291L16.3305 17.198H16.37H16.4887L16.5678 17.1585H16.6468H16.6864L16.7655 17.1189L16.805 17.0794H16.8841L16.9236 17.0399L16.9632 17.0003L17.0027 16.9608L17.0422 16.9212V16.8817H17.0818V16.8422V16.8026L17.1213 16.7631V16.684L17.1609 16.5654V16.4863L17.2004 16.4072Z" fill="#EC1C2E"/>
<path fill-rule="evenodd" clip-rule="evenodd" d="M11.5857 17.8286H10.7949L11.4671 13.9141H12.8906L13.0092 16.247L13.9977 13.9141H15.4607L14.7885 17.8286H13.9582L14.4722 14.9026H14.4327L13.2465 17.8286H12.2975V17.71V17.3937L12.2579 16.9192L12.2184 16.4051L12.1789 15.8516V15.3771L12.1393 15.0607V14.9026H12.0998L11.5857 17.8286Z" fill="white"/>
<path d="M11.5857 17.8286H10.7949L11.4671 13.9141H12.8906L13.0092 16.247L13.9977 13.9141H15.4607L14.7885 17.8286H13.9582L14.4722 14.9026H14.4327L13.2465 17.8286H12.2975V17.71V17.3937L12.2579 16.9192L12.2184 16.4051L12.1789 15.8516V15.3771L12.1393 15.0607V14.9026H12.0998L11.5857 17.8286Z" stroke="white" stroke-width="0.216" stroke-miterlimit="2.6131"/>
<path fill-rule="evenodd" clip-rule="evenodd" d="M32.8191 17.1956L32.7005 17.8283H31.9492V17.7097V17.6306V17.5515V17.512L31.9097 17.5515L31.8702 17.591L31.7911 17.6306L31.7515 17.6701L31.6725 17.7097L31.6329 17.7492L31.5538 17.7887L31.4747 17.8283H31.3957L31.3166 17.8678H31.198L31.1189 17.9074H31.0398H30.9607H30.8816L30.8026 17.8678H30.6839L30.6049 17.8283L30.5258 17.7887L30.4467 17.7492L30.3676 17.6701L30.2885 17.6306L30.249 17.591L30.2094 17.512L30.1699 17.4724V17.3933L30.1304 17.3143V17.2747L30.0908 17.1956V17.1166V17.0375V16.9979V16.8793L30.1304 16.7607V16.6421L30.1699 16.563L30.2094 16.4444L30.2885 16.3653L30.3281 16.2862L30.4071 16.2071L30.4862 16.128L30.5653 16.0885L30.6444 16.0094L30.763 15.9699L30.8421 15.9303L30.9607 15.8908L31.0398 15.8512H31.1584H31.198H31.2375H31.3166L31.3561 15.8117H31.3957H31.4352H31.5143H31.5538H31.5934H31.6329H31.6725L31.712 15.7722H31.7515H31.8306L31.9097 15.8117H31.9888H32.0283H32.1074H32.1469H32.1865V15.7722V15.7326L32.226 15.6535V15.614L32.1865 15.5349V15.4954L32.1469 15.4163L32.1074 15.3768L32.0283 15.3372H31.9888L31.9097 15.2977H31.8306H31.7515H31.6725H31.5934H31.4747H31.3957H31.277H31.198L31.0793 15.3372H31.0003H30.9212L30.8421 15.3768H30.763L30.6839 15.4163H30.6444L30.6049 15.4558H30.5653L30.763 14.7441L30.8421 14.7046H30.9212L31.0003 14.665H31.0398L31.1189 14.6255H31.198H31.277H31.3561L31.4352 14.5859H31.5538H31.6329H31.712H31.8306H31.9097H32.0283H32.1074L32.1865 14.6255H32.3051H32.3842L32.4633 14.665L32.5819 14.7046L32.661 14.7441L32.7401 14.7836L32.8191 14.8627L32.8982 14.9023L32.9773 14.9813L33.0564 15.0604L33.0959 15.179L33.1355 15.2581V15.3768V15.4954V15.614L32.8191 17.1956Z" fill="white"/>
<path fill-rule="evenodd" clip-rule="evenodd" d="M32.7002 17.8675L32.8188 17.1953H32.7793L32.6606 17.828H32.7002V17.8675Z" fill="white"/>
<path fill-rule="evenodd" clip-rule="evenodd" d="M31.9097 17.8281L31.9492 17.8677H32.7005V17.8281H31.9492H31.9097V17.8677H31.9492L31.9097 17.8281Z" fill="white"/>
<path fill-rule="evenodd" clip-rule="evenodd" d="M31.9492 17.5161V17.4766L31.9097 17.5556V17.6347V17.7138V17.8324H31.9492V17.7138V17.6347V17.5556V17.5161V17.4766V17.5161Z" fill="white"/>
<path fill-rule="evenodd" clip-rule="evenodd" d="M30.8022 17.9115H30.8813H30.9604H31.0395H31.1186H31.1977L31.3163 17.872H31.3954L31.4744 17.8324L31.5535 17.7929L31.6326 17.7533H31.7117L31.7512 17.6743L31.8303 17.6347L31.8698 17.5952L31.9094 17.5556L31.9489 17.5161V17.4766L31.9094 17.5556L31.8303 17.5952L31.7908 17.6347L31.7512 17.6743L31.6721 17.7138L31.5931 17.7533H31.514L31.4744 17.7929L31.3954 17.8324H31.2767L31.1977 17.872H31.1186H31.0395H30.9604H30.8813H30.8022V17.9115Z" fill="white"/>
<path fill-rule="evenodd" clip-rule="evenodd" d="M30.0513 17V17.0395L30.0908 17.1186V17.1977V17.2768L30.1303 17.3163V17.3954L30.1699 17.4745L30.2094 17.514L30.249 17.5931L30.2885 17.6327L30.3676 17.7117L30.4071 17.7513L30.4862 17.7908L30.6048 17.8304L30.6839 17.8699L30.8025 17.9094V17.8699L30.6839 17.8304L30.6048 17.7908L30.5258 17.7513L30.4467 17.7117L30.3676 17.6722L30.3281 17.6327L30.2885 17.5536L30.249 17.514L30.2094 17.4349L30.1699 17.3954L30.1303 17.3163V17.2372V17.1977V17.1186L30.0908 17.0395V17H30.0513Z" fill="white"/>
<path fill-rule="evenodd" clip-rule="evenodd" d="M31.1584 15.8516H31.0398L30.9212 15.8911L30.8421 15.9306L30.7235 15.9702L30.6444 16.0097L30.5653 16.0493L30.4862 16.1283L30.4071 16.2074L30.3281 16.2865L30.249 16.3656L30.2094 16.4447L30.1699 16.5633L30.1303 16.6424L30.0908 16.761V16.8796L30.0513 16.9982H30.0908L30.1303 16.8796V16.761L30.1699 16.6424L30.2094 16.5633L30.249 16.4447L30.2885 16.3656L30.3676 16.2865L30.4071 16.2074L30.4862 16.1679L30.5653 16.0888L30.6839 16.0493L30.763 15.9702L30.8421 15.9306H30.9607L31.0398 15.8911L31.1584 15.8516Z" fill="white"/>
<path fill-rule="evenodd" clip-rule="evenodd" d="M31.7513 15.7734H31.7118H31.6722H31.6327H31.5931H31.5536H31.5141L31.435 15.813H31.3954H31.3559H31.3164H31.2373H31.1977H31.1582V15.8525H31.1977H31.2373H31.3164H31.3559H31.3954H31.435L31.5141 15.813H31.5536H31.5931H31.6327H31.6722H31.7118H31.7513V15.7734Z" fill="white"/>
<path fill-rule="evenodd" clip-rule="evenodd" d="M32.1864 15.813V15.7734H32.1469H32.1073H32.0282H31.9887H31.9096H31.8305H31.7515V15.813H31.8305H31.9096H31.9887H32.0282H32.1073H32.1469H32.1864Z" fill="white"/>
<path fill-rule="evenodd" clip-rule="evenodd" d="M32.1865 15.6172V15.6567V15.7358V15.7753V15.8149L32.2261 15.7753V15.7358V15.6567V15.6172H32.1865Z" fill="white"/>
<path fill-rule="evenodd" clip-rule="evenodd" d="M31.8306 15.2974L31.9096 15.3369H31.9887L32.0283 15.3764L32.0678 15.416L32.1074 15.4555L32.1469 15.4951L32.1864 15.5346V15.6137H32.226V15.5346L32.1864 15.4951L32.1469 15.416L32.1074 15.3764L32.0678 15.3369L31.9887 15.2974H31.9096L31.8306 15.2578V15.2974Z" fill="white"/>
<path fill-rule="evenodd" clip-rule="evenodd" d="M30.5649 15.4555V15.4951L30.6045 15.4555H30.644L30.6836 15.416H30.7626L30.8417 15.3764H30.9208H30.9999L31.079 15.3369H31.1976H31.2767L31.3953 15.2974H31.4744H31.593H31.6721H31.7512H31.8302L31.7512 15.2578H31.6721H31.593H31.4744L31.3953 15.2974H31.2767H31.1976H31.079L30.9999 15.3369H30.9208H30.8417L30.7626 15.3764H30.6836L30.644 15.416H30.6045L30.5649 15.4555H30.6045H30.5649Z" fill="white"/>
<path fill-rule="evenodd" clip-rule="evenodd" d="M30.7626 14.7031V14.7427L30.5649 15.4544H30.6045L30.8022 14.7427L30.7626 14.7031V14.7427V14.7031Z" fill="white"/>
<path fill-rule="evenodd" clip-rule="evenodd" d="M32.1071 14.5859H32.028H31.9094H31.8303H31.7117H31.6326H31.5535H31.4349H31.3558H31.2767L31.1976 14.6255H31.1186H31.0395L30.9999 14.665H30.9209L30.8418 14.7046H30.7627L30.8022 14.7441H30.8418L30.9209 14.7046L30.9999 14.665H31.079H31.1186L31.1976 14.6255H31.2767H31.3558H31.4349H31.5535H31.6326H31.7117H31.8303H31.9094H32.028H32.1071V14.5859Z" fill="white"/>
<path fill-rule="evenodd" clip-rule="evenodd" d="M33.1355 15.614L33.175 15.4954V15.3768L33.1355 15.2581L33.0959 15.1395L33.0564 15.0604L32.9773 14.9813L32.9378 14.9023L32.8587 14.8232L32.7796 14.7836L32.661 14.7441L32.5819 14.7046L32.4633 14.665L32.3842 14.6255L32.3051 14.5859H32.1865H32.1074V14.6255H32.1865H32.2656L32.3842 14.665L32.4633 14.7046H32.5424L32.661 14.7836L32.7401 14.8232L32.8192 14.8627L32.8982 14.9418L32.9773 15.0209L33.0169 15.1L33.0564 15.179L33.0959 15.2581L33.1355 15.3768V15.4954L33.0959 15.5745L33.1355 15.614Z" fill="white"/>
<path fill-rule="evenodd" clip-rule="evenodd" d="M32.8188 17.1993L33.1352 15.6177L33.0956 15.5781L32.7793 17.1993H32.8188Z" fill="white"/>
<path fill-rule="evenodd" clip-rule="evenodd" d="M32.0676 16.4072V16.3677H32.0281L31.9885 16.3281H31.949H31.9094H31.8304L31.7908 16.3677H31.7513H31.7117H31.6722H31.6327H31.5931L31.5536 16.4072H31.514H31.4745H31.435L31.3954 16.4467H31.3559L31.3163 16.4863H31.2768L31.2373 16.5258H31.1977L31.1582 16.5654L31.1186 16.6049V16.6445L31.0791 16.684L31.0396 16.7235V16.8026V16.8422V16.9212V17.0003L31.0791 17.0794V17.1189L31.1582 17.1585H31.1977L31.2373 17.198H31.2768H31.3954L31.4745 17.1585H31.5536L31.6327 17.1189H31.6722L31.7513 17.0794L31.7908 17.0399L31.8304 17.0003H31.8699L31.9094 16.9608L31.949 16.9212L31.9885 16.8817V16.8422L32.0281 16.8026V16.7631V16.7235V16.6445L32.0676 16.5654V16.4863V16.4072Z" fill="#FBB231"/>
<path fill-rule="evenodd" clip-rule="evenodd" d="M38.2754 17.4345V17.3554V17.2763L38.3545 17.1972L38.394 17.1577L38.4336 17.1181L38.5126 17.0786L38.5917 17.0391H38.6708H38.7499L38.829 17.0786L38.908 17.1181L38.9871 17.1577L39.0267 17.1972L39.0662 17.2763L39.1058 17.3554V17.4345H39.0267V17.3949L38.9871 17.3158L38.9476 17.2763L38.908 17.1972L38.8685 17.1577L38.829 17.1181H38.7499H38.6708H38.6313H38.5522L38.4731 17.1577L38.4336 17.1972L38.394 17.2763V17.3158L38.3545 17.3949V17.4345H38.2754Z" fill="white"/>
<path fill-rule="evenodd" clip-rule="evenodd" d="M38.5522 17.4316V17.2734H38.7104H38.75H38.7895H38.829V17.313V17.3525H38.8686L38.829 17.3921V17.4316H38.7104H38.75L38.7895 17.3921V17.3525V17.313H38.75H38.7104H38.5918V17.4316H38.5522Z" fill="white"/>
<path fill-rule="evenodd" clip-rule="evenodd" d="M38.2754 17.4375V17.477V17.5561V17.6352L38.3545 17.7143L38.394 17.7538L38.4336 17.7934L38.5126 17.8329L38.5917 17.8724H38.6708H38.7499L38.829 17.8329L38.908 17.7934L38.9871 17.7538L39.0267 17.7143L39.0662 17.6352L39.1058 17.5561V17.477V17.4375H39.0267V17.477V17.5166L38.9871 17.5957L38.9476 17.6352L38.908 17.7143L38.8685 17.7538L38.829 17.7934H38.7499H38.6708H38.6313H38.5522L38.4731 17.7538L38.4336 17.7143L38.394 17.6352V17.5957L38.3545 17.5166V17.477V17.4375H38.2754Z" fill="white"/>
<path fill-rule="evenodd" clip-rule="evenodd" d="M38.5522 17.4375V17.6352H38.5918V17.477H38.6709L38.7895 17.6352H38.829L38.75 17.477H38.7895L38.829 17.4375H38.7104H38.6709H38.5918H38.5522Z" fill="white"/>
<path d="M38.4731 17.1181L38.394 17.1577L38.3545 17.2368L38.3149 17.3158L38.2754 17.3949V17.474V17.5531L38.3149 17.6322L38.3545 17.7113L38.394 17.7903L38.4731 17.8299L38.5522 17.8694L38.6313 17.909H38.7103H38.7894L38.8685 17.8694L38.9476 17.8299L39.0267 17.7903L39.0662 17.7113L39.1058 17.6322L39.1453 17.5531V17.474V17.3949L39.1058 17.3158L39.0662 17.2368L39.0267 17.1577L38.9476 17.1181L38.8685 17.0786L38.7894 17.0391H38.7103H38.6313L38.5522 17.0786L38.4731 17.1181ZM38.4731 17.1181L38.5126 17.0786L38.5917 17.0391H38.6708H38.7499L38.829 17.0786L38.8685 17.1181L38.908 17.1577L38.9476 17.1972L38.9871 17.2763V17.3554V17.4345V17.5136V17.5926L38.9476 17.6322L38.908 17.6717L38.8685 17.7113L38.829 17.7508L38.7499 17.7903H38.6708H38.5917L38.5126 17.7508L38.4731 17.7113L38.4336 17.6717L38.394 17.6322L38.3545 17.5926V17.5136V17.4345V17.3554V17.2763L38.394 17.1972L38.4336 17.1577L38.4731 17.1181ZM38.6708 17.4345L38.7499 17.5926H38.829L38.7499 17.4345H38.7894H38.829V17.3949V17.3554V17.3158V17.2763H38.7894H38.7499H38.7103H38.6708H38.5126V17.6322H38.5917V17.4345H38.6708ZM38.6708 17.4345H38.7103V17.3949H38.6313V17.5136H38.6708" stroke="white" stroke-width="0.216" stroke-miterlimit="2.6131"/>
<path fill-rule="evenodd" clip-rule="evenodd" d="M33.0166 17.8283H33.8865L34.1633 16.128L34.2028 16.0885V16.0094L34.2424 15.9303V15.8908L34.2819 15.8117L34.3214 15.7326L34.361 15.6931L34.4005 15.614L34.4796 15.5745L34.5192 15.5349L34.5982 15.4954L34.6773 15.4558L34.7564 15.4163L34.8355 15.3768H34.9541H35.0727H35.1123H35.1518L35.2704 14.5859L35.1913 14.6255H35.1123H35.0332L34.9541 14.665H34.9146L34.8355 14.7046L34.7959 14.7441L34.7169 14.7836L34.6773 14.8232L34.6378 14.8627L34.5587 14.9023L34.5192 14.9418L34.4796 15.0209L34.4401 15.0604L34.4005 15.1L34.361 15.179L34.4401 14.6255H33.6097L33.0166 17.8283Z" fill="white"/>
<path d="M33.0166 17.8283H33.8865L34.1633 16.128L34.2028 16.0885V16.0094L34.2424 15.9303V15.8908L34.2819 15.8117L34.3214 15.7326L34.361 15.6931L34.4005 15.614L34.4796 15.5745L34.5192 15.5349L34.5982 15.4954L34.6773 15.4558L34.7564 15.4163L34.8355 15.3768H34.9541H35.0727H35.1123H35.1518L35.2704 14.5859L35.1913 14.6255H35.1123H35.0332L34.9541 14.665H34.9146L34.8355 14.7046L34.7959 14.7441L34.7169 14.7836L34.6773 14.8232L34.6378 14.8627L34.5587 14.9023L34.5192 14.9418L34.4796 15.0209L34.4401 15.0604L34.4005 15.1L34.361 15.179L34.4401 14.6255H33.6097L33.0166 17.8283Z" stroke="white" stroke-width="0.216" stroke-miterlimit="2.6131"/>
<path fill-rule="evenodd" clip-rule="evenodd" d="M25.0688 17.8283H25.9387L26.2155 16.128L26.2551 16.0885V16.0094L26.2946 15.9303V15.8908L26.3342 15.8117V15.7722L26.3737 15.7326L26.4132 15.6535L26.4923 15.614L26.5319 15.5745L26.6109 15.5349L26.6505 15.4954H26.7691L26.8482 15.4558H26.9668L27.0854 15.4163V15.4558H27.125H27.1645V15.4163V15.3372L27.2041 15.2977V15.2186L27.2436 15.1L27.2831 15.0209V14.9418L27.3227 14.9023L27.3622 14.8232V14.7836L27.4018 14.7441L27.4413 14.665L27.4808 14.6255H27.4413H27.4018L27.3622 14.5859H27.3227L27.2436 14.6255H27.1645H27.0854L27.0064 14.665H26.9273L26.8877 14.7046L26.8086 14.7441L26.7691 14.7836L26.7296 14.8232L26.6505 14.8627L26.6109 14.9023L26.5714 14.9418L26.5319 14.9813L26.4923 15.0604L26.4528 15.1L26.4132 15.179L26.4923 14.6255H25.662L25.0688 17.8283Z" fill="white"/>
<path d="M25.0688 17.8283H25.9387L26.2155 16.128L26.2551 16.0885V16.0094L26.2946 15.9303V15.8908L26.3342 15.8117V15.7722L26.3737 15.7326L26.4132 15.6535L26.4923 15.614L26.5319 15.5745L26.6109 15.5349L26.6505 15.4954H26.7691L26.8482 15.4558H26.9668L27.0854 15.4163V15.4558H27.125H27.1645V15.4163V15.3372L27.2041 15.2977V15.2186L27.2436 15.1L27.2831 15.0209V14.9418L27.3227 14.9023L27.3622 14.8232V14.7836L27.4018 14.7441L27.4413 14.665L27.4808 14.6255H27.4413H27.4018L27.3622 14.5859H27.3227L27.2436 14.6255H27.1645H27.0854L27.0064 14.665H26.9273L26.8877 14.7046L26.8086 14.7441L26.7691 14.7836L26.7296 14.8232L26.6505 14.8627L26.6109 14.9023L26.5714 14.9418L26.5319 14.9813L26.4923 15.0604L26.4528 15.1L26.4132 15.179L26.4923 14.6255H25.662L25.0688 17.8283Z" stroke="white" stroke-width="0.216" stroke-miterlimit="2.6131"/>
<path fill-rule="evenodd" clip-rule="evenodd" d="M38.2754 20.996V20.9169L38.3545 20.8379L38.394 20.7983L38.4336 20.7588L38.5126 20.7192L38.5917 20.6797H38.6708H38.7499L38.829 20.7192L38.908 20.7588L38.9871 20.7983L39.0267 20.8379L39.0662 20.9169L39.1058 20.996H39.0267L38.9871 20.9565L38.9476 20.8774L38.908 20.8379L38.8685 20.7983L38.829 20.7588H38.7499L38.6708 20.7192L38.6313 20.7588H38.5522L38.4731 20.7983L38.4336 20.8379L38.394 20.8774V20.9565L38.3545 20.996H38.2754Z" fill="#FBB231"/>
<path fill-rule="evenodd" clip-rule="evenodd" d="M38.5522 20.9931V20.9141H38.7104H38.75H38.7895H38.829V20.9536V20.9931H38.8686H38.7895V20.9536H38.75H38.7104H38.5918V20.9931H38.5522Z" fill="#FBB231"/>
<path fill-rule="evenodd" clip-rule="evenodd" d="M38.2754 21.0713V20.9922H38.3545V21.0713H38.2754Z" fill="#FBB231"/>
<path fill-rule="evenodd" clip-rule="evenodd" d="M38.5522 21.0713V20.9922H38.5918V21.0713H38.6709H38.7104H38.75V21.0317H38.7895V20.9922H38.8686L38.829 21.0317V21.0713H38.5522Z" fill="#FBB231"/>
<path fill-rule="evenodd" clip-rule="evenodd" d="M39.0269 21.0713V20.9922H39.1059V21.0713H39.0269Z" fill="#FBB231"/>
<path fill-rule="evenodd" clip-rule="evenodd" d="M38.2754 21.0703V21.1494V21.2285L38.3545 21.3076L38.394 21.3866L38.4336 21.4262L38.5126 21.4657L38.5917 21.5053H38.6708H38.7499L38.829 21.4657L38.908 21.4262L38.9871 21.3866L39.0267 21.3076L39.0662 21.2285L39.1058 21.1494V21.0703H39.0267V21.1494L38.9871 21.2285L38.9476 21.268L38.908 21.3076L38.8685 21.3866H38.829L38.7499 21.4262H38.6708H38.6313L38.5522 21.3866H38.4731L38.4336 21.3076L38.394 21.268V21.2285L38.3545 21.1494V21.0703H38.2754Z" fill="#FBB231"/>
<path fill-rule="evenodd" clip-rule="evenodd" d="M38.5522 21.0703V21.2285H38.5918V21.1099H38.6709L38.7895 21.2285H38.829L38.75 21.1099L38.7895 21.0703H38.829H38.5522Z" fill="#FBB231"/>
<path fill-rule="evenodd" clip-rule="evenodd" d="M25.1878 15.5749L25.1482 15.3772L25.1087 15.2191L25.0296 15.1004L24.9505 14.9818L24.8714 14.8632L24.7528 14.7841L24.6342 14.705L24.5156 14.6655L24.3969 14.626L24.2783 14.5864L24.1597 14.5469H24.0411H23.9225H23.6852L23.4875 14.5864L23.2898 14.626L23.1316 14.705L22.9735 14.7841L22.8549 14.9027L22.7362 15.0214L22.6571 15.14L22.5781 15.2586L22.499 15.3772L22.4594 15.4959L22.4199 15.6145L22.3804 15.7331L22.3408 15.8517V15.9703V16.0494V16.2867V16.5239L22.3804 16.7216L22.4199 16.8798L22.499 17.0379L22.5781 17.1566L22.6967 17.2752L22.8153 17.3938L22.9339 17.4729L23.0526 17.552L23.2107 17.5915L23.3689 17.6311L23.527 17.6706L23.6852 17.7101H23.8434H24.0015H24.1202H24.1992H24.2783H24.3574H24.4365H24.5156H24.5946H24.6342H24.6737H24.7133H24.7528H24.7923H24.8319H24.8714L24.911 17.6706L24.9505 17.6311L25.0691 16.8798L24.9901 16.9193L24.911 16.9589L24.8319 16.9984L24.7528 17.0379L24.6737 17.0775H24.5946H24.5156H24.4365H24.3574H24.2783H24.1992H24.1202H24.0411H23.962H23.8829H23.8038H23.7247L23.6457 17.0379L23.5666 16.9984L23.527 16.9589L23.4875 16.9193L23.448 16.8798L23.4084 16.8402L23.3689 16.8007L23.3293 16.7612L23.2898 16.7216L23.2503 16.6821L23.2107 16.6425V16.603V16.5635V16.5239V16.4844H25.1482V16.2867L25.1878 16.0494L25.2273 15.8122L25.1878 15.5749ZM24.3574 15.8517H23.2503V15.8122V15.7331V15.654L23.2898 15.5749L23.3293 15.5354L23.3689 15.4959L23.4084 15.4563L23.448 15.4168L23.4875 15.3772L23.527 15.3377L23.5666 15.2982L23.6061 15.2586L23.6457 15.2191H23.6852H23.7247H23.7643H23.8038H23.8434H23.8829H23.9225H23.962L24.0015 15.2586L24.0411 15.2982L24.0806 15.3377L24.1202 15.3772L24.1597 15.4168L24.1992 15.4563L24.2388 15.4959L24.2783 15.5354V15.6145V15.6936V15.7726L24.3574 15.8517Z" fill="white"/>
</svg>
