<svg width="51" height="32" viewBox="0 0 51 32" fill="none" xmlns="http://www.w3.org/2000/svg">
<path d="M50.2077 29.4565C50.2077 30.3659 49.4564 31.1172 48.547 31.1172H2.28424C1.3748 31.1172 0.623535 30.3659 0.623535 29.4565V1.7779C0.623535 0.868462 1.3748 0.117188 2.28424 0.117188H48.5865C49.496 0.117188 50.2473 0.868462 50.2473 1.7779V29.4565H50.2077Z" fill="#862165"/>
<path d="M34.1923 11.5432L36.6438 11.1083V20.5981H34.1923V11.5432ZM37.7905 11.5432V20.5585H40.2421V11.0687L37.7905 11.5432ZM30.6732 20.5981H33.1247V13.6784H30.6732V20.5981ZM14.3428 14.6274C14.0265 14.5878 13.3147 14.5483 13.3147 13.9157C13.3147 13.1248 14.3428 13.1248 14.7382 13.1248C15.4104 13.1248 16.3199 13.3225 16.9525 13.5202C16.9525 13.5202 17.3084 13.6389 17.6247 13.7575H17.6642V13.718V11.5827H17.6247C16.8734 11.306 16.0035 11.0687 14.3824 11.0687C11.6145 11.0687 10.626 12.6899 10.626 14.0738C10.626 14.8646 10.9819 16.7626 14.1451 16.9603C14.4219 16.9603 15.1336 16.9998 15.1336 17.672C15.1336 18.2256 14.5405 18.5419 13.552 18.5419C12.4844 18.5419 11.4168 18.2651 10.7841 17.9884V20.2026C11.7331 20.4399 12.8007 20.5585 14.066 20.5585C16.7943 20.5585 18.0201 19.0164 18.0201 17.5139C17.9806 15.9322 16.6362 14.7855 14.3428 14.6274ZM29.2892 13.5598C26.9959 13.6389 25.8492 14.6669 25.8492 16.6835V20.5981H28.3403V17.4348C28.3403 16.209 28.4984 15.695 29.9614 15.6554V13.6389C29.6847 13.5598 29.2892 13.5598 29.2892 13.5598ZM22.5673 13.6389C22.5278 13.797 22.1323 14.9042 21.1438 16.0509V11.1083L18.6132 11.6223V20.5981H21.1438V17.8302C21.8951 18.9373 22.251 20.5981 22.251 20.5981H25.2956C24.9793 19.3327 23.6744 17.0394 23.6744 17.0394C24.8607 15.5368 25.3747 13.9157 25.4538 13.6784H22.5673V13.6389ZM31.8989 13.0062C32.5711 13.0062 33.1247 12.4526 33.1247 11.7804C33.1247 11.1083 32.5711 10.5547 31.8989 10.5547C31.2267 10.5547 30.6732 11.1083 30.6732 11.7804C30.6732 12.4526 31.2267 13.0062 31.8989 13.0062Z" fill="white"/>
</svg>
