<svg width="50" height="31" viewBox="0 0 50 31" fill="none" xmlns="http://www.w3.org/2000/svg">
<path d="M49.5845 29.283C49.5845 30.181 48.8427 30.9229 47.9447 30.9229H2.26338C1.36537 30.9229 0.623535 30.181 0.623535 29.283V1.95234C0.623535 1.05433 1.36537 0.3125 2.26338 0.3125H47.9837C48.8817 0.3125 49.6235 1.05433 49.6235 1.95234V29.283H49.5845Z" fill="#1C3663"/>
<path d="M24.2841 13.7422C24.1279 13.7422 23.8937 13.8983 23.7765 14.0545C23.7765 14.0545 22.6052 16.0458 22.4881 16.241C22.41 16.3581 22.371 16.28 22.371 16.241C22.371 16.2019 22.0196 14.0545 22.0196 14.0545C21.9805 13.8983 21.7853 13.7422 21.5901 13.7422H20.8483C20.653 13.7422 20.575 13.8983 20.614 14.0545C20.614 14.0545 21.1606 17.2171 21.2777 17.9589C21.3168 18.3884 21.2777 18.4274 21.2777 18.4274L20.575 19.6768C20.4578 19.833 20.5359 19.9892 20.6921 19.9892H21.551C21.7072 19.9892 21.9415 19.833 22.0586 19.6768L25.2993 14.1716C25.2993 14.1716 25.6116 13.7031 25.3383 13.7031C25.065 13.7422 24.2841 13.7422 24.2841 13.7422Z" fill="white"/>
<path d="M14.0547 14.8738C13.8204 15.069 13.469 15.1471 13.0395 15.1471H12.8443C12.6491 15.1471 12.571 14.991 12.6101 14.8348L12.8443 13.7806C12.8834 13.6244 13.0395 13.4683 13.2348 13.4683H13.5081C13.8204 13.4683 14.0547 13.5073 14.2109 13.6244C14.367 13.7416 14.4451 13.8977 14.4451 14.0929C14.4061 14.4053 14.2889 14.6786 14.0547 14.8738ZM15.8116 13.234C15.6945 13.0388 15.5774 12.8826 15.3822 12.7655C15.1869 12.6483 14.9527 12.5702 14.6794 12.4922C14.4061 12.4531 14.0937 12.4141 13.7033 12.4141H11.9854C11.7901 12.4141 11.634 12.5702 11.5949 12.7264L10.4626 17.724C10.4236 17.8802 10.5407 18.0364 10.6969 18.0364H11.5168C11.712 18.0364 11.8682 17.8802 11.9073 17.724L12.1806 16.5137C12.2196 16.3575 12.3758 16.2013 12.571 16.2013H12.8053C13.8204 16.2013 14.5622 16.0061 15.1479 15.5766C15.6945 15.1862 15.9678 14.6396 15.9678 13.9758C15.9678 13.6635 15.9288 13.4292 15.8116 13.234Z" fill="white"/>
<path d="M19.7553 13.9374C19.4429 13.7812 18.9744 13.6641 18.3107 13.6641C17.9983 13.6641 17.6469 13.7031 17.3346 13.7421C17.1003 13.7812 17.0613 13.7812 16.9051 13.8202C16.5927 13.8983 16.5537 14.2107 16.5537 14.2107L16.4366 14.6011C16.3975 14.8744 16.5147 14.8354 16.5927 14.8354C16.7099 14.7963 16.788 14.7573 17.0613 14.6792C17.3346 14.6011 17.6079 14.5621 17.8421 14.5621C18.1545 14.5621 18.4278 14.6011 18.584 14.6792C18.7401 14.7573 18.8182 14.8744 18.8182 15.0306C18.8182 15.0696 18.8182 15.1087 18.8182 15.1477C18.8182 15.1868 18.7792 15.2258 18.7011 15.2258C18.2326 15.2649 17.9202 15.3039 17.4907 15.3429C17.1003 15.382 16.7489 15.4991 16.4366 15.6163C16.1242 15.7724 15.89 15.9286 15.7338 16.1629C15.5776 16.3971 15.4995 16.6704 15.4995 17.0218C15.4995 17.3342 15.6166 17.6075 15.8509 17.8027C16.0852 17.9979 16.3585 18.1151 16.7099 18.1151C16.9441 18.1151 17.1003 18.1151 17.2174 18.076C17.3346 18.037 17.4907 17.9979 17.6079 17.9589C17.725 17.9198 17.8421 17.8418 17.9593 17.7637C18.0764 17.6856 18.1545 17.6465 18.2716 17.5684L18.2326 17.6856C18.1935 17.8417 18.3107 17.9589 18.4668 17.9979C18.584 17.9979 18.9354 17.9979 19.0915 17.9979H19.2087C19.3649 17.9589 19.521 17.8417 19.5601 17.6856L20.1457 15.1087C20.1457 15.0306 20.1848 14.9916 20.1848 14.9135C20.1848 14.8354 20.1848 14.7573 20.1848 14.7182C20.1848 14.3669 20.0286 14.1326 19.7553 13.9374ZM18.3107 17.0218C18.1935 17.0999 18.1154 17.139 17.9983 17.178C17.8421 17.2561 17.686 17.2561 17.5688 17.2561C17.3736 17.2561 17.2174 17.2171 17.1003 17.178C16.9832 17.139 16.9441 17.0218 16.9441 16.8657C16.9441 16.7095 16.9832 16.5533 17.0613 16.4752C17.1394 16.3581 17.2565 16.28 17.4127 16.241C17.5688 16.2019 17.725 16.1629 17.9593 16.1238C18.1545 16.0848 18.5059 16.0457 18.5449 16.0457C18.584 16.0457 18.623 16.0067 18.584 16.1629C18.584 16.2019 18.4668 16.6704 18.4278 16.8657C18.4278 16.9047 18.3107 16.9828 18.3107 17.0218Z" fill="white"/>
<path d="M34.5527 13.9374C34.2403 13.7812 33.7718 13.6641 33.108 13.6641C32.7957 13.6641 32.4443 13.7031 32.1319 13.7421C31.8977 13.7812 31.8586 13.7812 31.7025 13.8202C31.3901 13.8983 31.3511 14.2107 31.3511 14.2107L31.2339 14.6011C31.1949 14.8744 31.312 14.8354 31.3901 14.8354C31.5072 14.7963 31.5853 14.7573 31.8586 14.6792C32.1319 14.6011 32.4052 14.5621 32.6395 14.5621C32.9519 14.5621 33.2252 14.6011 33.3813 14.6792C33.5375 14.7573 33.6156 14.8744 33.6156 15.0306C33.6156 15.0696 33.6156 15.1087 33.6156 15.1477C33.6156 15.1868 33.5766 15.2258 33.4985 15.2258C33.0299 15.2649 32.6785 15.3039 32.2881 15.3429C31.8977 15.382 31.5463 15.4991 31.2339 15.6163C30.9216 15.7724 30.6873 15.9286 30.5311 16.1629C30.375 16.3971 30.2969 16.6704 30.2969 17.0218C30.2969 17.3342 30.414 17.6075 30.6483 17.8027C30.8825 17.9979 31.1558 18.1151 31.5072 18.1151C31.7415 18.1151 31.8977 18.1151 32.0148 18.076C32.1319 18.037 32.2491 17.9979 32.4052 17.9589C32.5224 17.9198 32.6395 17.8418 32.7566 17.7637C32.8738 17.6856 32.9519 17.6465 33.069 17.5684L33.0299 17.6856C32.9909 17.8417 33.108 17.9589 33.2642 17.9979C33.3813 17.9979 33.7327 17.9979 33.8889 17.9979H34.006C34.1622 17.9979 34.3184 17.8417 34.3574 17.6856L34.9431 15.1087C34.9431 15.0306 34.9821 14.9916 34.9821 14.9135C34.9821 14.8354 34.9821 14.7573 34.9821 14.7182C35.0212 14.4059 34.865 14.1326 34.5527 13.9374ZM33.108 17.0218C32.9909 17.0999 32.9128 17.139 32.7957 17.178C32.6395 17.2561 32.4833 17.2561 32.3662 17.2561C32.171 17.2561 32.0148 17.2171 31.8977 17.178C31.7805 17.139 31.7415 17.0218 31.7415 16.8657C31.7415 16.7095 31.7805 16.5533 31.8586 16.4752C31.9367 16.3581 32.0538 16.28 32.21 16.241C32.3662 16.2019 32.5224 16.1629 32.7566 16.1238C32.9519 16.0848 33.3033 16.0457 33.3423 16.0457C33.3813 16.0457 33.4204 16.0067 33.3813 16.1629C33.3813 16.2019 33.2642 16.6704 33.2252 16.8657C33.2252 16.9047 33.1471 16.9828 33.108 17.0218Z" fill="white"/>
<path d="M28.8525 14.8738C28.6182 15.069 28.2669 15.1471 27.8374 15.1471H27.6422C27.486 15.1471 27.3688 14.991 27.4079 14.8348L27.6422 13.7806C27.6812 13.6244 27.8764 13.4683 28.0326 13.4683H28.3059C28.6182 13.4683 28.8525 13.5073 29.0087 13.6244C29.1649 13.7416 29.2429 13.8977 29.2429 14.0929C29.2039 14.4443 29.0868 14.7176 28.8525 14.8738ZM30.6095 13.234C30.4924 13.0388 30.3362 12.8826 30.141 12.7655C29.9457 12.6483 29.7115 12.5702 29.4382 12.4922C29.1649 12.4531 28.8525 12.4141 28.4621 12.4141H26.7441C26.5489 12.4141 26.3927 12.5702 26.3537 12.7264L25.2214 17.724C25.1824 17.8802 25.2995 18.0364 25.4557 18.0364H26.2756C26.4318 18.0364 26.627 17.8802 26.6661 17.724L26.9394 16.5137C26.9784 16.3575 27.1736 16.2013 27.3298 16.2013H27.5641C28.5792 16.2013 29.321 16.0061 29.9067 15.5766C30.4533 15.1471 30.7266 14.6396 30.7266 13.9758C30.7657 13.7025 30.7266 13.4292 30.6095 13.234Z" fill="white"/>
<path d="M37.3639 12.4922H36.6221C36.4659 12.4922 36.3097 12.6093 36.2317 12.7655C36.2317 12.7655 36.2317 12.7655 36.2317 12.8045C36.2317 12.8045 36.2317 12.8826 36.1926 12.9998L35.1775 17.5288C35.1384 17.646 35.1384 17.7241 35.1384 17.7241C35.0994 17.8802 35.2165 17.9974 35.3727 18.0364H36.1145C36.2707 18.0364 36.4269 17.9193 36.505 17.7631C36.505 17.7631 36.505 17.7631 36.505 17.7241L37.5982 12.7655C37.6372 12.6093 37.5201 12.4922 37.3639 12.4922Z" fill="white"/>
<path d="M38.4573 13.4683C38.4182 13.4683 38.4182 13.4683 38.3792 13.4683C38.3401 13.4683 38.3401 13.4683 38.3011 13.4683C38.223 13.4683 38.1449 13.4292 38.1059 13.3902C38.0668 13.3511 38.0278 13.273 38.0278 13.195V12.7655H37.9497V12.6483H38.0278V12.4531H38.1449V12.6874H38.4182V12.8045H38.1449V13.1559C38.1449 13.195 38.1449 13.234 38.1449 13.234C38.1449 13.273 38.1449 13.273 38.184 13.3121L38.223 13.3511C38.223 13.3511 38.2621 13.3511 38.3011 13.3511C38.3401 13.3511 38.3401 13.3511 38.3792 13.3511C38.4182 13.3511 38.4182 13.3511 38.4182 13.3511V13.4683H38.4573Z" fill="white"/>
<path d="M39.7846 13.4683H39.6675V12.9998C39.6675 12.9608 39.6675 12.9217 39.6675 12.8827C39.6675 12.8436 39.6675 12.8436 39.6285 12.8046C39.6285 12.7656 39.5894 12.7656 39.5894 12.7656C39.5504 12.7656 39.5504 12.7656 39.5113 12.7656C39.4723 12.7656 39.4332 12.7656 39.3942 12.8046C39.3552 12.8046 39.3161 12.8436 39.2771 12.8827V12.9217V12.9608V13.4683H39.1599V12.9998C39.1599 12.9608 39.1599 12.9217 39.1599 12.8827C39.1599 12.8436 39.1599 12.8436 39.1599 12.8046C39.1599 12.7656 39.1209 12.7656 39.1209 12.7656C39.0818 12.7656 39.0818 12.7656 39.0428 12.7656C39.0038 12.7656 38.9647 12.7656 38.9257 12.8046C38.8866 12.8046 38.8476 12.8436 38.8085 12.8827V13.4683H38.6914V12.6875H38.8085V12.7656C38.8476 12.7265 38.8866 12.6875 38.9257 12.6875C38.9647 12.6875 39.0038 12.6484 39.0428 12.6484C39.0818 12.6484 39.1599 12.6484 39.199 12.6875C39.238 12.7265 39.2771 12.7265 39.2771 12.7656C39.3161 12.7265 39.3942 12.6875 39.4332 12.6484C39.4723 12.6094 39.5113 12.6094 39.5894 12.6094C39.6675 12.6094 39.7456 12.6484 39.7846 12.6875C39.8237 12.7265 39.8627 12.8046 39.8627 12.9217V13.4683H39.7846Z" fill="white"/>
</svg>
