<svg width="14" height="14" viewBox="0 0 14 14" fill="none" xmlns="http://www.w3.org/2000/svg">
<g clip-path="url(#clip0_1173_28783)">
<path d="M8.30338 5.92804L13.4031 0H12.1946L7.76654 5.14724L4.22982 0H0.150635L5.49885 7.78354L0.150635 14H1.35918L6.03538 8.56434L9.77041 14H13.8496L8.30308 5.92804H8.30338ZM6.64811 7.85211L6.10623 7.07705L1.79464 0.909771H3.65089L7.13039 5.88696L7.67228 6.66202L12.1952 13.1316H10.339L6.64811 7.85241V7.85211Z" fill="white"/>
<path d="M8.30338 5.92804L13.4031 0H12.1946L7.76654 5.14724L4.22982 0H0.150635L5.49885 7.78354L0.150635 14H1.35918L6.03538 8.56434L9.77041 14H13.8496L8.30308 5.92804H8.30338ZM6.64811 7.85211L6.10623 7.07705L1.79464 0.909771H3.65089L7.13039 5.88696L7.67228 6.66202L12.1952 13.1316H10.339L6.64811 7.85241V7.85211Z" fill="white"/>
</g>
<defs>
<clipPath id="clip0_1173_28783">
<rect width="14" height="14" fill="white"/>
</clipPath>
</defs>
</svg>
