<svg width="123" height="38" viewBox="0 0 123 38" fill="none" xmlns="http://www.w3.org/2000/svg">
<g clip-path="url(#clip0_249_4353)">
<mask id="mask0_249_4353" style="mask-type:luminance" maskUnits="userSpaceOnUse" x="16" y="11" width="107" height="18">
<path d="M123 11.3984H16.4521V28.1184H123V11.3984Z" fill="white"/>
</mask>
<g mask="url(#mask0_249_4353)">
<path d="M25.7782 27.3566H22.2934V14.7102H17.0037V11.7432H31.068V14.7102H25.7782V27.3566ZM31.1107 19.5499C31.1107 14.6859 35.2222 11.5 39.9855 11.5C44.7738 11.5 48.8101 14.6859 48.8101 19.5499C48.8101 24.4139 44.7488 27.5998 39.9855 27.5998C35.2222 27.5998 31.1107 24.3896 31.1107 19.5499ZM39.9855 24.4869C43.0189 24.4869 45.3003 22.371 45.3003 19.5499C45.3003 16.7288 43.0189 14.5886 39.9855 14.5886C36.9269 14.5886 34.6205 16.7045 34.6205 19.5499C34.6205 22.371 36.9269 24.4869 39.9855 24.4869ZM50.4308 11.7432H53.9406V20.4741C53.9406 22.9547 54.9936 24.5355 57.7764 24.5355C60.5591 24.5355 61.562 22.9547 61.562 20.4741V11.7432H65.0216V20.547C65.0216 24.0491 63.1916 27.5512 57.7764 27.5512C52.3612 27.5512 50.4308 24.0491 50.4308 20.547V11.7432ZM80.4818 22.979L81.4344 27.3566H77.7743L76.8718 23.1979C76.5458 21.7387 75.167 21.3982 73.4622 21.3982H71.1307V27.3566H67.6209V11.7675H74.9414C78.9023 11.7675 81.284 13.251 81.284 16.1208C81.284 18.4798 79.6294 19.8904 77.8244 20.3525C79.0528 20.7416 80.1559 21.5442 80.4818 22.979ZM71.1307 14.7102V18.869H74.5402C76.5208 18.869 77.7743 18.4069 77.7743 16.6802C77.7743 14.9291 76.4205 14.7102 74.8661 14.7102H71.1307ZM86.7273 27.3566H83.2175V11.7675H86.7273V27.3566ZM102.466 27.3566H88.2511V24.9246L97.853 14.7102H88.4266V11.7675H102.641V14.3941L93.2902 24.4139H102.466V27.3566ZM114.03 27.3566L112.902 23.7816H107.185L106.032 27.3566H102.397L107.561 11.7675H112.526L117.69 27.3566H114.03ZM108.064 20.9118H112.025L110.044 14.6859L108.064 20.9118ZM118.995 25.557C118.995 24.4139 119.948 23.66 121 23.66C122.053 23.66 122.956 24.4139 122.956 25.557C122.956 26.7 122.053 27.4782 121 27.4782C119.948 27.4782 118.995 26.7243 118.995 25.557Z" fill="white"/>
</g>
<path d="M12.7496 14.5781C12.7496 14.5781 12.4233 14.722 11.8553 14.9978C11.2873 15.2736 10.5018 15.6813 9.59541 16.2569C9.14822 16.5447 8.6769 16.8805 8.20559 17.2522C8.0847 17.3481 7.9639 17.444 7.85515 17.5399C7.73426 17.6478 7.61342 17.7558 7.50464 17.8517C7.27503 18.0676 7.04541 18.2954 6.82788 18.5352C6.61035 18.7751 6.39281 19.0269 6.18736 19.2907C5.98192 19.5545 5.80064 19.8303 5.60728 20.1181C5.426 20.4058 5.26889 20.7056 5.11178 21.0174C4.96676 21.3291 4.83383 21.641 4.72505 21.9647C4.67672 22.1206 4.61629 22.3004 4.58003 22.4564C4.53169 22.6122 4.49544 22.7801 4.45919 22.9479C4.39876 23.2837 4.35041 23.6195 4.32624 23.9552C4.31416 24.291 4.31416 24.6267 4.33833 24.9505C4.3625 25.2743 4.41084 25.5981 4.48336 25.9098C4.55586 26.2216 4.64046 26.5213 4.76131 26.8091C4.80965 26.9531 4.88217 27.0969 4.94259 27.2288L4.96676 27.2768L4.99093 27.3248L5.05136 27.4327C5.08761 27.5046 5.12386 27.5766 5.16012 27.6365C5.45017 28.1282 5.81272 28.5838 6.17528 28.9316C6.54992 29.2913 6.93664 29.5671 7.31128 29.7829C7.68592 29.9988 8.03636 30.1427 8.32647 30.2386C8.47149 30.2866 8.60444 30.3225 8.72524 30.3585C8.84613 30.3825 8.9428 30.4184 9.02742 30.4304C9.19656 30.4545 9.28117 30.4784 9.28117 30.4784C9.28117 30.4784 9.19656 30.4784 9.02742 30.4784C8.9428 30.4784 8.83398 30.4665 8.71318 30.4545C8.59229 30.4424 8.44728 30.4184 8.2902 30.3945C7.97596 30.3345 7.60133 30.2266 7.19043 30.0467C6.77954 29.8669 6.34447 29.6031 5.9094 29.2553C5.47434 28.8956 5.06345 28.4639 4.70089 27.9123C4.3625 27.3847 4.07246 26.7491 3.89118 26.0777C3.70991 25.4061 3.62531 24.6747 3.66156 23.9432C3.67365 23.5715 3.72199 23.2118 3.78241 22.84C3.81867 22.6602 3.85493 22.4803 3.90327 22.2885C3.9516 22.0966 3.99995 21.9407 4.06038 21.7608C4.18122 21.4131 4.32624 21.0653 4.48336 20.7296C4.65255 20.3939 4.83383 20.082 5.02719 19.7703C5.426 19.1587 5.88523 18.6072 6.36864 18.1155C6.61035 17.8757 6.85205 17.6359 7.11792 17.432C7.25086 17.3241 7.37171 17.2282 7.49256 17.1323C7.6255 17.0363 7.74635 16.9404 7.87928 16.8444C8.38688 16.4727 8.89447 16.173 9.37785 15.9211C9.86123 15.6573 10.3084 15.4535 10.7193 15.2856C11.1302 15.1177 11.4927 14.9859 11.7828 14.8779C12.0849 14.77 12.3146 14.6981 12.4837 14.6501C12.665 14.6141 12.7496 14.5781 12.7496 14.5781Z" fill="white"/>
<path d="M27.0706 7.4593C27.0706 7.4593 27.0101 7.4593 26.9014 7.4473C26.7926 7.43531 26.6234 7.42333 26.418 7.41133C26.3092 7.41133 26.2004 7.39934 26.0795 7.39934C25.9587 7.39934 25.8258 7.38735 25.6808 7.38735C25.5358 7.38735 25.3907 7.38735 25.2215 7.38735C25.0644 7.39934 24.8952 7.39934 24.7139 7.41133C24.3635 7.43531 23.9889 7.47129 23.59 7.53125C23.1912 7.57921 22.7803 7.67517 22.3694 7.77108C21.9464 7.879 21.5235 8.01086 21.1005 8.1548C20.6775 8.31068 20.2545 8.49057 19.8436 8.6944C19.4206 8.89824 19.0339 9.12608 18.6593 9.36586C18.2846 9.61773 17.9221 9.86952 17.5837 10.1453C17.2574 10.4211 16.9311 10.6849 16.6531 10.9727C16.3631 11.2485 16.1214 11.5243 15.8797 11.7881C15.7709 11.92 15.6621 12.0519 15.5655 12.1719C15.4688 12.2917 15.3721 12.4116 15.2875 12.5316C15.2029 12.6515 15.1304 12.7594 15.0579 12.8553C14.9854 12.9512 14.9249 13.0472 14.8645 13.1311C14.7437 13.299 14.6591 13.4429 14.5986 13.5269C14.5382 13.6228 14.502 13.6707 14.502 13.6707C14.502 13.6707 14.5262 13.6108 14.5624 13.5149C14.5986 13.4069 14.647 13.2511 14.7437 13.0712C14.7799 12.9753 14.8283 12.8673 14.8887 12.7594C14.9371 12.6515 15.0095 12.5316 15.07 12.3996C15.1425 12.2678 15.215 12.1358 15.2996 11.992C15.3842 11.8481 15.4809 11.7042 15.5775 11.5603C15.6864 11.4164 15.783 11.2605 15.9038 11.1046C16.0247 10.9487 16.1455 10.7928 16.2906 10.637C16.5564 10.3132 16.8707 10.0015 17.197 9.70163C17.5354 9.40189 17.91 9.10207 18.2967 8.82626C18.6955 8.56247 19.1306 8.31068 19.5536 8.09484C19.9886 7.879 20.4479 7.69911 20.9071 7.54324C21.3664 7.39934 21.8256 7.27943 22.2727 7.19549C22.7199 7.11155 23.155 7.06359 23.5779 7.03961C23.7834 7.02762 23.9889 7.02762 24.1822 7.01562C24.3756 7.01562 24.5689 7.02762 24.7502 7.02762C24.9315 7.03961 25.1007 7.0516 25.2699 7.07558C25.427 7.09957 25.5841 7.12354 25.7291 7.13554C25.8741 7.15952 26.0071 7.1835 26.1279 7.20749C26.2488 7.23146 26.3696 7.26744 26.4663 7.29142C26.6717 7.33938 26.8288 7.38735 26.9376 7.42333C27.0101 7.4473 27.0706 7.4593 27.0706 7.4593Z" fill="white"/>
<path d="M27.8689 6.62769C27.8689 6.62769 27.9293 6.55574 28.038 6.41185C28.0985 6.3399 28.171 6.25596 28.2435 6.14804C28.316 6.04012 28.4248 5.93219 28.5456 5.81228C28.6665 5.69238 28.7873 5.54848 28.9445 5.40459C29.1016 5.26069 29.2708 5.1168 29.4399 4.96091C29.6212 4.80503 29.8266 4.66113 30.0442 4.49326C30.2618 4.33737 30.5034 4.18149 30.7572 4.02561C30.8902 3.95366 31.0231 3.88171 31.1561 3.79777C31.289 3.72582 31.4219 3.64188 31.579 3.56994C31.8691 3.43803 32.1712 3.28215 32.4975 3.17423C33.138 2.91043 33.8389 2.71857 34.5762 2.57467C34.7574 2.55069 34.9508 2.51472 35.1321 2.49073C35.2288 2.47874 35.3254 2.46675 35.4221 2.45476C35.5188 2.44277 35.6155 2.44277 35.7121 2.43078C36.0988 2.38281 36.4977 2.39481 36.8844 2.38281C37.2833 2.4068 37.682 2.41878 38.0809 2.47874C38.2742 2.50273 38.4796 2.5267 38.673 2.57467L39.2773 2.70657C40.0145 2.91043 40.8121 3.2102 41.513 3.55795C41.8635 3.74981 42.214 3.92967 42.5281 4.1575C42.6128 4.20547 42.6853 4.26542 42.7699 4.31339C42.8544 4.36136 42.927 4.42131 42.9995 4.48126C43.1566 4.60118 43.3016 4.7091 43.4467 4.82901C44.0267 5.30866 44.5464 5.81228 44.9815 6.3399C45.2111 6.59171 45.4045 6.86751 45.5858 7.13132C45.6824 7.26321 45.7549 7.39512 45.8395 7.52702C45.9241 7.65891 45.9966 7.79084 46.0812 7.91077C46.2262 8.17457 46.3592 8.41435 46.48 8.66621C46.5888 8.918 46.6975 9.14585 46.7821 9.36169C46.8668 9.58954 46.9393 9.79337 46.9997 9.9972C47.0601 10.189 47.1084 10.3809 47.1447 10.5488C47.1931 10.7167 47.2293 10.8606 47.2414 10.9925C47.2655 11.1244 47.2777 11.2323 47.3018 11.3282C47.3381 11.5081 47.3501 11.604 47.3501 11.604C47.3501 11.604 47.326 11.5081 47.2656 11.3402C47.2051 11.1723 47.1447 10.9085 47.0118 10.5968C46.9514 10.4409 46.8909 10.261 46.8064 10.0811C46.7217 9.90129 46.6251 9.69746 46.5284 9.48162C46.4196 9.27771 46.2988 9.06187 46.1658 8.83409C46.0329 8.60625 45.8758 8.3784 45.7308 8.13854C45.6462 8.01869 45.5615 7.91077 45.4649 7.79084C45.3803 7.67092 45.2956 7.53901 45.1869 7.43109C44.9815 7.19127 44.8002 6.93945 44.5585 6.71162C44.4497 6.59171 44.3289 6.4718 44.2201 6.35189C44.0993 6.24397 43.9663 6.12406 43.8455 6.00414C43.7246 5.88423 43.5917 5.77631 43.4467 5.66839C43.3137 5.56047 43.1807 5.44056 43.0357 5.33264C42.4677 4.90096 41.8393 4.52923 41.1747 4.18149C40.4979 3.85773 39.8211 3.60591 39.0476 3.40206L38.5039 3.28215C38.3226 3.23419 38.1292 3.22219 37.9479 3.18622C37.5733 3.12627 37.1986 3.11427 36.824 3.0783C36.0747 3.06631 35.3375 3.09029 34.6366 3.2102C33.9356 3.33011 33.2589 3.47401 32.6304 3.68985C32.3162 3.78578 32.0261 3.91768 31.7361 4.02561C31.5911 4.07357 31.4581 4.14551 31.3252 4.21746C31.1923 4.27742 31.0594 4.34937 30.9264 4.40932C30.6726 4.55321 30.4309 4.68512 30.2013 4.81702C29.9838 4.96091 29.7662 5.09281 29.5729 5.22472C29.3795 5.36861 29.2103 5.50051 29.0412 5.62043C28.884 5.74034 28.739 5.87224 28.606 5.98016C28.3402 6.19601 28.1589 6.38786 28.026 6.50777C27.9414 6.55574 27.8689 6.62769 27.8689 6.62769Z" fill="white"/>
<path d="M56.9331 31.1176L54.6007 28.6953H53.4285L53.4768 28.8152L54.504 28.8272L56.7036 31.1176H56.9331Z" fill="white"/>
<path d="M69.5139 30.8646L68.2449 30.3131H68.8613C68.9822 30.3131 69.0668 30.2171 69.0668 30.1092C69.0668 29.9893 68.9701 29.9053 68.8613 29.9053H67.2902L65.8642 29.2818H67.2056C67.3265 29.2818 67.4111 29.1858 67.4111 29.0779C67.4111 28.97 67.3144 28.8741 67.2056 28.8741H64.9215L63.4351 28.2266H61.1389L64.8974 30.9126L69.5139 30.8646Z" fill="white"/>
<path d="M2.07865 24.9776L2.09073 24.426C2.10282 24.2461 2.1149 24.0662 2.12699 23.8744C2.13907 23.6945 2.17533 23.5147 2.18742 23.3348C2.29618 22.6153 2.46537 21.9078 2.70708 21.2124C3.19049 19.8334 3.96394 18.5623 4.94284 17.4711C5.92173 16.3799 7.11817 15.4806 8.44752 14.8451C9.77693 14.1976 11.2272 13.8378 12.7015 13.7419L13.3178 13.7059L13.5717 13.1303L13.765 12.6867C13.8375 12.5427 13.8858 12.3869 13.9705 12.243C14.1275 11.9552 14.2605 11.6554 14.4538 11.3916L14.7197 10.9719C14.8164 10.84 14.9131 10.7081 15.0098 10.5762L15.1548 10.3843L15.2273 10.2884L15.3119 10.1925L15.6261 9.8208C15.6744 9.76083 15.7349 9.68886 15.7833 9.64091L15.9524 9.47302L16.3029 9.12525C16.4237 9.01733 16.5446 8.90941 16.6655 8.80149C16.7863 8.69357 16.9072 8.57371 17.0401 8.47772L17.4268 8.17798L17.6202 8.03411L17.8256 7.90218L18.2365 7.63838C18.3695 7.55443 18.5265 7.48249 18.6716 7.39855C18.8166 7.32661 18.9617 7.23067 19.1067 7.17072L19.5538 6.96687L19.7834 6.85895C19.856 6.82298 19.9405 6.79899 20.013 6.77501L20.4723 6.60713C20.6294 6.54718 20.7865 6.5112 20.9436 6.46324L21.4149 6.33133L21.8983 6.23541L22.14 6.18744L22.2609 6.16346L22.3818 6.15147L22.8531 6.09151L23.0948 6.05554L23.3606 6.04355L23.8924 6.01957L24.0253 6.00757H24.0374H24.0495H24.1099H24.3637C25.0284 6.01957 25.6931 6.07952 26.3457 6.19944L26.829 6.29536L27.1312 5.91165L27.3971 5.57589L27.53 5.40802L27.675 5.24014L27.9651 4.91638L28.2672 4.60461L28.4243 4.44872L28.5814 4.30483L28.9077 4.01704L29.2461 3.74124L29.4153 3.60934L29.5965 3.47744L29.9471 3.22562L30.3096 2.9858L30.4909 2.86589L30.6843 2.75797L31.0589 2.54212L31.4456 2.35027L31.639 2.25434L31.8444 2.1704L32.2432 2.00252L32.6542 1.85863L32.8596 1.78668L33.065 1.72673L33.488 1.60681C33.6331 1.57084 33.7781 1.53487 33.9109 1.51089C34.056 1.47492 34.2011 1.43894 34.3461 1.41496L34.7811 1.34301C34.9261 1.31903 35.0711 1.30704 35.2041 1.29505L35.4217 1.27106C35.4941 1.25907 35.5667 1.25907 35.6391 1.24708L36.0984 1.2231H36.2193H36.2434H36.2555H36.2676H36.3159H36.5334C36.6785 1.2231 36.8235 1.2231 36.9806 1.23509L37.4278 1.25907L37.8749 1.30704C38.4671 1.37898 39.0472 1.4869 39.6272 1.6308C40.1953 1.78668 40.7633 1.97855 41.3071 2.21836C41.851 2.4462 42.3827 2.73399 42.8903 3.05775C43.3979 3.38151 43.8812 3.72925 44.3405 4.12496C44.7997 4.52067 45.2227 4.94036 45.6215 5.39602C46.0203 5.85169 46.3708 6.34333 46.6971 6.84695C46.8663 7.09877 47.0113 7.36258 47.1563 7.62637C47.2893 7.90218 47.4343 8.16597 47.5552 8.44178C47.7969 8.99339 48.0143 9.56893 48.1715 10.1565C48.3286 10.7441 48.4495 11.3436 48.5219 11.9552C48.4978 11.3436 48.4373 10.7321 48.3286 10.1205C48.2198 9.50897 48.0506 8.9094 47.8452 8.32185C47.6397 7.73429 47.386 7.15873 47.0839 6.61912C46.7817 6.06753 46.4433 5.53992 46.0687 5.03629C45.682 4.53266 45.2711 4.06501 44.8118 3.62133C44.3526 3.17766 43.8571 2.78195 43.3495 2.41023C42.8299 2.0385 42.286 1.70274 41.7059 1.42695C41.1379 1.13916 40.5337 0.899339 39.9294 0.695487C39.3131 0.503629 38.6846 0.347744 38.0441 0.251815L37.5607 0.179868L37.0773 0.131903C36.9202 0.107921 36.751 0.107921 36.5939 0.107921L36.3764 0H36.3159H36.2434H36.1226H35.6633C35.5908 0 35.5063 0 35.4217 0.0119911L35.1678 0.0359735C34.9987 0.0479647 34.8295 0.0479647 34.6724 0.071947L34.1889 0.131903C34.0318 0.143894 33.8626 0.179868 33.7055 0.215841C33.5484 0.251815 33.3792 0.275797 33.2221 0.31177L32.7508 0.431682L32.5091 0.491638L32.2795 0.563585L31.8082 0.707479L31.3489 0.875353L31.1314 0.959295L30.9018 1.05522L30.4546 1.25907L30.0195 1.4869L29.802 1.59482L29.5965 1.71474L29.1736 1.96655L28.7627 2.24235L28.5572 2.37425L28.3639 2.51815L27.9772 2.81792L27.6025 3.1297L27.4212 3.28558L27.24 3.45346L26.8895 3.78921L26.5511 4.14895L26.3819 4.32881L26.2369 4.50868C25.6447 4.40076 25.0525 4.32881 24.4483 4.30483L24.1582 4.29284H24.0858H24.0495H23.9891H23.8561L23.3244 4.30483L23.0585 4.31682L22.7685 4.3408L22.1763 4.40076L22.0313 4.41275L21.8862 4.43673L21.6083 4.4847L21.0403 4.58063L20.4844 4.72452C20.3031 4.77248 20.1097 4.80846 19.9284 4.8804L19.3846 5.06027C19.3 5.09625 19.2034 5.12023 19.1187 5.1562L18.8528 5.26413L18.3211 5.49195C18.1519 5.5639 17.9828 5.65983 17.8135 5.74377C17.6443 5.8397 17.4752 5.91165 17.3059 6.01957L16.8226 6.31935L16.5809 6.47523L16.3512 6.64311L15.892 6.97886C15.7349 7.08678 15.602 7.21869 15.4449 7.33859C15.2998 7.4585 15.1548 7.57842 15.0098 7.71035L14.5988 8.10601L14.3934 8.30984C14.321 8.38181 14.2605 8.45378 14.2001 8.52576L13.8254 8.95744L13.7288 9.06536L13.6441 9.17328L13.4749 9.40105C13.3662 9.55693 13.2454 9.70087 13.1245 9.85675L12.8103 10.3364C12.5928 10.6481 12.4235 10.9959 12.2302 11.3317C12.1456 11.4755 12.0731 11.6434 12.0006 11.7993C10.4657 11.9312 8.96717 12.3509 7.5774 12.9984C6.00633 13.7419 4.58028 14.7851 3.40802 16.0682C2.23576 17.3512 1.32937 18.8621 0.749281 20.4929C0.459237 21.3083 0.253788 22.1597 0.132937 23.0111C0.108766 23.2269 0.072511 23.4427 0.0604258 23.6586C0.0483407 23.8744 0.0241704 24.0903 0.0120852 24.3061C0.0120852 24.5219 0 24.7378 0 24.9536V25.0495V25.0856V25.1574L0.0120852 25.3014L0.0241704 25.6011L0.0362555 25.745C0.0362555 25.793 0.0483407 25.8649 0.0604258 25.9129L0.120852 26.2727L0.181278 26.6324C0.205448 26.7523 0.241704 26.8482 0.265874 26.9681L0.35047 27.2919L0.398811 27.4598C0.410896 27.5198 0.435066 27.5677 0.459237 27.6157L0.700939 28.2512C1.07558 29.0786 1.58316 29.846 2.18742 30.5175L2.41704 30.7694C2.48954 30.8533 2.57414 30.9372 2.65874 31.0091C2.82793 31.165 2.99712 31.309 3.16632 31.4528L3.68597 31.8366C1.65567 29.0666 2.07865 24.9776 2.07865 24.9776Z" fill="white"/>
<path d="M76.5233 32.4471L74.1666 31.2719C73.8162 31.0921 73.4174 31.0081 73.0186 31.0081L57.1266 31.1161L54.6854 28.586H53.2956L54.4558 32.0514L9.46269 31.4039H8.85842C8.76174 31.4039 8.653 31.4039 8.55633 31.4039L8.29043 31.3919C7.93992 31.3919 7.60156 31.3199 7.25109 31.2719C6.57433 31.1281 5.92173 30.8643 5.31747 30.5285L5.09993 30.3966C5.02743 30.3486 4.94283 30.3127 4.8824 30.2527L4.45942 29.941L4.0727 29.5932C4.00019 29.5332 3.95184 29.4733 3.89142 29.4133L3.71014 29.2215C3.25091 28.7058 2.87627 28.1183 2.58622 27.4947L2.40494 27.0151C2.39286 26.9791 2.36869 26.9311 2.3566 26.8952L2.32034 26.7753L2.25992 26.5235C2.23575 26.4395 2.21158 26.3556 2.19949 26.2716L2.17532 26.0198L2.13907 25.792L2.12698 25.732C2.12698 25.7201 2.1149 25.6961 2.1149 25.6601L2.10282 25.5162L2.06656 24.9766C2.06656 24.9766 1.64358 29.0656 3.68597 31.8835L3.71014 31.9075C3.79474 31.9794 3.9035 32.0274 4.00019 32.0874L4.29023 32.2552C5.08785 32.6989 5.9459 33.0227 6.8402 33.2025C7.06982 33.2385 7.28735 33.2745 7.51697 33.2985L7.68616 33.3224C7.74659 33.3344 7.79492 33.3344 7.85538 33.3344L8.19375 33.3464L8.53212 33.3585C8.64086 33.3585 8.73754 33.3585 8.83421 33.3585H9.43848L64.6919 33.5263L61.4531 37.999H62.432L65.1753 36.1524H67.2056C67.3264 36.1524 67.411 36.0564 67.411 35.9485C67.411 35.8406 67.3144 35.7446 67.2056 35.7446H65.7917L67.0123 34.9292H68.4503C68.5712 34.9292 68.6558 34.8333 68.6558 34.7254C68.6558 34.6055 68.5592 34.5216 68.4503 34.5216H67.6286L68.9579 33.6222L76.2937 33.3464C76.4628 33.3344 76.62 33.2385 76.7046 33.0826C76.8496 32.8428 76.7529 32.555 76.5233 32.4471Z" fill="white"/>
</g>
<defs>
<clipPath id="clip0_249_4353">
<rect width="123" height="38" fill="white"/>
</clipPath>
</defs>
</svg>
