<svg width="149" height="46" viewBox="0 0 149 46" fill="none" xmlns="http://www.w3.org/2000/svg">
<g clip-path="url(#clip0_249_721)">
<mask id="mask0_249_721" style="mask-type:luminance" maskUnits="userSpaceOnUse" x="19" y="13" width="130" height="22">
<path d="M149 13.7998H19.9299V34.0398H149V13.7998Z" fill="white"/>
</mask>
<g mask="url(#mask0_249_721)">
<path d="M31.2274 33.1197H27.0061V17.8109H20.5981V14.2192H37.6354V17.8109H31.2274V33.1197ZM37.6871 23.6694C37.6871 17.7814 42.6677 13.9248 48.4379 13.9248C54.2385 13.9248 59.1279 17.7814 59.1279 23.6694C59.1279 29.5574 54.2081 33.4141 48.4379 33.4141C42.6677 33.4141 37.6871 29.528 37.6871 23.6694ZM48.4379 29.6458C52.1126 29.6458 54.8762 27.0845 54.8762 23.6694C54.8762 20.2544 52.1126 17.6637 48.4379 17.6637C44.7328 17.6637 41.9388 20.225 41.9388 23.6694C41.9388 27.0845 44.7328 29.6458 48.4379 29.6458ZM61.0912 14.2192H65.3429V24.7882C65.3429 27.791 66.6185 29.7046 69.9895 29.7046C73.3605 29.7046 74.5753 27.791 74.5753 24.7882V14.2192H78.7662V24.8765C78.7662 29.1158 76.5494 33.3552 69.9895 33.3552C63.4297 33.3552 61.0912 29.1158 61.0912 24.8765V14.2192ZM97.4944 27.8205L98.6484 33.1197H94.2146L93.1213 28.0854C92.7265 26.319 91.0562 25.9069 88.991 25.9069H86.1667V33.1197H81.915V14.2486H90.7828C95.5811 14.2486 98.4662 16.0445 98.4662 19.5184C98.4662 22.3741 96.4618 24.0816 94.2753 24.641C95.7633 25.112 97.0996 26.0835 97.4944 27.8205ZM86.1667 17.8109V22.8451H90.2969C92.6961 22.8451 94.2146 22.2858 94.2146 20.1955C94.2146 18.0758 92.5746 17.8109 90.6917 17.8109H86.1667ZM105.06 33.1197H100.808V14.2486H105.06V33.1197ZM124.126 33.1197H106.906V30.1757L118.538 17.8109H107.119V14.2486H124.338V17.4282L113.01 29.5574H124.126V33.1197ZM138.134 33.1197L136.768 28.792H129.843L128.446 33.1197H124.042L130.298 14.2486H136.312L142.567 33.1197H138.134ZM130.906 25.3181H135.705L133.306 17.7814L130.906 25.3181ZM144.148 30.9411C144.148 29.5574 145.303 28.6448 146.578 28.6448C147.854 28.6448 148.947 29.5574 148.947 30.9411C148.947 32.3248 147.854 33.2669 146.578 33.2669C145.303 33.2669 144.148 32.3542 144.148 30.9411Z" fill="#0D0D0D"/>
</g>
<path d="M15.4446 17.6514C15.4446 17.6514 15.0493 17.8255 14.3613 18.1594C13.6732 18.4933 12.7216 18.9868 11.6237 19.6836C11.082 20.032 10.511 20.4384 9.94007 20.8884C9.79363 21.0045 9.64729 21.1206 9.51556 21.2367C9.36912 21.3673 9.22273 21.498 9.09096 21.6142C8.81281 21.8755 8.53465 22.1512 8.27114 22.4415C8.00763 22.7319 7.74411 23.0367 7.49523 23.356C7.24636 23.6753 7.02676 24.0092 6.79253 24.3576C6.57293 24.7059 6.38261 25.0689 6.19229 25.4463C6.01662 25.8236 5.85558 26.2011 5.72382 26.593C5.66526 26.7817 5.59206 26.9994 5.54814 27.1882C5.48958 27.3769 5.44566 27.5801 5.40175 27.7832C5.32855 28.1897 5.26998 28.5961 5.24071 29.0026C5.22607 29.4091 5.22607 29.8154 5.25535 30.2074C5.28463 30.5994 5.34318 30.9913 5.43103 31.3687C5.51886 31.746 5.62134 32.1089 5.76774 32.4573C5.82629 32.6315 5.91414 32.8057 5.98734 32.9653L6.01662 33.0235L6.04589 33.0815L6.11909 33.2122C6.16302 33.2992 6.20693 33.3863 6.25085 33.4589C6.60221 34.054 7.04139 34.6056 7.48059 35.0266C7.93443 35.462 8.40289 35.7959 8.85673 36.0572C9.31056 36.3184 9.73508 36.4927 10.0865 36.6088C10.2622 36.6669 10.4232 36.7104 10.5696 36.754C10.716 36.783 10.8331 36.8265 10.9356 36.841C11.1405 36.8701 11.243 36.8991 11.243 36.8991C11.243 36.8991 11.1405 36.8991 10.9356 36.8991C10.8331 36.8991 10.7013 36.8846 10.555 36.8701C10.4085 36.8555 10.2329 36.8265 10.0426 36.7975C9.66191 36.7249 9.20808 36.5943 8.71033 36.3765C8.21258 36.1588 7.68555 35.8395 7.15852 35.4185C6.63148 34.9831 6.13374 34.4605 5.69454 33.7928C5.28463 33.1541 4.93327 32.3847 4.71367 31.5719C4.49408 30.759 4.39161 29.8736 4.43552 28.9881C4.45016 28.5381 4.50872 28.1027 4.58192 27.6526C4.62584 27.4349 4.66976 27.2172 4.72832 26.985C4.78687 26.7527 4.84544 26.564 4.91864 26.3462C5.06503 25.9253 5.24071 25.5043 5.43103 25.0978C5.63598 24.6915 5.85558 24.314 6.08982 23.9366C6.57293 23.1963 7.12924 22.5287 7.71483 21.9335C8.00763 21.6432 8.30042 21.3529 8.62249 21.1061C8.78353 20.9754 8.92993 20.8593 9.07633 20.7432C9.23736 20.6271 9.38376 20.5109 9.54479 20.3948C10.1597 19.9448 10.7746 19.582 11.3601 19.2771C11.9457 18.9578 12.4874 18.711 12.9852 18.5078C13.4829 18.3046 13.9221 18.1449 14.2734 18.0143C14.6395 17.8837 14.9176 17.7965 15.1225 17.7385C15.3421 17.6949 15.4446 17.6514 15.4446 17.6514Z" fill="#119CE6"/>
<path d="M32.7928 9.02829C32.7928 9.02829 32.7195 9.02829 32.5878 9.01377C32.4561 8.99925 32.2511 8.98474 32.0023 8.97023C31.8704 8.97023 31.7387 8.95571 31.5923 8.95571C31.4459 8.95571 31.2849 8.94119 31.1092 8.94119C30.9335 8.94119 30.7579 8.94119 30.5529 8.94119C30.3626 8.95571 30.1576 8.95571 29.938 8.97023C29.5135 8.99925 29.0596 9.04281 28.5765 9.11538C28.0934 9.17345 27.5957 9.2896 27.0979 9.40571C26.5855 9.53635 26.0731 9.69597 25.5607 9.87022C25.0483 10.0589 24.5359 10.2767 24.0382 10.5234C23.5258 10.7702 23.0573 11.046 22.6035 11.3362C22.1497 11.6411 21.7104 11.9459 21.3005 12.2798C20.9053 12.6137 20.51 12.933 20.1733 13.2814C19.8219 13.6153 19.5292 13.9491 19.2364 14.2685C19.1046 14.4281 18.9728 14.5878 18.8557 14.733C18.7386 14.8781 18.6215 15.0232 18.519 15.1684C18.4165 15.3136 18.3287 15.4442 18.2408 15.5603C18.153 15.6764 18.0798 15.7925 18.0066 15.8942C17.8603 16.0974 17.7578 16.2716 17.6845 16.3732C17.6113 16.4893 17.5674 16.5474 17.5674 16.5474C17.5674 16.5474 17.5967 16.4748 17.6406 16.3587C17.6845 16.2281 17.7431 16.0394 17.8603 15.8216C17.9041 15.7055 17.9627 15.5749 18.0359 15.4442C18.0945 15.3136 18.1823 15.1684 18.2555 15.0087C18.3433 14.8491 18.4312 14.6894 18.5336 14.5152C18.6361 14.341 18.7532 14.1668 18.8703 13.9926C19.0021 13.8185 19.1193 13.6297 19.2656 13.441C19.412 13.2523 19.5584 13.0636 19.7341 12.8749C20.0562 12.483 20.4368 12.1056 20.8321 11.7427C21.242 11.3798 21.6958 11.0169 22.1643 10.683C22.6474 10.3637 23.1744 10.0589 23.6868 9.79763C24.2138 9.53635 24.7702 9.31858 25.3265 9.1299C25.8828 8.95571 26.4391 8.81055 26.9808 8.70895C27.5225 8.60733 28.0495 8.54927 28.5619 8.52025C28.8107 8.50573 29.0596 8.50573 29.2939 8.49121C29.5281 8.49121 29.7623 8.50573 29.9819 8.50573C30.2015 8.52025 30.4065 8.53475 30.6114 8.56379C30.8018 8.59282 30.9921 8.62185 31.1678 8.63637C31.3434 8.66539 31.5045 8.69443 31.6508 8.72346C31.7973 8.75249 31.9437 8.79604 32.0608 8.82507C32.3096 8.88313 32.4999 8.94119 32.6318 8.98474C32.7195 9.01377 32.7928 9.02829 32.7928 9.02829Z" fill="#119CE6"/>
<path d="M33.7598 8.0272C33.7598 8.0272 33.8329 7.94011 33.9647 7.76592C34.0379 7.67883 34.1257 7.57722 34.2136 7.44657C34.3014 7.31593 34.4332 7.18529 34.5796 7.04013C34.726 6.89499 34.8723 6.72079 35.0627 6.54661C35.253 6.37242 35.458 6.19823 35.6629 6.00953C35.8825 5.82083 36.1313 5.64664 36.3949 5.44342C36.6584 5.25472 36.9512 5.06602 37.2586 4.87732C37.4197 4.79022 37.5807 4.70312 37.7418 4.60152C37.9028 4.51442 38.0638 4.41281 38.2542 4.32572C38.6055 4.16605 38.9714 3.97734 39.3667 3.8467C40.1427 3.52736 40.9918 3.29511 41.8848 3.12093C42.1044 3.09189 42.3387 3.04835 42.5583 3.01931C42.6754 3.00479 42.7925 2.99029 42.9096 2.97577C43.0267 2.96125 43.1438 2.96125 43.2609 2.94673C43.7294 2.88867 44.2125 2.90319 44.681 2.88867C45.1641 2.91771 45.6472 2.93222 46.1304 3.00479C46.3646 3.03383 46.6134 3.06286 46.8477 3.12093L47.5797 3.28059C48.4727 3.52736 49.4389 3.89025 50.288 4.3112C50.7125 4.54346 51.1371 4.76118 51.5177 5.03698C51.6202 5.09504 51.7081 5.16762 51.8106 5.22568C51.913 5.28375 52.0009 5.35632 52.0887 5.4289C52.279 5.57406 52.4547 5.7047 52.6304 5.84986C53.3331 6.43049 53.9626 7.04014 54.4897 7.67883C54.7678 7.98365 55.002 8.31752 55.2217 8.63686C55.3388 8.79653 55.4265 8.9562 55.529 9.11588C55.6315 9.27552 55.7193 9.43524 55.8218 9.58041C55.9975 9.89974 56.1585 10.19 56.305 10.4949C56.4367 10.7997 56.5684 11.0755 56.6709 11.3368C56.7734 11.6126 56.8613 11.8593 56.9345 12.1061C57.0077 12.3383 57.0662 12.5706 57.1102 12.7738C57.1687 12.9771 57.2127 13.1512 57.2273 13.3109C57.2565 13.4705 57.2712 13.6012 57.3004 13.7173C57.3444 13.935 57.359 14.0512 57.359 14.0512C57.359 14.0512 57.3298 13.935 57.2566 13.7318C57.1833 13.5286 57.1102 13.2093 56.9491 12.8319C56.8759 12.6432 56.8027 12.4254 56.7003 12.2077C56.5978 11.99 56.4807 11.7432 56.3635 11.482C56.2317 11.2351 56.0854 10.9738 55.9243 10.6981C55.7633 10.4223 55.573 10.1465 55.3973 9.85614C55.2948 9.71105 55.1923 9.58041 55.0752 9.43524C54.9727 9.29006 54.8702 9.13038 54.7385 8.99974C54.4897 8.70944 54.27 8.40461 53.9773 8.12881C53.8454 7.98365 53.6991 7.8385 53.5674 7.69334C53.4209 7.5627 53.2599 7.41755 53.1135 7.27239C52.9671 7.12723 52.806 6.99659 52.6304 6.86595C52.4693 6.73531 52.3083 6.59015 52.1326 6.45951C51.4445 5.93695 50.6833 5.48697 49.8781 5.06602C49.0583 4.6741 48.2385 4.36926 47.3015 4.1225L46.6428 3.97734C46.4232 3.91928 46.1889 3.90477 45.9693 3.86122C45.5155 3.78864 45.0617 3.77413 44.6078 3.73058C43.7002 3.71606 42.8071 3.74509 41.958 3.89025C41.1089 4.03541 40.2891 4.20959 39.5278 4.47088C39.1472 4.587 38.7958 4.74667 38.4444 4.87732C38.2688 4.93538 38.1077 5.02246 37.9467 5.10956C37.7857 5.18214 37.6247 5.26924 37.4636 5.34181C37.1561 5.516 36.8633 5.67567 36.5852 5.83534C36.3217 6.00953 36.0582 6.1692 35.8239 6.32887C35.5897 6.50306 35.3847 6.66273 35.1798 6.80789C34.9894 6.95305 34.8138 7.11271 34.6527 7.24335C34.3307 7.50464 34.1111 7.73689 33.95 7.88205C33.8476 7.94011 33.7598 8.0272 33.7598 8.0272Z" fill="#119CE6"/>
<path d="M68.9679 37.6676L66.1425 34.7354H64.7224L64.781 34.8805L66.0253 34.8951L68.6898 37.6676H68.9679Z" fill="#119CE6"/>
<path d="M84.2078 37.3633L82.6706 36.6957H83.4172C83.5637 36.6957 83.6662 36.5795 83.6662 36.4489C83.6662 36.3038 83.5491 36.2021 83.4172 36.2021H81.5141L79.7866 35.4473H81.4116C81.5581 35.4473 81.6605 35.3311 81.6605 35.2005C81.6605 35.0699 81.5433 34.9538 81.4116 34.9538H78.6447L76.8441 34.1699H74.0625L78.6154 37.4215L84.2078 37.3633Z" fill="#119CE6"/>
<path d="M2.51803 30.2361L2.53268 29.5683C2.54732 29.3506 2.56196 29.1328 2.5766 28.9006C2.59123 28.6828 2.63516 28.4652 2.6498 28.2474C2.78155 27.3764 2.98651 26.52 3.27931 25.6781C3.8649 24.0089 4.80184 22.4702 5.98767 21.1492C7.17348 19.8283 8.62282 18.7397 10.2332 17.9704C11.8436 17.1865 13.6004 16.751 15.3864 16.6349L16.133 16.5914L16.4405 15.8946L16.6747 15.3576C16.7625 15.1833 16.8211 14.9946 16.9236 14.8205C17.1138 14.4721 17.2749 14.1092 17.5091 13.7899L17.8312 13.2818C17.9483 13.1221 18.0654 12.9624 18.1826 12.8028L18.3582 12.5705L18.4461 12.4544L18.5486 12.3383L18.9292 11.8883C18.9877 11.8157 19.061 11.7286 19.1195 11.6706L19.3244 11.4673L19.7491 11.0463C19.8954 10.9157 20.0418 10.7851 20.1883 10.6544C20.3346 10.5238 20.481 10.3787 20.6421 10.2625L21.1105 9.89966L21.3448 9.72551L21.5936 9.56579L22.0914 9.24646C22.2524 9.14484 22.4427 9.05775 22.6184 8.95614C22.7941 8.86905 22.9698 8.75292 23.1455 8.68034L23.6871 8.43358L23.9653 8.30294C24.0532 8.25939 24.1556 8.23036 24.2434 8.20132L24.7998 7.9981C24.9901 7.92553 25.1803 7.88198 25.3707 7.82392L25.9417 7.66425L26.5272 7.54812L26.82 7.49006L26.9664 7.46103L27.1129 7.44652L27.6838 7.37394L27.9766 7.33039L28.2986 7.31588L28.9428 7.28684L29.1039 7.27233H29.1185H29.1331H29.2063H29.5138C30.3189 7.28684 31.1241 7.35942 31.9147 7.50458L32.5002 7.6207L32.8663 7.1562L33.1884 6.74976L33.3493 6.54655L33.525 6.34333L33.8764 5.95141L34.2424 5.574L34.4327 5.38529L34.623 5.21111L35.0183 4.86273L35.4282 4.52888L35.6332 4.3692L35.8527 4.20953L36.2773 3.9047L36.7165 3.61439L36.9362 3.46924L37.1704 3.3386L37.6242 3.07731L38.0927 2.84506L38.3269 2.72894L38.5757 2.62733L39.0589 2.42411L39.5567 2.24992L39.8055 2.16283L40.0543 2.09025L40.5667 1.94509C40.7425 1.90155 40.9182 1.858 41.0791 1.82897C41.2549 1.78543 41.4305 1.74187 41.6062 1.71285L42.1332 1.62575C42.3089 1.59672 42.4846 1.58221 42.6456 1.56769L42.9092 1.53865C42.9969 1.52414 43.0848 1.52414 43.1726 1.50963L43.7289 1.48059H43.8754H43.9046H43.9193H43.9339H43.9925H44.2559C44.4317 1.48059 44.6074 1.48059 44.7977 1.49511L45.3394 1.52414L45.881 1.58221C46.5984 1.66929 47.301 1.79993 48.0037 1.97413C48.6919 2.16283 49.3799 2.39508 50.0387 2.68539C50.6975 2.96119 51.3416 3.30956 51.9565 3.70148C52.5714 4.0934 53.1569 4.51436 53.7133 4.99337C54.2696 5.47239 54.782 5.98043 55.2651 6.53203C55.7482 7.08362 56.1727 7.67876 56.568 8.28842C56.773 8.59325 56.9487 8.91259 57.1243 9.23193C57.2854 9.56579 57.461 9.88513 57.6075 10.219C57.9003 10.8867 58.1637 11.5834 58.3541 12.2947C58.5444 13.006 58.6908 13.7317 58.7786 14.4721C58.7494 13.7317 58.6761 12.9915 58.5444 12.2512C58.4127 11.5109 58.2077 10.7851 57.9588 10.0738C57.7099 9.36257 57.4025 8.66583 57.0365 8.01262C56.6705 7.3449 56.2606 6.70622 55.8068 6.09656C55.3383 5.48691 54.8405 4.9208 54.2842 4.38372C53.7279 3.84664 53.1277 3.36762 52.5128 2.91764C51.8833 2.46765 51.2245 2.06121 50.5218 1.72736C49.8338 1.37899 49.1018 1.08867 48.3698 0.841906C47.6232 0.609656 46.8618 0.420953 46.086 0.304828L45.5003 0.217735L44.9148 0.159672C44.7245 0.130641 44.5195 0.130641 44.3292 0.130641L44.0657 0H43.9925H43.9046H43.7583H43.2019C43.1141 0 43.0117 0 42.9092 0.0145156L42.6017 0.0435468C42.3968 0.0580625 42.1918 0.0580625 42.0015 0.0870937L41.4158 0.159672C41.2256 0.174187 41.0206 0.217735 40.8303 0.261281C40.64 0.304828 40.435 0.33386 40.2447 0.377406L39.6738 0.522563L39.381 0.595141L39.1028 0.682234L38.5319 0.856422L37.9755 1.05964L37.712 1.16125L37.4338 1.27737L36.8922 1.52414L36.3651 1.79993L36.1017 1.93057L35.8527 2.07573L35.3403 2.38056L34.8427 2.71442L34.5937 2.87409L34.3595 3.04828L33.891 3.41117L33.4372 3.78858L33.2176 3.97728L32.998 4.1805L32.5735 4.58694L32.1635 5.02241L31.9586 5.24014L31.7829 5.45787C31.0656 5.32723 30.3482 5.24014 29.6163 5.21111L29.2648 5.19659H29.177H29.1331H29.0599H28.8989L28.2548 5.21111L27.9327 5.22563L27.5813 5.25465L26.8639 5.32723L26.6883 5.34175L26.5126 5.37078L26.1759 5.42885L25.4878 5.54497L24.8144 5.71915C24.5948 5.77721 24.3606 5.82077 24.1409 5.90785L23.4822 6.12559C23.3797 6.16914 23.2626 6.19817 23.1601 6.24171L22.838 6.37236L22.1939 6.64815C21.9889 6.73525 21.784 6.85137 21.579 6.95298C21.374 7.06911 21.1691 7.1562 20.9641 7.28684L20.3786 7.64974L20.0858 7.83844L19.8076 8.04166L19.2513 8.44809C19.061 8.57873 18.8999 8.73841 18.7097 8.88356C18.5339 9.02872 18.3582 9.17387 18.1826 9.33358L17.6848 9.81254L17.4359 10.0593C17.3482 10.1464 17.2749 10.2335 17.2017 10.3207L16.7479 10.8432L16.6308 10.9739L16.5283 11.1045L16.3233 11.3802C16.1916 11.5689 16.0452 11.7432 15.8988 11.9319L15.5181 12.5125C15.2547 12.8898 15.0497 13.3108 14.8154 13.7173C14.7129 13.8914 14.6252 14.0947 14.5373 14.2834C12.678 14.4431 10.8627 14.9511 9.17913 15.7349C7.27596 16.6349 5.54847 17.8978 4.12841 19.4509C2.70836 21.0041 1.61038 22.8331 0.907665 24.8072C0.556311 25.7942 0.307434 26.8249 0.161038 27.8555C0.131758 28.1168 0.0878385 28.378 0.0731988 28.6393C0.058559 28.9006 0.0292795 29.1619 0.0146398 29.4232C0.0146398 29.6845 0 29.9457 0 30.207V30.3231V30.3667V30.4538L0.0146398 30.628L0.0292795 30.9908L0.0439193 31.165C0.0439193 31.2231 0.058559 31.3102 0.0731988 31.3682L0.146398 31.8038L0.219597 32.2392C0.248876 32.3844 0.292795 32.5005 0.322074 32.6457L0.424553 33.0376L0.483112 33.2408C0.497752 33.3134 0.527031 33.3714 0.556311 33.4295L0.849105 34.1988C1.30293 35.2004 1.91781 36.1294 2.6498 36.9422L2.92795 37.2471C3.01579 37.3487 3.11827 37.4504 3.22074 37.5374C3.4257 37.7261 3.63066 37.9003 3.83562 38.0745L4.46512 38.539C2.00564 35.1859 2.51803 30.2361 2.51803 30.2361Z" fill="#119CE6"/>
<path d="M92.699 39.2796L89.8442 37.8571C89.4197 37.6393 88.9365 37.5377 88.4534 37.5377L69.2022 37.6684L66.2449 34.6056H64.5613L65.9668 38.8006L11.463 38.0168H10.731C10.6139 38.0168 10.4821 38.0168 10.365 38.0168L10.0429 38.0022C9.61831 38.0022 9.20843 37.9151 8.78388 37.8571C7.96406 37.6829 7.17351 37.3636 6.44152 36.9571L6.178 36.7974C6.09017 36.7393 5.98769 36.6958 5.91449 36.6232L5.4021 36.2459L4.93363 35.8249C4.84579 35.7523 4.78723 35.6797 4.71403 35.6071L4.49444 35.3749C3.93813 34.7507 3.48429 34.0394 3.13294 33.2847L2.91334 32.704C2.8987 32.6604 2.86943 32.6024 2.85478 32.5589L2.81086 32.4137L2.73766 32.1089C2.70838 32.0072 2.6791 31.9057 2.66446 31.804L2.63518 31.4992L2.59127 31.2234L2.57663 31.1508C2.57663 31.1364 2.56198 31.1073 2.56198 31.0638L2.54735 30.8895L2.50343 30.2363C2.50343 30.2363 1.99104 35.1862 4.46516 38.5974L4.49444 38.6264C4.59691 38.7135 4.72867 38.7715 4.84579 38.8441L5.19715 39.0474C6.16337 39.5845 7.20279 39.9764 8.28613 40.194C8.56429 40.2376 8.8278 40.2812 9.10596 40.3102L9.31091 40.3392C9.38411 40.3538 9.44267 40.3538 9.51591 40.3538L9.9258 40.3683L10.3357 40.3828C10.4674 40.3828 10.5845 40.3828 10.7016 40.3828H11.4336L78.3666 40.586L74.4432 46.0003H75.629L78.9523 43.7649H81.4117C81.5581 43.7649 81.6606 43.6488 81.6606 43.5182C81.6606 43.3875 81.5434 43.2713 81.4117 43.2713H79.6989L81.1775 42.2843H82.9196C83.066 42.2843 83.1685 42.1682 83.1685 42.0375C83.1685 41.8924 83.0514 41.7908 82.9196 41.7908H81.9241L83.5344 40.7022L92.4208 40.3683C92.6257 40.3538 92.8161 40.2376 92.9186 40.049C93.0943 39.7586 92.9771 39.4102 92.699 39.2796Z" fill="#119CE6"/>
</g>
<defs>
<clipPath id="clip0_249_721">
<rect width="149" height="46" fill="white"/>
</clipPath>
</defs>
</svg>
