<svg width="145" height="44" viewBox="0 0 145 44" fill="none" xmlns="http://www.w3.org/2000/svg">
<g clip-path="url(#clip0_1173_29015)">
<mask id="mask0_1173_29015" style="mask-type:luminance" maskUnits="userSpaceOnUse" x="19" y="13" width="126" height="20">
<path d="M145 13.1992H19.395V32.5592H145V13.1992Z" fill="white"/>
</mask>
<g mask="url(#mask0_1173_29015)">
<path d="M30.3894 31.6806H26.2813V17.0374H20.0454V13.6019H36.6253V17.0374H30.3894V31.6806ZM36.6756 22.6413C36.6756 17.0093 41.5225 13.3203 47.1378 13.3203C52.7826 13.3203 57.5408 17.0093 57.5408 22.6413C57.5408 28.2733 52.7531 31.9622 47.1378 31.9622C41.5225 31.9622 36.6756 28.2451 36.6756 22.6413ZM47.1378 28.3578C50.7138 28.3578 53.4033 25.9078 53.4033 22.6413C53.4033 19.3747 50.7138 16.8966 47.1378 16.8966C43.5322 16.8966 40.8132 19.3466 40.8132 22.6413C40.8132 25.9078 43.5322 28.3578 47.1378 28.3578ZM59.4514 13.6019H63.589V23.7114C63.589 26.5837 64.8303 28.4141 68.1108 28.4141C71.3913 28.4141 72.5736 26.5837 72.5736 23.7114V13.6019H76.6519V23.7958C76.6519 27.8509 74.4946 31.9059 68.1108 31.9059C61.7271 31.9059 59.4514 27.8509 59.4514 23.7958V13.6019ZM94.8773 26.6118L96.0004 31.6806H91.6856L90.6216 26.8653C90.2374 25.1757 88.6119 24.7814 86.6022 24.7814H83.8537V31.6806H79.7161V13.6301H88.3459C93.0154 13.6301 95.8231 15.3478 95.8231 18.6707C95.8231 21.4022 93.8725 23.0355 91.7447 23.5706C93.1927 24.0211 94.4931 24.9504 94.8773 26.6118ZM83.8537 17.0374V21.8528H87.8731C90.2079 21.8528 91.6856 21.3178 91.6856 19.3184C91.6856 17.2909 90.0896 17.0374 88.2573 17.0374H83.8537ZM102.24 31.6806H98.1024V13.6301H102.24V31.6806ZM120.794 31.6806H104.036V28.8646L115.356 17.0374H104.243V13.6301H121V16.6714L109.977 28.2733H120.794V31.6806ZM134.426 31.6806L133.096 27.5411H126.357L124.998 31.6806H120.712L126.8 13.6301H132.653L138.74 31.6806H134.426ZM127.392 24.2182H132.062L129.727 17.0093L127.392 24.2182ZM140.279 29.5968C140.279 28.2733 141.402 27.4003 142.643 27.4003C143.885 27.4003 144.949 28.2733 144.949 29.5968C144.949 30.9203 143.885 31.8214 142.643 31.8214C141.402 31.8214 140.279 30.9485 140.279 29.5968Z" fill="white"/>
</g>
<path d="M15.0299 16.8828C15.0299 16.8828 14.6452 17.0494 13.9757 17.3687C13.3061 17.6881 12.38 18.1602 11.3115 18.8266C10.7844 19.1599 10.2288 19.5487 9.67313 19.9791C9.53063 20.0901 9.38821 20.2012 9.26002 20.3123C9.11751 20.4372 8.97505 20.5622 8.84682 20.6733C8.57613 20.9232 8.30544 21.187 8.049 21.4647C7.79257 21.7424 7.53612 22.034 7.29392 22.3394C7.05174 22.6449 6.83803 22.9642 6.61009 23.2975C6.39638 23.6307 6.21117 23.9778 6.02597 24.3388C5.85501 24.6998 5.6983 25.0608 5.57007 25.4357C5.51308 25.6162 5.44185 25.8244 5.39911 26.005C5.34212 26.1855 5.29938 26.3799 5.25665 26.5742C5.18541 26.9629 5.12842 27.3517 5.09993 27.7405C5.08568 28.1293 5.08568 28.518 5.11418 28.893C5.14267 29.2678 5.19965 29.6427 5.28514 30.0037C5.37061 30.3647 5.47034 30.7118 5.61281 31.045C5.66979 31.2117 5.75528 31.3783 5.82651 31.5309L5.85501 31.5866L5.8835 31.6421L5.95473 31.767C5.99748 31.8503 6.04021 31.9336 6.08295 32.0031C6.42487 32.5723 6.85227 33.0999 7.27968 33.5026C7.72133 33.9191 8.17722 34.2384 8.61887 34.4884C9.06052 34.7383 9.47364 34.905 9.81564 35.016C9.98659 35.0715 10.1433 35.1132 10.2857 35.1549C10.4282 35.1826 10.5422 35.2242 10.642 35.2381C10.8414 35.2659 10.9411 35.2936 10.9411 35.2936C10.9411 35.2936 10.8414 35.2936 10.642 35.2936C10.5422 35.2936 10.4139 35.2798 10.2715 35.2659C10.129 35.252 9.95805 35.2242 9.77288 35.1965C9.40244 35.1271 8.9608 35.0021 8.4764 34.7938C7.99202 34.5856 7.47914 34.2802 6.96625 33.8775C6.45337 33.461 5.96898 32.9611 5.54158 32.3224C5.14267 31.7115 4.80075 30.9756 4.58704 30.1981C4.37335 29.4205 4.27362 28.5736 4.31635 27.7266C4.3306 27.2962 4.38759 26.8797 4.45882 26.4492C4.50156 26.241 4.54431 26.0327 4.60129 25.8106C4.65828 25.5884 4.71527 25.4079 4.7865 25.1996C4.92896 24.797 5.09993 24.3943 5.28514 24.0055C5.48459 23.6168 5.6983 23.2558 5.92624 22.8948C6.39638 22.1867 6.93776 21.548 7.50763 20.9788C7.79257 20.701 8.0775 20.4234 8.39093 20.1873C8.54764 20.0623 8.69011 19.9513 8.83258 19.8402C8.98929 19.7292 9.13176 19.618 9.28847 19.507C9.88685 19.0766 10.4852 18.7295 11.0551 18.4379C11.6249 18.1324 12.1521 17.8964 12.6365 17.702C13.1208 17.5076 13.5482 17.3549 13.8901 17.23C14.2464 17.105 14.5171 17.0217 14.7165 16.9661C14.9302 16.9244 15.0299 16.8828 15.0299 16.8828Z" fill="white"/>
<path d="M31.9126 8.63482C31.9126 8.63482 31.8413 8.63482 31.7131 8.62093C31.585 8.60705 31.3855 8.59317 31.1433 8.57928C31.015 8.57928 30.8868 8.5654 30.7443 8.5654C30.6019 8.5654 30.4452 8.55151 30.2742 8.55151C30.1033 8.55151 29.9323 8.55151 29.7328 8.55151C29.5477 8.5654 29.3482 8.5654 29.1345 8.57928C28.7213 8.60705 28.2797 8.64871 27.8095 8.71813C27.3394 8.77367 26.855 8.88477 26.3706 8.99583C25.872 9.12079 25.3733 9.27347 24.8747 9.44014C24.3761 9.62063 23.8774 9.82893 23.393 10.0649C22.8944 10.301 22.4385 10.5648 21.9969 10.8424C21.5552 11.1341 21.1278 11.4256 20.7289 11.745C20.3442 12.0643 19.9596 12.3698 19.6319 12.703C19.29 13.0224 19.0051 13.3417 18.7201 13.6472C18.5918 13.7998 18.4637 13.9526 18.3497 14.0915C18.2357 14.2302 18.1218 14.3691 18.022 14.508C17.9223 14.6468 17.8368 14.7718 17.7513 14.8829C17.6659 14.9939 17.5946 15.105 17.5234 15.2022C17.381 15.3966 17.2812 15.5632 17.2099 15.6604C17.1387 15.7715 17.0959 15.827 17.0959 15.827C17.0959 15.827 17.1245 15.7576 17.1672 15.6465C17.2099 15.5216 17.267 15.3411 17.381 15.1328C17.4236 15.0217 17.4806 14.8968 17.5519 14.7718C17.6089 14.6468 17.6943 14.508 17.7656 14.3552C17.8511 14.2025 17.9366 14.0498 18.0362 13.8832C18.136 13.7166 18.2499 13.5499 18.3639 13.3833C18.4922 13.2168 18.6062 13.0362 18.7486 12.8557C18.8911 12.6752 19.0335 12.4947 19.2045 12.3142C19.5179 11.9393 19.8884 11.5784 20.273 11.2312C20.6719 10.8841 21.1136 10.537 21.5694 10.2176C22.0396 9.91217 22.5525 9.62063 23.0511 9.37071C23.564 9.12079 24.1054 8.91249 24.6468 8.73202C25.1881 8.5654 25.7295 8.42655 26.2566 8.32936C26.7838 8.23217 27.2967 8.17663 27.7953 8.14887C28.0374 8.13498 28.2797 8.13498 28.5076 8.12109C28.7356 8.12109 28.9635 8.13498 29.1772 8.13498C29.3909 8.14887 29.5904 8.16274 29.7898 8.19052C29.9751 8.21829 30.1603 8.24605 30.3312 8.25994C30.5022 8.2877 30.6589 8.31548 30.8013 8.34325C30.9438 8.37101 31.0863 8.41267 31.2003 8.44044C31.4424 8.49597 31.6276 8.55151 31.7559 8.59317C31.8413 8.62093 31.9126 8.63482 31.9126 8.63482Z" fill="white"/>
<path d="M32.8535 7.67684C32.8535 7.67684 32.9247 7.59353 33.0529 7.42692C33.1242 7.34361 33.2096 7.24642 33.2952 7.12145C33.3806 6.99649 33.5089 6.87153 33.6513 6.73268C33.7938 6.59385 33.9362 6.42723 34.1215 6.26062C34.3067 6.094 34.5061 5.92739 34.7055 5.74689C34.9193 5.56639 35.1614 5.39977 35.4179 5.20539C35.6744 5.02489 35.9593 4.8444 36.2584 4.6639C36.4152 4.58059 36.5719 4.49728 36.7286 4.40009C36.8853 4.31678 37.042 4.21959 37.2273 4.13629C37.5692 3.98355 37.9253 3.80306 38.3099 3.6781C39.0651 3.37264 39.8914 3.15049 40.7604 2.98387C40.9742 2.9561 41.2021 2.91445 41.4158 2.88668C41.5298 2.87279 41.6438 2.85891 41.7577 2.84503C41.8717 2.83114 41.9857 2.83114 42.0996 2.81726C42.5555 2.76172 43.0257 2.77561 43.4816 2.76172C43.9517 2.78949 44.4218 2.80337 44.892 2.87279C45.12 2.90057 45.3621 2.92833 45.5901 2.98387L46.3024 3.1366C47.1715 3.37264 48.1118 3.71975 48.9381 4.1224C49.3512 4.34456 49.7644 4.55282 50.1347 4.81662C50.2345 4.87216 50.32 4.94158 50.4198 4.99712C50.5194 5.05267 50.6049 5.12208 50.6904 5.1915C50.8756 5.33035 51.0466 5.45531 51.2175 5.59416C51.9013 6.14954 52.5139 6.73268 53.0269 7.34361C53.2976 7.63518 53.5255 7.95453 53.7392 8.25999C53.8532 8.41271 53.9386 8.56544 54.0384 8.71817C54.1381 8.87088 54.2236 9.02365 54.3233 9.16251C54.4943 9.46796 54.651 9.7456 54.7935 10.0372C54.9217 10.3288 55.0499 10.5926 55.1496 10.8425C55.2494 11.1063 55.3349 11.3424 55.4061 11.5784C55.4773 11.8005 55.5343 12.0227 55.577 12.2171C55.634 12.4115 55.6768 12.5781 55.691 12.7308C55.7195 12.8835 55.7338 13.0085 55.7622 13.1195C55.805 13.3278 55.8192 13.4389 55.8192 13.4389C55.8192 13.4389 55.7908 13.3278 55.7196 13.1334C55.6483 12.939 55.577 12.6336 55.4203 12.2726C55.3491 12.0921 55.2778 11.8838 55.1782 11.6755C55.0784 11.4673 54.9644 11.2313 54.8505 10.9814C54.7222 10.7453 54.5798 10.4954 54.4231 10.2316C54.2663 9.9678 54.0811 9.70398 53.9102 9.42625C53.8105 9.28747 53.7107 9.16251 53.5967 9.02365C53.497 8.88479 53.3972 8.73205 53.2691 8.60709C53.0269 8.32941 52.8132 8.03783 52.5283 7.77402C52.4 7.63518 52.2576 7.49634 52.1294 7.35749C51.9869 7.23253 51.8301 7.09369 51.6877 6.95484C51.5452 6.81599 51.3885 6.69103 51.2175 6.56607C51.0608 6.44111 50.9041 6.30227 50.7331 6.17731C50.0635 5.67747 49.3227 5.24705 48.5392 4.8444C47.7413 4.46952 46.9435 4.17794 46.0317 3.9419L45.3907 3.80306C45.1769 3.74752 44.949 3.73363 44.7353 3.69198C44.2936 3.62256 43.852 3.60867 43.4103 3.56702C42.527 3.55314 41.658 3.5809 40.8317 3.71975C40.0053 3.85859 39.2076 4.02521 38.4667 4.27513C38.0963 4.38621 37.7543 4.53893 37.4124 4.6639C37.2415 4.71944 37.0847 4.80274 36.928 4.88605C36.7714 4.95547 36.6146 5.03878 36.4579 5.1082C36.1587 5.27481 35.8738 5.42755 35.6031 5.58027C35.3467 5.74689 35.0902 5.89961 34.8623 6.05235C34.6343 6.21896 34.4348 6.37169 34.2354 6.51054C34.0502 6.64938 33.8792 6.80211 33.7225 6.92707C33.4091 7.177 33.1954 7.39914 33.0387 7.53799C32.9389 7.59353 32.8535 7.67684 32.8535 7.67684Z" fill="white"/>
<path d="M67.1163 36.0313L64.3668 33.2266H62.9849L63.0418 33.3654L64.2528 33.3793L66.8457 36.0313H67.1163Z" fill="white"/>
<path d="M81.9472 35.7382L80.4512 35.0995H81.1778C81.3203 35.0995 81.4201 34.9884 81.4201 34.8634C81.4201 34.7247 81.3061 34.6274 81.1778 34.6274H79.3258L77.6446 33.9055H79.226C79.3685 33.9055 79.4682 33.7943 79.4682 33.6694C79.4682 33.5444 79.3542 33.4334 79.226 33.4334H76.5334L74.7811 32.6836H72.0742L76.5049 35.7938L81.9472 35.7382Z" fill="white"/>
<path d="M2.45044 28.9215L2.46469 28.2828C2.47894 28.0745 2.49318 27.8662 2.50743 27.6441C2.52167 27.4358 2.56441 27.2276 2.57866 27.0193C2.70688 26.1862 2.90634 25.367 3.19127 24.5617C3.76114 22.965 4.67294 21.4932 5.82692 20.2297C6.9809 18.9662 8.39134 17.9249 9.95845 17.189C11.5257 16.4393 13.2353 16.0227 14.9733 15.9116L15.6999 15.87L15.9991 15.2035L16.2271 14.6898C16.3125 14.5232 16.3695 14.3427 16.4692 14.1761C16.6544 13.8428 16.8111 13.4958 17.0391 13.1903L17.3525 12.7043C17.4665 12.5516 17.5805 12.3988 17.6944 12.2462L17.8654 12.024L17.9509 11.9129L18.0507 11.8019L18.421 11.3714C18.478 11.302 18.5493 11.2187 18.6063 11.1632L18.8057 10.9688L19.2189 10.5661C19.3613 10.4411 19.5038 10.3162 19.6463 10.1912C19.7887 10.0662 19.9312 9.92746 20.088 9.81631L20.5438 9.46924L20.7718 9.30266L21.0139 9.14989L21.4983 8.84444C21.6551 8.74724 21.8402 8.66393 22.0112 8.56674C22.1821 8.48344 22.3532 8.37236 22.5241 8.30293L23.0512 8.0669L23.3219 7.94194C23.4074 7.90029 23.5071 7.87252 23.5926 7.84474L24.134 7.65036C24.3192 7.58095 24.5044 7.53929 24.6896 7.48375L25.2452 7.33102L25.8151 7.21994L26.1 7.16441L26.2425 7.13663L26.385 7.12276L26.9406 7.05333L27.2256 7.01167L27.5389 6.9978L28.1658 6.97002L28.3226 6.95614H28.3368H28.351H28.4222H28.7215C29.505 6.97002 30.2886 7.03945 31.0579 7.17829L31.6277 7.28937L31.984 6.84506L32.2974 6.4563L32.454 6.26191L32.625 6.06753L32.967 5.69265L33.3231 5.33165L33.5083 5.15115L33.6936 4.98454L34.0782 4.65131L34.4771 4.33197L34.6766 4.17923L34.8902 4.02651L35.3034 3.73493L35.7309 3.45724L35.9446 3.3184L36.1725 3.19344L36.6142 2.94351L37.07 2.72136L37.298 2.61029L37.5401 2.5131L38.0103 2.31871L38.4947 2.1521L38.7369 2.06879L38.979 1.99937L39.4777 1.86052C39.6487 1.81887 39.8197 1.77721 39.9763 1.74945C40.1474 1.7078 40.3183 1.66614 40.4893 1.63838L41.0021 1.55507C41.1731 1.52729 41.344 1.51342 41.5008 1.49953L41.7572 1.47176C41.8427 1.45787 41.9282 1.45787 42.0136 1.44399L42.555 1.41622H42.6975H42.726H42.7403H42.7545H42.8115H43.0679C43.2389 1.41622 43.4099 1.41622 43.595 1.43011L44.1222 1.45787L44.6493 1.51342C45.3474 1.59672 46.0312 1.72168 46.715 1.8883C47.3847 2.06879 48.0543 2.29095 48.6953 2.56863C49.3365 2.83244 49.9633 3.16567 50.5617 3.54055C51.1601 3.91543 51.7299 4.31808 52.2713 4.77627C52.8127 5.23446 53.3113 5.72041 53.7814 6.24803C54.2516 6.77564 54.6647 7.3449 55.0494 7.92805C55.2489 8.21963 55.4198 8.52509 55.5908 8.83054C55.7475 9.14989 55.9185 9.45534 56.061 9.77469C56.3459 10.4134 56.6023 11.0798 56.7875 11.7601C56.9727 12.4406 57.1152 13.1347 57.2007 13.8428C57.1722 13.1347 57.1009 12.4267 56.9727 11.7185C56.8445 11.0104 56.645 10.3162 56.4029 9.63582C56.1606 8.9555 55.8615 8.28905 55.5054 7.66425C55.1491 7.02556 54.7502 6.41465 54.3086 5.8315C53.8527 5.24835 53.3683 4.70685 52.8269 4.19312C52.2855 3.67939 51.7015 3.2212 51.1031 2.79079C50.4905 2.36036 49.8493 1.9716 49.1655 1.65225C48.4959 1.31903 47.7836 1.04134 47.0713 0.805301C46.3447 0.58315 45.6038 0.402651 44.8488 0.291575L44.2788 0.208268L43.709 0.152729C43.5238 0.124961 43.3243 0.124961 43.1392 0.124961L42.8827 0H42.8115H42.726H42.5835H42.0422C41.9566 0 41.857 0 41.7572 0.0138845L41.458 0.0416535C41.2586 0.055538 41.0591 0.055538 40.8739 0.0833071L40.304 0.152729C40.1188 0.166614 39.9193 0.208268 39.7342 0.249921C39.549 0.291575 39.3495 0.319344 39.1643 0.360997L38.6087 0.499843L38.3238 0.569265L38.0531 0.652572L37.4975 0.819186L36.9561 1.01357L36.6996 1.11076L36.4289 1.22184L35.9018 1.45787L35.3889 1.72168L35.1325 1.84664L34.8902 1.98548L34.3916 2.27706L33.9073 2.59641L33.665 2.74913L33.4371 2.91575L32.9812 3.26286L32.5396 3.62386L32.3259 3.80435L32.1121 3.99874L31.699 4.3875L31.3001 4.80404L31.1007 5.0123L30.9297 5.22057C30.2316 5.09561 29.5335 5.0123 28.8212 4.98454L28.4792 4.97065H28.3938H28.351H28.2798H28.1231L27.4963 4.98454L27.1828 4.99843L26.8409 5.02619L26.1428 5.09561L25.9718 5.1095L25.8009 5.13726L25.4732 5.19281L24.8036 5.30388L24.1482 5.47049C23.9345 5.52603 23.7066 5.56769 23.4929 5.65099L22.8518 5.85926C22.7521 5.90092 22.6381 5.92868 22.5384 5.97033L22.2249 6.0953L21.5981 6.3591C21.3986 6.44241 21.1992 6.55348 20.9997 6.65068C20.8002 6.76175 20.6008 6.84506 20.4013 6.97002L19.8315 7.31714L19.5466 7.49764L19.2759 7.69202L18.7345 8.08078C18.5493 8.20574 18.3926 8.35848 18.2074 8.49732C18.0363 8.63616 17.8654 8.77501 17.6944 8.92778L17.21 9.3859L16.9679 9.62192C16.8824 9.70526 16.8111 9.78859 16.7399 9.87193L16.2983 10.3718L16.1843 10.4967L16.0846 10.6217L15.8851 10.8854C15.7569 11.0659 15.6145 11.2326 15.472 11.4131L15.1015 11.9684C14.8451 12.3294 14.6456 12.7321 14.4177 13.1209C14.318 13.2875 14.2325 13.4819 14.147 13.6624C12.3377 13.8151 10.5711 14.3011 8.93271 15.0508C7.08063 15.9116 5.39951 17.1196 4.01758 18.6052C2.63565 20.0908 1.56715 21.8404 0.883299 23.7286C0.541376 24.6727 0.299181 25.6586 0.156715 26.6444C0.128221 26.8943 0.0854805 27.1442 0.0712337 27.3941C0.0569869 27.6441 0.0284935 27.894 0.0142468 28.1439C0.0142468 28.3938 0 28.6437 0 28.8937V29.0047V29.0464V29.1297L0.0142468 29.2963L0.0284935 29.6434L0.0427403 29.81C0.0427403 29.8656 0.0569869 29.9489 0.0712337 30.0044L0.142468 30.421L0.213701 30.8375C0.242194 30.9764 0.284935 31.0874 0.313428 31.2263L0.413156 31.6012L0.470143 31.7955C0.48439 31.865 0.512883 31.9205 0.541376 31.976L0.826311 32.7119C1.26796 33.6699 1.86633 34.5586 2.57866 35.336L2.84935 35.6277C2.93483 35.7248 3.03455 35.8221 3.13428 35.9053C3.33373 36.0858 3.53319 36.2525 3.73265 36.4191L4.34525 36.8634C1.9518 33.656 2.45044 28.9215 2.45044 28.9215Z" fill="white"/>
<path d="M90.2108 37.5719L87.4326 36.2113C87.0195 36.003 86.5493 35.9058 86.0792 35.9058L67.3447 36.0308L64.4669 33.1012H62.8285L64.1962 37.1138L11.1556 36.364H10.4432C10.3293 36.364 10.2011 36.364 10.0871 36.364L9.77365 36.3501C9.36045 36.3501 8.96158 36.2668 8.54842 36.2113C7.75061 36.0447 6.98129 35.7392 6.26895 35.3505L6.0125 35.1977C5.92703 35.1422 5.8273 35.1005 5.75607 35.0311L5.25743 34.6701L4.80153 34.2674C4.71606 34.198 4.65906 34.1286 4.58783 34.0591L4.37413 33.837C3.83276 33.2399 3.39111 32.5596 3.04918 31.8377L2.83548 31.2823C2.82124 31.2406 2.79275 31.1851 2.7785 31.1434L2.73575 31.0046L2.66452 30.713C2.63603 30.6158 2.60753 30.5186 2.59328 30.4214L2.56479 30.1299L2.52206 29.866L2.50781 29.7966C2.50781 29.7828 2.49356 29.755 2.49356 29.7133L2.47932 29.5467L2.43657 28.9219C2.43657 28.9219 1.93794 33.6565 4.34564 36.9194L4.37413 36.9471C4.47386 37.0305 4.60208 37.086 4.71606 37.1554L5.05798 37.3498C5.99826 37.8636 7.00978 38.2384 8.06404 38.4466C8.33473 38.4884 8.59117 38.53 8.86185 38.5578L9.06131 38.5855C9.13254 38.5994 9.18953 38.5994 9.2608 38.5994L9.65969 38.6133L10.0586 38.6272C10.1868 38.6272 10.3007 38.6272 10.4147 38.6272H11.1271L76.2632 38.8215L72.445 44.0005H73.599L76.8331 41.8623H79.2265C79.3689 41.8623 79.4687 41.7512 79.4687 41.6263C79.4687 41.5013 79.3547 41.3902 79.2265 41.3902H77.5597L78.9986 40.446H80.6939C80.8364 40.446 80.9361 40.3349 80.9361 40.21C80.9361 40.0711 80.8222 39.974 80.6939 39.974H79.7252L81.2923 38.9327L89.9401 38.6133C90.1395 38.5994 90.3247 38.4884 90.4245 38.3079C90.5954 38.0301 90.4815 37.6969 90.2108 37.5719Z" fill="white"/>
</g>
<defs>
<clipPath id="clip0_1173_29015">
<rect width="145" height="44" fill="white"/>
</clipPath>
</defs>
</svg>
