<svg width="149" height="46" viewBox="0 0 149 46" fill="none" xmlns="http://www.w3.org/2000/svg">
<g clip-path="url(#clip0_504_9624)">
<mask id="mask0_504_9624" style="mask-type:luminance" maskUnits="userSpaceOnUse" x="19" y="13" width="130" height="22">
<path d="M149 13.8008H19.9299V34.0408H149V13.8008Z" fill="white"/>
</mask>
<g mask="url(#mask0_504_9624)">
<path d="M31.2274 33.1207H27.0061V17.8119H20.5981V14.2202H37.6354V17.8119H31.2274V33.1207ZM37.6871 23.6704C37.6871 17.7824 42.6677 13.9258 48.4379 13.9258C54.2385 13.9258 59.1279 17.7824 59.1279 23.6704C59.1279 29.5584 54.2081 33.4151 48.4379 33.4151C42.6677 33.4151 37.6871 29.529 37.6871 23.6704ZM48.4379 29.6467C52.1126 29.6467 54.8762 27.0855 54.8762 23.6704C54.8762 20.2554 52.1126 17.6647 48.4379 17.6647C44.7328 17.6647 41.9388 20.2259 41.9388 23.6704C41.9388 27.0855 44.7328 29.6467 48.4379 29.6467ZM61.0912 14.2202H65.3429V24.7891C65.3429 27.792 66.6185 29.7056 69.9895 29.7056C73.3605 29.7056 74.5753 27.792 74.5753 24.7891V14.2202H78.7662V24.8775C78.7662 29.1168 76.5494 33.3562 69.9895 33.3562C63.4297 33.3562 61.0912 29.1168 61.0912 24.8775V14.2202ZM97.4944 27.8215L98.6484 33.1207H94.2146L93.1213 28.0864C92.7265 26.32 91.0562 25.9079 88.991 25.9079H86.1667V33.1207H81.915V14.2496H90.7828C95.5811 14.2496 98.4662 16.0455 98.4662 19.5194C98.4662 22.3751 96.4618 24.0826 94.2753 24.6419C95.7633 25.113 97.0996 26.0845 97.4944 27.8215ZM86.1667 17.8119V22.8461H90.2969C92.6961 22.8461 94.2146 22.2867 94.2146 20.1965C94.2146 18.0768 92.5746 17.8119 90.6917 17.8119H86.1667ZM105.06 33.1207H100.808V14.2496H105.06V33.1207ZM124.126 33.1207H106.906V30.1767L118.538 17.8119H107.119V14.2496H124.338V17.4291L113.01 29.5584H124.126V33.1207ZM138.134 33.1207L136.768 28.793H129.843L128.446 33.1207H124.042L130.298 14.2496H136.312L142.567 33.1207H138.134ZM130.906 25.3191H135.705L133.306 17.7824L130.906 25.3191ZM144.148 30.9421C144.148 29.5584 145.303 28.6458 146.578 28.6458C147.854 28.6458 148.947 29.5584 148.947 30.9421C148.947 32.3258 147.854 33.2679 146.578 33.2679C145.303 33.2679 144.148 32.3552 144.148 30.9421Z" fill="white"/>
</g>
<path d="M15.4446 17.6523C15.4446 17.6523 15.0493 17.8265 14.3613 18.1604C13.6732 18.4942 12.7216 18.9878 11.6237 19.6845C11.082 20.0329 10.511 20.4394 9.94007 20.8894C9.79363 21.0055 9.64729 21.1216 9.51556 21.2377C9.36912 21.3683 9.22273 21.499 9.09096 21.6152C8.81281 21.8764 8.53465 22.1522 8.27114 22.4425C8.00763 22.7329 7.74411 23.0377 7.49523 23.357C7.24636 23.6763 7.02676 24.0102 6.79253 24.3586C6.57293 24.7069 6.38261 25.0698 6.19229 25.4472C6.01662 25.8246 5.85558 26.2021 5.72382 26.594C5.66526 26.7827 5.59206 27.0004 5.54814 27.1892C5.48958 27.3778 5.44566 27.5811 5.40175 27.7842C5.32855 28.1907 5.26998 28.5971 5.24071 29.0036C5.22607 29.41 5.22607 29.8164 5.25535 30.2084C5.28463 30.6003 5.34318 30.9923 5.43103 31.3696C5.51886 31.747 5.62134 32.1099 5.76774 32.4583C5.82629 32.6325 5.91414 32.8067 5.98734 32.9663L6.01662 33.0244L6.04589 33.0825L6.11909 33.2131C6.16302 33.3002 6.20693 33.3873 6.25085 33.4599C6.60221 34.055 7.04139 34.6066 7.48059 35.0276C7.93443 35.463 8.40289 35.7969 8.85673 36.0581C9.31056 36.3194 9.73508 36.4937 10.0865 36.6098C10.2622 36.6678 10.4232 36.7113 10.5696 36.7549C10.716 36.7839 10.8331 36.8274 10.9356 36.842C11.1405 36.8711 11.243 36.9 11.243 36.9C11.243 36.9 11.1405 36.9 10.9356 36.9C10.8331 36.9 10.7013 36.8856 10.555 36.8711C10.4085 36.8565 10.2329 36.8274 10.0426 36.7985C9.66191 36.7259 9.20808 36.5952 8.71033 36.3775C8.21258 36.1598 7.68555 35.8405 7.15852 35.4195C6.63148 34.984 6.13374 34.4615 5.69454 33.7937C5.28463 33.1551 4.93327 32.3857 4.71367 31.5729C4.49408 30.76 4.39161 29.8745 4.43552 28.989C4.45016 28.5391 4.50872 28.1036 4.58192 27.6536C4.62584 27.4359 4.66976 27.2181 4.72832 26.9859C4.78687 26.7536 4.84544 26.5649 4.91864 26.3472C5.06503 25.9263 5.24071 25.5053 5.43103 25.0988C5.63598 24.6925 5.85558 24.315 6.08982 23.9376C6.57293 23.1973 7.12924 22.5296 7.71483 21.9345C8.00763 21.6441 8.30042 21.3539 8.62249 21.107C8.78353 20.9764 8.92993 20.8603 9.07633 20.7442C9.23736 20.6281 9.38376 20.5119 9.54479 20.3958C10.1597 19.9458 10.7746 19.583 11.3601 19.2781C11.9457 18.9587 12.4874 18.712 12.9852 18.5088C13.4829 18.3055 13.9221 18.1459 14.2734 18.0153C14.6395 17.8846 14.9176 17.7975 15.1225 17.7395C15.3421 17.6959 15.4446 17.6523 15.4446 17.6523Z" fill="#FFD000"/>
<path d="M32.7928 9.02926C32.7928 9.02926 32.7195 9.02926 32.5878 9.01475C32.4561 9.00023 32.2511 8.98572 32.0023 8.9712C31.8704 8.9712 31.7387 8.95669 31.5923 8.95669C31.4459 8.95669 31.2849 8.94217 31.1092 8.94217C30.9335 8.94217 30.7579 8.94217 30.5529 8.94217C30.3626 8.95669 30.1576 8.95669 29.938 8.9712C29.5135 9.00023 29.0596 9.04378 28.5765 9.11636C28.0934 9.17442 27.5957 9.29058 27.0979 9.40669C26.5855 9.53733 26.0731 9.69695 25.5607 9.87119C25.0483 10.0599 24.5359 10.2776 24.0382 10.5244C23.5258 10.7711 23.0573 11.047 22.6035 11.3372C22.1497 11.6421 21.7104 11.9469 21.3005 12.2808C20.9053 12.6146 20.51 12.934 20.1733 13.2824C19.8219 13.6162 19.5292 13.9501 19.2364 14.2694C19.1046 14.4291 18.9728 14.5888 18.8557 14.7339C18.7386 14.879 18.6215 15.0242 18.519 15.1694C18.4165 15.3146 18.3287 15.4452 18.2408 15.5613C18.153 15.6774 18.0798 15.7935 18.0066 15.8952C17.8603 16.0984 17.7578 16.2726 17.6845 16.3742C17.6113 16.4903 17.5674 16.5484 17.5674 16.5484C17.5674 16.5484 17.5967 16.4758 17.6406 16.3597C17.6845 16.229 17.7431 16.0403 17.8603 15.8226C17.9041 15.7065 17.9627 15.5758 18.0359 15.4452C18.0945 15.3146 18.1823 15.1694 18.2555 15.0097C18.3433 14.85 18.4312 14.6903 18.5336 14.5162C18.6361 14.342 18.7532 14.1678 18.8703 13.9936C19.0021 13.8195 19.1193 13.6307 19.2656 13.442C19.412 13.2533 19.5584 13.0646 19.7341 12.8759C20.0562 12.484 20.4368 12.1066 20.8321 11.7437C21.242 11.3808 21.6958 11.0179 22.1643 10.684C22.6474 10.3647 23.1744 10.0599 23.6868 9.79861C24.2138 9.53733 24.7702 9.31956 25.3265 9.13088C25.8828 8.95669 26.4391 8.81153 26.9808 8.70992C27.5225 8.60831 28.0495 8.55025 28.5619 8.52122C28.8107 8.50671 29.0596 8.50671 29.2939 8.49219C29.5281 8.49219 29.7623 8.5067 29.9819 8.5067C30.2015 8.52122 30.4065 8.53573 30.6114 8.56477C30.8018 8.5938 30.9921 8.62283 31.1678 8.63734C31.3434 8.66637 31.5045 8.69541 31.6508 8.72444C31.7973 8.75347 31.9437 8.79702 32.0608 8.82605C32.3096 8.88411 32.4999 8.94217 32.6318 8.98572C32.7195 9.01475 32.7928 9.02926 32.7928 9.02926Z" fill="#FFD000"/>
<path d="M33.7598 8.02525C33.7598 8.02525 33.8329 7.93815 33.9647 7.76397C34.0379 7.67687 34.1257 7.57527 34.2136 7.44462C34.3014 7.31398 34.4332 7.18334 34.5796 7.03818C34.726 6.89303 34.8723 6.71884 35.0627 6.54466C35.253 6.37046 35.458 6.19628 35.6629 6.00758C35.8825 5.81888 36.1313 5.64469 36.3949 5.44147C36.6584 5.25277 36.9512 5.06406 37.2586 4.87536C37.4197 4.78827 37.5807 4.70117 37.7418 4.59957C37.9028 4.51247 38.0638 4.41085 38.2542 4.32377C38.6055 4.16409 38.9714 3.97539 39.3667 3.84475C40.1427 3.52541 40.9918 3.29316 41.8848 3.11897C42.1044 3.08994 42.3387 3.04639 42.5583 3.01736C42.6754 3.00284 42.7925 2.98833 42.9096 2.97382C43.0267 2.9593 43.1438 2.9593 43.2609 2.94478C43.7294 2.88672 44.2125 2.90124 44.681 2.88672C45.1641 2.91575 45.6472 2.93026 46.1304 3.00284C46.3646 3.03188 46.6134 3.0609 46.8477 3.11897L47.5797 3.27864C48.4727 3.52541 49.4389 3.88829 50.288 4.30925C50.7125 4.5415 51.1371 4.75923 51.5177 5.03503C51.6202 5.09309 51.7081 5.16567 51.8106 5.22373C51.913 5.2818 52.0009 5.35437 52.0887 5.42695C52.279 5.57211 52.4547 5.70275 52.6304 5.8479C53.3331 6.42853 53.9626 7.03818 54.4897 7.67687C54.7678 7.9817 55.002 8.31557 55.2217 8.63491C55.3388 8.79457 55.4265 8.95425 55.529 9.11392C55.6315 9.27357 55.7193 9.43328 55.8218 9.57846C55.9975 9.89779 56.1585 10.188 56.305 10.4929C56.4367 10.7977 56.5684 11.0735 56.6709 11.3348C56.7734 11.6106 56.8613 11.8574 56.9345 12.1041C57.0077 12.3363 57.0662 12.5686 57.1102 12.7719C57.1687 12.9751 57.2127 13.1493 57.2273 13.309C57.2565 13.4686 57.2712 13.5992 57.3004 13.7153C57.3444 13.9331 57.359 14.0492 57.359 14.0492C57.359 14.0492 57.3298 13.9331 57.2566 13.7299C57.1833 13.5266 57.1102 13.2073 56.9491 12.8299C56.8759 12.6412 56.8027 12.4235 56.7003 12.2057C56.5978 11.988 56.4807 11.7413 56.3635 11.48C56.2317 11.2332 56.0854 10.9719 55.9243 10.6962C55.7633 10.4203 55.573 10.1445 55.3973 9.85418C55.2948 9.7091 55.1923 9.57846 55.0752 9.43328C54.9727 9.28811 54.8702 9.12843 54.7385 8.99779C54.4897 8.70748 54.27 8.40265 53.9773 8.12685C53.8454 7.9817 53.6991 7.83655 53.5674 7.69139C53.4209 7.56075 53.2599 7.41559 53.1135 7.27044C52.9671 7.12528 52.806 6.99464 52.6304 6.864C52.4693 6.73336 52.3083 6.5882 52.1326 6.45756C51.4445 5.935 50.6833 5.48502 49.8781 5.06406C49.0583 4.67214 48.2385 4.36731 47.3015 4.12055L46.6428 3.97539C46.4232 3.91733 46.1889 3.90281 45.9693 3.85927C45.5155 3.78669 45.0617 3.77217 44.6078 3.72863C43.7002 3.71411 42.8071 3.74314 41.958 3.88829C41.1089 4.03345 40.2891 4.20764 39.5278 4.46893C39.1472 4.58505 38.7958 4.74471 38.4444 4.87536C38.2688 4.93342 38.1077 5.02051 37.9467 5.10761C37.7857 5.18019 37.6247 5.26728 37.4636 5.33986C37.1561 5.51405 36.8633 5.67372 36.5852 5.83339C36.3217 6.00758 36.0582 6.16725 35.8239 6.32692C35.5897 6.5011 35.3847 6.66078 35.1798 6.80594C34.9894 6.95109 34.8138 7.11076 34.6527 7.2414C34.3307 7.50269 34.1111 7.73493 33.95 7.88009C33.8476 7.93815 33.7598 8.02525 33.7598 8.02525Z" fill="#FFD000"/>
<path d="M68.9679 37.6666L66.1425 34.7344H64.7224L64.781 34.8795L66.0253 34.8941L68.6898 37.6666H68.9679Z" fill="#FFD000"/>
<path d="M84.2078 37.3614L82.6706 36.6937H83.4172C83.5637 36.6937 83.6662 36.5775 83.6662 36.4469C83.6662 36.3018 83.5491 36.2002 83.4172 36.2002H81.5141L79.7866 35.4454H81.4116C81.5581 35.4454 81.6605 35.3292 81.6605 35.1986C81.6605 35.0679 81.5433 34.9518 81.4116 34.9518H78.6447L76.8441 34.168H74.0625L78.6154 37.4195L84.2078 37.3614Z" fill="#FFD000"/>
<path d="M2.51803 30.2361L2.53268 29.5683C2.54732 29.3506 2.56196 29.1328 2.5766 28.9006C2.59123 28.6828 2.63516 28.4652 2.6498 28.2474C2.78155 27.3764 2.98651 26.52 3.27931 25.6781C3.8649 24.0089 4.80184 22.4702 5.98767 21.1492C7.17348 19.8283 8.62282 18.7397 10.2332 17.9704C11.8436 17.1865 13.6004 16.751 15.3864 16.6349L16.133 16.5914L16.4405 15.8946L16.6747 15.3576C16.7625 15.1833 16.8211 14.9946 16.9236 14.8205C17.1138 14.4721 17.2749 14.1092 17.5091 13.7899L17.8312 13.2818C17.9483 13.1221 18.0654 12.9624 18.1826 12.8028L18.3582 12.5705L18.4461 12.4544L18.5486 12.3383L18.9292 11.8883C18.9877 11.8157 19.061 11.7286 19.1195 11.6706L19.3244 11.4673L19.7491 11.0463C19.8954 10.9157 20.0418 10.7851 20.1883 10.6544C20.3346 10.5238 20.481 10.3787 20.6421 10.2625L21.1105 9.89966L21.3448 9.72551L21.5936 9.56579L22.0914 9.24646C22.2524 9.14484 22.4427 9.05775 22.6184 8.95614C22.7941 8.86905 22.9698 8.75292 23.1455 8.68034L23.6871 8.43358L23.9653 8.30294C24.0532 8.25939 24.1556 8.23036 24.2434 8.20132L24.7998 7.9981C24.9901 7.92553 25.1803 7.88198 25.3707 7.82392L25.9417 7.66425L26.5272 7.54812L26.82 7.49006L26.9664 7.46103L27.1129 7.44652L27.6838 7.37394L27.9766 7.33039L28.2986 7.31588L28.9428 7.28684L29.1039 7.27233H29.1185H29.1331H29.2063H29.5138C30.3189 7.28684 31.1241 7.35942 31.9147 7.50458L32.5002 7.6207L32.8663 7.1562L33.1884 6.74976L33.3493 6.54655L33.525 6.34333L33.8764 5.95141L34.2424 5.574L34.4327 5.38529L34.623 5.21111L35.0183 4.86273L35.4282 4.52888L35.6332 4.3692L35.8527 4.20953L36.2773 3.9047L36.7165 3.61439L36.9362 3.46924L37.1704 3.3386L37.6242 3.07731L38.0927 2.84506L38.3269 2.72894L38.5757 2.62733L39.0589 2.42411L39.5567 2.24992L39.8055 2.16283L40.0543 2.09025L40.5667 1.94509C40.7425 1.90155 40.9182 1.858 41.0791 1.82897C41.2549 1.78543 41.4305 1.74187 41.6062 1.71285L42.1332 1.62575C42.3089 1.59672 42.4846 1.58221 42.6456 1.56769L42.9092 1.53865C42.9969 1.52414 43.0848 1.52414 43.1726 1.50963L43.7289 1.48059H43.8754H43.9046H43.9193H43.9339H43.9925H44.2559C44.4317 1.48059 44.6074 1.48059 44.7977 1.49511L45.3394 1.52414L45.881 1.58221C46.5984 1.66929 47.301 1.79993 48.0037 1.97413C48.6919 2.16283 49.3799 2.39508 50.0387 2.68539C50.6975 2.96119 51.3416 3.30956 51.9565 3.70148C52.5714 4.0934 53.1569 4.51436 53.7133 4.99337C54.2696 5.47239 54.782 5.98043 55.2651 6.53203C55.7482 7.08362 56.1727 7.67876 56.568 8.28842C56.773 8.59325 56.9487 8.91259 57.1243 9.23193C57.2854 9.56579 57.461 9.88513 57.6075 10.219C57.9003 10.8867 58.1637 11.5834 58.3541 12.2947C58.5444 13.006 58.6908 13.7317 58.7786 14.4721C58.7494 13.7317 58.6761 12.9915 58.5444 12.2512C58.4127 11.5109 58.2077 10.7851 57.9588 10.0738C57.7099 9.36257 57.4025 8.66583 57.0365 8.01262C56.6705 7.3449 56.2606 6.70622 55.8068 6.09656C55.3383 5.48691 54.8405 4.9208 54.2842 4.38372C53.7279 3.84664 53.1277 3.36762 52.5128 2.91764C51.8833 2.46765 51.2245 2.06121 50.5218 1.72736C49.8338 1.37899 49.1018 1.08867 48.3698 0.841906C47.6232 0.609656 46.8618 0.420953 46.086 0.304828L45.5003 0.217735L44.9148 0.159672C44.7245 0.130641 44.5195 0.130641 44.3292 0.130641L44.0657 0H43.9925H43.9046H43.7583H43.2019C43.1141 0 43.0117 0 42.9092 0.0145156L42.6017 0.0435468C42.3968 0.0580625 42.1918 0.0580625 42.0015 0.0870937L41.4158 0.159672C41.2256 0.174187 41.0206 0.217735 40.8303 0.261281C40.64 0.304828 40.435 0.33386 40.2447 0.377406L39.6738 0.522563L39.381 0.595141L39.1028 0.682234L38.5319 0.856422L37.9755 1.05964L37.712 1.16125L37.4338 1.27737L36.8922 1.52414L36.3651 1.79993L36.1017 1.93057L35.8527 2.07573L35.3403 2.38056L34.8427 2.71442L34.5937 2.87409L34.3595 3.04828L33.891 3.41117L33.4372 3.78858L33.2176 3.97728L32.998 4.1805L32.5735 4.58694L32.1635 5.02241L31.9586 5.24014L31.7829 5.45787C31.0656 5.32723 30.3482 5.24014 29.6163 5.21111L29.2648 5.19659H29.177H29.1331H29.0599H28.8989L28.2548 5.21111L27.9327 5.22563L27.5813 5.25465L26.8639 5.32723L26.6883 5.34175L26.5126 5.37078L26.1759 5.42885L25.4878 5.54497L24.8144 5.71915C24.5948 5.77721 24.3606 5.82077 24.1409 5.90785L23.4822 6.12559C23.3797 6.16914 23.2626 6.19817 23.1601 6.24171L22.838 6.37236L22.1939 6.64815C21.9889 6.73525 21.784 6.85137 21.579 6.95298C21.374 7.06911 21.1691 7.1562 20.9641 7.28684L20.3786 7.64974L20.0858 7.83844L19.8076 8.04166L19.2513 8.44809C19.061 8.57873 18.8999 8.73841 18.7097 8.88356C18.5339 9.02872 18.3582 9.17387 18.1826 9.33358L17.6848 9.81254L17.4359 10.0593C17.3482 10.1464 17.2749 10.2335 17.2017 10.3207L16.7479 10.8432L16.6308 10.9739L16.5283 11.1045L16.3233 11.3802C16.1916 11.5689 16.0452 11.7432 15.8988 11.9319L15.5181 12.5125C15.2547 12.8898 15.0497 13.3108 14.8154 13.7173C14.7129 13.8914 14.6252 14.0947 14.5373 14.2834C12.678 14.4431 10.8627 14.9511 9.17913 15.7349C7.27596 16.6349 5.54847 17.8978 4.12841 19.4509C2.70836 21.0041 1.61038 22.8331 0.907665 24.8072C0.556311 25.7942 0.307434 26.8249 0.161038 27.8555C0.131758 28.1168 0.0878385 28.378 0.0731988 28.6393C0.058559 28.9006 0.0292795 29.1619 0.0146398 29.4232C0.0146398 29.6845 0 29.9457 0 30.207V30.3231V30.3667V30.4538L0.0146398 30.628L0.0292795 30.9908L0.0439193 31.165C0.0439193 31.2231 0.058559 31.3102 0.0731988 31.3682L0.146398 31.8038L0.219597 32.2392C0.248876 32.3844 0.292795 32.5005 0.322074 32.6457L0.424553 33.0376L0.483112 33.2408C0.497752 33.3134 0.527031 33.3714 0.556311 33.4295L0.849105 34.1988C1.30293 35.2004 1.91781 36.1294 2.6498 36.9422L2.92795 37.2471C3.01579 37.3487 3.11827 37.4504 3.22074 37.5374C3.4257 37.7261 3.63066 37.9003 3.83562 38.0745L4.46512 38.539C2.00564 35.1859 2.51803 30.2361 2.51803 30.2361Z" fill="#FFD000"/>
<path d="M92.699 39.2776L89.8442 37.8551C89.4197 37.6373 88.9365 37.5358 88.4534 37.5358L69.2022 37.6664L66.2449 34.6036H64.5613L65.9668 38.7987L11.463 38.0148H10.731C10.6139 38.0148 10.4821 38.0148 10.365 38.0148L10.0429 38.0003C9.61831 38.0003 9.20843 37.9132 8.78388 37.8551C7.96406 37.6809 7.17351 37.3616 6.44152 36.9552L6.178 36.7954C6.09017 36.7374 5.98769 36.6939 5.91449 36.6213L5.4021 36.2439L4.93363 35.8229C4.84579 35.7503 4.78723 35.6777 4.71403 35.6052L4.49444 35.3729C3.93813 34.7487 3.48429 34.0375 3.13294 33.2827L2.91334 32.7021C2.8987 32.6585 2.86943 32.6004 2.85478 32.5569L2.81086 32.4117L2.73766 32.1069C2.70838 32.0053 2.6791 31.9037 2.66446 31.8021L2.63518 31.4973L2.59127 31.2214L2.57663 31.1489C2.57663 31.1344 2.56198 31.1053 2.56198 31.0618L2.54735 30.8876L2.50343 30.2344C2.50343 30.2344 1.99104 35.1843 4.46516 38.5954L4.49444 38.6244C4.59691 38.7115 4.72867 38.7696 4.84579 38.8422L5.19715 39.0454C6.16337 39.5825 7.20279 39.9744 8.28613 40.1921C8.56429 40.2357 8.8278 40.2792 9.10596 40.3083L9.31091 40.3373C9.38411 40.3518 9.44267 40.3518 9.51591 40.3518L9.9258 40.3663L10.3357 40.3809C10.4674 40.3809 10.5845 40.3809 10.7016 40.3809H11.4336L78.3666 40.584L74.4432 45.9984H75.629L78.9523 43.763H81.4117C81.5581 43.763 81.6606 43.6469 81.6606 43.5162C81.6606 43.3856 81.5434 43.2694 81.4117 43.2694H79.6989L81.1775 42.2823H82.9196C83.066 42.2823 83.1685 42.1662 83.1685 42.0356C83.1685 41.8904 83.0514 41.7888 82.9196 41.7888H81.9241L83.5344 40.7002L92.4208 40.3663C92.6257 40.3518 92.8161 40.2357 92.9186 40.047C93.0943 39.7567 92.9771 39.4082 92.699 39.2776Z" fill="#FFD000"/>
</g>
<defs>
<clipPath id="clip0_504_9624">
<rect width="149" height="46" fill="white"/>
</clipPath>
</defs>
</svg>
