<svg width="94" height="47" viewBox="0 0 94 47" fill="none" xmlns="http://www.w3.org/2000/svg">
<g clip-path="url(#clip0_825_9953)">
<path d="M15.6103 18.0938C15.6103 18.0938 15.2108 18.2698 14.5154 18.6072C13.8199 18.9447 12.8581 19.4435 11.7484 20.1478C11.2008 20.4999 10.6237 20.9107 10.0467 21.3655C9.89866 21.4829 9.75074 21.6002 9.6176 21.7176C9.46958 21.8496 9.32162 21.9816 9.18844 22.0991C8.90729 22.3632 8.62616 22.6419 8.3598 22.9353C8.09346 23.2288 7.82711 23.5369 7.57557 23.8597C7.32402 24.1824 7.10206 24.5198 6.86531 24.872C6.64335 25.2241 6.45099 25.5909 6.25864 25.9723C6.08107 26.3538 5.9183 26.7353 5.78512 27.1314C5.72594 27.3221 5.65195 27.5421 5.60756 27.7329C5.54838 27.9237 5.50399 28.1291 5.4596 28.3344C5.38561 28.7452 5.32642 29.1561 5.29682 29.5669C5.28204 29.9777 5.28204 30.3884 5.31163 30.7846C5.34122 31.1808 5.40041 31.5769 5.48919 31.9583C5.57797 32.3398 5.68155 32.7065 5.82952 33.0587C5.8887 33.2348 5.97749 33.4108 6.05148 33.5721L6.08107 33.6309L6.11066 33.6896L6.18465 33.8217C6.22905 33.9096 6.27343 33.9977 6.31782 34.0711C6.67295 34.6726 7.11686 35.2301 7.56077 35.6555C8.01948 36.0957 8.49297 36.4331 8.95168 36.6972C9.41039 36.9613 9.83947 37.1374 10.1947 37.2548C10.3722 37.3134 10.535 37.3574 10.6829 37.4015C10.8309 37.4308 10.9493 37.4747 11.0529 37.4895C11.26 37.5189 11.3636 37.5481 11.3636 37.5481C11.3636 37.5481 11.26 37.5481 11.0529 37.5481C10.9493 37.5481 10.8161 37.5336 10.6682 37.5189C10.5201 37.5041 10.3426 37.4747 10.1503 37.4455C9.76551 37.3721 9.30681 37.2401 8.80372 37.02C8.30063 36.8 7.76792 36.4772 7.23523 36.0517C6.70254 35.6116 6.19945 35.0834 5.75553 34.4085C5.34122 33.763 4.98609 32.9853 4.76413 32.1637C4.54219 31.3421 4.4386 30.4472 4.48299 29.5521C4.49779 29.0974 4.55698 28.6572 4.63096 28.2024C4.67536 27.9823 4.71975 27.7623 4.77894 27.5275C4.83812 27.2927 4.89731 27.102 4.9713 26.8819C5.11926 26.4565 5.29682 26.031 5.48919 25.6202C5.69635 25.2094 5.9183 24.8279 6.15506 24.4464C6.64335 23.6982 7.20564 23.0234 7.79752 22.4218C8.09346 22.1284 8.3894 21.8351 8.71493 21.5855C8.8777 21.4535 9.02568 21.3361 9.17364 21.2188C9.33641 21.1014 9.48438 20.9839 9.64714 20.8666C10.2686 20.4118 10.8901 20.0451 11.482 19.7369C12.0739 19.4141 12.6213 19.1647 13.1244 18.9593C13.6275 18.7539 14.0715 18.5926 14.4265 18.4606C14.7966 18.3285 15.0777 18.2404 15.2848 18.1818C15.5068 18.1378 15.6103 18.0938 15.6103 18.0938Z" fill="#2ECC71"/>
<path d="M33.1434 9.37879C33.1434 9.37879 33.0692 9.37879 32.9361 9.36411C32.803 9.34944 32.5958 9.33478 32.3443 9.3201C32.2111 9.3201 32.078 9.30543 31.9299 9.30543C31.782 9.30543 31.6192 9.29076 31.4417 9.29076C31.2641 9.29076 31.0866 9.29076 30.8794 9.29076C30.687 9.30543 30.4799 9.30543 30.2579 9.3201C29.8288 9.34944 29.3701 9.39346 28.8818 9.46682C28.3935 9.5255 27.8904 9.64291 27.3873 9.76027C26.8694 9.89231 26.3514 10.0536 25.8336 10.2298C25.3156 10.4205 24.7978 10.6406 24.2947 10.89C23.7768 11.1394 23.3033 11.4182 22.8446 11.7115C22.3859 12.0197 21.942 12.3277 21.5276 12.6652C21.1281 13.0026 20.7286 13.3254 20.3882 13.6776C20.0331 14.015 19.7373 14.3525 19.4413 14.6753C19.3081 14.8366 19.175 14.998 19.0565 15.1448C18.9382 15.2914 18.8198 15.4381 18.7162 15.5848C18.6126 15.7316 18.5239 15.8636 18.435 15.9809C18.3464 16.0983 18.2722 16.2157 18.1983 16.3185C18.0504 16.5239 17.9468 16.6999 17.8727 16.8026C17.7988 16.92 17.7544 16.9786 17.7544 16.9786C17.7544 16.9786 17.784 16.9053 17.8284 16.7879C17.8727 16.6559 17.932 16.4651 18.0504 16.2451C18.0947 16.1277 18.1539 15.9957 18.2279 15.8636C18.2871 15.7316 18.3759 15.5848 18.4499 15.4234C18.5387 15.262 18.6275 15.1006 18.731 14.9246C18.8345 14.7486 18.953 14.5725 19.0714 14.3965C19.2046 14.2205 19.3229 14.0296 19.4709 13.8389C19.6189 13.6482 19.7667 13.4575 19.9444 13.2668C20.2699 12.8706 20.6546 12.4892 21.0541 12.1223C21.4685 11.7556 21.9271 11.3887 22.4007 11.0513C22.889 10.7286 23.4216 10.4205 23.9396 10.1564C24.4722 9.89231 25.0345 9.67221 25.5969 9.48149C26.1592 9.30542 26.7215 9.15871 27.2689 9.05602C27.8165 8.95331 28.3491 8.89462 28.867 8.86529C29.1185 8.85061 29.3701 8.85061 29.6068 8.83594C29.8435 8.83594 30.0803 8.85061 30.3022 8.85061C30.5242 8.86529 30.7314 8.87996 30.9385 8.9093C31.1309 8.93864 31.3233 8.96799 31.5008 8.98266C31.6784 9.012 31.8412 9.04134 31.9891 9.07069C32.1371 9.10002 32.2851 9.14404 32.4034 9.17339C32.655 9.23207 32.8473 9.29076 32.9806 9.33478C33.0692 9.36411 33.1434 9.37879 33.1434 9.37879Z" fill="#2ECC71"/>
<path d="M34.1213 8.3656C34.1213 8.3656 34.1953 8.27757 34.3284 8.10151C34.4025 8.01348 34.4911 7.91079 34.58 7.77873C34.6688 7.64669 34.802 7.51464 34.9499 7.36793C35.0979 7.22122 35.2458 7.04516 35.4382 6.86911C35.6306 6.69304 35.8378 6.51698 36.0448 6.32626C36.2668 6.13554 36.5183 5.95947 36.7847 5.75407C37.0511 5.56334 37.347 5.37261 37.6578 5.18188C37.8205 5.09385 37.9832 5.00582 38.146 4.90312C38.3088 4.81509 38.4715 4.71239 38.664 4.62436C39.0191 4.46298 39.389 4.27224 39.7885 4.1402C40.5727 3.81743 41.431 3.58268 42.3336 3.40663C42.5556 3.37728 42.7923 3.33327 43.0143 3.30392C43.1326 3.28925 43.251 3.27458 43.3694 3.25991C43.4878 3.24524 43.6062 3.24524 43.7245 3.23056C44.198 3.17187 44.6863 3.18655 45.1598 3.17188C45.6482 3.20123 46.1365 3.21588 46.6247 3.28925C46.8615 3.31859 47.113 3.34793 47.3498 3.40663L48.0896 3.56801C48.9922 3.81743 49.9689 4.18421 50.8271 4.60969C51.2562 4.84443 51.6853 5.0645 52.07 5.34326C52.1736 5.40195 52.2624 5.4753 52.366 5.53399C52.4695 5.59268 52.5584 5.66604 52.647 5.73939C52.8395 5.8861 53.017 6.01815 53.1946 6.16487C53.9048 6.75174 54.541 7.36793 55.0738 8.01348C55.355 8.32158 55.5917 8.65903 55.8137 8.9818C55.932 9.14318 56.0208 9.30457 56.1244 9.46597C56.228 9.62733 56.3167 9.78875 56.4203 9.93549C56.5979 10.2582 56.7606 10.5516 56.9086 10.8598C57.0419 11.1679 57.1749 11.4467 57.2786 11.7107C57.3822 11.9895 57.4709 12.2389 57.545 12.4882C57.6189 12.723 57.6781 12.9578 57.7225 13.1632C57.7817 13.3686 57.8261 13.5447 57.8409 13.7061C57.8704 13.8674 57.8853 13.9994 57.9148 14.1168C57.9592 14.3368 57.9739 14.4542 57.9739 14.4542C57.9739 14.4542 57.9445 14.3368 57.8704 14.1314C57.7964 13.9261 57.7225 13.6033 57.5597 13.2219C57.4858 13.0312 57.4117 12.8111 57.3081 12.5909C57.2045 12.371 57.0862 12.1215 56.9678 11.8575C56.8346 11.608 56.6867 11.3439 56.5239 11.0652C56.3611 10.7864 56.1688 10.5076 55.9913 10.2142C55.8877 10.0675 55.7841 9.93548 55.6657 9.78875C55.5621 9.64202 55.4585 9.48063 55.3254 9.34858C55.0738 9.05516 54.8519 8.74706 54.556 8.46829C54.4227 8.32158 54.2748 8.17488 54.1416 8.02815C53.9936 7.89611 53.8309 7.7494 53.683 7.60268C53.5349 7.45596 53.3721 7.32392 53.1946 7.19187C53.0318 7.05983 52.869 6.91312 52.6915 6.78107C51.996 6.2529 51.2266 5.79809 50.4128 5.37261C49.5841 4.97648 48.7555 4.66838 47.8085 4.41896L47.1427 4.27224C46.9207 4.21356 46.6839 4.19889 46.4619 4.15487C46.0033 4.08152 45.5446 4.06684 45.0859 4.02283C44.1684 4.00815 43.2658 4.0375 42.4075 4.18421C41.5494 4.33093 40.7208 4.50698 39.9513 4.77108C39.5666 4.88844 39.2114 5.04982 38.8563 5.18188C38.6787 5.24057 38.5159 5.32859 38.3532 5.41662C38.1905 5.48998 38.0277 5.57801 37.8649 5.65137C37.5542 5.82743 37.2582 5.98881 36.977 6.15019C36.7107 6.32626 36.4444 6.48764 36.2076 6.64903C35.9709 6.82508 35.7637 6.98647 35.5567 7.13318C35.3642 7.27991 35.1866 7.44129 35.0238 7.57333C34.6984 7.83743 34.4764 8.07217 34.3136 8.21888C34.21 8.27757 34.1213 8.3656 34.1213 8.3656Z" fill="#2ECC71"/>
<path d="M69.7087 38.3271L66.853 35.3633H65.4177L65.4769 35.5101L66.7347 35.5247L69.4277 38.3271H69.7087Z" fill="#2ECC71"/>
<path d="M85.1126 38.0167L83.559 37.3419H84.3136C84.4616 37.3419 84.5652 37.2244 84.5652 37.0924C84.5652 36.9458 84.4468 36.8431 84.3136 36.8431H82.39L80.6439 36.0802H82.2864C82.4345 36.0802 82.538 35.9627 82.538 35.8306C82.538 35.6986 82.4195 35.5812 82.2864 35.5812H79.4898L77.6698 34.7891H74.8584L79.4602 38.0755L85.1126 38.0167Z" fill="#2ECC71"/>
<path d="M2.54508 30.8148L2.55988 30.1398C2.57468 29.9197 2.58948 29.6996 2.60427 29.4649C2.61906 29.2449 2.66346 29.0248 2.67826 28.8047C2.81143 27.9244 3.01859 27.0587 3.31453 26.2078C3.9064 24.5206 4.85341 22.9654 6.05198 21.6303C7.25052 20.2952 8.71543 19.1949 10.3431 18.4172C11.9708 17.6251 13.7464 17.1848 15.5517 17.0675L16.3062 17.0235L16.6171 16.3192L16.8538 15.7764C16.9425 15.6003 17.0017 15.4096 17.1053 15.2335C17.2976 14.8814 17.4604 14.5146 17.6972 14.1919L18.0227 13.6784C18.1411 13.517 18.2595 13.3556 18.3779 13.1943L18.5554 12.9595L18.6443 12.8421L18.7479 12.7247L19.1325 12.27C19.1917 12.1966 19.2657 12.1084 19.3249 12.0498L19.532 11.8444L19.9611 11.4189C20.1091 11.2868 20.2571 11.1548 20.405 11.0227C20.553 10.8907 20.701 10.7441 20.8638 10.6266L21.3373 10.2599L21.5741 10.0839L21.8255 9.92244L22.3286 9.59967C22.4914 9.49697 22.6838 9.40894 22.8613 9.30623C23.0389 9.21821 23.2165 9.10083 23.394 9.02748L23.9415 8.77806L24.2226 8.64602C24.3115 8.60201 24.415 8.57266 24.5038 8.54332L25.0662 8.33792C25.2584 8.26456 25.4508 8.22054 25.6432 8.16186L26.2202 8.00047L26.8121 7.88309L27.1081 7.82442L27.256 7.79506L27.4041 7.7804L27.9811 7.70705L28.2771 7.66303L28.6026 7.64836L29.2537 7.61901L29.4164 7.60434H29.4312H29.446H29.52H29.8308C30.6445 7.61901 31.4584 7.69237 32.2575 7.83909L32.8493 7.95646L33.2193 7.48697L33.5449 7.07617L33.7075 6.87077L33.8851 6.66537L34.2402 6.26923L34.6102 5.88777L34.8025 5.69704L34.9949 5.52098L35.3944 5.16887L35.8088 4.83143L36.0159 4.67003L36.2377 4.50865L36.6669 4.20055L37.1109 3.90711L37.3328 3.7604L37.5696 3.62837L38.0283 3.36427L38.5018 3.12952L38.7386 3.01215L38.99 2.90945L39.4784 2.70405L39.9815 2.528L40.2331 2.43996L40.4845 2.36661L41.0024 2.21989C41.1801 2.17587 41.3576 2.13185 41.5203 2.10252C41.698 2.05851 41.8755 2.01449 42.053 1.98515L42.5857 1.89712C42.7633 1.86777 42.9408 1.85311 43.1036 1.83843L43.37 1.80908C43.4588 1.79441 43.5475 1.79441 43.6363 1.77975L44.1986 1.75041H44.3466H44.3761H44.3911H44.4058H44.465H44.7313C44.9089 1.75041 45.0865 1.75041 45.2788 1.76507L45.8264 1.79441L46.3737 1.85311C47.0988 1.94113 47.809 2.07317 48.5193 2.24924C49.2149 2.43996 49.9103 2.67471 50.5761 2.96813C51.242 3.2469 51.893 3.59901 52.5145 3.99515C53.1361 4.39127 53.7278 4.81675 54.2901 5.30091C54.8525 5.78507 55.3704 6.29857 55.8586 6.85609C56.347 7.41361 56.776 8.01514 57.1756 8.63134C57.3827 8.93945 57.5603 9.26222 57.7379 9.58499C57.9007 9.92245 58.0782 10.2452 58.2262 10.5827C58.5222 11.2575 58.7884 11.9618 58.9808 12.6807C59.1732 13.3997 59.3212 14.1331 59.4099 14.8814C59.3803 14.1331 59.3063 13.3849 59.1732 12.6367C59.04 11.8884 58.8328 11.1548 58.5813 10.4359C58.3297 9.71702 58.019 9.01281 57.6491 8.35258C57.2791 7.67769 56.8649 7.03216 56.4062 6.41595C55.9327 5.79974 55.4296 5.22755 54.8673 4.68471C54.305 4.14186 53.6984 3.6577 53.0768 3.20289C52.4406 2.74807 51.7747 2.33725 51.0644 1.99982C50.369 1.6477 49.6291 1.35427 48.8893 1.10485C48.1346 0.87011 47.3651 0.67938 46.581 0.562008L45.9891 0.47398L45.3972 0.415293C45.2048 0.38595 44.9977 0.38595 44.8053 0.38595L44.5389 0.253906H44.465H44.3761H44.2283H43.666C43.5771 0.253906 43.4736 0.253906 43.37 0.268578L43.0593 0.297921C42.8521 0.312592 42.6449 0.312592 42.4526 0.341935L41.8607 0.415293C41.6683 0.429964 41.4612 0.473979 41.2688 0.517993C41.0765 0.562008 40.8693 0.591351 40.677 0.635366L40.0999 0.782082L39.804 0.855439L39.5228 0.943468L38.9457 1.11953L38.3834 1.32493L38.117 1.42763L37.8358 1.545L37.2884 1.79441L36.7557 2.07317L36.4894 2.20522L36.2377 2.35193L35.7199 2.66004L35.2169 2.99749L34.9652 3.15887L34.7285 3.33493L34.2551 3.70171L33.7963 4.08318L33.5743 4.2739L33.3524 4.4793L32.9233 4.89011L32.5089 5.33026L32.3018 5.55032L32.1243 5.7704C31.3992 5.63835 30.6741 5.55032 29.9344 5.52098L29.5791 5.50631H29.4905H29.446H29.372H29.2092L28.5583 5.52098L28.2327 5.53566L27.8775 5.565L27.1524 5.63835L26.9749 5.65303L26.7974 5.68237L26.457 5.74106L25.7616 5.85843L25.0809 6.03449C24.8589 6.09317 24.6222 6.13719 24.4003 6.22521L23.7345 6.44529C23.6308 6.48931 23.5125 6.51865 23.4089 6.56266L23.0833 6.69471L22.4322 6.97346C22.225 7.06149 22.018 7.17886 21.8108 7.28157C21.6035 7.39894 21.3964 7.48697 21.1893 7.61901L20.5974 7.9858L20.3015 8.17653L20.0204 8.38193L19.458 8.79274C19.2657 8.92477 19.1029 9.08617 18.9106 9.23288C18.7329 9.3796 18.5554 9.52631 18.3779 9.68773L17.8747 10.1718L17.6232 10.4212C17.5345 10.5093 17.4604 10.5973 17.3865 10.6854L16.9278 11.2136L16.8094 11.3457L16.7058 11.4777L16.4986 11.7564C16.3655 11.947 16.2176 12.1232 16.0695 12.3139L15.6848 12.9007C15.4185 13.2822 15.2113 13.7077 14.9745 14.1186C14.871 14.2946 14.7822 14.5 14.6934 14.6907C12.8141 14.8521 10.9793 15.3655 9.27771 16.1578C7.3541 17.0675 5.60806 18.344 4.17276 19.9138C2.73744 21.4836 1.62767 23.3323 0.917414 25.3275C0.562286 26.3252 0.310736 27.3669 0.162767 28.4086C0.133172 28.6726 0.0887819 28.9368 0.0739849 29.2009C0.0591879 29.4649 0.029594 29.729 0.014797 29.9931C0.014797 30.2572 0 30.5212 0 30.7854V30.9027V30.9468V31.0347L0.014797 31.2109L0.029594 31.5776L0.0443911 31.7536C0.0443911 31.8125 0.0591879 31.9004 0.0739849 31.959L0.14797 32.3992L0.221955 32.8394C0.251548 32.9861 0.29594 33.1035 0.325534 33.2502L0.429113 33.6463L0.488301 33.8517C0.503098 33.9251 0.532692 33.9837 0.562286 34.0425L0.858225 34.82C1.31693 35.8323 1.93841 36.7714 2.67826 37.5929L2.9594 37.9011C3.04817 38.0037 3.15176 38.1065 3.25534 38.1944C3.46249 38.3852 3.66965 38.5613 3.87682 38.7374L4.51308 39.2068C2.02718 35.8177 2.54508 30.8148 2.54508 30.8148Z" fill="#2ECC71"/>
<path d="M93.6936 39.9528L90.8082 38.5151C90.3791 38.2949 89.8907 38.1922 89.4024 38.1922L69.9444 38.3243L66.9554 35.2287H65.2537L66.6743 39.4687L11.5851 38.6765H10.8452C10.7269 38.6765 10.5937 38.6765 10.4753 38.6765L10.1498 38.6618C9.72059 38.6618 9.30631 38.5737 8.87719 38.5151C8.04857 38.339 7.24953 38.0162 6.50969 37.6054L6.24334 37.444C6.15456 37.3853 6.05098 37.3413 5.97699 37.2679L5.4591 36.8865L4.98559 36.461C4.89682 36.3877 4.83762 36.3143 4.76364 36.2409L4.54169 36.0062C3.9794 35.3753 3.52069 34.6564 3.16556 33.8936L2.9436 33.3067C2.92881 33.2626 2.89922 33.2039 2.88442 33.1599L2.84002 33.0132L2.76604 32.7051C2.73645 32.6023 2.70685 32.4997 2.69206 32.3969L2.66246 32.0889L2.61808 31.8102L2.60328 31.7368C2.60328 31.7222 2.58848 31.6928 2.58848 31.6488L2.57368 31.4726L2.52929 30.8125C2.52929 30.8125 2.0114 35.8155 4.51209 39.2633L4.54169 39.2926C4.64526 39.3807 4.77843 39.4393 4.89682 39.5127L5.25194 39.7181C6.22854 40.261 7.27913 40.6571 8.37411 40.8771C8.65525 40.9212 8.92159 40.9651 9.20273 40.9945L9.4099 41.0239C9.48388 41.0385 9.54307 41.0385 9.61709 41.0385L10.0314 41.0533L10.4457 41.0679C10.5788 41.0679 10.6972 41.0679 10.8155 41.0679H11.5555L79.2073 41.2732L75.2416 46.7458H76.4402L79.7993 44.4864H82.2851C82.433 44.4864 82.5366 44.369 82.5366 44.237C82.5366 44.105 82.4182 43.9875 82.2851 43.9875H80.5538L82.0483 42.9898H83.8091C83.9572 42.9898 84.0608 42.8725 84.0608 42.7405C84.0608 42.5937 83.9424 42.491 83.8091 42.491H82.803L84.4306 41.3907L93.4125 41.0533C93.6195 41.0385 93.812 40.9212 93.9156 40.7305C94.0931 40.437 93.9748 40.0849 93.6936 39.9528Z" fill="#2ECC71"/>
<path d="M23.5512 18.8005H20.603V16.2368H29.3194V18.8005H26.3712V34.1823H23.5512V18.8005ZM34.6607 34.4387C33.2764 34.4387 32.2167 34.0456 31.4818 33.2594C30.7469 32.4732 30.3795 31.3623 30.3795 29.9267V20.4925C30.3795 19.0568 30.7469 17.9459 31.4818 17.1597C32.2167 16.3736 33.2764 15.9805 34.6607 15.9805C36.0451 15.9805 37.1047 16.3736 37.8396 17.1597C38.5745 17.9459 38.942 19.0568 38.942 20.4925V29.9267C38.942 31.3623 38.5745 32.4732 37.8396 33.2594C37.1047 34.0456 36.0451 34.4387 34.6607 34.4387ZM34.6607 31.875C35.6349 31.875 36.122 31.2854 36.122 30.1061V20.313C36.122 19.1337 35.6349 18.5441 34.6607 18.5441C33.6865 18.5441 33.1995 19.1337 33.1995 20.313V30.1061C33.1995 31.2854 33.6865 31.875 34.6607 31.875ZM44.9509 34.4387C43.5837 34.4387 42.5411 34.0541 41.8233 33.285C41.1055 32.4988 40.7466 31.3794 40.7466 29.9267V16.2368H43.5666V30.1317C43.5666 30.747 43.6862 31.1914 43.9255 31.4648C44.1819 31.7383 44.5408 31.875 45.0022 31.875C45.4637 31.875 45.814 31.7383 46.0533 31.4648C46.3097 31.1914 46.4379 30.747 46.4379 30.1317V16.2368H49.1553V29.9267C49.1553 31.3794 48.7964 32.4988 48.0786 33.285C47.3608 34.0541 46.3182 34.4387 44.9509 34.4387ZM51.1638 16.2368H55.3425C56.7953 16.2368 57.8549 16.5787 58.5215 17.2623C59.188 17.9288 59.5213 18.9628 59.5213 20.3643V21.4667C59.5213 23.3296 58.906 24.5088 57.6754 25.0045V25.0557C58.3591 25.2608 58.8376 25.6796 59.1111 26.3119C59.4016 26.9443 59.5469 27.7903 59.5469 28.8499V32.0032C59.5469 32.5159 59.564 32.9347 59.5982 33.2594C59.6324 33.567 59.7178 33.8747 59.8545 34.1823H56.9833C56.8807 33.8917 56.8124 33.6183 56.7782 33.3619C56.744 33.1056 56.7269 32.6441 56.7269 31.9776V28.6961C56.7269 27.8757 56.5902 27.3032 56.3167 26.9785C56.0604 26.6537 55.6075 26.4914 54.958 26.4914H53.9838V34.1823H51.1638V16.2368ZM55.0093 23.9277C55.5733 23.9277 55.992 23.7825 56.2654 23.4919C56.556 23.2014 56.7013 22.7143 56.7013 22.0307V20.6463C56.7013 19.9968 56.5816 19.5268 56.3424 19.2363C56.1202 18.9457 55.7613 18.8005 55.2656 18.8005H53.9838V23.9277H55.0093ZM61.5035 16.2368H64.3235V34.1823H61.5035V16.2368ZM65.8714 31.6699L71.1012 18.8005H66.1278V16.2368H74.1263V18.7492L68.8965 31.6187H74.1263V34.1823H65.8714V31.6699ZM77.9027 16.2368H81.7226L84.6451 34.1823H81.8251L81.3124 30.6188V30.6701H78.1078L77.5951 34.1823H74.9802L77.9027 16.2368ZM80.9791 28.2347L79.7229 19.3645H79.6717L78.441 28.2347H80.9791Z" fill="#0D0D0D"/>
</g>
<defs>
<clipPath id="clip0_825_9953">
<rect width="94" height="47" fill="white"/>
</clipPath>
</defs>
</svg>
