<svg width="137" height="67" viewBox="0 0 137 67" fill="none" xmlns="http://www.w3.org/2000/svg">
<g clip-path="url(#clip0_825_9954)">
<path d="M22.7515 25.793C22.7515 25.793 22.1692 26.0439 21.1557 26.5249C20.1421 27.006 18.7403 27.7171 17.1229 28.721C16.3249 29.2231 15.4838 29.8086 14.6428 30.4569C14.427 30.6243 14.2115 30.7915 14.0174 30.9588C13.8017 31.147 13.586 31.3352 13.3919 31.5027C12.9822 31.8792 12.5724 32.2764 12.1842 32.6947C11.7961 33.1132 11.4079 33.5523 11.0413 34.0125C10.6746 34.4725 10.3512 34.9535 10.0061 35.4556C9.68261 35.9575 9.40225 36.4804 9.1219 37.0241C8.86311 37.5679 8.62588 38.1118 8.43178 38.6765C8.34553 38.9483 8.23769 39.2619 8.17299 39.5339C8.08674 39.8059 8.02204 40.0987 7.95736 40.3914C7.84952 40.977 7.76325 41.5626 7.72011 42.1483C7.69857 42.7339 7.69857 43.3194 7.74169 43.8842C7.78481 44.449 7.87108 45.0136 8.00048 45.5574C8.12987 46.1011 8.28083 46.6239 8.49648 47.1259C8.58275 47.377 8.71215 47.628 8.81999 47.8579L8.86311 47.9416L8.90624 48.0254L9.01408 48.2136C9.07878 48.3389 9.14346 48.4646 9.20817 48.5692C9.72575 49.4266 10.3727 50.2213 11.0197 50.8278C11.6882 51.4553 12.3783 51.9364 13.0469 52.3128C13.7154 52.6892 14.3408 52.9403 14.8585 53.1077C15.1172 53.1913 15.3545 53.254 15.57 53.3167C15.7858 53.3586 15.9583 53.4212 16.1093 53.4422C16.4112 53.4841 16.5622 53.5258 16.5622 53.5258C16.5622 53.5258 16.4112 53.5258 16.1093 53.5258C15.9583 53.5258 15.7641 53.5051 15.5485 53.4841C15.3328 53.4631 15.0741 53.4212 14.7937 53.3795C14.233 53.2748 13.5645 53.0866 12.8312 52.773C12.098 52.4593 11.3216 51.9991 10.5452 51.3926C9.76887 50.7652 9.03564 50.0123 8.38866 49.0502C7.78481 48.13 7.26723 47.0213 6.94374 45.8502C6.62027 44.6789 6.4693 43.4032 6.53399 42.1273C6.55557 41.479 6.64183 40.8515 6.74965 40.2031C6.81436 39.8895 6.87906 39.5758 6.96532 39.2411C7.05157 38.9064 7.13785 38.6346 7.24567 38.3207C7.46132 37.7144 7.72011 37.1077 8.00048 36.5221C8.30239 35.9366 8.62589 35.3927 8.97094 34.8489C9.68261 33.7823 10.5021 32.8204 11.3647 31.9628C11.7961 31.5445 12.2274 31.1263 12.7018 30.7706C12.9391 30.5824 13.1547 30.4151 13.3704 30.2479C13.6076 30.0805 13.8232 29.913 14.0605 29.7458C14.9663 29.0974 15.872 28.5747 16.7347 28.1354C17.5973 27.6752 18.3952 27.3197 19.1284 27.0268C19.8617 26.734 20.5087 26.5041 21.0262 26.3159C21.5655 26.1277 21.9752 26.002 22.2771 25.9184C22.6006 25.8557 22.7515 25.793 22.7515 25.793Z" fill="#2ECC71"/>
<path d="M48.3046 13.3676C48.3046 13.3676 48.1965 13.3676 48.0026 13.3467C47.8086 13.3258 47.5066 13.3049 47.1399 13.2839C46.9458 13.2839 46.7518 13.263 46.536 13.263C46.3204 13.263 46.0832 13.2421 45.8244 13.2421C45.5657 13.2421 45.3069 13.2421 45.0049 13.2421C44.7245 13.263 44.4227 13.263 44.0992 13.2839C43.4738 13.3258 42.8053 13.3885 42.0935 13.4931C41.3819 13.5767 40.6486 13.7441 39.9154 13.9114C39.1606 14.0996 38.4057 14.3296 37.651 14.5807C36.8961 14.8526 36.1413 15.1663 35.4081 15.5218C34.6533 15.8774 33.9632 16.2748 33.2947 16.693C32.6262 17.1323 31.9792 17.5714 31.3753 18.0525C30.793 18.5335 30.2108 18.9937 29.7146 19.4957C29.1971 19.9767 28.7659 20.4578 28.3345 20.9179C28.1404 21.1479 27.9464 21.378 27.7737 21.5872C27.6012 21.7962 27.4287 22.0053 27.2777 22.2145C27.1267 22.4238 26.9975 22.612 26.868 22.7792C26.7388 22.9465 26.6307 23.1139 26.523 23.2603C26.3074 23.5532 26.1564 23.8041 26.0485 23.9504C25.9407 24.1178 25.876 24.2014 25.876 24.2014C25.876 24.2014 25.9191 24.0969 25.9839 23.9296C26.0485 23.7414 26.1349 23.4694 26.3074 23.1557C26.372 22.9884 26.4582 22.8002 26.5661 22.612C26.6524 22.4238 26.7817 22.2145 26.8896 21.9845C27.019 21.7544 27.1485 21.5243 27.2994 21.2733C27.4502 21.0224 27.6229 20.7715 27.7954 20.5205C27.9895 20.2696 28.162 19.9974 28.3776 19.7256C28.5934 19.4538 28.8089 19.1819 29.0678 18.9101C29.5421 18.3453 30.1029 17.8015 30.6851 17.2786C31.289 16.7559 31.9575 16.2328 32.6477 15.7518C33.3594 15.2918 34.1357 14.8526 34.8906 14.4761C35.6668 14.0996 36.4863 13.7859 37.306 13.514C38.1255 13.263 38.945 13.0539 39.7429 12.9075C40.5409 12.7611 41.3171 12.6774 42.072 12.6356C42.4385 12.6147 42.8053 12.6147 43.1503 12.5938C43.4953 12.5938 43.8403 12.6147 44.1638 12.6147C44.4873 12.6356 44.7893 12.6565 45.0912 12.6983C45.3715 12.7402 45.6519 12.782 45.9107 12.8029C46.1694 12.8447 46.4067 12.8866 46.6223 12.9284C46.8381 12.9702 47.0537 13.033 47.2262 13.0748C47.5928 13.1585 47.873 13.2421 48.0673 13.3049C48.1965 13.3467 48.3046 13.3676 48.3046 13.3676Z" fill="#2ECC71"/>
<path d="M49.73 11.9273C49.73 11.9273 49.8377 11.8018 50.0317 11.5508C50.1397 11.4253 50.269 11.2789 50.3985 11.0907C50.5278 10.9024 50.722 10.7142 50.9376 10.505C51.1532 10.2959 51.3688 10.0449 51.6492 9.79396C51.9296 9.54297 52.2316 9.292 52.5333 9.02011C52.8568 8.74823 53.2235 8.49724 53.6117 8.20443C54 7.93255 54.4313 7.66065 54.8841 7.38877C55.1212 7.26328 55.3585 7.13778 55.5958 6.99138C55.833 6.86589 56.0701 6.71948 56.3507 6.594C56.8681 6.36394 57.4073 6.09204 57.9895 5.90382C59.1325 5.4437 60.3834 5.10905 61.699 4.85809C62.0225 4.81624 62.3675 4.75351 62.691 4.71168C62.8635 4.69075 63.0359 4.66985 63.2086 4.64894C63.3811 4.62802 63.5536 4.62802 63.7261 4.6071C64.4162 4.52344 65.1278 4.54436 65.818 4.52344C66.5298 4.56528 67.2414 4.58617 67.953 4.69075C68.2982 4.73258 68.6646 4.77441 69.0098 4.85809L70.088 5.08814C71.4035 5.4437 72.8269 5.96656 74.0777 6.57309C74.7031 6.90772 75.3286 7.22144 75.8892 7.61882C76.0402 7.70248 76.1696 7.80705 76.3206 7.89071C76.4714 7.97438 76.601 8.07895 76.7302 8.18351C77.0107 8.39266 77.2695 8.5809 77.5282 8.79004C78.5633 9.62665 79.4906 10.505 80.2671 11.4253C80.6769 11.8645 81.0219 12.3456 81.3454 12.8057C81.5179 13.0357 81.6472 13.2658 81.7983 13.4959C81.9493 13.7259 82.0785 13.956 82.2295 14.1652C82.4884 14.6253 82.7255 15.0435 82.9413 15.4828C83.1354 15.922 83.3294 16.3194 83.4804 16.6958C83.6314 17.0933 83.7608 17.4488 83.8687 17.8042C83.9764 18.1389 84.0626 18.4736 84.1274 18.7664C84.2137 19.0593 84.2784 19.3102 84.2999 19.5403C84.343 19.7702 84.3647 19.9584 84.4076 20.1258C84.4724 20.4395 84.4939 20.6068 84.4939 20.6068C84.4939 20.6068 84.4509 20.4395 84.343 20.1466C84.2351 19.854 84.1274 19.3938 83.8901 18.85C83.7824 18.5782 83.6744 18.2644 83.5235 17.9506C83.3725 17.637 83.2 17.2815 83.0275 16.9051C82.8334 16.5493 82.6178 16.1729 82.3805 15.7756C82.1432 15.3782 81.863 14.9808 81.6043 14.5625C81.4533 14.3534 81.3022 14.1652 81.1298 13.956C80.9787 13.7468 80.8277 13.5168 80.6338 13.3285C80.2671 12.9103 79.9436 12.471 79.5124 12.0737C79.3181 11.8645 79.1026 11.6554 78.9085 11.4462C78.6927 11.258 78.4556 11.0488 78.24 10.8397C78.0242 10.6305 77.787 10.4423 77.5282 10.2541C77.291 10.0658 77.0537 9.8567 76.795 9.66846C75.7813 8.91553 74.6599 8.26718 73.4739 7.66065C72.2662 7.09596 71.0585 6.65675 69.6783 6.30119L68.7079 6.09204C68.3844 6.00839 68.0393 5.98748 67.7157 5.92473C67.0472 5.82016 66.3787 5.79924 65.7103 5.7365C64.3731 5.71558 63.0576 5.75741 61.8067 5.96656C60.5559 6.1757 59.3483 6.42668 58.2268 6.80316C57.6662 6.97046 57.1485 7.20051 56.6309 7.38877C56.3721 7.47243 56.1349 7.5979 55.8976 7.72339C55.6605 7.82797 55.4233 7.95346 55.186 8.05804C54.7331 8.30901 54.3017 8.53907 53.892 8.76912C53.5039 9.02011 53.1157 9.25017 52.7706 9.48023C52.4256 9.7312 52.1236 9.96126 51.8219 10.1704C51.5413 10.3796 51.2826 10.6096 51.0453 10.7979C50.571 11.1743 50.2475 11.509 50.0102 11.7181C49.8592 11.8018 49.73 11.9273 49.73 11.9273Z" fill="#2ECC71"/>
<path d="M101.597 54.6351L97.4349 50.4102H95.343L95.4293 50.6194L97.2624 50.6402L101.187 54.6351H101.597Z" fill="#2ECC71"/>
<path d="M124.047 54.1948L121.783 53.2329H122.883C123.098 53.2329 123.249 53.0654 123.249 52.8772C123.249 52.6683 123.077 52.5218 122.883 52.5218H120.079L117.534 51.4343H119.928C120.144 51.4343 120.295 51.2668 120.295 51.0786C120.295 50.8904 120.122 50.723 119.928 50.723H115.852L113.2 49.5938H109.102L115.809 54.2787L124.047 54.1948Z" fill="#2ECC71"/>
<path d="M3.70932 43.9249L3.73088 42.9626C3.75246 42.649 3.77402 42.3351 3.79559 42.0006C3.81715 41.6869 3.88185 41.3732 3.90343 41.0594C4.09751 39.8045 4.39943 38.5705 4.83074 37.3575C5.69338 34.9523 7.07359 32.7354 8.82043 30.8321C10.5672 28.9289 12.7023 27.3603 15.0745 26.2518C17.4468 25.1225 20.0347 24.4949 22.6657 24.3277L23.7655 24.2649L24.2185 23.261L24.5635 22.4871C24.6928 22.2362 24.7791 21.9642 24.9301 21.7133C25.2103 21.2114 25.4476 20.6885 25.7927 20.2285L26.2671 19.4964C26.4398 19.2663 26.6123 19.0362 26.7847 18.8063L27.0435 18.4716L27.173 18.3042L27.324 18.1369L27.8846 17.4886C27.9709 17.384 28.0788 17.2584 28.165 17.1748L28.4669 16.882L29.0923 16.2755C29.3079 16.0871 29.5237 15.8989 29.7393 15.7107C29.9549 15.5225 30.1707 15.3134 30.4079 15.146L31.0979 14.6232L31.4431 14.3723L31.8095 14.1422L32.5428 13.6821C32.7801 13.5357 33.0604 13.4102 33.3192 13.2638C33.5779 13.1383 33.8368 12.971 34.0956 12.8664L34.8934 12.5108L35.3032 12.3226C35.4327 12.2599 35.5836 12.218 35.7129 12.1762L36.5326 11.8834C36.8128 11.7788 37.0932 11.7161 37.3736 11.6324L38.2146 11.4023L39.0772 11.235L39.5086 11.1514L39.7242 11.1095L39.94 11.0886L40.781 10.9841L41.2124 10.9213L41.6868 10.9004L42.6356 10.8586L42.8729 10.8377H42.8944H42.916H43.0238H43.4768C44.6628 10.8586 45.8489 10.9631 47.0136 11.1723L47.8761 11.3396L48.4153 10.6703L48.8899 10.0847L49.127 9.79192L49.3857 9.49912L49.9033 8.93441L50.4425 8.39063L50.7229 8.11873L51.0032 7.86776L51.5855 7.36581L52.1894 6.88478L52.4912 6.65471L52.8146 6.42465L53.4401 5.98544L54.0871 5.56713L54.4106 5.358L54.7556 5.16977L55.4243 4.7933L56.1143 4.45866L56.4594 4.29134L56.8259 4.14493L57.5377 3.85213L58.2709 3.60117L58.6376 3.47566L59.004 3.3711L59.7588 3.16195C60.0178 3.0992 60.2766 3.03645 60.5137 2.99463C60.7726 2.9319 61.0313 2.86915 61.2901 2.82732L62.0665 2.70183C62.3252 2.65998 62.5839 2.63909 62.8212 2.61817L63.2095 2.57633C63.3388 2.55542 63.4682 2.55542 63.5976 2.53451L64.4171 2.49268H64.6329H64.6758H64.6976H64.7191H64.8054H65.1935C65.4524 2.49268 65.7111 2.49268 65.9915 2.51359L66.7895 2.55542L67.5872 2.63909C68.644 2.76457 69.6791 2.95279 70.7143 3.20378C71.7281 3.47566 72.7416 3.81031 73.7119 4.22859C74.6824 4.62598 75.6313 5.12793 76.5371 5.69263C77.443 6.25732 78.3055 6.86385 79.125 7.55405C79.9446 8.24422 80.6994 8.97624 81.411 9.771C82.1228 10.5658 82.748 11.4233 83.3304 12.3017C83.6323 12.7409 83.891 13.201 84.1499 13.6611C84.3872 14.1422 84.6459 14.6023 84.8615 15.0833C85.2929 16.0454 85.681 17.0493 85.9614 18.0741C86.2418 19.0991 86.4574 20.1446 86.5868 21.2114C86.5437 20.1446 86.4358 19.0781 86.2418 18.0114C86.0477 16.9447 85.7457 15.8989 85.3792 14.8742C85.0124 13.8494 84.5597 12.8455 84.0205 11.9043C83.4813 10.9422 82.8775 10.022 82.209 9.14356C81.5189 8.26514 80.7856 7.44946 79.9661 6.67563C79.1466 5.90178 78.2625 5.21159 77.3566 4.56324C76.4293 3.91488 75.4588 3.32925 74.4237 2.84822C73.4102 2.34627 72.3318 1.92798 71.2535 1.57242C70.1537 1.23779 69.0321 0.965902 67.8893 0.798584L67.0266 0.673096L66.164 0.589436C65.8836 0.547607 65.5817 0.547607 65.3014 0.547607L64.9131 0.359375H64.8054H64.6758H64.4604H63.6409C63.5113 0.359375 63.3605 0.359375 63.2095 0.38029L62.7566 0.422119C62.4547 0.443034 62.1527 0.443034 61.8725 0.484863L61.0097 0.589436C60.7293 0.610351 60.4274 0.673096 60.1471 0.735839C59.8668 0.798584 59.5648 0.840414 59.2846 0.903158L58.4434 1.11231L58.0122 1.21688L57.6024 1.34237L56.7613 1.59334L55.9418 1.88615L55.5535 2.03256L55.1437 2.19988L54.3459 2.55542L53.5695 2.95279L53.1814 3.14103L52.8146 3.35018L52.0598 3.78939L51.3267 4.27044L50.96 4.50049L50.615 4.75147L49.925 5.27432L49.2563 5.81812L48.9328 6.09L48.6093 6.38281L47.9839 6.96843L47.3801 7.59587L47.0782 7.90959L46.8194 8.22331C45.7627 8.03507 44.7059 7.90959 43.6278 7.86776L43.11 7.84685H42.9808H42.916H42.8081H42.5709L41.6222 7.86776L41.1476 7.88868L40.63 7.93051L39.5732 8.03507L39.3145 8.056L39.0557 8.09783L38.5597 8.18149L37.5461 8.3488L36.5541 8.59978C36.2306 8.68344 35.8856 8.74619 35.5621 8.87166L34.5917 9.18539C34.4407 9.24814 34.2682 9.28997 34.1172 9.35271L33.6427 9.54095L32.6938 9.93832C32.3918 10.0638 32.0901 10.2311 31.788 10.3775C31.486 10.5448 31.1842 10.6703 30.8823 10.8586L30.0197 11.3814L29.5884 11.6533L29.1787 11.9461L28.359 12.5317C28.0788 12.72 27.8415 12.95 27.5611 13.1592C27.3022 13.3683 27.0435 13.5775 26.7847 13.8076L26.0515 14.4977L25.6849 14.8532C25.5556 14.9787 25.4476 15.1043 25.3399 15.2298L24.6714 15.9828L24.4989 16.171L24.3479 16.3592L24.0458 16.7565C23.8519 17.0283 23.6362 17.2794 23.4205 17.5512L22.8597 18.3878C22.4716 18.9316 22.1697 19.5382 21.8246 20.1239C21.6737 20.3748 21.5443 20.6676 21.4148 20.9394C18.6759 21.1695 16.0018 21.9015 13.5218 23.0309C10.7182 24.3277 8.17345 26.1473 6.08157 28.3851C3.98967 30.6229 2.37225 33.2583 1.33708 36.1026C0.819501 37.5248 0.452882 39.0098 0.237225 40.4948C0.194092 40.8712 0.129395 41.2478 0.107829 41.6242C0.0862633 42.0006 0.0431317 42.377 0.0215658 42.7536C0.0215658 43.13 0 43.5064 0 43.883V44.0502V44.1131V44.2384L0.0215658 44.4895L0.0431317 45.0122L0.0646976 45.2632C0.0646976 45.3471 0.0862633 45.4724 0.107829 45.556L0.215658 46.1835L0.323488 46.811C0.366618 47.0201 0.431316 47.1875 0.474448 47.3967L0.62541 47.9613L0.711673 48.2541C0.733238 48.3587 0.77637 48.4423 0.819501 48.5261L1.25082 49.6345C1.91935 51.0776 2.82513 52.4162 3.90343 53.5873L4.31316 54.0266C4.44255 54.173 4.59352 54.3195 4.74448 54.4448C5.0464 54.7167 5.34832 54.9678 5.65025 55.2188L6.57757 55.888C2.95451 51.0567 3.70932 43.9249 3.70932 43.9249Z" fill="#2ECC71"/>
<path d="M136.553 56.9556L132.348 54.906C131.722 54.5922 131.011 54.4458 130.299 54.4458L101.94 54.6341L97.5838 50.2212H95.1036L97.174 56.2655L16.8844 55.1361H15.8061C15.6336 55.1361 15.4395 55.1361 15.267 55.1361L14.7925 55.1152C14.167 55.1152 13.5632 54.9896 12.9378 54.906C11.7301 54.6551 10.5656 54.1949 9.4873 53.6093L9.09911 53.3792C8.96972 53.2956 8.81876 53.2328 8.71093 53.1282L7.95613 52.5845L7.26602 51.978C7.13663 51.8733 7.05035 51.7687 6.94253 51.6641L6.61905 51.3296C5.79954 50.4303 5.131 49.4053 4.61342 48.3179L4.28993 47.4813C4.26837 47.4185 4.22524 47.3349 4.20366 47.2721L4.13896 47.0629L4.03114 46.6237C3.98801 46.4773 3.94487 46.3309 3.92331 46.1844L3.88017 45.7453L3.81549 45.348L3.79393 45.2434C3.79393 45.2225 3.77235 45.1807 3.77235 45.1179L3.75079 44.8668L3.68608 43.9258C3.68608 43.9258 2.93129 51.0578 6.57591 55.9727L6.61905 56.0144C6.77 56.14 6.96409 56.2236 7.13663 56.3282L7.65421 56.6211C9.07755 57.3949 10.6087 57.9595 12.2046 58.2732C12.6143 58.3361 13.0025 58.3987 13.4123 58.4406L13.7142 58.4824C13.822 58.5033 13.9083 58.5033 14.0162 58.5033L14.62 58.5243L15.2238 58.5452C15.4178 58.5452 15.5904 58.5452 15.7629 58.5452H16.8413L115.44 58.8378L109.66 66.6392H111.407L116.303 63.4184H119.926C120.141 63.4184 120.292 63.251 120.292 63.0628C120.292 62.8746 120.12 62.7071 119.926 62.7071H117.403L119.581 61.2849H122.147C122.363 61.2849 122.514 61.1177 122.514 60.9295C122.514 60.7202 122.341 60.5739 122.147 60.5739H120.681L123.053 59.0054L136.143 58.5243C136.445 58.5033 136.726 58.3361 136.877 58.0642C137.136 57.6459 136.963 57.1438 136.553 56.9556Z" fill="#2ECC71"/>
<path d="M34.3247 26.8013H30.0278V23.1467H42.7315V26.8013H38.4346V48.7285H34.3247V26.8013ZM50.5162 49.094C48.4985 49.094 46.9542 48.5336 45.8831 47.4129C44.812 46.2922 44.2765 44.7085 44.2765 42.662V29.2132C44.2765 27.1667 44.812 25.5831 45.8831 24.4623C46.9542 23.3416 48.4985 22.7812 50.5162 22.7812C52.5338 22.7812 54.0782 23.3416 55.1493 24.4623C56.2204 25.5831 56.7559 27.1667 56.7559 29.2132V42.662C56.7559 44.7085 56.2204 46.2922 55.1493 47.4129C54.0782 48.5336 52.5338 49.094 50.5162 49.094ZM50.5162 45.4394C51.936 45.4394 52.6459 44.5989 52.6459 42.9178V28.9574C52.6459 27.2763 51.936 26.4358 50.5162 26.4358C49.0964 26.4358 48.3865 27.2763 48.3865 28.9574V42.9178C48.3865 44.5989 49.0964 45.4394 50.5162 45.4394ZM65.5136 49.094C63.5209 49.094 62.0015 48.5458 60.9553 47.4494C59.9091 46.3287 59.386 44.7329 59.386 42.662V23.1467H63.496V42.9543C63.496 43.8314 63.6704 44.4649 64.0191 44.8547C64.3927 45.2445 64.9158 45.4394 65.5884 45.4394C66.2609 45.4394 66.7715 45.2445 67.1203 44.8547C67.4939 44.4649 67.6807 43.8314 67.6807 42.9543V23.1467H71.6413V42.662C71.6413 44.7329 71.1182 46.3287 70.072 47.4494C69.0258 48.5458 67.5064 49.094 65.5136 49.094ZM74.5686 23.1467H80.6588C82.7761 23.1467 84.3205 23.634 85.2919 24.6085C86.2634 25.5587 86.7491 27.0327 86.7491 29.0305V30.602C86.7491 33.2576 85.8524 34.9387 84.0589 35.6453V35.7183C85.0553 36.0107 85.7527 36.6076 86.1513 37.5091C86.5747 38.4105 86.7865 39.6165 86.7865 41.1271V45.6222C86.7865 46.3531 86.8114 46.95 86.8612 47.4129C86.911 47.8514 87.0356 48.29 87.2348 48.7285H83.0501C82.9006 48.3143 82.801 47.9245 82.7512 47.5591C82.7014 47.1936 82.6765 46.5358 82.6765 45.5856V40.9078C82.6765 39.7383 82.4772 38.9222 82.0786 38.4593C81.705 37.9963 81.0449 37.7649 80.0984 37.7649H78.6786V48.7285H74.5686V23.1467ZM80.1731 34.1103C80.9951 34.1103 81.6054 33.9033 82.0039 33.4891C82.4274 33.0749 82.6391 32.3805 82.6391 31.406V29.4325C82.6391 28.5067 82.4647 27.8367 82.116 27.4225C81.7922 27.0083 81.2691 26.8013 80.5467 26.8013H78.6786V34.1103H80.1731ZM89.6381 23.1467H93.7481V48.7285H89.6381V23.1467ZM96.0041 45.1471L103.626 26.8013H96.3777V23.1467H108.035V26.7282L100.413 45.074H108.035V48.7285H96.0041V45.1471ZM113.539 23.1467H119.106L123.366 48.7285H119.256L118.508 43.6487V43.7218H113.838L113.091 48.7285H109.28L113.539 23.1467ZM118.023 40.25L116.192 27.6053H116.117L114.324 40.25H118.023Z" fill="white"/>
</g>
<defs>
<clipPath id="clip0_825_9954">
<rect width="137" height="67" fill="white"/>
</clipPath>
</defs>
</svg>
