<svg width="127" height="50" viewBox="0 0 127 50" fill="none" xmlns="http://www.w3.org/2000/svg">
<g clip-path="url(#clip0_958_2207)">
<path d="M16.6232 19.1875C16.6232 19.1875 16.1978 19.3768 15.4572 19.7398C14.7167 20.1026 13.6925 20.6391 12.5108 21.3964C11.9278 21.7751 11.3133 22.217 10.6988 22.7061C10.5412 22.8323 10.3837 22.9585 10.2419 23.0847C10.0843 23.2266 9.92675 23.3686 9.78494 23.4949C9.48556 23.7789 9.18619 24.0786 8.90258 24.3942C8.61897 24.7098 8.33535 25.0411 8.06749 25.3883C7.79964 25.7353 7.56329 26.0983 7.31119 26.477C7.07484 26.8555 6.87001 27.25 6.66518 27.6602C6.4761 28.0704 6.30279 28.4808 6.16097 28.9067C6.09796 29.1118 6.01917 29.3485 5.97189 29.5536C5.90888 29.7587 5.86161 29.9797 5.81434 30.2004C5.73555 30.6423 5.67253 31.084 5.64102 31.5259C5.62527 31.9676 5.62527 32.4093 5.65677 32.8354C5.68828 33.2614 5.75131 33.6874 5.84585 34.0976C5.94039 34.5078 6.05068 34.9023 6.20824 35.281C6.27127 35.4703 6.36581 35.6597 6.44459 35.8332L6.4761 35.8963L6.50762 35.9595L6.5864 36.1014C6.63367 36.1961 6.68093 36.2908 6.7282 36.3697C7.10636 37.0165 7.57905 37.6161 8.05174 38.0736C8.54019 38.547 9.04439 38.9098 9.53283 39.1938C10.0213 39.4778 10.4782 39.6673 10.8565 39.7935C11.0455 39.8565 11.2188 39.9038 11.3763 39.9512C11.534 39.9827 11.66 40.03 11.7703 40.0459C11.9909 40.0774 12.1012 40.1089 12.1012 40.1089C12.1012 40.1089 11.9909 40.1089 11.7703 40.1089C11.66 40.1089 11.518 40.0933 11.3606 40.0774C11.203 40.0616 11.0139 40.03 10.8091 39.9986C10.3994 39.9197 9.91099 39.7776 9.37527 39.541C8.83956 39.3043 8.27233 38.9573 7.7051 38.4997C7.13787 38.0263 6.60216 37.4584 6.12946 36.7325C5.68828 36.0384 5.31014 35.2021 5.07379 34.3186C4.83745 33.4349 4.72715 32.4725 4.77441 31.51C4.79018 31.021 4.8532 30.5476 4.93198 30.0585C4.97925 29.8218 5.02652 29.5851 5.08954 29.3327C5.15257 29.0802 5.2156 28.8751 5.29438 28.6385C5.45194 28.181 5.64102 27.7234 5.84585 27.2815C6.06644 26.8398 6.30279 26.4296 6.55489 26.0193C7.07485 25.2147 7.67359 24.4889 8.30384 23.8421C8.61897 23.5264 8.93409 23.211 9.28074 22.9426C9.45405 22.8007 9.61162 22.6745 9.76918 22.5483C9.94249 22.4221 10.1001 22.2958 10.2734 22.1696C10.9351 21.6804 11.5969 21.2861 12.2272 20.9547C12.8574 20.6075 13.4404 20.3393 13.9761 20.1185C14.5118 19.8975 14.9845 19.724 15.3627 19.5821C15.7566 19.44 16.056 19.3453 16.2766 19.2823C16.5129 19.2348 16.6232 19.1875 16.6232 19.1875Z" fill="#FF7F50"/>
<path d="M35.2929 9.81424C35.2929 9.81424 35.2141 9.81424 35.0723 9.79847C34.9305 9.78269 34.7099 9.76691 34.4421 9.75113C34.3003 9.75113 34.1584 9.73536 34.0008 9.73536C33.8433 9.73536 33.67 9.71958 33.4809 9.71958C33.2919 9.71958 33.1028 9.71958 32.8822 9.71958C32.6774 9.73536 32.4567 9.73536 32.2204 9.75113C31.7635 9.78269 31.2751 9.83002 30.755 9.90891C30.2351 9.97202 29.6994 10.0983 29.1637 10.2245C28.6122 10.3665 28.0607 10.54 27.5092 10.7294C26.9577 10.9345 26.4064 11.1711 25.8706 11.4394C25.3191 11.7076 24.8149 12.0073 24.3265 12.3229C23.838 12.6543 23.3653 12.9856 22.9242 13.3485C22.4987 13.7114 22.0733 14.0585 21.7109 14.4372C21.3328 14.8001 21.0177 15.163 20.7025 15.5101C20.5607 15.6835 20.4188 15.8572 20.2928 16.0149C20.1668 16.1727 20.0407 16.3305 19.9304 16.4883C19.8201 16.646 19.7256 16.7881 19.631 16.9143C19.5366 17.0405 19.4577 17.1667 19.3789 17.2772C19.2215 17.4981 19.1112 17.6873 19.0323 17.7979C18.9535 17.9241 18.9062 17.9872 18.9062 17.9872C18.9062 17.9872 18.9378 17.9083 18.9851 17.7821C19.0323 17.6401 19.0955 17.4349 19.2215 17.1983C19.2686 17.0721 19.3317 16.9301 19.4105 16.7881C19.4736 16.646 19.568 16.4883 19.6469 16.3147C19.7413 16.1411 19.8359 15.9676 19.9461 15.7783C20.0565 15.589 20.1825 15.3996 20.3085 15.2103C20.4505 15.021 20.5765 14.8158 20.734 14.6107C20.8916 14.4056 21.0491 14.2005 21.2383 13.9954C21.5849 13.5694 21.9945 13.1592 22.42 12.7647C22.8611 12.3703 23.3495 11.9758 23.8538 11.6129C24.3738 11.2658 24.941 10.9345 25.4924 10.6505C26.0596 10.3665 26.6584 10.1298 27.2571 9.9247C27.8559 9.73536 28.4547 9.57758 29.0376 9.46713C29.6206 9.35669 30.1878 9.29358 30.7393 9.26202C31.0071 9.24624 31.2751 9.24624 31.5271 9.23047C31.7792 9.23047 32.0313 9.24624 32.2677 9.24624C32.5041 9.26202 32.7247 9.2778 32.9452 9.30936C33.1501 9.34091 33.3549 9.37247 33.544 9.38824C33.7331 9.4198 33.9063 9.45136 34.0638 9.48291C34.2215 9.51447 34.379 9.56181 34.5051 9.59336C34.773 9.65647 34.9778 9.71958 35.1196 9.76691C35.2141 9.79847 35.2929 9.81424 35.2929 9.81424Z" fill="#FF7F50"/>
<path d="M36.334 8.72598C36.334 8.72598 36.4127 8.63131 36.5545 8.44198C36.6333 8.34731 36.7278 8.23687 36.8224 8.09486C36.9169 7.95286 37.0587 7.81086 37.2163 7.65308C37.3739 7.49531 37.5313 7.30597 37.7363 7.11664C37.9411 6.9273 38.1617 6.73797 38.3822 6.53286C38.6186 6.32776 38.8864 6.13841 39.1701 5.91752C39.4537 5.71241 39.7688 5.5073 40.0996 5.30219C40.273 5.20752 40.4463 5.11285 40.6197 5.00241C40.793 4.90774 40.9663 4.79729 41.1712 4.70263C41.5493 4.52907 41.9431 4.32396 42.3685 4.18196C43.2037 3.83485 44.1176 3.5824 45.0787 3.39307C45.315 3.36151 45.5672 3.31418 45.8036 3.28262C45.9296 3.26684 46.0556 3.25107 46.1816 3.23529C46.3077 3.21951 46.4337 3.21951 46.5597 3.20373C47.064 3.14062 47.5839 3.1564 48.0882 3.14062C48.6081 3.17218 49.1281 3.18795 49.6481 3.26684C49.9002 3.2984 50.1679 3.32995 50.4201 3.39307L51.2079 3.56662C52.1691 3.83485 53.2089 4.22929 54.1228 4.68685C54.5797 4.9393 55.0368 5.17596 55.4463 5.47574C55.5566 5.53885 55.6512 5.61774 55.7615 5.68085C55.8717 5.74397 55.9664 5.82285 56.0609 5.90174C56.2657 6.05952 56.4548 6.20152 56.6439 6.3593C57.4002 6.99042 58.0777 7.65308 58.645 8.34731C58.9443 8.67864 59.1964 9.04154 59.4328 9.38865C59.5588 9.5622 59.6532 9.73575 59.7635 9.90932C59.8739 10.0829 59.9684 10.2565 60.0787 10.4142C60.2678 10.7614 60.4411 11.0768 60.5987 11.4082C60.7405 11.7395 60.8822 12.0393 60.9925 12.3233C61.1029 12.6231 61.1975 12.8914 61.2762 13.1595C61.355 13.4119 61.418 13.6644 61.4653 13.8853C61.5283 14.1063 61.5757 14.2955 61.5914 14.4691C61.6228 14.6427 61.6386 14.7846 61.6701 14.9108C61.7174 15.1476 61.7331 15.2738 61.7331 15.2738C61.7331 15.2738 61.7017 15.1476 61.6229 14.9266C61.544 14.7057 61.4653 14.3587 61.292 13.9485C61.2132 13.7433 61.1344 13.5066 61.0242 13.27C60.9139 13.0333 60.7878 12.7652 60.6617 12.4812C60.5198 12.2128 60.3624 11.9289 60.189 11.6291C60.0157 11.3293 59.8109 11.0295 59.6218 10.714C59.5115 10.5563 59.4012 10.4142 59.2751 10.2565C59.1648 10.0986 59.0545 9.92509 58.9128 9.78309C58.645 9.46754 58.4085 9.1362 58.0935 8.83642C57.9515 8.67864 57.7941 8.52088 57.6523 8.36309C57.4947 8.22109 57.3214 8.06331 57.1638 7.90553C57.0062 7.74774 56.8329 7.60576 56.6439 7.46376C56.4705 7.32176 56.2972 7.16397 56.1081 7.02197C55.3675 6.45397 54.5483 5.96486 53.6816 5.5073C52.7993 5.0813 51.917 4.74996 50.9085 4.48174L50.1996 4.32396C49.9632 4.26085 49.7111 4.24507 49.4747 4.19774C48.9863 4.11885 48.4979 4.10307 48.0094 4.05574C47.0325 4.03996 46.0713 4.07151 45.1575 4.22929C44.2436 4.38707 43.3613 4.5764 42.5419 4.86041C42.1323 4.98662 41.7541 5.16018 41.3759 5.30219C41.1869 5.3653 41.0135 5.45996 40.8402 5.55462C40.6669 5.63352 40.4937 5.72819 40.3203 5.80708C39.9893 5.99641 39.6742 6.16997 39.3749 6.34352C39.0913 6.53286 38.8077 6.70641 38.5555 6.87997C38.3035 7.0693 38.0828 7.24286 37.8623 7.40064C37.6574 7.55842 37.4684 7.73197 37.295 7.87397C36.9484 8.15798 36.7121 8.41042 36.5387 8.5682C36.4285 8.63131 36.334 8.72598 36.334 8.72598Z" fill="#FF7F50"/>
<path d="M74.2294 40.945L71.1885 37.7578H69.6602L69.7231 37.9156L71.0624 37.9314L73.93 40.945H74.2294Z" fill="#FF7F50"/>
<path d="M90.63 40.6117L88.9756 39.8861H89.7791C89.9368 39.8861 90.0471 39.7598 90.0471 39.6177C90.0471 39.4601 89.9211 39.3495 89.7791 39.3495H87.7309L85.8716 38.5291H87.6206C87.7782 38.5291 87.8884 38.4028 87.8884 38.2608C87.8884 38.1189 87.7623 37.9927 87.6206 37.9927H84.6426L82.7047 37.1406H79.7109L84.6111 40.675L90.63 40.6117Z" fill="#FF7F50"/>
<path d="M2.71008 32.8653L2.72585 32.1395C2.74161 31.9028 2.75736 31.6661 2.77312 31.4137C2.78887 31.177 2.83615 30.9404 2.8519 30.7037C2.9937 29.757 3.21429 28.8261 3.52943 27.911C4.15968 26.0966 5.16808 24.4241 6.44436 22.9883C7.72061 21.5525 9.28049 20.3692 11.0137 19.533C12.7469 18.681 14.6377 18.2076 16.5599 18.0814L17.3635 18.0341L17.6944 17.2767L17.9465 16.693C18.041 16.5036 18.1041 16.2985 18.2144 16.1092C18.4191 15.7305 18.5925 15.3361 18.8445 14.989L19.1912 14.4367C19.3172 14.2632 19.4433 14.0896 19.5694 13.9161L19.7584 13.6636L19.853 13.5374L19.9633 13.4112L20.373 12.9221C20.4359 12.8432 20.5148 12.7485 20.5778 12.6854L20.7983 12.4645L21.2554 12.0068C21.4128 11.8649 21.5704 11.7229 21.7281 11.5809C21.8855 11.4389 22.0431 11.2812 22.2165 11.1549L22.7206 10.7605L22.9728 10.5712L23.2406 10.3976L23.7763 10.0505C23.9496 9.94004 24.1544 9.84538 24.3435 9.73493C24.5326 9.64027 24.7217 9.51404 24.9108 9.43515L25.4937 9.16694L25.7932 9.02494C25.8878 8.9776 25.998 8.94604 26.0925 8.91448L26.6913 8.69359C26.8961 8.61471 27.1008 8.56737 27.3058 8.50426L27.9203 8.33071L28.5505 8.20448L28.8656 8.14137L29.0232 8.10982L29.1808 8.09404L29.7953 8.01515L30.1104 7.96782L30.457 7.95204L31.1503 7.92048L31.3237 7.9047H31.3394H31.3551H31.4339H31.7649C32.6314 7.92048 33.498 7.99937 34.3489 8.15715L34.979 8.28337L35.3731 7.77848L35.7197 7.3367L35.8929 7.11582L36.082 6.89492L36.4602 6.46892L36.8541 6.0587L37.0589 5.85358L37.2637 5.66425L37.6892 5.28558L38.1304 4.9227L38.351 4.74913L38.5872 4.57558L39.0442 4.24424L39.5169 3.92868L39.7534 3.77091L40.0054 3.62891L40.4938 3.3449L40.9981 3.09246L41.2501 2.96624L41.5179 2.85579L42.038 2.6349L42.5737 2.44557L42.8415 2.3509L43.1093 2.27201L43.6608 2.11423C43.85 2.0669 44.0391 2.01957 44.2123 1.98801C44.4015 1.94068 44.5905 1.89334 44.7796 1.86179L45.3468 1.76712C45.5359 1.73557 45.7249 1.71979 45.8982 1.70401L46.1819 1.67245C46.2763 1.65667 46.3709 1.65667 46.4654 1.6409L47.0642 1.60934H47.2218H47.2533H47.2691H47.2848H47.3479H47.6314C47.8206 1.60934 48.0097 1.60934 48.2145 1.62512L48.7975 1.65667L49.3804 1.71979C50.1525 1.81445 50.9087 1.95645 51.665 2.14579C52.4057 2.3509 53.1462 2.60335 53.8552 2.9189C54.5643 3.21869 55.2575 3.59735 55.9193 4.02335C56.5811 4.44935 57.2112 4.90691 57.8101 5.42758C58.4088 5.94825 58.9603 6.50047 59.4802 7.10003C60.0002 7.69959 60.4571 8.34648 60.8825 9.00915C61.1031 9.34049 61.2922 9.6876 61.4812 10.0347C61.6546 10.3976 61.8436 10.7447 62.0013 11.1076C62.3164 11.8334 62.5999 12.5907 62.8048 13.3638C63.0097 14.137 63.1672 14.9258 63.2617 15.7305C63.2303 14.9258 63.1514 14.1212 63.0097 13.3165C62.8679 12.5118 62.6473 11.7229 62.3794 10.9498C62.1115 10.1767 61.7807 9.41938 61.3867 8.70937C60.9928 7.98359 60.5517 7.28937 60.0633 6.6267C59.559 5.96403 59.0232 5.3487 58.4245 4.76491C57.8258 4.18113 57.1798 3.66046 56.518 3.17135C55.8405 2.68223 55.1315 2.24045 54.3752 1.87757C53.6347 1.4989 52.8469 1.18334 52.059 0.915115C51.2555 0.66267 50.436 0.457558 49.601 0.331335L48.9707 0.236669L48.3405 0.173557C48.1357 0.142001 47.9151 0.142001 47.7102 0.142001L47.4266 0H47.3479H47.2533H47.0958H46.497C46.4025 0 46.2923 0 46.1819 0.0157778L45.851 0.0473335C45.6305 0.0631114 45.4098 0.0631114 45.205 0.0946671L44.5746 0.173557C44.3699 0.189334 44.1493 0.236669 43.9445 0.284001C43.7397 0.331335 43.519 0.362891 43.3142 0.410224L42.6998 0.568003L42.3846 0.646892L42.0852 0.741559L41.4708 0.930894L40.8719 1.15178L40.5883 1.26223L40.2889 1.38845L39.706 1.65667L39.1387 1.95645L38.8552 2.09845L38.5872 2.25623L38.0357 2.58757L37.5002 2.95046L37.2322 3.12401L36.9801 3.31335L36.4759 3.70779L35.9875 4.11802L35.7511 4.32313L35.5148 4.54402L35.0579 4.9858L34.6166 5.45914L34.3961 5.6958L34.207 5.93247C33.435 5.79047 32.6629 5.69581 31.8752 5.66425L31.4969 5.64847H31.4024H31.3551H31.2763H31.1031L30.4098 5.66425L30.0632 5.68003L29.685 5.71158L28.9128 5.79047L28.7238 5.80625L28.5347 5.8378L28.1724 5.90092L27.4318 6.02714L26.707 6.21647C26.4707 6.27958 26.2186 6.32692 25.9822 6.42158L25.2732 6.65825C25.1629 6.70559 25.0369 6.73714 24.9265 6.78447L24.5799 6.92648L23.8867 7.22625C23.666 7.32092 23.4455 7.44714 23.2249 7.55759C23.0042 7.68382 22.7837 7.77848 22.5631 7.92048L21.9329 8.31494L21.6178 8.52004L21.3183 8.74094L20.7196 9.18271C20.5148 9.32471 20.3414 9.49827 20.1367 9.65604C19.9475 9.81383 19.7584 9.9716 19.5694 10.1452L19.0336 10.6658L18.7658 10.934C18.6714 11.0287 18.5925 11.1234 18.5137 11.2182L18.0253 11.7861L17.8993 11.9282L17.7889 12.0701L17.5683 12.3698C17.4266 12.5749 17.269 12.7643 17.1114 12.9695L16.7017 13.6005C16.4182 14.0107 16.1976 14.4683 15.9454 14.9101C15.8351 15.0995 15.7407 15.3203 15.6461 15.5254C13.645 15.699 11.6912 16.2512 9.87923 17.1032C7.83091 18.0814 5.97166 19.4541 4.44329 21.1423C2.91493 22.8305 1.73321 24.8186 0.976894 26.9643C0.598742 28.0372 0.330882 29.1575 0.173321 30.2777C0.141807 30.5617 0.094538 30.8457 0.0787818 31.1297C0.0630254 31.4137 0.0315127 31.6977 0.0157564 31.9817C0.0157564 32.2657 0 32.5497 0 32.8337V32.9599V33.0073V33.102L0.0157564 33.2913L0.0315127 33.6857L0.0472691 33.875C0.0472691 33.9382 0.0630254 34.0328 0.0787818 34.0959L0.157564 34.5694L0.236346 35.0426C0.267858 35.2004 0.315127 35.3266 0.346639 35.4845L0.456934 35.9104L0.51996 36.1313C0.535716 36.2102 0.567228 36.2733 0.598742 36.3364L0.913867 37.1726C1.40231 38.2613 2.06408 39.2711 2.8519 40.1546L3.15127 40.486C3.24581 40.5964 3.3561 40.707 3.46639 40.8015C3.68698 41.0066 3.90757 41.196 4.12817 41.3853L4.80568 41.8902C2.15861 38.2455 2.71008 32.8653 2.71008 32.8653Z" fill="#FF7F50"/>
<path d="M99.7687 42.6928L96.6961 41.1467C96.2393 40.9099 95.7192 40.7996 95.1994 40.7996L74.4797 40.9415L71.297 37.6124H69.485L70.9976 42.1723L12.3367 41.3202H11.5489C11.4228 41.3202 11.281 41.3202 11.155 41.3202L10.8083 41.3045C10.3513 41.3045 9.9102 41.2098 9.45326 41.1467C8.57091 40.9574 7.72006 40.6102 6.93225 40.1685L6.64863 39.9948C6.5541 39.9318 6.4438 39.8845 6.36502 39.8056L5.81355 39.3953L5.30934 38.9377C5.21481 38.8588 5.15178 38.7799 5.073 38.7011L4.83666 38.4486C4.23792 37.7701 3.74946 36.9971 3.37131 36.1767L3.13497 35.5456C3.11922 35.4982 3.08771 35.435 3.07194 35.3877L3.02467 35.2299L2.94589 34.8986C2.91437 34.7882 2.88287 34.6777 2.8671 34.5673L2.83559 34.236L2.78833 33.9361L2.77257 33.8573C2.77257 33.8415 2.75681 33.8099 2.75681 33.7626L2.74106 33.5733L2.69379 32.8633C2.69379 32.8633 2.14232 38.2436 4.80514 41.9513L4.83666 41.9828C4.94695 42.0775 5.08875 42.1407 5.21481 42.2196L5.59296 42.4405C6.63288 43.0243 7.75158 43.4502 8.91756 43.6869C9.21692 43.7343 9.50053 43.7815 9.7999 43.8132L10.0205 43.8447C10.0993 43.8605 10.1623 43.8605 10.2411 43.8605L10.6823 43.8762L11.1234 43.8921C11.2652 43.8921 11.3912 43.8921 11.5173 43.8921H12.3052L84.3431 44.1128L80.1205 49.9981H81.3967L84.9735 47.5683H87.6205C87.778 47.5683 87.8884 47.4421 87.8884 47.3C87.8884 47.1581 87.7623 47.0318 87.6205 47.0318H85.777L87.3684 45.9588H89.2434C89.401 45.9588 89.5113 45.8326 89.5113 45.6907C89.5113 45.5328 89.3852 45.4224 89.2434 45.4224H88.172L89.9052 44.2392L99.4693 43.8762C99.6898 43.8605 99.8947 43.7343 100.005 43.5292C100.194 43.2136 100.068 42.8349 99.7687 42.6928Z" fill="#FF7F50"/>
<path d="M38.0987 18.9403C38.0355 19.6098 37.9882 20.2634 37.9566 20.9011C37.9408 21.5229 37.933 22.0011 37.933 22.3359C37.933 22.7025 37.9408 23.0533 37.9566 23.3881C37.9724 23.7229 37.9882 24.0098 38.004 24.2489H37.4594C37.3015 23.0533 37.0884 22.1128 36.8201 21.4272C36.5675 20.7417 36.1966 20.2475 35.7072 19.9446C35.2178 19.6417 34.5155 19.4903 33.5999 19.4903H32.5817V33.1207C32.5817 33.7584 32.6369 34.2367 32.7475 34.5555C32.8737 34.8743 33.1105 35.0895 33.4578 35.2011C33.8208 35.2968 34.3418 35.3606 35.0206 35.3924V35.8707C34.5785 35.8388 34.0103 35.8229 33.3157 35.8229C32.6212 35.8069 31.9109 35.7989 31.1847 35.7989C30.427 35.7989 29.7088 35.8069 29.03 35.8229C28.3671 35.8229 27.8303 35.8388 27.4199 35.8707V35.3924C28.0987 35.3606 28.6117 35.2968 28.959 35.2011C29.3063 35.0895 29.5431 34.8743 29.6693 34.5555C29.7956 34.2367 29.8588 33.7584 29.8588 33.1207V19.4903H28.8169C27.933 19.4903 27.2384 19.6417 26.7333 19.9446C26.2282 20.2475 25.8493 20.7417 25.5967 21.4272C25.3441 22.1128 25.139 23.0533 24.9811 24.2489H24.4365C24.468 24.0098 24.4839 23.7229 24.4839 23.3881C24.4997 23.0533 24.5075 22.7025 24.5075 22.3359C24.5075 22.0011 24.4917 21.5229 24.4602 20.9011C24.4444 20.2634 24.405 19.6098 24.3418 18.9403C25.0206 18.9562 25.7625 18.9721 26.5675 18.9881C27.3726 19.0041 28.1855 19.012 29.0064 19.012C29.8272 19.012 30.5691 19.012 31.2321 19.012C31.8951 19.012 32.6291 19.012 33.4341 19.012C34.2392 19.012 35.0521 19.0041 35.873 18.9881C36.6938 18.9721 37.4357 18.9562 38.0987 18.9403ZM47.7526 18.6055C49.2996 18.6055 50.6572 18.9482 51.8252 19.6337C53.0091 20.3193 53.9247 21.3076 54.5719 22.5989C55.219 23.8743 55.5427 25.4286 55.5427 27.262C55.5427 29.0475 55.2112 30.6098 54.5482 31.9489C53.8852 33.2881 52.9618 34.3323 51.7779 35.0816C50.594 35.8308 49.2443 36.2055 47.729 36.2055C46.1662 36.2055 44.8007 35.8628 43.6327 35.1772C42.4646 34.4917 41.5569 33.5033 40.9097 32.212C40.2625 30.9207 39.9389 29.3663 39.9389 27.5489C39.9389 25.7634 40.2704 24.2011 40.9334 22.862C41.6122 21.5229 42.5356 20.4786 43.7037 19.7294C44.8718 18.9801 46.2214 18.6055 47.7526 18.6055ZM47.6579 19.0359C46.6793 19.0359 45.8269 19.3946 45.1007 20.112C44.3745 20.8294 43.8142 21.8178 43.4196 23.0772C43.0249 24.3367 42.8276 25.7954 42.8276 27.4533C42.8276 29.1432 43.0486 30.6178 43.4906 31.8772C43.9326 33.1207 44.5324 34.0851 45.2901 34.7707C46.0478 35.4403 46.8924 35.775 47.8237 35.775C48.8023 35.775 49.6469 35.4163 50.3572 34.6989C51.0834 33.9816 51.6437 32.9932 52.0383 31.7337C52.4487 30.4584 52.654 28.9997 52.654 27.3576C52.654 25.6519 52.425 24.1772 51.9673 22.9337C51.5253 21.6903 50.9255 20.7337 50.1678 20.0642C49.4259 19.3786 48.5892 19.0359 47.6579 19.0359ZM72.1872 18.9403V19.4185C71.6663 19.4504 71.2716 19.546 71.0033 19.7055C70.7349 19.8649 70.5534 20.128 70.4587 20.4946C70.364 20.8454 70.3167 21.3475 70.3167 22.0011V28.912C70.3167 29.996 70.2456 30.9606 70.1036 31.8055C69.9615 32.6504 69.7089 33.3758 69.3459 33.9816C68.9512 34.6511 68.3671 35.1932 67.5937 35.6076C66.836 36.0062 65.9283 36.2055 64.8707 36.2055C64.113 36.2055 63.379 36.1178 62.6687 35.9424C61.9583 35.7671 61.3347 35.4323 60.7981 34.9381C60.3246 34.5076 59.9536 34.0373 59.6852 33.5272C59.4168 33.0171 59.2354 32.4033 59.1407 31.6859C59.0459 30.9525 58.9986 30.0519 58.9986 28.9837V21.475C58.9986 20.8851 58.9512 20.4547 58.8565 20.1837C58.7775 19.8968 58.6039 19.7055 58.3356 19.6098C58.0672 19.4982 57.6647 19.4345 57.128 19.4185V18.9403C57.4911 18.9562 57.9568 18.9721 58.525 18.9881C59.109 19.0041 59.7326 19.012 60.3956 19.012C60.9954 19.012 61.5873 19.0041 62.1714 18.9881C62.7712 18.9721 63.2606 18.9562 63.6395 18.9403V19.4185C63.1027 19.4345 62.6923 19.4982 62.4082 19.6098C62.1398 19.7055 61.9583 19.8968 61.8636 20.1837C61.7689 20.4547 61.7216 20.8851 61.7216 21.475V29.7489C61.7216 30.562 61.7609 31.3112 61.8399 31.9968C61.9347 32.6823 62.1004 33.2801 62.3372 33.7903C62.5897 34.2845 62.9528 34.675 63.4264 34.962C63.9156 35.233 64.5471 35.3685 65.3206 35.3685C66.4887 35.3685 67.3884 35.1055 68.0199 34.5794C68.6671 34.0373 69.1169 33.3041 69.3695 32.3794C69.6379 31.4388 69.7721 30.3707 69.7721 29.175V22.0968C69.7721 21.4112 69.7089 20.8851 69.5826 20.5185C69.4563 20.1519 69.2353 19.8888 68.9197 19.7294C68.6039 19.5541 68.154 19.4504 67.57 19.4185V18.9403C67.8699 18.9562 68.2567 18.9721 68.7302 18.9881C69.2038 19.0041 69.6379 19.012 70.0325 19.012C70.4429 19.012 70.8376 19.0041 71.2164 18.9881C71.611 18.9721 71.9346 18.9562 72.1872 18.9403ZM73.6692 18.9403C74.0324 18.9562 74.498 18.9721 75.0662 18.9881C75.6503 19.0041 76.2265 19.012 76.7947 19.012C77.5524 19.012 78.2707 19.0041 78.9494 18.9881C79.6441 18.9721 80.1333 18.9642 80.4175 18.9642C81.7592 18.9642 82.8721 19.1395 83.7561 19.4903C84.6558 19.841 85.3188 20.3351 85.745 20.9729C86.187 21.5946 86.408 22.312 86.408 23.125C86.408 23.6193 86.3054 24.1454 86.1002 24.7033C85.9108 25.2454 85.5714 25.7555 85.082 26.2337C84.5928 26.696 83.9298 27.0786 83.0931 27.3816C82.2565 27.6845 81.191 27.8359 79.8966 27.8359H77.6235V27.3576H79.6598C80.7174 27.3576 81.5225 27.1823 82.0749 26.8316C82.6432 26.4649 83.022 25.9867 83.2115 25.3968C83.4167 24.791 83.5193 24.1214 83.5193 23.3881C83.5193 22.1286 83.251 21.1562 82.7142 20.4707C82.1776 19.7693 81.2462 19.4185 79.9202 19.4185C79.2415 19.4185 78.7916 19.5541 78.5706 19.825C78.3654 20.096 78.2628 20.646 78.2628 21.475V33.3359C78.2628 33.9098 78.3101 34.3403 78.4048 34.6272C78.4995 34.9142 78.6811 35.1055 78.9494 35.2011C79.2178 35.2968 79.6124 35.3606 80.1333 35.3924V35.8707C79.7545 35.8388 79.2731 35.8229 78.689 35.8229C78.1207 35.8069 77.5367 35.7989 76.9368 35.7989C76.2738 35.7989 75.6503 35.8069 75.0662 35.8229C74.498 35.8229 74.0324 35.8388 73.6692 35.8707V35.3924C74.206 35.3606 74.6085 35.2968 74.8768 35.2011C75.1452 35.1055 75.3188 34.9142 75.3977 34.6272C75.4925 34.3403 75.5398 33.9098 75.5398 33.3359V21.475C75.5398 20.8851 75.4925 20.4547 75.3977 20.1837C75.3188 19.8968 75.1373 19.7055 74.8531 19.6098C74.5848 19.4982 74.1902 19.4345 73.6692 19.4185V18.9403ZM77.6708 27.4294C78.4759 27.4612 79.1231 27.5011 79.6124 27.5489C80.1018 27.5808 80.5122 27.6128 80.8437 27.6446C81.1752 27.6764 81.483 27.7163 81.7671 27.7642C82.951 27.9236 83.8114 28.2424 84.348 28.7207C84.9006 29.1989 85.2794 29.9323 85.4845 30.9207L86.0765 33.3598C86.2186 34.0454 86.3686 34.5316 86.5264 34.8185C86.7001 35.1055 86.9526 35.249 87.2841 35.249C87.5367 35.233 87.7419 35.1612 87.8997 35.0337C88.0734 34.8903 88.2549 34.6989 88.4443 34.4598L88.7758 34.7229C88.4128 35.2171 88.0339 35.5917 87.6392 35.8468C87.2447 36.0859 86.7158 36.2055 86.0528 36.2055C85.3741 36.2055 84.79 36.0301 84.3006 35.6794C83.8271 35.3128 83.4877 34.6272 83.2825 33.6229L82.8089 31.2316C82.6669 30.546 82.5091 29.9562 82.3354 29.462C82.1618 28.9519 81.9171 28.5533 81.6014 28.2663C81.3015 27.9794 80.8595 27.8359 80.2754 27.8359H77.7182L77.6708 27.4294ZM95.8339 18.9403V19.4185C95.313 19.4345 94.9184 19.4982 94.65 19.6098C94.3817 19.7055 94.2001 19.8968 94.1054 20.1837C94.0107 20.4547 93.9633 20.8851 93.9633 21.475V33.3359C93.9633 33.9098 94.0107 34.3403 94.1054 34.6272C94.2001 34.9142 94.3817 35.1055 94.65 35.2011C94.9184 35.2968 95.313 35.3606 95.8339 35.3924V35.8707C95.455 35.8388 94.9736 35.8229 94.3895 35.8229C93.8212 35.8069 93.2373 35.7989 92.6373 35.7989C91.9744 35.7989 91.3509 35.8069 90.7668 35.8229C90.1985 35.8229 89.7329 35.8388 89.3698 35.8707V35.3924C89.9065 35.3606 90.309 35.2968 90.5774 35.2011C90.8458 35.1055 91.0194 34.9142 91.0983 34.6272C91.193 34.3403 91.2403 33.9098 91.2403 33.3359V21.475C91.2403 20.8851 91.193 20.4547 91.0983 20.1837C91.0194 19.8968 90.8378 19.7055 90.5537 19.6098C90.2854 19.4982 89.8907 19.4345 89.3698 19.4185V18.9403C89.7329 18.9562 90.1985 18.9721 90.7668 18.9881C91.3509 19.0041 91.9744 19.012 92.6373 19.012C93.2373 19.012 93.8212 19.0041 94.3895 18.9881C94.9736 18.9721 95.455 18.9562 95.8339 18.9403ZM109.818 18.9403V19.4185L100.82 35.3207H104.751C105.414 35.3207 105.99 35.241 106.479 35.0816C106.984 34.9062 107.403 34.6432 107.735 34.2924C108.081 33.9258 108.358 33.4395 108.563 32.8337C108.768 32.228 108.91 31.4867 108.989 30.6098H109.534C109.487 31.1199 109.463 31.7895 109.463 32.6185C109.463 32.9373 109.471 33.3997 109.487 34.0055C109.518 34.6112 109.565 35.233 109.629 35.8707C109.044 35.8388 108.405 35.8229 107.711 35.8229C107.016 35.8069 106.321 35.7989 105.627 35.7989C104.948 35.7989 104.317 35.7989 103.733 35.7989C102.77 35.7989 101.759 35.8069 100.702 35.8229C99.6442 35.8229 98.6497 35.8388 97.7183 35.8707V35.3924L106.763 19.4903H102.833C102.138 19.4903 101.546 19.5699 101.057 19.7294C100.583 19.8888 100.181 20.1438 99.8493 20.4946C99.5337 20.8454 99.2811 21.3236 99.0916 21.9294C98.9022 22.5193 98.7601 23.2446 98.6654 24.1055H98.1208C98.1525 23.8663 98.1682 23.5794 98.1682 23.2446C98.184 22.9098 98.1919 22.5591 98.1919 22.1924C98.1919 21.8736 98.1762 21.4112 98.1445 20.8055C98.1288 20.1997 98.0893 19.578 98.0261 18.9403C98.5944 18.9562 99.21 18.9721 99.873 18.9881C100.552 19.0041 101.223 19.012 101.886 19.012C102.564 19.012 103.18 19.012 103.733 19.012C104.695 19.012 105.721 19.012 106.811 19.012C107.9 18.996 108.902 18.9721 109.818 18.9403ZM118.879 18.8446L124.657 33.862C124.877 34.4519 125.13 34.8504 125.414 35.0576C125.714 35.2649 125.99 35.3765 126.243 35.3924V35.8707C125.864 35.8388 125.414 35.8229 124.894 35.8229C124.388 35.8069 123.875 35.7989 123.354 35.7989C122.691 35.7989 122.076 35.8069 121.508 35.8229C120.939 35.8229 120.481 35.8388 120.134 35.8707V35.3924C120.939 35.3606 121.444 35.225 121.65 34.9859C121.87 34.7308 121.823 34.1968 121.508 33.3837L117.246 21.762L117.624 21.3316L113.694 31.7098C113.41 32.4272 113.235 33.025 113.173 33.5033C113.126 33.9816 113.164 34.3562 113.291 34.6272C113.433 34.8982 113.67 35.0895 114.002 35.2011C114.333 35.3128 114.743 35.3765 115.233 35.3924V35.8707C114.759 35.8388 114.277 35.8229 113.789 35.8229C113.315 35.8069 112.865 35.7989 112.439 35.7989C112.06 35.7989 111.72 35.8069 111.421 35.8229C111.137 35.8229 110.876 35.8388 110.639 35.8707V35.3924C110.971 35.3128 111.302 35.1134 111.634 34.7946C111.965 34.4758 112.281 33.9337 112.581 33.1685L118.074 18.8446C118.2 18.8446 118.335 18.8446 118.477 18.8446C118.619 18.8446 118.752 18.8446 118.879 18.8446ZM121.365 28.9837V29.462H114.309L114.546 28.9837H121.365Z" fill="#003A59"/>
</g>
<defs>
<clipPath id="clip0_958_2207">
<rect width="127" height="50" fill="white"/>
</clipPath>
</defs>
</svg>
