<svg width="24" height="24" viewBox="0 0 24 24" fill="none" xmlns="http://www.w3.org/2000/svg">
<path d="M12 0.75C15.0551 0.75 15.4384 0.763148 16.6377 0.818359C17.571 0.837052 18.495 1.01339 19.3691 1.34082C20.1164 1.6298 20.7948 2.0722 21.3613 2.63867C21.9279 3.20515 22.3701 3.88367 22.6592 4.63086C22.9865 5.50479 23.1639 6.42829 23.1826 7.36133C23.2374 8.56123 23.25 8.94469 23.25 12C23.25 15.0551 23.2369 15.4384 23.1826 16.6377C23.1639 17.571 22.9876 18.495 22.6602 19.3691C22.3712 20.1164 21.9288 20.7948 21.3623 21.3613C20.7956 21.928 20.1166 22.3701 19.3691 22.6592C18.4951 22.9866 17.5719 23.1639 16.6387 23.1826C15.4388 23.2374 15.0553 23.25 12 23.25C8.94486 23.25 8.56158 23.2369 7.3623 23.1826C6.42901 23.1639 5.50503 22.9876 4.63086 22.6602C3.88363 22.3712 3.20522 21.9288 2.63867 21.3623C2.07201 20.7956 1.62986 20.1166 1.34082 19.3691C1.01343 18.4951 0.836106 17.5719 0.817383 16.6387C0.762633 15.4388 0.75 15.0553 0.75 12C0.75 8.94488 0.762641 8.56157 0.817383 7.3623C0.836064 6.42901 1.01338 5.50503 1.34082 4.63086C1.62987 3.88358 2.07211 3.20523 2.63867 2.63867C3.20523 2.07211 3.88358 1.62987 4.63086 1.34082C5.50479 1.01347 6.42829 0.836148 7.36133 0.817383C8.56123 0.762633 8.94469 0.75 12 0.75ZM12 2.77734C8.99618 2.77734 8.6403 2.78868 7.4541 2.84277C6.74083 2.85126 6.03414 2.98172 5.36523 3.22949C4.88008 3.4167 4.43899 3.70358 4.07129 4.07129C3.70358 4.43902 3.41669 4.88006 3.22949 5.36523C2.98171 6.03415 2.85127 6.74082 2.84277 7.4541C2.78859 8.64031 2.77734 8.99624 2.77734 12C2.77734 15.0037 2.78868 15.3598 2.84277 16.5459C2.85126 17.2591 2.98174 17.9659 3.22949 18.6348C3.41669 19.1199 3.7036 19.561 4.07129 19.9287C4.439 20.2964 4.88008 20.5833 5.36523 20.7705C6.03415 21.0183 6.74082 21.1487 7.4541 21.1572C8.64021 21.2114 8.9959 21.2227 12 21.2227C15.0041 21.2227 15.3598 21.2113 16.5459 21.1572C17.2592 21.1487 17.9658 21.0183 18.6348 20.7705C19.1199 20.5833 19.561 20.2964 19.9287 19.9287C20.2964 19.561 20.5833 19.1199 20.7705 18.6348C21.0183 17.9659 21.1487 17.2591 21.1572 16.5459C21.2114 15.3598 21.2227 15.0037 21.2227 12C21.2227 8.99624 21.2113 8.64031 21.1572 7.4541C21.1487 6.74082 21.0183 6.03415 20.7705 5.36523C20.5833 4.88008 20.2964 4.439 19.9287 4.07129C19.561 3.7036 19.1199 3.41767 18.6348 3.23047C17.9658 2.98263 17.2593 2.85127 16.5459 2.84277C15.3597 2.78859 15.0038 2.77734 12 2.77734ZM12 6.22266C13.5321 6.22266 15.0016 6.83165 16.085 7.91504C17.1684 8.99843 17.7773 10.4679 17.7773 12C17.7773 13.1426 17.4385 14.2599 16.8037 15.21C16.169 16.1599 15.2664 16.8997 14.2109 17.3369C13.1553 17.7742 11.9937 17.8889 10.873 17.666C9.75241 17.4431 8.72298 16.8929 7.91504 16.085C7.10712 15.277 6.55689 14.2476 6.33398 13.127C6.11112 12.0064 6.22585 10.8446 6.66309 9.78906C7.10034 8.73363 7.84016 7.83101 8.79004 7.19629C9.74007 6.5615 10.8574 6.22266 12 6.22266ZM13.4346 8.53516C12.7495 8.25153 11.9958 8.17765 11.2686 8.32227C10.5412 8.46696 9.87307 8.82422 9.34863 9.34863C8.82419 9.87308 8.46696 10.5411 8.32227 11.2686C8.17757 11.996 8.25133 12.7503 8.53516 13.4355C8.819 14.1207 9.30038 14.7062 9.91699 15.1182C10.5336 15.5301 11.2584 15.75 12 15.75C12.9946 15.75 13.9481 15.3546 14.6514 14.6514C15.3546 13.9481 15.75 12.9945 15.75 12C15.75 11.2585 15.5301 10.5336 15.1182 9.91699C14.7061 9.30031 14.1198 8.81898 13.4346 8.53516ZM18.0049 4.64453C18.7505 4.64453 19.3555 5.24953 19.3555 5.99512C19.3552 6.74049 18.7503 7.34473 18.0049 7.34473C17.2596 7.34454 16.6555 6.74037 16.6553 5.99512C16.6553 5.24965 17.2595 4.64472 18.0049 4.64453Z" fill="white"/>
</svg>
