<svg width="45" height="34" viewBox="0 0 45 34" fill="none" xmlns="http://www.w3.org/2000/svg">
<path d="M19.9594 0.120964C19.1126 -1.8476e-06 18.3868 0 17.5401 0C16.8143 0 15.9675 -1.8476e-06 15.2417 0.120964C14.6369 0.24193 14.153 0.3629 13.6691 0.483866C13.3062 0.604831 12.9434 0.846761 12.5805 1.20966C12.2176 1.57256 11.9756 1.81449 11.7337 2.17739L4.11284 13.4272C3.38704 14.5159 2.78222 15.6046 2.17739 16.6933C1.69352 17.782 1.20966 18.8707 0.967726 19.9594C0.604829 21.169 0.362894 22.3787 0.241928 23.5884C0.120962 24.919 0 26.3706 0 27.7012C0 28.7899 0.120965 29.8786 0.362897 30.9673C0.604829 31.6931 0.967726 32.2979 1.57256 32.7818C2.17739 33.2656 3.02415 33.5076 3.74994 33.6285C4.83863 33.7495 5.92733 33.8705 7.01602 33.8705C8.10472 33.8705 9.31437 33.8705 10.4031 33.6285C11.2498 33.5076 11.9756 33.2656 12.5805 32.7818C13.1853 32.2979 13.6691 31.6931 13.9111 30.9673C14.274 29.8786 14.3949 28.7899 14.3949 27.7012V18.5078L21.6529 2.41932C21.7739 2.05642 21.8948 1.69352 21.8948 1.33062C21.8948 0.967726 21.6529 0.725797 21.411 0.483866C20.9271 0.241934 20.4432 0.120964 19.9594 0.120964Z" fill="#BA6827"/>
<path d="M44.6375 0.60483C44.2746 0.362898 43.7908 0.24193 43.1859 0.120964C42.3392 -1.8476e-06 41.6134 0 40.7666 0C39.9199 0 39.1941 -1.8476e-06 38.3473 0.120964C37.7425 0.24193 37.2586 0.3629 36.7747 0.483866C36.4119 0.604831 36.049 0.846761 35.6861 1.20966C35.3232 1.57256 35.0812 1.81449 34.8393 2.17739L27.3394 13.4272C26.6136 14.5159 26.0088 15.6046 25.404 16.6933C24.9201 17.782 24.4362 18.8707 24.1943 19.9594C23.8314 21.169 23.5895 22.3787 23.4685 23.5884C23.3475 24.919 23.2266 26.3706 23.2266 27.7012C23.2266 28.7899 23.3475 29.8786 23.5895 30.9673C23.8314 31.6931 24.1943 32.2979 24.7991 32.7818C25.404 33.2656 26.2507 33.5076 26.9765 33.6285C28.0652 33.7495 29.1539 33.8705 30.2426 33.8705C31.3313 33.8705 32.42 33.8705 33.6296 33.6285C34.4764 33.5076 35.3232 33.2656 36.0489 32.7818C36.6538 32.2979 37.1376 31.6931 37.3796 30.9673C37.7425 29.8786 37.8634 28.7899 37.8634 27.7012V18.5078L44.7585 2.41932C44.8795 2.05642 45.0004 1.69352 45.0004 1.33062C45.0004 0.967726 44.8795 0.725796 44.6375 0.60483Z" fill="#BA6827"/>
</svg>
