<svg width="24" height="17" viewBox="0 0 24 17" fill="none" xmlns="http://www.w3.org/2000/svg">
<path d="M0.99193 15.7857L4.48001 7.65V3.03571C4.48001 2.48929 4.5412 1.94286 4.72478 1.39643C4.84717 1.03214 5.09195 0.728571 5.39792 0.485714C5.76509 0.242857 6.19345 0.121428 6.62181 0.0607134C7.17256 -9.27331e-07 7.72331 0 8.27406 0C8.8248 0 9.37555 4.61404e-07 9.9263 0.121429C10.3547 0.182143 10.7218 0.303572 11.089 0.54643C11.395 0.789287 11.5785 1.09286 11.7009 1.45714C11.8233 2.00357 11.8845 2.55 11.8845 3.09643C11.8845 3.76428 11.8845 4.49286 11.7621 5.16071C11.7009 5.76786 11.5785 6.375 11.395 6.98214C11.2726 7.52857 11.0278 8.13571 10.783 8.62143C10.4771 9.16786 10.1711 9.71429 9.80391 10.2607L6.00987 15.9071C5.88748 16.0893 5.76509 16.2714 5.5815 16.3929C5.39792 16.5143 5.21434 16.6357 5.03075 16.7571C4.78598 16.8786 4.48001 16.9393 4.23523 16.9393C3.80687 17 3.4397 17 3.01134 17C2.58298 17 2.21582 17 1.78746 16.9393C1.54268 16.9393 1.2979 16.8179 1.05312 16.6964C0.930735 16.6357 0.80835 16.4536 0.80835 16.2714C0.869544 16.15 0.869541 15.9679 0.99193 15.7857Z" fill="#2D4C19"/>
<path d="M16.2294 7.65V3.03571C16.2294 2.48929 16.2906 1.94286 16.4742 1.39643C16.5966 1.03214 16.8414 0.667857 17.1474 0.485714C17.5145 0.242857 17.8817 0.121428 18.31 0.0607134C18.8608 -9.27331e-07 19.4727 0 20.0235 0C20.5742 0 21.125 4.61404e-07 21.6757 0.121429C22.1041 0.182143 22.4713 0.303572 22.7772 0.54643C23.0832 0.789287 23.2668 1.09286 23.3892 1.45714C23.5728 2.00357 23.6339 2.55 23.5728 3.09643C23.5728 3.76428 23.5728 4.49286 23.4504 5.16071C23.3892 5.76786 23.2668 6.375 23.0832 6.98214C22.9608 7.52857 22.716 8.13571 22.4713 8.62143C22.1653 9.16786 21.8593 9.71429 21.4921 10.2607L17.6369 15.9071C17.5145 16.0893 17.3921 16.2714 17.2085 16.3929C17.025 16.5143 16.8414 16.6357 16.6578 16.7571C16.413 16.8786 16.107 16.9393 15.8623 16.9393C15.4951 17 15.0667 17 14.6996 17C14.2712 17 13.9041 17 13.4757 16.9393C13.2309 16.9393 12.9861 16.8179 12.7414 16.6964C12.619 16.6357 12.4966 16.4536 12.4966 16.2714C12.4966 16.0893 12.5578 15.9071 12.619 15.725L16.2294 7.65Z" fill="#2D4C19"/>
</svg>
