<svg width="50" height="38" viewBox="0 0 50 38" fill="none" xmlns="http://www.w3.org/2000/svg">
<path d="M0.402822 35.2857L8.0564 17.1V6.78571C8.0564 5.56429 8.19067 4.34286 8.59349 3.12143C8.86204 2.30715 9.39914 1.62857 10.0705 1.08571C10.8761 0.542856 11.8161 0.271426 12.756 0.135712C13.9644 -2.07286e-06 15.1729 0 16.3813 0C17.5898 0 18.7983 1.03137e-06 20.0067 0.27143C20.9466 0.407144 21.7523 0.678573 22.5579 1.22143C23.2293 1.76429 23.6321 2.44286 23.9006 3.25714C24.1692 4.47857 24.3035 5.7 24.3035 6.92143C24.3035 8.41428 24.3035 10.0429 24.0349 11.5357C23.9006 12.8929 23.6321 14.25 23.2293 15.6071C22.9607 16.8286 22.4236 18.1857 21.8865 19.2714C21.2152 20.4929 20.5438 21.7143 19.7382 22.9357L11.4132 35.5571C11.1447 35.9643 10.8761 36.3714 10.4733 36.6429C10.0705 36.9143 9.66768 37.1857 9.26486 37.4571C8.72776 37.7286 8.0564 37.8643 7.51931 37.8643C6.5794 38 5.77376 38 4.83385 38C3.89393 38 3.08829 38 2.14838 37.8643C1.61129 37.8643 1.07419 37.5929 0.537094 37.3214C0.268549 37.1857 9.53674e-06 36.7786 9.53674e-06 36.3714C0.134283 36.1 0.134277 35.6929 0.402822 35.2857Z" fill="white"/>
<path d="M33.8369 17.1V6.78571C33.8369 5.56429 33.9711 4.34286 34.374 3.12143C34.6425 2.30715 35.1796 1.49286 35.851 1.08571C36.6566 0.542856 37.4622 0.271426 38.4021 0.135712C39.6106 -2.07286e-06 40.9533 0 42.1618 0C43.3703 0 44.5787 1.03137e-06 45.7872 0.27143C46.7271 0.407144 47.5327 0.678573 48.2041 1.22143C48.8755 1.76429 49.2783 2.44286 49.5468 3.25714C49.9496 4.47857 50.0839 5.7 49.9496 6.92143C49.9496 8.41428 49.9496 10.0429 49.6811 11.5357C49.5468 12.8929 49.2783 14.25 48.8755 15.6071C48.6069 16.8286 48.0698 18.1857 47.5327 19.2714C46.8614 20.4929 46.19 21.7143 45.3844 22.9357L36.9251 35.5571C36.6566 35.9643 36.388 36.3714 35.9852 36.6429C35.5824 36.9143 35.1796 37.1857 34.7768 37.4571C34.2397 37.7286 33.5683 37.8643 33.0312 37.8643C32.2256 38 31.2857 38 30.48 38C29.5401 38 28.7345 38 27.7946 37.8643C27.2575 37.8643 26.7204 37.5929 26.1833 37.3214C25.9147 37.1857 25.6462 36.7786 25.6462 36.3714C25.6462 35.9643 25.7805 35.5571 25.9147 35.15L33.8369 17.1Z" fill="white"/>
</svg>
