<svg width="46" height="35" viewBox="0 0 46 35" fill="none" xmlns="http://www.w3.org/2000/svg">
<path d="M20.1815 0.12231C19.3253 -1.86816e-06 18.5915 0 17.7353 0C17.0014 0 16.1452 -1.86816e-06 15.4113 0.12231C14.7998 0.244623 14.3105 0.366939 13.8213 0.489251C13.4543 0.611563 13.0874 0.856186 12.7205 1.22312C12.3535 1.59006 12.1089 1.83468 11.8643 2.20162L4.15861 13.5767C3.42474 14.6775 2.81318 15.7783 2.20162 16.8791C1.71237 17.9799 1.22312 19.0807 0.978497 20.1815C0.61156 21.4046 0.366933 22.6278 0.244621 23.8509C0.122309 25.1963 0 26.6641 0 28.0095C0 29.1103 0.122311 30.2111 0.366936 31.3119C0.61156 32.0458 0.978497 32.6574 1.59006 33.1466C2.20162 33.6359 3.05781 33.8805 3.79168 34.0028C4.89249 34.1251 5.9933 34.2474 7.09411 34.2474C8.19492 34.2474 9.41804 34.2474 10.5189 34.0028C11.375 33.8805 12.1089 33.6359 12.7205 33.1466C13.332 32.6574 13.8213 32.0458 14.0659 31.3119C14.4328 30.2111 14.5552 29.1103 14.5552 28.0095V18.7138L21.8939 2.44625C22.0162 2.07931 22.1385 1.71237 22.1385 1.34543C22.1385 0.978496 21.8939 0.733876 21.6493 0.489251C21.16 0.244626 20.6708 0.12231 20.1815 0.12231Z" fill="#119CE6"/>
<path d="M45.1327 0.611561C44.7657 0.366937 44.2765 0.244623 43.6649 0.12231C42.8087 -1.86816e-06 42.0749 0 41.2187 0C40.3625 0 39.6286 -1.86816e-06 38.7724 0.12231C38.1609 0.244623 37.6716 0.366939 37.1824 0.489251C36.8154 0.611563 36.4485 0.856186 36.0816 1.22312C35.7146 1.59006 35.47 1.83468 35.2254 2.20162L27.642 13.5767C26.9081 14.6775 26.2966 15.7783 25.685 16.8791C25.1958 17.9799 24.7065 19.0807 24.4619 20.1815C24.095 21.4046 23.8503 22.6278 23.728 23.8509C23.6057 25.1963 23.4834 26.6641 23.4834 28.0095C23.4834 29.1103 23.6057 30.2111 23.8503 31.3119C24.095 32.0458 24.4619 32.6574 25.0735 33.1466C25.685 33.6359 26.5412 33.8805 27.2751 34.0028C28.3759 34.1251 29.4767 34.2474 30.5775 34.2474C31.6783 34.2474 32.7791 34.2474 34.0023 34.0028C34.8584 33.8805 35.7146 33.6359 36.4485 33.1466C37.0601 32.6574 37.5493 32.0458 37.7939 31.3119C38.1609 30.2111 38.2832 29.1103 38.2832 28.0095V18.7138L45.255 2.44625C45.3773 2.07931 45.4996 1.71237 45.4996 1.34543C45.4996 0.978496 45.3773 0.733874 45.1327 0.611561Z" fill="#119CE6"/>
</svg>
