<svg width="88" height="16" viewBox="0 0 88 16" fill="none" xmlns="http://www.w3.org/2000/svg">
<path d="M8.00014 1L5.72514 5.61L0.640137 6.345L4.32014 9.935L3.45014 15L8.00014 12.61L12.5501 15L11.6801 9.935L15.3601 6.35L10.2751 5.61L8.00014 1Z" fill="white"/>
<path d="M26.0001 1L23.7251 5.61L18.6401 6.345L22.3201 9.935L21.4501 15L26.0001 12.61L30.5501 15L29.6801 9.935L33.3601 6.35L28.2751 5.61L26.0001 1Z" fill="white"/>
<path d="M44.0001 1L41.7251 5.61L36.6401 6.345L40.3201 9.935L39.4501 15L44.0001 12.61L48.5501 15L47.6801 9.935L51.3601 6.35L46.2751 5.61L44.0001 1Z" fill="white"/>
<path d="M62.0001 1L59.7251 5.61L54.6401 6.345L58.3201 9.935L57.4501 15L62.0001 12.61L66.5501 15L65.6801 9.935L69.3601 6.35L64.2751 5.61L62.0001 1Z" fill="white"/>
<path d="M80.0001 3.26L81.3801 6.05L81.6101 6.55L82.1101 6.625L85.1901 7.07L83.0001 9.22L82.6251 9.585L82.7151 10.085L83.2401 13.15L80.4851 11.705L80.0001 11.5L79.5351 11.745L76.7801 13.17L77.2801 10.105L77.3701 9.605L77.0001 9.22L74.7901 7.045L77.8701 6.6L78.3701 6.525L78.6001 6.025L80.0001 3.26ZM80.0001 1L77.7251 5.61L72.6401 6.345L76.3201 9.935L75.4501 15L80.0001 12.61L84.5501 15L83.6801 9.935L87.3601 6.35L82.2751 5.61L80.0001 1Z" fill="white"/>
<path d="M80.0001 3.26L81.3801 6.05L81.6101 6.55L82.1101 6.625L85.1901 7.07L83.0001 9.22L82.6251 9.585L82.7151 10.085L83.2401 13.15L80.4851 11.705L80.0001 11.5L79.5351 11.745L76.7801 13.17L77.2801 10.105L77.3701 9.605L77.0001 9.22L74.7901 7.045L77.8701 6.6L78.3701 6.525L78.6001 6.025L80.0001 3.26ZM80.0001 1L77.7251 5.61L72.6401 6.345L76.3201 9.935L75.4501 15L80.0001 12.61L84.5501 15L83.6801 9.935L87.3601 6.35L82.2751 5.61L80.0001 1Z" fill="white"/>
</svg>
