<svg width="88" height="16" viewBox="0 0 88 16" fill="none" xmlns="http://www.w3.org/2000/svg">
<path d="M7.99989 1L5.72489 5.61L0.639893 6.345L4.31989 9.935L3.44989 15L7.99989 12.61L12.5499 15L11.6799 9.935L15.3599 6.35L10.2749 5.61L7.99989 1Z" fill="#BA6827"/>
<path d="M25.9999 1L23.7249 5.61L18.6399 6.345L22.3199 9.935L21.4499 15L25.9999 12.61L30.5499 15L29.6799 9.935L33.3599 6.35L28.2749 5.61L25.9999 1Z" fill="#BA6827"/>
<path d="M43.9999 1L41.7249 5.61L36.6399 6.345L40.3199 9.935L39.4499 15L43.9999 12.61L48.5499 15L47.6799 9.935L51.3599 6.35L46.2749 5.61L43.9999 1Z" fill="#BA6827"/>
<path d="M61.9999 1L59.7249 5.61L54.6399 6.345L58.3199 9.935L57.4499 15L61.9999 12.61L66.5499 15L65.6799 9.935L69.3599 6.35L64.2749 5.61L61.9999 1Z" fill="#BA6827"/>
<path d="M79.9999 3.26L81.3799 6.05L81.6099 6.55L82.1099 6.625L85.1899 7.07L82.9999 9.22L82.6249 9.585L82.7149 10.085L83.2399 13.15L80.4849 11.705L79.9999 11.5L79.5349 11.745L76.7799 13.17L77.2799 10.105L77.3699 9.605L76.9999 9.22L74.7899 7.045L77.8699 6.6L78.3699 6.525L78.5999 6.025L79.9999 3.26ZM79.9999 1L77.7249 5.61L72.6399 6.345L76.3199 9.935L75.4499 15L79.9999 12.61L84.5499 15L83.6799 9.935L87.3599 6.35L82.2749 5.61L79.9999 1Z" fill="#BA6827"/>
<path d="M79.9999 3.26L81.3799 6.05L81.6099 6.55L82.1099 6.625L85.1899 7.07L82.9999 9.22L82.6249 9.585L82.7149 10.085L83.2399 13.15L80.4849 11.705L79.9999 11.5L79.5349 11.745L76.7799 13.17L77.2799 10.105L77.3699 9.605L76.9999 9.22L74.7899 7.045L77.8699 6.6L78.3699 6.525L78.5999 6.025L79.9999 3.26ZM79.9999 1L77.7249 5.61L72.6399 6.345L76.3199 9.935L75.4499 15L79.9999 12.61L84.5499 15L83.6799 9.935L87.3599 6.35L82.2749 5.61L79.9999 1Z" fill="#BA6827"/>
</svg>
