<svg width="13" height="13" viewBox="0 0 13 13" fill="none" xmlns="http://www.w3.org/2000/svg">
<path d="M12.8327 4.56293C12.7293 4.24484 12.455 4.0144 12.1246 3.96614L8.7779 3.47972L7.28114 0.44951C6.98577 -0.149837 6.00528 -0.149837 5.70991 0.44951L4.21315 3.47972L0.874395 3.96614C0.544069 4.01427 0.269804 4.24565 0.167224 4.56293C0.0638369 4.88102 0.150553 5.22896 0.389862 5.46114L2.81024 7.81403L2.2398 11.1441C2.18373 11.4726 2.31872 11.8066 2.58854 12.0019C2.85851 12.1974 3.21774 12.2228 3.51217 12.0677L6.49519 10.4947L9.48695 12.0677C9.61494 12.1352 9.75516 12.1685 9.89445 12.1685C10.0758 12.1685 10.2572 12.1124 10.4115 12.0021C10.6815 11.8048 10.8163 11.4728 10.7603 11.1442L10.1898 7.81417L12.6102 5.46128C12.8494 5.22977 12.9361 4.88022 12.8327 4.56293Z" fill="#FF9500"/>
</svg>
