<svg width="63" height="63" viewBox="0 0 63 63" fill="none" xmlns="http://www.w3.org/2000/svg">
<path d="M28.3052 21.6121C28.3111 21.5543 28.8306 16.4491 28.7977 16.7726C28.7977 16.7726 28.2723 21.9355 28.3052 21.6121Z" fill="#E4E4E4"/>
<path d="M23.162 26.875C22.1376 28.0046 21.3444 28.9533 20.4473 30.2828C21.2691 28.957 22.1012 27.9224 23.162 26.875Z" fill="#E4E4E4"/>
<path d="M21.587 34.9219C21.2417 35.5905 21.2143 35.7044 21.5812 34.9219H21.587Z" fill="#E4E4E4"/>
<path d="M19.3591 50.3145C19.2873 50.3864 19.127 50.4826 18.9123 50.9388C18.7749 51.208 18.6489 51.4886 18.5401 51.7693C16.5756 49.4497 15.0063 46.7922 13.9983 43.9401C12.3808 39.3627 11.66 35.4937 13.46 31.0938C14.0725 31.5537 16.5007 32.9303 18.4942 33.7627C16.4676 38.1882 16.2714 42.0998 18.6145 46.5517C18.1861 46.4659 17.8822 46.6817 17.7898 47.0156C17.6867 47.3878 17.87 47.8288 17.996 48.1611C18.2791 48.887 19.0978 50.0145 19.3591 50.3145Z" fill="#E4E4E4"/>
<path d="M44.0609 54.5486C39.1061 60.0369 28.7511 60.4171 22.744 55.7858C22.5092 55.6025 22.2744 55.4192 22.0453 55.2302C21.9618 54.2856 21.3871 51.9343 20.7166 50.8603C21.0129 50.7862 21.2056 50.5988 21.2835 50.3906C25.6746 55.4111 32.0972 58.343 38.5627 57.0973C40.5673 56.7078 42.4687 55.8201 44.0609 54.5486Z" fill="#E4E4E4"/>
<path d="M25.2925 24.724C24.8744 25.1134 24.4678 25.5143 24.0726 25.9266C19.5062 23.0382 15.6001 16.3126 13.5917 11.4538C13.2547 10.638 13.2807 10.0608 14.6455 9.5238C17.3049 8.48266 19.6669 7.74371 22.0967 7.12403C22.7439 6.95799 23.288 6.75175 23.6889 7.04958C22.6236 12.9372 23.1906 19.117 25.2925 24.724Z" fill="#E4E4E4"/>
<path d="M22.7877 38.8208C22.1915 39.5828 21.2811 40.404 20.9567 41.3279C20.8205 41.7156 20.4585 42.4883 20.5698 42.9026C19.5234 39.0046 21.1714 35.017 23.4669 31.9205C26.4343 27.9176 32.5382 22.8133 35.7342 21.1685C38.2933 19.8558 40.718 19.478 43.2852 21.1248C45.1412 22.3154 46.4756 24.1646 47.5709 26.0783C50.381 30.988 51.8993 36.6295 51.933 42.2864C51.9082 38.1112 49.4868 33.7495 46.5851 30.8906C45.1342 29.4611 43.3555 27.9152 41.2779 27.7309C38.9322 27.5228 36.5524 28.0702 34.3871 28.9464C29.4482 30.9451 26.1209 34.5606 22.7877 38.8208Z" fill="#E4E4E4"/>
<path d="M19.5241 55.4628C19.6018 55.6306 19.7157 55.7972 19.8893 55.8611C20.1102 55.9423 20.3677 55.8247 20.507 55.635C20.8419 55.1791 20.7696 53.9977 20.0514 53.8027C19.1262 53.5514 19.305 54.9895 19.5241 55.4628Z" fill="#E4E4E4"/>
<path d="M6.77447 41.5026C6.71037 41.5295 6.89297 43.5639 4.96694 45.0042C4.95177 45.0156 4.89996 45.0673 4.88208 45.066C6.23036 45.1608 7.50031 46.0802 8.10935 47.2868C7.94028 46.5378 8.20553 45.6818 8.52944 44.9857C8.85335 44.2895 9.41304 43.7056 10.0949 43.3525C9.02934 43.6171 7.42329 42.9576 6.84479 41.632C6.82976 41.5975 6.80838 41.5596 6.8004 41.5228C6.79678 41.5061 6.80957 41.4981 6.7846 41.5004C6.78051 41.5008 6.77721 41.5014 6.77447 41.5026Z" fill="#E4E4E4"/>
<path d="M41.8083 38.9179C40.6873 38.6777 39.9548 39.8515 39.2253 39.8228C38.0367 39.7539 37.9932 36.5659 35.0673 37.2112C32.3256 37.8278 31.1882 40.3012 32.45 42.1825C33.6468 43.9777 34.6581 42.5297 35.6343 42.423C36.1142 42.3773 36.5788 42.9318 37.1062 43.3394C37.7477 43.8319 38.5609 44.0954 39.3742 44.0954C41.1327 44.0954 42.5617 42.8069 42.9194 41.2719C43.1497 40.3044 42.7823 39.1346 41.8083 38.9179ZM42.0832 41.0713C41.8713 41.982 41.1669 42.7667 40.2906 43.0816C39.4143 43.3909 38.3719 43.2248 37.6331 42.6578C37.5186 42.572 37.404 42.4688 37.2838 42.3715C36.2321 41.4444 35.6732 41.3149 34.3629 41.982C33.7672 42.2913 33.6069 42.3715 33.1659 41.7071C32.1816 40.243 33.2273 38.4974 35.2563 38.0531C36.4934 37.7782 36.9001 38.3452 37.6274 39.5594C38.0455 40.2581 38.5838 40.6475 39.1738 40.6819C40.2384 40.7459 40.9987 39.6125 41.6251 39.7599C42.0848 39.8597 42.1978 40.6059 42.0832 41.0713Z" fill="#5B3516"/>
<path d="M38.8989 10.0555C38.9564 10.0594 41.3666 10.2205 41.2127 10.2102C41.4361 10.2102 41.6251 10.0383 41.6422 9.80929C41.6537 9.57438 41.4762 9.36828 41.2413 9.35108L38.9562 9.19643C38.7213 9.17923 38.5151 9.36254 38.498 9.59731C38.4808 9.83215 38.6583 10.0383 38.8989 10.0555Z" fill="#5B3516"/>
<path d="M34.3228 9.75295C34.3804 9.75678 36.7963 9.91786 36.6424 9.90759C36.8657 9.90759 37.0547 9.73575 37.0662 9.50671C37.0834 9.27188 36.9058 9.0657 36.671 9.05424L34.3858 8.89959C34.151 8.88239 33.9391 9.05997 33.9277 9.30047C33.9105 9.53531 34.088 9.74148 34.3228 9.75295Z" fill="#5B3516"/>
<path d="M22.7633 43.0418C21.9559 41.049 21.9557 38.7629 22.7627 36.7704C22.8517 36.5503 22.7457 36.3 22.5259 36.2108C22.3061 36.1227 22.0555 36.2281 21.9663 36.4479C21.0764 38.6454 21.0767 41.1665 21.9668 43.3645C22.0563 43.5851 22.3069 43.6897 22.5264 43.6014C22.7462 43.5122 22.8522 43.2619 22.7633 43.0418Z" fill="#5B3516"/>
<path d="M23.2273 44.25C23.149 44.0257 22.9048 43.9066 22.6806 43.9851C22.4563 44.0632 22.338 44.3079 22.4157 44.5319L22.5519 44.9245C22.6295 45.1487 22.8736 45.2675 23.0981 45.1904C23.3224 45.113 23.4415 44.8683 23.364 44.6443L23.2273 44.25Z" fill="#5B3516"/>
<path d="M5.78899 15.0256C7.37463 15.2718 7.30398 15.267 7.36567 15.267C7.89135 15.267 7.95264 14.4944 7.43139 14.4129L5.9221 14.1772C5.68496 14.1403 5.46767 14.3005 5.43131 14.5348C5.3944 14.7692 5.55464 14.989 5.78899 15.0256Z" fill="#5B3516"/>
<path d="M7.88159 13.8921C7.94758 14.0621 8.11006 14.1659 8.28177 14.1659C8.58188 14.1659 8.79213 13.8632 8.68195 13.5806L8.24374 12.4539C8.15788 12.2329 7.90871 12.123 7.68779 12.2089C7.46658 12.2947 7.35696 12.5436 7.44281 12.7648L7.88159 13.8921Z" fill="#5B3516"/>
<path d="M58.2226 15.3181C56.8322 14.9522 55.1401 13.2638 54.8034 11.2861C54.6735 10.607 54.7519 10.1026 54.7519 9.95171C54.8557 9.71425 54.7292 9.4655 54.5114 9.36751C54.2478 9.25445 53.9663 9.39851 53.8756 9.62521C51.6634 13.246 48.2067 13.4373 48.0854 13.4854C47.6506 13.4687 47.447 14.0219 47.8276 14.2815C49.7635 15.5129 51.0177 17.9699 50.949 20.404C50.9355 20.9175 51.6582 21.0074 51.7909 20.5357C52.0887 19.4761 52.9536 18.4108 54.3625 17.3628C55.4392 16.5667 56.7736 16.1314 58.1081 16.16C58.6379 16.1464 58.7005 15.4344 58.2226 15.3181ZM53.847 16.6755C52.9135 17.3685 52.1861 18.0901 51.6821 18.8175C51.3557 17.0133 50.4221 15.3181 49.0991 14.1612C51.0615 13.6712 52.7691 12.5294 53.9043 11.0914C54.0302 11.9301 54.2494 12.7719 54.7634 13.5198C55.107 14.0524 55.7084 14.8542 56.556 15.4555C55.5824 15.6618 54.6546 16.0799 53.847 16.6755Z" fill="#5B3516"/>
<path d="M9.99338 42.9311C9.1863 43.133 7.84056 42.6225 7.32449 41.6367C7.29586 41.5796 7.26723 41.5222 7.2214 41.4364C7.18583 41.1696 6.908 41.0004 6.61431 41.0984C6.61431 41.1042 6.60858 41.1042 6.60858 41.1042C6.28635 41.2424 6.33905 41.5605 6.31648 41.7857C6.10344 43.7017 4.84888 44.5133 4.67276 44.6894C4.30052 44.9021 4.43086 45.4605 4.8503 45.4913C6.01295 45.5715 7.16984 46.3732 7.7254 47.4786C7.94816 47.9241 8.6477 47.6817 8.5272 47.1865C8.41268 46.6653 8.5444 45.9666 8.91669 45.1648C9.20305 44.552 9.68985 44.0422 10.2912 43.733C10.486 43.6299 10.5718 43.4008 10.4974 43.2004C10.4172 42.9942 10.1996 42.8797 9.99338 42.9311ZM7.71967 46.0067C7.18704 45.4569 6.52839 45.0388 5.82395 44.8154C5.87022 44.7229 6.6502 44.0297 7.02093 42.6849C7.52893 43.2377 8.19573 43.5736 8.86513 43.7388C8.28643 44.3507 7.89025 45.2026 7.71967 46.0067Z" fill="#5B3516"/>
<path d="M45.0443 22.4466C44.9412 21.977 44.672 21.6161 44.2597 21.0663C43.3698 19.8586 42.4388 18.9977 41.6079 18.4432L43.286 5.53398C43.3611 4.94605 42.9142 4.45154 42.3754 4.41712L38.9333 4.17088C38.7386 4.15942 38.5553 4.27393 38.4923 4.45725C38.3262 4.93839 38.0456 5.33927 37.679 5.60843C37.0089 6.10097 36.0353 6.1353 35.4167 5.68289C34.9987 5.37933 34.7066 4.89252 34.5004 4.14222C34.4488 3.96471 34.2942 3.83866 34.1167 3.82726L30.6689 3.58096C30.1362 3.5409 29.6666 3.93038 29.615 4.46871L29.5692 4.91546L24.2486 4.27393C24.0367 4.24534 23.8362 4.38852 23.7847 4.59469C23.6129 5.24188 23.4754 5.86613 23.3551 6.47899C22.9301 6.43246 22.4688 6.57925 21.992 6.70802C19.4559 7.35472 17.0097 8.13452 14.4893 9.12499C14.1113 9.2739 13.1147 9.66339 12.9888 10.5625C12.9315 10.9806 13.0919 11.3644 13.1949 11.6163C13.3782 12.0573 13.5672 12.4984 13.7619 12.9279C9.95948 15.1598 10.6416 14.7949 10.2397 14.984C9.94759 15.1214 9.62113 15.2703 9.40349 15.5739C8.93189 16.2387 9.38673 17.2609 9.71848 17.9965C9.90749 18.4146 10.085 18.7926 10.2683 19.1534L10.2225 19.205C8.94935 20.6966 6.24164 22.8963 5.8984 23.2083C5.64489 23.4114 5.26838 23.6488 5.26838 24.0674C5.25122 24.5428 5.63493 24.9208 5.88693 25.1671C8.28118 27.64 9.7122 29.1778 12.9315 31.2609C12.817 31.5645 12.7138 31.8566 12.6279 32.1143C11.242 36.3066 12.2729 40.3444 13.5959 44.0842C14.5752 46.8677 16.0758 49.4851 18.0574 51.8562C17.3243 53.8244 17.1265 56.4967 18.8077 57.7381C20.1553 58.7358 22.2406 58.2332 22.4731 56.123L22.4789 56.1287C28.7219 60.9359 39.2634 60.4643 44.3685 54.8573L44.3712 54.8518C44.8253 54.4873 45.2651 54.0835 45.6802 53.6488H45.6857C45.7207 53.6278 45.7416 53.6108 45.8118 53.5571H45.8175C50.405 50.241 52.9709 43.941 52.2091 37.8816C51.4416 31.8737 48.8987 26.3927 45.0443 22.4466ZM42.2895 20.1042C41.5391 19.7036 41.2775 19.6578 40.6229 19.52C38.2892 19.2281 37.4478 19.8551 35.537 20.7857C32.159 22.5192 23.8941 29.3772 21.4079 34.3421C21.3925 34.3575 21.2114 34.7065 21.2017 34.7259V34.7316C21.1959 34.7373 21.1959 34.7373 21.1902 34.7431C20.5977 35.9231 20.4193 36.5033 20.1135 37.5952V37.6067C19.694 39.1443 19.5898 41.2193 19.7813 42.7498C20.2051 46.4153 22.8797 49.6169 25.0561 51.6557C29.6106 55.9556 35.7943 57.4811 41.1154 55.8423C35.8176 58.315 27.4328 56.8071 21.7572 50.2812C21.755 50.2239 21.8255 49.9477 21.6656 49.508C21.5396 49.1701 21.3219 48.8837 21.1158 48.626C19.5021 46.5799 19.4411 46.4112 18.9222 46.2034L18.9165 46.1976C16.9347 42.2341 16.7158 38.6364 18.8878 33.9412C19.3967 32.8166 20.2083 31.4123 20.291 31.3296C20.3957 31.2642 20.4219 31.1392 20.8061 30.5225C20.8085 30.521 20.8122 30.5194 20.8122 30.5163C21.0664 30.1638 21.6553 29.2346 22.8254 27.9015C26.0195 24.2864 29.5066 21.4367 33.6699 19.2279C35.9023 18.0298 37.7151 17.4593 40.1017 18.5693C40.3766 18.6952 40.6515 18.8442 40.9149 19.0103C40.9207 19.0103 40.9207 19.0159 40.9264 19.0159C41.2916 19.273 41.6933 19.5197 42.2895 20.1042ZM34.9789 22.0817C35.0202 22.1784 35.0948 22.2616 35.1986 22.3073C39.26 24.096 40.5999 29.0177 39.3193 31.0182C38.9395 31.6122 38.1305 32.1105 37.3802 31.8633C36.869 31.695 36.4607 31.2167 35.997 30.797C35.2649 30.132 34.5294 29.8691 33.8638 30.0372C32.7949 30.3082 32.4572 31.4801 31.8973 32.1164C31.0911 33.0319 29.5843 32.9732 28.5753 32.4545C27.4732 31.8878 26.6513 30.8561 25.8432 29.752C28.0341 27.4036 32.25 23.7085 34.9789 22.0817ZM38.5309 55.3831C38.5211 55.4219 38.5244 55.4599 38.5253 55.4981C38.335 55.4692 31.2891 57.0148 24.6456 50.0367C24.4953 49.2965 24.5401 48.5224 24.7827 47.7937C24.9684 47.2369 25.3948 46.8026 25.9838 46.5713C27.0537 46.1507 28.4307 46.6907 28.9307 47.7257C29.2492 48.3863 29.3529 49.3507 30.1207 49.8729C30.8911 50.3961 31.7905 50.1481 32.5838 49.9296C32.7363 49.8877 32.8873 49.846 33.0349 49.8108C34.5573 49.4484 36.2529 49.9341 37.3525 51.0485C38.4521 52.1638 38.9146 53.8652 38.5309 55.3831ZM19.4777 49.7714C19.409 49.6855 19.346 49.5939 19.283 49.5023C18.441 48.3144 18.4086 48.0075 18.3781 47.9501C18.2616 47.6417 18.0318 47.0367 18.361 46.9708C18.4186 46.9708 18.4564 46.9545 18.5213 46.9708C18.5786 47.0109 18.689 46.9218 19.0998 47.4577C20.69 49.4767 20.7528 49.5184 20.858 49.8115C20.9153 49.9489 20.9268 50.1036 20.8924 50.2124C20.8731 50.2317 20.8774 50.256 20.8695 50.264C20.8638 50.2812 20.8523 50.2926 20.8523 50.2926C20.8523 50.2984 20.8466 50.2984 20.8466 50.3041C20.3821 49.7382 19.916 49.6401 19.4777 49.7714ZM30.4684 4.55457C30.4741 4.48591 30.5314 4.44005 30.5944 4.44005C30.6899 4.44005 30.6005 4.44007 33.7616 4.66342C34.0193 5.44232 34.3973 6.00358 34.907 6.37594C36.1961 7.32063 38.3458 6.91469 39.1853 5.04717C42.7828 5.33622 42.3306 5.20216 42.4327 5.41939L40.8004 17.9565C40.3995 17.7445 39.9928 17.5727 39.5748 17.4467C37.2746 16.6812 35.3964 17.3322 33.2633 18.4719C31.6296 19.3434 29.3191 20.8297 28.7731 21.284C28.7708 21.284 28.7716 21.284 28.7708 21.284C30.0321 8.85478 27.9934 29.0046 29.9701 9.46288C30.0288 9.46672 32.1948 9.60835 32.072 9.60033C32.6151 9.60033 32.6501 8.78093 32.0949 8.74123L30.056 8.60379L30.3768 5.43659L30.4684 4.55457ZM24.5235 5.17316L29.4776 5.76881C27.9395 21.0224 28.0172 20.1765 27.8338 21.9828C26.7799 22.8024 25.7564 23.7053 25.4914 23.9586C25.4857 23.9586 25.4799 23.9644 25.4799 23.9644C25.4576 23.9421 25.3639 23.6506 25.3539 23.6207C23.2745 17.7314 23.0945 10.9375 24.5235 5.17316ZM21.9405 17.6472L20.5717 15.3448C20.6232 15.3219 20.6805 15.2932 20.7492 15.2589C22.8674 14.2001 23.4064 16.6627 21.9405 17.6472ZM19.5007 15.0355C19.0106 15.2315 18.6109 15.2828 18.2063 14.9382C17.8439 14.6358 18.277 14.0502 18.7962 13.8557L19.5007 15.0355ZM13.991 11.2898C13.7376 10.6938 13.6749 10.3659 14.8043 9.92682C16.4137 9.29103 18.0517 8.72404 19.6667 8.24297C22.5897 7.36392 23.143 7.34125 23.2005 7.32662C22.717 10.0916 22.6632 13.4835 22.7709 14.5659C22.1409 14.0791 21.3219 14.102 20.3197 14.6289L20.1822 14.6976C20.0734 14.5144 19.6496 13.8042 19.5465 13.6323C19.9618 13.5653 20.3442 13.5374 20.7721 13.5922C21.0059 13.6052 21.1288 13.5283 21.1845 13.2944C21.2313 13.0139 21.09 12.8561 20.8523 12.8362C20.2738 12.7733 19.7011 12.8134 19.1399 12.9451C19.0038 12.7545 18.9872 12.5812 18.7504 12.5156C18.4544 12.4497 18.2043 12.7107 18.2979 12.9451C18.3266 13.0252 18.361 13.1111 18.4067 13.1971C16.8815 13.9097 16.981 15.654 18.6473 15.9347C18.9852 15.9862 19.4033 15.9061 19.8959 15.6942L21.2246 17.9278C20.7263 18.0194 20.2624 17.9049 19.8386 17.6013C19.661 17.4696 19.5236 17.504 19.4377 17.5555C19.2113 17.6969 19.1134 18.047 19.3919 18.2142C19.7068 18.4432 20.0791 18.5978 20.4915 18.6724C20.8809 18.741 21.2647 18.7182 21.6369 18.615C21.6843 18.6826 22.0006 19.2587 22.1753 19.3023C22.2636 19.3318 22.3561 19.3256 22.4617 19.2623C22.6195 19.172 22.7186 18.9378 22.5991 18.7468L22.3299 18.2944C22.5864 18.1288 22.8668 17.8786 23.0516 17.6013C23.3013 19.4795 23.9123 22.2004 24.7927 24.6058C24.7895 24.6089 24.0697 25.3115 24.008 25.3733C19.6615 22.419 15.8866 15.9317 13.991 11.2898ZM10.9499 15.5853L14.1285 13.7125C16.0493 17.7823 19.4385 23.2181 23.1375 25.82C23.2119 25.8715 23.2979 25.9345 23.4009 25.9975C23.3456 26.0548 23.2684 26.1337 22.8604 26.5725C21.4652 27.9492 20.8733 28.8408 19.9129 30.3216H19.9073C15.6759 26.5609 12.4881 22.1203 10.5031 17.6414C9.64838 15.7576 10.132 16.0856 10.9499 15.5853ZM14.5867 27.7615L12.8742 26.3297C12.9321 26.2719 13.0825 26.1046 13.1663 26.0376C14.3704 24.9415 15.4528 26.5925 14.5867 27.7615ZM11.8777 26.387C11.5794 26.6439 11.2836 26.8122 10.8468 26.6562C10.5372 26.5324 10.6409 26.0843 10.8525 25.82C10.8983 25.7684 10.9499 25.7111 11.0071 25.6596L11.8777 26.387ZM9.58103 27.6527C9.22735 27.3369 6.20591 24.3613 6.1332 24.119C6.19058 24.0696 9.66359 21.2138 10.6864 19.9782C11.6396 21.7978 12.7309 23.4982 13.8536 25.0067C13.3782 25.0353 12.9086 25.3103 12.4332 25.82L12.353 25.9001C12.2833 25.842 11.6179 25.2888 11.5741 25.253C11.7001 25.1842 11.8318 25.1156 11.9636 25.064C12.3928 24.8841 12.6062 24.9137 12.7196 24.7719C12.873 24.5845 12.7426 24.1238 12.3587 24.2335C11.8834 24.3423 11.4367 24.5371 11.03 24.8005L10.841 24.6402C10.5563 24.4029 10.1196 24.7666 10.3428 25.064C10.3829 25.1156 10.4344 25.1671 10.4917 25.2243C9.10986 26.6071 10.801 28.3134 12.4046 26.8223L14.0712 28.2082C13.7047 28.4145 13.3209 28.4488 12.9028 28.3227C12.4269 28.1932 12.2947 28.8873 12.7081 28.97C13.2731 29.1528 14.0287 29.0699 14.621 28.6664C14.7306 28.7436 15.0791 29.0616 15.2453 29.0616C15.5695 29.021 15.6407 28.6407 15.4343 28.4659L15.1021 28.191C15.3244 27.9103 15.4933 27.5258 15.5488 27.1258C15.7399 27.3327 17.2237 29.1289 19.4434 31.0547C18.9591 31.845 18.3332 33.0622 18.2865 33.2024H18.2808C15.358 31.9369 12.1912 29.9468 9.58103 27.6527ZM14.4034 43.7979C12.9255 39.6172 12.1168 35.8473 13.6703 31.742C14.2791 32.1221 14.7547 32.3856 14.8121 32.419C13.6115 37.237 14.9745 42.4143 17.9174 46.1051C17.9224 46.115 17.9264 46.1246 17.9314 46.1346V46.1404C17.9371 46.1633 17.9486 46.1805 17.96 46.2034C17.9543 46.2034 17.9543 46.2034 17.9543 46.2034C17.9063 46.2252 17.7633 46.3066 17.7367 46.3465C17.6597 46.4014 17.5305 46.5329 17.4789 46.6615C17.4675 46.673 17.4618 46.6787 17.4618 46.6902C17.4217 46.7532 17.3988 46.8276 17.3758 46.9021C17.0933 47.9028 18.1919 49.4444 18.7905 50.2926C18.7582 50.3572 18.6534 50.4602 18.4239 50.9569C16.6542 48.752 15.3026 46.3465 14.4034 43.7979ZM21.1501 57.0566C21.1501 57.0623 21.1444 57.0623 21.1444 57.0623C20.6977 57.4632 19.8729 57.4575 19.3174 57.0451C17.7609 55.8946 18.4103 52.8657 19.3002 51.1231C19.4536 50.8067 19.5375 50.7426 19.6324 50.6477H19.6381C19.8709 50.415 20.1793 50.8096 20.354 51.0887C20.9505 52.0558 21.5267 54.284 21.6198 55.2753C21.6942 56.1172 21.5396 56.7129 21.1501 57.0566ZM23.0058 55.4529C22.8225 55.304 22.6392 55.1608 22.4559 55.0119C22.4535 54.9952 22.3934 54.5885 22.3815 54.5766C22.3815 54.2551 21.7162 51.7375 21.3277 51.0887C21.6022 51.4185 22.8969 52.6805 23.7847 53.3853C28.0166 56.8628 33.5153 58.5234 38.6469 57.5204C38.7787 57.4975 38.9047 57.4689 39.0307 57.4403C33.3287 59.5582 27.0477 58.5683 23.0058 55.4529ZM45.3135 52.8584C45.2947 52.8719 45.2296 52.9194 45.2104 52.9386C45.2071 52.9397 44.8776 53.1613 44.4487 53.4312C44.4429 53.4312 44.4429 53.4369 44.4372 53.4369C43.0291 54.3164 41.2924 55.0132 39.4066 55.3572C39.7602 53.6157 39.2137 51.7128 37.9641 50.4453C36.6584 49.1214 34.6449 48.5445 32.8358 48.9752C32.0273 49.168 31.1511 49.5355 30.6039 49.1626C30.1309 48.8407 30.0282 48.0226 29.7043 47.3521C29.0082 45.9102 27.1617 45.1865 25.6697 45.7715C24.5603 46.2076 23.775 47.1576 23.7067 48.9895C23.706 48.9885 23.7052 48.9877 23.7045 48.9868C22.2269 47.2171 20.9039 45.0236 20.6347 42.6524C20.3513 40.1397 20.742 37.6096 21.8087 35.4762L21.8145 35.4704C22.9643 32.9676 24.7484 30.993 25.2582 30.4057C26.5378 32.1396 27.9688 33.6908 30.1363 33.6908C31.0301 33.6908 31.9174 33.3941 32.5422 32.6841C33.5122 31.5824 33.6794 29.7633 35.6925 31.6893C36.1021 32.0811 36.5258 32.4863 37.1114 32.6793C38.2831 33.0658 39.4742 32.3692 40.043 31.4813C40.5422 30.701 40.7309 29.6845 40.6034 28.4599C40.2992 25.5462 38.4147 22.8971 35.7776 21.6333C35.8292 21.6047 35.875 21.5761 35.9265 21.5532C39.8497 19.4924 41.4837 20.0274 44.3627 22.9678C47.7637 26.4259 50.1228 31.1148 51.0855 36.3074C50.7497 36.2846 50.4913 36.6406 50.3283 36.6976C48.838 37.2205 48.1418 38.9483 48.8624 40.3597C49.0609 40.7494 49.3601 41.0801 49.4664 41.4047C49.7302 42.2106 48.9936 43.2757 49.3126 44.3813C49.4738 44.9413 49.9857 45.4384 50.5772 45.4863C50.5771 45.4867 50.577 45.487 50.5768 45.4874C49.5631 48.4714 47.7361 51.1059 45.3135 52.8584ZM50.846 44.6111C50.8451 44.6144 50.8439 44.6177 50.843 44.621C50.8085 44.6214 50.7744 44.6178 50.7394 44.6269C50.502 44.6909 50.2159 44.4138 50.1382 44.1434C49.9039 43.332 50.6429 42.238 50.283 41.1374C50.121 40.6441 49.8134 40.3342 49.6275 39.9693C49.1444 39.0226 49.6091 37.8604 50.6122 37.5086C50.8585 37.4225 50.9704 37.3252 51.0725 37.2245C51.1388 37.159 51.1341 37.1721 51.2293 37.1233C51.2754 37.4114 51.3212 37.6966 51.3558 37.9905C51.6364 40.224 51.4474 42.4921 50.846 44.6111Z" fill="#5B3516"/>
</svg>
