<svg width="59" height="59" viewBox="0 0 59 59" fill="none" xmlns="http://www.w3.org/2000/svg">
<path d="M51.5791 37.0913C51.3959 37.0314 51.2104 36.9957 51.0225 36.9657C50.4544 36.8747 49.7607 36.7779 49.0762 36.6834C48.9956 36.2489 48.9045 35.8168 48.8008 35.3858C47.2693 28.8705 42.857 22.9025 36.7001 20.1634C37.9803 19.0986 39.0243 17.7504 39.718 16.2293C43.0564 8.82316 37.615 0.435249 29.5002 0.414507C22.9365 0.355737 17.6126 6.13474 18.2499 12.6754C18.4873 15.5482 19.9219 18.2539 22.0849 20.1288C15.5453 23.1007 11.1192 29.6541 9.85275 36.6903C9.19015 36.7825 8.5241 36.8758 7.97789 36.9645C7.79005 36.9945 7.60337 37.0302 7.4213 37.0902C5.61789 37.6663 4.88499 39.918 6.0189 41.4379C6.13183 41.5924 6.26205 41.7295 6.39802 41.862C7.124 42.5603 8.78683 44.1218 9.81933 45.0897C9.6073 46.5647 9.39181 48.1285 9.19706 49.5816C9.18785 49.6507 9.17287 49.7533 9.1671 49.8212C8.95507 51.3101 10.18 52.6998 11.6827 52.6537C12.1113 52.6468 12.5227 52.5154 12.8869 52.2999C14.3423 51.4414 15.7873 50.568 17.2243 49.6795C18.6071 50.281 19.9957 50.8699 21.3969 51.4288C21.3301 51.9335 21.2633 52.4382 21.1964 52.9429L20.9406 54.933C20.8703 55.3802 20.8645 55.848 21.0305 56.2767C21.4269 57.4267 22.7797 58.0778 23.9113 57.6491C24.06 57.595 24.2006 57.5212 24.3354 57.4417C25.951 56.4714 27.895 55.2718 29.5014 54.2751C31.2264 55.3755 32.8328 56.4069 34.5325 57.4428C35.3253 57.9856 36.3509 57.9994 37.1529 57.4613C37.8962 56.9761 38.3191 56.022 38.1854 55.1347L38.182 55.1036L38.1739 55.0414L38.1589 54.9169C38.0564 54.0596 37.8489 52.4463 37.713 51.3873C38.3583 51.1292 39.0013 50.8664 39.642 50.5979C40.3576 50.2972 41.0686 49.9906 41.7796 49.6807C43.1854 50.5495 44.5994 51.4057 46.0225 52.2458C46.412 52.4901 46.8545 52.6491 47.3212 52.656C48.8227 52.7044 50.0488 51.3089 49.8368 49.8236L49.8322 49.7752L49.8287 49.7475L49.8218 49.6933L49.8068 49.585C49.6144 48.1365 49.3966 46.5682 49.1857 45.0932C50.217 44.1264 51.8891 42.5546 52.607 41.8655C52.743 41.7329 52.872 41.5958 52.9861 41.4414C54.1166 39.918 53.3802 37.6663 51.5791 37.0913ZM50.6745 39.7797C50.6814 39.7751 50.6814 39.767 50.686 39.7694C50.6895 39.7705 50.6803 39.7694 50.6849 39.7751L50.686 39.7774C50.686 39.7774 50.6745 39.7889 50.6699 39.7935C50.6688 39.7924 50.6688 39.7878 50.6745 39.7797ZM11.2863 35.6924C13.41 29.2208 18.4124 23.4257 25.1328 21.6649C25.4417 21.5819 25.7228 21.3802 25.8957 21.0806C26.2518 20.4653 26.019 19.6759 25.3909 19.3452C24.5659 18.8693 23.8192 18.2632 23.1854 17.5591C20.9648 15.1 20.3587 11.356 21.7415 8.34033C23.9263 3.32878 30.4036 1.67402 34.7226 5.03425C36.7968 6.60374 38.0656 9.14351 38.0898 11.7444C38.1209 13.8946 37.3258 16.0195 35.8992 17.634C35.2573 18.3484 34.5014 18.9603 33.6659 19.4455C33.3882 19.5941 33.1704 19.8442 33.0863 20.1714C32.9296 20.7787 33.2937 21.3975 33.901 21.5554C37.1714 22.3978 40.179 24.298 42.5217 26.7525C45.1548 29.4939 46.9916 32.8979 48.0426 36.5393C47.834 36.5094 47.6335 36.4806 47.4457 36.4529C47.1046 36.4045 46.7623 36.3596 46.4201 36.3158C46.0006 35.5022 45.5731 34.6933 45.1479 33.882L44.3193 32.3367C44.0981 31.8942 43.7996 31.4817 43.3813 31.2051C42.0826 30.2936 40.1859 30.7961 39.5556 32.2538C38.8837 33.8129 38.2304 35.3778 37.6012 36.9565C36.299 37.2584 35.0003 37.5764 33.7097 37.9268C33.1681 36.824 32.6184 35.7085 32.3258 35.1266C31.2218 32.6168 27.7821 32.6156 26.6954 35.1335C26.4592 35.6209 26.1964 36.1637 25.9233 36.7272L24.8701 35.4089C23.9932 34.3107 23.591 32.9371 23.7396 31.5393L23.9367 29.6794C24.1026 28.1215 23.6521 26.5911 22.6691 25.3708L21.9973 24.5365C21.897 24.4121 21.7161 24.3925 21.5917 24.4927C21.4672 24.593 21.4488 24.7739 21.5479 24.8984L22.2197 25.7327C23.1059 26.8331 23.5126 28.2136 23.3628 29.6184L23.1658 31.4782C23.001 33.0281 23.4458 34.5515 24.4195 35.7684L25.6456 37.3022C25.5442 37.5131 25.4417 37.7251 25.3391 37.9383C24.0346 37.5834 22.7221 37.2619 21.405 36.9565C20.7827 35.3951 20.1374 33.8463 19.4725 32.3045C18.8664 30.811 16.9397 30.2821 15.6248 31.2051C15.2054 31.4817 14.9081 31.8954 14.6868 32.3367L13.8583 33.882C13.4331 34.6933 13.0056 35.5022 12.5861 36.3158C12.2439 36.3596 11.9016 36.4045 11.5605 36.4529C11.3911 36.4771 11.2114 36.5036 11.0247 36.529C11.1053 36.2489 11.1918 35.9689 11.2863 35.6924ZM23.6198 48.7185L28.6164 43.7219V45.4274C28.6164 45.4412 28.6175 45.455 28.6175 45.47L23.4055 50.682C23.5011 50.2234 23.5979 49.7636 23.6912 49.3038C23.7316 49.1091 23.7051 48.9017 23.6198 48.7185ZM22.8685 53.2287C22.9756 52.7229 23.0828 52.217 23.19 51.7111L28.6717 46.2294C28.7374 46.7042 28.8641 47.1662 29.0427 47.6064L22.7175 53.9317L22.8685 53.2287ZM28.6164 42.8484V42.9072L23.2568 48.2667C22.9756 47.9729 22.6899 47.6756 22.3995 47.3748L28.4009 41.3734C28.5426 41.8493 28.6164 42.3471 28.6164 42.8484ZM21.9996 46.96C21.7138 46.6638 21.428 46.3677 21.14 46.0704L24.5935 42.6168C24.8954 42.5765 25.1974 42.5373 25.4993 42.497C25.9141 42.4393 26.3025 42.1858 26.5076 41.7848C26.7715 41.2686 27.1782 40.47 27.5643 39.7083C27.8132 40.039 28.0217 40.3962 28.1842 40.7742L21.9996 46.96ZM19.0692 43.942C18.9079 43.7657 18.9517 43.4615 19.1533 43.3451C19.2098 43.3094 19.2812 43.3013 19.3469 43.2898L19.4091 43.2817L19.5336 43.2656C19.5336 43.2656 20.1455 43.1884 20.7147 43.1158L19.4748 44.3568C19.34 44.2186 19.204 44.0791 19.0692 43.942ZM21.6493 42.9982C22.3188 42.9141 22.9872 42.8288 23.6555 42.7412L20.7389 45.6578C20.4497 45.3605 20.1628 45.0644 19.877 44.7705L21.6493 42.9982ZM8.32589 39.7797C8.33165 39.7878 8.33165 39.7924 8.33165 39.7935C8.3282 39.7901 8.31552 39.7774 8.31552 39.7774L8.31667 39.7751C8.32013 39.7694 8.31091 39.7705 8.31552 39.7694C8.31898 39.7682 8.31898 39.7751 8.32589 39.7797ZM19.7986 49.7602C19.0312 49.2681 18.2602 48.7841 17.4859 48.3036C17.3268 48.2068 17.1206 48.1838 16.9374 48.2644C15.2653 48.9973 13.6025 49.7475 11.9466 50.5161C11.6942 50.6682 11.3381 50.4562 11.443 50.167C11.8071 48.4361 12.192 46.5463 12.5354 44.8189C12.6184 44.4064 12.4835 43.9501 12.154 43.6458C11.2874 42.7666 9.21781 40.6716 8.35009 39.8131C9.43099 39.6622 10.8864 39.4467 11.9673 39.2796C12.5446 39.1932 13.1219 39.0964 13.6981 39.0053C14.1429 38.9443 14.5474 38.6712 14.756 38.2367C15.5108 36.6569 16.3082 34.918 17.0307 33.3128L17.0422 33.2886L17.0445 33.2851C17.0514 33.2782 17.0491 33.2621 17.0537 33.2563C17.0975 33.0927 17.3568 33.1157 17.426 33.2505C18.3098 34.8316 19.2121 36.4011 20.1443 37.9556C20.2573 38.1803 20.4509 38.3646 20.7251 38.3773C21.6355 38.4361 22.5458 38.4856 23.4573 38.5248C23.9793 38.5479 24.5025 38.5663 25.0257 38.579C24.8044 39.0399 24.5866 39.4928 24.3838 39.918C22.6311 40.1946 20.7735 40.5057 19.0473 40.7857C18.8549 40.8191 18.6613 40.856 18.4746 40.9205C16.5041 41.5762 15.9002 44.139 17.3868 45.5887C18.7592 46.8678 20.2515 48.2425 21.6516 49.5182C21.5905 49.963 21.5294 50.4078 21.4695 50.8537C20.9164 50.485 20.3587 50.1209 19.7986 49.7602ZM22.4202 55.3122L22.4467 55.19L22.494 54.9699L29.3032 48.1607C29.5002 48.5283 29.7387 48.8763 30.0153 49.1978L22.8224 56.3908C22.6161 56.2686 22.4559 56.0727 22.3983 55.8238C22.3522 55.6556 22.3833 55.4793 22.4202 55.3122ZM23.9194 56.3539C23.8894 56.3666 23.765 56.4265 23.7408 56.4357C23.6682 56.4714 23.5933 56.4956 23.5172 56.5106L30.4002 49.6277L31.231 50.5461L26.6654 55.1117C25.7171 55.5346 24.7721 55.9621 23.9194 56.3539ZM28.1289 54.4629L31.6182 50.9736L32.0158 51.4126C32.1621 51.574 32.2969 51.7445 32.4202 51.9208L30.1893 54.1518C29.9577 54.055 29.7284 53.9582 29.5002 53.8637C29.0623 54.0527 28.6014 54.2543 28.1289 54.4629ZM33.3375 54.3811L33.4896 55.5668C33.1796 55.4309 32.8685 55.2949 32.5585 55.1601L33.3375 54.3811ZM31.9893 54.9146C31.5779 54.7383 31.1688 54.5643 30.7632 54.3926L32.7325 52.4232C32.948 52.8208 33.1117 53.2437 33.2177 53.6862L31.9893 54.9146ZM35.2331 56.3447C34.8609 56.1753 34.4852 56.0059 34.1061 55.8376L33.8918 54.169C33.7408 52.9925 33.2396 51.9047 32.4433 51.0254L30.5396 48.9224C29.6708 47.9625 29.1925 46.7214 29.1925 45.4274V42.8484C29.1925 42.1812 29.075 41.5209 28.8514 40.8975C28.8007 40.7511 28.7558 40.6198 28.6959 40.5069C28.4954 40.054 28.2384 39.6265 27.9273 39.237L27.8524 39.1425C28.0367 38.7772 28.2061 38.4419 28.3363 38.1791L29.2375 36.3884L29.2939 36.2766L29.3216 36.2201L29.3354 36.1925L29.34 36.189C29.3516 36.1821 29.3516 36.1648 29.3608 36.1591C29.3758 36.1464 29.3827 36.1337 29.3965 36.1291C29.4184 36.1153 29.4553 36.1003 29.5002 36.098C29.5463 36.1026 29.5809 36.1176 29.6016 36.1337C29.6143 36.1395 29.6201 36.1521 29.6327 36.1648C29.6408 36.1706 29.6396 36.1879 29.65 36.1948L29.6535 36.1982L29.6673 36.2259L29.695 36.2824L29.7503 36.3953L30.633 38.1953L32.4179 41.7848L32.4295 41.8078C32.6311 42.2054 33.0183 42.5016 33.4931 42.5661C34.9105 42.7597 38.2914 43.2206 39.6696 43.3923C39.7722 43.4073 39.8425 43.4419 39.8967 43.5513C39.9278 43.6481 39.9358 43.7242 39.8897 43.8095C39.884 43.8268 39.8598 43.8417 39.8552 43.8625L39.8333 43.8844C38.4263 45.3179 36.8983 46.8931 35.5166 48.3393C35.2562 48.5859 35.1167 48.9466 35.1974 49.3234L35.6076 51.287C35.845 52.4348 36.2956 54.4156 36.5295 55.5588C36.5871 56.2456 35.8174 56.6593 35.2331 56.3447ZM46.7957 43.6965C46.5169 43.9835 46.3797 44.3972 46.465 44.8189C46.7957 46.4806 47.1645 48.3036 47.5171 49.9734L47.5563 50.167C47.5667 50.2073 47.5816 50.2488 47.5747 50.2914C47.562 50.4838 47.3143 50.6187 47.1357 50.5518L47.1265 50.5507L47.1023 50.5392L47.0527 50.5161C45.3968 49.7463 43.7328 48.9962 42.0585 48.2633C41.8868 48.1895 41.6839 48.1976 41.5134 48.3036C40.7402 48.7841 39.9681 49.2681 39.2006 49.7602C38.6752 50.0978 38.1532 50.4401 37.6323 50.7846L37.4687 49.5654C38.8238 48.3359 40.2527 47.0026 41.5837 45.7719C41.7266 45.6348 41.8637 45.4919 41.9835 45.3329C43.3468 43.4442 42.1391 40.9067 39.8425 40.6693C38.7858 40.493 36.2103 40.0955 34.6523 39.8546C34.4691 39.4813 34.2536 39.0411 34.0266 38.5778C34.075 38.5767 34.1234 38.5755 34.173 38.5744C35.0856 38.5479 35.9983 38.5087 36.9086 38.458C37.3638 38.4349 37.819 38.4061 38.273 38.3773C38.5288 38.3646 38.7397 38.1906 38.8538 37.9556C39.786 36.4011 40.6872 34.8316 41.5722 33.2505C41.6402 33.1123 41.9029 33.0961 41.9444 33.2563C41.949 33.2632 41.9467 33.2805 41.9559 33.2886L41.9674 33.3128C42.6888 34.9145 43.4885 36.6592 44.2421 38.2367C44.4357 38.6354 44.8287 38.942 45.3 39.0053C45.8773 39.0964 46.4535 39.1932 47.0308 39.2796C48.1094 39.4444 49.5729 39.6622 50.648 39.8131C49.7446 40.7085 47.698 42.7816 46.7957 43.6965Z" fill="#5B3516"/>
</svg>
