<svg width="59" height="59" viewBox="0 0 59 59" fill="none" xmlns="http://www.w3.org/2000/svg">
<path d="M29.5 0C13.2068 0 0 13.2068 0 29.5C0 45.7932 13.2068 59 29.5 59C45.7932 59 59 45.7932 59 29.5C59 13.2068 45.7932 0 29.5 0ZM29.5 57.1562C14.2503 57.1562 1.84375 44.7497 1.84375 29.5C1.84375 14.2503 14.2503 1.84375 29.5 1.84375C44.7497 1.84375 57.1562 14.2503 57.1562 29.5C57.1562 44.7497 44.7497 57.1562 29.5 57.1562Z" fill="#003A59"/>
<path d="M29.5 45.979C22.6781 45.979 17.1284 40.4293 17.1284 33.6074H15.2847C15.2847 41.4452 21.6622 47.8227 29.5 47.8227C37.3396 47.8227 43.7171 41.4452 43.7171 33.6074H41.8734C41.8734 40.4293 36.3219 45.979 29.5 45.979Z" fill="#003A59"/>
<path d="M25.0401 21.1057C25.0401 17.7666 22.3224 15.0508 18.9834 15.0508C15.6443 15.0508 12.9248 17.7685 12.9248 21.1057C12.9248 24.4465 15.6425 27.1624 18.9815 27.1624C22.3206 27.1624 25.0401 24.4465 25.0401 21.1057ZM14.7686 21.1057C14.7686 18.7825 16.6584 16.8945 18.9815 16.8945C21.3046 16.8945 23.1945 18.7825 23.1945 21.1057C23.1945 23.4288 21.3046 25.3186 18.9815 25.3186C16.6584 25.3186 14.7686 23.4288 14.7686 21.1057Z" fill="#003A59"/>
<path d="M40.0186 15.0508C36.6778 15.0508 33.9619 17.7685 33.9619 21.1057C33.9619 24.4465 36.6796 27.1624 40.0186 27.1624C43.3577 27.1624 46.0735 24.4447 46.0735 21.1057C46.0735 17.7685 43.3558 15.0508 40.0186 15.0508ZM40.0186 25.3186C37.6955 25.3186 35.8057 23.4288 35.8057 21.1057C35.8057 18.7825 37.6955 16.8945 40.0186 16.8945C42.3418 16.8945 44.2298 18.7825 44.2298 21.1057C44.2298 23.4288 42.3418 25.3186 40.0186 25.3186Z" fill="#003A59"/>
</svg>
