<svg width="55" height="57" viewBox="0 0 55 57" fill="none" xmlns="http://www.w3.org/2000/svg">
<path d="M24.3052 18.6121C24.3111 18.5543 24.8306 13.4491 24.7977 13.7726C24.7977 13.7726 24.2723 18.9355 24.3052 18.6121Z" fill="#DAF2FF"/>
<path d="M19.162 23.877C18.1376 25.0066 17.3444 25.9553 16.4473 27.2847C17.2691 25.9589 18.1012 24.9244 19.162 23.877Z" fill="#DAF2FF"/>
<path d="M17.587 31.9238C17.2417 32.5924 17.2143 32.7064 17.5812 31.9238H17.587Z" fill="#DAF2FF"/>
<path d="M15.3591 47.3126C15.2873 47.3845 15.127 47.4807 14.9123 47.9368C14.7749 48.206 14.6489 48.4867 14.5401 48.7673C12.5756 46.4477 11.0063 43.7903 9.99834 40.9381C8.38078 36.3608 7.65998 32.4917 9.45998 28.0918C10.0725 28.5517 12.5007 29.9283 14.4942 30.7607C12.4676 35.1863 12.2714 39.0979 14.6145 43.5497C14.1861 43.4639 13.8822 43.6798 13.7898 44.0136C13.6867 44.3859 13.87 44.8269 13.996 45.1591C14.2791 45.885 15.0978 47.0126 15.3591 47.3126Z" fill="#DAF2FF"/>
<path d="M40.0609 51.5506C35.1061 57.0388 24.7511 57.4191 18.744 52.7878C18.5092 52.6045 18.2744 52.4211 18.0453 52.2322C17.9618 51.2876 17.3871 48.9363 16.7166 47.8623C17.0129 47.7882 17.2056 47.6008 17.2835 47.3926C21.6746 52.4131 28.0972 55.3449 34.5627 54.0993C36.5673 53.7098 38.4687 52.8221 40.0609 51.5506Z" fill="#DAF2FF"/>
<path d="M21.2925 21.722C20.8744 22.1115 20.4678 22.5123 20.0726 22.9247C15.5062 20.0363 11.6001 13.3107 9.59169 8.45186C9.25467 7.636 9.28067 7.05888 10.6455 6.52184C13.3049 5.4807 15.6669 4.74176 18.0967 4.12208C18.7439 3.95604 19.288 3.74979 19.6889 4.04762C18.6236 9.93528 19.1906 16.115 21.2925 21.722Z" fill="#DAF2FF"/>
<path d="M18.7877 35.8189C18.1915 36.5808 17.2811 37.402 16.9567 38.326C16.8205 38.7136 16.4585 39.4863 16.5698 39.9007C15.5234 36.0027 17.1714 32.015 19.4669 28.9185C22.4343 24.9157 28.5382 19.8113 31.7342 18.1666C34.2933 16.8539 36.718 16.476 39.2852 18.1228C41.1412 19.3134 42.4756 21.1626 43.5709 23.0764C46.381 27.986 47.8993 33.6276 47.933 39.2845C47.9082 35.1093 45.4868 30.7475 42.5851 27.8887C41.1342 26.4591 39.3555 24.9133 37.2779 24.7289C34.9322 24.5208 32.5524 25.0682 30.3871 25.9445C25.4482 27.9432 22.1209 31.5587 18.7877 35.8189Z" fill="#DAF2FF"/>
<path d="M15.5241 52.4647C15.6018 52.6326 15.7157 52.7992 15.8893 52.863C16.1102 52.9443 16.3677 52.8266 16.507 52.637C16.8419 52.181 16.7696 50.9997 16.0514 50.8046C15.1262 50.5533 15.305 51.9914 15.5241 52.4647Z" fill="#DAF2FF"/>
<path d="M2.77447 38.4987C2.71037 38.5256 2.89297 40.56 0.966936 42.0003C0.951771 42.0116 0.899963 42.0634 0.88208 42.0621C2.23036 42.1569 3.50031 43.0763 4.10935 44.2829C3.94028 43.5339 4.20553 42.6779 4.52944 41.9817C4.85335 41.2856 5.41304 40.7017 6.09488 40.3486C5.02934 40.6132 3.42329 39.9537 2.84479 38.628C2.82976 38.5936 2.80838 38.5557 2.8004 38.5189C2.79678 38.5022 2.80957 38.4942 2.7846 38.4965C2.78051 38.4969 2.77721 38.4975 2.77447 38.4987Z" fill="#DAF2FF"/>
<path d="M37.8083 35.9159C36.6873 35.6757 35.9548 36.8495 35.2253 36.8209C34.0367 36.7519 33.9932 33.564 31.0673 34.2092C28.3256 34.8259 27.1882 37.2992 28.45 39.1805C29.6468 40.9758 30.6581 39.5277 31.6343 39.4211C32.1142 39.3753 32.5788 39.9298 33.1062 40.3374C33.7477 40.83 34.5609 41.0934 35.3742 41.0934C37.1327 41.0934 38.5617 39.8049 38.9194 38.2699C39.1497 37.3024 38.7823 36.1326 37.8083 35.9159ZM38.0832 38.0694C37.8713 38.9801 37.1669 39.7647 36.2906 40.0797C35.4143 40.389 34.3719 40.2229 33.6331 39.6559C33.5186 39.57 33.404 39.4669 33.2838 39.3695C32.2321 38.4424 31.6732 38.3129 30.3629 38.9801C29.7672 39.2894 29.6069 39.3695 29.1659 38.7052C28.1816 37.2411 29.2273 35.4954 31.2563 35.0512C32.4934 34.7762 32.9001 35.3432 33.6274 36.5575C34.0455 37.2562 34.5838 37.6456 35.1738 37.68C36.2384 37.7439 36.9987 36.6105 37.6251 36.7579C38.0848 36.8577 38.1978 37.604 38.0832 38.0694Z" fill="#003A59"/>
<path d="M34.8989 7.05747C34.9564 7.06132 37.3666 7.22241 37.2127 7.21212C37.4361 7.21212 37.6251 7.04028 37.6422 6.81124C37.6537 6.57633 37.4762 6.37023 37.2413 6.35303L34.9562 6.19838C34.7213 6.18119 34.5151 6.3645 34.498 6.59927C34.4808 6.8341 34.6583 7.04028 34.8989 7.05747Z" fill="#003A59"/>
<path d="M30.3228 6.74709C30.3804 6.75092 32.7963 6.912 32.6424 6.90173C32.8657 6.90173 33.0547 6.72989 33.0662 6.50085C33.0834 6.26602 32.9058 6.05984 32.671 6.04838L30.3858 5.89373C30.151 5.87653 29.9391 6.05411 29.9277 6.29461C29.9105 6.52945 30.088 6.73562 30.3228 6.74709Z" fill="#003A59"/>
<path d="M18.7633 40.0399C17.9559 38.0471 17.9557 35.7609 18.7627 33.7684C18.8517 33.5483 18.7457 33.298 18.5259 33.2088C18.3061 33.1207 18.0555 33.2262 17.9663 33.446C17.0764 35.6435 17.0767 38.1645 17.9668 40.3626C18.0563 40.5832 18.3069 40.6877 18.5264 40.5995C18.7462 40.5102 18.8522 40.26 18.7633 40.0399Z" fill="#003A59"/>
<path d="M19.2273 41.25C19.149 41.0257 18.9048 40.9066 18.6806 40.9851C18.4563 41.0632 18.338 41.3079 18.4157 41.5319L18.5519 41.9245C18.6295 42.1487 18.8736 42.2675 19.0981 42.1904C19.3224 42.113 19.4415 41.8683 19.364 41.6443L19.2273 41.25Z" fill="#003A59"/>
<path d="M1.78899 12.0217C3.37463 12.2679 3.30398 12.2631 3.36567 12.2631C3.89135 12.2631 3.95264 11.4905 3.43139 11.409L1.9221 11.1733C1.68496 11.1363 1.46767 11.2966 1.43131 11.5309C1.3944 11.7653 1.55464 11.9851 1.78899 12.0217Z" fill="#003A59"/>
<path d="M3.88159 10.8902C3.94758 11.0602 4.11006 11.1639 4.28177 11.1639C4.58188 11.1639 4.79213 10.8612 4.68195 10.5786L4.24374 9.45191C4.15788 9.23099 3.90871 9.12108 3.68779 9.20694C3.46658 9.29279 3.35696 9.54168 3.44281 9.76289L3.88159 10.8902Z" fill="#003A59"/>
<path d="M54.2226 12.3142C52.8322 11.9483 51.1401 10.2599 50.8034 8.28216C50.6735 7.60309 50.7519 7.09874 50.7519 6.9478C50.8557 6.71034 50.7292 6.46159 50.5114 6.36361C50.2478 6.25054 49.9663 6.3946 49.8756 6.62131C47.6634 10.2421 44.2067 10.4334 44.0854 10.4815C43.6506 10.4647 43.447 11.018 43.8276 11.2776C45.7635 12.509 47.0177 14.966 46.949 17.4001C46.9355 17.9136 47.6582 18.0035 47.7909 17.5318C48.0887 16.4722 48.9536 15.4069 50.3625 14.3589C51.4392 13.5628 52.7736 13.1275 54.1081 13.1561C54.6379 13.1425 54.7005 12.4305 54.2226 12.3142ZM49.847 13.6716C48.9135 14.3646 48.1861 15.0862 47.6821 15.8136C47.3557 14.0094 46.4221 12.3142 45.0991 11.1573C47.0615 10.6673 48.7691 9.5255 49.9043 8.08752C50.0302 8.92622 50.2494 9.76803 50.7634 10.5159C51.107 11.0485 51.7084 11.8503 52.556 12.4516C51.5824 12.6579 50.6546 13.076 49.847 13.6716Z" fill="#003A59"/>
<path d="M5.99338 39.9311C5.1863 40.133 3.84056 39.6225 3.32449 38.6367C3.29586 38.5796 3.26723 38.5222 3.2214 38.4364C3.18583 38.1696 2.908 38.0004 2.61431 38.0984C2.61431 38.1042 2.60858 38.1042 2.60858 38.1042C2.28635 38.2424 2.33905 38.5605 2.31648 38.7857C2.10344 40.7017 0.848877 41.5133 0.672758 41.6894C0.300519 41.9021 0.43086 42.4605 0.850302 42.4913C2.01295 42.5715 3.16984 43.3732 3.7254 44.4786C3.94816 44.9241 4.6477 44.6817 4.5272 44.1865C4.41268 43.6653 4.5444 42.9666 4.91669 42.1648C5.20305 41.552 5.68985 41.0422 6.29121 40.733C6.48595 40.6299 6.57184 40.4008 6.49738 40.2004C6.41723 39.9942 6.19959 39.8797 5.99338 39.9311ZM3.71967 43.0067C3.18704 42.4569 2.52839 42.0388 1.82395 41.8154C1.87022 41.7229 2.6502 41.0297 3.02093 39.6849C3.52893 40.2377 4.19573 40.5736 4.86513 40.7388C4.28643 41.3507 3.89025 42.2026 3.71967 43.0067Z" fill="#003A59"/>
<path d="M41.0443 19.4447C40.9412 18.9751 40.672 18.6142 40.2597 18.0644C39.3698 16.8567 38.4388 15.9957 37.6079 15.4412L39.286 2.53202C39.3611 1.9441 38.9142 1.44959 38.3754 1.41516L34.9333 1.16893C34.7386 1.15746 34.5553 1.27198 34.4923 1.45529C34.3262 1.93643 34.0456 2.33731 33.679 2.60648C33.0089 3.09902 32.0353 3.13334 31.4167 2.68094C30.9987 2.37738 30.7066 1.89057 30.5004 1.14026C30.4488 0.962756 30.2942 0.836702 30.1167 0.825307L26.6689 0.579003C26.1362 0.538943 25.6666 0.928428 25.615 1.46676L25.5692 1.9135L20.2486 1.27198C20.0367 1.24339 19.8362 1.38657 19.7847 1.59274C19.6129 2.23993 19.4754 2.86418 19.3551 3.47704C18.9301 3.43051 18.4688 3.57729 17.992 3.70607C15.4559 4.35277 13.0097 5.13257 10.4893 6.12303C10.1113 6.27195 9.11475 6.66143 8.98877 7.56059C8.93147 7.97866 9.09185 8.36242 9.19494 8.61438C9.37822 9.0554 9.56723 9.49641 9.76193 9.92595C5.95948 12.1578 6.64164 11.7929 6.23968 11.982C5.94759 12.1195 5.62113 12.2684 5.40349 12.5719C4.93189 13.2367 5.38673 14.259 5.71848 14.9946C5.90749 15.4127 6.08503 15.7907 6.26831 16.1515L6.22248 16.203C4.94935 17.6946 2.24164 19.8944 1.8984 20.2064C1.64489 20.4094 1.26838 20.6468 1.26838 21.0655C1.25122 21.5409 1.63493 21.9188 1.88693 22.1651C4.28118 24.638 5.7122 26.1759 8.93147 28.259C8.81696 28.5625 8.71383 28.8546 8.62794 29.1123C7.24195 33.3046 8.27286 37.3424 9.59586 41.0823C10.5752 43.8658 12.0758 46.4831 14.0574 48.8542C13.3243 50.8225 13.1265 53.4947 14.8077 54.7361C16.1553 55.7339 18.2406 55.2312 18.4731 53.121L18.4789 53.1267C24.7219 57.934 35.2634 57.4624 40.3685 51.8553L40.3712 51.8498C40.8253 51.4853 41.2651 51.0815 41.6802 50.6469H41.6857C41.7207 50.6259 41.7416 50.6088 41.8118 50.5552H41.8175C46.405 47.2391 48.9709 40.9391 48.2091 34.8797C47.4416 28.8717 44.8987 23.3908 41.0443 19.4447ZM38.2895 17.1022C37.5391 16.7017 37.2775 16.6558 36.6229 16.518C34.2892 16.2261 33.4478 16.8532 31.537 17.7838C28.159 19.5172 19.8941 26.3752 17.4079 31.3402C17.3925 31.3556 17.2114 31.7045 17.2017 31.724V31.7297C17.1959 31.7354 17.1959 31.7354 17.1902 31.7411C16.5977 32.9211 16.4193 33.5014 16.1135 34.5933V34.6048C15.694 36.1424 15.5898 38.2173 15.7813 39.7478C16.2051 43.4133 18.8797 46.6149 21.0561 48.6538C25.6106 52.9536 31.7943 54.4792 37.1154 52.8404C31.8176 55.313 23.4328 53.8051 17.7572 47.2792C17.755 47.2219 17.8255 46.9458 17.6656 46.506C17.5396 46.1682 17.3219 45.8818 17.1158 45.624C15.5021 43.5779 15.4411 43.4092 14.9222 43.2014L14.9165 43.1957C12.9347 39.2321 12.7158 35.6344 14.8878 30.9393C15.3967 29.8147 16.2083 28.4103 16.291 28.3276C16.3957 28.2623 16.4219 28.1372 16.8061 27.5205C16.8085 27.519 16.8122 27.5175 16.8122 27.5144C17.0664 27.1619 17.6553 26.2327 18.8254 24.8995C22.0195 21.2844 25.5066 18.4347 29.6699 16.226C31.9023 15.0278 33.7151 14.4574 36.1017 15.5673C36.3766 15.6933 36.6515 15.8422 36.9149 16.0083C36.9207 16.0083 36.9207 16.014 36.9264 16.014C37.2916 16.2711 37.6933 16.5177 38.2895 17.1022ZM30.9789 19.0797C31.0202 19.1765 31.0948 19.2596 31.1986 19.3053C35.26 21.0941 36.5999 26.0157 35.3193 28.0162C34.9395 28.6102 34.1305 29.1085 33.3802 28.8613C32.869 28.6931 32.4607 28.2148 31.997 27.795C31.2649 27.13 30.5294 26.8671 29.8638 27.0352C28.7949 27.3062 28.4572 28.4782 27.8973 29.1144C27.0911 30.03 25.5843 29.9713 24.5753 29.4525C23.4732 28.8859 22.6513 27.8542 21.8432 26.75C24.0341 24.4017 28.25 20.7065 30.9789 19.0797ZM34.5309 52.3812C34.5211 52.42 34.5244 52.4579 34.5253 52.4961C34.335 52.4672 27.2891 54.0129 20.6456 47.0348C20.4953 46.2946 20.5401 45.5205 20.7827 44.7917C20.9684 44.2349 21.3948 43.8006 21.9838 43.5693C23.0537 43.1488 24.4307 43.6888 24.9307 44.7238C25.2492 45.3843 25.3529 46.3487 26.1207 46.8709C26.8911 47.3941 27.7905 47.1461 28.5838 46.9277C28.7363 46.8857 28.8873 46.8441 29.0349 46.8088C30.5573 46.4464 32.2529 46.9322 33.3525 48.0466C34.4521 49.1618 34.9146 50.8632 34.5309 52.3812ZM15.4777 46.7695C15.409 46.6836 15.346 46.592 15.283 46.5003C14.441 45.3124 14.4086 45.0056 14.3781 44.9482C14.2616 44.6398 14.0318 44.0347 14.361 43.9688C14.4186 43.9688 14.4564 43.9526 14.5213 43.9688C14.5786 44.0089 14.689 43.9199 15.0998 44.4557C16.69 46.4747 16.7528 46.5164 16.858 46.8095C16.9153 46.947 16.9268 47.1016 16.8924 47.2105C16.8731 47.2298 16.8774 47.2541 16.8695 47.262C16.8638 47.2792 16.8523 47.2907 16.8523 47.2907C16.8523 47.2964 16.8466 47.2964 16.8466 47.3021C16.3821 46.7362 15.916 46.6382 15.4777 46.7695ZM26.4684 1.55261C26.4741 1.48396 26.5314 1.43809 26.5944 1.43809C26.6899 1.43809 26.6005 1.43812 29.7616 1.66147C30.0193 2.44037 30.3973 3.00163 30.907 3.37399C32.1961 4.31867 34.3458 3.91274 35.1853 2.04522C38.7828 2.33427 38.3306 2.20021 38.4327 2.41744L36.8004 14.9545C36.3995 14.7425 35.9928 14.5708 35.5748 14.4447C33.2746 13.6792 31.3964 14.3302 29.2633 15.4699C27.6296 16.3415 25.3191 17.8277 24.7731 18.282C24.7708 18.282 24.7716 18.282 24.7708 18.282C26.0321 5.85283 23.9934 26.0026 25.9701 6.46092C26.0288 6.46476 28.1948 6.6064 28.072 6.59837C28.6151 6.59837 28.6501 5.77898 28.0949 5.73928L26.056 5.60183L26.3768 2.43463L26.4684 1.55261ZM20.5235 2.1712L25.4776 2.76686C23.9395 18.0205 24.0172 17.1745 23.8338 18.9808C22.7799 19.8005 21.7564 20.7033 21.4914 20.9567C21.4857 20.9567 21.4799 20.9624 21.4799 20.9624C21.4576 20.9401 21.3639 20.6487 21.3539 20.6187C19.2745 14.7295 19.0945 7.93551 20.5235 2.1712ZM17.9405 14.6452L16.5717 12.3428C16.6232 12.3199 16.6805 12.2912 16.7492 12.2569C18.8674 11.1982 19.4064 13.6607 17.9405 14.6452ZM15.5007 12.0336C15.0106 12.2295 14.6109 12.2808 14.2063 11.9362C13.8439 11.6339 14.277 11.0482 14.7962 10.8538L15.5007 12.0336ZM9.99104 8.28789C9.73759 7.69184 9.67494 7.36398 10.8043 6.92487C12.4137 6.28908 14.0517 5.72208 15.6667 5.24101C18.5897 4.36196 19.143 4.33929 19.2005 4.32466C18.717 7.08969 18.6632 10.4816 18.7709 11.5639C18.1409 11.0771 17.3219 11.1001 16.3197 11.6269L16.1822 11.6957C16.0734 11.5124 15.6496 10.8022 15.5465 10.6304C15.9618 10.5633 16.3442 10.5355 16.7721 10.5903C17.0059 10.6033 17.1288 10.5264 17.1845 10.2924C17.2313 10.0119 17.09 9.85412 16.8523 9.8343C16.2738 9.77131 15.7011 9.81143 15.1399 9.94315C15.0038 9.75259 14.9872 9.57928 14.7504 9.51361C14.4544 9.44776 14.2043 9.70876 14.2979 9.94315C14.3266 10.0233 14.361 10.1092 14.4067 10.1951C12.8815 10.9078 12.981 12.6521 14.6473 12.9328C14.9852 12.9843 15.4033 12.9041 15.8959 12.6922L17.2246 14.9259C16.7263 15.0174 16.2624 14.9029 15.8386 14.5994C15.661 14.4676 15.5236 14.502 15.4377 14.5536C15.2113 14.695 15.1134 15.045 15.3919 15.2122C15.7068 15.4412 16.0791 15.5959 16.4915 15.6704C16.8809 15.7391 17.2647 15.7162 17.6369 15.6131C17.6843 15.6807 18.0006 16.2568 18.1753 16.3003C18.2636 16.3298 18.3561 16.3236 18.4617 16.2603C18.6195 16.1701 18.7186 15.9359 18.5991 15.7448L18.3299 15.2924C18.5864 15.1269 18.8668 14.8766 19.0516 14.5994C19.3013 16.4776 19.9123 19.1984 20.7927 21.6038C20.7895 21.607 20.0697 22.3095 20.008 22.3713C15.6615 19.417 11.8866 12.9297 9.99104 8.28789ZM6.94986 12.5833L10.1285 10.7106C12.0493 14.7803 15.4385 20.2161 19.1375 22.8181C19.2119 22.8696 19.2979 22.9326 19.4009 22.9956C19.3456 23.0529 19.2684 23.1317 18.8604 23.5706C17.4652 24.9472 16.8733 25.8389 15.9129 27.3197H15.9073C11.6759 23.5589 8.48814 19.1184 6.50311 14.6395C5.64838 12.7557 6.13197 13.0837 6.94986 12.5833ZM10.5867 24.7595L8.87421 23.3277C8.93205 23.27 9.08252 23.1027 9.16631 23.0356C10.3704 21.9396 11.4528 23.5905 10.5867 24.7595ZM7.87767 23.385C7.57939 23.642 7.28364 23.8102 6.84677 23.6542C6.53724 23.5304 6.64089 23.0824 6.85247 22.8181C6.8983 22.7665 6.94986 22.7092 7.00712 22.6577L7.87767 23.385ZM5.58103 24.6507C5.22735 24.335 2.20591 21.3594 2.1332 21.1171C2.19058 21.0677 5.66359 18.2118 6.68639 16.9763C7.63958 18.7959 8.7309 20.4962 9.85359 22.0048C9.37822 22.0333 8.90858 22.3083 8.4332 22.8181L8.35305 22.8982C8.28327 22.8401 7.61787 22.2868 7.57411 22.2511C7.70013 22.1823 7.83185 22.1136 7.96356 22.062C8.39275 21.8822 8.60624 21.9118 8.71957 21.7699C8.87296 21.5825 8.74257 21.1218 8.35875 21.2316C7.88341 21.3404 7.43666 21.5351 7.03001 21.7986L6.84104 21.6382C6.55633 21.401 6.11964 21.7646 6.34277 22.062C6.38286 22.1136 6.43439 22.1651 6.49168 22.2224C5.10986 23.6052 6.80103 25.3114 8.40457 23.8203L10.0712 25.2063C9.70468 25.4125 9.32092 25.4468 8.90284 25.3208C8.42686 25.1912 8.29469 25.8853 8.70814 25.9681C9.27309 26.1508 10.0287 26.0679 10.621 25.6645C10.7306 25.7416 11.0791 26.0596 11.2453 26.0596C11.5695 26.0191 11.6407 25.6388 11.4343 25.464L11.1021 25.1891C11.3244 24.9083 11.4933 24.5239 11.5488 24.1239C11.7399 24.3307 13.2237 26.1269 15.4434 28.0527C14.9591 28.8431 14.3332 30.0602 14.2865 30.2004H14.2808C11.358 28.935 8.1912 26.9449 5.58103 24.6507ZM10.4034 40.7959C8.92551 36.6152 8.11675 32.8454 9.67031 28.74C10.2791 29.1202 10.7547 29.3836 10.8121 29.417C9.61148 34.235 10.9745 39.4123 13.9174 43.1032C13.9224 43.1131 13.9264 43.1227 13.9314 43.1327V43.1384C13.9371 43.1613 13.9486 43.1785 13.96 43.2014C13.9543 43.2014 13.9543 43.2014 13.9543 43.2014C13.9063 43.2232 13.7633 43.3046 13.7367 43.3446C13.6597 43.3994 13.5305 43.531 13.4789 43.6595C13.4675 43.671 13.4618 43.6767 13.4618 43.6882C13.4217 43.7513 13.3988 43.8256 13.3758 43.9001C13.0933 44.9009 14.1919 46.4425 14.7905 47.2907C14.7582 47.3553 14.6534 47.4583 14.4239 47.955C12.6542 45.7501 11.3026 43.3446 10.4034 40.7959ZM17.1501 54.0546C17.1501 54.0604 17.1444 54.0604 17.1444 54.0604C16.6977 54.4612 15.8729 54.4555 15.3174 54.0432C13.7609 52.8926 14.4103 49.8638 15.3002 48.1211C15.4536 47.8047 15.5375 47.7406 15.6324 47.6458H15.6381C15.8709 47.413 16.1793 47.8077 16.354 48.0867C16.9505 49.0538 17.5267 51.282 17.6198 52.2734C17.6942 53.1153 17.5396 53.7109 17.1501 54.0546ZM19.0058 52.451C18.8225 52.302 18.6392 52.1589 18.4559 52.0099C18.4535 51.9933 18.3934 51.5866 18.3815 51.5747C18.3815 51.2531 17.7162 48.7355 17.3277 48.0867C17.6022 48.4165 18.8969 49.6786 19.7847 50.3834C24.0166 53.8609 29.5153 55.5215 34.6469 54.5185C34.7787 54.4956 34.9047 54.467 35.0307 54.4383C29.3287 56.5563 23.0477 55.5664 19.0058 52.451ZM41.3135 49.8565C41.2947 49.8699 41.2296 49.9174 41.2104 49.9367C41.2071 49.9378 40.8776 50.1594 40.4487 50.4292C40.4429 50.4292 40.4429 50.4349 40.4372 50.4349C39.0291 51.3145 37.2924 52.0112 35.4066 52.3552C35.7602 50.6138 35.2137 48.7109 33.9641 47.4434C32.6584 46.1195 30.6449 45.5426 28.8358 45.9732C28.0273 46.166 27.1511 46.5336 26.6039 46.1606C26.1309 45.8387 26.0282 45.0207 25.7043 44.3501C25.0082 42.9082 23.1617 42.1845 21.6697 42.7695C20.5603 43.2056 19.775 44.1556 19.7067 45.9875C19.706 45.9866 19.7052 45.9858 19.7045 45.9848C18.2269 44.2151 16.9039 42.0216 16.6347 39.6504C16.3513 37.1377 16.742 34.6077 17.8087 32.4742L17.8145 32.4685C18.9643 29.9656 20.7484 27.991 21.2582 27.4038C22.5378 29.1377 23.9688 30.6889 26.1363 30.6889C27.0301 30.6889 27.9174 30.3921 28.5422 29.6821C29.5122 28.5805 29.6794 26.7613 31.6925 28.6874C32.1021 29.0792 32.5258 29.4844 33.1114 29.6774C34.2831 30.0638 35.4742 29.3672 36.043 28.4793C36.5422 27.6991 36.7309 26.6826 36.6034 25.458C36.2992 22.5443 34.4147 19.8951 31.7776 18.6314C31.8292 18.6027 31.875 18.5741 31.9265 18.5513C35.8497 16.4904 37.4837 17.0255 40.3627 19.9659C43.7637 23.424 46.1228 28.1128 47.0855 33.3054C46.7497 33.2827 46.4913 33.6387 46.3283 33.6957C44.838 34.2185 44.1418 35.9463 44.8624 37.3577C45.0609 37.7475 45.3601 38.0781 45.4664 38.4028C45.7302 39.2086 44.9936 40.2738 45.3126 41.3794C45.4738 41.9393 45.9857 42.4365 46.5772 42.4843C46.5771 42.4847 46.577 42.4851 46.5768 42.4855C45.5631 45.4694 43.7361 48.1039 41.3135 49.8565ZM46.846 41.6092C46.8451 41.6125 46.8439 41.6157 46.843 41.6191C46.8085 41.6195 46.7744 41.6158 46.7394 41.6249C46.502 41.689 46.2159 41.4118 46.1382 41.1414C45.9039 40.3301 46.6429 39.2361 46.283 38.1354C46.121 37.6421 45.8134 37.3322 45.6275 36.9673C45.1444 36.0207 45.6091 34.8585 46.6122 34.5067C46.8585 34.4205 46.9704 34.3232 47.0725 34.2225C47.1388 34.1571 47.1341 34.1701 47.2293 34.1214C47.2754 34.4094 47.3212 34.6946 47.3558 34.9885C47.6364 37.2221 47.4474 39.4901 46.846 41.6092Z" fill="#003A59"/>
</svg>
