<svg width="59" height="59" viewBox="0 0 59 59" fill="none" xmlns="http://www.w3.org/2000/svg">
<path d="M12.1688 41.62C12.13 44.3792 12.484 45.7601 13.8143 48.0399C14.1803 48.6677 14.7943 49.7187 15.954 49.9556C16.1088 49.9869 16.2656 50.0026 16.4232 50.0026C17.6475 50.0026 18.9482 49.0485 20.2969 47.1586C20.8132 46.4349 21.0639 45.9104 22.161 42.7825L22.7537 41.0752C23.5604 38.7437 23.6811 38.4248 24.1697 37.879C24.674 37.3185 25.0483 37.1212 25.5221 36.8732C25.9729 36.6372 26.4845 36.3681 27.117 35.7753C29.2723 33.7555 29.571 31.4655 28.615 30.4174C28.1006 29.8541 26.6081 29.6227 25.4622 29.7259L24.6602 29.8006C24.0084 29.8624 23.3363 29.926 23.0828 29.9029C22.9316 29.7232 22.9307 29.3471 22.9418 28.7792C22.9584 27.9403 22.9805 26.7907 22.1121 25.8402C21.381 25.0382 20.3393 24.7202 19.7834 24.6022C19.0045 24.4372 18.4089 24.5183 17.8881 24.5939C17.8097 24.5717 17.5931 24.38 17.4345 24.2389C16.8371 23.7098 15.9355 22.9096 14.066 22.4911C11.2865 21.8679 9.78017 22.6985 8.56791 23.3641C7.81934 23.7752 7.24686 24.156 6.53517 24.8898C5.69442 25.7582 4.28672 27.212 4.01108 29.4899L3.98066 29.6928C3.84514 30.5566 3.48469 32.8502 5.28972 34.3123C6.75181 35.496 7.97422 35.7661 9.05373 36.003C9.85484 36.18 10.5463 36.3312 11.2533 36.853C12.7145 37.9288 12.4398 39.6785 12.2591 40.8364C12.2102 41.159 12.1724 41.4282 12.1688 41.62ZM12.0747 35.7403C11.1316 35.0461 10.2273 34.847 9.35334 34.6543C8.33283 34.4294 7.37039 34.2173 6.16181 33.2392C4.97628 32.2795 5.22795 30.6782 5.34872 29.9094L5.38559 29.6577C5.605 27.8407 6.7177 26.6921 7.5308 25.8532C8.12264 25.2419 8.58634 24.9331 9.23534 24.5773C10.0632 24.1228 10.9122 23.6563 12.225 23.6563C12.6776 23.6563 13.1847 23.7116 13.7654 23.8416C15.2865 24.1818 15.9982 24.8142 16.5182 25.2751C16.9478 25.6559 17.3921 26.0477 18.1637 25.949C18.5343 25.8974 18.9528 25.8402 19.4977 25.9555C20.1669 26.0974 20.7477 26.3952 21.0907 26.7723C21.0907 26.7723 21.0907 26.7723 21.0916 26.7732C21.5875 27.3162 21.5737 28.014 21.5599 28.7534C21.5442 29.56 21.5267 30.4754 22.3075 31.0608C22.7251 31.3733 23.3308 31.3171 24.792 31.177L25.5857 31.1032C26.6247 31.0083 27.4654 31.2627 27.5954 31.3494C27.9531 31.7412 27.7798 33.2604 26.172 34.7668C25.6761 35.2314 25.2889 35.4342 24.8805 35.649C24.355 35.9246 23.812 36.2095 23.1418 36.9562C22.4477 37.7306 22.2559 38.2865 21.4483 40.6234L20.8565 42.3252C19.7945 45.3536 19.5751 45.7915 19.1722 46.3547C17.5719 48.5967 16.5799 48.6696 16.2305 48.5995C15.6765 48.487 15.2911 47.8251 15.009 47.3411C13.9019 45.4439 13.5156 44.2962 13.5525 41.6384C13.5543 41.4937 13.5894 41.2927 13.6272 41.0512C13.8318 39.7458 14.2125 37.3139 12.0747 35.7403ZM25.0178 47.2923C25.122 47.3153 25.2363 47.3153 25.3405 47.3153C25.9397 47.3153 26.585 47.0388 27.2534 46.4626C27.9678 45.8403 28.1863 45.1609 28.4629 44.2962C28.6132 43.8352 28.6473 43.6278 28.6703 43.4324C28.6814 43.3172 28.7044 43.2019 28.7855 42.9715C28.9358 42.5336 29.0971 42.28 29.2465 42.0385C29.4419 41.7159 29.6493 41.3821 29.7535 40.817C30.019 39.2609 29.3737 38.8009 28.9589 38.6626C28.2444 38.4321 27.5069 38.9272 26.7925 39.4112C26.101 39.8841 25.3055 40.4132 24.9487 41.3121C24.7763 41.738 24.7643 42.0837 24.7643 42.3381C24.7523 42.6027 24.7523 42.7179 24.591 42.9604C24.5339 43.0526 24.5099 43.0756 24.4527 43.1217C24.3495 43.225 24.2343 43.3402 24.084 43.5596C23.9116 43.8011 23.4617 44.4584 23.4617 45.2531C23.4617 45.4716 23.4848 45.691 23.565 45.9215C23.9227 46.9466 24.626 47.2231 25.0178 47.2923ZM25.2133 44.3423C25.2935 44.227 25.3285 44.192 25.3977 44.1349C25.4788 44.0657 25.5931 43.9505 25.7434 43.7311C26.1352 43.1549 26.1352 42.694 26.1471 42.3602C26.1471 42.1648 26.1471 42.0145 26.2273 41.8302C26.4348 41.3231 26.9648 40.9664 27.576 40.5506C27.8296 40.3782 28.2214 40.1127 28.4288 40.0205C28.4408 40.1358 28.4288 40.3201 28.3938 40.5847C28.3366 40.8843 28.2435 41.0346 28.0711 41.3102C27.8978 41.5868 27.6793 41.9325 27.4829 42.5087C27.3566 42.8774 27.3327 43.0507 27.2986 43.2462C27.2755 43.3844 27.2635 43.5338 27.1483 43.8684C26.8828 44.6871 26.7565 45.0669 26.3417 45.4126C25.7305 45.9427 25.3848 45.9537 25.2585 45.9316C25.0971 45.8966 24.9708 45.7472 24.8777 45.4707C24.7293 45.0447 25.087 44.5377 25.2133 44.3423ZM0.707078 47.5707C0.702469 47.5707 0.697859 47.5707 0.69325 47.5707C0.317125 47.5707 0.00921875 47.2702 0.00184375 46.8931L0 46.7087C0 45.9445 0.108781 45.1729 0.3245 44.4142C0.428672 44.0473 0.813094 43.8343 1.17816 43.9385C1.54598 44.0417 1.75894 44.4243 1.65477 44.7931C1.47408 45.4273 1.38281 46.0717 1.38281 46.7087L1.38466 46.8664C1.39203 47.248 1.08873 47.5633 0.707078 47.5707ZM3.41555 51.5689C3.6792 51.8454 3.66998 52.2824 3.39434 52.547C3.25975 52.6751 3.08828 52.7387 2.91589 52.7387C2.73428 52.7387 2.55267 52.6677 2.41623 52.5258C1.82808 51.91 1.3358 51.2342 0.955063 50.5161C0.775297 50.1787 0.903438 49.7601 1.24177 49.5813C1.57825 49.4034 1.99678 49.5306 2.17655 49.868C2.49736 50.4746 2.91497 51.0462 3.41555 51.5689ZM14.207 55.6316C14.2162 56.0132 13.9148 56.3303 13.5331 56.3396C13.346 56.3442 13.1607 56.346 12.9782 56.346C12.3614 56.346 11.7475 56.3202 11.1538 56.2686C10.773 56.2363 10.4919 55.9007 10.525 55.52C10.5582 55.1393 10.8763 54.848 11.2736 54.8913C11.9816 54.9521 12.7228 54.977 13.4972 54.9577C13.8558 54.9355 14.1978 55.249 14.207 55.6316ZM8.48678 55.1384C8.39552 55.4352 8.12172 55.6279 7.8258 55.6279C7.7585 55.6279 7.6912 55.6177 7.62391 55.5974C6.82833 55.3541 6.07239 55.0508 5.37545 54.694C5.03528 54.5198 4.90069 54.1031 5.07492 53.7629C5.24823 53.4246 5.66216 53.2882 6.00602 53.4624C6.63013 53.7823 7.31047 54.0552 8.02861 54.2736C8.39275 54.387 8.59833 54.7733 8.48678 55.1384ZM27.1999 51.9155C27.0285 51.5744 27.1658 51.1577 27.5069 50.9872C28.1688 50.6553 28.8381 50.3004 29.5175 49.9215C29.8531 49.7371 30.2716 49.8551 30.4578 50.1897C30.6431 50.5225 30.5233 50.9447 30.1896 51.13C29.4917 51.5182 28.804 51.8814 28.1264 52.2225C28.0259 52.2722 27.9208 52.2971 27.8157 52.2971C27.565 52.2971 27.3207 52.1579 27.1999 51.9155ZM35.3198 47.1014C35.5346 47.4177 35.4525 47.8472 35.1373 48.062C34.4809 48.5092 33.8337 48.9341 33.193 49.3416C33.0778 49.4144 32.9497 49.4485 32.8243 49.4485C32.5947 49.4485 32.3707 49.3361 32.2389 49.1277C32.0342 48.806 32.1301 48.3782 32.4528 48.1736C33.0806 47.7753 33.7167 47.3568 34.3592 46.9189C34.6754 46.7032 35.105 46.7871 35.3198 47.1014ZM58.6248 34.2902C58.2459 33.6181 57.6273 33.1341 56.8843 32.9276C56.2491 32.7515 55.5918 32.8069 54.9935 33.0613C55.2673 30.9852 55.3134 28.8704 55.1042 26.7501C53.8467 14.0559 43.7218 3.93096 31.0294 2.67353C22.8948 1.86965 14.951 4.69704 9.21506 10.4339C3.47916 16.1707 0.650844 24.1219 1.45472 32.2473C1.71192 34.8479 2.36 37.3314 3.30769 39.6619C2.82463 40.1312 2.37475 40.6179 1.99402 41.124C1.76355 41.4292 1.82531 41.8634 2.13045 42.0929C2.25491 42.186 2.40148 42.2312 2.5453 42.2312C2.75548 42.2312 2.96198 42.1362 3.0975 41.9565C3.33627 41.6393 3.60638 41.3305 3.89308 41.0272C6.74444 47.0572 11.7788 51.8463 17.9655 54.4064C17.5903 54.4838 17.2114 54.576 16.8417 54.6369C16.4656 54.6986 16.2103 55.0545 16.272 55.4315C16.3273 55.7698 16.6205 56.0095 16.9533 56.0095C16.9902 56.0095 17.028 56.0077 17.0667 56.0003C17.8272 55.8759 18.6034 55.7164 19.376 55.5274C19.6046 55.4712 19.7668 55.3034 19.8452 55.0987C21.6668 55.6961 23.5622 56.1275 25.5304 56.323C26.4624 56.4152 27.3889 56.4612 28.3089 56.4612C34.9575 56.4612 41.2419 54.0754 46.244 49.6025C46.528 49.3481 46.5519 48.9102 46.2984 48.6253C46.0449 48.3432 45.6088 48.3174 45.3212 48.5709C39.9209 53.4015 32.9395 55.6592 25.6659 54.9466C24.7053 54.8517 23.7669 54.6839 22.8395 54.4847C23.5263 54.2423 24.225 53.9777 24.9386 53.6827C25.2916 53.5361 25.4594 53.1324 25.3128 52.7793C25.1672 52.4262 24.7653 52.2584 24.4094 52.405C23.6903 52.7028 22.9851 52.972 22.2937 53.2144C21.9333 53.3407 21.7433 53.7353 21.8696 54.0957C21.8936 54.1639 21.9286 54.2257 21.9692 54.281C11.7115 51.6915 3.89861 42.8876 2.83108 32.1108C2.06684 24.3994 4.75042 16.8547 10.1923 11.412C15.6359 5.96923 23.1944 3.28842 30.892 4.04989C40.6528 5.01601 48.8105 11.5125 52.1855 20.3523C51.4674 21.1064 50.8654 22.0818 50.3316 22.9686C49.5517 24.2675 49.3517 25.2337 49.1756 26.0873C49.053 26.6773 48.947 27.1871 48.651 27.7255C47.7882 29.289 45.7453 30.1555 45.3876 30.056C45.3839 30.0523 45.0244 29.6393 44.828 27.4157C44.7248 26.2726 44.5081 23.896 43.152 21.8107C42.8736 21.3784 42.7243 20.9101 42.5805 20.4574C42.3519 19.7374 42.1149 18.9935 41.3922 18.4708C40.639 17.9287 39.9319 17.7987 39.1825 17.6614C38.4164 17.5212 37.5489 17.3627 36.297 16.722C35.7512 16.4454 35.2617 16.1901 34.8165 15.9587C32.3495 14.6745 31.1096 14.0319 29.5894 14.5381C28.5947 14.881 27.4986 15.7466 27.4433 16.8492C27.3908 18.4238 29.5489 19.5107 31.2737 20.3809C31.6286 20.5653 33.4244 21.1922 34.374 20.9986C34.3749 20.9986 34.4892 20.9764 34.491 20.9755C34.8635 20.8999 35.3742 20.7976 36.0601 20.8852C36.2435 20.9073 36.4519 20.9322 36.4832 20.9396C36.6372 21.111 36.8547 22.1592 36.4528 23.6222C36.1578 24.6944 35.3502 26.5907 33.2548 27.2406C30.9584 27.9486 30.4541 27.5946 30.3592 27.4747C30.1877 27.2572 29.9775 27.0507 29.7489 26.8313C29.4926 26.5842 29.2271 26.3288 29.0013 26.0117C27.9171 24.5146 26.7814 24.0758 26.102 23.813C25.9462 23.7531 25.7332 23.6711 25.6779 23.625C25.3414 23.3484 25.2502 23.0248 25.1063 22.4284C25.0418 22.1629 24.9745 21.8863 24.8713 21.5932C24.0655 19.377 21.7295 17.8752 19.9024 17.418C18.7648 17.1267 17.6797 17.5563 16.5301 18.0098C16.0425 18.2016 15.5391 18.3989 15.022 18.5445C13.8327 18.8792 12.3163 19.129 11.823 18.3823C11.4829 17.8845 11.6608 16.4583 12.1254 15.9596C12.6472 15.4 13.6742 14.8874 14.7408 14.6533C15.6276 14.4588 16.7311 14.2163 17.299 13.2198C17.8051 12.3311 17.7608 11.0681 17.1598 9.2465C17.1026 9.0741 17.0639 8.91093 17.0409 8.75329C16.9865 8.3744 16.6306 8.11259 16.2573 8.1679C15.8793 8.22229 15.6175 8.57261 15.6719 8.9515C15.7051 9.18289 15.7622 9.42442 15.8461 9.67885C16.2969 11.0451 16.3836 12.0333 16.0978 12.5357C15.8526 12.9663 15.2838 13.1193 14.4449 13.3037C13.0814 13.6024 11.8369 14.2431 11.1141 15.0165C10.1987 15.9992 9.97561 18.1297 10.6882 19.1732C11.4469 20.3247 12.9883 20.5542 15.3962 19.8766C15.9807 19.7116 16.5163 19.5005 17.0353 19.2968C18.0134 18.9124 18.8616 18.5796 19.564 18.7593C21.0971 19.1428 22.9667 20.4021 23.5687 22.0587C23.6525 22.2984 23.7079 22.5307 23.7613 22.7538C23.9153 23.3908 24.0895 24.1126 24.7984 24.6934C25.0252 24.8806 25.2926 24.9838 25.6032 25.1037C26.208 25.3369 27.0368 25.6568 27.8766 26.8174C28.1743 27.236 28.5007 27.5503 28.7892 27.8278C28.9672 27.9993 29.1359 28.1569 29.2732 28.333C30.1748 29.4558 32.0896 29.0438 33.6623 28.5616C37.0031 27.5254 37.8015 24.168 37.9656 23.164C38.1684 21.9306 38.1029 20.4076 37.3249 19.8453C37.017 19.6084 36.6842 19.5687 36.2196 19.5125C35.3253 19.3973 34.6302 19.5365 34.1038 19.6434C33.6291 19.7402 32.2103 19.3106 31.9024 19.152C30.9741 18.6837 28.8003 17.5885 28.8233 16.9091C28.8399 16.5662 29.4189 16.0601 30.031 15.8499C30.9446 15.5457 31.7549 15.9282 34.1767 17.1875C34.6256 17.4208 35.1198 17.678 35.6673 17.9564C37.0972 18.6883 38.1149 18.8746 38.9317 19.0239C39.625 19.1502 40.0831 19.2341 40.5819 19.5936C40.9183 19.837 41.0529 20.2205 41.2631 20.8778C41.4263 21.3913 41.6107 21.973 41.9905 22.5621C43.1622 24.3634 43.3567 26.5095 43.4526 27.5688C43.6978 30.3491 44.2279 30.9843 44.6621 31.2268C44.8778 31.3475 45.1322 31.4084 45.4235 31.4084C45.6642 31.4084 45.9297 31.3669 46.2191 31.2848C47.4259 30.941 49.0631 29.8375 49.8605 28.3929C50.2579 27.6711 50.3952 27.0083 50.528 26.3666C50.6893 25.5858 50.8562 24.7782 51.5162 23.6803C51.8767 23.0802 52.2712 22.4385 52.6944 21.8808C53.194 23.4904 53.5573 25.159 53.7278 26.8866C53.9601 29.2438 53.8688 31.5937 53.4734 33.8827L50.0154 35.8352L43.8656 32.0297C42.4311 31.141 40.6261 31.1051 39.1576 31.9357C38.6929 32.1975 38.3896 32.6713 38.3482 33.2023C38.3058 33.7343 38.5279 34.2496 38.9455 34.5833L44.451 38.9779L39.1797 41.9546L38.0891 41.1277C37.5793 40.7405 36.8898 40.6953 36.3339 41.0097L35.2239 41.6366C34.7768 41.8873 34.4846 42.3243 34.4219 42.8332C34.3592 43.343 34.5353 43.838 34.9077 44.1929L37.2124 46.3852L37.8974 49.49C38.0089 49.9915 38.3417 50.399 38.8109 50.6073C39.2811 50.8157 39.8056 50.7917 40.25 50.5391L41.3599 49.9122C41.9167 49.5979 42.2329 48.9839 42.1656 48.346L42.0191 46.9862L47.2913 44.0086L48.2122 50.9936C48.2823 51.5228 48.6086 51.9809 49.0852 52.2179C49.3102 52.3312 49.5554 52.3866 49.7997 52.3866C50.0716 52.3866 50.3436 52.3183 50.587 52.1791C52.0574 51.3495 52.958 49.7859 52.9378 48.0989L52.8548 40.8668L57.5296 38.2275C58.2017 37.8486 58.6856 37.2291 58.8912 36.487C59.1005 35.7403 59.0046 34.9622 58.6248 34.2902ZM57.561 36.1145C57.454 36.5017 57.2023 36.8235 56.852 37.0217L51.8204 39.862C51.601 39.9855 51.4655 40.2197 51.4692 40.4722L51.5577 48.1127C51.5715 49.2955 50.9401 50.3916 49.9094 50.9733C49.8209 51.0213 49.7416 50.9982 49.7038 50.9789C49.666 50.9595 49.5978 50.9116 49.5849 50.8111L48.5303 42.811C48.4998 42.5824 48.3588 42.3842 48.1532 42.2819C48.0564 42.234 47.9504 42.21 47.8453 42.21C47.7282 42.21 47.6102 42.2395 47.5051 42.2985L40.946 46.0026C40.7054 46.139 40.569 46.4045 40.5985 46.6792L40.793 48.4898C40.8022 48.5774 40.7589 48.6622 40.6823 48.7046L39.5724 49.3315C39.4876 49.3794 39.4129 49.3573 39.3751 49.3416C39.3364 49.325 39.2691 49.2817 39.2488 49.1877L38.5178 45.8772C38.4883 45.7435 38.4191 45.6209 38.3187 45.526L35.8619 43.189C35.7909 43.1226 35.79 43.0443 35.7946 43.0019C35.8001 42.9613 35.8204 42.8857 35.9052 42.8387L37.0151 42.2118C37.0916 42.1676 37.1875 42.1749 37.2557 42.2275L38.7058 43.3291C38.9271 43.4969 39.2249 43.5144 39.4645 43.3808L46.0237 39.6776C46.2237 39.5651 46.3546 39.3605 46.3722 39.1309C46.3915 38.9014 46.2947 38.6783 46.114 38.5354L39.8075 33.501C39.7291 33.4374 39.7218 33.3554 39.7254 33.312C39.73 33.2687 39.7476 33.1885 39.837 33.1387C40.8658 32.5561 42.1297 32.581 43.1382 33.2042L49.6356 37.2254C49.8513 37.36 50.1205 37.3646 50.339 37.2402L55.3687 34.3989C55.7209 34.2007 56.1274 34.1528 56.5119 34.2597C56.899 34.3676 57.2208 34.6202 57.419 34.9696C57.619 35.3199 57.6688 35.7255 57.561 36.1145Z" fill="#003A59"/>
</svg>
