<svg width="15" height="22" viewBox="0 0 15 22" fill="none" xmlns="http://www.w3.org/2000/svg">
<path d="M3.70741 21.4403C3.55392 21.3755 3.42638 21.2614 3.3449 21.1161C3.26341 20.9708 3.23263 20.8025 3.25741 20.6378L4.62241 11.7503H0.999908C0.885064 11.7534 0.771045 11.73 0.666649 11.6821C0.562252 11.6341 0.470269 11.5628 0.397796 11.4737C0.325322 11.3845 0.274297 11.2799 0.248655 11.1679C0.223014 11.0559 0.223442 10.9396 0.249908 10.8278L2.49991 1.07777C2.5395 0.909971 2.63569 0.760936 2.77229 0.655753C2.9089 0.55057 3.07756 0.495661 3.24991 0.500268H10.7499C10.862 0.499887 10.9727 0.524616 11.0739 0.572637C11.1751 0.620659 11.2643 0.690753 11.3349 0.777768C11.4065 0.865767 11.4572 0.968857 11.4832 1.07928C11.5091 1.1897 11.5097 1.30458 11.4849 1.41527L10.1874 7.25027H13.7499C13.8905 7.24999 14.0283 7.28922 14.1476 7.36348C14.267 7.43774 14.3631 7.54404 14.4249 7.67027C14.4787 7.79142 14.4993 7.92466 14.4848 8.0564C14.4703 8.18814 14.4212 8.3137 14.3424 8.42027L4.59241 21.1703C4.52651 21.268 4.43853 21.3487 4.33559 21.4061C4.23265 21.4634 4.11765 21.4957 3.99991 21.5003C3.89955 21.4984 3.8004 21.4781 3.70741 21.4403V21.4403ZM8.31241 8.75027L9.81241 2.00027H3.84991L1.94491 10.2503H6.37741L5.18491 17.9603L12.2499 8.75027H8.31241Z" fill="#2D4C19"/>
</svg>
