<svg width="20" height="20" viewBox="0 0 20 20" fill="none" xmlns="http://www.w3.org/2000/svg">
<g clip-path="url(#clip0_825_10316)">
<path d="M17.5495 1.76828H14.4021V0.986016C14.4021 0.442344 13.9592 0 13.4149 0C12.8712 0 12.4289 0.442344 12.4289 0.986016V1.76832H7.57123V0.986016C7.57123 0.442344 7.12838 0 6.58408 0C6.04037 0 5.59807 0.442344 5.59807 0.986016V1.76832H2.45057C1.57291 1.76832 0.858887 2.48234 0.858887 3.36004V18.4069C0.858887 19.2846 1.57291 19.9986 2.45057 19.9986H11.118H11.1182H11.1187H17.5495C18.4272 19.9986 19.1412 19.2846 19.1412 18.4069V3.36004C19.1412 2.48234 18.4272 1.76828 17.5495 1.76828ZM12.9747 0.986016C12.9747 0.74332 13.1722 0.545859 13.4149 0.545859C13.6582 0.545859 13.8562 0.74332 13.8562 0.986016V3.09648C13.8562 3.33918 13.6583 3.53664 13.4149 3.53664C13.1722 3.53664 12.9747 3.33918 12.9747 3.09648V0.986016ZM6.14393 0.986016C6.14393 0.74332 6.34139 0.545859 6.58408 0.545859C6.8274 0.545859 7.02537 0.74332 7.02537 0.986016V3.09648C7.02537 3.33918 6.82744 3.53664 6.58408 3.53664C6.34139 3.53664 6.14393 3.33918 6.14393 3.09648V0.986016ZM2.45057 2.31418H5.59803V3.09648C5.59803 3.6402 6.04033 4.08254 6.58404 4.08254C7.12838 4.08254 7.57119 3.6402 7.57119 3.09648V2.31418H12.4288V3.09648C12.4288 3.6402 12.8711 4.08254 13.4148 4.08254C13.9592 4.08254 14.402 3.6402 14.402 3.09648V2.31418H17.5494C18.1261 2.31418 18.5952 2.78336 18.5952 3.36V5.94605H1.40479V3.36C1.40479 2.78336 1.87393 2.31418 2.45057 2.31418ZM1.40479 18.4069V6.49195H18.5953V14.8372C18.3219 14.9702 18.0211 15.0402 17.7167 15.0402C17.2497 15.0402 16.8082 14.8828 16.44 14.5849C16.3742 14.5318 16.2876 14.5121 16.2055 14.5315C16.1233 14.551 16.0547 14.6074 16.0198 14.6843C15.0505 16.8196 13.2911 18.5109 11.0622 19.4527H2.45057C1.87393 19.4527 1.40479 18.9836 1.40479 18.4069ZM18.1796 15.5436C16.8758 17.3256 14.9591 18.6053 12.7816 19.1684C13.3509 18.8078 13.8823 18.392 14.3713 17.9241C15.2025 17.1284 15.8758 16.2157 16.3758 15.2072C16.7799 15.456 17.2374 15.5861 17.7167 15.5861C17.8724 15.5861 18.0274 15.5718 18.1796 15.5436ZM17.5495 19.4527H13.7262C15.6762 18.7775 17.3824 17.5425 18.5954 15.8997V18.4069C18.5953 18.9836 18.1262 19.4527 17.5495 19.4527ZM5.05713 7.77199H3.24123C2.93381 7.77199 2.68373 8.0216 2.68373 8.3284V10.1443C2.68373 10.4518 2.93381 10.7018 3.24123 10.7018H5.05713C5.36393 10.7018 5.61353 10.4518 5.61353 10.1443V8.3284C5.61353 8.0216 5.36393 7.77199 5.05713 7.77199ZM5.06764 10.1443C5.06764 10.1505 5.06178 10.156 5.05709 10.156H3.24123C3.2358 10.156 3.22959 10.1498 3.22959 10.1443V8.3284C3.22959 8.32375 3.2351 8.31789 3.24123 8.31789H5.05713C5.06256 8.31789 5.06768 8.32301 5.06768 8.3284V10.1443H5.06764ZM8.95701 7.77199H7.14107C6.83428 7.77199 6.58467 8.0216 6.58467 8.3284V10.1443C6.58467 10.4518 6.83428 10.7018 7.14107 10.7018H8.95701C9.26439 10.7018 9.51447 10.4518 9.51447 10.1443V8.3284C9.51447 8.0216 9.26439 7.77199 8.95701 7.77199ZM8.96861 10.1443C8.96861 10.1498 8.96244 10.156 8.95701 10.156H7.14107C7.13643 10.156 7.13053 10.1505 7.13053 10.1443V8.3284C7.13053 8.32301 7.13564 8.31789 7.14107 8.31789H8.95701C8.96314 8.31789 8.96861 8.32375 8.96861 8.3284V10.1443ZM11.042 10.7019H12.8579C13.1647 10.7019 13.4144 10.4518 13.4144 10.1444V8.32844C13.4144 8.02164 13.1647 7.77203 12.8579 7.77203H11.042C10.7352 7.77203 10.4856 8.02164 10.4856 8.32844V10.1444C10.4856 10.4518 10.7352 10.7019 11.042 10.7019ZM11.0315 8.3284C11.0315 8.32301 11.0366 8.31789 11.042 8.31789H12.8579C12.8634 8.31789 12.8685 8.32301 12.8685 8.3284V10.1443C12.8685 10.1505 12.8626 10.156 12.8579 10.156H11.042C11.0374 10.156 11.0315 10.1505 11.0315 10.1443V8.3284ZM14.9429 10.7019H16.7589C17.0657 10.7019 17.3153 10.4518 17.3153 10.1444V8.32844C17.3153 8.02164 17.0657 7.77203 16.7589 7.77203H14.9429C14.6355 7.77203 14.3854 8.02164 14.3854 8.32844V10.1444C14.3854 10.4518 14.6355 10.7019 14.9429 10.7019ZM14.9313 8.3284C14.9313 8.32375 14.9368 8.31789 14.9429 8.31789H16.7589C16.7643 8.31789 16.7694 8.32301 16.7694 8.3284V10.1443C16.7694 10.1505 16.7636 10.156 16.7589 10.156H14.9429C14.9376 10.156 14.9313 10.1496 14.9313 10.1443V8.3284ZM5.05713 11.6729H3.24123C2.93381 11.6729 2.68373 11.9225 2.68373 12.2293V14.0453C2.68373 14.3521 2.93381 14.6017 3.24123 14.6017H5.05713C5.36393 14.6017 5.61353 14.3521 5.61353 14.0453V12.2294C5.61353 11.9225 5.36393 11.6729 5.05713 11.6729ZM5.06764 14.0453C5.06764 14.0507 5.06252 14.0558 5.05709 14.0558H3.24123C3.2351 14.0558 3.22959 14.05 3.22959 14.0453V12.2294C3.22959 12.2247 3.2351 12.2188 3.24123 12.2188H5.05713C5.06256 12.2188 5.06768 12.2239 5.06768 12.2294V14.0453H5.06764ZM8.95701 11.6729H7.14107C6.83428 11.6729 6.58467 11.9225 6.58467 12.2293V14.0453C6.58467 14.3521 6.83428 14.6017 7.14107 14.6017H8.95701C9.26439 14.6017 9.51447 14.3521 9.51447 14.0453V12.2294C9.51447 11.9225 9.26439 11.6729 8.95701 11.6729ZM8.96861 14.0453C8.96861 14.05 8.96314 14.0558 8.95701 14.0558H7.14107C7.13564 14.0558 7.13053 14.0507 7.13053 14.0453V12.2294C7.13053 12.2239 7.13564 12.2188 7.14107 12.2188H8.95701C8.96314 12.2188 8.96861 12.2247 8.96861 12.2294V14.0453ZM12.8579 14.6017C13.1647 14.6017 13.4144 14.3521 13.4144 14.0453V12.2294C13.4144 11.9226 13.1647 11.673 12.8579 11.673H11.042C10.7352 11.673 10.4856 11.9226 10.4856 12.2294V14.0453C10.4856 14.3521 10.7352 14.6017 11.042 14.6017H12.8579ZM11.0315 14.0453V12.2294C11.0315 12.2239 11.0366 12.2188 11.042 12.2188H12.8579C12.8634 12.2188 12.8685 12.2239 12.8685 12.2294V14.0453C12.8685 14.0507 12.8634 14.0558 12.8579 14.0558H11.042C11.0366 14.0558 11.0315 14.0507 11.0315 14.0453ZM5.05713 15.5728H3.24123C2.93381 15.5728 2.68373 15.8229 2.68373 16.1303V17.9462C2.68373 18.253 2.93381 18.5027 3.24123 18.5027H5.05713C5.36393 18.5027 5.61353 18.253 5.61353 17.9462V16.1303C5.61353 15.8229 5.36393 15.5728 5.05713 15.5728ZM5.06764 17.9462C5.06764 17.9517 5.06252 17.9568 5.05709 17.9568H3.24123C3.2351 17.9568 3.22959 17.9509 3.22959 17.9462V16.1303C3.22959 16.1249 3.2358 16.1187 3.24123 16.1187H5.05713C5.06178 16.1187 5.06768 16.1241 5.06768 16.1303V17.9462H5.06764ZM8.95701 15.5728H7.14107C6.83428 15.5728 6.58467 15.8229 6.58467 16.1303V17.9462C6.58467 18.253 6.83428 18.5027 7.14107 18.5027H8.95701C9.26439 18.5027 9.51447 18.253 9.51447 17.9462V16.1303C9.51447 15.8229 9.26439 15.5728 8.95701 15.5728ZM8.96861 17.9462C8.96861 17.9509 8.96314 17.9568 8.95701 17.9568H7.14107C7.13564 17.9568 7.13053 17.9517 7.13053 17.9462V16.1303C7.13053 16.1241 7.13639 16.1187 7.14107 16.1187H8.95701C8.96244 16.1187 8.96861 16.1249 8.96861 16.1303V17.9462Z" fill="#2D4C19"/>
</g>
<defs>
<clipPath id="clip0_825_10316">
<rect width="20" height="20" fill="white"/>
</clipPath>
</defs>
</svg>
