<svg width="26" height="26" viewBox="0 0 26 26" fill="none" xmlns="http://www.w3.org/2000/svg">
<path d="M7.30612 23.7802C7.07524 23.7782 6.84753 23.7262 6.63871 23.6276C6.4299 23.5291 6.24496 23.3864 6.09664 23.2095C5.94833 23.0325 5.84018 22.8255 5.77967 22.6026C5.71915 22.3798 5.7077 22.1465 5.74612 21.9188C5.76076 21.8312 5.78011 21.7444 5.8041 21.6588C5.8564 21.4728 5.94251 21.2981 6.05812 21.1433L8.71012 17.6013C8.82778 17.4442 8.90065 17.2581 8.92098 17.0628L8.95738 14.1025C8.95868 13.993 9.00308 13.8884 9.08096 13.8115C9.15883 13.7345 9.2639 13.6914 9.37338 13.6914H9.37858C9.48887 13.6928 9.5941 13.7379 9.67113 13.8168C9.74817 13.8958 9.7907 14.0021 9.78938 14.1123L9.75298 17.0906C9.75298 17.1013 9.75298 17.1122 9.75142 17.1231C9.71916 17.477 9.58938 17.815 9.3765 18.0994L6.72424 21.6414C6.66936 21.7143 6.6283 21.7966 6.60308 21.8843C6.58747 21.9408 6.57472 21.9981 6.56486 22.0559C6.54146 22.1897 6.55447 22.3273 6.60255 22.4543C6.65063 22.5814 6.732 22.6931 6.83812 22.7779C6.94087 22.8625 7.06446 22.9179 7.19596 22.9383C7.32746 22.9588 7.46204 22.9435 7.58562 22.8941L7.59966 22.8881L7.6098 22.8842C7.73297 22.8326 7.84001 22.7488 7.91972 22.6416L11.0878 18.4187L11.4235 16.9084C11.4353 16.8551 11.4576 16.8046 11.4889 16.7598C11.5203 16.7151 11.5601 16.677 11.6062 16.6476C11.6523 16.6183 11.7037 16.5983 11.7575 16.5889C11.8113 16.5794 11.8665 16.5806 11.9198 16.5925C11.9732 16.6043 12.0236 16.6266 12.0684 16.6579C12.1131 16.6893 12.1512 16.7291 12.1806 16.7752C12.2099 16.8213 12.2299 16.8727 12.2393 16.9265C12.2488 16.9804 12.2476 17.0355 12.2357 17.0888L11.8806 18.6868C11.8678 18.7446 11.8428 18.7989 11.8072 18.8462L8.58324 23.1414C8.41335 23.3682 8.18562 23.5452 7.92388 23.6538L7.91582 23.6572L7.88826 23.6684C7.70291 23.7417 7.50545 23.7796 7.30612 23.7802Z" fill="#2D4C19"/>
<path d="M9.6346 14.2099C9.56787 14.2097 9.50217 14.1935 9.44303 14.1626C9.38389 14.1317 9.33306 14.087 9.29481 14.0323C9.25657 13.9776 9.23205 13.9145 9.22331 13.8484C9.21457 13.7822 9.22187 13.7149 9.2446 13.6522L11.2957 7.98888C11.4108 7.66489 11.6036 7.37407 11.8572 7.14186C12.1107 6.90965 12.4174 6.74313 12.7502 6.6569C13.273 6.52404 13.7902 6.601 14.286 6.88622C14.6291 7.08643 14.9211 7.36348 15.1391 7.6956L16.8889 10.3338C16.9203 10.3818 16.9632 10.4211 17.0137 10.4483C17.0642 10.4756 17.1206 10.4898 17.178 10.4898H19.2039C19.6576 10.4898 20.0848 10.7225 20.3188 11.0972C20.5736 11.5054 20.5382 11.9677 20.2221 12.3657C20.0984 12.5209 19.9411 12.646 19.762 12.7316C19.5829 12.8171 19.3868 12.861 19.1883 12.8597H15.858C15.1617 12.8597 14.5143 12.5264 14.1264 11.9682C14.1022 11.9336 14.078 11.8964 14.0549 11.8579C13.9718 11.7203 13.8893 11.5829 13.8073 11.4456C13.7172 11.2948 13.6266 11.144 13.5356 10.9932C13.3729 10.723 13.2463 10.5171 13.1251 10.3255L12.8498 9.88922C12.8168 9.84316 12.7937 9.79087 12.7817 9.73555C12.7696 9.68023 12.7691 9.62304 12.7799 9.56748C12.7908 9.51192 12.8129 9.45916 12.8448 9.41244C12.8768 9.36571 12.918 9.326 12.9658 9.29574C13.0136 9.26547 13.0672 9.24529 13.1231 9.23643C13.179 9.22757 13.2361 9.23021 13.291 9.24419C13.3458 9.25818 13.3972 9.28322 13.4421 9.31777C13.4869 9.35232 13.5243 9.39566 13.5518 9.44514L13.8287 9.8796C13.9527 10.0762 14.0822 10.2865 14.248 10.5613C14.3396 10.7126 14.43 10.8647 14.5213 11.0163C14.6029 11.1531 14.6848 11.2897 14.767 11.4263C14.7808 11.449 14.7951 11.4708 14.8091 11.4911C14.9279 11.6582 15.0853 11.7941 15.2679 11.8872C15.4505 11.9804 15.653 12.0279 15.858 12.0259H19.188C19.2612 12.0263 19.3335 12.0103 19.3997 11.9791C19.4659 11.9479 19.5242 11.9024 19.5705 11.8457C19.6927 11.6921 19.6618 11.6141 19.6126 11.5353C19.5681 11.4678 19.5073 11.4127 19.4358 11.375C19.3643 11.3373 19.2845 11.3182 19.2036 11.3195H17.178C16.9833 11.3198 16.7916 11.2718 16.6201 11.1797C16.4486 11.0877 16.3026 10.9545 16.1952 10.7922L14.4456 8.15502C14.2988 7.9305 14.102 7.74307 13.8705 7.60746C13.5642 7.43144 13.2642 7.38438 12.954 7.46316C12.7529 7.51615 12.5677 7.6176 12.4148 7.75865C12.2619 7.89969 12.1458 8.07604 12.0768 8.27228L10.0256 13.9356C9.99653 14.0159 9.94338 14.0854 9.87342 14.1345C9.80345 14.1835 9.72007 14.2099 9.6346 14.2099Z" fill="#2D4C19"/>
<path d="M14.8477 23.691C14.6853 23.6907 14.524 23.6635 14.3706 23.6104C13.5955 23.3442 13.1579 22.8551 13.1704 22.2691L13.186 21.5626V19.6386C13.1858 19.3803 13.0936 19.1306 12.926 18.934L9.05486 14.377C9.01947 14.3354 8.99263 14.2872 8.97587 14.2352C8.95911 14.1832 8.95275 14.1283 8.95717 14.0739C8.96159 14.0194 8.97669 13.9663 9.00162 13.9177C9.02654 13.8691 9.0608 13.8258 9.10244 13.7905C9.14408 13.7551 9.19228 13.7282 9.24429 13.7115C9.29631 13.6947 9.35111 13.6883 9.40558 13.6928C9.46004 13.6972 9.51311 13.7123 9.56174 13.7372C9.61037 13.7621 9.65361 13.7964 9.689 13.838L13.5612 18.3951C13.856 18.7423 14.0179 19.1829 14.018 19.6384V21.5764L14.0021 22.287C13.9959 22.579 14.4896 22.7716 14.641 22.8236C14.7765 22.8732 14.9257 22.8708 15.0596 22.8169C15.41 22.6676 15.4592 22.2059 15.4639 22.1495V18.0706C15.4641 17.7984 15.362 17.536 15.1779 17.3356L13.2341 15.2132C12.9479 14.9014 12.7509 14.5183 12.664 14.1041C12.5771 13.6899 12.6034 13.2599 12.7401 12.8594L13.5009 10.633C13.5365 10.5286 13.6122 10.4427 13.7113 10.3941C13.8104 10.3455 13.9247 10.3382 14.0291 10.3739C14.1335 10.4096 14.2194 10.4853 14.268 10.5844C14.3166 10.6834 14.3238 10.7977 14.2881 10.9021L13.5274 13.1285C13.4387 13.3875 13.4215 13.6656 13.4776 13.9336C13.5337 14.2015 13.661 14.4494 13.8461 14.6511L15.7902 16.7724C16.1158 17.1262 16.2963 17.5897 16.2959 18.0706V22.1625V22.1809C16.279 22.5647 16.0681 23.2919 15.3859 23.5823C15.2157 23.6546 15.0326 23.6916 14.8477 23.691Z" fill="#2D4C19"/>
<path d="M9.03415 14.6743C8.93998 14.6743 8.84648 14.6585 8.75751 14.6277C8.66781 14.5965 8.57863 14.5648 8.48919 14.5331C8.30381 14.467 8.11219 14.3992 7.92473 14.3381L6.73679 13.952C6.66996 13.9298 6.6019 13.9114 6.53295 13.8971C6.07197 13.802 5.76101 13.6145 5.60943 13.3402C5.55462 13.24 5.52218 13.1291 5.51432 13.0151C5.50647 12.9012 5.52339 12.7868 5.56393 12.6801L5.56705 12.6717C5.58031 12.6364 5.59305 12.6031 5.60293 12.5719L7.61221 6.47099C7.66811 6.30095 7.71309 6.12623 7.76067 5.94111L7.77367 5.89119C7.82629 5.68989 7.94449 5.51186 8.10959 5.38523C8.23994 5.28525 8.39155 5.2166 8.55268 5.18459C8.71382 5.15258 8.88016 5.15807 9.03883 5.20063L11.0198 5.72401C11.5398 5.83243 11.9139 6.07891 12.1323 6.45695C12.4802 7.05911 12.2704 7.73641 12.2451 7.81155L11.4558 7.54843V7.55129C11.4904 7.44183 11.5499 7.10643 11.4108 6.86983C11.3143 6.70603 11.123 6.59397 10.8422 6.53677C10.8344 6.53521 10.8266 6.53339 10.819 6.53131L8.82719 6.00507C8.79262 5.99489 8.75617 5.99284 8.72068 5.99906C8.68518 6.00528 8.65161 6.01962 8.62257 6.04095C8.60176 6.05443 8.5866 6.07505 8.57993 6.09893L8.56719 6.14859C8.51831 6.33865 8.46787 6.53495 8.40313 6.73099L6.39229 12.8322C6.37877 12.8738 6.36447 12.9122 6.35069 12.9497C6.38189 12.9757 6.47367 13.0352 6.70117 13.0823C6.80012 13.1028 6.89786 13.1289 6.99393 13.1603L8.18187 13.5479C8.38025 13.6124 8.57733 13.6824 8.76791 13.75C8.85561 13.7812 8.94341 13.8122 9.03129 13.843C9.04897 13.843 9.14699 13.7962 9.28011 13.5794C9.31874 13.5165 9.37338 13.4651 9.43844 13.4303C9.5035 13.3956 9.57663 13.3787 9.65035 13.3815C9.67635 13.3815 12.2503 13.4507 13.1567 11.6575C13.1813 11.6087 13.2153 11.5652 13.2567 11.5296C13.2981 11.494 13.3461 11.4668 13.398 11.4498C13.4499 11.4327 13.5047 11.426 13.5592 11.4301C13.6137 11.4341 13.6668 11.4489 13.7156 11.4735C13.7644 11.4981 13.8078 11.5321 13.8434 11.5735C13.8791 11.6149 13.9062 11.663 13.9233 11.7149C13.9404 11.7668 13.9471 11.8215 13.943 11.876C13.9389 11.9305 13.9241 11.9836 13.8995 12.0324C13.4193 12.983 12.5215 13.6618 11.2995 13.9951C10.8275 14.1222 10.3425 14.1946 9.85393 14.2109C9.56195 14.5827 9.26035 14.6743 9.03415 14.6743Z" fill="#2D4C19"/>
<path d="M15.1539 6.51779C14.7253 6.51759 14.3064 6.39032 13.9502 6.15207C13.5939 5.91382 13.3163 5.57529 13.1525 5.17929C12.9886 4.78328 12.9458 4.34758 13.0296 3.92728C13.1133 3.50697 13.3198 3.12093 13.6229 2.81796C13.926 2.51499 14.3121 2.30869 14.7325 2.22516C15.1528 2.14163 15.5885 2.1846 15.9844 2.34865C16.3804 2.51271 16.7188 2.79047 16.9568 3.14683C17.1949 3.50318 17.322 3.92213 17.322 4.35069C17.3212 4.92539 17.0925 5.47632 16.6861 5.8826C16.2796 6.28887 15.7286 6.51731 15.1539 6.51779ZM15.1539 3.01559C14.8898 3.0158 14.6318 3.09428 14.4124 3.2411C14.193 3.38793 14.022 3.59652 13.9211 3.84049C13.8202 4.08447 13.7939 4.35288 13.8456 4.6118C13.8972 4.87071 14.0244 5.10851 14.2112 5.29512C14.398 5.48173 14.6359 5.60879 14.8948 5.66022C15.1538 5.71165 15.4222 5.68515 15.6661 5.58407C15.91 5.48299 16.1184 5.31186 16.2651 5.09233C16.4117 4.87279 16.49 4.61471 16.49 4.35069C16.4895 3.99657 16.3486 3.65711 16.0981 3.4068C15.8476 3.1565 15.508 3.0158 15.1539 3.01559Z" fill="#2D4C19"/>
<path d="M19.1836 23.816C19.0732 23.816 18.9674 23.7722 18.8894 23.6942C18.8114 23.6161 18.7676 23.5103 18.7676 23.4V12.4433C18.7676 12.333 18.8114 12.2272 18.8894 12.1492C18.9674 12.0712 19.0732 12.0273 19.1836 12.0273C19.2939 12.0273 19.3997 12.0712 19.4777 12.1492C19.5558 12.2272 19.5996 12.333 19.5996 12.4433V23.4C19.5996 23.5103 19.5558 23.6161 19.4777 23.6942C19.3997 23.7722 19.2939 23.816 19.1836 23.816Z" fill="#2D4C19"/>
<path d="M19.1836 11.3192C19.0732 11.3192 18.9674 11.2754 18.8894 11.1974C18.8114 11.1194 18.7676 11.0136 18.7676 10.9032V8.62694C18.7676 8.51661 18.8114 8.4108 18.8894 8.33278C18.9674 8.25477 19.0732 8.21094 19.1836 8.21094C19.2939 8.21094 19.3997 8.25477 19.4777 8.33278C19.5558 8.4108 19.5996 8.51661 19.5996 8.62694V10.9032C19.5996 11.0136 19.5558 11.1194 19.4777 11.1974C19.3997 11.2754 19.2939 11.3192 19.1836 11.3192Z" fill="#2D4C19"/>
<path d="M11.4239 9.27046C11.3851 9.27043 11.3464 9.265 11.309 9.25434L7.50834 8.16416C7.45556 8.14933 7.40623 8.12422 7.36319 8.09027C7.32015 8.05632 7.28425 8.0142 7.25754 7.96632C7.23083 7.91845 7.21385 7.86577 7.20757 7.81131C7.20129 7.75685 7.20584 7.70169 7.22095 7.64899C7.23606 7.5963 7.26143 7.54711 7.29562 7.50425C7.3298 7.4614 7.37212 7.42572 7.42014 7.39927C7.46815 7.37282 7.52092 7.35613 7.57542 7.35014C7.62991 7.34416 7.68504 7.349 7.73766 7.3644L11.5383 8.45458C11.6347 8.48222 11.7179 8.54375 11.7725 8.62784C11.8271 8.71193 11.8496 8.81292 11.8356 8.91222C11.8217 9.01152 11.7724 9.10246 11.6967 9.16828C11.6211 9.2341 11.5242 9.27039 11.4239 9.27046Z" fill="#2D4C19"/>
</svg>
