<svg width="24" height="24" viewBox="0 0 24 24" fill="none" xmlns="http://www.w3.org/2000/svg">
<path d="M1.45419 22.9102H0.726918C0.525827 22.9102 0.363281 23.0731 0.363281 23.2738C0.363281 23.4745 0.525827 23.6374 0.726918 23.6374H1.45419C1.65528 23.6374 1.81783 23.4745 1.81783 23.2738C1.81783 23.0731 1.65528 22.9102 1.45419 22.9102Z" fill="#2D4C19"/>
<path d="M4.57089 22.9102H3.84362C3.64253 22.9102 3.47998 23.0731 3.47998 23.2738C3.47998 23.4745 3.64253 23.6374 3.84362 23.6374H4.57089C4.77198 23.6374 4.93453 23.4745 4.93453 23.2738C4.93453 23.0731 4.77198 22.9102 4.57089 22.9102Z" fill="#2D4C19"/>
<path d="M7.68808 22.9102H6.9608C6.75971 22.9102 6.59717 23.0731 6.59717 23.2738C6.59717 23.4745 6.75971 23.6374 6.9608 23.6374H7.68808C7.88917 23.6374 8.05171 23.4745 8.05171 23.2738C8.05171 23.0731 7.8888 22.9102 7.68808 22.9102Z" fill="#2D4C19"/>
<path d="M10.8048 22.9102H10.0775C9.87641 22.9102 9.71387 23.0731 9.71387 23.2738C9.71387 23.4745 9.87641 23.6374 10.0775 23.6374H10.8048C11.0059 23.6374 11.1684 23.4745 11.1684 23.2738C11.1684 23.0731 11.0059 22.9102 10.8048 22.9102Z" fill="#2D4C19"/>
<path d="M13.9215 22.9102H13.1942C12.9931 22.9102 12.8306 23.0731 12.8306 23.2738C12.8306 23.4745 12.9931 23.6374 13.1942 23.6374H13.9215C14.1226 23.6374 14.2851 23.4745 14.2851 23.2738C14.2851 23.0731 14.1226 22.9102 13.9215 22.9102Z" fill="#2D4C19"/>
<path d="M17.0387 22.9102H16.3114C16.1103 22.9102 15.9478 23.0731 15.9478 23.2738C15.9478 23.4745 16.1103 23.6374 16.3114 23.6374H17.0387C17.2398 23.6374 17.4023 23.4745 17.4023 23.2738C17.4023 23.0731 17.2394 22.9102 17.0387 22.9102Z" fill="#2D4C19"/>
<path d="M20.1556 22.9102H19.4283C19.2272 22.9102 19.0647 23.0731 19.0647 23.2738C19.0647 23.4745 19.2272 23.6374 19.4283 23.6374H20.1556C20.3567 23.6374 20.5192 23.4745 20.5192 23.2738C20.5192 23.0731 20.3567 22.9102 20.1556 22.9102Z" fill="#2D4C19"/>
<path d="M23.2723 22.9102H22.545C22.3439 22.9102 22.1814 23.0731 22.1814 23.2738C22.1814 23.4745 22.3439 23.6374 22.545 23.6374H23.2723C23.4734 23.6374 23.6359 23.4745 23.6359 23.2738C23.6359 23.0731 23.4734 22.9102 23.2723 22.9102Z" fill="#2D4C19"/>
<path d="M7.14558 15.0917C7.34667 15.0917 7.50922 14.9288 7.50922 14.7281V10.3754C7.50922 10.1746 7.34667 10.0117 7.14558 10.0117H2.5714C2.37031 10.0117 2.20776 10.1746 2.20776 10.3754V14.7281C2.20776 14.9288 2.37031 15.0917 2.5714 15.0917H7.14558ZM2.93504 10.739H6.78195V14.3644H2.93504V10.739Z" fill="#2D4C19"/>
<path d="M23.6309 16.7104C23.5822 15.4464 22.6651 14.4017 21.4589 14.1617L20.3004 10.9075C20.1044 10.297 19.5418 9.88679 18.9004 9.88679H16.4709V8.73406H19.8735C20.8876 8.73406 21.7127 7.90897 21.7127 6.89442V6.15661C21.7127 5.95588 21.5502 5.79297 21.3491 5.79297H1.83346C1.02292 5.79297 0.363281 6.4526 0.363281 7.26315V19.0617C0.363281 19.4657 0.691645 19.7944 1.09601 19.7944H2.65055C2.82328 20.7366 3.64874 21.4533 4.63965 21.4533C5.63055 21.4533 6.45601 20.7366 6.62874 19.7944H8.98983H17.7004C17.8727 20.7366 18.6982 21.4533 19.6895 21.4533C20.6807 21.4533 21.5058 20.7366 21.6786 19.7944H22.9036C23.3076 19.7944 23.6364 19.4657 23.6364 19.0617C23.6342 18.0624 23.6415 16.8475 23.6309 16.7104ZM18.9007 10.6141C19.2251 10.6141 19.5091 10.8213 19.6116 11.1406L20.6676 14.1075H16.4713V10.6141H18.9007ZM1.09055 19.0621V7.26351C1.09055 6.8537 1.42364 6.5206 1.83346 6.5206H20.9858V6.89479C20.9858 7.50824 20.4869 8.00715 19.8738 8.00715H16.1076C15.9066 8.00715 15.744 8.17006 15.744 8.37079C15.7426 21.0079 15.744 6.44897 15.744 19.0679H13.7807V10.3737C13.7807 10.173 13.6182 10.0101 13.4171 10.0101H8.98983C8.78874 10.0101 8.62619 10.173 8.62619 10.3737V19.0675H6.6291C6.45746 18.1242 5.63165 17.4061 4.63965 17.4061C3.64801 17.4061 2.82219 18.1239 2.65019 19.0668L1.09055 19.0621ZM4.63965 20.7261C3.92692 20.7261 3.34692 20.1475 3.34365 19.4352C3.34365 19.4337 3.34437 19.4322 3.34437 19.4308C3.34437 19.429 3.34328 19.4275 3.34328 19.4257C3.34546 18.7126 3.92583 18.133 4.63928 18.133C5.35419 18.133 5.93565 18.7148 5.93565 19.4293C5.93565 20.1439 5.35455 20.7261 4.63965 20.7261ZM9.35346 19.0675V10.7373H13.0535V14.5388H12.3102C12.1091 14.5388 11.9466 14.7017 11.9466 14.9024C11.9466 15.1032 12.1091 15.2661 12.3102 15.2661H13.0535V19.0675H9.35346ZM19.6895 20.7261C18.9756 20.7261 18.3949 20.1461 18.3935 19.433C18.3935 19.4322 18.3938 19.4319 18.3938 19.4311C18.3938 19.4301 18.3931 19.4293 18.3931 19.4282C18.3938 18.7141 18.9753 18.133 19.6895 18.133C20.4044 18.133 20.9858 18.7148 20.9858 19.4293C20.9858 20.1439 20.404 20.7261 19.6895 20.7261ZM21.6789 19.0675C21.5073 18.1242 20.6815 17.4061 19.6895 17.4061C18.6975 17.4061 17.8713 18.1242 17.7 19.0675H16.4716V14.8362H20.9302C21.8695 14.8362 22.656 15.4944 22.8578 16.3733H22.2495C22.0484 16.3733 21.8858 16.5362 21.8858 16.737C21.8858 16.9377 22.0484 17.1006 22.2495 17.1006H22.9087L22.904 19.0675H21.6789Z" fill="#2D4C19"/>
<path d="M10.5917 1.13149C11.1378 1.11222 11.6477 1.56385 11.656 2.16604C11.6589 2.36495 11.8211 2.52458 12.0197 2.52458H12.0248C12.224 2.52167 12.3833 2.35949 12.3833 2.16095C12.3833 2.15913 12.3833 2.15731 12.3833 2.15549C12.3749 1.57658 12.8393 1.09913 13.4182 1.09076C13.6189 1.08785 13.7793 0.922764 13.7764 0.722036C13.7735 0.521309 13.6215 0.356582 13.4073 0.363491C12.832 0.371855 12.324 0.654036 12.0051 1.08385C11.6542 0.640218 11.1382 0.403855 10.5811 0.403855C10.3804 0.406764 10.22 0.571855 10.2229 0.772582C10.2258 0.973309 10.3771 1.13767 10.5917 1.13149Z" fill="#2D4C19"/>
<path d="M20.4457 2.90826C20.9737 2.87881 21.5068 3.32935 21.5155 3.94317C21.5184 4.14208 21.6806 4.30135 21.8792 4.30135H21.8846C22.0835 4.29844 22.2428 4.1359 22.2428 3.93772C22.2428 3.9359 22.2428 3.93408 22.2428 3.93226C22.2341 3.35299 22.697 2.8759 23.2773 2.8679C23.4784 2.86499 23.6388 2.6999 23.6359 2.49917C23.633 2.30026 23.4708 2.14062 23.2723 2.14062C23.2704 2.14062 23.2686 2.14062 23.2672 2.14062C22.6981 2.14863 22.1857 2.42353 21.8632 2.86099C21.5352 2.44426 21.0377 2.18099 20.4403 2.18099C20.2395 2.1839 20.0792 2.34899 20.0821 2.54972C20.085 2.74863 20.2472 2.90826 20.4457 2.90826Z" fill="#2D4C19"/>
</svg>
