<svg width="24" height="24" viewBox="0 0 24 24" fill="none" xmlns="http://www.w3.org/2000/svg">
<g clip-path="url(#clip0_825_10307)">
<path d="M0.468754 16.5C0.311284 16.5 0.16425 16.5791 0.0774583 16.7108C-0.00933358 16.8422 -0.0241651 17.0087 0.0379076 17.1533C0.731876 18.7727 0.632267 18.5413 2.60706 23.1478C2.82898 23.6655 3.33636 24 3.8996 24H20.1004C20.6636 24 21.171 23.6655 21.3929 23.1478C21.9486 21.8509 23.4968 18.2388 23.9621 17.1533C24.0241 17.0085 24.0093 16.8422 23.9225 16.7108C23.8357 16.5791 23.6887 16.5 23.5312 16.5H15.2812V15.5625H21.6562C21.83 15.5625 21.9897 15.4664 22.0708 15.3126C22.1519 15.1588 22.1413 14.9727 22.0431 14.8292L13.3244 2.07919C13.2083 1.90963 12.9953 1.83529 12.7991 1.89608C12.6026 1.95669 12.4687 2.13833 12.4687 2.34377V16.5H11.5312C11.5312 15.8 11.5312 1.26895 11.5312 0.468775C11.5312 0.257838 11.3902 0.0729019 11.1868 0.0168717C10.9836 -0.0391586 10.7679 0.0476333 10.6598 0.228724L6.92688 6.49037C6.79431 6.71285 6.86718 7.0005 7.08947 7.13307C7.31194 7.26564 7.5996 7.19277 7.73217 6.97048L10.5937 2.17056V14.625H3.16901L5.8125 10.1909C5.94506 9.96846 5.87219 9.6808 5.6499 9.54823C5.42743 9.41566 5.13977 9.48854 5.0072 9.71083L1.9411 14.8537C1.85486 14.9987 1.85285 15.1787 1.93616 15.3254C2.01947 15.4721 2.17511 15.5627 2.34375 15.5627H8.71874V16.5002H0.468754V16.5ZM20.5312 22.7785C20.4573 22.951 20.2881 23.0625 20.1004 23.0625H3.8996C3.71191 23.0625 3.54272 22.951 3.46875 22.7785L1.98322 19.3125H22.0168L20.5312 22.7785ZM22.4185 18.375H1.5813L1.17957 17.4375H22.8204L22.4185 18.375ZM13.4062 3.8597L20.7678 14.625H13.4062V3.8597ZM13.4062 15.5625H14.3437V16.5H13.4062V15.5625ZM9.65624 15.5625H10.5937V16.5H9.65624V15.5625Z" fill="#2D4C19"/>
<path d="M6.84375 8.34375C6.84375 8.08502 6.63373 7.875 6.375 7.875C6.11627 7.875 5.90625 8.08502 5.90625 8.34375C5.90625 8.60248 6.11627 8.8125 6.375 8.8125C6.63373 8.8125 6.84375 8.60248 6.84375 8.34375Z" fill="#2D4C19"/>
</g>
<defs>
<clipPath id="clip0_825_10307">
<rect width="24" height="24" fill="white"/>
</clipPath>
</defs>
</svg>
