<svg width="24" height="24" viewBox="0 0 24 24" fill="none" xmlns="http://www.w3.org/2000/svg">
<path d="M22.6131 4.19475C21.7037 3.24638 20.419 2.75252 19.1084 2.8475C17.4361 3.01708 16.136 4.22302 15.5236 4.90606C14.9112 4.22302 13.611 3.02179 11.934 2.8475C10.6235 2.75252 9.33876 3.24638 8.42931 4.19475C7.67301 4.87209 7.19323 5.80468 7.08205 6.81389C6.32564 6.27846 5.42708 5.98004 4.5006 5.95654C3.32382 5.99494 2.20774 6.48797 1.38685 7.33206C0.30516 8.33049 -0.192169 9.81188 0.0678602 11.2608C0.581324 14.8833 4.77853 19.3584 8.26914 21.1108C8.40246 21.178 8.55979 21.178 8.6931 21.1108C10.6135 20.0698 12.3306 18.691 13.7618 17.0408C14.2568 17.3889 14.7746 17.7037 15.3116 17.9829C15.4449 18.0501 15.6022 18.0501 15.7356 17.9829C19.2026 16.2352 23.4234 11.746 23.9321 8.12345C24.1922 6.67457 23.6948 5.19318 22.6131 4.19475ZM8.48112 20.1639C5.26373 18.4445 1.46222 14.3934 1.00057 11.1289C0.782999 9.98611 1.17139 8.81209 2.0275 8.02453C2.67751 7.34808 3.5633 6.9482 4.5006 6.9081C6.52148 6.9081 8.08072 9.03732 8.09485 9.06088C8.18276 9.18441 8.32479 9.25802 8.47641 9.25873C8.62804 9.25802 8.77006 9.18441 8.85798 9.06088C8.85798 9.06088 10.4266 6.9081 12.4711 6.9081C13.4084 6.9482 14.2942 7.34808 14.9442 8.02453C15.802 8.81109 16.1922 9.98529 15.9758 11.1289C15.5 14.3934 11.6985 18.4445 8.48112 20.1639ZM22.9994 7.99155C22.5283 11.2513 18.7598 15.3072 15.5188 17.0219C15.119 16.8066 14.7307 16.5708 14.3553 16.3153C15.6696 14.6713 16.6447 12.8812 16.8755 11.2608C17.1355 9.81188 16.6382 8.33049 15.5565 7.33206C14.7411 6.49809 13.6365 6.00907 12.471 5.96597C10.6103 5.96597 9.17353 7.30851 8.4952 8.04337C8.36801 7.89734 8.20785 7.73247 8.02413 7.5723C7.9517 6.56599 8.34393 5.58193 9.08874 4.90135C9.80312 4.14458 10.8148 3.74129 11.8539 3.79906C13.7382 3.98748 15.1514 5.91886 15.1514 5.9377C15.2393 6.06124 15.3813 6.13484 15.5329 6.13555C15.6846 6.13484 15.8266 6.06124 15.9145 5.9377C15.9145 5.9377 17.3277 3.99219 19.212 3.80377C20.2528 3.74394 21.2668 4.14747 21.9819 4.90606C22.8282 5.69169 23.2124 6.85658 22.9994 7.99155Z" fill="#2D4C19"/>
</svg>
