<svg width="22" height="22" viewBox="0 0 22 22" fill="none" xmlns="http://www.w3.org/2000/svg">
<g clip-path="url(#clip0_825_10313)">
<path d="M2.99072 7.01172H3.91885C4.1251 7.01172 4.2626 6.87422 4.2626 6.66797C4.2626 6.46172 4.1251 6.32422 3.91885 6.32422H2.99072C2.78447 6.32422 2.64697 6.46172 2.64697 6.66797C2.64697 6.87422 2.81885 7.01172 2.99072 7.01172Z" fill="#2D4C19"/>
<path d="M5.80933 7.01172H6.73745C6.9437 7.01172 7.0812 6.87422 7.0812 6.66797C7.0812 6.46172 6.9437 6.32422 6.73745 6.32422H5.80933C5.60308 6.32422 5.46558 6.46172 5.46558 6.66797C5.46558 6.87422 5.60308 7.01172 5.80933 7.01172Z" fill="#2D4C19"/>
<path d="M2.99072 8.90234H3.91885C4.1251 8.90234 4.2626 8.76484 4.2626 8.55859C4.2626 8.35234 4.1251 8.21484 3.91885 8.21484H2.99072C2.78447 8.21484 2.64697 8.35234 2.64697 8.55859C2.64697 8.76484 2.81885 8.90234 2.99072 8.90234Z" fill="#2D4C19"/>
<path d="M5.80933 8.90234H6.73745C6.9437 8.90234 7.0812 8.76484 7.0812 8.55859C7.0812 8.35234 6.9437 8.21484 6.73745 8.21484H5.80933C5.60308 8.21484 5.46558 8.35234 5.46558 8.55859C5.46558 8.76484 5.60308 8.90234 5.80933 8.90234Z" fill="#2D4C19"/>
<path d="M2.99072 10.7578H3.91885C4.1251 10.7578 4.2626 10.6203 4.2626 10.4141C4.2626 10.2078 4.1251 10.0703 3.91885 10.0703H2.99072C2.78447 10.0703 2.64697 10.2078 2.64697 10.4141C2.64697 10.6203 2.81885 10.7578 2.99072 10.7578Z" fill="#2D4C19"/>
<path d="M5.80933 10.7578H6.73745C6.9437 10.7578 7.0812 10.6203 7.0812 10.4141C7.0812 10.2078 6.9437 10.0703 6.73745 10.0703H5.80933C5.60308 10.0703 5.46558 10.2078 5.46558 10.4141C5.46558 10.6203 5.60308 10.7578 5.80933 10.7578Z" fill="#2D4C19"/>
<path d="M2.99072 12.3047H3.91885C4.1251 12.3047 4.2626 12.1672 4.2626 11.9609C4.2626 11.7547 4.1251 11.6172 3.91885 11.6172H2.99072C2.78447 11.6172 2.64697 11.7547 2.64697 11.9609C2.64697 12.1672 2.81885 12.3047 2.99072 12.3047Z" fill="#2D4C19"/>
<path d="M5.80933 12.3047H6.73745C6.9437 12.3047 7.0812 12.1672 7.0812 11.9609C7.0812 11.7547 6.9437 11.6172 6.73745 11.6172H5.80933C5.60308 11.6172 5.46558 11.7547 5.46558 11.9609C5.46558 12.1672 5.60308 12.3047 5.80933 12.3047Z" fill="#2D4C19"/>
<path d="M2.99072 14.1953H3.91885C4.1251 14.1953 4.2626 14.0578 4.2626 13.8516C4.2626 13.6453 4.1251 13.5078 3.91885 13.5078H2.99072C2.78447 13.5078 2.64697 13.6453 2.64697 13.8516C2.64697 14.0578 2.81885 14.1953 2.99072 14.1953Z" fill="#2D4C19"/>
<path d="M5.80933 14.1953H6.73745C6.9437 14.1953 7.0812 14.0578 7.0812 13.8516C7.0812 13.6453 6.9437 13.5078 6.73745 13.5078H5.80933C5.60308 13.5078 5.46558 13.6453 5.46558 13.8516C5.46558 14.0578 5.60308 14.1953 5.80933 14.1953Z" fill="#2D4C19"/>
<path d="M2.99072 16.0547H3.91885C4.1251 16.0547 4.2626 15.9172 4.2626 15.7109C4.2626 15.5047 4.1251 15.3672 3.91885 15.3672H2.99072C2.78447 15.3672 2.64697 15.5047 2.64697 15.7109C2.64697 15.9172 2.81885 16.0547 2.99072 16.0547Z" fill="#2D4C19"/>
<path d="M5.80933 16.0547H6.73745C6.9437 16.0547 7.0812 15.9172 7.0812 15.7109C7.0812 15.5047 6.9437 15.3672 6.73745 15.3672H5.80933C5.60308 15.3672 5.46558 15.5047 5.46558 15.7109C5.46558 15.9172 5.60308 16.0547 5.80933 16.0547Z" fill="#2D4C19"/>
<path d="M10.5532 11.3789H12.4782C12.6845 11.3789 12.822 11.2414 12.822 11.0352C12.822 10.8289 12.6845 10.6914 12.4782 10.6914H10.5532C10.347 10.6914 10.2095 10.8289 10.2095 11.0352C10.2095 11.2414 10.347 11.3789 10.5532 11.3789Z" fill="#2D4C19"/>
<path d="M10.5532 13.7852H12.4782C12.6845 13.7852 12.822 13.6477 12.822 13.4414C12.822 13.2352 12.6845 13.0977 12.4782 13.0977H10.5532C10.347 13.0977 10.2095 13.2352 10.2095 13.4414C10.2095 13.6477 10.347 13.7852 10.5532 13.7852Z" fill="#2D4C19"/>
<path d="M10.5532 16.1562H12.4782C12.6845 16.1562 12.822 16.0188 12.822 15.8125C12.822 15.6062 12.6845 15.4688 12.4782 15.4688H10.5532C10.347 15.4688 10.2095 15.6062 10.2095 15.8125C10.2095 16.0188 10.347 16.1562 10.5532 16.1562Z" fill="#2D4C19"/>
<path d="M10.5532 18.5625H12.4782C12.6845 18.5625 12.822 18.425 12.822 18.2188C12.822 18.0125 12.6845 17.875 12.4782 17.875H10.5532C10.347 17.875 10.2095 18.0125 10.2095 18.2188C10.2095 18.425 10.347 18.5625 10.5532 18.5625Z" fill="#2D4C19"/>
<path d="M18.9407 19.1125C19.1469 19.1125 19.2844 18.975 19.2844 18.7687V10.3125C19.2844 10.1062 19.1469 9.96875 18.9407 9.96875C18.7344 9.96875 18.5969 10.1062 18.5969 10.3125V18.8031C18.5969 18.975 18.7688 19.1125 18.9407 19.1125Z" fill="#2D4C19"/>
<path d="M16.2937 19.1117C16.5 19.1117 16.6375 18.9742 16.6375 18.768V8.90234C16.6375 8.69609 16.5 8.55859 16.2937 8.55859C16.0875 8.55859 15.95 8.69609 15.95 8.90234V18.8023C15.95 18.9742 16.1218 19.1117 16.2937 19.1117Z" fill="#2D4C19"/>
<path d="M21.6562 20.625H21.3125V8.49063C21.3469 8.525 21.4156 8.525 21.45 8.525C21.5875 8.525 21.6906 8.45625 21.7594 8.35312C21.8625 8.18125 21.7938 7.975 21.6219 7.90625C18.6656 6.39375 17.1531 5.60313 16.4312 5.25938H16.4656C16.4656 5.25938 16.4656 5.25938 16.4312 5.25938C16.4312 5.25938 16.3969 5.25938 16.3969 5.225C16.3969 5.19062 16.3625 5.225 16.3625 5.19063C16.2937 5.15625 16.1906 5.0875 16.0875 5.05312C16.1219 5.0875 16.1906 5.0875 16.225 5.12187C16.1562 5.0875 16.1219 5.0875 16.0875 5.05312H16.0531C16.0531 5.05312 16.0531 5.05312 16.0187 5.05312C15.9844 5.05312 15.9844 5.05312 15.9844 5.01875H15.95C15.95 5.01875 15.95 5.01875 15.9156 5.01875C15.8812 5.01875 15.8813 4.98438 15.8813 5.01875C15.5031 4.8125 14.9187 4.5375 14.025 4.09062C13.8531 3.9875 13.6469 4.05625 13.5781 4.22813C13.475 4.4 13.5438 4.60625 13.7156 4.675L13.9562 4.77812V7.8375L9.10938 8.9375V4.74375C9.10938 4.5375 8.97188 4.4 8.76562 4.4H7.49375V3.54063C7.49375 2.95625 7.0125 2.50938 6.4625 2.50938H5.0875V1.03125C5.0875 0.825 4.95 0.6875 4.74375 0.6875C4.5375 0.6875 4.4 0.825 4.4 1.03125V2.50938H3.025C2.44062 2.50938 1.99375 2.99063 1.99375 3.54063V4.4H0.996875C0.790625 4.4 0.653125 4.5375 0.653125 4.74375V20.625H0.34375C0.1375 20.625 0 20.7625 0 20.9688C0 21.175 0.1375 21.3125 0.34375 21.3125H21.6562C21.8625 21.3125 22 21.175 22 20.9688C22 20.7625 21.8625 20.625 21.6562 20.625ZM2.64687 3.54063C2.64687 3.33438 2.81875 3.19688 2.99062 3.19688H6.42813C6.63438 3.19688 6.77188 3.36875 6.77188 3.54063V4.4H2.64687V3.54063ZM5.67188 20.625H4.09062V18.0469H5.67188V20.625ZM8.3875 20.625H6.35938V17.7031C6.35938 17.4969 6.22188 17.3594 6.01562 17.3594H3.74687C3.54062 17.3594 3.40312 17.4969 3.40312 17.7031V20.625H1.34063V5.0875H8.3875V20.625ZM13.9219 20.625H9.075V9.55625L13.9219 8.45625V20.625ZM20.625 20.625H14.6094V5.05312L20.625 8.14688V20.625Z" fill="#2D4C19"/>
</g>
<defs>
<clipPath id="clip0_825_10313">
<rect width="22" height="22" fill="white"/>
</clipPath>
</defs>
</svg>
