<svg width="26" height="26" viewBox="0 0 26 26" fill="none" xmlns="http://www.w3.org/2000/svg">
<g clip-path="url(#clip0_825_10287)">
<path d="M20.3125 7.3125C19.9911 7.3125 19.6769 7.2172 19.4097 7.03864C19.1425 6.86008 18.9342 6.60629 18.8112 6.30936C18.6882 6.01243 18.656 5.6857 18.7187 5.37048C18.7814 5.05526 18.9362 4.76571 19.1635 4.53845C19.3907 4.31119 19.6803 4.15643 19.9955 4.09372C20.3107 4.03102 20.6374 4.0632 20.9344 4.1862C21.2313 4.30919 21.4851 4.51747 21.6636 4.7847C21.8422 5.05193 21.9375 5.36611 21.9375 5.6875C21.937 6.11834 21.7657 6.5314 21.4611 6.83605C21.1564 7.1407 20.7433 7.31205 20.3125 7.3125ZM20.3125 4.875C20.1518 4.875 19.9947 4.92265 19.8611 5.01193C19.7275 5.10121 19.6233 5.22811 19.5618 5.37657C19.5004 5.52504 19.4843 5.6884 19.5156 5.84601C19.547 6.00362 19.6243 6.14839 19.738 6.26203C19.8516 6.37566 19.9964 6.45304 20.154 6.48439C20.3116 6.51574 20.475 6.49965 20.6234 6.43815C20.7719 6.37666 20.8988 6.27252 20.9881 6.1389C21.0773 6.00529 21.125 5.8482 21.125 5.6875C21.1248 5.47209 21.0391 5.26557 20.8868 5.11325C20.7344 4.96093 20.5279 4.87525 20.3125 4.875Z" fill="#2D4C19"/>
<path d="M22.3241 4.08254C22.3775 4.0826 22.4303 4.07211 22.4796 4.05169C22.5289 4.03126 22.5737 4.00129 22.6114 3.96351L23.1858 3.38907C23.2604 3.31256 23.3019 3.20974 23.3012 3.10289C23.3005 2.99604 23.2578 2.89376 23.1822 2.81821C23.1067 2.74265 23.0044 2.6999 22.8975 2.69923C22.7907 2.69855 22.6879 2.74 22.6114 2.81459L22.0369 3.38907C21.9801 3.44588 21.9414 3.51826 21.9258 3.59705C21.9101 3.67585 21.9181 3.75752 21.9489 3.83174C21.9796 3.90596 22.0317 3.9694 22.0985 4.01404C22.1653 4.05868 22.2438 4.08252 22.3241 4.08254Z" fill="#2D4C19"/>
<path d="M18.0141 3.96351C18.0907 4.03751 18.1933 4.07845 18.2998 4.07753C18.4063 4.0766 18.5082 4.03388 18.5836 3.95856C18.6589 3.88323 18.7016 3.78134 18.7025 3.67482C18.7035 3.56831 18.6625 3.46569 18.5885 3.38907L18.0141 2.81459C17.9376 2.74 17.8347 2.69855 17.7279 2.69923C17.621 2.6999 17.5188 2.74265 17.4432 2.81821C17.3677 2.89376 17.3249 2.99604 17.3242 3.10289C17.3235 3.20975 17.365 3.31256 17.4396 3.38907L18.0141 3.96351Z" fill="#2D4C19"/>
<path d="M18.0135 7.41091L17.4391 7.98535C17.4005 8.0229 17.3699 8.06771 17.3488 8.11721C17.3278 8.1667 17.3168 8.21988 17.3164 8.27366C17.3161 8.32744 17.3264 8.38075 17.3468 8.43051C17.3673 8.48026 17.3974 8.52546 17.4354 8.56349C17.4734 8.60152 17.5186 8.63162 17.5684 8.65205C17.6181 8.67247 17.6714 8.68281 17.7252 8.68247C17.779 8.68213 17.8322 8.67112 17.8817 8.65006C17.9312 8.62901 17.976 8.59834 18.0135 8.55983L18.588 7.98535C18.662 7.90873 18.7029 7.80611 18.702 7.69959C18.7011 7.59308 18.6583 7.49118 18.583 7.41586C18.5077 7.34054 18.4058 7.29782 18.2993 7.29689C18.1928 7.29596 18.0902 7.33691 18.0135 7.41091Z" fill="#2D4C19"/>
<path d="M22.037 7.41191C21.9993 7.44962 21.9693 7.49439 21.9489 7.54368C21.9285 7.59296 21.918 7.64578 21.918 7.69913C21.918 7.75248 21.9285 7.80531 21.9489 7.85459C21.9693 7.90387 21.9993 7.94865 22.037 7.98635L22.6115 8.56083C22.688 8.63542 22.7908 8.67687 22.8976 8.67619C23.0045 8.67551 23.1068 8.63277 23.1823 8.55721C23.2579 8.48166 23.3006 8.37937 23.3013 8.27252C23.302 8.16567 23.2605 8.06286 23.1859 7.98635L22.6115 7.41191C22.5353 7.33575 22.432 7.29297 22.3242 7.29297C22.2165 7.29297 22.1132 7.33575 22.037 7.41191Z" fill="#2D4C19"/>
<path d="M20.3125 3.25C20.4202 3.25 20.5236 3.2072 20.5998 3.13101C20.6759 3.05483 20.7188 2.95149 20.7188 2.84375V1.21875C20.7188 1.11101 20.6759 1.00767 20.5998 0.931488C20.5236 0.855301 20.4202 0.8125 20.3125 0.8125C20.2048 0.8125 20.1014 0.855301 20.0252 0.931488C19.9491 1.00767 19.9062 1.11101 19.9062 1.21875V2.84375C19.9062 2.95149 19.9491 3.05483 20.0252 3.13101C20.1014 3.2072 20.2048 3.25 20.3125 3.25Z" fill="#2D4C19"/>
<path d="M15.8438 6.09375H17.4688C17.5765 6.09375 17.6798 6.05095 17.756 5.97476C17.8322 5.89858 17.875 5.79524 17.875 5.6875C17.875 5.57976 17.8322 5.47642 17.756 5.40024C17.6798 5.32405 17.5765 5.28125 17.4688 5.28125H15.8438C15.736 5.28125 15.6327 5.32405 15.5565 5.40024C15.4803 5.47642 15.4375 5.57976 15.4375 5.6875C15.4375 5.79524 15.4803 5.89858 15.5565 5.97476C15.6327 6.05095 15.736 6.09375 15.8438 6.09375Z" fill="#2D4C19"/>
<path d="M19.9062 8.53125V10.1562C19.9062 10.264 19.9491 10.3673 20.0252 10.4435C20.1014 10.5197 20.2048 10.5625 20.3125 10.5625C20.4202 10.5625 20.5236 10.5197 20.5998 10.4435C20.6759 10.3673 20.7188 10.264 20.7188 10.1562V8.53125C20.7188 8.42351 20.6759 8.32017 20.5998 8.24399C20.5236 8.1678 20.4202 8.125 20.3125 8.125C20.2048 8.125 20.1014 8.1678 20.0252 8.24399C19.9491 8.32017 19.9062 8.42351 19.9062 8.53125Z" fill="#2D4C19"/>
<path d="M22.75 5.6875C22.75 5.79524 22.7928 5.89858 22.869 5.97476C22.9452 6.05095 23.0485 6.09375 23.1562 6.09375H24.7812C24.889 6.09375 24.9923 6.05095 25.0685 5.97476C25.1447 5.89858 25.1875 5.79524 25.1875 5.6875C25.1875 5.57976 25.1447 5.47642 25.0685 5.40024C24.9923 5.32405 24.889 5.28125 24.7812 5.28125H23.1562C23.0485 5.28125 22.9452 5.32405 22.869 5.40024C22.7928 5.47642 22.75 5.57976 22.75 5.6875Z" fill="#2D4C19"/>
<path d="M12.9998 21.1255C12.6731 21.1255 12.3496 21.1314 12.0283 21.1403L8.84333 13.4531L12.4624 11.9529L15.4386 10.7191C15.4945 10.6959 15.5446 10.6604 15.5851 10.6154C15.6256 10.5703 15.6555 10.5168 15.6727 10.4587C15.6898 10.4006 15.6938 10.3394 15.6842 10.2795C15.6747 10.2197 15.6519 10.1628 15.6175 10.1129C14.5956 8.64879 13.1218 7.56025 11.4219 7.01415C9.722 6.46805 7.88991 6.49453 6.20652 7.08953L5.88806 6.32095C5.8684 6.27061 5.8389 6.22471 5.80128 6.18592C5.76366 6.14713 5.71868 6.11624 5.66897 6.09505C5.61927 6.07385 5.56583 6.06279 5.5118 6.06251C5.45777 6.06222 5.40422 6.07272 5.35429 6.09338C5.30436 6.11405 5.25906 6.14446 5.22103 6.18285C5.183 6.22124 5.15302 6.26683 5.13283 6.31695C5.11264 6.36707 5.10265 6.42072 5.10345 6.47475C5.10424 6.52878 5.11581 6.5821 5.13747 6.63161L5.45609 7.40064C3.84561 8.17112 2.5323 9.44859 1.71757 11.0371C0.902842 12.6257 0.631663 14.4377 0.945622 16.1951C0.956572 16.2547 0.980704 16.3111 1.01625 16.3601C1.0518 16.4092 1.09786 16.4496 1.15107 16.4786C1.20428 16.5075 1.26328 16.5242 1.32377 16.5274C1.38425 16.5306 1.44468 16.5202 1.50064 16.497L4.47671 15.2633L8.09294 13.7642L11.1642 21.1773C6.22976 21.4417 2.13366 22.7527 0.884969 24.5499C0.842698 24.6108 0.81791 24.6822 0.813289 24.7562C0.808669 24.8302 0.824393 24.9041 0.858758 24.9698C0.893124 25.0356 0.944819 25.0906 1.00825 25.1291C1.07167 25.1675 1.14441 25.1879 1.21858 25.188H24.7811C24.8553 25.1879 24.928 25.1676 24.9915 25.1291C25.0549 25.0907 25.1066 25.0356 25.141 24.9698C25.1753 24.9041 25.1911 24.8302 25.1864 24.7562C25.1818 24.6821 25.157 24.6108 25.1147 24.5498C23.7139 22.5337 18.732 21.1255 12.9998 21.1255ZM14.6462 10.168L12.4685 11.0708C11.3704 9.3168 10.031 8.05234 8.70918 7.43614C9.84242 7.40301 10.968 7.63236 11.9979 8.10626C13.0278 8.58017 13.9342 9.28579 14.6462 10.168ZM6.96405 7.81989C8.45454 7.81989 10.2946 9.17648 11.7109 11.3849L8.53222 12.7025L6.52681 7.8623C6.67082 7.83402 6.81729 7.81987 6.96405 7.81989ZM3.84787 14.6443L1.67037 15.5471C1.54945 14.42 1.69071 13.2803 2.08311 12.2169C2.47551 11.1535 3.10844 10.1951 3.93245 9.41678C3.43468 10.7874 3.38308 12.6282 3.84787 14.6443ZM4.60545 14.3301C3.9877 11.5107 4.46395 9.06192 5.77784 8.17702L7.78171 13.0135L4.60545 14.3301ZM2.17112 24.3755C3.99173 22.931 8.27283 21.938 12.9998 21.938C17.7268 21.938 22.0079 22.931 23.8285 24.3755H2.17112Z" fill="#2D4C19"/>
</g>
<defs>
<clipPath id="clip0_825_10287">
<rect width="26" height="26" fill="white"/>
</clipPath>
</defs>
</svg>
