<svg width="24" height="24" viewBox="0 0 24 24" fill="none" xmlns="http://www.w3.org/2000/svg">
<g clip-path="url(#clip0_825_10319)">
<path d="M14.8119 8.43728C15.0707 8.43728 15.2805 8.22746 15.2805 7.96864C15.2805 7.70982 15.0707 7.5 14.8119 7.5C14.5531 7.5 14.3433 7.70982 14.3433 7.96864C14.3433 8.22746 14.5531 8.43728 14.8119 8.43728Z" fill="#2D4C19"/>
<path d="M9.18837 8.43728C9.44719 8.43728 9.65701 8.22746 9.65701 7.96864C9.65701 7.70982 9.44719 7.5 9.18837 7.5C8.92954 7.5 8.71973 7.70982 8.71973 7.96864C8.71973 8.22746 8.92954 8.43728 9.18837 8.43728Z" fill="#2D4C19"/>
<path d="M22.6849 4.22244C22.9438 4.22244 23.1536 4.01262 23.1536 3.7538C23.1536 3.49497 22.9438 3.28516 22.6849 3.28516C22.4261 3.28516 22.2163 3.49497 22.2163 3.7538C22.2163 4.01262 22.4261 4.22244 22.6849 4.22244Z" fill="#2D4C19"/>
<path d="M23.2001 5.31238C22.9475 5.3688 22.7885 5.61929 22.8449 5.87189C23.0055 6.59116 23.0627 7.10188 23.0627 7.33995C23.0627 7.71707 22.9503 8.13045 22.1169 8.33689C21.066 8.59689 20.3457 9.50526 20.3653 10.5429C20.3657 10.5808 20.3662 10.6153 20.3662 10.6467C20.3662 12.2021 19.722 12.2021 19.4795 12.2021C18.5693 12.2021 17.381 11.159 16.7264 10.3829C16.7776 10.2682 16.8366 10.1554 16.9048 10.0463C17.6991 8.77544 18.1203 7.32519 18.0908 5.96281C18.0875 5.80647 18.0744 5.65191 18.0528 5.49951C19.0899 4.65793 19.4207 4.68393 19.4232 4.68422C19.8151 4.74776 19.9366 5.08303 19.9706 5.22418C20.0312 5.4758 20.2844 5.63035 20.536 5.56995C20.7876 5.5093 20.9424 5.25614 20.8818 5.00453C20.7564 4.48472 20.3469 3.88457 19.5732 3.75898C19.2881 3.71282 18.8021 3.75565 17.7819 4.52188C17.4638 3.76681 16.9152 3.11408 16.2055 2.65247C16.7046 2.41403 17.1372 2.12188 17.5377 1.85072C18.2585 1.36263 18.881 0.94114 19.6857 0.94114C20.2667 0.94114 20.8326 1.33925 21.3678 2.12441C21.5136 2.3383 21.8052 2.39341 22.0191 2.24766C22.2329 2.10187 22.2881 1.81033 22.1423 1.59644C21.4219 0.539749 20.5954 0.00390625 19.6857 0.00390625C18.5934 0.00390625 17.7896 0.548279 17.0122 1.0747C16.4052 1.4857 15.7781 1.90944 14.9834 2.10135C14.6852 2.0184 14.3781 1.96723 14.0687 1.94909C12.4038 1.85185 10.6699 1.8085 9.2354 2.13097C8.3185 1.96039 7.61456 1.49685 6.93381 1.04724C6.15709 0.534313 5.35398 0.00390625 4.3143 0.00390625C3.01322 0.00390625 1.86463 1.1256 0.992674 3.24769C0.315489 4.89576 0 6.66389 0 7.34C0 8.31449 0.570851 8.97288 1.65083 9.24404C2.28664 9.40361 2.70705 9.92272 2.69759 10.5361C2.6966 10.5728 2.69656 10.61 2.69656 10.6467C2.69656 11.9891 3.1786 13.1394 4.5205 13.1394C5.583 13.1394 6.69809 12.3225 7.48442 11.5371C7.47973 11.5974 7.47355 11.6574 7.46394 11.7169C7.46394 11.7169 7.03452 13.6359 7.03312 13.6444C6.93152 14.2545 7.24447 14.8439 7.76392 15.1191C7.66334 15.9715 7.14657 16.7158 6.36451 17.1067L6.16674 17.2056C5.97235 17.3028 5.87028 17.5209 5.92019 17.7324C5.9701 17.944 6.15896 18.0934 6.37627 18.0934H7.31355C8.48656 18.0934 9.51719 17.4742 10.0972 16.5458L10.2875 19.3119H9.18816C8.92933 19.3119 8.71952 19.5217 8.71952 19.7805V21.5829C8.71952 22.9362 9.81918 23.9983 11.1349 23.9983C12.3892 23.9983 13.4469 23.0187 13.5431 21.7646L13.9026 16.5455C14.4826 17.474 15.5133 18.0934 16.6864 18.0934H17.6237C18.1165 18.0934 18.2739 17.4259 17.8333 17.2056L17.6354 17.1067C16.8533 16.7158 16.3366 15.9714 16.2361 15.1189C16.7559 14.8433 17.0684 14.2543 16.9669 13.6445C16.9655 13.636 16.9638 13.6276 16.962 13.6192L16.537 11.7203C16.5273 11.6598 16.521 11.599 16.5163 11.5382C17.3024 12.3228 18.4176 13.1394 19.4795 13.1394C20.2105 13.1394 20.7727 12.7628 21.0625 12.079C21.2246 11.6963 21.3035 11.2278 21.3035 10.6467C21.3035 10.6099 21.3025 10.5282 21.3025 10.5282C21.291 9.91841 21.7087 9.40347 22.3422 9.24671C23.4268 8.97813 24 8.31875 24 7.33995C24 6.96682 23.9102 6.34166 23.7597 5.66756C23.7032 5.41501 23.4525 5.25596 23.2001 5.31238ZM4.5205 12.2021C4.27803 12.2021 3.63384 12.2021 3.63384 10.6467C3.63384 10.5649 3.63454 10.5686 3.63473 10.5544C3.65258 9.51158 2.93059 8.59886 1.87906 8.33497C1.04919 8.12661 0.93728 7.7151 0.93728 7.34C0.93728 6.73044 1.2657 5.04924 1.85961 3.60391C2.26822 2.60945 3.13047 0.941187 4.3143 0.941187C5.07237 0.941187 5.69562 1.35279 6.41728 1.8294C6.83666 2.10637 7.28754 2.40405 7.8068 2.64549C7.01433 3.07416 6.46723 3.68948 6.17096 4.48645C5.18232 3.75373 4.70702 3.71357 4.42663 3.75907C3.65239 3.88481 3.24308 4.48504 3.11824 5.00486C3.05778 5.25652 3.21281 5.50954 3.46447 5.56999C3.71627 5.63054 3.96915 5.47542 4.0296 5.22376C4.06349 5.08275 4.18458 4.7479 4.57608 4.68431C4.57965 4.68398 4.90887 4.65807 5.94034 5.49374C5.91925 5.68748 5.90768 5.88867 5.90768 6.09618C5.90768 7.42707 6.33437 8.83773 7.10908 10.0681C7.17235 10.1687 7.22742 10.2731 7.27573 10.3797C6.6209 11.1572 5.43187 12.2021 4.5205 12.2021ZM7.8859 17.0855C8.31794 16.5799 8.59908 15.9566 8.68859 15.2811H9.60928C9.42946 16.1635 8.75321 16.8669 7.8859 17.0855ZM9.6568 20.2492H10.352L10.4516 21.6968C10.4792 22.0534 10.3543 22.3989 10.1173 22.6548C9.82504 22.3789 9.6568 21.9966 9.6568 21.5829V20.2492ZM12.6083 21.6966C12.5496 22.4617 11.9024 23.061 11.1349 23.061C11.0885 23.061 11.0424 23.058 10.9965 23.0537C11.2826 22.6434 11.4262 22.1419 11.3865 21.6286C11.3147 20.5601 10.8344 13.5389 10.7564 12.4697H12C12.2589 12.4697 12.4687 12.2599 12.4687 12.0011C12.4687 11.7423 12.2589 11.5325 12 11.5325H10.6919L10.593 10.0943C10.5752 9.83612 10.3519 9.6413 10.0933 9.65897C9.83507 9.67673 9.64016 9.90046 9.65792 10.1587L9.94586 14.3442H8.42006C8.13217 14.3442 7.91608 14.0882 7.95606 13.8091C7.95606 13.8091 8.38505 11.8917 8.3865 11.8832C8.47297 11.3651 8.42798 10.8218 8.25627 10.3116C8.1692 10.0537 8.05016 9.80387 7.90235 9.5689C7.22048 8.48596 6.84496 7.25265 6.84496 6.09618C6.84496 4.35167 7.70243 3.45928 9.35172 3.06488C9.35242 3.06469 9.35312 3.06459 9.35382 3.06441C10.6925 2.74442 12.4608 2.79396 14.014 2.88473C15.7091 2.98418 17.1177 4.31835 17.1538 5.98305C17.1794 7.16506 16.8087 8.4317 16.1101 9.5495C15.6418 10.2981 15.4879 11.1271 15.6145 11.8864C15.6159 11.8949 15.6175 11.9033 15.6194 11.9117L16.044 13.809C16.084 14.0878 15.8676 14.3442 15.58 14.3442H14.0542L14.3422 10.1587C14.3599 9.90046 14.165 9.67673 13.9068 9.65897C13.6486 9.64144 13.4249 9.83612 13.4071 10.0943L13.1792 13.407H12.0001C11.7413 13.407 11.5315 13.6168 11.5315 13.8757C11.5315 14.1345 11.7413 14.3438 12.0001 14.3438L13.1147 14.3443C13.0685 14.844 13.074 14.8282 13.0787 14.8681L12.6083 21.6966ZM14.3907 15.2816H15.3114C15.4009 15.9565 15.682 16.5798 16.1141 17.0855C15.2468 16.8669 14.5705 16.1635 14.3907 15.2816Z" fill="#2D4C19"/>
</g>
<defs>
<clipPath id="clip0_825_10319">
<rect width="24" height="24" fill="white"/>
</clipPath>
</defs>
</svg>
