<svg width="22" height="22" viewBox="0 0 22 22" fill="none" xmlns="http://www.w3.org/2000/svg">
<g clip-path="url(#clip0_825_10284)">
<path d="M18.9624 16.3217C18.7394 16.0987 18.4577 15.9495 18.1479 15.8903L17.0575 15.682L15.0533 13.6778C16.5723 12.0653 17.889 10.3381 18.9724 8.53111C19.0638 8.37857 19.0143 8.18074 18.8618 8.0893C18.7092 7.99786 18.5114 8.04736 18.42 8.1999C17.3635 9.96201 16.0793 11.6474 14.5976 13.2221L13.5688 12.1932C15.0445 10.3799 15.4862 8.4071 14.5395 7.46041C13.5929 6.51377 11.6199 6.9551 9.80645 8.43095L8.77683 7.40133C11.2725 5.05077 14.0039 3.23147 16.9091 1.98615C17.6943 2.08395 18.4322 2.44359 18.9943 3.00571C19.5564 3.56783 19.9161 4.30582 20.0139 5.09111C19.7514 5.7032 19.4579 6.31834 19.1403 6.92081C19.0573 7.07812 19.1176 7.2729 19.2749 7.35591C19.4324 7.4388 19.627 7.37847 19.71 7.2212C20.0496 6.5771 20.3627 5.91874 20.6406 5.26432C21.4954 3.25093 21.8518 1.6653 21.9882 0.899255C22.0321 0.653087 21.9527 0.400645 21.7761 0.224001C21.5994 0.0473563 21.3468 -0.032007 21.1008 0.0118641C20.3348 0.148204 18.7492 0.50463 16.7357 1.35949C13.7254 2.63781 10.899 4.51542 8.32149 6.94599L6.31808 4.94257L6.10972 3.85215C6.05051 3.54226 5.90132 3.2606 5.67831 3.03764L2.92316 0.282395C2.74565 0.104934 2.50971 0.00718054 2.25873 0.00718054C2.00771 0.00718054 1.77177 0.104934 1.59426 0.282395L0.282427 1.59423C-0.0838814 1.96058 -0.0838814 2.55669 0.282427 2.92308L3.03763 5.67824C3.26063 5.90129 3.54229 6.05048 3.85214 6.10969L4.94256 6.318L6.94611 8.32155C4.43965 10.979 2.52415 13.8959 1.24742 17.0048C0.470072 18.8971 0.139642 20.3838 0.0118099 21.1016C-0.0319322 21.3473 0.0473881 21.5994 0.22399 21.776C0.368622 21.9206 0.563873 22 0.764708 22C0.809138 22 0.853912 21.9961 0.898384 21.9882C1.61618 21.8604 3.10285 21.5299 4.99511 20.7526C8.10412 19.4759 11.0212 17.5607 13.6788 15.0542L15.682 17.0574L15.8903 18.1479C15.9495 18.4577 16.0987 18.7394 16.3217 18.9624L19.0769 21.7176C19.2601 21.9007 19.5007 21.9923 19.7413 21.9923C19.982 21.9923 20.2225 21.9007 20.4058 21.7176L21.7176 20.4057C21.8951 20.2282 21.9928 19.9923 21.9928 19.7413C21.9928 19.4903 21.8951 19.2543 21.7176 19.0768L18.9624 16.3217ZM17.976 1.55874C18.8573 1.23106 19.7642 0.952149 20.6855 0.751056C20.8608 0.71277 21.0369 0.677536 21.2136 0.645954C21.2677 0.636286 21.3039 0.662755 21.3205 0.679427C21.3372 0.696056 21.3636 0.732149 21.354 0.786376C21.249 1.37599 21.0081 2.47028 20.4938 3.88064C20.4826 3.91132 20.414 4.04414 20.4238 4.07065C20.2136 3.50359 19.8823 2.98277 19.4497 2.5502C19.0171 2.11763 18.4963 1.7863 17.9293 1.5761C17.9449 1.5703 17.9604 1.5645 17.976 1.55874ZM12.2473 7.77056C13.0588 7.50716 13.7283 7.5601 14.0841 7.91584C14.4399 8.27166 14.4929 8.94116 14.2294 9.75262C14.0186 10.402 13.6307 11.0851 13.1106 11.7352L10.2651 8.88968C10.9151 8.36963 11.5981 7.98136 12.2473 7.77056ZM3.97301 5.47702C3.79044 5.44217 3.62445 5.3543 3.4931 5.22281L0.737896 2.46761C0.622654 2.35242 0.622654 2.1649 0.737896 2.0497L2.04973 0.737864C2.10735 0.6802 2.18298 0.651411 2.25873 0.651411C2.33436 0.651411 2.41011 0.680243 2.46769 0.737864L5.22289 3.49306C5.35429 3.62442 5.4422 3.79041 5.47705 3.97298L5.50743 4.13197L4.61381 3.23834C4.23461 2.85927 3.61766 2.85915 3.23838 3.23839C2.85922 3.61759 2.85922 4.23458 3.23838 4.61377L4.132 5.5074L3.97301 5.47702ZM3.69174 20.5617C2.36538 21.0319 1.3383 21.2557 0.785548 21.3541C0.731708 21.3635 0.696087 21.3372 0.679458 21.3206C0.662872 21.304 0.636447 21.2681 0.645943 21.2145C0.742193 20.6739 0.958111 19.68 1.40731 18.3959C1.46196 18.2396 1.51834 18.0841 1.57626 17.9294C1.78651 18.4964 2.11784 19.0171 2.55032 19.4496C2.9828 19.8821 3.50354 20.2135 4.07051 20.4237C4.0333 20.4377 3.78129 20.53 3.69174 20.5617ZM5.09097 20.0138C4.30576 19.916 3.5679 19.5563 3.00583 18.9942C2.44367 18.4321 2.08402 17.6942 1.98622 16.909C3.22888 14.0059 5.04775 11.2757 7.40166 8.77702L8.43158 9.80694C7.99639 10.3424 7.64083 10.9045 7.38589 11.4652C7.31224 11.6271 7.38383 11.8181 7.54574 11.8917C7.70769 11.9654 7.89855 11.8938 7.9722 11.7319C8.19658 11.2384 8.50789 10.7415 8.88928 10.2646L11.7353 13.1106C11.0852 13.6308 10.4021 14.0186 9.7527 14.2295C8.94123 14.4929 8.27169 14.44 7.91596 14.0842C7.62656 13.7948 7.58892 13.3608 7.6083 13.0476C7.6193 12.8701 7.48433 12.7173 7.30683 12.7063C7.12907 12.695 6.97649 12.8303 6.96549 13.0078C6.92591 13.6465 7.0971 14.1762 7.46053 14.5396C7.79882 14.8779 8.26804 15.0391 8.81443 15.039C9.79683 15.0389 11.0281 14.5173 12.1935 13.5688L13.223 14.5984C10.7242 16.9523 7.99407 18.7712 5.09097 20.0138ZM3.69385 4.15826C3.5658 4.03022 3.5658 3.82186 3.6938 3.69377C3.75787 3.62975 3.842 3.59769 3.92609 3.59769C4.01022 3.59769 4.09431 3.6297 4.15829 3.69377L18.1128 17.6483C18.2409 17.7764 18.2409 17.9847 18.1128 18.1128C17.9848 18.2409 17.7764 18.2409 17.6483 18.1128L3.69385 4.15826ZM21.2621 19.9502L19.9503 21.2621C19.8351 21.3773 19.6476 21.3773 19.5324 21.2621L16.7772 18.5069C16.6458 18.3755 16.5579 18.2095 16.523 18.0269L16.4926 17.868L17.1929 18.5682C17.3825 18.7578 17.6315 18.8526 17.8806 18.8526C18.1297 18.8526 18.3787 18.7578 18.5683 18.5682C18.9475 18.189 18.9475 17.572 18.5683 17.1928L17.868 16.4925L18.027 16.5229C18.2096 16.5578 18.3755 16.6456 18.5069 16.7771L21.2621 19.5323C21.3774 19.6475 21.3774 19.835 21.2621 19.9502Z" fill="#2D4C19"/>
</g>
<defs>
<clipPath id="clip0_825_10284">
<rect width="22" height="22" fill="white"/>
</clipPath>
</defs>
</svg>
