<svg width="93" height="17" viewBox="0 0 93 17" fill="none" xmlns="http://www.w3.org/2000/svg">
<path d="M8.49993 1.0625L6.08274 5.96063L0.679932 6.74156L4.58993 10.5559L3.66556 15.9375L8.49993 13.3981L13.3343 15.9375L12.4099 10.5559L16.3199 6.74687L10.9171 5.96063L8.49993 1.0625Z" fill="#FFD000"/>
<path d="M27.4999 1.0625L25.0827 5.96063L19.6799 6.74156L23.5899 10.5559L22.6656 15.9375L27.4999 13.3981L32.3343 15.9375L31.4099 10.5559L35.3199 6.74687L29.9171 5.96063L27.4999 1.0625Z" fill="#FFD000"/>
<path d="M46.4999 1.0625L44.0827 5.96063L38.6799 6.74156L42.5899 10.5559L41.6656 15.9375L46.4999 13.3981L51.3343 15.9375L50.4099 10.5559L54.3199 6.74687L48.9171 5.96063L46.4999 1.0625Z" fill="#FFD000"/>
<path d="M65.4999 1.0625L63.0827 5.96063L57.6799 6.74156L61.5899 10.5559L60.6656 15.9375L65.4999 13.3981L70.3343 15.9375L69.4099 10.5559L73.3199 6.74687L67.9171 5.96063L65.4999 1.0625Z" fill="#FFD000"/>
<path d="M84.4999 1.0625L82.0827 5.96063L76.6799 6.74156L80.5899 10.5559L79.6656 15.9375L84.4999 13.3981L89.3343 15.9375L88.4099 10.5559L92.3199 6.74687L86.9171 5.96063L84.4999 1.0625Z" fill="#FFD000"/>
</svg>
