<svg width="18" height="18" viewBox="0 0 18 18" fill="none" xmlns="http://www.w3.org/2000/svg">
<path d="M8.4375 10.125C9.48141 10.1262 10.4825 10.5411 11.2207 11.2793C11.9589 12.0175 12.3738 13.0186 12.375 14.0625V16.875H11.25V14.0625C11.2491 13.3168 10.9521 12.6025 10.4248 12.0752C9.89755 11.5479 9.18315 11.2509 8.4375 11.25H5.0625C4.31685 11.2509 3.60245 11.5479 3.0752 12.0752C2.54794 12.6025 2.25088 13.3168 2.25 14.0625V16.875H1.125V14.0625C1.12622 13.0186 1.54114 12.0175 2.2793 11.2793C3.01746 10.5411 4.01858 10.1262 5.0625 10.125H8.4375ZM12.9375 10.125C13.9814 10.1262 14.9825 10.5411 15.7207 11.2793C16.4589 12.0175 16.8738 13.0186 16.875 14.0625V16.875H15.75V14.0625C15.7492 13.3168 15.453 12.6015 14.9258 12.0742C14.3985 11.547 13.6832 11.2508 12.9375 11.25V10.125ZM11.25 1.125C12.2943 1.125 13.2958 1.5399 14.0342 2.27832C14.7726 3.01674 15.1875 4.01821 15.1875 5.0625C15.1875 6.10679 14.7726 7.10826 14.0342 7.84668C13.2958 8.5851 12.2943 9 11.25 9V7.875C11.9959 7.875 12.7108 7.57823 13.2383 7.05078C13.7657 6.52333 14.0625 5.80842 14.0625 5.0625C14.0625 4.31658 13.7657 3.60166 13.2383 3.07422C12.7108 2.54677 11.9959 2.25 11.25 2.25V1.125ZM6.75 1.125C7.79429 1.125 8.79576 1.5399 9.53418 2.27832C10.2726 3.01674 10.6875 4.01821 10.6875 5.0625C10.6875 5.84126 10.4561 6.60248 10.0234 7.25C9.59079 7.89742 8.97623 8.4022 8.25684 8.7002C7.53735 8.99822 6.74525 9.07673 5.98145 8.9248C5.21776 8.77284 4.51642 8.39728 3.96582 7.84668C3.41522 7.29608 3.03966 6.59474 2.8877 5.83105C2.73577 5.06725 2.81428 4.27515 3.1123 3.55566C3.4103 2.83627 3.91508 2.22171 4.5625 1.78906C5.21002 1.3564 5.97124 1.125 6.75 1.125ZM6.75 2.25C6.00408 2.25 5.28916 2.54677 4.76172 3.07422C4.23427 3.60166 3.9375 4.31658 3.9375 5.0625C3.9375 5.61868 4.10218 6.16253 4.41113 6.625C4.72017 7.08751 5.15991 7.44826 5.67383 7.66113C6.1877 7.87394 6.75332 7.9298 7.29883 7.82129C7.84437 7.71276 8.34496 7.4441 8.73828 7.05078C9.1316 6.65746 9.40026 6.15687 9.50879 5.61133C9.6173 5.06582 9.56144 4.5002 9.34863 3.98633C9.13576 3.47241 8.77501 3.03267 8.3125 2.72363C7.85003 2.41468 7.30618 2.25 6.75 2.25Z" fill="#BA6827"/>
</svg>
