<svg width="34" height="34" viewBox="0 0 34 34" fill="none" xmlns="http://www.w3.org/2000/svg">
<path fill-rule="evenodd" clip-rule="evenodd" d="M26.5844 30.3908H7.38733C5.53218 30.3908 4.01172 28.8703 4.01172 27.0152V5.76695C4.01172 1.81279 10.7343 -0.0136719 16.9882 -0.0136719C23.2374 -0.0136719 29.96 1.78411 29.96 5.76695V26.9865C29.96 28.8703 28.4395 30.3908 26.5844 30.3908ZM16.9882 0.980844C11.0403 0.980844 4.98233 2.64474 4.98233 5.76695V26.9865C4.98233 28.3157 6.05813 29.3963 7.38733 29.3963H26.5844C27.9136 29.3963 28.9941 28.3157 28.9941 26.9865V5.76695C28.9941 3.96917 27.029 2.86469 25.3986 2.25746C23.1848 1.42551 20.1965 0.980844 16.9882 0.980844Z" fill="#BA6827"/>
<path fill-rule="evenodd" clip-rule="evenodd" d="M20.2489 5.60428H13.7224C13.2539 5.60428 12.8379 5.217 12.8379 4.74365V3.30447C12.8379 2.80721 13.2252 2.41992 13.7224 2.41992H20.2489C20.751 2.41992 21.1383 2.80721 21.1383 3.30447V4.74365C21.1383 5.217 20.751 5.60428 20.2489 5.60428ZM13.8037 4.63367H20.1677V3.39053H13.8037V4.63367Z" fill="#BA6827"/>
<path fill-rule="evenodd" clip-rule="evenodd" d="M29.4914 19.5176H4.50898C4.23166 19.5176 4.01172 19.2976 4.01172 19.0203C4.01172 18.743 4.23166 18.523 4.50898 18.523H29.4914C29.7687 18.523 29.9887 18.743 29.9887 19.0203C29.9887 19.2976 29.74 19.5176 29.4914 19.5176ZM29.4914 7.78897H4.50898C4.23166 7.78897 4.01172 7.56903 4.01172 7.31562C4.01172 7.06699 4.23166 6.81836 4.50898 6.81836H29.4914C29.7687 6.81836 29.9887 7.04308 29.9887 7.31562C29.9887 7.59293 29.74 7.78897 29.4914 7.78897Z" fill="#BA6827"/>
<path fill-rule="evenodd" clip-rule="evenodd" d="M16.9601 19.5189C16.6828 19.5189 16.4629 19.299 16.4629 19.0216V7.29305C16.4629 7.01574 16.6828 6.79102 16.9601 6.79102C17.2375 6.79102 17.4287 7.04443 17.4287 7.29305V19.0216C17.4287 19.299 17.2375 19.5189 16.9601 19.5189Z" fill="#BA6827"/>
<path fill-rule="evenodd" clip-rule="evenodd" d="M27.4735 19.5189C27.1962 19.5189 26.9715 19.299 26.9715 19.0216V7.29305C26.9715 7.01574 27.1962 6.79102 27.4735 6.79102C27.7461 6.79102 27.9421 7.04443 27.9421 7.29305V19.0216C27.9421 19.299 27.7461 19.5189 27.4735 19.5189ZM6.53134 19.5189C6.25402 19.5189 6.0293 19.299 6.0293 19.0216V7.29305C6.0293 7.01574 6.25402 6.79102 6.53134 6.79102C6.80387 6.79102 7.02859 7.01574 7.02859 7.29305V19.0216C6.99991 19.299 6.77996 19.5189 6.53134 19.5189Z" fill="#BA6827"/>
<path fill-rule="evenodd" clip-rule="evenodd" d="M10.3769 26.6573H7.60853C7.02999 26.6573 6.55664 26.1887 6.55664 25.6054V23.4729C6.55664 22.8944 7.02999 22.4258 7.60853 22.4258H10.3769C10.9555 22.4258 11.4288 22.8944 11.4288 23.4729V25.5767C11.4288 26.1887 10.9555 26.6573 10.3769 26.6573ZM7.60853 23.4203C7.55594 23.4203 7.52725 23.4729 7.52725 23.5016V25.6054C7.52725 25.6627 7.57984 25.6866 7.60853 25.6866H10.3769C10.4295 25.6866 10.4582 25.6341 10.4582 25.6054V23.4729C10.4582 23.449 10.4295 23.3916 10.3769 23.3916H7.60853V23.4203Z" fill="#BA6827"/>
<path fill-rule="evenodd" clip-rule="evenodd" d="M26.3945 26.6573H23.6261C23.0476 26.6573 22.5742 26.1887 22.5742 25.6054V23.4729C22.5742 22.8944 23.0476 22.4258 23.6261 22.4258H26.3945C26.973 22.4258 27.4464 22.8944 27.4464 23.4729V25.5767C27.4464 26.1887 26.973 26.6573 26.3945 26.6573ZM23.6261 23.4203C23.5735 23.4203 23.5448 23.4729 23.5448 23.5016V25.6054C23.5448 25.6627 23.6022 25.6866 23.6261 25.6866H26.3945C26.4519 25.6866 26.4758 25.6341 26.4758 25.6054V23.4729C26.4758 23.449 26.4519 23.3916 26.3945 23.3916H23.6261V23.4203Z" fill="#BA6827"/>
<path fill-rule="evenodd" clip-rule="evenodd" d="M21.2195 22.8363H12.7805C12.5031 22.8363 12.2832 22.6164 12.2832 22.3391C12.2832 22.0617 12.5031 21.8418 12.7805 21.8418H21.2195C21.4968 21.8418 21.7168 22.0617 21.7168 22.3391C21.7168 22.6164 21.4968 22.8363 21.2195 22.8363Z" fill="#BA6827"/>
<path fill-rule="evenodd" clip-rule="evenodd" d="M19.672 24.9398H14.3312C14.0539 24.9398 13.834 24.7199 13.834 24.4426C13.834 24.1653 14.0539 23.9453 14.3312 23.9453H19.672C19.9493 23.9453 20.1692 24.1653 20.1692 24.4426C20.1692 24.7199 19.9206 24.9398 19.672 24.9398Z" fill="#BA6827"/>
<path fill-rule="evenodd" clip-rule="evenodd" d="M18.0925 27.0433H15.9074C15.6301 27.0433 15.4102 26.8234 15.4102 26.5461C15.4102 26.2688 15.6301 26.0488 15.9074 26.0488H18.0925C18.3698 26.0488 18.5897 26.2688 18.5897 26.5461C18.5897 26.8234 18.3698 27.0433 18.0925 27.0433Z" fill="#BA6827"/>
<path fill-rule="evenodd" clip-rule="evenodd" d="M31.0405 16.4198H29.4914C29.2141 16.4198 28.9941 16.1999 28.9941 15.9226C28.9941 15.6452 29.2141 15.4253 29.4914 15.4253H31.0405C31.6239 15.4253 32.1211 14.928 32.1211 14.3447V11.911C32.1211 11.3277 31.6478 10.8305 31.0405 10.8305H29.4914C29.2141 10.8305 28.9941 10.6105 28.9941 10.3332C28.9941 10.0559 29.2141 9.83594 29.4914 9.83594H31.0405C32.1737 9.83594 33.087 10.7492 33.087 11.8823V14.316C33.0583 15.5066 32.145 16.4198 31.0405 16.4198Z" fill="#BA6827"/>
<path fill-rule="evenodd" clip-rule="evenodd" d="M4.50962 16.4191H2.96047C1.8273 16.4191 0.914062 15.5059 0.914062 14.3727V11.939C0.914062 10.801 1.8273 9.89258 2.96047 9.89258H4.50962C4.78693 9.89258 5.00688 10.1125 5.00688 10.3898C5.00688 10.6672 4.78693 10.8871 4.50962 10.8871H2.96047C2.38193 10.8871 1.87989 11.3844 1.87989 11.9629V14.4014C1.87989 15.0086 2.38193 15.4772 2.96047 15.4772H4.50962C4.78693 15.4772 5.00688 15.7019 5.00688 15.9744C5.00688 16.2517 4.78693 16.4191 4.50962 16.4191Z" fill="#BA6827"/>
<path fill-rule="evenodd" clip-rule="evenodd" d="M10.7643 34.0146H10.1284C8.85658 34.0146 7.80469 32.9627 7.80469 31.6909V29.8644C7.80469 29.5871 8.02463 29.3672 8.30195 29.3672C8.57926 29.3672 8.7992 29.5871 8.7992 29.8644V31.6909C8.7992 32.4368 9.40643 33.044 10.1571 33.044H10.793C11.5102 33.044 12.1174 32.4368 12.1174 31.6909V29.8644C12.1174 29.5871 12.3422 29.3672 12.6147 29.3672C12.892 29.3672 13.1167 29.5871 13.1167 29.8644V31.6909C13.0594 32.9914 12.0362 34.0146 10.7643 34.0146Z" fill="#BA6827"/>
<path fill-rule="evenodd" clip-rule="evenodd" d="M23.8743 34.0146H23.2384C21.9666 34.0146 20.9434 32.9627 20.9434 31.6909V29.8644C20.9434 29.5871 21.1633 29.3672 21.4406 29.3672C21.7179 29.3672 21.9379 29.5871 21.9379 29.8644V31.6909C21.9379 32.4368 22.5499 33.044 23.2671 33.044H23.903C24.6489 33.044 25.2609 32.4368 25.2609 31.6909V29.8644C25.2609 29.5871 25.4808 29.3672 25.7582 29.3672C26.0355 29.3672 26.2554 29.5871 26.2554 29.8644V31.6909C26.1741 32.9914 25.1509 34.0146 23.8743 34.0146Z" fill="#BA6827"/>
</svg>
