<svg width="34" height="34" viewBox="0 0 34 34" fill="none" xmlns="http://www.w3.org/2000/svg">
<g clip-path="url(#clip0_3040_9551)">
<path d="M8.86145 2.0332C6.58354 2.0332 5.24351 3.28001 4.64765 4.47158C4.0518 5.66316 4.06127 6.83332 4.06127 6.83332V14.2811C2.22478 14.5155 1.10915 15.6158 0.580404 16.6733C-0.0153844 17.8648 -0.00585021 19.035 -0.00585021 19.035V27.1696C-0.00578665 27.5743 0.322133 27.9022 0.726888 27.9023H4.06133V31.2368C4.06133 31.6415 4.38945 31.9696 4.7942 31.9696C5.19896 31.9696 5.52707 31.6415 5.52707 31.2368V27.9023H28.4649V31.2368C28.4649 31.6415 28.793 31.9696 29.1978 31.9696C29.6025 31.9696 29.9306 31.6415 29.9306 31.2368V27.9023H33.2651C33.6698 27.9022 33.9978 27.5743 33.9978 27.1696V19.0351C33.9978 19.0351 34.008 17.8649 33.4122 16.6733C32.8835 15.6158 31.7673 14.5155 29.9307 14.2812V6.83332C29.9307 6.83332 29.9407 5.66316 29.3449 4.47158C28.7492 3.28001 27.4085 2.0332 25.1306 2.0332H8.86145ZM8.86145 3.49894H25.1305C26.9198 3.49894 27.6134 4.28519 28.0343 5.12724C28.4554 5.96928 28.4648 6.83338 28.4648 6.83338V14.2349H25.7625C25.8277 14.0331 25.8633 13.8186 25.8633 13.5965V12.2712C25.8633 11.1184 24.9127 10.1678 23.7598 10.1678H18.3671C17.8455 10.1678 17.3656 10.3627 16.996 10.6825C16.6265 10.3627 16.1468 10.1678 15.6253 10.1678H10.2327C9.07981 10.1678 8.12858 11.1184 8.12858 12.2712V13.5965C8.12858 13.8186 8.16424 14.0331 8.2295 14.2349H5.52707V6.83332C5.52707 6.83332 5.53717 5.96922 5.9582 5.12717C6.37916 4.28519 7.07212 3.49894 8.86145 3.49894ZM10.2326 11.6334H15.6252C15.9915 11.6334 16.2631 11.905 16.2631 12.2712V13.5965C16.2631 13.9628 15.9915 14.2349 15.6252 14.2349H10.2326C9.86638 14.2349 9.59426 13.9628 9.59426 13.5965V12.2712C9.59432 11.905 9.86638 11.6334 10.2326 11.6334ZM18.3671 11.6334H23.7598C24.126 11.6334 24.3975 11.905 24.3975 12.2712V13.5965C24.3975 13.9628 24.126 14.2349 23.7598 14.2349H18.3671C18.0008 14.2349 17.7287 13.9628 17.7287 13.5965V12.2712C17.7288 11.905 18.0008 11.6334 18.3671 11.6334ZM4.79414 15.7006H10.2326H15.6252H29.1977C30.987 15.7006 31.6806 16.4869 32.1016 17.3289C32.5226 18.171 32.5321 19.0351 32.5321 19.0351V22.3695H1.45969V19.0351C1.45969 19.0351 1.4698 18.171 1.89082 17.3289C2.31184 16.4869 3.0048 15.7006 4.79414 15.7006ZM1.45976 23.8352H32.5321V26.4368H1.45976V23.8352Z" fill="#BA6827"/>
</g>
<defs>
<clipPath id="clip0_3040_9551">
<rect width="34" height="34" fill="white"/>
</clipPath>
</defs>
</svg>
