<svg width="34" height="34" viewBox="0 0 34 34" fill="none" xmlns="http://www.w3.org/2000/svg">
<path d="M27.3493 16.1665L21.2666 4.65205C21.1227 4.37965 20.8419 4.20991 20.5338 4.20898C20.533 4.20898 20.5322 4.20898 20.5314 4.20898C20.2243 4.20898 19.9436 4.37693 19.7985 4.6478L14.225 15.051C14.133 15.2227 14.1497 15.4324 14.2679 15.5874L15.6321 17.3765C15.7831 17.5744 16.0122 17.6935 16.261 17.7032C16.509 17.7135 16.7475 17.612 16.9133 17.4264L19.0703 15.0127L23.2629 19.9623C23.4195 20.1471 23.6482 20.2543 23.8903 20.2564C23.8927 20.2564 23.8951 20.2564 23.8975 20.2564C24.137 20.2564 24.3645 20.1534 24.5225 19.9731L27.0075 17.1397C27.0217 17.1234 27.035 17.1062 27.047 17.0881L27.3231 16.6751C27.4246 16.5232 27.4347 16.328 27.3493 16.1665ZM26.2382 16.5085L23.8996 19.1752L19.708 14.2268C19.5525 14.0432 19.3253 13.936 19.0846 13.9329C19.0809 13.9328 19.0773 13.9328 19.0736 13.9328C18.837 13.9328 18.6115 14.0335 18.4536 14.2102L16.3033 16.6165L15.2528 15.2387L20.5305 5.3877L26.3315 16.369L26.2382 16.5085Z" fill="#BA6827"/>
<path d="M33.9027 28.5724L29.9982 21.1816C29.8699 20.9388 29.5692 20.8459 29.3263 20.9742C29.0834 21.1025 28.9906 21.4034 29.1189 21.6462L32.897 28.7978H19.6515C19.6358 28.7207 13.8804 17.7992 13.8804 17.7992L14.7358 16.2024L15.6313 17.3768C15.7822 17.5748 16.0115 17.6938 16.2602 17.7035C16.5081 17.7138 16.7467 17.6124 16.9125 17.4267L19.0694 15.013L23.2621 19.9627C23.4186 20.1475 23.6473 20.2547 23.8894 20.2567C23.8918 20.2567 23.8942 20.2567 23.8966 20.2567C24.1361 20.2567 24.3637 20.1537 24.5218 19.9734C24.5234 19.9716 24.5251 19.9696 24.5267 19.9677L26.8123 17.2803L27.7413 19.039C27.8696 19.2818 28.1705 19.3747 28.4133 19.2463C28.6562 19.118 28.749 18.8172 28.6207 18.5744L21.2657 4.65205C21.1218 4.37965 20.841 4.20991 20.5329 4.20898H20.5305C20.2234 4.20898 19.9427 4.37693 19.7976 4.64786L14.576 14.3947L14.2242 15.0513C14.2242 15.0513 14.2242 15.0514 14.2242 15.0515L13.3202 16.7387L10.6327 11.6515C10.5247 11.4472 10.3398 11.3006 10.124 11.2397C10.052 11.2194 9.97668 11.2086 9.89958 11.2084C9.89878 11.2084 9.89798 11.2084 9.89719 11.2084C9.88689 11.2084 9.87673 11.2091 9.86651 11.2095C9.85807 11.2097 9.84957 11.2098 9.84121 11.2103C9.83357 11.2109 9.82607 11.2119 9.81849 11.2126C9.80721 11.2136 9.79592 11.2145 9.78476 11.216C9.77473 11.2174 9.76484 11.2194 9.75494 11.2211C9.74664 11.2225 9.73821 11.2237 9.72998 11.2254C9.49078 11.2743 9.28253 11.4266 9.16426 11.6473L7.34407 15.0451L4.2826 20.7597C4.28207 20.7607 4.28167 20.7618 4.28114 20.7628L0.0995425 28.5683C-0.0397778 28.8284 -0.0324731 29.1348 0.119066 29.388C0.270671 29.6412 0.537359 29.7924 0.832468 29.7924H33.1675C33.4616 29.7924 33.7278 29.642 33.8796 29.3901C34.0315 29.1382 34.0401 28.8326 33.9027 28.5724ZM15.4025 14.9579L20.5296 5.38803L26.3118 16.3336L23.8968 19.1731L19.7072 14.227C19.5516 14.0434 19.3243 13.9362 19.0838 13.9331C19.08 13.9331 19.0764 13.9331 19.0727 13.9331C18.8361 13.9331 18.6107 14.0338 18.4528 14.2105L16.3025 16.6167L15.2519 15.239L15.4025 14.9579ZM1.10493 28.7977L4.87057 21.7686L6.32234 22.9846C6.47892 23.1158 6.66831 23.1801 6.85664 23.1801C7.08501 23.1801 7.31179 23.0855 7.47668 22.9007L9.14182 21.0345L10.2143 22.0986C10.4092 22.292 10.7241 22.2907 10.9176 22.0958C11.111 21.9009 11.1098 21.586 10.9149 21.3925L9.72028 20.2073C9.55905 20.0474 9.33712 19.96 9.10934 19.9665C8.8823 19.9734 8.66535 20.0745 8.51421 20.244L6.83984 22.1206L5.35035 20.873L9.89632 12.3873L15.7625 23.4918L14.3463 24.797L13.0508 23.5116C12.8559 23.3181 12.541 23.3194 12.3475 23.5143C12.1541 23.7092 12.1553 24.0241 12.3503 24.2176L13.7565 25.6128C13.9187 25.7737 14.1303 25.8546 14.3422 25.8546C14.5438 25.8546 14.7458 25.7813 14.9057 25.634L16.2434 24.4011L18.5661 28.7977H1.10493Z" fill="#BA6827"/>
</svg>
