<svg width="34" height="34" viewBox="0 0 34 34" fill="none" xmlns="http://www.w3.org/2000/svg">
<path d="M33.3294 27.291H0.670611C0.3003 27.291 0 27.5912 0 27.9616C0 28.332 0.3003 28.6322 0.670611 28.6322H33.3294C33.6997 28.6322 34 28.332 34 27.9616C34 27.5912 33.6997 27.291 33.3294 27.291Z" fill="#BA6827"/>
<path d="M0.325456 16.8889L5.26806 20.2671C6.38114 21.0279 7.68964 21.416 9.0037 21.416C9.95497 21.416 10.9092 21.2125 11.7937 20.7997L16.6634 18.5237C16.9989 18.3669 17.1437 17.9677 16.9869 17.6323C16.8301 17.2968 16.4311 17.152 16.0954 17.3087L11.2262 19.5845C9.54717 20.3679 7.55424 20.2052 6.02478 19.1598L1.9368 16.3657L3.77669 15.2372L8.51168 16.8078C8.67497 16.862 8.85288 16.8513 9.0086 16.7779L14.6505 14.1203C14.8607 14.0213 15.0046 13.8205 15.031 13.5897C15.0573 13.3588 14.9623 13.1308 14.7797 12.9869L8.55433 8.08118L10.9755 6.84578L22.1737 10.3886C22.3345 10.4395 22.5085 10.4279 22.6612 10.3562L30.1533 6.83572C30.9989 6.48177 32.0225 6.86852 32.4394 7.70155C32.6526 8.12752 32.6838 8.60983 32.5271 9.05967C32.3706 9.50952 32.0466 9.86816 31.6148 10.0697L21.55 14.7716C21.2144 14.9283 21.0695 15.3275 21.2262 15.663C21.383 15.9985 21.7821 16.1436 22.1176 15.9868L32.1822 11.285C32.9448 10.9291 33.5171 10.2955 33.7938 9.50073C34.0706 8.70599 34.0155 7.85385 33.6388 7.10135C32.9089 5.64277 31.1045 4.97216 29.6171 5.60643C29.6096 5.60958 29.6022 5.61293 29.5949 5.61635L22.3283 9.0309L11.1179 5.48411C10.9501 5.43099 10.7678 5.44602 10.6108 5.52615L7.01199 7.36249C6.80839 7.46637 6.67172 7.66688 6.64939 7.89435C6.62706 8.12182 6.72215 8.34507 6.90174 8.48657L13.0979 13.3692L8.6796 15.4504L3.90303 13.866C3.71533 13.8038 3.50985 13.8275 3.34126 13.9309L0.353219 15.7636C0.159413 15.8824 0.0390379 16.0914 0.0334048 16.3186C0.0278387 16.546 0.137819 16.7606 0.325456 16.8889Z" fill="#BA6827"/>
<path d="M18.8162 16.0299C18.481 16.1865 18.3362 16.5851 18.4928 16.9202C18.6494 17.2554 19.048 17.4002 19.3832 17.2436C19.7184 17.087 19.8631 16.6884 19.7065 16.3532C19.55 16.0181 19.1513 15.8734 18.8162 16.0299Z" fill="#BA6827"/>
</svg>
