<svg width="34" height="34" viewBox="0 0 34 34" fill="none" xmlns="http://www.w3.org/2000/svg">
<path d="M22.1301 9.37695C19.7913 9.37695 17.8801 11.2881 17.8801 13.627C17.8801 13.6651 17.8874 13.7023 17.8885 13.7404C16.7176 12.0814 14.8473 11.0012 12.7171 11.0011C12.7103 11.0011 12.7045 11.0038 12.6978 11.004C9.13201 11.0138 6.22638 13.9186 6.2259 17.4869V17.4897C3.87729 18.315 2.09766 20.3865 2.09766 23.0153C2.09766 26.3474 4.80294 29.0527 8.13509 29.0527H22.8773H26.9862C29.6975 29.0527 31.903 26.8472 31.903 24.1359C31.903 21.7221 30.1258 19.7958 27.8301 19.3851C27.6831 17.8677 26.978 16.5107 25.9237 15.5363C26.2209 14.9461 26.3802 14.2932 26.3802 13.6271C26.3802 11.2883 24.469 9.37695 22.1301 9.37695ZM22.1301 10.7936C23.7033 10.7936 24.9635 12.0538 24.9635 13.627C24.9635 14.0013 24.8645 14.3584 24.7228 14.7005C23.9107 14.2631 22.9955 13.995 22.0029 13.995C21.1178 13.9955 20.2827 14.2467 19.5126 14.6452C19.3859 14.3193 19.2968 13.9802 19.2968 13.627C19.2968 12.0538 20.557 10.7936 22.1301 10.7936ZM12.7171 12.4178C15.0841 12.4178 17.1289 14.0454 17.6588 16.3524L17.941 17.5837L18.843 16.701C19.6874 15.875 20.8217 15.4124 22.0029 15.4116C24.5082 15.4116 26.524 17.4274 26.524 19.9328V19.9356C26.524 19.9407 26.524 19.9444 26.524 19.9495L26.5212 20.6191L27.1908 20.6578C29.042 20.7655 30.4862 22.2565 30.4862 24.1359C30.4862 26.0867 28.9369 27.636 26.986 27.636H22.8771H8.13496C5.56327 27.636 3.51419 25.587 3.51419 23.0152C3.51419 20.8014 5.04294 18.9862 7.1029 18.519L7.69225 18.3862L7.65352 17.783C7.64714 17.6833 7.64289 17.5841 7.64247 17.4842C7.64431 14.6762 9.90872 12.4168 12.7171 12.4178Z" fill="#BA6827"/>
<path d="M21.4219 4.94727V8.06836H22.8385C22.8385 7.02799 22.8385 5.98763 22.8385 4.94727C22.3663 4.94727 21.8941 4.94727 21.4219 4.94727Z" fill="#BA6827"/>
<path d="M27.6973 12.9277V14.3444H30.8156C30.8156 13.8722 30.8156 13.4 30.8156 12.9277C29.7762 12.9277 28.7367 12.9277 27.6973 12.9277Z" fill="#BA6827"/>
<path d="M16.4888 6.99219C16.154 7.32606 15.8192 7.65994 15.4844 7.99382C16.2195 8.72977 16.9572 9.46311 17.6924 10.1991L18.694 9.19743C17.9589 8.46235 17.2239 7.72727 16.4888 6.99219Z" fill="#BA6827"/>
<path d="M27.7725 6.99219C27.0373 7.72814 26.2996 8.46148 25.5645 9.19743C25.8983 9.5313 26.2322 9.86518 26.5661 10.1991C27.3012 9.46311 28.039 8.72977 28.7741 7.99382C28.4402 7.65994 28.1063 7.32606 27.7725 6.99219Z" fill="#BA6827"/>
</svg>
