<svg width="38" height="38" viewBox="0 0 38 38" fill="none" xmlns="http://www.w3.org/2000/svg">
<path d="M10.6777 34.7569C10.3403 34.754 10.0075 34.6779 9.7023 34.5339C9.39712 34.3899 9.12681 34.1814 8.91005 33.9227C8.69328 33.6641 8.53522 33.3615 8.44677 33.0358C8.35833 32.7102 8.3416 32.3692 8.39774 32.0364C8.41914 31.9083 8.44743 31.7815 8.48248 31.6564C8.55892 31.3846 8.68477 31.1292 8.85374 30.9029L12.7297 25.7262C12.9017 25.4965 13.0082 25.2245 13.0379 24.9392L13.0911 20.6125C13.093 20.4525 13.1579 20.2997 13.2717 20.1872C13.3856 20.0748 13.5391 20.0117 13.6991 20.0117H13.7067C13.8679 20.0137 14.0217 20.0797 14.1343 20.195C14.2469 20.3104 14.3091 20.4657 14.3071 20.6269L14.2539 24.9798C14.2539 24.9954 14.2539 25.0114 14.2516 25.0273C14.2045 25.5445 14.0148 26.0384 13.7037 26.4542L9.8273 31.631C9.7471 31.7375 9.68708 31.8578 9.65022 31.9859C9.62741 32.0685 9.60877 32.1522 9.59436 32.2367C9.56016 32.4322 9.57918 32.6334 9.64945 32.8191C9.71972 33.0047 9.83864 33.1681 9.99374 33.292C10.1439 33.4156 10.3245 33.4966 10.5167 33.5264C10.7089 33.5563 10.9056 33.534 11.0862 33.4618L11.1068 33.4531L11.1216 33.4474C11.3016 33.3719 11.458 33.2495 11.5745 33.0928L16.2048 26.9209L16.6954 24.7135C16.7127 24.6355 16.7452 24.5617 16.7911 24.4964C16.8369 24.431 16.8952 24.3752 16.9625 24.3324C17.0299 24.2895 17.105 24.2603 17.1837 24.2465C17.2623 24.2327 17.3429 24.2344 17.4208 24.2518C17.4988 24.2691 17.5726 24.3016 17.638 24.3474C17.7033 24.3932 17.7591 24.4515 17.8019 24.5188C17.8448 24.5862 17.874 24.6614 17.8878 24.74C17.9017 24.8186 17.8999 24.8992 17.8825 24.9772L17.3635 27.3127C17.3448 27.3971 17.3083 27.4765 17.2563 27.5456L12.5443 33.8232C12.296 34.1547 11.9632 34.4134 11.5806 34.5722L11.5688 34.5771L11.5286 34.5935C11.2577 34.7006 10.9691 34.7561 10.6777 34.7569Z" fill="#BA6827"/>
<path d="M14.081 20.768C13.9834 20.7677 13.8874 20.744 13.801 20.6988C13.7145 20.6537 13.6402 20.5884 13.5844 20.5084C13.5285 20.4285 13.4926 20.3363 13.4798 20.2396C13.4671 20.1429 13.4777 20.0446 13.511 19.9529L16.5088 11.6757C16.677 11.2022 16.9588 10.7772 17.3293 10.4378C17.6999 10.0984 18.1481 9.85505 18.6345 9.72901C19.3987 9.53483 20.1545 9.64731 20.8792 10.0642C21.3806 10.3568 21.8074 10.7617 22.126 11.2471L24.6833 15.103C24.7294 15.173 24.7921 15.2306 24.8658 15.2704C24.9396 15.3102 25.0221 15.331 25.1059 15.331H28.0669C28.73 15.331 29.3543 15.6711 29.6963 16.2186C30.0687 16.8152 30.017 17.4909 29.555 18.0727C29.3742 18.2995 29.1442 18.4823 28.8825 18.6074C28.6208 18.7325 28.3341 18.7965 28.0441 18.7947H23.1766C22.159 18.7947 21.2128 18.3075 20.6458 17.4916C20.6105 17.4411 20.5752 17.3868 20.5413 17.3305C20.42 17.1294 20.2994 16.9285 20.1796 16.7278C20.0479 16.5075 19.9155 16.287 19.7825 16.0666C19.5446 15.6718 19.3595 15.3709 19.1825 15.0908L18.78 14.4532C18.7319 14.3859 18.6981 14.3094 18.6805 14.2286C18.663 14.1477 18.6621 14.0641 18.678 13.9829C18.6938 13.9017 18.7261 13.8246 18.7728 13.7563C18.8195 13.688 18.8797 13.63 18.9496 13.5858C19.0196 13.5415 19.0978 13.512 19.1795 13.4991C19.2612 13.4861 19.3447 13.49 19.4249 13.5104C19.5051 13.5309 19.5802 13.5675 19.6458 13.618C19.7113 13.6685 19.7658 13.7318 19.806 13.8041L20.2107 14.4391C20.392 14.7264 20.5812 15.0338 20.8237 15.4355C20.9574 15.6566 21.0897 15.8789 21.2231 16.1005C21.3424 16.3003 21.4621 16.5001 21.5822 16.6997C21.6023 16.7328 21.6232 16.7647 21.6437 16.7944C21.8173 17.0386 22.0473 17.2372 22.3142 17.3734C22.5812 17.5095 22.877 17.579 23.1766 17.576H28.0437C28.1506 17.5766 28.2563 17.5532 28.353 17.5076C28.4497 17.4621 28.535 17.3955 28.6027 17.3127C28.7813 17.0881 28.7361 16.9741 28.6642 16.8589C28.5991 16.7604 28.5103 16.6798 28.4058 16.6247C28.3013 16.5695 28.1846 16.5416 28.0665 16.5435H25.1059C24.8214 16.544 24.5413 16.4738 24.2906 16.3393C24.0399 16.2048 23.8265 16.0102 23.6695 15.7729L21.1125 11.9186C20.8979 11.5904 20.6102 11.3165 20.2719 11.1183C19.8243 10.861 19.3858 10.7922 18.9324 10.9074C18.6384 10.9848 18.3678 11.1331 18.1443 11.3393C17.9208 11.5454 17.7512 11.8031 17.6503 12.0899L14.6525 20.3671C14.6099 20.4845 14.5323 20.586 14.43 20.6578C14.3277 20.7295 14.2059 20.768 14.081 20.768Z" fill="#BA6827"/>
<path d="M21.701 34.625C21.4637 34.6246 21.228 34.5848 21.0037 34.5072C19.8709 34.1181 19.2314 33.4033 19.2496 32.5468L19.2724 31.5143V28.7023C19.2721 28.3248 19.1374 27.9598 18.8924 27.6725L13.2346 21.0123C13.1829 20.9514 13.1437 20.881 13.1192 20.8049C13.0947 20.7289 13.0854 20.6488 13.0918 20.5692C13.0983 20.4896 13.1204 20.4121 13.1568 20.341C13.1932 20.2699 13.2433 20.2067 13.3042 20.155C13.365 20.1033 13.4355 20.064 13.5115 20.0395C13.5875 20.015 13.6676 20.0057 13.7472 20.0122C13.8268 20.0187 13.9044 20.0407 13.9754 20.0772C14.0465 20.1136 14.1097 20.1637 14.1614 20.2245L19.8208 26.8848C20.2516 27.3922 20.4882 28.0362 20.4884 28.7019V31.5345L20.4653 32.573C20.4561 32.9997 21.1778 33.2813 21.3989 33.3573C21.597 33.4298 21.815 33.4263 22.0107 33.3474C22.523 33.1293 22.5948 32.4544 22.6016 32.372V26.4105C22.602 26.0127 22.4528 25.6292 22.1836 25.3363L19.3427 22.2343C18.9244 21.7787 18.6365 21.2188 18.5095 20.6134C18.3824 20.008 18.4209 19.3796 18.6207 18.7942L19.7326 15.5403C19.7848 15.3877 19.8954 15.2621 20.0402 15.191C20.1849 15.12 20.352 15.1094 20.5046 15.1616C20.6572 15.2137 20.7828 15.3244 20.8538 15.4691C20.9248 15.6139 20.9354 15.781 20.8833 15.9336L19.7714 19.1875C19.6418 19.566 19.6167 19.9725 19.6987 20.3641C19.7807 20.7557 19.9667 21.118 20.2373 21.4128L23.0785 24.5132C23.5544 25.0304 23.8183 25.7077 23.8176 26.4105V32.391V32.418C23.7929 32.9788 23.4847 34.0417 22.4876 34.4662C22.2389 34.5718 21.9713 34.6259 21.701 34.625Z" fill="#BA6827"/>
<path d="M13.2037 21.4444C13.0661 21.4445 12.9295 21.4215 12.7994 21.3764C12.6683 21.3308 12.538 21.2845 12.4073 21.2381C12.1363 21.1416 11.8563 21.0424 11.5823 20.9531L9.84605 20.3888C9.74838 20.3563 9.64891 20.3296 9.54813 20.3086C8.87439 20.1695 8.41991 19.8956 8.19837 19.4947C8.11828 19.3482 8.07086 19.1861 8.05938 19.0195C8.0479 18.853 8.07263 18.6859 8.13187 18.5298L8.13643 18.5177C8.15581 18.466 8.17443 18.4174 8.18887 18.3718L11.1255 9.45505C11.2072 9.20653 11.273 8.95117 11.3425 8.68061L11.3615 8.60765C11.4384 8.31344 11.6112 8.05324 11.8525 7.86817C12.043 7.72204 12.2646 7.62171 12.5001 7.57492C12.7356 7.52814 12.9787 7.53616 13.2106 7.59837L16.1058 8.36331C16.8658 8.52177 17.4126 8.88201 17.7318 9.43453C18.2403 10.3146 17.9336 11.3045 17.8967 11.4143L16.7431 11.0298V11.0339C16.7936 10.874 16.8806 10.3838 16.6773 10.038C16.5363 9.79857 16.2567 9.63479 15.8463 9.55119C15.8349 9.54891 15.8235 9.54625 15.8124 9.54321L12.9013 8.77409C12.8507 8.75921 12.7975 8.75621 12.7456 8.7653C12.6937 8.7744 12.6446 8.79535 12.6022 8.82653C12.5718 8.84623 12.5496 8.87637 12.5399 8.91127L12.5213 8.98385C12.4498 9.26163 12.3761 9.54853 12.2815 9.83505L9.34255 18.7521C9.32279 18.8129 9.30189 18.8692 9.28175 18.9239C9.32735 18.9619 9.46149 19.0489 9.79399 19.1177C9.93862 19.1478 10.0815 19.1858 10.2219 19.2317L11.9581 19.7983C12.248 19.8925 12.5361 19.9947 12.8146 20.0935C12.9428 20.1391 13.0711 20.1845 13.1996 20.2296C13.2254 20.2296 13.3687 20.1612 13.5632 19.8443C13.6197 19.7524 13.6995 19.6772 13.7946 19.6264C13.8897 19.5756 13.9966 19.551 14.1043 19.5551C14.1423 19.5551 17.9043 19.6562 19.229 17.0353C19.265 16.964 19.3147 16.9005 19.3752 16.8484C19.4357 16.7963 19.5059 16.7567 19.5817 16.7317C19.6576 16.7067 19.7376 16.697 19.8172 16.7029C19.8969 16.7089 19.9745 16.7305 20.0458 16.7664C20.1171 16.8024 20.1806 16.8521 20.2327 16.9126C20.2848 16.9731 20.3245 17.0433 20.3494 17.1192C20.3744 17.195 20.3842 17.275 20.3782 17.3547C20.3722 17.4343 20.3507 17.512 20.3147 17.5833C19.6128 18.9725 18.3007 19.9647 16.5147 20.4519C15.8248 20.6376 15.1159 20.7434 14.4019 20.7673C13.9751 21.3107 13.5343 21.4444 13.2037 21.4444Z" fill="#BA6827"/>
<path d="M22.1482 9.52601C21.5218 9.52571 20.9096 9.33969 20.389 8.99148C19.8683 8.64327 19.4626 8.1485 19.2231 7.56973C18.9836 6.99095 18.9211 6.35416 19.0435 5.73987C19.1659 5.12557 19.4676 4.56135 19.9106 4.11855C20.3537 3.67575 20.918 3.37424 21.5324 3.25216C22.1467 3.13007 22.7835 3.19288 23.3621 3.43265C23.9408 3.67242 24.4354 4.07838 24.7833 4.59921C25.1313 5.12003 25.317 5.73234 25.317 6.35871C25.3159 7.19865 24.9817 8.00385 24.3876 8.59764C23.7935 9.19143 22.9881 9.5253 22.1482 9.52601ZM22.1482 4.40741C21.7623 4.40771 21.3852 4.52241 21.0645 4.737C20.7438 4.95159 20.494 5.25645 20.3465 5.61303C20.1991 5.96961 20.1606 6.3619 20.2361 6.74032C20.3116 7.11873 20.4975 7.46628 20.7705 7.73902C21.0434 8.01176 21.3911 8.19746 21.7696 8.27262C22.1481 8.34779 22.5403 8.30906 22.8968 8.16133C23.2533 8.01359 23.5579 7.76349 23.7723 7.44263C23.9866 7.12178 24.101 6.74457 24.101 6.35871C24.1003 5.84114 23.8943 5.345 23.5282 4.97917C23.1621 4.61334 22.6658 4.40771 22.1482 4.40741Z" fill="#BA6827"/>
<path d="M28.0377 34.8077C27.8764 34.8077 27.7218 34.7437 27.6078 34.6296C27.4937 34.5156 27.4297 34.361 27.4297 34.1997V18.1861C27.4297 18.0249 27.4937 17.8702 27.6078 17.7562C27.7218 17.6422 27.8764 17.5781 28.0377 17.5781C28.1989 17.5781 28.3536 17.6422 28.4676 17.7562C28.5816 17.8702 28.6457 18.0249 28.6457 18.1861V34.1997C28.6457 34.361 28.5816 34.5156 28.4676 34.6296C28.3536 34.7437 28.1989 34.8077 28.0377 34.8077Z" fill="#BA6827"/>
<path d="M28.0377 16.5468C27.8764 16.5468 27.7218 16.4827 27.6078 16.3687C27.4937 16.2547 27.4297 16.1001 27.4297 15.9388V12.6119C27.4297 12.4507 27.4937 12.296 27.6078 12.182C27.7218 12.068 27.8764 12.0039 28.0377 12.0039C28.1989 12.0039 28.3536 12.068 28.4676 12.182C28.5816 12.296 28.6457 12.4507 28.6457 12.6119V15.9388C28.6457 16.1001 28.5816 16.2547 28.4676 16.3687C28.3536 16.4827 28.1989 16.5468 28.0377 16.5468Z" fill="#BA6827"/>
<path d="M16.6957 13.5485C16.6389 13.5485 16.5823 13.5406 16.5277 13.525L10.9729 11.9316C10.8957 11.91 10.8237 11.8733 10.7607 11.8236C10.6978 11.774 10.6454 11.7125 10.6063 11.6425C10.5673 11.5725 10.5425 11.4955 10.5333 11.4159C10.5241 11.3363 10.5308 11.2557 10.5528 11.1787C10.5749 11.1017 10.612 11.0298 10.662 10.9672C10.7119 10.9045 10.7738 10.8524 10.844 10.8137C10.9141 10.7751 10.9913 10.7507 11.0709 10.7419C11.1506 10.7332 11.2311 10.7402 11.308 10.7627L16.8629 12.3561C17.0038 12.3965 17.1253 12.4864 17.2051 12.6093C17.285 12.7322 17.3177 12.8798 17.2974 13.025C17.277 13.1701 17.2049 13.303 17.0944 13.3992C16.9838 13.4954 16.8422 13.5484 16.6957 13.5485Z" fill="#BA6827"/>
</svg>
