<svg width="34" height="34" viewBox="0 0 34 34" fill="none" xmlns="http://www.w3.org/2000/svg">
<path d="M17.0006 9.00977C12.5944 9.00977 9.00977 12.5944 9.00977 17.0006C9.00977 21.4068 12.5944 24.9916 17.0006 24.9916C21.4068 24.9916 24.9915 21.4068 24.9915 17.0006C24.9915 12.5944 21.4068 9.00977 17.0006 9.00977ZM17.0006 23.6634C13.3268 23.6634 10.3379 20.6745 10.3379 17.0007C10.3379 13.3268 13.3268 10.338 17.0006 10.338C20.6745 10.338 23.6634 13.3268 23.6634 17.0007C23.6634 20.6745 20.6745 23.6634 17.0006 23.6634Z" fill="#BA6827"/>
<path d="M33.6409 1.86718C33.4205 1.75309 33.1547 1.77168 32.952 1.91512C30.6897 3.51757 29.1557 5.9254 28.6267 8.59798C25.9481 4.89563 21.6342 2.65622 17 2.65622C14.0593 2.65622 11.2683 3.52521 8.87513 5.17726C8.23623 3.85445 7.17905 2.74733 5.81739 2.04455C5.16853 1.70966 4.39377 1.70973 3.74498 2.04455C1.43504 3.23687 0 5.59237 0 8.19197V10.3224C0 12.1143 1.04922 13.7054 2.65625 14.4217V19.2246C2.65625 19.5913 2.95355 19.8886 3.32031 19.8886C3.68707 19.8886 3.98438 19.5913 3.98438 19.2246V13.9656C3.98438 13.6771 3.79811 13.4217 3.52352 13.3333C2.2104 12.9113 1.32812 11.7013 1.32812 10.3224V8.19197C1.32812 6.09148 2.48764 4.18821 4.35419 3.22479C4.62161 3.08686 4.94089 3.08679 5.20831 3.22479C7.07486 4.18821 8.23438 6.09148 8.23438 8.19197V10.3224C8.23438 11.7013 7.3521 12.9113 6.03898 13.3334C5.76439 13.4217 5.57812 13.6771 5.57812 13.9657V25.4345C5.57806 25.4359 5.57812 25.4373 5.57812 25.4387V30.082C5.57812 30.5214 5.22066 30.8789 4.78125 30.8789C4.34184 30.8789 3.98438 30.5214 3.98438 30.082V25.2012C3.98438 24.8345 3.68707 24.5371 3.32031 24.5371C2.95355 24.5371 2.65625 24.8345 2.65625 25.2012V30.082C2.65625 31.2537 3.60951 32.207 4.78125 32.207C5.95299 32.207 6.90625 31.2537 6.90625 30.082V27.1919C9.58016 29.8486 13.1714 31.3437 17 31.3437C22.4648 31.3437 27.3385 28.2421 29.75 23.5789V30.082C29.75 31.2537 30.7033 32.207 31.875 32.207C33.0467 32.207 34 31.2537 34 30.082V2.457C34 2.20877 33.8615 1.9812 33.6409 1.86718ZM17 30.0156C13.0576 30.0156 9.3923 28.2686 6.90625 25.2159V14.4217C8.51328 13.7054 9.5625 12.1143 9.5625 10.3224V8.19197C9.5625 7.60229 9.48793 7.02542 9.34681 6.47159C11.5792 4.84317 14.2155 3.98434 17 3.98434C21.7354 3.98434 26.1026 6.5611 28.3972 10.7091C28.4046 10.7226 28.4136 10.7345 28.4219 10.7472V15.3204C28.4219 16.652 28.8916 17.9244 29.75 18.9327V19.6255C28.5159 25.6533 23.1741 30.0156 17 30.0156ZM32.6719 30.082C32.6719 30.5214 32.3144 30.8789 31.875 30.8789C31.4356 30.8789 31.0781 30.5214 31.0781 30.082V19.761C31.0783 19.7604 31.0784 19.7599 31.0785 19.7593C31.0954 19.6724 31.0942 19.5863 31.0781 19.5044V18.6796C31.0781 18.5109 31.0139 18.3485 30.8986 18.2254C30.1579 17.4351 29.75 16.4035 29.75 15.3204V10.6756C29.75 8.08572 30.8228 5.62325 32.6719 3.86162V30.082Z" fill="#BA6827"/>
<path d="M3.32031 22.877C3.49563 22.877 3.66629 22.8065 3.7898 22.6823C3.91332 22.5589 3.98438 22.3875 3.98438 22.2129C3.98438 22.0382 3.91332 21.8669 3.7898 21.7434C3.66629 21.6199 3.49563 21.5488 3.32031 21.5488C3.14566 21.5488 2.97434 21.6198 2.85082 21.7434C2.7273 21.8669 2.65625 22.0382 2.65625 22.2129C2.65625 22.3882 2.7273 22.5589 2.85082 22.6823C2.97434 22.8065 3.14566 22.877 3.32031 22.877Z" fill="#BA6827"/>
</svg>
