<svg width="34" height="34" viewBox="0 0 34 34" fill="none" xmlns="http://www.w3.org/2000/svg">
<g clip-path="url(#clip0_3040_9591)">
<path d="M17.7305 5.81055C17.3638 5.81055 17.0664 6.10785 17.0664 6.47461C17.0664 6.84137 17.3638 7.13867 17.7305 7.13867H19.9137C19.9182 8.71961 20.4313 10.1963 21.3052 11.4016C20.3997 12.2842 19.2137 12.8866 17.8803 13.054C17.5164 13.0997 17.2584 13.4317 17.3041 13.7956C17.3462 14.1314 17.6322 14.377 17.9621 14.377C17.9897 14.377 18.0176 14.3752 18.0456 14.3717C19.6496 14.1704 21.0801 13.4548 22.1798 12.4038C23.2794 13.4548 24.7099 14.1704 26.3139 14.3717C26.342 14.3752 26.3698 14.377 26.3974 14.377C26.7273 14.377 27.0133 14.1313 27.0554 13.7956C27.1011 13.4317 26.8432 13.0996 26.4792 13.054C25.1459 12.8866 23.9597 12.2842 23.0543 11.4016C23.9282 10.1962 24.4413 8.71961 24.4458 7.13867H26.6289C26.9956 7.13867 27.293 6.84137 27.293 6.47461C27.293 6.10785 26.9956 5.81055 26.6289 5.81055H22.8438V4.08398C22.8438 3.71722 22.5464 3.41992 22.1797 3.41992C21.813 3.41992 21.5156 3.71722 21.5156 4.08398V5.81055H17.7305ZM22.1797 10.3264C21.5886 9.39961 21.2461 8.30417 21.242 7.13867H23.1173C23.1133 8.30417 22.7708 9.39961 22.1797 10.3264Z" fill="#BA6827"/>
<path d="M30.4779 0H25.168C24.8013 0 24.5039 0.297301 24.5039 0.664062C24.5039 1.03082 24.8013 1.32812 25.168 1.32812H30.4779C31.6877 1.32812 32.6719 2.31233 32.6719 3.52212V14.2748C32.6719 15.4845 31.6877 16.4688 30.4779 16.4688C30.1112 16.4688 29.8138 16.7661 29.8138 17.1328V19.9427L25.9312 16.6278C25.811 16.5251 25.6581 16.4688 25.5 16.4688H13.8814C12.6716 16.4688 11.6875 15.4845 11.6875 14.2748V3.52212C11.6875 2.31233 12.6716 1.32812 13.8814 1.32812H19.1914C19.5581 1.32812 19.8555 1.03082 19.8555 0.664062C19.8555 0.297301 19.5581 0 19.1914 0H13.8814C11.9394 0 10.3594 1.58 10.3594 3.52212V11.9531H3.52205C1.58 11.9531 0 13.5331 0 15.4752V26.2279C0 27.943 1.23237 29.3757 2.85799 29.6872V33.3359C2.85799 33.5951 3.00873 33.8305 3.24401 33.939C3.33293 33.9799 3.42776 34 3.52199 34C3.67718 34 3.83064 33.9457 3.9533 33.841L8.74491 29.75H20.1185C22.0606 29.75 23.6406 28.17 23.6406 26.2279V17.7969H25.2551L30.0467 21.8878C30.1694 21.9926 30.3228 22.0469 30.478 22.0469C30.5722 22.0469 30.6671 22.0268 30.756 21.9858C30.9913 21.8773 31.142 21.6419 31.142 21.3828L31.1421 17.7341C32.7677 17.4226 34.0001 15.9899 34.0001 14.2748V3.52212C34 1.58 32.42 0 30.4779 0ZM11.8311 18.5609L13.1468 22.047H10.5035L11.8311 18.5609ZM22.3125 26.2279C22.3125 27.4377 21.3284 28.4219 20.1186 28.4219H8.5C8.34189 28.4219 8.18902 28.4783 8.06882 28.5809L4.18612 31.8959V29.0859C4.18612 28.7192 3.88875 28.4219 3.52205 28.4219C2.31227 28.4219 1.32812 27.4377 1.32812 26.2279V15.4752C1.32812 14.2655 2.31227 13.2812 3.52205 13.2812H10.3594V14.2748C10.3594 15.1611 10.6892 15.9714 11.2316 16.5912C11.1597 16.666 11.1009 16.7548 11.0598 16.8551C11.0578 16.8601 11.0557 16.8652 11.0539 16.8703L8.2114 24.3336C8.08084 24.6763 8.25284 25.0599 8.59556 25.1905C8.93828 25.321 9.32191 25.149 9.45247 24.8063L9.99753 23.3752H13.6479L14.1872 24.8043C14.2876 25.0703 14.5402 25.2341 14.8086 25.2341C14.8865 25.2341 14.9657 25.2203 15.0429 25.1911C15.3861 25.0617 15.5592 24.6785 15.4297 24.3354L12.9104 17.6597C13.219 17.7483 13.5445 17.7969 13.8812 17.7969H22.3125V26.2279Z" fill="#BA6827"/>
<path d="M22.1797 1.32812C22.3543 1.32812 22.5257 1.25707 22.6491 1.13355C22.7727 1.01004 22.8438 0.838711 22.8438 0.664062C22.8438 0.489414 22.7727 0.318086 22.6491 0.19457C22.5257 0.0710547 22.3543 0 22.1797 0C22.005 0 21.8337 0.0710547 21.7102 0.19457C21.5866 0.318086 21.5156 0.489414 21.5156 0.664062C21.5156 0.838711 21.5866 1.01004 21.7102 1.13355C21.8338 1.25707 22.005 1.32812 22.1797 1.32812Z" fill="#BA6827"/>
</g>
<defs>
<clipPath id="clip0_3040_9591">
<rect width="34" height="34" fill="white"/>
</clipPath>
</defs>
</svg>
