<svg width="34" height="34" viewBox="0 0 34 34" fill="none" xmlns="http://www.w3.org/2000/svg">
<g clip-path="url(#clip0_3040_9546)">
<path d="M19.833 33.623C18.2746 33.623 16.9996 32.3481 16.9996 30.7899V24.8753L13.0596 20.9439C12.4044 20.2889 12.0412 19.4121 12.0412 18.4824C12.0412 17.5616 12.4132 16.6674 13.0596 16.0122L18.1153 10.9565H15.5387L13.4313 13.0638C12.9621 13.5331 12.3424 13.7899 11.6783 13.7899C10.3146 13.7899 9.19922 12.6742 9.19922 11.3105C9.19922 10.6465 9.45576 10.0268 9.92502 9.55753L12.7584 6.72411C13.2277 6.25485 13.8477 5.99805 14.5117 5.99805H22.4893C23.233 5.99805 23.9679 6.29921 24.4903 6.83046L26.7834 9.12355C27.3146 9.6548 27.6158 10.3809 27.6158 11.1248V15.9149H30.8033C32.1667 15.9149 33.2824 17.0303 33.2824 18.394C33.2824 19.7576 32.1667 20.873 30.8033 20.873H25.4908C23.9323 20.873 22.6574 19.5981 22.6574 18.0399V16.207L19.5054 19.368L21.834 21.6966C22.3653 22.2279 22.6662 22.9451 22.6662 23.6976V30.7811C22.6662 32.3481 21.3913 33.623 19.833 33.623ZM14.9631 9.53989H21.5417L14.0601 17.0215C13.6705 17.4111 13.458 17.9424 13.458 18.4912C13.458 19.0316 13.6793 19.5628 14.0601 19.9522L18.4074 24.2997V30.7899C18.4074 31.5689 19.045 32.2065 19.8242 32.2065C20.6032 32.2065 21.2408 31.5689 21.2408 30.7899V23.7065C21.2408 23.3257 21.0903 22.9716 20.8247 22.706L17.5044 19.368L24.083 12.7894V18.0399C24.083 18.8189 24.7204 19.4565 25.4996 19.4565H30.8121C31.3965 19.4565 31.8746 18.9784 31.8746 18.394C31.8746 17.8095 31.3965 17.3315 30.8121 17.3315H26.208V11.1248C26.208 10.7528 26.0573 10.3897 25.7917 10.1241L23.4986 7.83096C23.233 7.56534 22.8698 7.41489 22.4981 7.41489H14.5205C14.237 7.41489 13.9714 7.5298 13.7678 7.72461L10.9346 10.558C10.731 10.7617 10.6246 11.0273 10.6246 11.3105C10.6246 11.895 11.1027 12.373 11.6871 12.373C11.9704 12.373 12.236 12.2581 12.4396 12.0633L14.9631 9.53989Z" fill="#BA6827"/>
<path d="M9.20842 27.9576C8.45564 27.9576 7.73866 27.6655 7.20741 27.1252L2.95741 22.8752C2.42616 22.3439 2.125 21.627 2.125 20.8742C2.125 19.316 3.39995 18.041 4.95842 18.041C5.71094 18.041 6.42818 18.3331 6.95943 18.8732L9.20842 21.1222L10.5365 19.794L11.537 20.7945L9.20842 23.1232L5.95892 19.8737C5.6933 19.608 5.33896 19.4576 4.95842 19.4576C4.17918 19.4576 3.54158 20.0952 3.54158 20.8742C3.54158 21.255 3.69229 21.6091 3.95792 21.8747L8.20792 26.1247C8.74799 26.665 9.67767 26.665 10.2089 26.1247L13.3964 22.9372L14.3969 23.9377L11.2094 27.1252C10.6782 27.6655 9.96094 27.9576 9.20842 27.9576Z" fill="#BA6827"/>
<path d="M29.75 8.83203C27.4037 8.83203 25.5 6.9283 25.5 4.58203C25.5 2.23576 27.4037 0.332031 29.75 0.332031C32.0963 0.332031 34 2.23576 34 4.58203C34 6.9283 32.0963 8.83203 29.75 8.83203ZM29.75 1.74861C28.1918 1.74861 26.9166 3.02382 26.9166 4.58203C26.9166 6.14024 28.1918 7.41545 29.75 7.41545C31.3082 7.41545 32.5834 6.14024 32.5834 4.58203C32.5834 3.02382 31.3082 1.74861 29.75 1.74861Z" fill="#BA6827"/>
<path d="M0 10.957H6.375V12.3736H0V10.957Z" fill="#BA6827"/>
<path d="M2.125 5.99805H9.20842V7.41489H2.125V5.99805Z" fill="#BA6827"/>
</g>
<defs>
<clipPath id="clip0_3040_9546">
<rect width="34" height="34" fill="white"/>
</clipPath>
</defs>
</svg>
