<svg width="40" height="40" viewBox="0 0 40 40" fill="none" xmlns="http://www.w3.org/2000/svg">
<path d="M19.9556 21.167C21.9436 21.167 23.5596 19.551 23.5596 17.563C23.5596 15.575 21.9436 13.959 19.9556 13.959C17.9676 13.959 16.3516 15.575 16.3516 17.563C16.3556 19.551 17.9716 21.167 19.9556 21.167ZM19.9556 15.323C21.1916 15.323 22.1996 16.331 22.1996 17.567C22.1996 18.803 21.1916 19.811 19.9556 19.811C18.7196 19.811 17.7116 18.803 17.7116 17.567C17.7116 16.331 18.7196 15.323 19.9556 15.323Z" fill="#BA6827"/>
<path d="M12.6001 14.6475C14.5881 14.6475 16.2041 13.0315 16.2041 11.0435C16.2041 9.05545 14.5881 7.43945 12.6001 7.43945C10.6121 7.43945 8.99609 9.05545 8.99609 11.0435C8.99609 13.0315 10.6121 14.6475 12.6001 14.6475ZM12.6001 8.79945C13.8361 8.79945 14.8441 9.80745 14.8441 11.0435C14.8441 12.2795 13.8361 13.2875 12.6001 13.2875C11.3641 13.2875 10.3561 12.2795 10.3561 11.0435C10.3561 9.80745 11.3641 8.79945 12.6001 8.79945Z" fill="#BA6827"/>
<path d="M11.5958 24.6442H9.43983V20.3002C9.43983 19.9242 9.13583 19.6202 8.75983 19.6202C8.38383 19.6202 8.07983 19.9242 8.07983 20.3002V24.6442H6.78383V20.2682C6.78383 18.3842 8.31583 16.8522 10.1998 16.8522H11.7718H13.4398H15.0758C15.4518 16.8522 15.7558 16.5482 15.7558 16.1722C15.7558 15.7962 15.4518 15.4922 15.0758 15.4922H13.4398H11.7718H10.1998C7.56783 15.4922 5.42383 17.6362 5.42383 20.2682V24.7602C5.42383 25.4442 5.97983 26.0042 6.66783 26.0042H11.5958C11.9718 26.0042 12.2758 25.7002 12.2758 25.3242C12.2758 24.9482 11.9678 24.6442 11.5958 24.6442Z" fill="#BA6827"/>
<path d="M25.7396 23.3669C25.3436 22.9709 24.8916 22.6549 24.3996 22.4189C23.7676 22.1189 23.0756 21.9629 22.3556 21.9629H20.7996H19.1196H17.5556C14.9156 21.9629 12.7676 24.1109 12.7676 26.7509V31.2429C12.7676 31.9269 13.3236 32.4869 14.0116 32.4869H25.9036C26.5876 32.4869 27.1476 31.9309 27.1476 31.2429V26.7509C27.1436 25.4749 26.6476 24.2709 25.7396 23.3669ZM17.5556 23.3229H19.1196H20.7956H22.3516C22.8636 23.3229 23.3636 23.4349 23.8156 23.6509C24.1676 23.8149 24.4876 24.0429 24.7716 24.3269C25.4196 24.9749 25.7756 25.8309 25.7756 26.7469C25.7756 26.7869 25.7796 26.8229 25.7876 26.8629V31.1269H24.4796V26.7709C24.4796 26.3949 24.1756 26.0909 23.7996 26.0909C23.4236 26.0909 23.1196 26.3949 23.1196 26.7709V31.1229H16.7996V26.7709C16.7996 26.3949 16.4956 26.0909 16.1196 26.0909C15.7436 26.0909 15.4396 26.3949 15.4396 26.7709V31.1229H14.1316V26.7509C14.1276 24.8589 15.6676 23.3229 17.5556 23.3229Z" fill="#BA6827"/>
<path d="M27.3032 14.6475C29.2912 14.6475 30.9072 13.0315 30.9072 11.0435C30.9072 9.05545 29.2912 7.43945 27.3032 7.43945C25.3152 7.43945 23.6992 9.05545 23.6992 11.0435C23.6992 13.0315 25.3192 14.6475 27.3032 14.6475ZM27.3032 8.79945C28.5392 8.79945 29.5472 9.80745 29.5472 11.0435C29.5472 12.2795 28.5392 13.2875 27.3032 13.2875C26.0672 13.2875 25.0592 12.2795 25.0592 11.0435C25.0592 9.80745 26.0672 8.79945 27.3032 8.79945Z" fill="#BA6827"/>
<path d="M34.5038 20.2682C34.5038 17.6362 32.3558 15.4922 29.7198 15.4922H28.1558H26.4798H24.8558C24.4798 15.4922 24.1758 15.7962 24.1758 16.1722C24.1758 16.5482 24.4798 16.8522 24.8558 16.8522H26.4798H28.1558H29.7198C31.6078 16.8522 33.1438 18.3842 33.1438 20.2682V24.6442H31.8358V20.3002C31.8358 19.9242 31.5318 19.6202 31.1558 19.6202C30.7798 19.6202 30.4758 19.9242 30.4758 20.3002V24.6442H28.3198C27.9438 24.6442 27.6398 24.9482 27.6398 25.3242C27.6398 25.7002 27.9438 26.0042 28.3198 26.0042H33.2598C33.9438 26.0042 34.5038 25.4482 34.5038 24.7602V20.2682Z" fill="#BA6827"/>
</svg>
