<svg width="40" height="40" viewBox="0 0 40 40" fill="none" xmlns="http://www.w3.org/2000/svg">
<path d="M22.1703 38.9189C21.4515 38.9181 20.7624 38.6321 20.2541 38.1238C19.7458 37.6155 19.4598 36.9264 19.459 36.2076V24.9773C19.459 24.8339 19.5159 24.6964 19.6173 24.5951C19.7187 24.4937 19.8562 24.4368 19.9995 24.4368C20.1429 24.4368 20.2804 24.4937 20.3817 24.5951C20.4831 24.6964 20.5401 24.8339 20.5401 24.9773V36.2076C20.5401 36.64 20.7119 37.0547 21.0176 37.3605C21.3234 37.6663 21.7382 37.8381 22.1706 37.8381C22.6031 37.8381 23.0178 37.6663 23.3236 37.3605C23.6294 37.0547 23.8011 36.64 23.8011 36.2076V16.5405C23.8011 16.3972 23.8581 16.2597 23.9595 16.1583C24.0608 16.0569 24.1983 16 24.3417 16C24.485 16 24.6225 16.0569 24.7239 16.1583C24.8253 16.2597 24.8822 16.3972 24.8822 16.5405V36.2076C24.8814 36.9265 24.5954 37.6157 24.087 38.124C23.5785 38.6323 22.8893 38.9182 22.1703 38.9189Z" fill="#BA6827"/>
<path d="M17.8291 38.9189C17.1102 38.9182 16.4209 38.6323 15.9125 38.124C15.4041 37.6157 15.118 36.9265 15.1172 36.2076V16.5405C15.1172 16.3972 15.1741 16.2597 15.2755 16.1583C15.3769 16.0569 15.5144 16 15.6577 16C15.8011 16 15.9386 16.0569 16.0399 16.1583C16.1413 16.2597 16.1983 16.3972 16.1983 16.5405V36.2076C16.1983 36.64 16.3701 37.0547 16.6758 37.3605C16.9816 37.6663 17.3964 37.8381 17.8288 37.8381C18.2613 37.8381 18.676 37.6663 18.9818 37.3605C19.2876 37.0547 19.4594 36.64 19.4594 36.2076V24.9773C19.4594 24.8339 19.5163 24.6964 19.6177 24.5951C19.719 24.4937 19.8565 24.4368 19.9999 24.4368C20.1433 24.4368 20.2807 24.4937 20.3821 24.5951C20.4835 24.6964 20.5404 24.8339 20.5404 24.9773V36.2076C20.5396 36.9264 20.2536 37.6155 19.7453 38.1238C19.2371 38.6321 18.5479 38.9181 17.8291 38.9189Z" fill="#BA6827"/>
<path d="M25.8552 26.8142C25.3105 26.8142 24.788 26.5978 24.4028 26.2125C24.0176 25.8273 23.8012 25.3049 23.8012 24.7601V16.5396C23.8012 16.3962 23.8581 16.2587 23.9595 16.1573C24.0609 16.056 24.1984 15.999 24.3417 15.999C24.4851 15.999 24.6226 16.056 24.724 16.1573C24.8253 16.2587 24.8823 16.3962 24.8823 16.5396V24.7558C24.8823 25.0138 24.9848 25.2613 25.1673 25.4438C25.3497 25.6263 25.5972 25.7288 25.8552 25.7288C26.1133 25.7288 26.3608 25.6263 26.5432 25.4438C26.7257 25.2613 26.8282 25.0138 26.8282 24.7558V14.7261C26.8274 13.9937 26.5361 13.2917 26.0183 12.7739C25.5004 12.256 24.7984 11.9648 24.0661 11.9639H15.9331C15.2008 11.9648 14.4987 12.256 13.9809 12.7739C13.4631 13.2917 13.1718 13.9937 13.1709 14.7261V24.7601C13.1709 25.0182 13.2734 25.2656 13.4559 25.4481C13.6384 25.6306 13.8858 25.7331 14.1439 25.7331C14.4019 25.7331 14.6494 25.6306 14.8319 25.4481C15.0144 25.2656 15.1169 25.0182 15.1169 24.7601V16.5396C15.1169 16.3962 15.1738 16.2587 15.2752 16.1573C15.3766 16.056 15.5141 15.999 15.6574 15.999C15.8008 15.999 15.9383 16.056 16.0396 16.1573C16.141 16.2587 16.198 16.3962 16.198 16.5396V24.7558C16.198 25.0255 16.1448 25.2926 16.0416 25.5418C15.9384 25.791 15.7871 26.0175 15.5963 26.2082C15.4056 26.399 15.1792 26.5503 14.9299 26.6535C14.6807 26.7567 14.4136 26.8098 14.1439 26.8098C13.8742 26.8098 13.6071 26.7567 13.3578 26.6535C13.1086 26.5503 12.8822 26.399 12.6915 26.2082C12.5007 26.0175 12.3494 25.791 12.2462 25.5418C12.143 25.2926 12.0898 25.0255 12.0898 24.7558V14.7261C12.091 13.7071 12.4963 12.7302 13.2168 12.0097C13.9373 11.2892 14.9141 10.884 15.9331 10.8828H24.0661C25.085 10.884 26.0619 11.2892 26.7824 12.0097C27.5029 12.7302 27.9082 13.7071 27.9093 14.7261V24.7601C27.9086 25.3047 27.6919 25.8267 27.3069 26.2118C26.9218 26.5968 26.3998 26.8135 25.8552 26.8142Z" fill="#BA6827"/>
<path d="M20.0008 9.58366C19.1601 9.58366 18.3382 9.33435 17.6392 8.86727C16.9401 8.40018 16.3953 7.73629 16.0736 6.95956C15.7518 6.18283 15.6677 5.32813 15.8317 4.50355C15.9957 3.67898 16.4005 2.92155 16.995 2.32707C17.5895 1.73258 18.3469 1.32773 19.1715 1.16371C19.9961 0.999693 20.8508 1.08387 21.6275 1.40561C22.4043 1.72734 23.0681 2.27218 23.5352 2.97122C24.0023 3.67026 24.2516 4.49211 24.2516 5.33285C24.2503 6.45984 23.8021 7.5403 23.0052 8.3372C22.2083 9.1341 21.1278 9.58237 20.0008 9.58366ZM20.0008 2.16311C19.3739 2.16311 18.7611 2.34902 18.2398 2.69731C17.7185 3.0456 17.3123 3.54065 17.0724 4.11984C16.8325 4.69903 16.7697 5.33636 16.892 5.95123C17.0143 6.5661 17.3162 7.13089 17.7595 7.57418C18.2028 8.01748 18.7676 8.31937 19.3824 8.44167C19.9973 8.56397 20.6346 8.5012 21.2138 8.26129C21.793 8.02138 22.2881 7.61511 22.6363 7.09385C22.9846 6.57259 23.1705 5.95976 23.1705 5.33285C23.1697 4.49244 22.8355 3.68671 22.2412 3.09246C21.6469 2.4982 20.8412 2.16397 20.0008 2.16311Z" fill="#BA6827"/>
</svg>
