<svg width="40" height="40" viewBox="0 0 40 40" fill="none" xmlns="http://www.w3.org/2000/svg">
<rect width="40" height="40" rx="20" fill="#BA6827"/>
<path d="M20 9.5C22.188 9.5 24.2868 10.3688 25.834 11.916C27.3812 13.4632 28.25 15.562 28.25 17.75C28.2527 19.5367 27.6691 21.2751 26.5889 22.6982L26.5879 22.7002C26.5818 22.7082 26.3623 22.9957 26.3291 23.0352L20 30.5L13.6738 23.0381C13.6384 22.9958 13.418 22.7079 13.4121 22.7002C12.3313 21.2766 11.7475 19.5374 11.75 17.75C11.75 15.562 12.6188 13.4632 14.166 11.916C15.7132 10.3688 17.812 9.5 20 9.5ZM20 11C18.2098 11 16.4924 11.7107 15.2266 12.9766C13.9607 14.2424 13.25 15.9598 13.25 17.75C13.2483 19.211 13.726 20.6322 14.6094 21.7959C14.6101 21.7964 14.7843 22.0275 14.8242 22.0771L20 28.1807L25.1826 22.0684C25.2157 22.0267 25.3912 21.7945 25.3916 21.7939C26.2745 20.6308 26.7517 19.2103 26.75 17.75C26.75 15.9598 26.0393 14.2424 24.7734 12.9766C23.5076 11.7107 21.7902 11 20 11ZM19.2686 14.0723C19.996 13.9276 20.7504 14.0013 21.4355 14.2852C22.1206 14.569 22.7062 15.0504 23.1182 15.667C23.5301 16.2836 23.75 17.0085 23.75 17.75C23.7489 18.7442 23.3534 19.6974 22.6504 20.4004C21.9474 21.1034 20.9942 21.4989 20 21.5C19.2585 21.5 18.5336 21.2801 17.917 20.8682C17.3004 20.4562 16.819 19.8706 16.5352 19.1855C16.2513 18.5004 16.1776 17.746 16.3223 17.0186C16.467 16.2911 16.8242 15.6231 17.3486 15.0986C17.8731 14.5742 18.5411 14.217 19.2686 14.0723ZM20 15.5C19.5551 15.5 19.12 15.6317 18.75 15.8789C18.38 16.1261 18.0912 16.4776 17.9209 16.8887C17.7507 17.2996 17.7063 17.7522 17.793 18.1885C17.8798 18.6249 18.0945 19.0262 18.4092 19.3408C18.7238 19.6555 19.1251 19.8702 19.5615 19.957C19.9978 20.0437 20.4504 19.9993 20.8613 19.8291C21.2724 19.6588 21.6239 19.37 21.8711 19C22.1183 18.63 22.25 18.1949 22.25 17.75C22.2493 17.1535 22.0117 16.582 21.5898 16.1602C21.168 15.7383 20.5965 15.5007 20 15.5Z" fill="white"/>
</svg>
