<svg width="20" height="20" viewBox="0 0 20 20" fill="none" xmlns="http://www.w3.org/2000/svg">
<g clip-path="url(#clip0_66_3710)">
<path d="M17.1875 7.5C17.0069 7.5 16.8356 7.4225 16.7175 7.28625C16.4775 7.0125 14.375 4.55937 14.375 2.8125C14.375 1.26188 15.6369 0 17.1875 0C18.7381 0 20 1.26188 20 2.8125C20 4.55937 17.8975 7.0125 17.6575 7.28625C17.5394 7.4225 17.3681 7.5 17.1875 7.5ZM17.1875 1.25C16.3262 1.25 15.625 1.95063 15.625 2.8125C15.625 3.59938 16.455 4.93375 17.1875 5.88687C17.92 4.93375 18.75 3.59938 18.75 2.8125C18.75 1.95063 18.0487 1.25 17.1875 1.25Z" fill="white"/>
<path d="M3.4375 20C3.26 20 3.09125 19.925 2.97312 19.7931C2.85188 19.6581 0 16.4625 0 14.0625C0 12.1675 1.54188 10.625 3.4375 10.625C5.33313 10.625 6.875 12.1675 6.875 14.0625C6.875 16.4625 4.02313 19.6581 3.90188 19.7931C3.78375 19.925 3.615 20 3.4375 20ZM3.4375 11.875C2.23125 11.875 1.25 12.8563 1.25 14.0625C1.25 15.3844 2.56687 17.3162 3.4375 18.405C4.30813 17.3162 5.625 15.3844 5.625 14.0625C5.625 12.8563 4.64375 11.875 3.4375 11.875Z" fill="white"/>
<path d="M13.75 7.5H12.1875C11.8425 7.5 11.5625 7.22062 11.5625 6.875C11.5625 6.52938 11.8425 6.25 12.1875 6.25H13.75C14.095 6.25 14.375 6.52938 14.375 6.875C14.375 7.22062 14.095 7.5 13.75 7.5Z" fill="white"/>
<path d="M14.3669 19.9998H11.0906C10.7456 19.9998 10.4656 19.7205 10.4656 19.3748C10.4656 19.0292 10.7456 18.7498 11.0906 18.7498H14.3669C14.7119 18.7498 14.9919 19.0292 14.9919 19.3748C14.9919 19.7205 14.7125 19.9998 14.3669 19.9998ZM16.9575 19.7561C16.7056 19.7561 16.4681 19.603 16.3731 19.353C16.2506 19.0305 16.4125 18.6692 16.735 18.5467C17.6019 18.2167 18.2738 17.5255 18.5775 16.6498C18.6906 16.3242 19.0469 16.1505 19.3731 16.2648C19.6987 16.378 19.8719 16.7342 19.7587 17.0598C19.3331 18.2855 18.3931 19.253 17.18 19.7148C17.1069 19.7436 17.0312 19.7561 16.9575 19.7561ZM19.1294 14.9123C18.8781 14.9123 18.6406 14.7592 18.5456 14.5098C18.215 13.643 17.5225 12.973 16.6463 12.6705C16.32 12.5573 16.1469 12.2017 16.2594 11.8761C16.3725 11.5498 16.7275 11.3767 17.0544 11.4892C18.2806 11.913 19.25 12.8517 19.7125 14.0648C19.8356 14.3873 19.6737 14.7486 19.3512 14.8717C19.2794 14.8998 19.2038 14.9123 19.1294 14.9123ZM14.2525 12.4998H11.25C11.135 12.4998 11.0213 12.4936 10.9094 12.4817C10.5662 12.4442 10.3188 12.1355 10.3556 11.7923C10.3931 11.4492 10.7025 11.2042 11.045 11.2386C11.1125 11.2461 11.1806 11.2498 11.25 11.2498H14.2525C14.5975 11.2498 14.8775 11.5292 14.8775 11.8748C14.8775 12.2205 14.5975 12.4998 14.2525 12.4998ZM8.96 11.0048C8.71938 11.0048 8.49 10.8648 8.38687 10.6305C8.21312 10.2336 8.125 9.8111 8.125 9.37485C8.125 8.42047 8.55313 7.53047 9.29875 6.9336C9.56875 6.71797 9.96125 6.76235 10.1775 7.03172C10.3931 7.3011 10.3488 7.69485 10.0794 7.90985C9.63188 8.26797 9.375 8.80172 9.375 9.37485C9.375 9.63735 9.4275 9.8911 9.5325 10.1292C9.67125 10.4455 9.52688 10.8142 9.21063 10.9523C9.12938 10.988 9.04438 11.0048 8.96 11.0048Z" fill="white"/>
<path d="M8.4375 20H6.875C6.53 20 6.25 19.7206 6.25 19.375C6.25 19.0294 6.53 18.75 6.875 18.75H8.4375C8.7825 18.75 9.0625 19.0294 9.0625 19.375C9.0625 19.7206 8.7825 20 8.4375 20Z" fill="white"/>
</g>
<defs>
<clipPath id="clip0_66_3710">
<rect width="20" height="20" fill="white"/>
</clipPath>
</defs>
</svg>
