<svg width="130" height="39" viewBox="0 0 130 39" fill="none" xmlns="http://www.w3.org/2000/svg">
<path d="M124.655 38.9219H4.79444C2.1575 38.9219 0 36.7644 0 34.1275V5.36085C0 2.7239 2.1575 0.566406 4.79444 0.566406H124.655C127.292 0.566406 129.45 2.7239 129.45 5.36085V34.1275C129.45 36.7644 127.292 38.9219 124.655 38.9219Z" fill="black"/>
<path d="M124.655 1.33352C125.724 1.33352 126.748 1.75782 127.503 2.51309C128.258 3.26837 128.683 4.29273 128.683 5.36085V34.1275C128.683 35.1956 128.258 36.22 127.503 36.9752C126.748 37.7305 125.724 38.1548 124.655 38.1548H4.79444C3.72633 38.1548 2.70196 37.7305 1.94669 36.9752C1.19142 36.22 0.767111 35.1956 0.767111 34.1275V5.36085C0.767111 4.29273 1.19142 3.26837 1.94669 2.51309C2.70196 1.75782 3.72633 1.33352 4.79444 1.33352H124.655ZM124.655 0.566406H4.79444C2.1575 0.566406 0 2.7239 0 5.36085V34.1275C0 36.7644 2.1575 38.9219 4.79444 38.9219H124.655C127.292 38.9219 129.45 36.7644 129.45 34.1275V5.36085C129.45 2.7239 127.292 0.566406 124.655 0.566406Z" fill="#A6A6A6"/>
<path d="M45.471 10.3856C45.471 11.191 45.2313 11.8335 44.7519 12.3033C44.2149 12.8691 43.5149 13.1568 42.6423 13.1568C41.8081 13.1568 41.0985 12.8691 40.5232 12.2938C39.9478 11.7184 39.6602 10.9993 39.6602 10.1554C39.6602 9.31162 39.9478 8.59245 40.5232 8.01712C41.0985 7.44179 41.8081 7.14453 42.6423 7.14453C43.0642 7.14453 43.4669 7.22124 43.8409 7.36508C44.2149 7.5185 44.5217 7.72945 44.7614 7.99794L44.2341 8.52533C44.0615 8.31437 43.8313 8.14178 43.5437 8.02671C43.2594 7.90304 42.9522 7.84095 42.6423 7.84452C42.019 7.84452 41.482 8.06506 41.0505 8.49656C40.619 8.93765 40.4081 9.48422 40.4081 10.1459C40.4081 10.8075 40.619 11.354 41.0505 11.7951C41.482 12.2266 42.0094 12.4472 42.6423 12.4472C43.2176 12.4472 43.6875 12.2842 44.071 11.9677C44.4546 11.6513 44.6751 11.2006 44.7327 10.6445H42.6423V9.95407H45.4327C45.4518 10.1075 45.471 10.2513 45.471 10.3856ZM49.8915 7.27878V7.98835H47.2737V9.81024H49.6326V10.5006H47.2737V12.3225H49.8915V13.0321H46.5354V7.27878H49.8915ZM53.0079 7.98835V13.0321H52.2695V7.98835H50.6586V7.27878H54.6092V7.98835H53.0079ZM58.2146 13.0321H57.4763V7.27878H58.2146V13.0321ZM61.494 7.98835V13.0321H60.7557V7.98835H59.1448V7.27878H63.0954V7.98835H61.494ZM71.4281 10.1554C71.4281 11.0089 71.1405 11.7184 70.5747 12.2938C69.9994 12.8691 69.2994 13.1568 68.4652 13.1568C67.6309 13.1568 66.9309 12.8691 66.3556 12.2938C65.7899 11.7184 65.5022 11.0089 65.5022 10.1554C65.5022 9.30203 65.7899 8.59245 66.3556 8.01712C66.9214 7.44179 67.6213 7.14453 68.4652 7.14453C69.2994 7.14453 69.9994 7.4322 70.5747 8.01712C71.15 8.60204 71.4281 9.31162 71.4281 10.1554ZM66.2693 10.1554C66.2693 10.8171 66.4803 11.3732 66.8926 11.8047C67.3145 12.2362 67.8419 12.4568 68.4652 12.4568C69.0884 12.4568 69.6158 12.2362 70.0282 11.8047C70.4501 11.3732 70.661 10.8267 70.661 10.1554C70.661 9.48422 70.4501 8.93765 70.0282 8.50615C69.6062 8.07465 69.0884 7.85411 68.4652 7.85411C67.8419 7.85411 67.3145 8.07465 66.8926 8.50615C66.4803 8.93765 66.2693 9.49381 66.2693 10.1554ZM73.2021 13.0321H72.4637V7.27878H73.3651L76.165 11.7568H76.1938L76.165 10.6445V7.27878H76.9034V13.0321H76.1363L73.2117 8.34314H73.1829L73.2117 9.45545V13.0321H73.2021Z" fill="white"/>
<path d="M65.3394 21.4228C63.086 21.4228 61.2449 23.1392 61.2449 25.4981C61.2449 27.8473 63.086 29.5733 65.3394 29.5733C67.5928 29.5733 69.4338 27.8473 69.4338 25.4981C69.4338 23.1392 67.5928 21.4228 65.3394 21.4228ZM65.3394 27.972C64.1024 27.972 63.0381 26.9556 63.0381 25.4981C63.0381 24.031 64.1024 23.0241 65.3394 23.0241C66.5764 23.0241 67.6407 24.031 67.6407 25.4981C67.6407 26.9556 66.5668 27.972 65.3394 27.972ZM56.4025 21.4228C54.1492 21.4228 52.3081 23.1392 52.3081 25.4981C52.3081 27.8473 54.1492 29.5733 56.4025 29.5733C58.6559 29.5733 60.497 27.8473 60.497 25.4981C60.497 23.1392 58.6559 21.4228 56.4025 21.4228ZM56.4025 27.972C55.1656 27.972 54.1012 26.9556 54.1012 25.4981C54.1012 24.031 55.1656 23.0241 56.4025 23.0241C57.6395 23.0241 58.7039 24.031 58.7039 25.4981C58.7039 26.9556 57.6395 27.972 56.4025 27.972ZM45.7781 22.6789V24.4049H49.9205C49.7958 25.3734 49.4698 26.0926 48.9808 26.5816C48.3767 27.1857 47.4369 27.8473 45.7877 27.8473C43.237 27.8473 41.2425 25.7953 41.2425 23.2447C41.2425 20.694 43.237 18.642 45.7877 18.642C47.1589 18.642 48.1657 19.179 48.904 19.879L50.1218 18.6612C49.0862 17.6735 47.715 16.916 45.7781 16.916C42.2877 16.916 39.3535 19.7543 39.3535 23.2543C39.3535 26.7446 42.2877 29.5925 45.7781 29.5925C47.6671 29.5925 49.0862 28.9788 50.1985 27.8186C51.3396 26.6775 51.6944 25.0666 51.6944 23.7721C51.6944 23.3693 51.6656 22.9954 51.5985 22.6885H45.7781V22.6789ZM89.2253 24.0214C88.8897 23.1104 87.8541 21.4228 85.7349 21.4228C83.635 21.4228 81.8898 23.0721 81.8898 25.4981C81.8898 27.7802 83.6158 29.5733 85.9363 29.5733C87.8061 29.5733 88.8897 28.4323 89.3308 27.7706L87.9404 26.8405C87.4801 27.5213 86.8473 27.972 85.9363 27.972C85.0254 27.972 84.3733 27.5597 83.961 26.735L89.4171 24.4816L89.2253 24.0214ZM83.6637 25.383C83.6158 23.8104 84.8815 23.005 85.7925 23.005C86.5021 23.005 87.1062 23.3597 87.3075 23.868L83.6637 25.383ZM79.2337 29.3336H81.0268V17.3475H79.2337V29.3336ZM76.2995 22.3337H76.2324C75.8296 21.8543 75.0625 21.4228 74.0844 21.4228C72.042 21.4228 70.1722 23.2159 70.1722 25.5172C70.1722 27.7994 72.042 29.5829 74.0844 29.5829C75.0529 29.5829 75.8296 29.1514 76.2324 28.6528H76.2899V29.2377C76.2899 30.8007 75.4557 31.635 74.1132 31.635C73.0201 31.635 72.3393 30.8487 72.0612 30.187L70.4982 30.8391C70.9489 31.9226 72.1379 33.2459 74.1132 33.2459C76.2132 33.2459 77.9871 32.0089 77.9871 28.998V21.6721H76.2899V22.3337H76.2995ZM74.2379 27.972C73.0009 27.972 71.9653 26.9364 71.9653 25.5172C71.9653 24.0789 73.0009 23.0337 74.2379 23.0337C75.4557 23.0337 76.4146 24.0885 76.4146 25.5172C76.4241 26.9364 75.4652 27.972 74.2379 27.972ZM97.6252 17.3475H93.3389V29.3336H95.132V24.7885H97.6347C99.6196 24.7885 101.566 23.3502 101.566 21.068C101.557 18.7858 99.6005 17.3475 97.6252 17.3475ZM97.6635 23.12H95.1225V19.0064H97.6635C99.006 19.0064 99.7635 20.1187 99.7635 21.0584C99.7635 21.9981 99.006 23.12 97.6635 23.12ZM108.729 21.4036C107.435 21.4036 106.092 21.9789 105.536 23.2351L107.128 23.8967C107.463 23.2351 108.096 23.0145 108.758 23.0145C109.678 23.0145 110.628 23.5707 110.637 24.5584V24.683C110.311 24.5008 109.621 24.2227 108.767 24.2227C107.051 24.2227 105.315 25.1625 105.315 26.9172C105.315 28.5186 106.715 29.5542 108.288 29.5542C109.487 29.5542 110.158 29.0172 110.57 28.3843H110.628V29.3049H112.354V24.7118C112.363 22.5926 110.772 21.4036 108.729 21.4036ZM108.509 27.972C107.924 27.972 107.109 27.6747 107.109 26.9556C107.109 26.035 108.125 25.6803 109.007 25.6803C109.793 25.6803 110.167 25.8529 110.637 26.083C110.571 26.602 110.318 27.0793 109.927 27.4266C109.536 27.7739 109.032 27.9677 108.509 27.972ZM118.654 21.6625L116.602 26.8597H116.544L114.415 21.6625H112.488L115.681 28.9309L113.859 32.9678H115.729L120.648 21.6625H118.654ZM102.544 29.3336H104.337V17.3475H102.544V29.3336Z" fill="white"/>
<path d="M19.8684 19.1875L9.65625 30.0229V30.0325C9.76675 30.443 9.97061 30.8224 10.2519 31.141C10.5332 31.4597 10.8844 31.7091 11.2779 31.8697C11.6715 32.0303 12.0969 32.0977 12.5208 32.0668C12.9448 32.0359 13.3558 31.9074 13.7219 31.6914L13.7507 31.6722L25.2382 25.0463L19.8684 19.1875Z" fill="#EA4335"/>
<path d="M30.196 17.3472L30.1864 17.3376L25.229 14.4609L19.6387 19.4376L25.2482 25.0471L30.1864 22.1992C30.6232 21.9627 30.9882 21.6128 31.2428 21.1864C31.4975 20.7599 31.6324 20.2727 31.6334 19.776C31.6343 19.2793 31.5014 18.7916 31.2484 18.3641C30.9954 17.9367 30.6319 17.5854 30.196 17.3472Z" fill="#FBBC04"/>
<path d="M9.65546 9.46484C9.59793 9.69498 9.55957 9.92511 9.55957 10.1744V29.3234C9.55957 29.5727 9.58834 29.8029 9.65546 30.033L20.2128 19.4756L9.65546 9.46484Z" fill="#4285F4"/>
<path d="M19.9451 19.7448L25.2286 14.4614L13.7507 7.80669C13.3838 7.58729 12.9711 7.45579 12.5449 7.42248C12.1186 7.38918 11.6905 7.45496 11.294 7.6147C10.8974 7.77443 10.5432 8.02377 10.2591 8.34321C9.97498 8.66265 9.76865 9.04351 9.65625 9.45598L19.9451 19.7448Z" fill="#34A853"/>
</svg>
