<svg width="131" height="39" viewBox="0 0 131 39" fill="none" xmlns="http://www.w3.org/2000/svg">
<path d="M130.13 34.2337C130.13 34.7222 130.034 35.206 129.847 35.6573C129.66 36.1086 129.386 36.5187 129.04 36.8639C128.694 37.2092 128.284 37.483 127.832 37.6696C127.38 37.8562 126.896 37.9519 126.408 37.9514H4.59048C3.60316 37.9524 2.65586 37.5614 1.9569 36.8642C1.25795 36.1671 0.864568 35.221 0.863281 34.2339V4.58758C0.864567 3.60008 1.25779 2.65344 1.95661 1.95553C2.65543 1.25762 3.60272 0.865491 4.59048 0.865234H126.407C126.896 0.865203 127.38 0.961467 127.832 1.14853C128.284 1.33559 128.694 1.60979 129.04 1.95546C129.385 2.30113 129.66 2.71149 129.847 3.16312C130.034 3.61474 130.13 4.09878 130.13 4.58758L130.13 34.2337Z" fill="white"/>
<path d="M126.409 38.8149H4.59132C3.375 38.8146 2.20847 38.332 1.3477 37.4728C0.486938 36.6137 0.00224943 35.4483 0 34.2323L0 4.58743C0.00173462 3.37084 0.486103 2.20461 1.34684 1.3446C2.20758 0.484588 3.3744 0.0010264 4.59132 0L126.408 0C127.625 0.00153853 128.791 0.485265 129.652 1.34517C130.512 2.20507 130.997 3.371 130.999 4.58743V34.2323C131.001 36.7601 128.938 38.8149 126.409 38.8149Z" fill="#A6A6A6"/>
<path d="M130.13 34.2337C130.13 34.7222 130.034 35.206 129.847 35.6573C129.66 36.1086 129.386 36.5187 129.04 36.8639C128.694 37.2092 128.284 37.483 127.832 37.6696C127.38 37.8562 126.896 37.9519 126.408 37.9514H4.59048C3.60316 37.9524 2.65586 37.5614 1.9569 36.8642C1.25795 36.1671 0.864568 35.221 0.863281 34.2339V4.58758C0.864567 3.60008 1.25779 2.65344 1.95661 1.95553C2.65543 1.25762 3.60272 0.865491 4.59048 0.865234H126.407C126.896 0.865203 127.38 0.961467 127.832 1.14853C128.284 1.33559 128.694 1.60979 129.04 1.95546C129.385 2.30113 129.66 2.71149 129.847 3.16312C130.034 3.61474 130.13 4.09878 130.13 4.58758L130.13 34.2337Z" fill="black"/>
<path d="M29.2514 19.2058C29.2233 16.0773 31.8137 14.5553 31.9321 14.4844C30.4651 12.3462 28.1913 12.0541 27.3922 12.0309C25.4825 11.8297 23.6301 13.1732 22.657 13.1732C21.6648 13.1732 20.1668 12.05 18.5524 12.0833C16.4746 12.1153 14.5307 13.3181 13.4647 15.1853C11.2646 18.9933 12.9055 24.5889 15.0132 27.6667C16.0677 29.1751 17.2996 30.8573 18.9124 30.7981C20.4902 30.734 21.0795 29.7935 22.9833 29.7935C24.8697 29.7935 25.4233 30.7978 27.0679 30.7602C28.7612 30.734 29.8271 29.246 30.8448 27.7249C32.0631 25.9981 32.5526 24.2959 32.5721 24.2083C32.5332 24.1947 29.2844 22.9543 29.2514 19.2058ZM26.1446 10.0059C26.9931 8.94507 27.5737 7.50164 27.4126 6.03711C26.1843 6.09145 24.6485 6.88618 23.764 7.924C22.9814 8.83833 22.2825 10.3371 22.463 11.7463C23.8426 11.8492 25.2591 11.0505 26.1446 10.0059Z" fill="white"/>
<path d="M126.408 0H61.1592L86.7161 38.8149H126.408C127.625 38.8139 128.791 38.3306 129.652 37.471C130.513 36.6115 130.997 35.4458 131 34.2296V4.58724C130.998 3.37075 130.513 2.20473 129.652 1.34481C128.792 0.4849 127.625 0.0012831 126.408 0Z" fill="url(#paint0_linear_224_564)"/>
<path d="M52.1033 30.5796H49.8983L48.6905 26.7855H44.4924L43.3418 30.5796H41.1953L45.3555 17.6625H47.9246L52.1033 30.5796ZM48.3266 25.1938L47.2342 21.8208C47.1187 21.4763 46.9011 20.6646 46.5828 19.3874H46.544C46.4157 19.9368 46.2109 20.7483 45.9302 21.8206L44.8565 25.1938H48.3266ZM62.7812 25.8081C62.7812 27.3922 62.3511 28.6442 61.4899 29.5634C60.719 30.3817 59.7607 30.7904 58.6179 30.7904C57.384 30.7904 56.4966 30.3506 55.9576 29.4693V34.3566H53.8878V24.327C53.8878 23.3319 53.8616 22.3118 53.8111 21.2655H55.6315L55.747 22.7419H55.7858C56.4762 21.6296 57.5238 21.0734 58.9298 21.0734C60.0288 21.0734 60.9463 21.5071 61.6801 22.3761C62.4132 23.2465 62.7812 24.3901 62.7812 25.8081ZM60.6724 25.8838C60.6724 24.9772 60.4686 24.2298 60.0586 23.6407C59.6113 23.0282 59.0101 22.7213 58.2569 22.7213C57.746 22.7213 57.2819 22.8923 56.8675 23.2291C56.452 23.5687 56.18 24.0126 56.0529 24.5619C55.9961 24.7673 55.9638 24.9788 55.9566 25.1919V26.7457C55.9566 27.4225 56.1645 27.9941 56.5801 28.4618C56.9956 28.9276 57.5354 29.1617 58.1994 29.1617C58.9791 29.1617 59.586 28.8599 60.02 28.2609C60.4548 27.66 60.6724 26.868 60.6724 25.8838ZM73.4971 25.8081C73.4971 27.3922 73.0669 28.6442 72.2057 29.5634C71.4338 30.3817 70.4765 30.7904 69.3327 30.7904C68.0989 30.7904 67.2115 30.3506 66.6724 29.4693V34.3566H64.6026V24.327C64.6026 23.3319 64.5764 22.3118 64.526 21.2655H66.3464L66.4619 22.7419H66.5007C67.1899 21.6296 68.2376 21.0734 69.6444 21.0734C70.7424 21.0734 71.6599 21.5071 72.3959 22.3761C73.1281 23.2465 73.4971 24.3901 73.4971 25.8081ZM71.3872 25.8838C71.3872 24.9772 71.1822 24.2298 70.7725 23.6407C70.3249 23.0282 69.7259 22.7213 68.9725 22.7213C68.4618 22.7213 67.9977 22.8923 67.5812 23.2291C67.1656 23.5687 66.8946 24.0126 66.7678 24.5619C66.7047 24.818 66.6707 25.0267 66.6707 25.1919V26.7457C66.6707 27.4225 66.8794 27.9941 67.293 28.4618C67.7086 28.9268 68.2483 29.1617 68.9142 29.1617C69.6949 29.1617 70.3019 28.8599 70.7347 28.2609C71.1696 27.66 71.3872 26.868 71.3872 25.8838ZM85.4778 26.9565C85.4778 28.0562 85.0932 28.9501 84.3293 29.6403C83.4885 30.3933 82.3146 30.7708 80.8098 30.7708C79.4195 30.7708 78.3048 30.5032 77.4639 29.9664L77.9426 28.2415C78.8504 28.7793 79.8477 29.0469 80.933 29.0469C81.7137 29.0469 82.3207 28.8706 82.7534 28.52C83.1877 28.1687 83.407 27.6988 83.407 27.1127C83.407 26.5875 83.2253 26.1479 82.8689 25.7896C82.5108 25.4325 81.9184 25.0995 81.0863 24.7938C78.8242 23.9503 77.6922 22.7167 77.6922 21.0938C77.6922 20.0336 78.0923 19.1661 78.8904 18.4876C79.6885 17.81 80.7467 17.4711 82.0633 17.4711C83.2389 17.4711 84.2185 17.6761 84.9962 18.0849L84.4768 19.7716C83.7447 19.3757 82.9184 19.1778 81.9941 19.1778C81.2639 19.1778 80.6914 19.3573 80.2814 19.7144C79.9369 20.0339 79.7623 20.423 79.7623 20.8851C79.7623 21.3946 79.9612 21.8179 80.3573 22.1498C80.7011 22.4554 81.3282 22.7885 82.235 23.1456C83.3475 23.5942 84.1651 24.1162 84.6884 24.7162C85.2158 25.3161 85.4778 26.0645 85.4778 26.9565ZM92.339 22.8186H90.0574V27.3408C90.0574 28.4909 90.4594 29.0646 91.2653 29.0646C91.6353 29.0646 91.9421 29.0336 92.1847 28.9686L92.242 30.5401C91.8344 30.6924 91.2973 30.7691 90.6324 30.7691C89.8148 30.7691 89.1758 30.5197 88.7147 30.0207C88.2554 29.5217 88.0245 28.6862 88.0245 27.5099V22.8145H86.6652V21.2616H88.0245V19.5562L90.0574 18.9427V21.2619H92.339V22.8186ZM102.613 25.8462C102.613 27.2775 102.203 28.4531 101.386 29.3722C100.531 30.3186 99.3927 30.7904 97.9742 30.7904C96.6053 30.7904 95.5167 30.337 94.7053 29.4314C93.8936 28.5241 93.4877 27.3806 93.4877 26.0012C93.4877 24.5577 93.9071 23.3756 94.7431 22.4564C95.581 21.5362 96.7091 21.076 98.1275 21.076C99.4945 21.076 100.593 21.5304 101.424 22.437C102.218 23.3164 102.613 24.4525 102.613 25.8462ZM100.468 25.8935C100.468 25.0403 100.283 24.3086 99.913 23.6961C99.479 22.9564 98.8577 22.5867 98.0528 22.5867C97.2236 22.5867 96.5875 22.9564 96.1548 23.6961C95.7838 24.3086 95.5992 25.0529 95.5992 25.9323C95.5992 26.7864 95.7838 27.5203 96.1548 28.1309C96.6023 28.8706 97.2265 29.2403 98.0353 29.2403C98.8267 29.2403 99.4472 28.8628 99.8955 28.1122C100.276 27.4854 100.468 26.7488 100.468 25.8935ZM109.344 23.0854C109.129 23.0466 108.911 23.0274 108.692 23.0282C107.964 23.0282 107.401 23.3018 107.004 23.8533C106.661 24.3384 106.488 24.9522 106.488 25.6926V30.5799H104.418V24.1987C104.42 23.221 104.4 22.2433 104.358 21.2665H106.161L106.236 23.0486H106.294C106.513 22.436 106.857 21.9421 107.329 21.5721C107.761 21.2491 108.285 21.0741 108.825 21.0734C109.016 21.0734 109.189 21.087 109.342 21.1112L109.344 23.0854ZM118.602 25.482C118.607 25.7966 118.582 26.1109 118.526 26.4206H112.316C112.34 27.3408 112.641 28.0455 113.217 28.5307C113.741 28.9637 114.417 29.1811 115.248 29.1811C116.168 29.1811 117.007 29.0355 117.761 28.7415L118.085 30.1769C117.204 30.5614 116.163 30.7526 114.962 30.7526C113.517 30.7526 112.383 30.3273 111.558 29.479C110.735 28.6299 110.322 27.4883 110.322 26.0584C110.322 24.655 110.705 23.4855 111.474 22.5527C112.277 21.5566 113.364 21.0588 114.731 21.0588C116.074 21.0588 117.09 21.5566 117.78 22.5527C118.327 23.3416 118.602 24.3202 118.602 25.482H118.602ZM116.628 24.9452C116.642 24.3309 116.507 23.8018 116.226 23.3542C115.868 22.7778 115.316 22.4906 114.578 22.4906C113.901 22.4906 113.349 22.771 112.93 23.3339C112.585 23.7814 112.38 24.3193 112.317 24.9432L116.628 24.9452ZM43.8954 13.0957C43.3195 13.0957 42.8214 13.0676 42.4068 13.02V6.77495C42.9867 6.68542 43.5726 6.64129 44.1593 6.64298C46.5333 6.64298 47.6265 7.81058 47.6265 9.71396C47.6265 11.9094 46.3351 13.0957 43.8954 13.0957ZM44.2428 7.44354C43.9225 7.44354 43.6496 7.46294 43.4235 7.50976V12.2571C43.5458 12.2765 43.7806 12.2852 44.1108 12.2852C45.6663 12.2852 46.5518 11.3997 46.5518 9.7421C46.5518 8.26374 45.7507 7.44354 44.2428 7.44354ZM51.0334 13.1433C49.6955 13.1433 48.8283 12.1445 48.8283 10.7884C48.8283 9.3753 49.7137 8.36757 51.1091 8.36757C52.4276 8.36757 53.314 9.31902 53.314 10.7137C53.314 12.1445 52.4004 13.1433 51.0334 13.1433ZM51.0722 9.11136C50.3372 9.11136 49.8663 9.79839 49.8663 10.7593C49.8663 11.7018 50.3469 12.389 51.0623 12.389C51.7777 12.389 52.2585 11.6542 52.2585 10.7399C52.2585 9.80833 51.7879 9.11136 51.0722 9.11136ZM60.9434 8.46194L59.5111 13.0394H58.5781L57.9849 11.0516C57.8374 10.5654 57.7146 10.0719 57.6169 9.57326H57.5975C57.5228 10.072 57.3811 10.572 57.2305 11.0516L56.5995 13.0394H55.6568L54.3092 8.4617H55.3547L55.8732 10.638C55.9957 11.1564 56.0985 11.6455 56.1839 12.1076H56.2033C56.278 11.7221 56.4003 11.2408 56.5801 10.6477L57.2305 8.46291H58.0597L58.6821 10.6011C58.8264 11.0981 58.9492 11.601 59.0499 12.1086H59.0771C59.1433 11.638 59.2469 11.138 59.3878 10.6011L59.9441 8.46291L60.9434 8.46194ZM66.2151 13.0394H65.1977V10.4109C65.1977 9.6014 64.8872 9.19554 64.2744 9.19554C63.6716 9.19554 63.257 9.71396 63.257 10.3168V13.0394H62.2393V9.77C62.2393 9.36536 62.2296 8.93136 62.2014 8.46073H63.0966L63.1442 9.16716H63.1725C63.4462 8.67809 64.0015 8.36733 64.624 8.36733C65.5851 8.36733 66.2161 9.10239 66.2161 10.2981L66.2151 13.0394ZM69.0212 13.0394H68.0026V6.36133H69.0212V13.0394ZM72.731 13.1433C71.394 13.1433 70.5258 12.1445 70.5258 10.7884C70.5258 9.3753 71.4112 8.36757 72.8057 8.36757C74.1251 8.36757 75.0106 9.31902 75.0106 10.7137C75.0116 12.1445 74.097 13.1433 72.731 13.1433ZM72.7688 9.11136C72.0337 9.11136 71.5631 9.79839 71.5631 10.7593C71.5631 11.7018 72.0444 12.389 72.7581 12.389C73.4745 12.389 73.9541 11.6542 73.9541 10.7399C73.9553 9.80833 73.4852 9.11136 72.7688 9.11136ZM79.0224 13.0394L78.9486 12.5123H78.9214C78.6107 12.9366 78.1573 13.143 77.5823 13.143C76.7621 13.143 76.1794 12.5686 76.1794 11.7959C76.1794 10.6661 77.1592 10.0817 78.8552 10.0817V9.99731C78.8552 9.39471 78.536 9.09268 77.9047 9.09268C77.4535 9.09268 77.0571 9.20622 76.7087 9.43231L76.5018 8.76373C76.9251 8.49979 77.4533 8.36757 78.0738 8.36757C79.2698 8.36757 79.8739 8.99856 79.8739 10.2615V11.9475C79.8739 12.4094 79.8942 12.7675 79.9398 13.0404L79.0224 13.0394ZM78.8824 10.7593C77.7524 10.7593 77.1854 11.0332 77.1854 11.6824C77.1854 12.1627 77.4775 12.3978 77.8834 12.3978C78.4008 12.3978 78.8824 12.0028 78.8824 11.466V10.7593ZM84.8148 13.0394L84.7672 12.3044H84.7391C84.4467 12.8599 83.9555 13.1433 83.2689 13.1433C82.1651 13.1433 81.3476 12.1726 81.3476 10.8071C81.3476 9.3753 82.1952 8.3666 83.3524 8.3666C83.9652 8.3666 84.3992 8.57353 84.6437 8.98885H84.6641V6.36157H85.6828V11.8054C85.6828 12.2481 85.6934 12.6624 85.7206 13.0392L84.8148 13.0394ZM84.6643 10.3459C84.6643 9.70523 84.2398 9.15867 83.5923 9.15867C82.8379 9.15867 82.3769 9.8275 82.3769 10.769C82.3769 11.6921 82.8553 12.324 83.5719 12.324C84.2117 12.324 84.6641 11.7678 84.6641 11.1086L84.6643 10.3459ZM92.1401 13.143C90.8032 13.143 89.9361 12.1445 89.9361 10.7884C89.9361 9.3753 90.8216 8.36757 92.2158 8.36757C93.5355 8.36757 94.4209 9.31902 94.4209 10.7137C94.4217 12.1445 93.5081 13.143 92.1401 13.143ZM92.1779 9.11112C91.4438 9.11112 90.973 9.79839 90.973 10.7593C90.973 11.7018 91.4535 12.389 92.1682 12.389C92.8848 12.389 93.3642 11.6542 93.3642 10.7399C93.3664 9.80833 92.8955 9.11112 92.1779 9.11112ZM99.8926 13.0394H98.8742V10.4109C98.8742 9.6014 98.5637 9.19554 97.9509 9.19554C97.3481 9.19554 96.9345 9.71396 96.9345 10.3168V13.0394H95.9158V9.77C95.9158 9.36536 95.9061 8.93136 95.878 8.46073H96.7731L96.8207 9.16716H96.8488C97.1217 8.67809 97.678 8.3666 98.2995 8.3666C99.2607 8.3666 99.8926 9.10117 99.8926 10.2972V13.0394ZM106.739 9.22465H105.619V11.4475C105.619 12.0135 105.815 12.2959 106.211 12.2959C106.391 12.2959 106.541 12.2765 106.663 12.2483L106.691 13.021C106.494 13.0967 106.23 13.1345 105.902 13.1345C105.1 13.1345 104.62 12.6918 104.62 11.5329V9.22465H103.952V8.46194H104.62V7.62305L105.619 7.32103V8.46073H106.738L106.739 9.22465ZM112.125 13.0394H111.108V10.4303C111.108 9.6111 110.799 9.19651 110.185 9.19651C109.658 9.19651 109.167 9.55482 109.167 10.2799V13.0394H108.15V6.36133H109.167V9.11112H109.187C109.507 8.61235 109.972 8.3666 110.564 8.3666C111.533 8.3666 112.125 9.11985 112.125 10.3168V13.0394ZM117.644 10.9951H114.59C114.61 11.8619 115.183 12.3512 116.033 12.3512C116.484 12.3512 116.9 12.2755 117.267 12.1348L117.425 12.8415C116.992 13.0297 116.482 13.1239 115.889 13.1239C114.457 13.1239 113.61 12.219 113.61 10.8168C113.61 9.41315 114.478 8.35787 115.775 8.35787C116.945 8.35787 117.679 9.22465 117.679 10.5339C117.685 10.6885 117.673 10.8433 117.644 10.9951ZM116.711 10.2702C116.711 9.56356 116.354 9.06454 115.704 9.06454C115.119 9.06454 114.657 9.57326 114.591 10.2702H116.711Z" fill="white"/>
<defs>
<linearGradient id="paint0_linear_224_564" x1="96.0783" y1="38.9179" x2="96.0783" y2="-101.067" gradientUnits="userSpaceOnUse">
<stop stop-color="#1A1A1A" stop-opacity="0.1"/>
<stop offset="0.123" stop-color="#212121" stop-opacity="0.151"/>
<stop offset="0.308" stop-color="#353535" stop-opacity="0.227"/>
<stop offset="0.532" stop-color="#575757" stop-opacity="0.318"/>
<stop offset="0.783" stop-color="#858585" stop-opacity="0.421"/>
<stop offset="1" stop-color="#B3B3B3" stop-opacity="0.51"/>
</linearGradient>
</defs>
</svg>
