<svg width="125" height="25" viewBox="0 0 125 25" fill="none" xmlns="http://www.w3.org/2000/svg">
<path d="M0 0.628906H23.4375V24.0831H0V0.628906ZM25.3906 0.628906H48.8281V24.0831H25.3906V0.628906ZM50.7812 0.628906H74.2188V24.0831H50.7812V0.628906ZM76.1719 0.628906H99.6094V24.0831H76.1719V0.628906ZM101.562 0.628906H125V24.0831H101.562V0.628906Z" fill="#00B67A"/>
<path d="M11.7187 16.4352L15.2832 15.5312L16.7725 20.1243L11.7187 16.4352ZM19.9219 10.4983H13.6475L11.7187 4.58594L9.79004 10.4983H3.51562L8.59375 14.1631L6.66504 20.0755L11.7432 16.4107L14.8682 14.1631L19.9219 10.4983ZM37.1094 16.4352L40.6738 15.5312L42.1631 20.1243L37.1094 16.4352ZM45.3125 10.4983H39.0381L37.1094 4.58594L35.1807 10.4983H28.9062L33.9844 14.1631L32.0557 20.0755L37.1338 16.4107L40.2588 14.1631L45.3125 10.4983ZM62.5 16.4352L66.0645 15.5312L67.5537 20.1243L62.5 16.4352ZM70.7031 10.4983H64.4287L62.5 4.58594L60.5713 10.4983H54.2969L59.375 14.1631L57.4463 20.0755L62.5244 16.4107L65.6494 14.1631L70.7031 10.4983ZM87.8906 16.4352L91.4551 15.5312L92.9443 20.1243L87.8906 16.4352ZM96.0938 10.4983H89.8193L87.8906 4.58594L85.9619 10.4983H79.6875L84.7656 14.1631L82.8369 20.0755L87.915 16.4107L91.04 14.1631L96.0938 10.4983ZM113.281 16.4352L116.846 15.5312L118.335 20.1243L113.281 16.4352ZM121.484 10.4983H115.21L113.281 4.58594L111.353 10.4983H105.078L110.156 14.1631L108.228 20.0755L113.306 16.4107L116.431 14.1631L121.484 10.4983Z" fill="white"/>
</svg>
