<svg width="89" height="20" viewBox="0 0 89 20" fill="none" xmlns="http://www.w3.org/2000/svg">
<path d="M21.6178 4.92773H30.8651V6.64922H27.224V16.3536H25.2283V6.64922H21.6025L21.6178 4.92773ZM30.469 8.08126H32.1752V9.68087H32.2057C32.2666 9.45236 32.3733 9.23908 32.5256 9.02579C32.678 8.81251 32.8608 8.61446 33.0893 8.44688C33.3026 8.26407 33.5463 8.12696 33.8205 8.02032C34.0795 7.91368 34.3538 7.85274 34.628 7.85274C34.8413 7.85274 34.9936 7.86798 35.0698 7.86798C35.1459 7.88321 35.2374 7.89845 35.3135 7.89845V9.65041C35.1916 9.61994 35.0545 9.6047 34.9174 9.58947C34.7803 9.57423 34.6584 9.559 34.5213 9.559C34.2166 9.559 33.9272 9.61993 33.653 9.74181C33.3788 9.86369 33.1502 10.0465 32.937 10.275C32.7389 10.5188 32.5713 10.8082 32.4495 11.1586C32.3276 11.509 32.2666 11.9203 32.2666 12.3774V16.3078H30.4385L30.469 8.08126ZM43.6925 16.3536H41.8948V15.1957H41.8643C41.6358 15.6223 41.3007 15.9422 40.8589 16.2012C40.4171 16.4602 39.96 16.5821 39.503 16.5821C38.4213 16.5821 37.6292 16.3231 37.1417 15.7746C36.6542 15.2414 36.4104 14.4188 36.4104 13.3371V8.08126H38.2385V13.1543C38.2385 13.8856 38.3756 14.4035 38.6651 14.693C38.9393 14.9977 39.3354 15.15 39.8381 15.15C40.219 15.15 40.5389 15.0891 40.7979 14.9672C41.0569 14.8453 41.2702 14.693 41.4225 14.495C41.5901 14.2969 41.6967 14.0532 41.7729 13.7789C41.8491 13.5047 41.8796 13.2 41.8796 12.8801V8.08126H43.7077V16.3536H43.6925ZM46.8003 13.7028C46.8612 14.236 47.0593 14.6016 47.4097 14.8301C47.76 15.0434 48.1866 15.15 48.6741 15.15C48.8417 15.15 49.0397 15.1348 49.253 15.1043C49.4663 15.0739 49.6796 15.0282 49.8624 14.952C50.0604 14.8758 50.2128 14.7692 50.3347 14.6168C50.4565 14.4645 50.5175 14.2817 50.5022 14.0532C50.487 13.8246 50.4108 13.6266 50.2433 13.4742C50.0757 13.3219 49.8776 13.2153 49.6339 13.1086C49.3901 13.0172 49.1007 12.941 48.7808 12.8801C48.4608 12.8192 48.1409 12.743 47.8058 12.6668C47.4706 12.5907 47.1354 12.4992 46.8155 12.3926C46.4956 12.286 46.2214 12.1488 45.9624 11.9508C45.7186 11.768 45.5054 11.5395 45.3682 11.25C45.2159 10.9606 45.1397 10.6254 45.1397 10.1988C45.1397 9.74181 45.2464 9.37618 45.4749 9.0715C45.6882 8.76681 45.9776 8.52306 46.3128 8.34025C46.6479 8.15743 47.0288 8.02032 47.4401 7.94415C47.8515 7.86798 48.2476 7.83751 48.6132 7.83751C49.0397 7.83751 49.4511 7.88321 49.8319 7.97462C50.2128 8.06603 50.5784 8.20314 50.8831 8.41642C51.203 8.61447 51.462 8.88868 51.6601 9.20861C51.8733 9.52853 51.9952 9.92462 52.0562 10.3817H50.1519C50.0604 9.93986 49.8624 9.65041 49.5577 9.49806C49.2378 9.34572 48.8874 9.26955 48.4761 9.26955C48.3542 9.26955 48.1866 9.28478 48.019 9.30001C47.8362 9.33048 47.6839 9.36095 47.5163 9.42189C47.364 9.48283 47.2268 9.57423 47.1202 9.68087C47.0136 9.78751 46.9526 9.93986 46.9526 10.1227C46.9526 10.3512 47.0288 10.5188 47.1811 10.6559C47.3335 10.793 47.5315 10.8996 47.7905 11.0063C48.0343 11.0977 48.3237 11.1738 48.6436 11.2348C48.9636 11.2957 49.2987 11.3719 49.6339 11.4481C49.969 11.5242 50.289 11.6156 50.6089 11.7223C50.9288 11.8289 51.2183 11.966 51.462 12.1641C51.7058 12.3469 51.919 12.5754 52.0714 12.8496C52.2237 13.1239 52.2999 13.4742 52.2999 13.8703C52.2999 14.3578 52.1933 14.7692 51.9648 15.1196C51.7362 15.4547 51.4468 15.7442 51.0964 15.9575C50.746 16.1707 50.3347 16.3231 49.9081 16.4297C49.4663 16.5211 49.0397 16.5821 48.6132 16.5821C48.0952 16.5821 47.6077 16.5211 47.1659 16.3993C46.7241 16.2774 46.328 16.0946 46.0081 15.8661C45.6882 15.6223 45.4292 15.3328 45.2464 14.9672C45.0636 14.6168 44.9569 14.1903 44.9417 13.6875H46.785V13.7028H46.8003ZM52.8179 8.08126H54.2042V5.58281H56.0323V8.06602H57.6777V9.42189H56.0323V13.8399C56.0323 14.0379 56.0476 14.1903 56.0628 14.3426C56.078 14.4797 56.1237 14.6016 56.1695 14.693C56.2304 14.7844 56.3218 14.8606 56.4284 14.9063C56.5503 14.952 56.7027 14.9825 56.9159 14.9825C57.0378 14.9825 57.1749 14.9825 57.2968 14.9672C57.4187 14.952 57.5558 14.9368 57.6777 14.9063V16.3231C57.4796 16.3536 57.2816 16.3688 57.0835 16.384C56.8855 16.4145 56.7027 16.4145 56.4894 16.4145C56.0019 16.4145 55.621 16.3688 55.3316 16.2774C55.0421 16.186 54.8136 16.0489 54.646 15.8813C54.4784 15.6985 54.3718 15.4852 54.3109 15.2262C54.2499 14.9672 54.2194 14.6473 54.2042 14.3121V9.43712H52.8179V8.05079V8.08126ZM58.9574 8.08126H60.6788V9.20861H60.7093C60.9683 8.7211 61.3187 8.38595 61.7757 8.17267C62.2328 7.95938 62.7203 7.85274 63.2687 7.85274C63.9238 7.85274 64.4874 7.95939 64.9749 8.20314C65.4625 8.43165 65.8586 8.73634 66.1785 9.14767C66.4984 9.54376 66.7421 10.016 66.8945 10.5492C67.0468 11.0824 67.1382 11.6613 67.1382 12.2555C67.1382 12.8192 67.0621 13.3524 66.925 13.8703C66.7726 14.3883 66.5593 14.8606 66.2699 15.2567C65.9804 15.6528 65.6148 15.9727 65.1578 16.2164C64.7007 16.4602 64.1828 16.5821 63.5734 16.5821C63.3144 16.5821 63.0402 16.5516 62.7812 16.5059C62.5222 16.4602 62.2632 16.384 62.0195 16.2774C61.7757 16.1707 61.5472 16.0336 61.3492 15.8661C61.1359 15.6985 60.9683 15.5004 60.8312 15.2871H60.8007V19.4157H58.9726V8.08126H58.9574ZM65.3406 12.225C65.3406 11.8594 65.2949 11.4938 65.1882 11.1434C65.0968 10.793 64.9445 10.4883 64.7464 10.2141C64.5484 9.93986 64.3046 9.72658 64.0304 9.559C63.741 9.39142 63.4058 9.31525 63.0402 9.31525C62.2785 9.31525 61.6996 9.57423 61.3035 10.1074C60.9226 10.6406 60.7245 11.3567 60.7245 12.2403C60.7245 12.6668 60.7702 13.0477 60.8769 13.3981C60.9835 13.7485 61.1206 14.0532 61.3339 14.3121C61.532 14.5711 61.7757 14.7692 62.0652 14.9215C62.3546 15.0739 62.6746 15.15 63.0554 15.15C63.482 15.15 63.8171 15.0586 64.1066 14.891C64.396 14.7235 64.6246 14.495 64.8226 14.236C65.0054 13.9617 65.1425 13.6571 65.2187 13.3067C65.2949 12.941 65.3406 12.5907 65.3406 12.225ZM68.555 4.92773H70.3832V6.64922H68.555V4.92773ZM68.555 8.08126H70.3832V16.3536H68.555V8.08126ZM72.0133 4.92773H73.8414V16.3536H72.0133V4.92773ZM79.4172 16.5821C78.7621 16.5821 78.168 16.4754 77.65 16.2469C77.132 16.0184 76.7055 15.7289 76.3398 15.3481C75.9894 14.9672 75.7152 14.495 75.5324 13.9617C75.3496 13.4285 75.243 12.8344 75.243 12.2098C75.243 11.5852 75.3344 11.0063 75.5324 10.4731C75.7152 9.93986 75.9894 9.48283 76.3398 9.08673C76.6902 8.70587 77.132 8.40118 77.65 8.1879C78.168 7.97462 78.7621 7.85274 79.4172 7.85274C80.0723 7.85274 80.6664 7.95938 81.1844 8.1879C81.7024 8.40118 82.1289 8.70587 82.4945 9.08673C82.8449 9.46759 83.1192 9.93986 83.302 10.4731C83.4848 11.0063 83.5914 11.5852 83.5914 12.2098C83.5914 12.8496 83.5 13.4285 83.302 13.9617C83.1039 14.495 82.8449 14.952 82.4945 15.3481C82.1441 15.7289 81.7024 16.0336 81.1844 16.2469C80.6664 16.4602 80.0875 16.5821 79.4172 16.5821ZM79.4172 15.1348C79.8133 15.1348 80.1789 15.0434 80.4684 14.8758C80.7731 14.7082 81.0016 14.4797 81.1996 14.2055C81.3977 13.9313 81.5348 13.6114 81.6262 13.2762C81.7176 12.9258 81.7633 12.5754 81.7633 12.2098C81.7633 11.8594 81.7176 11.509 81.6262 11.1586C81.5348 10.8082 81.3977 10.5035 81.1996 10.2293C81.0016 9.95509 80.7578 9.74181 80.4684 9.57423C80.1637 9.40666 79.8133 9.31525 79.4172 9.31525C79.0211 9.31525 78.6555 9.40666 78.366 9.57423C78.0613 9.74181 77.8328 9.97033 77.6348 10.2293C77.4367 10.5035 77.2996 10.8082 77.2082 11.1586C77.1168 11.509 77.0711 11.8594 77.0711 12.2098C77.0711 12.5754 77.1168 12.9258 77.2082 13.2762C77.2996 13.6266 77.4367 13.9313 77.6348 14.2055C77.8328 14.4797 78.0766 14.7082 78.366 14.8758C78.6707 15.0586 79.0211 15.1348 79.4172 15.1348ZM84.1399 8.08126H85.5262V5.58281H87.3543V8.06602H88.9996V9.42189H87.3543V13.8399C87.3543 14.0379 87.3696 14.1903 87.3848 14.3426C87.4 14.4797 87.4457 14.6016 87.4914 14.693C87.5524 14.7844 87.6438 14.8606 87.7504 14.9063C87.8723 14.952 88.0246 14.9825 88.2379 14.9825C88.3598 14.9825 88.4969 14.9825 88.6188 14.9672C88.7407 14.952 88.8778 14.9368 88.9996 14.9063V16.3231C88.8016 16.3536 88.6035 16.3688 88.4055 16.384C88.2075 16.4145 88.0246 16.4145 87.8114 16.4145C87.3239 16.4145 86.943 16.3688 86.6535 16.2774C86.3641 16.186 86.1356 16.0489 85.968 15.8813C85.8004 15.6985 85.6938 15.4852 85.6328 15.2262C85.5719 14.9672 85.5414 14.6473 85.5262 14.3121V9.43712H84.1399V8.05079V8.08126Z" fill="black"/>
<path d="M19.4864 7.88327H12.0417L9.75 0.804688L7.44472 7.88327L0 7.86971L6.02086 12.2497L3.71558 19.3283L9.73644 14.9483L15.7573 19.3283L13.4656 12.2497L19.4864 7.88327Z" fill="#00B67A"/>
<path d="M12.5418 14.1128L12.0575 12.4805L8.56543 15.2334L12.5418 14.1128Z" fill="#005128"/>
</svg>
