<svg width="89" height="20" viewBox="0 0 89 20" fill="none" xmlns="http://www.w3.org/2000/svg">
<path d="M21.6178 4.92969H30.8651V6.65118H27.224V16.3555H25.2283V6.65118H21.6025L21.6178 4.92969ZM30.469 8.08321H32.1752V9.68283H32.2057C32.2666 9.45431 32.3733 9.24103 32.5256 9.02775C32.678 8.81447 32.8608 8.61642 33.0893 8.44884C33.3026 8.26602 33.5463 8.12892 33.8205 8.02227C34.0795 7.91563 34.3538 7.8547 34.628 7.8547C34.8413 7.8547 34.9936 7.86993 35.0698 7.86993C35.1459 7.88516 35.2374 7.9004 35.3135 7.9004V9.65236C35.1916 9.62189 35.0545 9.60665 34.9174 9.59142C34.7803 9.57618 34.6584 9.56095 34.5213 9.56095C34.2166 9.56095 33.9272 9.62189 33.653 9.74376C33.3788 9.86564 33.1502 10.0485 32.937 10.277C32.7389 10.5207 32.5713 10.8102 32.4495 11.1606C32.3276 11.511 32.2666 11.9223 32.2666 12.3793V16.3098H30.4385L30.469 8.08321ZM43.6925 16.3555H41.8948V15.1977H41.8643C41.6358 15.6243 41.3007 15.9442 40.8589 16.2032C40.4171 16.4621 39.96 16.584 39.503 16.584C38.4213 16.584 37.6292 16.325 37.1417 15.7766C36.6542 15.2434 36.4104 14.4207 36.4104 13.3391V8.08321H38.2385V13.1563C38.2385 13.8875 38.3756 14.4055 38.6651 14.695C38.9393 14.9996 39.3354 15.152 39.8381 15.152C40.219 15.152 40.5389 15.0911 40.7979 14.9692C41.0569 14.8473 41.2702 14.695 41.4225 14.4969C41.5901 14.2989 41.6967 14.0551 41.7729 13.7809C41.8491 13.5067 41.8796 13.202 41.8796 12.8821V8.08321H43.7077V16.3555H43.6925ZM46.8003 13.7047C46.8612 14.2379 47.0593 14.6035 47.4097 14.8321C47.76 15.0453 48.1866 15.152 48.6741 15.152C48.8417 15.152 49.0397 15.1368 49.253 15.1063C49.4663 15.0758 49.6796 15.0301 49.8624 14.9539C50.0604 14.8778 50.2128 14.7711 50.3347 14.6188C50.4565 14.4664 50.5175 14.2836 50.5022 14.0551C50.487 13.8266 50.4108 13.6285 50.2433 13.4762C50.0757 13.3239 49.8776 13.2172 49.6339 13.1106C49.3901 13.0192 49.1007 12.943 48.7808 12.8821C48.4608 12.8211 48.1409 12.7449 47.8058 12.6688C47.4706 12.5926 47.1354 12.5012 46.8155 12.3946C46.4956 12.2879 46.2214 12.1508 45.9624 11.9528C45.7186 11.7699 45.5054 11.5414 45.3682 11.252C45.2159 10.9625 45.1397 10.6274 45.1397 10.2008C45.1397 9.74376 45.2464 9.37814 45.4749 9.07345C45.6882 8.76876 45.9776 8.52501 46.3128 8.3422C46.6479 8.15939 47.0288 8.02227 47.4401 7.9461C47.8515 7.86993 48.2476 7.83946 48.6132 7.83946C49.0397 7.83946 49.4511 7.88517 49.8319 7.97657C50.2128 8.06798 50.5784 8.20509 50.8831 8.41837C51.203 8.61642 51.462 8.89064 51.6601 9.21056C51.8733 9.53048 51.9952 9.92658 52.0562 10.3836H50.1519C50.0604 9.94181 49.8624 9.65236 49.5577 9.50002C49.2378 9.34767 48.8874 9.2715 48.4761 9.2715C48.3542 9.2715 48.1866 9.28673 48.019 9.30197C47.8362 9.33243 47.6839 9.36291 47.5163 9.42384C47.364 9.48478 47.2268 9.57619 47.1202 9.68283C47.0136 9.78947 46.9526 9.94181 46.9526 10.1246C46.9526 10.3531 47.0288 10.5207 47.1811 10.6578C47.3335 10.7949 47.5315 10.9016 47.7905 11.0082C48.0343 11.0996 48.3237 11.1758 48.6436 11.2367C48.9636 11.2977 49.2987 11.3738 49.6339 11.45C49.969 11.5262 50.289 11.6176 50.6089 11.7242C50.9288 11.8309 51.2183 11.968 51.462 12.166C51.7058 12.3489 51.919 12.5774 52.0714 12.8516C52.2237 13.1258 52.2999 13.4762 52.2999 13.8723C52.2999 14.3598 52.1933 14.7711 51.9648 15.1215C51.7362 15.4567 51.4468 15.7461 51.0964 15.9594C50.746 16.1727 50.3347 16.325 49.9081 16.4317C49.4663 16.5231 49.0397 16.584 48.6132 16.584C48.0952 16.584 47.6077 16.5231 47.1659 16.4012C46.7241 16.2793 46.328 16.0965 46.0081 15.868C45.6882 15.6243 45.4292 15.3348 45.2464 14.9692C45.0636 14.6188 44.9569 14.1922 44.9417 13.6895H46.785V13.7047H46.8003ZM52.8179 8.08321H54.2042V5.58477H56.0323V8.06798H57.6777V9.42384H56.0323V13.8418C56.0323 14.0399 56.0476 14.1922 56.0628 14.3446C56.078 14.4817 56.1237 14.6035 56.1695 14.695C56.2304 14.7864 56.3218 14.8625 56.4284 14.9082C56.5503 14.9539 56.7027 14.9844 56.9159 14.9844C57.0378 14.9844 57.1749 14.9844 57.2968 14.9692C57.4187 14.9539 57.5558 14.9387 57.6777 14.9082V16.325C57.4796 16.3555 57.2816 16.3707 57.0835 16.386C56.8855 16.4164 56.7027 16.4164 56.4894 16.4164C56.0019 16.4164 55.621 16.3707 55.3316 16.2793C55.0421 16.1879 54.8136 16.0508 54.646 15.8832C54.4784 15.7004 54.3718 15.4871 54.3109 15.2282C54.2499 14.9692 54.2194 14.6492 54.2042 14.3141V9.43907H52.8179V8.05275V8.08321ZM58.9574 8.08321H60.6788V9.21056H60.7093C60.9683 8.72306 61.3187 8.3879 61.7757 8.17462C62.2328 7.96134 62.7203 7.8547 63.2687 7.8547C63.9238 7.8547 64.4874 7.96134 64.9749 8.20509C65.4625 8.43361 65.8586 8.73829 66.1785 9.14962C66.4984 9.54572 66.7421 10.018 66.8945 10.5512C67.0468 11.0844 67.1382 11.6633 67.1382 12.2574C67.1382 12.8211 67.0621 13.3543 66.925 13.8723C66.7726 14.3903 66.5593 14.8625 66.2699 15.2586C65.9804 15.6547 65.6148 15.9746 65.1578 16.2184C64.7007 16.4621 64.1828 16.584 63.5734 16.584C63.3144 16.584 63.0402 16.5536 62.7812 16.5079C62.5222 16.4621 62.2632 16.386 62.0195 16.2793C61.7757 16.1727 61.5472 16.0356 61.3492 15.868C61.1359 15.7004 60.9683 15.5024 60.8312 15.2891H60.8007V19.4176H58.9726V8.08321H58.9574ZM65.3406 12.227C65.3406 11.8614 65.2949 11.4957 65.1882 11.1453C65.0968 10.7949 64.9445 10.4903 64.7464 10.216C64.5484 9.94181 64.3046 9.72853 64.0304 9.56095C63.741 9.39337 63.4058 9.3172 63.0402 9.3172C62.2785 9.3172 61.6996 9.57619 61.3035 10.1094C60.9226 10.6426 60.7245 11.3586 60.7245 12.2422C60.7245 12.6688 60.7702 13.0496 60.8769 13.4C60.9835 13.7504 61.1206 14.0551 61.3339 14.3141C61.532 14.5731 61.7757 14.7711 62.0652 14.9235C62.3546 15.0758 62.6746 15.152 63.0554 15.152C63.482 15.152 63.8171 15.0606 64.1066 14.893C64.396 14.7254 64.6246 14.4969 64.8226 14.2379C65.0054 13.9637 65.1425 13.659 65.2187 13.3086C65.2949 12.943 65.3406 12.5926 65.3406 12.227ZM68.555 4.92969H70.3832V6.65118H68.555V4.92969ZM68.555 8.08321H70.3832V16.3555H68.555V8.08321ZM72.0133 4.92969H73.8414V16.3555H72.0133V4.92969ZM79.4172 16.584C78.7621 16.584 78.168 16.4774 77.65 16.2489C77.132 16.0203 76.7055 15.7309 76.3398 15.35C75.9894 14.9692 75.7152 14.4969 75.5324 13.9637C75.3496 13.4305 75.243 12.8364 75.243 12.2117C75.243 11.5871 75.3344 11.0082 75.5324 10.475C75.7152 9.94181 75.9894 9.48478 76.3398 9.08868C76.6902 8.70782 77.132 8.40314 77.65 8.18985C78.168 7.97657 78.7621 7.8547 79.4172 7.8547C80.0723 7.8547 80.6664 7.96134 81.1844 8.18985C81.7024 8.40314 82.1289 8.70782 82.4945 9.08868C82.8449 9.46955 83.1192 9.94181 83.302 10.475C83.4848 11.0082 83.5914 11.5871 83.5914 12.2117C83.5914 12.8516 83.5 13.4305 83.302 13.9637C83.1039 14.4969 82.8449 14.9539 82.4945 15.35C82.1441 15.7309 81.7024 16.0356 81.1844 16.2489C80.6664 16.4621 80.0875 16.584 79.4172 16.584ZM79.4172 15.1368C79.8133 15.1368 80.1789 15.0453 80.4684 14.8778C80.7731 14.7102 81.0016 14.4817 81.1996 14.2075C81.3977 13.9332 81.5348 13.6133 81.6262 13.2782C81.7176 12.9278 81.7633 12.5774 81.7633 12.2117C81.7633 11.8614 81.7176 11.511 81.6262 11.1606C81.5348 10.8102 81.3977 10.5055 81.1996 10.2313C81.0016 9.95705 80.7578 9.74377 80.4684 9.57619C80.1637 9.40861 79.8133 9.3172 79.4172 9.3172C79.0211 9.3172 78.6555 9.40861 78.366 9.57619C78.0613 9.74377 77.8328 9.97228 77.6348 10.2313C77.4367 10.5055 77.2996 10.8102 77.2082 11.1606C77.1168 11.511 77.0711 11.8614 77.0711 12.2117C77.0711 12.5774 77.1168 12.9278 77.2082 13.2782C77.2996 13.6285 77.4367 13.9332 77.6348 14.2075C77.8328 14.4817 78.0766 14.7102 78.366 14.8778C78.6707 15.0606 79.0211 15.1368 79.4172 15.1368ZM84.1399 8.08321H85.5262V5.58477H87.3543V8.06798H88.9996V9.42384H87.3543V13.8418C87.3543 14.0399 87.3696 14.1922 87.3848 14.3446C87.4 14.4817 87.4457 14.6035 87.4914 14.695C87.5524 14.7864 87.6438 14.8625 87.7504 14.9082C87.8723 14.9539 88.0246 14.9844 88.2379 14.9844C88.3598 14.9844 88.4969 14.9844 88.6188 14.9692C88.7407 14.9539 88.8778 14.9387 88.9996 14.9082V16.325C88.8016 16.3555 88.6035 16.3707 88.4055 16.386C88.2075 16.4164 88.0246 16.4164 87.8114 16.4164C87.3239 16.4164 86.943 16.3707 86.6535 16.2793C86.3641 16.1879 86.1356 16.0508 85.968 15.8832C85.8004 15.7004 85.6938 15.4871 85.6328 15.2282C85.5719 14.9692 85.5414 14.6492 85.5262 14.3141V9.43907H84.1399V8.05275V8.08321Z" fill="white"/>
<path d="M19.4864 7.88327H12.0417L9.75 0.804688L7.44472 7.88327L0 7.86971L6.02086 12.2497L3.71558 19.3283L9.73644 14.9483L15.7573 19.3283L13.4656 12.2497L19.4864 7.88327Z" fill="#00B67A"/>
<path d="M12.5418 14.1128L12.0575 12.4805L8.56543 15.2334L12.5418 14.1128Z" fill="#005128"/>
</svg>
