<svg width="169" height="51" viewBox="0 0 169 51" fill="none" xmlns="http://www.w3.org/2000/svg">
<path d="M167.879 44.1649C167.879 44.7952 167.755 45.4193 167.513 46.0015C167.272 46.5838 166.918 47.1128 166.472 47.5582C166.026 48.0036 165.496 48.3568 164.914 48.5975C164.331 48.8382 163.707 48.9618 163.076 48.9611H5.92286C4.64915 48.9624 3.42706 48.4579 2.52535 47.5586C1.62365 46.6592 1.11616 45.4386 1.1145 44.1652V5.91929C1.11616 4.64534 1.62345 3.42411 2.52497 2.52375C3.4265 1.6234 4.64858 1.11752 5.92286 1.11719H163.075C163.706 1.11715 164.331 1.24134 164.913 1.48266C165.496 1.72399 166.026 2.07772 166.472 2.52366C166.918 2.96959 167.271 3.499 167.513 4.08163C167.754 4.66426 167.878 5.2887 167.878 5.91929L167.879 44.1649Z" fill="white"/>
<path d="M163.077 50.0741H5.92314C4.35401 50.0737 2.84909 49.4511 1.73864 48.3427C0.628186 47.2344 0.00290193 45.7309 0 44.1622L0 5.91813C0.00223779 4.34863 0.627109 2.84411 1.73753 1.73463C2.84794 0.625155 4.35323 0.00132413 5.92314 0L163.076 0C164.645 0.00198482 166.15 0.626028 167.261 1.73536C168.371 2.8447 168.996 4.34884 168.999 5.91813V44.1622C169.001 47.4233 166.34 50.0741 163.077 50.0741Z" fill="#A6A6A6"/>
<path d="M167.879 44.1649C167.879 44.7952 167.755 45.4193 167.513 46.0015C167.272 46.5838 166.918 47.1128 166.472 47.5582C166.026 48.0036 165.496 48.3568 164.914 48.5975C164.331 48.8382 163.707 48.9618 163.076 48.9611H5.92286C4.64915 48.9624 3.42706 48.4579 2.52535 47.5586C1.62365 46.6592 1.11616 45.4386 1.1145 44.1652V5.91929C1.11616 4.64534 1.62345 3.42411 2.52497 2.52375C3.4265 1.6234 4.64858 1.11752 5.92286 1.11719H163.075C163.706 1.11715 164.331 1.24134 164.913 1.48266C165.496 1.72399 166.026 2.07772 166.472 2.52366C166.918 2.96959 167.271 3.499 167.513 4.08163C167.754 4.66426 167.878 5.2887 167.878 5.91929L167.879 44.1649Z" fill="black"/>
<path d="M37.7361 24.7776C37.6998 20.7417 41.0416 18.7781 41.1944 18.6867C39.3019 15.9283 36.3685 15.5515 35.3376 15.5214C32.8739 15.262 30.4841 16.9952 29.2289 16.9952C27.9488 16.9952 26.0163 15.5462 23.9335 15.589C21.253 15.6304 18.7452 17.182 17.3701 19.5909C14.5318 24.5035 16.6487 31.7223 19.3677 35.6928C20.7282 37.6388 22.3174 39.8089 24.398 39.7326C26.4335 39.6499 27.1937 38.4366 29.6498 38.4366C32.0834 38.4366 32.7976 39.7323 34.9191 39.6837C37.1036 39.6499 38.4788 37.7302 39.7917 35.768C41.3634 33.5403 41.9949 31.3442 42.02 31.2312C41.9699 31.2137 37.7787 29.6135 37.7361 24.7776ZM33.728 12.9091C34.8228 11.5405 35.5717 9.67842 35.3639 7.78906C33.7793 7.85917 31.798 8.88443 30.6569 10.2233C29.6473 11.4028 28.7456 13.3363 28.9785 15.1543C30.7583 15.287 32.5857 14.2568 33.728 12.9091Z" fill="white"/>
<path d="M163.077 0H78.9009L111.871 50.0741H163.077C164.646 50.0728 166.151 49.4493 167.262 48.3404C168.372 47.2315 168.997 45.7277 169 44.1587V5.91788C168.998 4.34852 168.373 2.84426 167.262 1.73491C166.152 0.625556 164.647 0.0016553 163.077 0Z" fill="url(#paint0_linear_69_338)"/>
<path d="M67.2166 39.4465H64.3721L62.8138 34.5518H57.398L55.9136 39.4465H53.1445L58.5115 22.7825H61.8258L67.2166 39.4465ZM62.3444 32.4984L60.9351 28.147C60.7862 27.7026 60.5054 26.6554 60.0948 25.0077H60.0447C59.8792 25.7165 59.615 26.7634 59.2529 28.1467L57.8678 32.4984H62.3444ZM80.992 33.2909C80.992 35.3345 80.4371 36.9497 79.3261 38.1355C78.3315 39.1912 77.0953 39.7185 75.6209 39.7185C74.0292 39.7185 72.8844 39.1511 72.189 38.0141V44.319H69.5188V31.3802C69.5188 30.0964 69.485 28.7804 69.4199 27.4306H71.7683L71.9173 29.3353H71.9674C72.8581 27.9004 74.2094 27.1828 76.0234 27.1828C77.4411 27.1828 78.6247 27.7423 79.5714 28.8634C80.5172 29.9863 80.992 31.4616 80.992 33.2909ZM78.2714 33.3885C78.2714 32.219 78.0085 31.2547 77.4796 30.4948C76.9025 29.7046 76.127 29.3087 75.1552 29.3087C74.4961 29.3087 73.8974 29.5294 73.3629 29.9638C72.8268 30.4019 72.4759 30.9746 72.312 31.6832C72.2386 31.9482 72.1969 32.2211 72.1877 32.4959V34.5005C72.1877 35.3736 72.4559 36.111 72.992 36.7144C73.5281 37.3153 74.2245 37.6173 75.081 37.6173C76.0869 37.6173 76.8699 37.2279 77.4298 36.4552C77.9907 35.68 78.2714 34.6582 78.2714 33.3885ZM94.8162 33.2909C94.8162 35.3345 94.2613 36.9497 93.1503 38.1355C92.1544 39.1912 90.9195 39.7185 89.4439 39.7185C87.8521 39.7185 86.7073 39.1511 86.0119 38.0141V44.319H83.3417V31.3802C83.3417 30.0964 83.3079 28.7804 83.2428 27.4306H85.5913L85.7403 29.3353H85.7903C86.6795 27.9004 88.0311 27.1828 89.846 27.1828C91.2625 27.1828 92.4461 27.7423 93.3956 28.8634C94.3402 29.9863 94.8162 31.4616 94.8162 33.2909ZM92.0943 33.3885C92.0943 32.219 91.8299 31.2547 91.3013 30.4948C90.7239 29.7046 89.9512 29.3087 88.9791 29.3087C88.3203 29.3087 87.7216 29.5294 87.1843 29.9638C86.6482 30.4019 86.2986 30.9746 86.1349 31.6832C86.0535 32.0137 86.0097 32.2828 86.0097 32.4959V34.5005C86.0097 35.3736 86.2789 36.111 86.8125 36.7144C87.3486 37.3143 88.0449 37.6173 88.904 37.6173C89.9111 37.6173 90.6941 37.2279 91.2525 36.4552C91.8136 35.68 92.0943 34.6582 92.0943 33.3885ZM110.272 34.7724C110.272 36.1911 109.776 37.3444 108.791 38.2347C107.706 39.2062 106.191 39.6931 104.25 39.6931C102.457 39.6931 101.018 39.3479 99.9338 38.6554L100.551 36.4302C101.722 37.124 103.009 37.4692 104.409 37.4692C105.416 37.4692 106.199 37.2417 106.758 36.7895C107.318 36.3363 107.601 35.7301 107.601 34.974C107.601 34.2964 107.366 33.7293 106.907 33.2671C106.445 32.8064 105.68 32.3767 104.607 31.9824C101.689 30.8942 100.228 29.3028 100.228 27.2091C100.228 25.8414 100.744 24.7222 101.774 23.8469C102.804 22.9728 104.169 22.5356 105.867 22.5356C107.384 22.5356 108.648 22.8 109.651 23.3274L108.981 25.5034C108.036 24.9926 106.97 24.7373 105.778 24.7373C104.836 24.7373 104.097 24.9689 103.569 25.4295C103.124 25.8417 102.899 26.3437 102.899 26.9399C102.899 27.5971 103.155 28.1432 103.666 28.5714C104.11 28.9657 104.919 29.3954 106.089 29.8561C107.524 30.4348 108.579 31.1083 109.254 31.8822C109.934 32.6562 110.272 33.6217 110.272 34.7724ZM119.124 29.4342H116.18V35.2682C116.18 36.7519 116.699 37.4921 117.739 37.4921C118.216 37.4921 118.612 37.452 118.925 37.3681L118.999 39.3955C118.473 39.5921 117.78 39.691 116.922 39.691C115.867 39.691 115.043 39.3692 114.448 38.7255C113.856 38.0817 113.558 37.0039 113.558 35.4863V29.4289H111.804V27.4256H113.558V25.2255L116.18 24.434V27.4259H119.124V29.4342ZM132.378 33.34C132.378 35.1865 131.849 36.7031 130.795 37.8889C129.692 39.1098 128.223 39.7185 126.394 39.7185C124.627 39.7185 123.223 39.1336 122.176 37.9653C121.129 36.7948 120.606 35.3195 120.606 33.54C120.606 31.6779 121.147 30.1528 122.225 28.967C123.306 27.7799 124.761 27.1862 126.591 27.1862C128.355 27.1862 129.772 27.7724 130.844 28.9419C131.868 30.0764 132.378 31.542 132.378 33.34ZM129.61 33.401C129.61 32.3003 129.372 31.3564 128.895 30.5662C128.335 29.612 127.533 29.135 126.495 29.135C125.425 29.135 124.605 29.612 124.046 30.5662C123.568 31.3564 123.33 32.3166 123.33 33.4511C123.33 34.553 123.568 35.4998 124.046 36.2875C124.624 37.2417 125.429 37.7187 126.472 37.7187C127.493 37.7187 128.294 37.2317 128.872 36.2634C129.364 35.4547 129.61 34.5045 129.61 33.401ZM141.062 29.7785C140.784 29.7283 140.502 29.7036 140.22 29.7046C139.281 29.7046 138.554 30.0576 138.043 30.769C137.6 31.3949 137.377 32.1867 137.377 33.1419V39.4468H134.706V31.2147C134.709 29.9533 134.683 28.6921 134.629 27.4319H136.955L137.052 29.7309H137.126C137.41 28.9407 137.853 28.3035 138.462 27.8262C139.019 27.4094 139.696 27.1837 140.392 27.1828C140.639 27.1828 140.861 27.2003 141.059 27.2316L141.062 29.7785ZM153.004 32.8702C153.011 33.2761 152.979 33.6816 152.907 34.0811H144.896C144.926 35.2682 145.314 36.1773 146.058 36.8032C146.733 37.3619 147.606 37.6423 148.678 37.6423C149.864 37.6423 150.947 37.4545 151.92 37.0752L152.338 38.927C151.201 39.4231 149.858 39.6697 148.309 39.6697C146.445 39.6697 144.982 39.121 143.918 38.0266C142.855 36.9312 142.323 35.4584 142.323 33.6138C142.323 31.8033 142.818 30.2946 143.809 29.0912C144.846 27.8062 146.247 27.164 148.011 27.164C149.743 27.164 151.054 27.8062 151.945 29.0912C152.65 30.109 153.005 31.3715 153.005 32.8702H153.004ZM150.458 32.1777C150.477 31.3852 150.302 30.7027 149.94 30.1252C149.478 29.3816 148.766 29.0111 147.813 29.0111C146.94 29.0111 146.228 29.3729 145.687 30.099C145.243 30.6764 144.979 31.3702 144.897 32.1751L150.458 32.1777ZM56.6278 16.891C55.8848 16.891 55.2423 16.8547 54.7075 16.7933V8.73673C55.4555 8.62122 56.2114 8.5643 56.9683 8.56647C60.031 8.56647 61.4412 10.0728 61.4412 12.5283C61.4412 15.3606 59.7753 16.891 56.6278 16.891ZM57.076 9.59925C56.6629 9.59925 56.3108 9.62429 56.0191 9.68469V15.8091C56.1768 15.8341 56.4798 15.8454 56.9057 15.8454C58.9124 15.8454 60.0548 14.7031 60.0548 12.5646C60.0548 10.6574 59.0213 9.59925 57.076 9.59925ZM65.8364 16.9523C64.1104 16.9523 62.9916 15.6638 62.9916 13.9144C62.9916 12.0914 64.1339 10.7913 65.9341 10.7913C67.635 10.7913 68.7786 12.0188 68.7786 13.818C68.7786 15.6638 67.6 16.9523 65.8364 16.9523ZM65.8865 11.7509C64.9382 11.7509 64.3308 12.6372 64.3308 13.8768C64.3308 15.0927 64.9507 15.9793 65.8737 15.9793C66.7966 15.9793 67.4169 15.0314 67.4169 13.8518C67.4169 12.65 66.8097 11.7509 65.8865 11.7509ZM78.621 10.9131L76.7732 16.8184H75.5696L74.8044 14.254C74.6141 13.6266 74.4556 12.9901 74.3296 12.3468H74.3046C74.2082 12.9902 74.0254 13.6352 73.8311 14.254L73.0171 16.8184H71.8009L70.0624 10.9128H71.4112L72.08 13.7203C72.2381 14.3892 72.3708 15.0201 72.481 15.6163H72.506C72.6024 15.119 72.7601 14.4981 72.992 13.7329L73.8311 10.9143H74.9008L75.7038 13.6728C75.89 14.3139 76.0483 14.9627 76.1783 15.6175H76.2133C76.2988 15.0104 76.4324 14.3654 76.6143 13.6728L77.3319 10.9143L78.621 10.9131ZM85.422 16.8184H84.1094V13.4274C84.1094 12.3831 83.7088 11.8595 82.9183 11.8595C82.1406 11.8595 81.6057 12.5283 81.6057 13.306V16.8184H80.2928V12.6006C80.2928 12.0785 80.2803 11.5187 80.244 10.9115H81.3988L81.4602 11.8229H81.4968C81.8498 11.1919 82.5662 10.791 83.3692 10.791C84.6092 10.791 85.4232 11.7393 85.4232 13.2819L85.422 16.8184ZM89.042 16.8184H87.7279V8.20312H89.042V16.8184ZM93.8278 16.9523C92.1031 16.9523 90.983 15.6638 90.983 13.9144C90.983 12.0914 92.1253 10.7913 93.9242 10.7913C95.6264 10.7913 96.7688 12.0188 96.7688 13.818C96.77 15.6638 95.5901 16.9523 93.8278 16.9523ZM93.8767 11.7509C92.9284 11.7509 92.3212 12.6372 92.3212 13.8768C92.3212 15.0927 92.9422 15.9793 93.8629 15.9793C94.7871 15.9793 95.4058 15.0314 95.4058 13.8518C95.4074 12.65 94.8008 11.7509 93.8767 11.7509ZM101.944 16.8184L101.849 16.1383H101.814C101.413 16.6857 100.828 16.952 100.086 16.952C99.0283 16.952 98.2766 16.2109 98.2766 15.2141C98.2766 13.7567 99.5407 13.0027 101.729 13.0027V12.8938C101.729 12.1164 101.317 11.7268 100.502 11.7268C99.9203 11.7268 99.4089 11.8732 98.9595 12.1649L98.6925 11.3024C99.2387 10.9619 99.92 10.7913 100.721 10.7913C102.263 10.7913 103.043 11.6053 103.043 13.2346V15.4097C103.043 16.0056 103.069 16.4675 103.128 16.8196L101.944 16.8184ZM101.764 13.8768C100.306 13.8768 99.5745 14.2302 99.5745 15.0677C99.5745 15.6873 99.9513 15.9906 100.475 15.9906C101.142 15.9906 101.764 15.4811 101.764 14.7885V13.8768ZM109.417 16.8184L109.356 15.8701H109.319C108.942 16.5868 108.308 16.9523 107.423 16.9523C105.999 16.9523 104.944 15.7002 104.944 13.9385C104.944 12.0914 106.037 10.7901 107.53 10.7901C108.321 10.7901 108.881 11.057 109.196 11.5928H109.222V8.20344H110.537V15.2263C110.537 15.7975 110.55 16.332 110.585 16.8181L109.417 16.8184ZM109.223 13.3435C109.223 12.517 108.675 11.8119 107.84 11.8119C106.867 11.8119 106.272 12.6747 106.272 13.8893C106.272 15.0802 106.889 15.8954 107.814 15.8954C108.639 15.8954 109.222 15.1778 109.222 14.3275L109.223 13.3435ZM118.867 16.952C117.142 16.952 116.024 15.6638 116.024 13.9144C116.024 12.0914 117.166 10.7913 118.965 10.7913C120.667 10.7913 121.81 12.0188 121.81 13.818C121.81 15.6638 120.632 16.952 118.867 16.952ZM118.916 11.7506C117.969 11.7506 117.361 12.6372 117.361 13.8768C117.361 15.0927 117.981 15.9793 118.903 15.9793C119.828 15.9793 120.446 15.0314 120.446 13.8518C120.449 12.65 119.842 11.7506 118.916 11.7506ZM128.868 16.8184H127.555V13.4274C127.555 12.3831 127.154 11.8595 126.363 11.8595C125.586 11.8595 125.052 12.5283 125.052 13.306V16.8184H123.738V12.6006C123.738 12.0785 123.726 11.5187 123.689 10.9115H124.844L124.905 11.8229H124.942C125.294 11.1919 126.011 10.7901 126.813 10.7901C128.053 10.7901 128.868 11.7377 128.868 13.2806V16.8184ZM137.7 11.897H136.256V14.7647C136.256 15.4948 136.509 15.8591 137.02 15.8591C137.251 15.8591 137.446 15.8341 137.602 15.7978L137.639 16.7946C137.384 16.8922 137.044 16.9411 136.621 16.9411C135.586 16.9411 134.967 16.3699 134.967 14.8749V11.897H134.105V10.9131H134.967V9.83085L136.256 9.44121V10.9115H137.7L137.7 11.897ZM144.649 16.8184H143.338V13.4525C143.338 12.3956 142.938 11.8607 142.147 11.8607C141.466 11.8607 140.833 12.323 140.833 13.2584V16.8184H139.521V8.20312H140.833V11.7506H140.859C141.272 11.1071 141.871 10.7901 142.635 10.7901C143.885 10.7901 144.649 11.7618 144.649 13.306V16.8184ZM151.769 14.181H147.829C147.854 15.2992 148.594 15.9305 149.69 15.9305C150.273 15.9305 150.809 15.8328 151.283 15.6513L151.487 16.563C150.928 16.8059 150.27 16.9273 149.505 16.9273C147.658 16.9273 146.564 15.7599 146.564 13.951C146.564 12.1402 147.684 10.7788 149.358 10.7788C150.867 10.7788 151.814 11.897 151.814 13.5861C151.822 13.7855 151.807 13.9852 151.769 14.181ZM150.565 13.2459C150.565 12.3342 150.105 11.6905 149.266 11.6905C148.512 11.6905 147.916 12.3468 147.831 13.2459H150.565Z" fill="white"/>
<defs>
<linearGradient id="paint0_linear_69_338" x1="123.949" y1="50.207" x2="123.949" y2="-130.384" gradientUnits="userSpaceOnUse">
<stop stop-color="#1A1A1A" stop-opacity="0.1"/>
<stop offset="0.123" stop-color="#212121" stop-opacity="0.151"/>
<stop offset="0.308" stop-color="#353535" stop-opacity="0.227"/>
<stop offset="0.532" stop-color="#575757" stop-opacity="0.318"/>
<stop offset="0.783" stop-color="#858585" stop-opacity="0.421"/>
<stop offset="1" stop-color="#B3B3B3" stop-opacity="0.51"/>
</linearGradient>
</defs>
</svg>
