<svg width="167" height="51" viewBox="0 0 167 51" fill="none" xmlns="http://www.w3.org/2000/svg">
<path d="M160.815 50.0752H6.18519C2.78333 50.0752 0 47.2919 0 43.89V6.77893C0 3.37708 2.78333 0.59375 6.18519 0.59375H160.815C164.217 0.59375 167 3.37708 167 6.77893V43.89C167 47.2919 164.217 50.0752 160.815 50.0752Z" fill="black"/>
<path d="M160.815 1.58338C162.193 1.58338 163.514 2.13077 164.489 3.10512C165.463 4.07948 166.01 5.40099 166.01 6.77893V43.89C166.01 45.268 165.463 46.5895 164.489 47.5639C163.514 48.5382 162.193 49.0856 160.815 49.0856H6.18519C4.80724 49.0856 3.48573 48.5382 2.51137 47.5639C1.53702 46.5895 0.98963 45.268 0.98963 43.89V6.77893C0.98963 5.40099 1.53702 4.07948 2.51137 3.10512C3.48573 2.13077 4.80724 1.58338 6.18519 1.58338H160.815ZM160.815 0.59375H6.18519C2.78333 0.59375 0 3.37708 0 6.77893V43.89C0 47.2919 2.78333 50.0752 6.18519 50.0752H160.815C164.217 50.0752 167 47.2919 167 43.89V6.77893C167 3.37708 164.217 0.59375 160.815 0.59375Z" fill="#A6A6A6"/>
<path d="M58.661 13.2593C58.661 14.2984 58.3517 15.1272 57.7332 15.7334C57.0405 16.4632 56.1374 16.8343 55.0117 16.8343C53.9355 16.8343 53.0201 16.4632 52.2779 15.721C51.5357 14.9788 51.1646 14.051 51.1646 12.9624C51.1646 11.8738 51.5357 10.9461 52.2779 10.2038C53.0201 9.46161 53.9355 9.07812 55.0117 9.07812C55.556 9.07812 56.0756 9.17709 56.558 9.36264C57.0405 9.56057 57.4363 9.83272 57.7456 10.1791L57.0652 10.8595C56.8426 10.5873 56.5457 10.3646 56.1746 10.2162C55.8079 10.0567 55.4116 9.97656 55.0117 9.98116C54.2077 9.98116 53.5149 10.2657 52.9583 10.8223C52.4016 11.3914 52.1294 12.0965 52.1294 12.95C52.1294 13.8036 52.4016 14.5087 52.9583 15.0778C53.5149 15.6344 54.1953 15.9189 55.0117 15.9189C55.754 15.9189 56.3601 15.7086 56.8549 15.3004C57.3497 14.8922 57.6343 14.3108 57.7085 13.5933H55.0117V12.7026H58.6115C58.6363 12.9006 58.661 13.0861 58.661 13.2593ZM64.3637 9.25131V10.1667H60.9866V12.5171H64.0297V13.4078H60.9866V15.7581H64.3637V16.6735H60.0341V9.25131H64.3637ZM68.3841 10.1667V16.6735H67.4316V10.1667H65.3534V9.25131H70.45V10.1667H68.3841ZM75.1012 16.6735H74.1487V9.25131H75.1012V16.6735ZM79.3319 10.1667V16.6735H78.3794V10.1667H76.3011V9.25131H81.3977V10.1667H79.3319ZM92.1476 12.9624C92.1476 14.0634 91.7765 14.9788 91.0466 15.721C90.3044 16.4632 89.4014 16.8343 88.3251 16.8343C87.2489 16.8343 86.3459 16.4632 85.6037 15.721C84.8738 14.9788 84.5027 14.0634 84.5027 12.9624C84.5027 11.8615 84.8738 10.9461 85.6037 10.2038C86.3335 9.46161 87.2366 9.07812 88.3251 9.07812C89.4014 9.07812 90.3044 9.44924 91.0466 10.2038C91.7888 10.9584 92.1476 11.8738 92.1476 12.9624ZM85.4923 12.9624C85.4923 13.816 85.7645 14.5335 86.2964 15.0901C86.8407 15.6468 87.5211 15.9313 88.3251 15.9313C89.1292 15.9313 89.8096 15.6468 90.3415 15.0901C90.8858 14.5335 91.158 13.8283 91.158 12.9624C91.158 12.0965 90.8858 11.3914 90.3415 10.8347C89.7972 10.2781 89.1292 9.99353 88.3251 9.99353C87.5211 9.99353 86.8407 10.2781 86.2964 10.8347C85.7645 11.3914 85.4923 12.1089 85.4923 12.9624ZM94.4361 16.6735H93.4836V9.25131H94.6464L98.2586 15.0283H98.2957L98.2586 13.5933V9.25131H99.2111V16.6735H98.2214L94.4485 10.6244H94.4114L94.4485 12.0594V16.6735H94.4361Z" fill="white"/>
<path d="M84.2923 27.5016C81.3852 27.5016 79.0101 29.7159 79.0101 32.759C79.0101 35.7897 81.3852 38.0164 84.2923 38.0164C87.1993 38.0164 89.5744 35.7897 89.5744 32.759C89.5744 29.7159 87.1993 27.5016 84.2923 27.5016ZM84.2923 35.9505C82.6965 35.9505 81.3234 34.6393 81.3234 32.759C81.3234 30.8663 82.6965 29.5674 84.2923 29.5674C85.888 29.5674 87.2611 30.8663 87.2611 32.759C87.2611 34.6393 85.8757 35.9505 84.2923 35.9505ZM72.7631 27.5016C69.856 27.5016 67.4809 29.7159 67.4809 32.759C67.4809 35.7897 69.856 38.0164 72.7631 38.0164C75.6701 38.0164 78.0452 35.7897 78.0452 32.759C78.0452 29.7159 75.6701 27.5016 72.7631 27.5016ZM72.7631 35.9505C71.1673 35.9505 69.7942 34.6393 69.7942 32.759C69.7942 30.8663 71.1673 29.5674 72.7631 29.5674C74.3589 29.5674 75.732 30.8663 75.732 32.759C75.732 34.6393 74.3589 35.9505 72.7631 35.9505ZM59.0567 29.1221V31.3488H64.4007C64.2399 32.5982 63.8193 33.5259 63.1884 34.1568C62.4091 34.9362 61.1968 35.7897 59.0691 35.7897C55.7786 35.7897 53.2055 33.1425 53.2055 29.8519C53.2055 26.5614 55.7786 23.9142 59.0691 23.9142C60.838 23.9142 62.1369 24.6069 63.0894 25.5099L64.6605 23.9389C63.3245 22.6648 61.5555 21.6875 59.0567 21.6875C54.5539 21.6875 50.7686 25.3491 50.7686 29.8643C50.7686 34.3671 54.5539 38.0411 59.0567 38.0411C61.4937 38.0411 63.3245 37.2494 64.7594 35.7526C66.2315 34.2805 66.6892 32.2023 66.6892 30.5323C66.6892 30.0128 66.6521 29.5303 66.5655 29.1345H59.0567V29.1221ZM115.107 30.8539C114.674 29.6788 113.338 27.5016 110.604 27.5016C107.895 27.5016 105.644 29.6293 105.644 32.759C105.644 35.7031 107.87 38.0164 110.864 38.0164C113.276 38.0164 114.674 36.5443 115.243 35.6908L113.449 34.4908C112.855 35.3691 112.039 35.9505 110.864 35.9505C109.689 35.9505 108.847 35.4186 108.316 34.3548L115.354 31.4477L115.107 30.8539ZM107.932 32.6105C107.87 30.5818 109.503 29.5427 110.678 29.5427C111.594 29.5427 112.373 30.0004 112.633 30.656L107.932 32.6105ZM102.217 37.7071H104.53V22.2442H102.217V37.7071ZM98.4316 28.6768H98.345C97.8254 28.0582 96.8358 27.5016 95.574 27.5016C92.9391 27.5016 90.5269 29.8148 90.5269 32.7837C90.5269 35.7279 92.9391 38.0288 95.574 38.0288C96.8234 38.0288 97.8254 37.4721 98.345 36.8288H98.4192V37.5834C98.4192 39.5998 97.343 40.676 95.6111 40.676C94.2009 40.676 93.3226 39.6616 92.9639 38.8081L90.9475 39.6493C91.5289 41.0471 93.0629 42.7542 95.6111 42.7542C98.3203 42.7542 100.609 41.1585 100.609 37.2742V27.8232H98.4192V28.6768H98.4316ZM95.772 35.9505C94.1762 35.9505 92.8402 34.6145 92.8402 32.7837C92.8402 30.9282 94.1762 29.5798 95.772 29.5798C97.343 29.5798 98.58 30.9405 98.58 32.7837C98.5924 34.6145 97.3554 35.9505 95.772 35.9505ZM125.943 22.2442H120.414V37.7071H122.727V31.8436H125.956C128.516 31.8436 131.028 29.988 131.028 27.0439C131.015 24.0997 128.492 22.2442 125.943 22.2442ZM125.993 29.6911H122.715V24.3842H125.993C127.725 24.3842 128.702 25.8192 128.702 27.0315C128.702 28.2438 127.725 29.6911 125.993 29.6911ZM140.268 27.4768C138.598 27.4768 136.866 28.2191 136.149 29.8396L138.202 30.6931C138.635 29.8396 139.452 29.5551 140.305 29.5551C141.493 29.5551 142.718 30.2725 142.73 31.5467V31.7075C142.309 31.4725 141.419 31.1137 140.318 31.1137C138.103 31.1137 135.864 32.326 135.864 34.5898C135.864 36.6556 137.67 37.9916 139.699 37.9916C141.245 37.9916 142.111 37.2989 142.643 36.4825H142.718V37.67H144.944V31.7446C144.957 29.0108 142.903 27.4768 140.268 27.4768ZM139.984 35.9505C139.229 35.9505 138.178 35.5671 138.178 34.6393C138.178 33.4517 139.489 32.994 140.627 32.994C141.641 32.994 142.124 33.2167 142.73 33.5136C142.644 34.1831 142.319 34.7989 141.814 35.247C141.309 35.695 140.659 35.945 139.984 35.9505ZM153.072 27.8108L150.424 34.5156H150.35L147.604 27.8108H145.117L149.237 37.1876L146.886 42.3955H149.299L155.645 27.8108H153.072ZM132.289 37.7071H134.603V22.2442H132.289V37.7071Z" fill="white"/>
<path d="M25.6315 24.6172L12.457 38.5957V38.6081C12.5996 39.1376 12.8626 39.627 13.2255 40.0381C13.5884 40.4493 14.0414 40.771 14.5491 40.9781C15.0569 41.1853 15.6056 41.2723 16.1525 41.2324C16.6995 41.1925 17.2298 41.0268 17.7021 40.7481L17.7392 40.7234L32.5589 32.1755L25.6315 24.6172Z" fill="#EA4335"/>
<path d="M38.9543 22.2391L38.9419 22.2267L32.5464 18.5156L25.3345 24.9358L32.5711 32.1725L38.9419 28.4985C39.5054 28.1935 39.9762 27.7421 40.3047 27.192C40.6332 26.6418 40.8073 26.0133 40.8085 25.3725C40.8098 24.7317 40.6382 24.1025 40.3119 23.551C39.9856 22.9996 39.5165 22.5464 38.9543 22.2391Z" fill="#FBBC04"/>
<path d="M12.4567 12.0703C12.3825 12.3672 12.333 12.6641 12.333 12.9857V37.6893C12.333 38.011 12.3701 38.3079 12.4567 38.6048L26.0765 24.985L12.4567 12.0703Z" fill="#4285F4"/>
<path d="M25.7304 25.3373L32.5465 18.5212L17.7392 9.9362C17.2658 9.65316 16.7334 9.48352 16.1835 9.44055C15.6337 9.39758 15.0814 9.48245 14.5698 9.68852C14.0582 9.89459 13.6013 10.2163 13.2348 10.6284C12.8682 11.0405 12.602 11.5318 12.457 12.0639L25.7304 25.3373Z" fill="#34A853"/>
</svg>
