<svg width="60" height="60" viewBox="0 0 60 60" fill="none" xmlns="http://www.w3.org/2000/svg">
<path fill-rule="evenodd" clip-rule="evenodd" d="M34.6726 15.2448C34.4055 15.2448 34.1485 15.1356 33.957 14.9339C33.7973 14.7659 33.6982 14.5677 33.5167 14.208C33.1975 13.573 32.6028 12.3885 31.3729 10.831C30.8639 10.1859 30.6589 9.96577 30.5144 9.82305C30.4019 9.7122 30.1145 9.44339 29.7012 9.13923C29.3888 9.50722 29.0309 9.818 28.631 10.0666C27.4431 10.8076 26.2755 10.7789 25.3363 10.7572L25.2708 10.7555C25.2422 10.7555 22.376 10.69 19.3166 10.9017C17.1509 11.0512 16.5159 11.3149 16.0522 11.5704C15.6304 11.8038 14.8459 12.2374 14.4846 13.0404C14.3283 13.3866 14.283 13.7258 14.2444 13.998C14.2242 14.1492 14.2057 14.2803 14.1705 14.4112C14.0175 14.9724 13.5874 15.2042 13.2363 15.2327C13.0246 15.2512 12.4954 15.2209 12.1359 14.5624C12.0453 14.3961 11.9578 14.1793 11.8772 13.9206C11.7293 13.4502 11.6101 12.8621 11.5496 12.306C11.3229 10.2478 11.8688 8.56111 12.2132 7.73951C12.4366 7.20693 13.1088 5.82257 14.5132 4.46334C16.9459 2.11288 19.8525 1.50973 21.7763 1.10987C23.3808 0.777213 24.5031 0.728519 25.9143 0.696652C27.0132 0.671411 28.3118 0.718527 29.6256 1.26279C30.2977 1.53991 30.7883 1.87099 31.1713 2.3045C31.4637 2.63716 31.5812 2.89766 31.7172 3.19835C31.7878 3.35295 31.8668 3.52932 31.9944 3.77458C32.3136 4.3811 32.5068 4.74898 32.826 5.07996C32.9704 5.22951 33.0259 5.26148 33.2309 5.38232C33.4493 5.51168 33.7483 5.68648 34.2457 6.05941C34.8572 6.51806 35.2621 6.82222 35.699 7.34807C35.9779 7.68577 36.5609 8.388 36.7911 9.4314C36.939 10.0967 36.8701 10.6209 36.7558 11.4896C36.6818 12.0508 36.3021 13.0806 36.1863 13.3814C35.6956 14.6701 35.447 15.043 34.98 15.1942C34.881 15.2281 34.7751 15.2448 34.6726 15.2448ZM29.4711 6.94022C29.9365 6.94022 30.3397 7.2225 30.5951 7.40065L30.6219 7.41916C31.2318 7.84248 31.6652 8.24065 31.8685 8.44069C32.0885 8.65576 32.3473 8.94141 32.8934 9.63196C33.6595 10.603 34.2021 11.4414 34.5919 12.1135C34.7196 11.7421 34.8186 11.4062 34.8405 11.2381C34.9446 10.4367 34.9749 10.1679 34.9043 9.84871C34.775 9.26228 34.4356 8.85411 34.2122 8.58361C33.9215 8.23245 33.6427 8.02421 33.0883 7.60742C32.6784 7.2999 32.4431 7.16044 32.2533 7.04959C32.0013 6.90172 31.7644 6.76237 31.4368 6.4213C30.9259 5.89209 30.6438 5.35445 30.2859 4.674C30.1296 4.37658 30.0305 4.15488 29.9566 3.99354C29.8441 3.74492 29.8205 3.69454 29.7231 3.58369C29.6005 3.44424 29.3955 3.25935 28.8897 3.04943C27.9103 2.64452 26.9039 2.60918 25.9613 2.62948C24.6121 2.65966 23.6192 2.70341 22.1726 3.00241C20.3648 3.37714 17.89 3.89121 15.8606 5.85349C14.6812 6.99427 14.1368 8.15683 13.999 8.48623C13.7806 9.00535 13.4631 9.95798 13.4345 11.1491C13.5975 10.966 13.7772 10.7913 13.9755 10.6283C14.4173 10.2621 14.8542 10.0201 15.1163 9.87564C15.9344 9.42193 16.8636 9.12966 19.1838 8.96843C22.3373 8.74999 25.1986 8.81552 25.3179 8.81888L25.3851 8.82056C26.1697 8.83907 26.9123 8.85748 27.6062 8.42407C27.9691 8.19732 28.28 7.87476 28.5287 7.4647C28.685 7.20598 28.9336 7.02782 29.2309 6.96399C29.3131 6.94684 29.3921 6.94022 29.4711 6.94022Z" fill="#BA6827"/>
<path fill-rule="evenodd" clip-rule="evenodd" d="M24.2007 31.3573C23.5505 31.3573 22.8113 31.2952 22.015 31.1187C21.306 30.9624 19.4596 30.4383 17.6467 28.953C16.7781 28.2407 15.1837 26.6698 14.2781 24.1497C14.0312 23.4625 13.8698 22.7234 13.7774 22.2176C13.1439 21.9336 12.5627 21.5053 12.0703 20.9559C11.4421 20.2536 11.0035 19.4035 10.8036 18.4979C10.397 16.6566 11.022 14.8487 12.5189 13.5416C12.9221 13.1905 13.5337 13.2307 13.8848 13.6341C14.2359 14.0373 14.1956 14.6489 13.7923 14.9999C12.4936 16.134 12.5457 17.4176 12.6935 18.0812C12.9556 19.2673 13.8476 20.2721 14.9129 20.5812C15.2809 20.6887 15.5513 21.0012 15.6017 21.381C15.6756 21.9236 15.8486 22.8039 16.099 23.4978C16.8753 25.6584 18.2982 26.9874 18.8728 27.4595C20.3631 28.6793 21.8584 29.1061 22.4312 29.2336C24.0643 29.5931 25.4101 29.3563 25.9141 29.237C27.2884 28.9126 28.2141 28.2743 28.6107 28.0021C28.8963 27.8055 29.6423 27.2511 30.4016 26.3522C31.4986 25.0534 32.3069 23.2876 32.7437 21.243C32.826 20.8549 33.1385 20.5558 33.53 20.4903C33.9567 20.418 34.4222 20.05 34.8052 19.4823C35.2218 18.8623 35.4924 18.0828 35.5461 17.3452C35.6032 16.5556 35.4454 15.5408 34.3634 15.193C33.8544 15.03 33.5754 14.4841 33.7385 13.9749C33.9015 13.4659 34.4474 13.187 34.9566 13.35C35.8738 13.6458 36.5879 14.2321 37.0197 15.0485C37.3843 15.7357 37.5422 16.5774 37.4768 17.483C37.3995 18.5465 37.0114 19.6688 36.4116 20.5609C35.8824 21.3473 35.2221 21.9151 34.5081 22.2091C33.9789 24.3512 33.0968 26.1623 31.8821 27.6004C31.0051 28.6388 30.1449 29.2956 29.7097 29.5947C29.2661 29.8988 28.0884 30.7102 26.3613 31.1185C25.8959 31.2262 25.1416 31.3573 24.2007 31.3573Z" fill="#BA6827"/>
<path fill-rule="evenodd" clip-rule="evenodd" d="M18.4127 35.0657C18.2682 35.0657 18.122 35.0337 17.9827 34.9649C17.5038 34.7281 17.3073 34.1468 17.5458 33.668C17.8432 33.0682 18.3472 31.8652 18.3825 30.5429C18.396 30.0238 18.3288 29.7868 18.2179 29.392C18.1877 29.2861 18.154 29.1653 18.1187 29.0326C17.9859 28.5151 18.2984 27.9875 18.816 27.8547C19.3334 27.722 19.861 28.0345 19.9938 28.552C20.0224 28.6595 20.0509 28.7637 20.0795 28.8645C20.2072 29.3148 20.3399 29.7802 20.3181 30.5933C20.2745 32.2868 19.6494 33.7854 19.2815 34.5264C19.1117 34.8691 18.7688 35.0657 18.4127 35.0657Z" fill="#BA6827"/>
<path fill-rule="evenodd" clip-rule="evenodd" d="M30.1411 35.6991C29.8118 35.6991 29.4926 35.531 29.3111 35.2304C28.6727 34.1686 27.9015 32.5019 27.851 30.5933C27.8291 29.7784 27.9619 29.3131 28.0896 28.8645C28.1183 28.7637 28.1468 28.6612 28.1754 28.552C28.3081 28.0346 28.8356 27.722 29.3532 27.8547C29.8707 27.9875 30.1832 28.515 30.0504 29.0325C30.0169 29.1636 29.9816 29.2845 29.9513 29.392C29.8404 29.7851 29.7715 30.0237 29.7866 30.5429C29.8253 32.0315 30.4519 33.3722 30.9693 34.2341C31.2449 34.6927 31.097 35.2875 30.6384 35.5614C30.4822 35.6539 30.3107 35.6991 30.1411 35.6991Z" fill="#BA6827"/>
<path fill-rule="evenodd" clip-rule="evenodd" d="M48.4139 59.3059H0.968107C0.435522 59.3059 0.00200852 58.8741 0.00043096 58.3416C-0.00966543 54.968 0.144935 46.5357 1.82672 41.1124C2.2737 39.6741 2.81459 38.4998 3.52859 37.4178C4.12838 36.5106 5.85897 34.229 8.95025 32.6581C11.7829 31.2166 14.493 31.0032 16.2671 31.0772C16.499 31.0873 16.7208 31.1797 16.8887 31.3393L24.4879 38.4746L32.5069 31.3241C32.6732 31.1746 32.8866 31.0888 33.1118 31.0787C34.8859 31.0048 37.5942 31.2198 40.4286 32.6597C43.52 34.2322 45.2504 36.5122 45.8502 37.4194C46.5659 38.5014 47.1069 39.6741 47.5521 41.1139C48.325 43.6022 48.8626 47.006 49.1515 51.2263C49.3078 53.5045 49.3868 55.9641 49.3783 58.3415C49.38 58.8759 48.9466 59.3059 48.4139 59.3059ZM24.6323 57.3706H47.4445C47.4311 55.3444 47.3554 53.2846 47.2227 51.3592C46.9438 47.2867 46.433 44.0323 45.7055 41.6869C45.309 40.4117 44.8571 39.4238 44.2371 38.4862C43.7214 37.7066 42.2328 35.746 39.5513 34.3835C37.2664 33.2209 35.0706 32.9773 33.5333 33.0008L25.116 40.5057C24.7413 40.8384 24.1752 40.8316 23.8089 40.4889L15.8335 32.9991C14.2979 32.9789 12.1087 33.2224 9.82874 34.3817C7.14731 35.7442 5.65883 37.7049 5.14296 38.4844C4.52298 39.4219 4.07106 40.4081 3.67457 41.6833C2.9471 44.0287 2.43629 47.2831 2.15738 51.3557C2.02465 53.2811 1.94903 55.3409 1.93557 57.367L24.6323 57.3706Z" fill="#BA6827"/>
<path fill-rule="evenodd" clip-rule="evenodd" d="M10.1513 59.3071C9.617 59.3071 9.18359 58.8736 9.18359 58.3394V47.1786C9.18359 46.6443 9.61711 46.2109 10.1513 46.2109C10.6854 46.2109 11.1189 46.6443 11.1189 47.1786V58.3394C11.1192 58.8737 10.6856 59.3071 10.1513 59.3071Z" fill="#BA6827"/>
<path fill-rule="evenodd" clip-rule="evenodd" d="M40.0102 59.3071C39.4759 59.3071 39.0425 58.8736 39.0425 58.3394V47.1786C39.0425 46.6443 39.4759 46.2109 40.0102 46.2109C40.5444 46.2109 40.9778 46.6443 40.9778 47.1786V58.3394C40.9779 58.8737 40.5444 59.3071 40.0102 59.3071Z" fill="#BA6827"/>
<path fill-rule="evenodd" clip-rule="evenodd" d="M43.9027 31.3797C43.3685 31.3797 42.9351 30.9462 42.9351 30.412V2.96768C42.9351 2.43341 43.3685 2 43.9027 2C44.437 2 44.8704 2.43351 44.8704 2.96768V30.412C44.8705 30.9461 44.437 31.3797 43.9027 31.3797Z" fill="#BA6827"/>
<path fill-rule="evenodd" clip-rule="evenodd" d="M59.032 17.9849H43.9027C43.3685 17.9849 42.9351 17.5515 42.9351 17.0172V5.35064C42.9351 4.98107 43.1451 4.64505 43.4761 4.48203C43.807 4.31902 44.2018 4.3594 44.4942 4.58457L59.6234 16.2511C59.951 16.503 60.0821 16.9382 59.9478 17.3297C59.815 17.7212 59.4453 17.9849 59.032 17.9849ZM44.8705 16.0494H56.1926L44.8705 7.31975V16.0494Z" fill="#BA6827"/>
<path fill-rule="evenodd" clip-rule="evenodd" d="M29.4777 55.8051H19.4105C18.8763 55.8051 18.4429 55.3716 18.4429 54.8374V42.9911C18.4429 42.4568 18.8763 42.0234 19.4105 42.0234H29.4777C30.012 42.0234 30.4454 42.4568 30.4454 42.9911V54.8374C30.4454 55.3733 30.0136 55.8051 29.4777 55.8051ZM20.38 53.8697H28.5116V43.9588H20.38V53.8697Z" fill="#BA6827"/>
<path fill-rule="evenodd" clip-rule="evenodd" d="M26.2067 47.0232H22.6835C22.1492 47.0232 21.7158 46.5898 21.7158 46.0556C21.7158 45.5213 22.1492 45.0879 22.6835 45.0879H26.2067C26.741 45.0879 27.1744 45.5213 27.1744 46.0556C27.1744 46.5898 26.741 47.0232 26.2067 47.0232Z" fill="#BA6827"/>
<path fill-rule="evenodd" clip-rule="evenodd" d="M26.2067 49.8826H22.6835C22.1492 49.8826 21.7158 49.4492 21.7158 48.9149C21.7158 48.3807 22.1492 47.9473 22.6835 47.9473H26.2067C26.741 47.9473 27.1744 48.3807 27.1744 48.9149C27.1744 49.4492 26.741 49.8826 26.2067 49.8826Z" fill="#BA6827"/>
<path fill-rule="evenodd" clip-rule="evenodd" d="M26.2067 52.742H22.6835C22.1492 52.742 21.7158 52.3086 21.7158 51.7743C21.7158 51.2401 22.1492 50.8066 22.6835 50.8066H26.2067C26.741 50.8066 27.1744 51.2401 27.1744 51.7743C27.1744 52.3086 26.741 52.742 26.2067 52.742Z" fill="#BA6827"/>
<path fill-rule="evenodd" clip-rule="evenodd" d="M19.4121 43.9583C19.0828 43.9583 18.7619 43.7902 18.5805 43.4879L12.1626 32.7839C11.8871 32.3253 12.0366 31.7305 12.4953 31.4566C12.9539 31.181 13.5487 31.3306 13.8226 31.7892L20.2406 42.4931C20.5161 42.9517 20.3666 43.5465 19.9079 43.8204C19.7532 43.9147 19.5818 43.9583 19.4121 43.9583Z" fill="#BA6827"/>
<path fill-rule="evenodd" clip-rule="evenodd" d="M29.4777 43.9593C29.3081 43.9593 29.1366 43.9156 28.9804 43.8216C28.5217 43.5461 28.3738 42.9529 28.6477 42.4943L35.0656 31.7904C35.3412 31.3318 35.9342 31.1839 36.393 31.4578C36.8516 31.7333 36.9995 32.3264 36.7257 32.7851L30.3077 43.489C30.1279 43.7912 29.807 43.9593 29.4777 43.9593Z" fill="#BA6827"/>
</svg>
