<svg width="60" height="60" viewBox="0 0 60 60" fill="none" xmlns="http://www.w3.org/2000/svg">
<path d="M30 60C29.9258 60 29.8517 59.9931 29.7784 59.9789C22.6689 58.6116 16.214 54.7847 11.6029 49.2027C6.99234 43.6208 4.45312 36.5593 4.45312 29.3193V8.8092C4.45312 8.29697 4.78592 7.84378 5.27481 7.69089L29.6127 0.065918C29.7359 0.0228881 29.8709 0.00274658 30 0H30.0014C30.1341 0 30.2646 0.0228881 30.3877 0.065918L54.7252 7.69089C55.2141 7.84424 55.5469 8.29697 55.5469 8.8092V29.3193C55.5469 36.5593 53.0077 43.6208 48.3966 49.2027C43.786 54.7847 37.3311 58.6116 30.2216 59.9789C30.1483 59.9931 30.0742 60 30 60ZM6.79688 9.6698V29.3193C6.79688 43.0659 16.5413 54.9376 30 57.6338C43.4587 54.9376 53.2027 43.0659 53.2027 29.3193V9.6698L30 2.40051L6.79688 9.6698Z" fill="#BA6827"/>
<path d="M30 53.2814C29.9048 53.2814 29.8096 53.2699 29.7171 53.247C24.4263 51.9305 19.6523 48.8324 16.2735 44.5234C12.8828 40.1985 11.0156 34.7987 11.0156 29.3184V13.629C11.0156 13.1167 11.3484 12.664 11.8369 12.5111L29.6494 6.93051C29.8773 6.8591 30.1222 6.8591 30.3502 6.93051L48.1627 12.5111C48.6511 12.664 48.9839 13.1167 48.9839 13.629V29.3184C48.9839 33.3242 47.9915 37.3118 46.1142 40.8499C45.8107 41.4216 45.1016 41.6386 44.5299 41.3356C43.9581 41.0321 43.7407 40.323 44.0437 39.7513C45.7425 36.5506 46.6402 32.9429 46.6402 29.3184V14.49L29.9995 9.27655L13.3594 14.49V29.3184C13.3594 39.4912 20.1874 48.3242 29.9995 50.9001C32.7255 50.1846 35.2583 48.9738 37.5325 47.2989C38.0534 46.9153 38.7872 47.0265 39.1708 47.5474C39.5549 48.0684 39.4437 48.8022 38.9223 49.1858C36.3217 51.1015 33.4149 52.4675 30.2824 53.247C30.19 53.2699 30.0948 53.2814 30 53.2814Z" fill="#BA6827"/>
<path d="M27.8714 38.8183C27.5711 38.8183 27.2717 38.7039 27.0428 38.475L19.1954 30.6275C18.7376 30.1702 18.7376 29.4282 19.1954 28.9704L23.1729 24.9929C23.3926 24.7732 23.6906 24.6496 24.0014 24.6496C24.3123 24.6496 24.6103 24.7732 24.83 24.9929L27.8714 28.0343L35.1695 20.7357C35.6273 20.2784 36.3693 20.278 36.8271 20.7357L40.8046 24.7132C41.0243 24.933 41.1479 25.231 41.1479 25.5418C41.1479 25.8526 41.0243 26.1506 40.8046 26.3703L28.6999 38.475C28.471 38.7039 28.1712 38.8183 27.8714 38.8183ZM21.681 29.799L27.8714 35.9889L38.3185 25.5418L35.998 23.2218L28.6999 30.5204C28.4802 30.7402 28.1822 30.8633 27.8714 30.8633C27.5605 30.8633 27.2625 30.7402 27.0428 30.5204L24.0014 27.479L21.681 29.799Z" fill="#BA6827"/>
<path d="M42.0957 45.832C41.7876 45.832 41.485 45.7075 41.2672 45.4887C41.0493 45.2708 40.9238 44.9682 40.9238 44.6602C40.9238 44.3521 41.0493 44.0495 41.2672 43.8316C41.485 43.6137 41.7876 43.4883 42.0957 43.4883C42.4038 43.4883 42.7064 43.6137 42.9243 43.8316C43.1422 44.0495 43.2676 44.3521 43.2676 44.6602C43.2676 44.9682 43.1422 45.2708 42.9243 45.4887C42.7064 45.7075 42.4038 45.832 42.0957 45.832Z" fill="#BA6827"/>
</svg>
