<svg width="54" height="54" viewBox="0 0 54 54" fill="none" xmlns="http://www.w3.org/2000/svg">
<path d="M26.9316 33.9082C26.7647 34.8072 26.1359 35.6164 25.3018 36.0928L25.3008 36.0938C24.4675 36.5728 23.4436 36.7421 22.4355 36.665H22.4365C22.2233 36.6477 22.0055 36.6202 21.7773 36.5898C21.553 36.56 21.3148 36.5273 21.0771 36.5029C20.6008 36.454 20.0857 36.4341 19.5625 36.5439H19.5615C18.4937 36.7701 17.6317 37.4959 16.8965 38.0723C16.1638 38.6467 15.5397 39.0907 14.8271 39.1895L14.6836 39.2051C13.5832 39.2741 12.5323 38.4411 11.7617 37.3506L11.7588 37.3467L11.5645 37.0596C11.3804 36.7681 11.2302 36.4656 11.1436 36.1689C11.0305 35.782 11.0315 35.4342 11.1689 35.1289C11.1807 35.1264 11.2012 35.1222 11.2334 35.1211C11.2985 35.1188 11.3781 35.1254 11.4873 35.1377C11.5836 35.1485 11.7205 35.1662 11.8447 35.1719C12.919 35.2211 13.995 35.2404 15.0703 35.2305C19.0611 35.1935 23.0418 34.7481 26.9316 33.9082Z" stroke="#BA6827"/>
<path d="M31.73 33.0811C32.2679 32.8036 32.8904 32.8035 33.5493 33.0088C34.2115 33.2152 34.8734 33.62 35.4341 34.0889L35.436 34.0908C35.7256 34.3299 36.0094 34.5856 36.3052 34.8506C36.5979 35.1127 36.9023 35.383 37.2183 35.6357C37.8497 36.1408 38.5589 36.6012 39.4067 36.8242L39.4097 36.8252C40.447 37.0925 41.4676 36.9546 42.4253 36.6982C42.9045 36.5699 43.3783 36.4091 43.8364 36.248C44.2994 36.0852 44.7409 35.9234 45.1812 35.7842L45.1821 35.7852C47.196 35.1584 49.4492 35.0753 51.3481 35.752C48.7521 43.5509 41.9417 49.1121 34.3667 51.3193L33.6187 51.5254C32.0735 51.9246 31.3023 52.064 30.7729 52.125C30.5076 52.1556 30.2983 52.1677 30.0659 52.1816C29.8329 52.1957 29.5827 52.2118 29.2563 52.2529C28.8651 52.3022 28.4966 52.4286 28.1802 52.5391C27.8474 52.6552 27.5683 52.7548 27.2847 52.8018C23.9892 53.3462 21.0983 51.2248 20.3872 48.2627C21.297 48.4695 22.1785 48.5672 22.9683 48.3965C24.0335 48.1661 24.8578 47.4696 25.3784 46.168C25.5242 45.8035 25.5834 45.3622 25.6431 45.0527C25.7104 44.7035 25.7866 44.4489 25.9263 44.2598C26.1557 43.9491 26.766 43.5733 28.9214 44.0088C29.5126 44.1282 30.2168 44.1974 30.8667 44.0879C31.5208 43.9777 32.1829 43.6728 32.5591 42.9932V42.9922C32.8578 42.4512 32.8706 41.8776 32.7505 41.3262C32.6328 40.7864 32.3808 40.2326 32.1069 39.6943C31.5372 38.5746 30.8674 37.4862 30.6157 36.3135V36.3125C30.4817 35.6884 30.5051 34.9994 30.6978 34.4033C30.8898 33.8093 31.2369 33.3379 31.73 33.0811Z" stroke="#BA6827"/>
<path d="M50.2846 39.4656C46.9119 45.7018 40.4062 50.7964 31.3544 52.5477C19.0332 54.8575 4.55572 46.9142 2.21988 33.1335C2.17476 32.8672 2.02361 32.4489 2.3012 32.2605C2.63042 32.037 4.69569 31.9843 4.97902 32.0494C5.34884 32.1342 5.30063 32.2972 5.4792 32.8505C9.14194 44.2308 22.2577 51.1584 33.8196 48.9908C37.9489 48.2177 41.6821 46.7516 45.1481 44.3182C49.588 41.2081 49.222 40.309 50.2846 39.4656Z" fill="#BA6827"/>
<path d="M34.7983 18.1035C38.4607 18.0983 41.4328 21.0607 41.438 24.7168C41.4431 28.379 38.4807 31.3513 34.8247 31.3564C31.1624 31.3616 28.1904 28.3991 28.1851 24.7432C28.18 21.0809 31.1423 18.1085 34.7983 18.1035ZM35.1509 22.7158C35.1482 21.4629 33.8841 20.6432 32.7603 21.0742C30.9777 21.7499 31.3877 24.485 33.3901 24.4854C33.6341 24.4854 33.867 24.4355 34.0786 24.3457C33.9942 24.9594 34.3587 25.6297 35.1011 25.748V25.749C35.103 25.7493 35.105 25.7487 35.1069 25.749L35.1089 25.75V25.749C35.8416 25.8693 36.5306 25.2913 36.5308 24.5312C36.5308 23.8467 35.9694 23.3 35.2944 23.2998C35.2097 23.2998 35.1257 23.309 35.0435 23.3262C35.0928 23.19 35.1289 23.047 35.1431 22.8975L35.1509 22.7158Z" stroke="#BA6827"/>
<path d="M45.2772 10.594C45.3774 10.8306 45.3941 11.9058 46.2972 11.3031C47.5982 10.4709 49.7259 8.60066 50.7372 7.6049C51.3045 7.04853 52.0081 6.35046 52.2427 5.48314C52.7554 3.59043 51.6045 1.50676 49.6681 0.835861C47.4677 0.0725443 45.2919 1.38651 44.6008 3.04498C44.2409 3.90684 44.3718 4.81771 44.4917 5.69581C44.5178 5.87828 44.9002 8.99154 45.2772 10.594ZM45.359 3.36138C45.9283 1.99248 47.7073 1.0166 49.4008 1.6105C50.939 2.13944 51.8608 3.7814 51.4572 5.26502C51.2772 5.92499 50.6827 6.50867 50.159 7.02682C49.1429 8.02684 47.2025 9.72098 46.0899 10.4632C45.8771 9.26027 45.9752 10.4475 45.3045 5.58129C45.1954 4.81225 45.0863 4.0159 45.359 3.36138Z" fill="#BA6827"/>
<path d="M47.7919 5.92463C49.7745 6.58617 51.1501 4.02264 49.6519 2.69545C48.6421 1.80871 47.0886 2.2647 46.6519 3.51922C46.3064 4.48867 46.8084 5.58148 47.7919 5.92463ZM48.4356 3.05553C49.1225 3.05553 49.6442 3.72602 49.4065 4.47377C49.2086 5.03239 48.6229 5.33808 48.0592 5.14999C46.9361 4.75245 47.2575 3.05553 48.4356 3.05553Z" fill="#BA6827"/>
<path d="M53.2465 25.4516C53.2249 25.2363 53.034 25.0742 52.821 25.0861C52.8195 25.0861 52.818 25.0867 52.8165 25.0867C52.5221 24.7782 52.0454 24.5053 51.4028 24.2723C51.4027 24.2163 51.3917 20.7973 51.3919 20.8533L51.3865 16.0697C51.3755 15.1425 50.6174 14.3898 49.6956 14.3898H48.6865C48.654 14.1155 48.8246 13.5133 48.3101 12.9989C48.0647 12.7589 47.7428 12.6225 47.4046 12.6225C47.4046 12.6225 47.4046 12.6225 47.3992 12.6225L42.6592 12.6334C41.9556 12.6334 41.3828 13.2115 41.3828 13.9152V14.4062L28.2701 14.428L28.2646 13.2443C28.2646 12.7807 27.8883 12.3988 27.4246 12.3988C27.4192 12.3988 27.4192 12.3988 27.4192 12.3988L24.3974 12.4043C23.9283 12.4043 23.5519 12.7861 23.5519 13.2497L23.5574 14.4333L21.6428 14.4388C20.9228 14.4388 20.3174 14.8916 20.0665 15.5189C19.9129 15.0324 20.6089 17.2772 18.4137 10.1789C18.3265 9.91149 18.2337 9.63344 18.1901 9.36604C17.95 8.01343 16.7086 7.90924 15.3319 7.76789L14.841 5.65706C14.6883 5.008 14.1919 4.51155 13.5374 4.3588C8.00102 3.08799 3.74102 5.92978 2.16465 7.21152C1.64646 7.64245 1.42829 8.31335 1.59192 8.97346L2.23556 11.4716C2.06101 11.5806 1.88646 11.6951 1.71737 11.8098C0.522821 12.6225 0.484636 13.5825 0.664645 14.2534C0.743434 14.5268 0.107068 12.3425 5.14827 29.4333C5.14827 29.4388 5.15373 29.4443 5.15373 29.4497C5.15426 29.4514 5.15479 29.4533 5.15532 29.4552C3.48562 30.2073 0.630815 31.7255 1.82101 33.1295C1.82154 33.1298 1.81898 33.1315 1.82101 33.1315C1.92094 33.8816 2.18079 35.1065 2.63373 36.5297C7.15436 50.576 25.5514 58.365 40.7392 49.5934C45.4119 46.9317 49.0552 42.8852 50.8792 39.2352C51.4683 38.0679 51.9537 36.868 52.3574 35.5806C52.3574 35.5752 52.3574 35.5752 52.3574 35.5752C53.3835 32.259 53.6251 28.9154 53.2465 25.4516ZM42.201 13.9152C42.201 13.6588 42.4083 13.4516 42.6646 13.4516L47.4046 13.4407C47.5246 13.4407 47.6446 13.4897 47.7319 13.5771C47.9337 13.7787 47.8468 14.0172 47.8683 14.2916L42.201 14.3024V13.9152ZM48.2684 29.8813C49.1463 30.4131 49.2404 31.6621 48.4492 32.3196C48.0355 32.6637 47.423 32.8393 47.0627 33.4185C46.5114 34.3046 47.0399 35.3172 47.0736 36.1247C47.1037 36.8404 46.6765 37.5619 46.0346 37.8799C45.393 38.1974 44.5599 38.1002 44.0091 37.6434C43.4669 37.1926 42.8496 36.027 41.7195 36.1311C41.3322 36.1674 41.0145 36.3623 40.7343 36.5341C40.4829 36.6888 40.2738 36.8327 40.0597 36.8151C39.6945 36.8026 39.4069 36.3232 39.2596 35.8789C38.5659 33.7821 39.2579 32.2431 39.249 32.004C42.7443 31.2095 45.7655 30.3272 48.0908 29.4297C48.0466 29.6003 48.1101 29.7853 48.2684 29.8813ZM6.6985 24.2925C6.58584 23.6768 6.66281 22.8413 7.21599 22.3432C7.61842 21.9807 8.26429 21.8497 8.85688 22.0082C8.91584 22.0239 8.97307 22.0528 9.03147 22.074C8.10313 22.0999 7.38019 23.1853 7.99516 24.5991C8.22514 25.1279 8.55949 25.8383 9.13424 25.8542C8.64718 26.0935 8.16834 26.3474 7.69307 26.6087C7.65905 26.3873 6.89484 25.3642 6.6985 24.2925ZM11.2061 24.8572C11.2273 24.9232 11.222 24.8948 11.2282 24.9122C11.2046 24.9219 11.1808 24.9309 11.1572 24.9408C11.1779 24.916 11.1891 24.8846 11.2061 24.8572ZM19.9683 23.3717C19.9684 23.4286 19.9793 27.5469 19.9792 27.4918C18.2977 27.0557 17.015 28.2615 16.7809 29.8906C16.5669 31.2838 16.9259 32.6415 17.2201 34.0207C16.4106 34.0667 16.0449 34.0906 14.475 34.1352C14.4169 33.2845 14.0744 31.4704 13.6552 30.6633C12.0773 27.628 8.25558 28.3358 8.3077 31.6399C8.32198 32.5226 8.62201 33.3628 8.89996 34.1134C8.84414 34.1105 8.31313 34.094 7.35738 34.0207C7.21799 33.5654 7.81343 35.5689 5.78684 28.6982C10.0333 25.906 14.9248 24.0749 19.9683 23.3717ZM14.7796 21.3082C14.7693 20.6824 14.9818 19.8708 15.6093 19.47C16.0655 19.1784 16.722 19.1533 17.2832 19.4082C17.3389 19.4335 17.3907 19.4715 17.4449 19.5018C16.5014 19.3725 15.6386 20.3488 16.0085 21.8231C16.11 22.2278 16.2915 22.9017 16.6877 23.151C16.2291 23.2586 15.7746 23.381 15.3206 23.5068C15.0549 22.7907 14.7919 22.0525 14.7796 21.3082ZM19.1337 22.6036C19.1446 22.6766 19.1452 22.6482 19.15 22.6711C19.1206 22.6757 19.091 22.68 19.0616 22.6848C19.0895 22.6615 19.1099 22.6309 19.1337 22.6036ZM40.581 21.2843C43.2278 25.688 40.0643 31.4462 34.8265 31.4462C29.575 31.4462 26.407 25.7299 29.0283 21.3061C31.6562 16.8978 37.9967 16.949 40.581 21.2843ZM9.71435 34.146C9.72817 34.0748 9.7301 34.0007 9.70303 33.9277C9.42551 33.1801 9.1384 32.4072 9.12588 31.6269C9.10529 30.3189 9.92454 29.3262 11.2192 29.5966C10.797 29.6241 10.5199 29.9594 10.4203 30.3509C10.2398 31.0611 10.6402 32.8344 10.8603 33.5938C10.9207 33.8023 10.9972 34.0162 11.1423 34.1734C10.2815 34.1734 9.81928 34.1497 9.71435 34.146ZM18.5434 29.5162C18.467 29.9199 18.5052 30.3343 18.5761 30.7434C18.5858 30.7993 19.1249 33.721 19.1812 33.8899C19.148 33.894 18.0772 33.9751 18.0451 33.9661C17.7711 32.6597 17.3929 31.2945 17.59 30.011C17.7707 28.7576 18.6837 27.9043 19.9211 28.3336C19.1836 28.2525 18.6742 28.8484 18.5434 29.5162ZM50.5847 27.3116C47.6516 28.9015 41.9811 30.4556 39.1465 31.0479C39.1196 31.0616 38.8215 31.1235 38.7919 31.1298C42.194 29.0271 43.2745 24.6647 41.5137 21.2843L50.5737 21.2679L50.5847 27.3116ZM33.5828 32.1606C32.7142 32.3159 35.0523 31.9846 20.8083 33.7698C20.806 32.657 20.7918 24.4302 20.7865 21.317L28.0955 21.3061C25.7988 25.7836 28.5278 31.3337 33.5828 32.1606ZM24.3974 13.2224L27.4465 13.2443L27.4519 14.428L24.381 14.4333L24.3974 13.2224ZM21.6428 15.257C61.9488 15.1864 5.54454 15.2827 49.6956 15.208C50.1701 15.208 50.5628 15.5952 50.5683 16.0697L50.5737 20.4497L41.0228 20.4661C38.1234 16.1479 31.6216 16.0539 28.581 20.4879L20.7865 20.4989C20.7864 20.4443 20.7806 17.6724 20.781 17.8479L20.7756 16.1243C20.7756 15.6497 21.1628 15.257 21.6428 15.257ZM2.68283 7.84433C5.60355 5.47115 9.47092 4.26658 13.3519 5.15528C13.701 5.23704 13.9628 5.49885 14.0446 5.84242L14.4756 7.71343C10.4611 7.56784 6.42366 8.9429 2.96645 11.0189L2.38284 8.77158C2.29555 8.42241 2.41011 8.06792 2.68283 7.84433ZM1.4501 14.0352C1.18839 13.0425 2.02192 12.5461 2.9283 12.0061C6.70675 9.60391 11.4673 8.06025 15.8555 8.6516C16.8374 8.77704 17.2737 8.90248 17.3828 9.508C17.4374 9.82973 17.5356 10.1352 17.6337 10.4352C17.6517 10.4932 18.6071 13.5777 18.5893 13.5205C18.201 13.5633 17.8134 13.6128 17.4266 13.6682C17.2959 12.8504 17.1012 12.1988 16.8121 11.6429C15.243 8.62763 11.4102 9.28293 11.4654 12.6225C11.4785 13.421 11.7261 14.1826 11.9794 14.8769C11.1205 15.137 10.2704 15.426 9.43257 15.7474C8.92822 14.2641 8.07359 12.9205 6.57253 12.5184C4.62518 11.9983 2.99359 13.5342 3.39781 15.7405C3.55954 16.6249 4.00705 17.4186 4.41035 18.1227C3.90764 18.4087 3.41153 18.7062 2.92297 19.0158C2.32959 17.0173 2.17669 16.4719 1.4501 14.0352ZM12.7659 14.6463C12.5218 13.9808 12.2948 13.2982 12.2836 12.6092C12.2732 11.9833 12.4857 11.1718 13.1132 10.771C13.57 10.4793 14.2265 10.4548 14.7871 10.7092C14.8427 10.7345 14.8945 10.7723 14.9487 10.8027C14.0308 10.6767 13.1373 11.6279 13.5125 13.124C13.5992 13.4699 13.7449 14.012 14.0321 14.3191C13.6083 14.4213 13.1859 14.5292 12.7659 14.6463ZM5.12679 17.7272C4.73734 17.0479 4.34027 16.346 4.20268 15.5932C4.08975 14.9777 4.16645 14.1422 4.7199 13.6439C5.12286 13.2814 5.76686 13.1501 6.36106 13.3089C6.42018 13.3247 6.47754 13.3536 6.53604 13.3748C5.60984 13.4007 4.88394 14.4856 5.49916 15.9C5.66253 16.2756 5.94474 16.8945 6.36345 17.0882C5.94697 17.293 5.53518 17.5068 5.12679 17.7272ZM3.1631 19.8234C4.30058 19.2404 9.88118 15.2668 18.833 14.3163C19.2664 15.7101 19.565 16.6752 19.9628 17.9352C19.9629 17.9922 19.9683 22.5992 19.9683 22.544C19.9621 22.5448 19.956 22.546 19.9498 22.547C19.6061 18.9567 16.8528 17.705 15.1688 18.7805C14.4062 19.2676 13.9436 20.2413 13.9615 21.3216C13.9756 22.1764 14.2584 22.9916 14.5294 23.725C13.6697 23.9848 12.8227 24.2832 11.9852 24.6071C11.4885 23.0694 10.6302 21.6353 9.06836 21.2177C7.11217 20.6948 5.49158 22.2412 5.89364 24.4398C6.05957 25.3456 6.52539 26.1577 6.93608 26.8744C6.95948 26.9151 6.99707 26.9394 7.03066 26.9685C6.52755 27.2595 6.03553 27.5682 5.54797 27.8838C4.78324 25.3347 3.28322 20.2418 3.1631 19.8234ZM10.8928 46.8395C11.1241 45.08 11.9849 43.3748 13.2679 42.1503C13.5508 41.8805 13.9282 41.5662 14.3391 41.5295C14.8944 41.4799 15.4071 41.9572 15.6735 42.3812C16.3018 43.3833 16.5816 45.496 18.2945 45.8827C19.4498 46.1423 20.4452 45.323 21.336 44.88C22.0346 44.5327 22.9764 44.4632 23.3477 45.0171C23.6017 45.3964 23.5429 45.9693 23.158 46.8306C22.4057 48.5142 22.3133 49.5477 23.9629 50.5926C24.3554 50.8365 24.7904 51.0852 25.0431 51.4079C25.2424 51.6622 25.3436 52.0646 25.1681 52.2985C25.1328 52.3454 25.1103 52.3975 25.0977 52.4512C19.8654 52.0481 14.7816 49.9437 10.8928 46.8395ZM51.5774 35.3352C48.1739 46.2644 36.4638 53.0089 25.9805 52.5006C26.2023 51.9505 26.0104 51.3158 25.6871 50.9034C25.3449 50.4666 24.8808 50.1999 24.4007 49.9017C23.1685 49.1207 23.2836 48.5548 23.9096 47.1542C24.2282 46.4412 24.5869 45.3972 24.0273 44.562C23.39 43.6098 22.008 43.6322 20.9719 44.1473C20.0837 44.5892 19.2679 45.2647 18.4745 45.0848C17.2814 44.8149 17.0366 43.0141 16.3665 41.9466C15.9587 41.2967 15.1949 40.6325 14.2664 40.7145C13.603 40.7736 13.0826 41.1966 12.7033 41.5585C11.3882 42.8133 10.5032 44.4576 10.164 46.2358C10.163 46.235 10.1619 46.2342 10.161 46.2334C6.17248 42.8397 3.57799 38.2683 2.77009 33.8297C2.76463 33.8188 2.76463 33.8079 2.76463 33.797V33.7922C4.03295 34.3908 5.70707 34.5982 6.86646 34.7679C7.0038 34.8366 7.00339 34.8032 8.16884 34.8999C13.841 35.3789 20.7346 34.8768 26.387 34.2071C30.1298 33.7111 33.6082 33.2378 38.3712 32.1991C38.03 33.4858 38.0643 34.8707 38.4829 36.1359C38.7906 37.0641 39.3549 37.6096 40.032 37.6327C40.8324 37.6656 41.2839 36.9938 41.7954 36.9456C42.4289 36.8843 42.9041 37.7884 43.4863 38.2727C44.29 38.9396 45.4602 39.0773 46.3979 38.6128C47.3349 38.1489 47.9349 37.1352 47.8912 36.0906C47.8782 35.7801 47.814 35.4754 47.7522 35.1806C47.4945 33.9567 47.6431 33.7856 48.4109 33.3266C48.5984 33.2145 48.7923 33.0984 48.9723 32.9487C50.1874 31.9391 50.0551 30.017 48.7009 29.1874C49.9133 28.6914 51.6197 27.9117 52.5483 26.9929C52.5293 27.7261 52.9039 31.0483 51.5774 35.3352Z" fill="#BA6827"/>
<path d="M34.2321 29.2047C36.9846 29.6532 39.48 27.5016 39.474 24.7156C39.4614 21.5481 36.2922 19.3597 33.3322 20.4774C33.3267 20.4829 33.3267 20.4829 33.3212 20.4829C32.8194 20.6739 32.3667 20.952 31.9685 21.3011C29.064 23.7789 30.399 28.6173 34.2321 29.2047ZM33.9976 23.3247C33.8067 23.5157 33.5612 23.6138 33.2558 23.5648C32.3778 23.4278 32.2836 22.2256 33.0867 21.9228C33.9684 21.6126 34.6196 22.6812 33.9976 23.3247ZM35.2467 24.852C34.9275 24.8079 34.8655 24.3507 35.1867 24.2301C35.2194 24.2139 35.2521 24.2084 35.2958 24.2084C35.4758 24.2084 35.6231 24.3557 35.6231 24.5301C35.6231 24.7102 35.4758 24.8575 35.2903 24.8575C35.2357 24.8506 35.1921 24.8452 35.2467 24.852Z" fill="#BA6827"/>
<path d="M23.6305 19.3485C24.1723 19.3477 24.6107 18.9078 24.6098 18.366C24.6089 17.8243 24.169 17.3859 23.6273 17.3867C23.0855 17.3877 22.6471 17.8275 22.648 18.3694C22.6488 18.9111 23.0888 19.3495 23.6305 19.3485Z" fill="#BA6827"/>
<path d="M43.5265 19.5059L47.7429 19.495C48.3071 19.495 48.7356 19.0404 48.7356 18.5023V17.5533C48.7356 17.0216 48.3104 16.5605 47.7429 16.5605C47.686 16.5606 43.4659 16.5661 43.5211 16.566C43.2593 16.566 43.0083 16.6696 42.8229 16.8606C42.3727 17.2978 42.5806 17.8137 42.5338 18.5132C42.5338 19.0586 42.9811 19.5059 43.5265 19.5059ZM43.5265 17.3842C47.843 17.406 47.7896 17.33 47.8629 17.4279C47.9678 17.5322 47.8891 17.5907 47.9174 18.5023C47.9174 18.6005 47.8411 18.6768 47.7429 18.6768L43.5265 18.6878C43.4284 18.6878 43.352 18.606 43.352 18.5079L43.3465 17.5586C43.3465 17.4651 43.4237 17.3842 43.5265 17.3842Z" fill="#BA6827"/>
<path d="M5.23987 4.63452C5.59646 4.63452 5.78383 4.20431 5.53657 3.94391L4.60493 2.9614C4.44939 2.79761 4.19024 2.79095 4.02645 2.94596C3.86265 3.1015 3.85573 3.36037 4.011 3.52444C4.89575 4.40077 4.93793 4.63452 5.23987 4.63452Z" fill="#BA6827"/>
<path d="M6.87674 3.77177C7.10046 3.74087 7.25707 3.53473 7.22644 3.31074L7.06504 2.13461C7.03414 1.91088 6.82853 1.75508 6.60401 1.78491C6.38029 1.8158 6.22369 2.02195 6.25431 2.24593L6.41571 3.42207C6.44542 3.63756 6.64181 3.80155 6.87674 3.77177Z" fill="#BA6827"/>
<path d="M45.9176 40.7818C45.728 40.6598 45.4747 40.7144 45.3525 40.9048C43.3856 43.9664 40.4066 46.3005 36.9634 47.4767C36.7498 47.5499 36.6356 47.7824 36.7086 47.9963C36.7829 48.213 37.0183 48.3234 37.2282 48.2509C40.845 47.0151 43.9747 44.5632 46.0407 41.3469C46.1629 41.1568 46.1078 40.9038 45.9176 40.7818Z" fill="#BA6827"/>
<path d="M35.6889 48.2934L34.5016 48.755C34.2912 48.837 34.1868 49.074 34.2686 49.2847C34.3516 49.4974 34.5902 49.5985 34.7983 49.5177L35.9851 49.0562C36.1958 48.9741 36.3002 48.7371 36.2184 48.5267C36.1366 48.3158 35.8983 48.2119 35.6889 48.2934Z" fill="#BA6827"/>
</svg>
