<svg width="376" height="391" viewBox="0 0 376 391" fill="none" xmlns="http://www.w3.org/2000/svg">
<path d="M137.946 43.4939C139.418 42.8664 140.9 42.2863 142.234 41.4293C142.919 40.9887 143.663 40.518 144.384 40.1343C145.931 39.3111 147.618 38.7029 149.212 37.9665C150.533 37.3566 151.734 36.5865 153.043 35.967C154.012 35.5086 155.066 35.0987 155.956 34.5147C157.09 33.7706 158.196 32.4594 159.645 33.0125C160.213 33.2294 160.748 33.5799 161.307 33.7785C161.929 33.9993 162.523 33.7291 163.143 33.4749C164.253 33.0199 165.386 32.5325 166.449 31.9814C167.297 31.5419 168.223 31.2213 168.993 30.4683C168.956 29.9265 168.976 27.6338 168.577 26.8208C168.47 26.6026 168.305 26.3932 168.197 26.1664C168.019 25.7888 167.914 25.4316 167.806 25.0319C167.679 24.5655 167.471 24.1531 167.302 23.7046C167.044 23.0226 167.006 22.2652 166.796 21.5642C166.564 20.7904 166.105 20.2564 166.153 19.432C166.186 18.8682 166.379 18.345 166.512 17.8041C166.773 16.7377 167.114 15.6982 167.393 14.6392C167.843 12.9319 169.519 12.0905 170.818 10.9707C171.737 10.1779 172.535 9.21864 173.318 8.3182C173.65 7.93709 174.088 7.47908 174.304 7.04357C174.578 6.48877 174.502 5.79391 174.473 5.19659C174.437 4.46131 174.606 3.96152 175.206 3.43206C176.055 2.68145 176.806 2.04543 177.843 2.74795C178.228 3.00904 178.435 3.57892 178.879 3.7578C179.629 4.0593 180.796 3.15874 181.377 2.75376C182.984 1.63316 184.573 1.03126 186.441 0.434555C188.071 -0.0863731 189.483 -0.124198 190.779 1.1403C191.267 1.61684 191.632 2.10934 192.046 2.64894C192.586 3.35393 193.092 3.66186 193.247 4.57367C193.361 5.23825 193.336 6.06093 193.664 6.65813C193.917 7.11935 194.499 7.27214 194.939 7.53063C196.111 8.2182 197.744 9.91424 199.204 9.31543C199.705 9.10998 200.131 8.74728 200.704 8.73801C201.468 8.72565 202.075 9.02468 202.742 9.28725C203.758 9.68691 205.38 9.98631 205.846 11.0975C206.436 12.5034 206.736 14.177 206.954 15.6845C207.068 16.4717 206.769 17.2535 206.645 18.0382C206.461 19.2089 206.821 20.072 207.035 21.1879C207.193 22.0101 207.056 22.8093 207.258 23.6652C207.472 24.5698 207.985 25.3389 208.29 26.2111C208.816 27.7194 208.958 29.4076 209.24 30.9694C209.379 31.7375 209.038 32.4624 208.934 33.2235C208.834 33.953 208.657 34.7143 208.684 35.46C208.708 36.11 208.861 36.6621 208.756 37.3254C208.673 37.8457 208.538 38.4627 208.792 38.9901C208.98 39.3813 209.395 39.5561 209.708 39.824C210.063 40.1283 210.509 40.3128 210.877 40.5964C211.879 41.3698 210.395 42.3716 209.681 42.8545C208.643 43.5566 208.683 45.2293 208.506 46.356C208.399 47.0407 208.432 47.6189 208.486 48.3239C208.534 48.9498 208.498 49.6072 208.605 50.2292C208.674 50.6264 208.893 50.985 208.955 51.3829C209.061 52.0633 209.115 52.5798 209.35 53.2331C209.724 54.2744 209.644 55.5003 209.849 56.5932C209.927 57.0065 210.131 57.6921 210.437 58.0035C210.982 58.5574 212.544 57.9217 213.206 57.829C213.87 57.7359 214.575 57.7193 215.243 57.687C215.964 57.6521 216.024 57.7888 216.46 58.282C216.814 58.6827 217.26 58.8465 217.699 59.1538C218.595 59.7817 219.339 60.5861 220.16 61.2787C221.002 61.9889 221.461 63.3182 222.571 63.6982C223.624 64.0584 224.712 63.7753 225.759 64.2718C226.17 64.467 226.383 64.8703 226.652 65.2343C227.217 66 227.756 66.7767 228.413 67.4634C229.001 68.0774 229.457 68.8368 229.962 69.5165C230.47 70.1994 230.88 70.6664 230.177 71.3552C229.574 71.9459 228.755 72.2967 228.031 72.7096C227.752 72.8685 227.493 73.086 227.228 73.2679C226.956 73.4543 226.581 73.8825 226.315 74.013C225.083 74.6174 224.065 72.409 223.524 71.6783C222.986 70.9515 222.601 70.1984 222.235 69.3728C222.032 68.9163 221.728 68.1614 221.382 67.8099C221.082 67.5056 220.702 67.5969 221.024 67.0475C221.29 66.5925 222.108 66.4145 221.925 65.719C221.804 65.2602 221.193 64.8227 220.878 64.5117C220.096 63.7401 219.189 63.1888 218.306 62.5454C217.276 61.7958 216.569 60.8768 215.384 60.3053C214.908 60.0755 214.381 59.8996 213.873 59.7665C212.819 59.4901 211.863 59.7876 211.157 60.6263C210.923 60.9043 210.288 61.5841 210.288 61.9722C210.288 62.1842 210.713 62.5955 210.812 62.7689C211.135 63.3377 211.307 63.9755 211.576 64.5682C211.904 65.2916 212.211 65.8895 212.413 66.6559C212.563 67.2269 212.579 67.8428 212.754 68.4003C212.955 69.0444 213.476 69.6853 213.842 70.2627C214.093 70.6589 214.421 71.1525 214.767 71.4754C215.465 70.9179 216.645 71.0675 217.434 71.3102C218.172 71.5372 219.671 71.7288 220.172 72.3682C221.241 73.7316 219.201 75.0702 218.345 75.8488C217.665 76.4667 218.165 76.898 218.639 77.555C219.051 78.1263 219.099 78.7848 218.719 79.3937C218.304 80.0575 217.401 80.2301 216.668 80.0896C215.836 79.9304 215.16 78.6793 214.696 78.0583C213.852 76.9283 213.328 75.5214 212.893 74.2072C212.468 72.923 211.978 71.7626 211.414 70.5136C210.906 69.3876 210.869 68.2763 210.522 67.1162C210.17 65.94 209.707 64.7947 209.355 63.6154C209.028 62.5195 208.541 61.4508 208.228 60.3338C207.77 58.6984 207.488 57.0047 207.171 55.3335C207.011 54.4923 206.897 53.647 207.029 52.8137C207.116 52.2619 207.075 51.849 206.937 51.3095C206.795 50.7509 206.669 50.1967 206.577 49.6378C206.465 48.9521 206.205 48.2288 206.401 47.5289C206.678 46.5362 207.082 45.687 207.16 44.6551C207.229 43.7502 207.137 42.8897 207.164 41.9757C207.184 41.2905 207.236 40.4013 206.399 40.2647C206.014 40.2018 205.638 40.3949 205.283 40.1358C205.067 39.9783 204.819 39.5251 204.692 39.3042C204.374 38.7551 203.855 37.924 203.912 37.3121C204.028 36.0479 204.884 34.9836 204.891 33.67C204.897 32.5123 204.13 31.3952 203.677 30.3407C203.196 29.2204 202.486 27.6619 201.523 26.8595C200.943 26.3768 199.67 26.1683 198.919 26.1078C197.962 26.0306 196.905 25.7867 196.091 26.3629C195.486 26.7908 195.186 27.4645 194.618 27.9546C193.862 28.6059 192.899 28.9265 192.01 29.3303C191.25 29.6759 190.793 30.4258 190.595 31.1983C190.348 32.162 191.167 32.7757 191.32 33.6508C191.449 34.3869 191.363 34.7768 191.819 35.3886C192.342 36.089 192.689 36.7071 192.671 37.6106C192.665 37.9227 192.703 38.2863 192.302 38.2689C191.775 38.246 191.214 37.4374 190.993 37.0794C190.402 36.1232 189.874 34.9573 189.425 33.948C188.739 32.4089 186.841 31.7647 185.953 30.2745C185.48 29.4808 184.903 28.7034 184.598 27.8285C184.315 27.0171 183.857 25.8225 184.04 24.9502C184.151 24.4183 184.549 24.0202 184.938 23.6725C185.499 23.1705 185.888 22.6582 186.354 22.1007C187.357 20.9001 189.266 20.8022 190.672 20.3348C191.556 20.0411 192.705 19.6436 193.394 19.0129C193.107 18.4386 192.373 18.1969 191.874 17.7792C191.378 17.3645 190.96 16.8675 190.478 16.4491C190.053 16.0812 189.792 15.6542 189.296 15.3918C188.472 14.9557 187.933 14.8526 186.984 14.9245C185.912 15.0057 184.871 15.0559 183.809 15.223C183.367 15.2926 183.03 15.4577 182.631 15.596C182.188 15.7497 182.163 15.6055 182.183 16.2011C182.235 17.7955 182.764 19.1823 182.469 20.7885C182.306 21.6822 182.005 22.7224 182.275 23.5968C182.518 24.3853 182.778 25.0836 182.665 25.8911C182.54 26.7869 182.065 27.5639 181.859 28.4481C181.61 29.519 181.602 30.8065 181.153 31.817C180.841 32.5176 179.732 33.2739 179.003 33.6071C178.184 33.9814 177.012 33.9575 176.121 34.0357C175.531 34.0873 174.89 34.0981 174.377 33.78C173.745 33.3887 173.045 33.0409 172.499 32.5473C171.855 31.9649 171.512 31.9229 170.7 32.1296C169.975 32.3139 169.398 32.3473 168.764 32.7769C167.997 33.2966 167.177 33.7244 166.403 34.2531C166.062 34.4856 165.846 34.7286 165.557 34.9822C165.343 35.1695 164.991 35.2717 164.809 35.4862C164.576 35.762 164.615 35.7812 164.829 36.0677C165.213 36.5806 165.904 37.0349 165.767 37.9876C165.591 39.2659 165.275 40.5097 165.296 41.7884C165.306 42.3866 165.38 42.9672 165.377 43.5647C165.372 44.4228 165.198 45.4374 165.366 46.2551C165.556 47.1764 165.676 48.102 166.232 48.8938C166.686 49.5389 167.003 49.699 166.558 50.3485C165.901 51.3063 164.311 53.1829 165.776 54.2917C166.195 54.6088 166.86 54.6607 167.335 54.8664C167.83 55.0809 168.149 55.3321 168.742 55.3154C169.488 55.2942 170.212 55.0267 170.951 55.0833" fill="white"/>
<path d="M170.142 55.0791C171.214 55.1886 172.286 55.3017 173.358 55.4187C173.523 55.7653 174.418 55.683 174.697 56.1307C175.041 56.684 174.328 56.8204 174.309 57.2894C174.281 57.9611 176.056 58.0061 176.542 58.0771C177.843 58.2671 179.227 58.4488 180.427 58.9874C181.242 59.3536 182.584 59.8369 183.028 60.6329C183.304 61.1275 183.079 61.9487 182.625 62.2557C181.784 62.8243 180.891 63.1711 180.099 63.8251C179.313 64.4731 178.658 65.157 178.014 65.9343C177.652 66.3708 177.75 66.4852 178.181 66.8057C178.746 67.225 179.325 67.6523 179.828 68.1395C180.247 68.5451 181.564 69.5244 181.454 70.1306C179.914 70.1442 178.164 69.5512 176.767 68.9943C175.796 68.6076 174.829 68.7012 173.825 68.6845C173.302 68.6759 172.774 68.5007 172.285 68.5563C171.76 68.616 171.261 68.4379 170.748 68.4925C169.948 68.5776 169.445 69.236 168.967 69.7698C168.265 70.5524 167.151 70.4572 166.247 70.9141C165.6 71.2411 165.209 71.8525 164.733 72.3539C163.998 73.1281 163.649 73.6357 162.527 73.3708C161.052 73.0224 159.481 71.9476 158.235 71.1312C157.241 70.4803 156.174 70.0158 155.105 69.4934C154.353 69.126 153.693 68.6018 152.89 68.333C152.278 68.1279 151.616 68.0617 151.027 67.7857C150.563 67.568 150.166 67.2933 149.683 67.1245C148.976 66.8776 148.365 66.8131 147.613 66.8269C145.695 66.8621 143.787 66.5525 141.856 66.5868C141.041 66.6013 140.06 66.5725 139.462 67.2049C139.34 67.3331 139.303 67.5733 139.214 67.7208C139.045 68.0005 138.88 68.1033 138.642 68.3168C138.271 68.6497 137.953 69.0535 137.652 69.4444C137.069 70.1998 137.27 70.9589 136.967 71.7827C136.716 72.4634 136.029 73.6172 136.561 74.1608C137.078 76.0087 137.478 77.4815 138.768 78.9057C139.101 79.2728 139.441 79.5825 139.894 79.7806C140.317 79.9655 140.815 80.0785 141.183 80.3701C141.761 80.8278 141.325 82.0096 141.288 82.6791C141.234 83.6666 141.514 84.7232 142.095 85.5232C142.449 86.0119 142.945 86.5531 143.439 86.9279C143.871 87.2552 144.452 87.3232 144.935 87.542C146.011 88.0293 146.291 89.3403 146.639 90.3661C147.068 91.6342 148.414 91.6713 149.531 91.0448C150.07 90.7423 150.63 90.4734 151.218 90.2724C151.732 90.0965 151.861 90.1294 151.957 90.7998C152.208 92.5386 150.632 92.2507 149.678 93.0804C149.299 93.4103 149.246 93.742 149.497 94.0831C149.908 94.6398 150.739 95.1428 151.291 95.5813C152.943 96.8934 155.159 97.1891 156.99 98.2368C157.917 98.7669 158.688 99.4079 159.447 100.13C160.082 100.733 160.403 101.528 161.029 102.135C161.284 102.382 163.877 104.437 162.867 104.836C161.843 105.241 159.991 103.205 159.143 104.441C158.413 105.504 159.427 106.895 159.873 107.849C160.436 109.056 161.561 109.791 162.203 110.967C163.129 112.662 164.051 116.258 166.89 115.27C168.089 114.852 166.922 112.974 166.415 112.379C165.587 111.407 163.962 111.755 163.12 110.8C162.722 110.349 162.804 109.494 162.765 108.916C162.722 108.255 162.647 107.53 163.348 107.286C164.983 106.717 166.318 108.507 167.371 109.389C168.271 110.142 169.067 110.617 170.294 110.205C171.357 109.847 171.714 108.958 172.95 109.287C173.975 109.56 175.228 109.983 176.13 110.555C176.799 110.978 177.146 111.595 177.736 112.084C178.111 112.395 178.516 112.665 178.998 112.423C179.47 112.185 179.831 111.456 179.938 110.997C180.122 110.202 179.791 109.729 179.471 108.983C178.85 107.539 177.741 106.57 176.192 106.203C175.792 106.109 175.425 106.003 175.025 105.924C174.642 105.849 174.105 105.924 173.774 105.839C172.662 105.553 171.683 103.453 171.269 102.481C171.189 102.293 171.207 102.023 171.135 101.858C170.983 101.507 171.101 101.679 170.737 101.517C170.21 101.282 169.535 101.079 169.186 100.604C168.822 100.107 168.724 99.2921 168.597 98.7106C168.261 97.1657 168.217 95.555 167.898 93.9994C167.652 92.7983 167.425 91.3038 166.367 90.5236C165.981 90.2396 165.405 90.2139 165.052 89.9347C164.647 89.6136 164.926 89.17 165.184 88.7926C165.839 87.8366 166.453 86.8723 167.117 85.9261C167.84 84.8956 168.963 84.1407 170.077 83.5293C170.664 83.2072 171.292 82.8346 171.732 82.3302C172.263 81.7199 172.621 81.0344 173.291 80.5394C173.663 80.2656 174.098 80.1006 174.452 79.7994C174.743 79.5517 174.911 79.1596 175.301 79.0572C175.751 78.9392 176.457 79.0644 176.921 79.1267C177.879 79.2552 178.793 79.5005 179.739 79.6547C181.045 79.8673 182.333 79.8477 183.605 79.9865C184.505 80.0848 184.958 81.2588 185.895 81.2464C185.915 82.9785 184.438 84.5879 183.605 86.01C183.254 86.6085 183.128 86.9994 183.489 87.6558C183.976 88.5405 184.756 89.213 185.273 90.0981C186.576 92.3313 186.65 94.8407 187.141 97.3081C187.354 98.385 187.33 99.3254 187.28 100.432C187.267 100.707 187.28 101.458 187.087 101.691C186.897 101.92 186.313 102.068 186.043 102.203C185.387 102.53 184.663 102.948 184.275 103.599C183.814 104.372 184.275 105.67 184.535 106.46C184.838 107.379 185.494 108.193 185.832 109.112C186.068 109.753 186.155 110.34 186.954 110.419C187.793 110.502 188.698 109.772 189.415 109.407C189.808 109.207 190.234 109.105 190.663 108.956C191.387 108.704 191.995 108.289 192.669 107.939C193.845 107.328 194.825 106.44 195.609 105.398C196.444 104.288 197.875 103.644 199.229 103.283C201.002 102.81 202.654 102.38 204.216 101.397C204.742 101.066 205.291 100.915 205.915 100.733C206.683 100.509 207.398 100.198 208.189 100.03C209.284 99.7973 210.25 99.2749 211.31 98.9418C211.814 98.7833 212.913 98.2146 213.424 98.4609C213.395 99.2192 213.016 100.034 212.485 100.598C212.246 100.852 211.779 101.103 211.957 101.504C212.19 102.028 213.292 102.149 213.782 102.175C214.494 102.213 215.411 101.951 216.141 101.871C216.787 101.801 218.072 101.244 218.711 101.617C219.403 102.022 218.506 102.871 218.104 103.252C216.991 104.305 215.685 104.759 214.159 104.392C213.37 104.202 212.532 104.123 211.751 103.91C210.94 103.689 210.163 103.366 209.297 103.344C207.567 103.302 206.133 104.111 204.504 104.548C203.894 104.712 203.383 104.92 202.906 105.311C202.421 105.709 201.849 106.045 201.38 106.437C201.01 106.747 200.768 107.19 200.958 107.64C201.294 108.436 202.025 109.132 202.453 109.896C202.857 110.618 203.453 111.978 203.019 112.758C202.733 113.273 202.2 113.496 201.67 113.712C200.933 114.012 200.214 114.361 199.543 114.782C199.159 115.022 198.987 115.2 198.559 115.205C197.757 115.216 197.029 114.466 196.447 114.009C195.881 113.565 195.49 113.212 194.7 113.35C194.22 113.434 193.889 113.774 193.481 114.008C192.493 114.572 191.565 115.225 190.561 115.761C189.554 116.299 188.598 116.63 187.973 117.612C187.267 118.721 187.995 119.9 188.875 120.652C189.301 121.017 189.629 121.388 189.919 121.856C190.215 122.334 190.15 122.592 190.051 123.143C189.958 123.659 189.661 123.973 189.405 124.42C189.01 125.107 188.96 125.863 189.2 126.583C189.451 127.332 189.827 128.147 190.338 128.8C190.789 129.377 191.459 129.745 191.639 130.482C191.776 131.039 191.648 131.526 191.245 131.874C190.932 132.143 190.402 132.181 190.158 132.474C189.496 133.273 190.594 134.518 190.383 135.34C189.811 135.333 189.096 133.773 188.801 133.37C187.722 131.897 186.512 130.666 185.831 128.953C185.505 128.131 185.244 127.299 184.721 126.567C184.363 126.067 183.929 125.624 183.619 125.091C182.865 123.791 182.423 122.415 181.779 121.081C181.264 120.015 181.015 118.966 180.678 117.841C180.456 117.099 180.263 116.575 179.54 116.217C178.994 115.947 177.551 115.665 177.187 116.328C176.795 117.044 177.435 118.407 177.702 119.043C178.05 119.875 178.543 120.542 179.03 121.291C179.533 122.065 179.792 122.968 180.037 123.841C180.321 124.856 180.762 125.547 181.384 126.4C181.954 127.181 182.141 128.092 182.642 128.906C183.34 130.038 184.077 131.161 184.852 132.244C186.027 133.883 186.696 135.968 188.225 137.371C188.615 137.729 188.906 137.934 189.043 138.484C189.124 138.81 189.211 139.496 188.932 139.739C188.759 139.889 187.888 139.959 187.648 139.979C187.197 140.014 186.77 139.841 186.274 139.841C184.876 140.757 183.097 141.589 182.051 142.897C181.756 143.266 181.521 143.666 181.259 144.053C180.923 144.548 180.521 144.862 179.902 144.961C180.033 145.455 179.785 146.111 179.727 146.604C179.516 148.42 180.196 150.483 180.744 152.201C181.112 153.355 181.309 154.512 181.518 155.701C181.63 156.342 182.071 157.41 181.938 158.01C181.902 158.173 181.611 158.665 181.458 158.725C181.094 158.87 181.185 158.652 180.967 158.533C180.704 158.39 180.457 158.025 180.084 158.091C179.496 158.196 179.44 159.069 179.337 159.486C178.965 160.984 178.457 162.432 179.156 163.959C179.509 164.728 180.098 165.673 180.904 166.09C181.687 166.495 182.634 166.388 183.493 166.386C185.407 166.382 185.087 167.731 185.549 169.151C185.707 169.637 186.003 169.991 185.573 170.439C185.345 170.678 185.295 170.622 185.002 170.709C184.328 170.908 183.711 171.068 183.082 171.422C182.022 172.018 181.89 172.393 181.807 173.536C181.673 175.4 181.34 177.258 181.274 179.125C181.222 180.593 181.4 181.976 181.653 183.417C181.822 184.387 181.932 185.311 182.422 186.189C182.776 186.823 182.976 187.312 183.102 188.038C183.258 188.937 183.275 189.936 183.795 190.707C184.172 191.267 184.665 191.496 185.204 191.884C186.122 192.546 186.822 192.691 187.95 192.736C188.81 192.77 189.594 192.677 190.404 193.017C190.813 193.189 191.579 193.434 191.851 193.794C192.341 194.443 191.774 195.14 191.411 195.682C190.578 196.926 189.372 197.885 188.401 199.024C186.877 200.813 186.721 203.08 186.287 205.267C186.043 206.496 185.801 207.51 185.874 208.78C185.943 209.966 186.166 211.175 186.194 212.352C186.246 214.605 185.509 216.666 185.193 218.855C185.021 220.041 184.767 221.238 184.478 222.397C184.156 223.689 184.019 224.951 183.566 226.212C182.771 228.42 182.08 230.539 182.128 232.901C182.194 236.186 181.701 239.694 180.981 242.894C180.614 244.525 179.348 245.821 179.115 247.517C179.024 248.176 178.957 248.669 178.702 249.303C178.592 249.576 178.49 250.19 178.569 250.328C178.423 253.243 178.447 256.134 178.696 259.024C178.83 260.579 178.802 262.287 178.616 263.847C178.358 266.008 178.259 268.187 177.955 270.336C177.784 271.55 177.586 273.015 177.773 274.224C177.819 274.523 177.858 274.795 177.992 275.046C178.052 275.157 178.217 275.25 178.293 275.372C178.489 275.687 178.475 276.083 178.545 276.434C178.784 277.639 179.211 278.732 179.099 279.982C178.938 281.773 177.759 283.188 177.119 284.815C175.815 288.133 177.091 291.896 176.016 295.28C175.241 297.72 175.33 300.099 175.146 302.61C175.075 303.578 174.633 304.492 174.58 305.455C174.535 306.282 174.513 307.124 174.489 307.949C174.458 309.006 174.099 310.029 173.786 311.028C173.398 312.269 172.451 313.304 172.357 314.625C172.294 315.514 172.183 316.409 172.161 317.302C172.135 318.32 172.585 319.183 172.794 320.179C173.049 321.398 173.341 322.61 173.681 323.81C174.042 325.088 173.97 325.931 172.993 326.342C173.277 328.345 173.572 330.151 173.608 332.119C173.627 333.142 173.447 334.158 173.482 335.181C173.558 337.459 174.105 339.379 174.991 341.445C175.414 342.432 176.328 344.317 175.148 345.039C174.738 345.289 174.231 345.353 173.785 345.521C173.114 345.774 172.638 346.146 172.209 346.691C171.807 347.201 171.522 347.761 171.082 348.247C170.458 348.933 169.732 349.518 169.102 350.197C167.657 351.758 167.067 353.86 165.916 355.617C165.165 356.762 164.156 357.764 163.344 358.878C162.166 360.494 160.453 361.562 159.264 363.173C158.584 364.095 157.866 364.897 157 365.664C156.331 366.256 155.655 366.868 155.09 367.557C154.431 368.362 154.132 369.362 153.53 370.202C152.506 371.634 150.993 372.707 150.042 374.188C149.736 374.664 149.534 375.158 149.326 375.673C148.952 376.601 148.434 377.191 147.753 377.929C146.144 379.672 145.724 382.6 146.146 384.849C146.391 386.161 146.348 387.489 146.582 388.798C146.66 389.229 146.686 389.708 146.809 390.128C146.899 390.434 147.09 390.669 147.073 390.994C146.363 391.145 145.807 388.617 145.702 388.157C145.307 386.424 144.199 385.077 143.623 383.4C143.233 382.264 142.617 380.872 141.83 379.922C141.666 379.724 141.391 379.615 141.227 379.444C140.979 379.184 140.875 378.89 140.671 378.606C140.234 377.998 140.037 377.754 139.902 376.974C139.717 375.907 139.653 374.88 139.574 373.808C139.362 370.941 137.278 368.492 136.223 365.889C136.01 365.364 135.9 364.808 135.641 364.298C135.448 363.917 135.131 363.656 134.928 363.297C134.474 362.494 134.439 361.301 134.303 360.408C133.955 358.14 133.866 355.783 133.637 353.5C133.251 349.639 132.576 345.72 130.237 342.446C129.618 341.581 129.188 340.551 128.511 339.738C128.042 339.174 127.68 338.704 127.291 338.073C126.323 336.501 125.227 334.925 124.435 333.261C123.419 331.125 121.744 329.511 120.565 327.48C119.758 326.091 118.918 324.729 118.116 323.339C117.642 322.518 117.342 321.584 116.754 320.825C116.216 320.129 115.611 319.53 115.113 318.797C114.085 317.286 112.826 315.556 112.281 313.813C111.783 312.219 111.346 310.603 110.834 309.015C110.302 307.365 110.279 305.442 109.342 303.942C108.864 303.176 108.251 302.265 107.385 301.882C106.549 301.512 105.62 301.695 105.214 302.553C104.91 303.196 105.548 303.954 105.817 304.505C106.016 304.914 106.235 305.244 106.486 305.616C106.915 306.253 107.429 306.584 107.945 307.119C108.55 307.745 109.317 309.173 109.236 310.063C109.216 310.277 109.117 310.499 108.952 310.633C108.188 311.251 107.527 310.037 107.13 309.499C106.256 308.312 105.813 306.915 104.987 305.735C104.03 304.369 103.37 302.793 102.179 301.589C100.865 300.259 99.3878 299.069 98.0337 297.777C97.203 296.984 96.3542 296.205 95.5255 295.411C94.8804 294.793 94.3583 294.046 93.6408 293.499C93.1419 293.118 92.5553 292.904 92.0673 292.513C91.0753 291.717 90.4093 290.537 89.7578 289.496C88.9622 288.224 88.0356 286.927 87.0511 285.794C86.1195 284.721 84.8371 283.865 83.6584 283.049C82.3057 282.113 80.7177 281.722 79.3262 280.842C76.5561 279.091 73.5474 277.718 71.3032 275.314C69.7225 273.621 67.6474 272.227 66.6967 270.063C65.5123 267.367 64.7849 264.421 64.2402 261.549C63.6397 258.382 63.0577 255.257 62.1238 252.16C61.7267 250.844 61.4345 249.604 61.1542 248.257C61.0311 247.665 60.3961 246.488 61.5716 245.88C61.099 244.954 59.9889 243.545 60.0914 242.486C60.1307 242.08 60.4328 241.697 60.6485 241.361C61.0203 240.783 61.189 240.199 61.4303 239.569C62.205 237.547 63.5909 235.581 64.9546 233.889C65.8049 232.835 66.5153 231.72 67.3277 230.64C68.0979 229.618 69.16 228.851 70.0164 227.898C70.725 227.109 71.1059 226.162 71.4457 225.187C71.7894 224.201 72.2103 223.285 72.6176 222.327C72.9498 221.546 73.1107 220.673 73.1292 219.835C73.1547 218.666 73.3394 217.512 73.2541 216.349C73.1111 214.399 73.2772 212.495 73.4559 210.561C73.6602 208.35 74.473 206.546 76.0232 204.886C77.0978 203.734 77.9487 202.602 78.564 201.144C78.9037 200.339 79.342 199.575 79.8833 198.88C80.8134 197.686 81.73 196.378 82.1737 194.947C82.4009 194.214 82.3217 193.503 82.35 192.754C82.3521 192.699 82.3562 192.644 82.3616 192.588C82.4546 191.641 82.3029 190.688 81.8649 189.836C81.4981 189.122 81.0427 188.257 80.7235 187.72C80.5513 187.43 80.4613 186.966 80.4584 186.632C80.4507 185.767 80.9009 184.802 80.9747 183.923C81.1328 182.043 79.8296 181.005 79.0758 179.422C78.196 177.575 78.4891 175.177 78.7414 173.164C79.0591 170.628 79.2284 168.089 79.0148 165.534C78.9009 164.172 78.9532 162.797 79.0002 161.468C79.0311 160.594 78.9172 159.473 78.6097 158.674C78.3182 157.918 77.7584 157.49 77.5009 156.738C77.3564 156.316 77.0732 156.116 76.9392 155.764C76.7001 155.134 76.9634 154.101 77.0514 153.479C77.1788 152.578 77.1365 151.664 76.9671 150.759C76.8064 149.9 76.6099 148.647 76.0934 147.892C75.6798 147.287 74.8817 146.842 74.216 146.52C73.9505 146.391 73.6549 146.192 73.368 146.145C72.9136 146.071 72.6658 146.281 72.3317 145.907C71.656 145.15 72.6834 144.465 72.7116 143.746C72.7379 143.074 71.5651 142.354 71.1196 141.723C70.5118 140.862 70.1205 140.452 69.0282 140.217C68.5078 140.105 67.2505 140.162 66.9344 139.687C66.5263 139.073 67.0904 137.856 67.5191 137.398C68.0434 136.837 69.4233 136.489 69.1096 135.486C68.8641 134.701 67.6997 135.012 67.0778 134.903C66.1248 134.737 66.0143 134.068 65.6392 133.212C64.6824 131.029 63.4511 128.99 62.6923 126.76C62.5545 126.355 62.3609 125.99 62.278 125.588C62.1688 125.058 62.3329 124.946 62.4743 124.548C62.8076 123.609 62.3245 123.21 61.6381 122.59C61.0499 122.059 60.5164 121.385 59.9214 120.889C58.9806 120.104 58.1136 121.046 57.3633 121.589C56.8517 121.96 56.2347 122.458 55.678 121.97C55.459 121.778 55.3088 121.22 55.1811 120.954C54.8994 120.368 54.8901 120.349 55.1712 119.811C55.6251 118.943 56.0133 118.201 56.6836 117.526C57.0974 117.11 57.353 116.615 57.3851 116.065C57.4464 115.014 57.2836 113.683 57.1097 112.656C56.7857 110.743 56.4745 108.898 56.3133 106.949C56.1561 105.048 56.0395 103.139 55.847 101.242C55.6842 99.6373 55.5102 97.8878 55.0789 96.3239C54.7545 95.1479 54.2514 93.9094 54.3495 92.6668C54.4335 91.6043 55.043 90.4933 55.5047 89.5568C56.1393 88.2699 56.5117 87.09 57.9353 86.7244C58.6126 85.3473 59.6996 83.8605 59.7196 82.2899C59.7304 81.441 59.5106 80.8645 59.2275 80.1094C58.6505 78.5706 57.5841 77.5106 58.333 75.8493C59.1397 74.0596 58.9654 71.8137 58.8528 69.9062C58.7269 67.7732 56.0328 66.9741 54.5112 65.988C53.5736 65.3803 53.2361 63.9536 52.9298 62.9647C52.6319 62.0026 52.3983 60.982 52.1881 60.0294C52.0719 59.5029 51.9444 58.4787 52.0983 57.9879C52.2925 57.3684 53.13 56.5444 53.6328 56.0851C54.2598 55.5121 54.4644 56.0375 54.9648 56.4376C55.7378 57.0557 56.4299 57.1217 57.1544 56.3868C58.0003 55.5287 58.364 54.3808 59.0258 53.4149C59.5514 52.6477 60.2264 52.1948 60.8678 51.5353C61.4115 50.9762 62.2269 50.3002 62.5967 49.6275C62.989 48.914 62.9285 48.091 63.2467 47.3534C63.5716 46.6001 64.0502 46.5398 64.911 46.4854C65.3711 46.4562 65.9735 46.7273 66.3198 47.0209C66.3451 47.0424 66.3735 47.0569 66.4069 47.0619C67.9394 46.6935 69.3698 46.4208 70.7338 45.6942C71.3748 45.3528 72.0126 45.0146 72.6967 44.7452C73.9145 44.2657 75.0899 43.4584 76.3498 43.1741C78.677 42.6489 80.9898 41.8228 83.4226 41.995C84.905 42.1 86.0792 41.5871 87.5223 41.4018C88.9675 41.2162 90.2895 41.5874 91.7173 41.7253C94.5508 41.999 97.3421 41.2432 100.189 41.6942C101.168 41.8493 102.23 41.9859 103.226 41.917C104.085 41.8576 104.934 41.6713 105.786 41.6217C106.672 41.5702 107.571 41.7466 108.386 41.4231C109.088 41.1441 110.047 40.6785 110.463 40.045C110.972 39.2702 111.445 38.5183 112.029 37.785C112.398 37.3223 112.716 36.798 113.252 36.5022C114.449 35.8417 116.429 35.4883 117.784 35.7778C118.835 36.0023 119.779 36.6635 120.746 37.1021C121.342 37.3728 122.076 37.6756 122.555 38.1364C123.174 38.7331 123.694 39.4572 124.208 40.1505C124.362 40.3594 124.539 40.5649 124.665 40.7879C124.917 41.2322 124.932 41.2369 125.439 41.5033C126.41 42.0131 127.118 42.5116 128.187 42.8531C129.467 43.2614 130.754 43.0452 132.067 43.2242C133.411 43.4075 134.66 43.6519 136.024 43.6572C136.868 43.6606 137.675 43.4042 138.496 43.4118" fill="white"/>
<path d="M19.2039 73.8984C18.4628 73.7527 17.7157 73.6733 16.9627 73.6602C16.645 73.9476 16.1644 73.9832 16.0929 74.5238C15.9789 75.384 17.1225 76.1192 17.8457 76.3655C19.0752 76.7844 20.4905 76.3445 21.7213 76.8883C22.6102 77.2811 23.3477 77.2744 24.3257 77.2741C24.988 77.2739 25.7262 77.4006 26.2626 76.9484C26.6808 76.5959 26.3972 76.3929 26.0522 76.0785C25.5051 75.5798 24.8797 75.3618 24.1753 75.1311C23.3453 74.8594 22.4952 74.5662 21.6404 74.3737C20.5674 74.1321 19.4998 74.1876 18.4034 74.1876" fill="white"/>
<path d="M43.7173 68.3037C43.7643 69.7056 43.829 71.105 43.8183 72.5074C43.8151 72.9346 43.778 73.375 43.8348 73.7999C43.8973 74.2679 43.9478 74.9182 44.4216 75.1605C45.7892 75.8596 46.4562 73.1338 46.511 72.286C46.557 71.5747 46.4874 70.8699 46.3188 70.1778C46.1807 69.611 46.1725 68.8263 45.871 68.3283C45.4039 67.5564 43.4265 68.6997 43.2168 69.3647" fill="white"/>
<path d="M27.1072 93.4785C28.1235 93.3806 30.0964 92.9244 31.3595 93.1885C31.6925 93.2581 31.5406 93.2796 31.8055 93.4601C32.0463 93.6243 32.3323 93.7044 32.6204 93.7751C33.1462 93.9039 33.1014 93.8389 33.3097 94.3774C33.4666 94.7831 33.6132 95.0031 33.6111 95.4642C33.6089 95.9461 33.5558 96.3843 33.5087 96.8516C33.4602 97.3337 33.6268 97.5444 33.8121 97.9553C34.1244 98.6479 34.3189 99.8556 34.0023 100.6C33.5822 101.588 32.5019 102.303 31.9285 103.227C31.5018 103.914 31.2745 104.714 31.205 105.519C30.9751 108.182 31.2578 110.988 31.5929 113.625C31.7391 114.775 31.4523 115.971 31.6302 117.115C31.7358 117.795 31.9942 118.456 32.1131 119.139C32.2744 120.066 32.8146 121.119 33.7838 121.552C34.3688 121.814 35.5993 121.32 36.0922 121.76C36.2442 121.896 36.3316 122.198 36.4375 122.39C36.727 122.916 36.6012 123.371 36.4343 123.938C36.3219 124.32 36.2973 124.464 36.0145 124.755C35.7975 124.978 35.5276 125.131 35.3661 125.408C35.0825 125.896 35.0912 126.614 35.0205 127.153C34.9039 128.041 35.4346 128.787 35.872 129.515C36.228 130.107 36.39 130.563 36.5378 131.256C36.6381 131.727 36.7058 132.199 36.7876 132.673C36.8442 133 37.0157 133.475 36.9002 133.81C36.3005 135.551 33.3012 132.988 32.6832 132.488C31.9863 131.924 31.4218 131.116 30.6224 130.7C30.1147 130.435 29.6023 130.416 29.0288 130.419C28.1291 130.424 27.1863 130.427 26.3045 130.252C25.3848 130.07 24.5596 130.033 23.6086 130.033C22.6224 130.033 21.862 129.941 21.0131 130.467C20.633 130.703 20.2556 130.832 19.9006 131.092C19.6344 131.286 19.3757 131.485 19.1024 131.673C18.6319 131.995 18.13 132.289 17.6014 132.441C17.0033 132.614 16.6426 132.137 16.1543 131.795C15.4712 131.318 14.6525 130.722 13.7913 130.619C12.4791 130.463 10.92 130.555 9.63676 130.807C8.98406 130.935 5.9151 130.791 6.69476 129.647C6.69476 129.647 6.89491 129.551 7.09505 129.454C7.65739 128.364 8.25212 127.662 8.19538 126.535C8.17832 126.196 8.12676 125.935 7.9956 125.616C7.88113 125.336 7.76073 124.959 7.57221 124.718C7.37306 124.464 7.07193 124.307 6.86808 124.051C6.66337 123.794 6.49043 123.515 6.29189 123.253C6.10659 123.009 5.88865 122.911 5.69173 122.71C5.36488 122.377 4.9808 121.72 4.89377 121.063C5.00836 120.241 5.50803 118.479 4.89377 117.302C4.20707 115.903 3.53458 114.456 2.89028 113.053C2.61708 112.458 2.32263 111.953 2.21211 111.291C2.1241 110.763 2.24302 110.218 2.19444 109.689C2.16576 109.377 2.09604 109.082 2.08973 108.763C2.07947 108.248 1.99801 107.38 2.36243 106.95C2.69484 106.559 3.50282 106.469 3.93177 106.173C4.78931 105.582 5.13644 104.922 5.43868 103.948C5.94218 102.325 7.09937 101.025 7.68186 99.4357C7.80672 99.095 7.9956 98.4947 8.49873 98.5836C8.7048 98.62 8.8513 98.916 8.99655 99.0291C9.20349 99.1902 9.42797 99.2535 9.67187 99.3376C10.5085 99.6258 10.8284 99.549 11.548 98.9993C12.2398 98.471 13.0711 97.983 13.5715 97.271C13.7789 96.9761 13.9318 96.645 14.116 96.3511C14.3741 95.9393 14.7114 95.7777 15.0984 95.4869C15.6282 95.0884 16.1072 94.7069 16.7229 94.4697C17.0936 94.3269 17.5524 94.2858 17.9089 94.0835C18.9585 93.4883 17.7571 92.4698 17.3172 91.8983C17.0043 91.492 15.9809 90.1933 16.551 89.6641C16.9136 89.3274 18.0867 89.2724 18.4972 89.4279C18.9778 89.61 19.3957 90.026 19.8599 90.2545C20.216 90.4297 20.4763 90.5369 20.7532 90.8326C21.0228 91.1205 21.6132 92.4185 22.1868 92.2116C22.2685 91.796 22.4344 91.4507 22.3582 91.0196C22.2295 90.2913 21.7891 89.62 21.2284 89.1343C20.8877 88.8391 20.5124 88.6489 20.126 88.4392C19.7789 88.251 19.5058 87.969 19.1572 87.7832C18.7358 87.5585 18.2619 87.4891 17.8454 87.2667C17.5954 87.1332 17.3461 87.0169 17.0863 86.9009C16.0944 86.4579 14.9726 86.2158 13.904 86.0036C13.3436 85.8923 12.84 85.7106 12.3329 85.4561C11.9739 85.2758 11.6284 85.0489 11.2506 84.9086C10.9036 84.7798 10.5246 84.7512 10.1824 84.6076C9.67175 84.3932 9.25479 84.0186 8.72038 83.8501C7.88757 83.5876 7.00369 83.3841 6.14949 83.2061C5.69049 83.1104 5.21444 83.0412 4.79821 82.8166C4.43242 82.6192 4.24947 82.3128 3.92893 82.0663C3.34631 81.6181 2.56863 81.4861 1.85708 81.3471C1.49117 81.2757 -0.0942378 81.0736 0.00440975 80.4744C1.0318 80.299 2.31039 80.4422 3.31936 80.619C4.14625 80.7639 4.83765 81.078 5.61892 81.3085C6.42813 81.5474 7.29309 81.5949 8.10612 81.8517C8.81471 82.0756 9.41425 82.5196 10.1348 82.7168C10.8687 82.9177 11.5928 83.0959 12.3435 83.2182C13.5694 83.4178 14.6357 84.0154 15.7954 84.412C17.0025 84.8248 18.1405 85.4305 19.3508 85.8105C20.3097 86.1115 21.0234 86.4124 21.7037 87.1175C22.1439 87.5739 22.4386 88.1787 22.851 88.6885C23.127 89.0296 23.3279 89.2727 23.3827 89.7072C23.4548 90.28 23.3833 90.8336 23.6028 91.3894C23.9149 92.1792 24.4882 92.8679 25.1536 93.4191C25.5133 93.717 25.9443 94.157 26.4591 94.0442C26.6962 93.9923 26.8457 93.8153 27.0489 93.7148C27.3389 93.5713 27.4501 93.5736 27.8077 93.5746" fill="white"/>
<path d="M152.139 84.3583C152.181 83.1268 152.111 81.4756 152.284 80.1488C152.304 79.9926 152.325 79.6933 152.37 79.5458C152.449 79.287 152.615 79.101 152.852 78.9795C153.138 78.8328 153.676 78.7774 154.011 78.8562C154.486 78.9675 154.658 79.3684 155.048 79.6138C155.692 80.0198 156.294 79.4587 156.947 79.6715C157.596 79.8828 158.088 80.79 158.22 81.3767C158.411 82.2231 158.52 83.1016 158.405 83.9923C158.362 84.3278 158.279 84.6687 158.205 84.9975C158.095 85.4882 158.061 85.5573 157.488 85.5056C156.712 85.4357 155.889 85.2178 155.131 85.5864C154.298 85.9913 153.834 86.8336 153.148 87.3825C152.816 87.6476 152.736 87.5494 152.437 87.3384C152.141 87.1302 151.757 86.7941 151.495 86.5289C151.183 86.2144 151.069 86.0124 151.308 85.5631C151.544 85.1182 152.278 84.243 152.732 84.015" fill="white"/>
<path d="M357.979 215.163C349.206 212.745 341.89 211.517 342.837 208.119C343.783 204.722 350.691 207.414 359.464 209.832C365.432 211.477 370.74 214.268 373.524 215.884C374.169 216.258 373.912 217.18 373.166 217.171C369.942 217.132 363.947 216.807 357.979 215.163Z" fill="white"/>
<path d="M351.611 207.689L367.693 196.5L368.814 196.771L360.028 210.046L351.611 207.689Z" fill="white"/>
<path d="M350.148 212.945L358.149 230.771L359.25 231.112L358.585 215.233L350.148 212.945Z" fill="white"/>
<path d="M368.82 213.512L374.732 208.297L375.94 209.227L372.528 215.551L368.82 213.512Z" fill="white"/>
<path d="M367.898 216.82L370.269 224.318L371.786 224.138L372.132 216.97L367.898 216.82Z" fill="white"/>
<path d="M353.964 219.879L349.88 219.288C349.57 219.203 349.37 218.881 349.403 218.516C349.472 217.745 349.683 216.987 350.022 216.289L350.026 216.28C350.187 215.95 350.524 215.776 350.835 215.861L354.66 217.377L353.964 219.879Z" fill="white"/>
<path d="M357.783 206.168L353.7 205.577C353.389 205.492 353.19 205.17 353.222 204.806C353.291 204.034 353.502 203.276 353.841 202.578L353.846 202.569C354.006 202.239 354.344 202.065 354.655 202.151L358.48 203.666L357.783 206.168Z" fill="white"/>
<path d="M162.646 43.2383L162.633 45.9495L163.804 45.9573C164.586 45.9623 165.371 45.9709 166.139 45.9824L167.31 45.9999L167.341 43.289L166.169 43.2714C165.396 43.2598 164.605 43.2513 163.818 43.2461L162.646 43.2383Z" fill="#FFD000"/>
<path d="M176.952 43.6641L176.818 46.3708L177.988 46.4482C179.588 46.5541 181.18 46.679 182.72 46.8193L183.888 46.9256L184.072 44.2228L182.904 44.1164C181.347 43.9746 179.738 43.8484 178.122 43.7413L176.952 43.6641ZM193.674 45.4454L193.335 48.1282L194.494 48.324C196.084 48.5925 197.654 48.8881 199.162 49.2025L200.315 49.4431L200.731 46.7749L199.578 46.5345C198.044 46.2147 196.448 45.9142 194.833 45.6412L193.674 45.4454ZM210.182 49.3231L209.514 51.922L210.637 52.3081C212.18 52.8384 213.681 53.4097 215.099 54.0057L216.2 54.4686L217.001 51.9204L215.899 51.4575C214.438 50.843 212.892 50.2548 211.305 49.7091L210.182 49.3231ZM225.862 56.8048L224.61 59.0966L225.6 59.8208C226.945 60.8041 228.206 61.8532 229.348 62.9388L230.254 63.7993L231.741 61.7042L230.836 60.8438C229.619 59.6872 228.278 58.572 226.852 57.529L225.862 56.8048ZM238.08 70.6714L235.981 71.8755L236.501 73.0901C236.627 73.3847 236.751 73.6863 236.868 73.9868C237.375 75.2854 237.793 76.632 238.11 77.9888L238.416 79.2975L240.678 78.5898L240.372 77.2812C240.022 75.7851 239.562 74.3013 239.004 72.871C238.875 72.541 238.739 72.2096 238.601 71.886L238.08 70.6714ZM238.679 89.7417L238.488 91.079C238.25 92.7384 237.906 94.498 237.466 96.3086L237.148 97.6135L239.404 98.3478L239.721 97.0429C240.185 95.1368 240.547 93.2797 240.799 91.5228L240.991 90.1855L238.679 89.7417ZM233.806 107.78L233.328 109.018C232.764 110.479 232.134 112.062 231.344 114.001L230.844 115.227L232.964 116.383L233.464 115.157C234.261 113.201 234.897 111.602 235.468 110.123L235.945 108.886L233.806 107.78ZM226.749 125.279L226.272 126.517C225.56 128.364 224.944 130.04 224.388 131.64L223.952 132.898L226.126 133.908L226.563 132.65C227.107 131.082 227.712 129.437 228.412 127.621L228.889 126.383L226.749 125.279ZM221.031 143.704L220.805 145.034C220.479 146.953 220.254 148.844 220.138 150.654L220.051 152.006L222.387 152.207L222.474 150.856C222.584 149.153 222.796 147.37 223.104 145.558L223.33 144.228L221.031 143.704ZM223.406 162.651L221.179 163.495L221.544 164.783C222.054 166.585 222.701 168.36 223.465 170.058L224.006 171.261L226.084 170.009L225.543 168.806C224.838 167.239 224.241 165.601 223.771 163.939L223.406 162.651ZM231.717 178.331L230.12 180.315L230.978 181.239C232.126 182.475 233.382 183.695 234.713 184.864L235.646 185.684L237.063 183.525L236.13 182.705C234.862 181.59 233.665 180.429 232.574 179.254L231.717 178.331ZM245.026 189.18L243.966 191.598L245.011 192.211C246.397 193.025 247.863 193.828 249.368 194.6L250.439 195.15L251.389 192.671L250.318 192.122C248.85 191.369 247.421 190.585 246.071 189.793L245.026 189.18ZM260.215 196.56L259.482 199.135L260.594 199.559C262.073 200.123 263.614 200.679 265.175 201.214L266.298 201.598L266.963 198.998L265.84 198.614C264.301 198.087 262.783 197.539 261.328 196.984L260.215 196.56ZM276.149 201.766L275.625 204.408L276.767 204.711C278.288 205.115 279.861 205.514 281.443 205.895L282.59 206.172L283.068 203.518L281.921 203.241C280.355 202.863 278.797 202.469 277.291 202.069L276.149 201.766ZM292.426 205.523L292.046 208.198L293.202 208.418C294.746 208.712 296.335 209 297.925 209.275L299.084 209.476L299.431 206.794L298.272 206.594C296.693 206.321 295.115 206.035 293.582 205.743L292.426 205.523ZM308.878 208.247L308.604 210.939L309.768 211.098C311.325 211.31 312.922 211.517 314.516 211.713L315.681 211.857L315.929 209.161L314.764 209.017C313.179 208.822 311.59 208.616 310.041 208.405L308.878 208.247Z" fill="#FFD000"/>
<path d="M325.521 210.203L325.33 212.905L326.498 213.016C327.273 213.089 328.053 213.161 328.839 213.232L330.007 213.337L330.188 210.634L329.02 210.529C328.238 210.459 327.461 210.387 326.689 210.314L325.521 210.203Z" fill="#FFD000"/>
<path d="M153.069 25.3789C149.006 25.3789 145.713 28.3003 145.713 31.904C145.713 35.5077 153.089 52.3444 153.089 52.3444C153.089 52.3444 160.424 35.5077 160.424 31.904C160.424 28.3004 157.131 25.3789 153.069 25.3789ZM153.079 36.0137C150.536 36.0137 148.474 34.1898 148.474 31.9401C148.474 29.6903 150.536 27.8665 153.079 27.8665C155.622 27.8665 157.684 29.6903 157.684 31.9401C157.684 34.1898 155.622 36.0137 153.079 36.0137Z" fill="#D81E1E"/>
</svg>
