<svg width="60" height="61" viewBox="0 0 60 61" fill="none" xmlns="http://www.w3.org/2000/svg">
<path fill-rule="evenodd" clip-rule="evenodd" d="M40.0263 48.4312C40.0263 48.8833 39.6607 49.2498 39.2078 49.2498H20.2004C19.7477 49.2498 19.3819 48.8834 19.3819 48.4312C19.3819 47.9798 19.7477 47.6127 20.2004 47.6127H39.2079C39.6607 47.6129 40.0263 47.9798 40.0263 48.4312ZM35.2744 53.0006C35.2744 53.4528 34.9081 53.8197 34.4559 53.8197H24.9522C24.5001 53.8197 24.1338 53.4526 24.1338 53.0006C24.1338 52.5492 24.5001 52.1821 24.9522 52.1821H34.4559C34.9081 52.1822 35.2744 52.5493 35.2744 53.0006ZM46.6011 37.453C47.3029 36.233 49.1446 36.4671 49.5115 37.836C49.8773 39.2012 48.4059 40.33 47.1825 39.6243C46.4228 39.1861 46.1622 38.212 46.6011 37.453ZM45.1833 36.6345C43.9342 38.7979 45.5244 41.4748 47.972 41.4748C50.0864 41.4748 51.6457 39.4735 51.0932 37.4128C50.3493 34.6394 46.6138 34.1546 45.1833 36.6345ZM49.3165 43.8702L53.516 36.5965L46.6371 32.6251L42.4376 39.8988L49.3165 43.8702ZM41.1386 43.6338C41.122 43.6234 41.1048 43.6137 41.0882 43.604L42.2115 41.6581L47.9049 44.9466L46.2583 47.7994C44.7692 46.1736 43.0452 44.7654 41.1386 43.6338ZM25.7154 40.8624C26.3058 38.8722 26.8546 37.1682 28.9824 36.6138C29.4697 36.4873 29.9812 36.4873 30.4693 36.6151C32.6952 37.193 33.4846 39.3304 33.9201 40.9039C31.2081 40.3886 28.4335 40.3722 25.7154 40.8624ZM11.5393 49.7744L7.39509 42.5968C7.25901 42.3604 7.34229 42.052 7.57821 41.9145L14.9714 37.6466C15.2058 37.5111 15.5182 37.5948 15.6537 37.8284L18.7915 43.2626L18.7272 43.3705C18.573 43.4569 18.4216 43.544 18.2696 43.6339C15.6289 45.201 13.3367 47.2996 11.5393 49.7744ZM6.93813 35.2029L9.18621 39.0969L11.7273 37.6286L9.47853 33.736L7.23045 32.7752L6.93813 35.2029ZM24.6038 35.5617C23.7998 37.6321 22.7691 39.7302 21.3921 42.0978C22.2051 41.7742 23.0367 41.4991 23.8828 41.2717C24.6448 38.7999 25.2016 35.9072 28.5704 35.0301C29.3266 34.8331 30.1244 34.8331 30.8821 35.0301C34.4306 35.9533 35.258 39.5635 35.7252 41.3263C36.547 41.5544 37.3545 41.8296 38.1447 42.1496C36.0771 38.2418 35.0714 36.7578 33.7281 32.3016H25.723C25.3857 33.4208 25.0144 34.5033 24.6038 35.5617ZM26.7655 28.232C27.1035 26.6497 27.3717 25.0591 27.5888 23.5665H31.8617C32.2083 25.9426 32.6421 28.297 33.2677 30.6646H26.1848C26.3914 29.8744 26.5864 29.0671 26.7655 28.232ZM28.0824 19.7182C28.4168 16.8069 28.6759 13.9886 29.0059 11.0766H30.4465C30.857 14.7309 31.1638 18.2715 31.6369 21.9297H27.814C27.9164 21.1436 28.005 20.3991 28.0824 19.7182ZM50.5552 29.9595L53.8651 31.8709L53.9044 34.5552L53.742 34.8358L48.048 31.5488L48.2104 31.2681L50.5552 29.9595ZM55.3714 25.4406L52.6776 26.9918L51.68 28.7186L54.3781 30.2761L55.3749 28.5499L55.3714 25.4406ZM57.0118 28.7678L57.007 24.0235C57.0067 23.3956 56.3247 23.0014 55.7808 23.3156L51.6697 25.6832C51.5452 25.7544 51.4416 25.8582 51.369 25.9826L49.967 28.4132L47.2156 29.9485C46.9399 30.1028 46.8009 30.4356 46.6246 30.7413C46.2562 30.6024 45.8317 30.7455 45.6285 31.0966L40.6105 39.7888C40.4073 40.1414 40.4958 40.5796 40.8006 40.83L40.0132 42.1918C38.7801 39.7257 37.3931 37.5926 36.3736 34.9693C36.0356 34.1004 35.7266 33.2134 35.4404 32.3017H36.1981C36.6495 32.3017 37.0166 31.9353 37.0166 31.4832C37.0166 31.031 36.6495 30.6648 36.1981 30.6648H34.9606C34.3162 28.3056 33.8731 25.9605 33.5166 23.5666H34.1201C34.5721 23.5666 34.9386 23.1996 34.9386 22.7481C34.9386 22.2961 34.5722 21.9297 34.1201 21.9297H33.287C32.7663 17.9748 32.4507 14.1224 31.9895 10.1641C31.9411 9.75213 31.5913 9.43965 31.1766 9.43965H30.5226V7.99821C30.5226 7.54605 30.1562 7.17969 29.7042 7.17969C29.2527 7.17969 28.8856 7.54605 28.8856 7.99821V9.43953H28.2752C27.8598 9.43953 27.5092 9.75201 27.4622 10.164C27.0077 14.1248 26.681 17.9787 26.1639 21.9296H25.288C24.8366 21.9296 24.4695 22.296 24.4695 22.748C24.4695 23.1994 24.8366 23.5665 25.288 23.5665H25.9344C25.5819 25.948 25.1311 28.3168 24.4916 30.6646H23.21C22.7586 30.6646 22.3915 31.031 22.3915 31.483C22.3915 31.9352 22.7586 32.3016 23.21 32.3016H24.0105C22.9695 35.6181 21.725 38.3176 19.7536 41.6559L17.0714 37.0098C16.4832 35.9908 15.1731 35.639 14.1528 36.2287L13.1442 36.8101L10.7599 32.6817C10.6715 32.5275 10.536 32.4073 10.3735 32.3374L7.12101 30.9487L4.51557 26.4367C4.29021 26.0448 3.78897 25.9106 3.39705 26.1367C3.00585 26.3628 2.87097 26.8632 3.09837 27.2552L5.70309 31.7672L5.27937 35.2782C5.25933 35.4537 5.29533 35.6314 5.38305 35.7855L7.76793 39.9153L6.76005 40.4967C5.73945 41.0862 5.38737 42.3955 5.97681 43.4152L10.5248 51.2937C10.4163 51.4742 10.3077 51.6539 10.2026 51.8371C9.97929 52.2304 10.1155 52.7302 10.5088 52.9534C10.9 53.1788 11.4 53.0413 11.6252 52.6493C15.3236 46.1685 22.2502 42.1424 29.7036 42.1424C37.1569 42.1424 44.0836 46.1684 47.7819 52.6493C48.0081 53.0438 48.5072 53.177 48.899 52.9534C49.2916 52.7301 49.4278 52.2303 49.2045 51.8371C48.6632 50.8893 48.0507 49.9844 47.3809 49.1272L49.329 45.7538C49.7071 45.8941 50.1228 45.747 50.3237 45.3985L55.3424 36.7056C55.5434 36.3585 55.463 35.9222 55.1536 35.6652C55.3297 35.3592 55.5487 35.0709 55.5442 34.7575L55.4986 31.6074L56.9019 29.1768C56.9745 29.0526 57.0118 28.9108 57.0118 28.7678Z" fill="#BA6827"/>
</svg>
