<svg width="61" height="61" viewBox="0 0 61 61" fill="none" xmlns="http://www.w3.org/2000/svg">
<g clip-path="url(#clip0_66_3756)">
<path d="M9.79034 48.3186C10.0223 48.0655 10.3635 47.7804 10.8148 47.4632C11.2653 47.1465 11.7553 46.83 12.2837 46.5126C12.8116 46.196 13.3467 45.8852 13.888 45.5811C14.4293 45.2769 14.893 45.0108 15.2795 44.7827C15.8462 44.4535 16.4006 44.0924 16.9418 43.6992C17.483 43.3064 17.9721 42.8502 18.4107 42.3304C18.8486 41.8112 19.2032 41.222 19.4737 40.5624C19.7443 39.9035 19.8794 39.1555 19.8794 38.3191C19.8794 36.2914 19.1385 34.682 17.6569 33.4902C16.1746 32.2991 14.0426 31.7031 11.2595 31.7031C10.1251 31.7031 9.03677 31.8048 7.99298 32.0073C6.9493 32.2105 5.9889 32.4827 5.1131 32.8248C4.23658 33.1672 3.45084 33.5538 2.75506 33.9845C2.05927 34.4158 1.50491 34.859 1.09292 35.3152L5.03578 39.8018C5.78291 38.9653 6.55602 38.2874 7.3551 37.7676C8.1537 37.2485 9.09455 36.9882 10.177 36.9882C11.1301 36.9882 11.8646 37.2038 12.3803 37.6346C12.8955 38.066 13.1535 38.6362 13.1535 39.3455C13.1535 39.7007 13.0502 40.0108 12.8443 40.2771C12.6377 40.5432 12.2965 40.8414 11.8198 41.1705C11.3426 41.5003 10.6987 41.8804 9.88696 42.3112C9.07525 42.7426 8.06351 43.2873 6.85244 43.9461C5.71822 44.58 4.77784 45.2264 4.03058 45.8851C3.28285 46.5446 2.69024 47.2604 2.25252 48.0335C1.81408 48.8069 1.50491 49.6625 1.32477 50.6C1.14415 51.5381 1.0542 52.6028 1.0542 53.7939H20.3048V48.3186H9.79034Z" fill="#BA6827"/>
<path d="M39.4775 47.941V32.0859H35.264L22.6624 47.9791V53.4163H33.2926V58.6253H39.4775V53.4163H42.8792V47.941H39.4775ZM34.027 47.9411H28.7699L34.027 41.2112V47.9411Z" fill="#BA6827"/>
<path d="M4.65082 55.1875V57.2231H2.52129V55.1875H1.28711V60.4427H2.52129V58.2888H4.65082V60.4427H5.885V55.1875H4.65082Z" fill="#BA6827"/>
<path d="M12.8529 56.8511C12.7277 56.5305 12.5497 56.2442 12.3189 55.9926C12.088 55.7409 11.8097 55.5389 11.4836 55.3857C11.1574 55.2328 10.7963 55.1562 10.3999 55.1562C10.0136 55.1562 9.6574 55.2291 9.33132 55.3746C9.00511 55.5202 8.72298 55.7151 8.48458 55.9592C8.2463 56.2034 8.06056 56.4861 7.92771 56.8068C7.79463 57.1277 7.72827 57.4608 7.72827 57.8061C7.72827 58.1465 7.79225 58.4772 7.92021 58.7979C8.04817 59.1187 8.22735 59.4037 8.45813 59.6528C8.68891 59.9019 8.96734 60.1031 9.29343 60.2559C9.61952 60.4088 9.98063 60.4854 10.3771 60.4854C10.7634 60.4854 11.1195 60.4114 11.4457 60.2632C11.7718 60.1153 12.0527 59.919 12.2885 59.6749C12.5244 59.4307 12.7086 59.148 12.8416 58.8273C12.9745 58.5065 13.041 58.1735 13.041 57.828C13.041 57.4977 12.9782 57.1719 12.8529 56.8511ZM11.6981 58.3871C11.6403 58.5772 11.5538 58.7474 11.4383 58.8978C11.323 59.0484 11.1774 59.1705 11.002 59.2644C10.8263 59.358 10.6207 59.405 10.3849 59.405C10.1591 59.405 9.95847 59.3606 9.78286 59.2719C9.60713 59.1831 9.46046 59.0645 9.34263 58.9166C9.2248 58.7687 9.13581 58.5996 9.07552 58.4096C9.01523 58.2197 8.98521 58.0236 8.98521 57.8212C8.98521 57.6239 9.01404 57.4302 9.07183 57.2401C9.12961 57.0502 9.21718 56.8811 9.33513 56.7331C9.45308 56.5851 9.59843 56.4655 9.77154 56.3742C9.94465 56.2829 10.1491 56.2372 10.3848 56.2372C10.6105 56.2372 10.8099 56.2804 10.983 56.3668C11.156 56.4532 11.3027 56.5693 11.4231 56.7146C11.5434 56.8603 11.6338 57.0281 11.694 57.2179C11.7542 57.4079 11.7843 57.6042 11.7843 57.8063C11.7847 58.0036 11.7557 58.1973 11.6981 58.3871Z" fill="#BA6827"/>
<path d="M18.3169 55.1876V57.8743H18.3165C18.3165 58.0668 18.2977 58.2555 18.26 58.4405C18.2224 58.6256 18.1584 58.7896 18.0682 58.9327C17.9779 59.0758 17.8599 59.1906 17.7145 59.2769C17.5691 59.3634 17.3909 59.4065 17.1802 59.4065C16.9695 59.4065 16.7927 59.3645 16.6497 59.2806C16.5066 59.1969 16.39 59.0832 16.2998 58.9401C16.2095 58.7972 16.1442 58.6342 16.104 58.4517C16.0638 58.2691 16.0439 58.0768 16.0439 57.8743V55.1875H14.8098V57.8743C14.8098 58.2197 14.8537 58.5503 14.9415 58.866C15.0293 59.182 15.1674 59.4594 15.3555 59.6989C15.5436 59.9384 15.7882 60.1294 16.0892 60.2724C16.3902 60.4155 16.7538 60.4871 17.1804 60.4871C17.5916 60.4871 17.9466 60.4194 18.2452 60.2835C18.5436 60.1478 18.7895 59.9615 18.9826 59.7248C19.1757 59.4878 19.3187 59.2116 19.4116 58.8958C19.5044 58.5801 19.5509 58.2395 19.5509 57.8744V55.1876H18.3169Z" fill="#BA6827"/>
<path d="M24.9157 58.4888C25.051 58.4147 25.1727 58.3247 25.2807 58.2186C25.3885 58.1124 25.48 57.9927 25.5553 57.8596C25.6305 57.7264 25.6883 57.5845 25.7285 57.4339C25.7685 57.2834 25.7886 57.1267 25.7886 56.964C25.7886 56.7467 25.7447 56.5321 25.6568 56.3199C25.569 56.1078 25.4474 55.9178 25.2919 55.7501C25.1363 55.5824 24.952 55.4466 24.7389 55.3429C24.5256 55.2394 24.2936 55.1875 24.0428 55.1875H21.6348V60.4428H22.8688V58.7478H23.674L24.6974 60.4428H26.0895L24.9157 58.4888ZM24.3739 57.4858C24.2686 57.6216 24.143 57.6893 23.9977 57.6893H22.8689V56.2534H23.9602C24.1004 56.2534 24.2311 56.3177 24.3514 56.446C24.4718 56.5743 24.532 56.747 24.532 56.9642C24.5319 57.1762 24.4793 57.3502 24.3739 57.4858Z" fill="#BA6827"/>
<path d="M31.5945 58.2714C31.5166 58.099 31.4064 57.9522 31.2634 57.8313C31.1203 57.7103 30.946 57.6091 30.7404 57.5277C30.5345 57.4463 30.304 57.3712 30.048 57.3019C29.8623 57.2527 29.6993 57.2083 29.559 57.1688C29.4185 57.1294 29.3019 57.0862 29.209 57.0392C29.1161 56.9923 29.0459 56.9392 28.9983 56.88C28.9504 56.8209 28.9267 56.7469 28.9267 56.658C28.9267 56.3669 29.1475 56.2212 29.5889 56.2212C29.7492 56.2212 29.91 56.2435 30.0706 56.2879C30.2309 56.3323 30.379 56.3842 30.5146 56.4433C30.6499 56.5025 30.7628 56.5594 30.8532 56.6136C30.9434 56.6679 30.9962 56.705 31.0112 56.7247L31.553 55.718C31.4327 55.649 31.3009 55.5801 31.158 55.5107C31.015 55.4417 30.8607 55.3799 30.6951 55.3257C30.5296 55.2714 30.3565 55.2271 30.1759 55.1925C29.9953 55.1581 29.8121 55.1406 29.6266 55.1406C29.3606 55.1406 29.1086 55.1778 28.8704 55.2517C28.6322 55.3257 28.4226 55.4356 28.2422 55.581C28.0616 55.7267 27.9186 55.9056 27.8132 56.1177C27.7079 56.3301 27.6552 56.5743 27.6552 56.8506C27.6552 57.0481 27.6839 57.2207 27.7417 57.3687C27.7995 57.5167 27.8871 57.6475 28.005 57.7611C28.123 57.8746 28.2721 57.9746 28.4529 58.0608C28.6335 58.1473 28.8467 58.2274 29.0925 58.3015C29.2781 58.3558 29.4499 58.405 29.6079 58.4494C29.766 58.4938 29.9027 58.542 30.018 58.5938C30.1332 58.6456 30.2238 58.7036 30.2889 58.7677C30.354 58.8318 30.3869 58.9133 30.3869 59.0119C30.3869 59.2735 30.1686 59.4043 29.7322 59.4043C29.5263 59.4043 29.3232 59.3771 29.1226 59.3228C28.9219 59.2686 28.7399 59.2068 28.5769 59.1378C28.4138 59.0688 28.277 58.9997 28.1668 58.9304C28.0565 58.8615 27.9912 58.8145 27.9711 58.7897L27.4292 59.8482C27.5847 59.9517 27.754 60.0431 27.9371 60.1219C28.1202 60.2009 28.3098 60.2688 28.5053 60.3255C28.7009 60.3822 28.9014 60.4255 29.1073 60.455C29.3131 60.4846 29.5136 60.4994 29.7093 60.4994C29.9652 60.4994 30.2135 60.4709 30.4544 60.4142C30.6952 60.3575 30.9084 60.2662 31.0941 60.1405C31.2797 60.0146 31.4289 59.8494 31.5418 59.6445C31.6548 59.4398 31.7111 59.1892 31.7111 58.8932C31.711 58.6515 31.6723 58.4443 31.5945 58.2714Z" fill="#BA6827"/>
<path d="M34.1342 28.8417C33.7983 27.5314 32.7477 26.498 31.4156 26.1677V10H29.5843V26.1678C27.959 26.5708 26.7522 28.0205 26.7522 29.7424C26.7522 31.7752 28.4335 33.4287 30.4999 33.4287C32.2507 33.4287 33.7243 32.2416 34.1341 30.643H45.03V28.8417H34.1342ZM30.5 31.6274C29.4434 31.6274 28.5836 30.7818 28.5836 29.7424C28.5836 28.7031 29.4434 27.8575 30.5 27.8575C31.5567 27.8575 32.4164 28.7031 32.4164 29.7424C32.4164 30.7818 31.5567 31.6274 30.5 31.6274Z" fill="#BA6827"/>
<path d="M56.8957 43.209C59.0766 39.0817 60.2295 34.4247 60.2295 29.742C60.2295 21.9312 57.1371 14.5879 51.5221 9.06456C45.9068 3.54173 38.441 0.5 30.5 0.5C22.559 0.5 15.0932 3.54173 9.47793 9.06468C3.86293 14.5879 0.770508 21.9313 0.770508 29.7421V30.6429H6.36537V28.8416H2.6166C2.76267 24.407 3.9847 20.236 6.03202 16.5712L9.25443 18.4436L10.1859 16.8927L6.96501 15.0211C9.17293 11.6179 12.123 8.72425 15.5883 6.56002L17.4831 9.73148L19.062 8.81882L17.166 5.64525C20.8782 3.65001 25.0989 2.46055 29.5844 2.31759V6.00315H31.4157V2.31759C35.9238 2.46137 40.1649 3.6615 43.8906 5.67514L41.9869 8.84484L43.5635 9.76101L45.4658 6.59354C48.9257 8.76527 51.868 11.6665 54.0683 15.0749L50.8438 16.9385L51.7717 18.4915L54.9994 16.6261C57.028 20.2775 58.2361 24.4295 58.3815 28.8416H54.6347V30.6429H58.3818C58.2355 34.9752 57.0387 39.175 54.9617 42.9095L51.7455 41.0407L50.8141 42.5916L54.0292 44.4598C52.5423 46.7632 50.7044 48.856 48.5613 50.6519L48.8089 48.4562L46.9888 48.2576L46.3955 53.5186L51.7442 54.1022L51.9461 52.312L49.6968 52.0665C52.6485 49.6047 55.1159 46.5777 56.8957 43.209Z" fill="#BA6827"/>
</g>
<defs>
<clipPath id="clip0_66_3756">
<rect width="61" height="60" fill="white" transform="translate(0 0.5)"/>
</clipPath>
</defs>
</svg>
