<svg width="60" height="60" viewBox="0 0 60 60" fill="none" xmlns="http://www.w3.org/2000/svg">
<g clip-path="url(#clip0_120_472)">
<path fill-rule="evenodd" clip-rule="evenodd" d="M34.6724 15.2458C34.4053 15.2458 34.1482 15.1366 33.9567 14.9349C33.7971 14.7668 33.698 14.5687 33.5165 14.209C33.1973 13.574 32.6025 12.3895 31.3727 10.832C30.8636 10.1869 30.6587 9.96674 30.5142 9.82403C30.4016 9.71318 30.1143 9.44436 29.701 9.14021C29.3885 9.5082 29.0306 9.81898 28.6308 10.0676C27.4429 10.8085 26.2753 10.7799 25.3361 10.7582L25.2706 10.7565C25.242 10.7565 22.3757 10.691 19.3163 10.9027C17.1506 11.0522 16.5156 11.3159 16.0519 11.5713C15.6302 11.8048 14.8456 12.2383 14.4844 13.0414C14.3281 13.3875 14.2827 13.7268 14.2441 13.999C14.224 14.1502 14.2054 14.2813 14.1702 14.4122C14.0173 14.9734 13.5871 15.2052 13.2361 15.2337C13.0244 15.2522 12.4952 15.2219 12.1357 14.5633C12.045 14.3971 11.9575 14.1803 11.877 13.9216C11.7291 13.4512 11.6098 12.863 11.5494 12.307C11.3226 10.2488 11.8686 8.56208 12.213 7.74049C12.4364 7.20791 13.1085 5.82354 14.513 4.46432C16.9457 2.11386 19.8523 1.5107 21.7761 1.11084C23.3805 0.778189 24.5028 0.729495 25.9141 0.697628C27.0129 0.672387 28.3116 0.719504 29.6254 1.26376C30.2974 1.54089 30.788 1.87196 31.1711 2.30548C31.4634 2.63813 31.5809 2.89864 31.717 3.19932C31.7876 3.35393 31.8666 3.5303 31.9941 3.77555C32.3133 4.38207 32.5065 4.74996 32.8257 5.08093C32.9701 5.23049 33.0256 5.26246 33.2306 5.3833C33.4491 5.51266 33.7481 5.68745 34.2454 6.06039C34.857 6.51904 35.2619 6.82319 35.6988 7.34905C35.9777 7.68675 36.5606 8.38897 36.7909 9.43237C36.9387 10.0977 36.8698 10.6219 36.7555 11.4906C36.6816 12.0518 36.3018 13.0816 36.186 13.3824C35.6954 14.671 35.4468 15.044 34.9797 15.1952C34.8807 15.2291 34.7748 15.2458 34.6724 15.2458ZM29.4709 6.94119C29.9363 6.94119 30.3395 7.22347 30.5948 7.40163L30.6216 7.42014C31.2315 7.84345 31.6649 8.24163 31.8682 8.44166C32.0883 8.65674 32.3471 8.94238 32.8931 9.63293C33.6593 10.604 34.2019 11.4424 34.5916 12.1144C34.7193 11.7431 34.8184 11.4072 34.8403 11.2391C34.9444 10.4377 34.9747 10.1689 34.9041 9.84969C34.7747 9.26326 34.4353 8.85509 34.212 8.58459C33.9213 8.23343 33.6425 8.02519 33.088 7.6084C32.6782 7.30088 32.4429 7.16142 32.2531 7.05057C32.0011 6.9027 31.7641 6.76335 31.4365 6.42228C30.9257 5.89306 30.6435 5.35543 30.2856 4.67497C30.1293 4.37755 30.0303 4.15585 29.9563 3.99452C29.8438 3.7459 29.8202 3.69552 29.7229 3.58467C29.6002 3.44521 29.3953 3.26032 28.8895 3.0504C27.91 2.6455 26.9037 2.61016 25.961 2.63046C24.6119 2.66064 23.619 2.70439 22.1723 3.00339C20.3646 3.37811 17.8898 3.89219 15.8603 5.85446C14.6809 6.99525 14.1366 8.15781 13.9988 8.4872C13.7803 9.00633 13.4628 9.95896 13.4342 11.1501C13.5972 10.967 13.777 10.7922 13.9752 10.6293C14.4171 10.2631 14.8539 10.0211 15.116 9.87661C15.9341 9.42291 16.8633 9.13064 19.1836 8.96941C22.337 8.75097 25.1983 8.81649 25.3177 8.81986L25.3849 8.82154C26.1695 8.84005 26.9121 8.85846 27.606 8.42505C27.9688 8.1983 28.2797 7.87574 28.5284 7.46568C28.6847 7.20696 28.9333 7.0288 29.2307 6.96496C29.3129 6.94782 29.3919 6.94119 29.4709 6.94119Z" fill="white"/>
<path fill-rule="evenodd" clip-rule="evenodd" d="M24.2005 31.3583C23.5502 31.3583 22.8111 31.2962 22.0147 31.1197C21.3058 30.9634 19.4594 30.4392 17.6465 28.954C16.7779 28.2417 15.1835 26.6708 14.2778 24.1507C14.0309 23.4635 13.8696 22.7243 13.7771 22.2186C13.1437 21.9346 12.5624 21.5062 12.0701 20.9568C11.4418 20.2546 11.0033 19.4045 10.8033 18.4989C10.3967 16.6576 11.0218 14.8497 12.5187 13.5426C12.9219 13.1914 13.5334 13.2317 13.8845 13.6351C14.2357 14.0383 14.1954 14.6498 13.7921 15.0009C12.4933 16.135 12.5455 17.4186 12.6932 18.0822C12.9553 19.2683 13.8474 20.2731 14.9127 20.5822C15.2807 20.6897 15.551 21.0022 15.6014 21.3819C15.6754 21.9246 15.8484 22.8049 16.0988 23.4988C16.875 25.6593 18.298 26.9884 18.8725 27.4605C20.3628 28.6803 21.8581 29.107 22.431 29.2346C24.0641 29.5941 25.4099 29.3572 25.9138 29.238C27.2882 28.9136 28.2138 28.2752 28.6104 28.0031C28.8961 27.8065 29.642 27.252 30.4014 26.3531C31.4984 25.0544 32.3066 23.2886 32.7434 21.2439C32.8258 20.8559 33.1382 20.5568 33.5298 20.4912C33.9564 20.419 34.4219 20.051 34.805 19.4833C35.2215 18.8633 35.4921 18.0838 35.5459 17.3462C35.603 16.5566 35.4451 15.5418 34.3631 15.194C33.8541 15.031 33.5752 14.485 33.7382 13.9759C33.9012 13.4669 34.4472 13.188 34.9563 13.351C35.8736 13.6467 36.5876 14.2331 37.0194 15.0495C37.3841 15.7367 37.5419 16.5784 37.4765 17.484C37.3992 18.5475 37.0111 19.6698 36.4113 20.5619C35.8821 21.3483 35.2219 21.9161 34.5079 22.21C33.9786 24.3522 33.0966 26.1633 31.8819 27.6014C31.0048 28.6398 30.1446 29.2966 29.7094 29.5957C29.2658 29.8998 28.0881 30.7112 26.361 31.1195C25.8956 31.2272 25.1414 31.3583 24.2005 31.3583Z" fill="white"/>
<path fill-rule="evenodd" clip-rule="evenodd" d="M18.4125 35.0657C18.268 35.0657 18.1218 35.0337 17.9824 34.9649C17.5036 34.7281 17.307 34.1468 17.5456 33.668C17.843 33.0682 18.347 31.8652 18.3823 30.5429C18.3958 30.0238 18.3286 29.7868 18.2176 29.392C18.1874 29.2861 18.1538 29.1653 18.1184 29.0326C17.9857 28.5151 18.2982 27.9875 18.8157 27.8547C19.3332 27.722 19.8608 28.0345 19.9935 28.552C20.0221 28.6595 20.0506 28.7637 20.0792 28.8645C20.2069 29.3148 20.3396 29.7802 20.3179 30.5933C20.2742 32.2868 19.6492 33.7854 19.2813 34.5264C19.1115 34.8691 18.7686 35.0657 18.4125 35.0657Z" fill="white"/>
<path fill-rule="evenodd" clip-rule="evenodd" d="M30.1414 35.7011C29.8121 35.7011 29.4929 35.533 29.3113 35.2323C28.673 34.1705 27.9017 32.5039 27.8513 30.5952C27.8294 29.7804 27.9621 29.3151 28.0899 28.8664C28.1185 28.7657 28.147 28.6631 28.1756 28.554C28.3083 28.0365 28.8359 27.724 29.3534 27.8567C29.871 27.9894 30.1834 28.517 30.0507 29.0345C30.0171 29.1655 29.9818 29.2865 29.9515 29.394C29.8407 29.7871 29.7718 30.0256 29.7868 30.5449C29.8255 32.0334 30.4521 33.3742 30.9696 34.236C31.2451 34.6947 31.0972 35.2894 30.6386 35.5634C30.4824 35.6558 30.311 35.7011 30.1414 35.7011Z" fill="white"/>
<path fill-rule="evenodd" clip-rule="evenodd" d="M48.4139 59.3079H0.968107C0.435522 59.3079 0.00200852 58.8761 0.00043096 58.3436C-0.00966543 54.9699 0.144935 46.5376 1.82672 41.1143C2.2737 39.6761 2.81459 38.5018 3.52859 37.4198C4.12838 36.5126 5.85897 34.231 8.95025 32.6601C11.7829 31.2186 14.493 31.0052 16.2671 31.0791C16.499 31.0892 16.7208 31.1817 16.8887 31.3412L24.4879 38.4765L32.5069 31.3261C32.6732 31.1765 32.8866 31.0908 33.1118 31.0807C34.8859 31.0068 37.5942 31.2217 40.4286 32.6616C43.52 34.2341 45.2504 36.5141 45.8502 37.4213C46.5659 38.5033 47.1069 39.6761 47.5521 41.1159C48.325 43.6041 48.8626 47.008 49.1515 51.2283C49.3078 53.5065 49.3868 55.9661 49.3783 58.3435C49.38 58.8778 48.9466 59.3079 48.4139 59.3079ZM24.6323 57.3725H47.4445C47.4311 55.3463 47.3554 53.2866 47.2227 51.3612C46.9438 47.2887 46.433 44.0343 45.7055 41.6889C45.309 40.4137 44.8571 39.4258 44.2371 38.4882C43.7214 37.7086 42.2328 35.748 39.5513 34.3855C37.2664 33.2228 35.0706 32.9792 33.5333 33.0028L25.116 40.5077C24.7413 40.8403 24.1752 40.8336 23.8089 40.4909L15.8335 33.001C14.2979 32.9808 12.1087 33.2244 9.82874 34.3837C7.14731 35.7462 5.65883 37.7069 5.14296 38.4864C4.52298 39.4239 4.07106 40.4101 3.67457 41.6853C2.9471 44.0307 2.43629 47.2851 2.15738 51.3576C2.02465 53.2831 1.94903 55.3429 1.93557 57.369L24.6323 57.3725Z" fill="white"/>
<path fill-rule="evenodd" clip-rule="evenodd" d="M10.1515 59.3081C9.61725 59.3081 9.18384 58.8746 9.18384 58.3404V47.1796C9.18384 46.6453 9.61735 46.2119 10.1515 46.2119C10.6857 46.2119 11.1192 46.6453 11.1192 47.1796V58.3404C11.1194 58.8747 10.6859 59.3081 10.1515 59.3081Z" fill="white"/>
<path fill-rule="evenodd" clip-rule="evenodd" d="M40.0102 59.3081C39.4759 59.3081 39.0425 58.8746 39.0425 58.3404V47.1796C39.0425 46.6453 39.4759 46.2119 40.0102 46.2119C40.5444 46.2119 40.9778 46.6453 40.9778 47.1796V58.3404C40.9779 58.8747 40.5444 59.3081 40.0102 59.3081Z" fill="white"/>
<path fill-rule="evenodd" clip-rule="evenodd" d="M43.903 31.3816C43.3687 31.3816 42.9353 30.9482 42.9353 30.4139V2.96963C42.9353 2.43536 43.3687 2.00195 43.903 2.00195C44.4372 2.00195 44.8707 2.43547 44.8707 2.96963V30.4139C44.8708 30.9481 44.4372 31.3816 43.903 31.3816Z" fill="white"/>
<path fill-rule="evenodd" clip-rule="evenodd" d="M59.0322 17.9859H43.903C43.3687 17.9859 42.9353 17.5525 42.9353 17.0182V5.35161C42.9353 4.98204 43.1453 4.64602 43.4763 4.48301C43.8073 4.31999 44.2021 4.36038 44.4945 4.58555L59.6237 16.252C59.9513 16.504 60.0823 16.9392 59.948 17.3307C59.8152 17.7222 59.4455 17.9859 59.0322 17.9859ZM44.8708 16.0504H56.1928L44.8708 7.32072V16.0504Z" fill="white"/>
<path fill-rule="evenodd" clip-rule="evenodd" d="M29.4777 55.8061H19.4105C18.8763 55.8061 18.4429 55.3726 18.4429 54.8384V42.9921C18.4429 42.4578 18.8763 42.0244 19.4105 42.0244H29.4777C30.012 42.0244 30.4454 42.4578 30.4454 42.9921V54.8384C30.4454 55.3743 30.0136 55.8061 29.4777 55.8061ZM20.38 53.8706H28.5116V43.9598H20.38V53.8706Z" fill="white"/>
<path fill-rule="evenodd" clip-rule="evenodd" d="M26.2065 47.0252H22.6833C22.149 47.0252 21.7156 46.5918 21.7156 46.0575C21.7156 45.5233 22.149 45.0898 22.6833 45.0898H26.2065C26.7407 45.0898 27.1741 45.5233 27.1741 46.0575C27.1741 46.5918 26.7407 47.0252 26.2065 47.0252Z" fill="white"/>
<path fill-rule="evenodd" clip-rule="evenodd" d="M26.2065 49.8846H22.6833C22.149 49.8846 21.7156 49.4512 21.7156 48.9169C21.7156 48.3826 22.149 47.9492 22.6833 47.9492H26.2065C26.7407 47.9492 27.1741 48.3826 27.1741 48.9169C27.1741 49.4512 26.7407 49.8846 26.2065 49.8846Z" fill="white"/>
<path fill-rule="evenodd" clip-rule="evenodd" d="M26.2065 52.7439H22.6833C22.149 52.7439 21.7156 52.3105 21.7156 51.7763C21.7156 51.242 22.149 50.8086 22.6833 50.8086H26.2065C26.7407 50.8086 27.1741 51.242 27.1741 51.7763C27.1741 52.3105 26.7407 52.7439 26.2065 52.7439Z" fill="white"/>
<path fill-rule="evenodd" clip-rule="evenodd" d="M19.4121 43.9603C19.0828 43.9603 18.7619 43.7922 18.5805 43.4898L12.1626 32.7859C11.8871 32.3272 12.0366 31.7325 12.4953 31.4585C12.9539 31.183 13.5487 31.3325 13.8226 31.7912L20.2406 42.495C20.5161 42.9537 20.3666 43.5484 19.9079 43.8224C19.7532 43.9166 19.5818 43.9603 19.4121 43.9603Z" fill="white"/>
<path fill-rule="evenodd" clip-rule="evenodd" d="M29.4777 43.9603C29.3081 43.9603 29.1366 43.9166 28.9804 43.8226C28.5217 43.5471 28.3738 42.9539 28.6477 42.4952L35.0656 31.7914C35.3412 31.3327 35.9342 31.1849 36.393 31.4587C36.8516 31.7343 36.9995 32.3273 36.7257 32.7861L30.3077 43.4899C30.1279 43.7922 29.807 43.9603 29.4777 43.9603Z" fill="white"/>
</g>
<defs>
<clipPath id="clip0_120_472">
<rect width="60" height="60" fill="white"/>
</clipPath>
</defs>
</svg>
