<svg width="60" height="60" viewBox="0 0 60 60" fill="none" xmlns="http://www.w3.org/2000/svg">
<path d="M30 60C29.9258 60 29.8517 59.9931 29.7784 59.9789C22.6689 58.6116 16.214 54.7847 11.6029 49.2027C6.99234 43.6208 4.45312 36.5593 4.45312 29.3193V8.8092C4.45312 8.29697 4.78592 7.84378 5.27481 7.69089L29.6127 0.065918C29.7359 0.0228881 29.8709 0.00274658 30 0H30.0014C30.1341 0 30.2646 0.0228881 30.3877 0.065918L54.7252 7.69089C55.2141 7.84424 55.5469 8.29697 55.5469 8.8092V29.3193C55.5469 36.5593 53.0077 43.6208 48.3966 49.2027C43.786 54.7847 37.3311 58.6116 30.2216 59.9789C30.1483 59.9931 30.0742 60 30 60ZM6.79688 9.6698V29.3193C6.79688 43.0659 16.5413 54.9376 30 57.6338C43.4587 54.9376 53.2027 43.0659 53.2027 29.3193V9.6698L30 2.40051L6.79688 9.6698Z" fill="white"/>
<path d="M30 53.2823C29.9048 53.2823 29.8096 53.2709 29.7171 53.248C24.4263 51.9315 19.6523 48.8333 16.2735 44.5244C12.8828 40.1995 11.0156 34.7997 11.0156 29.3193V13.6299C11.0156 13.1177 11.3484 12.665 11.8369 12.5121L29.6494 6.93149C29.8773 6.86008 30.1222 6.86008 30.3502 6.93149L48.1627 12.5121C48.6511 12.665 48.9839 13.1177 48.9839 13.6299V29.3193C48.9839 33.3252 47.9915 37.3128 46.1142 40.8509C45.8107 41.4226 45.1016 41.6396 44.5299 41.3365C43.9581 41.0331 43.7407 40.324 44.0437 39.7522C45.7425 36.5515 46.6402 32.9439 46.6402 29.3193V14.491L29.9995 9.27753L13.3594 14.491V29.3193C13.3594 39.4922 20.1874 48.3252 29.9995 50.9011C32.7255 50.1856 35.2583 48.9748 37.5325 47.2998C38.0534 46.9162 38.7872 47.0275 39.1708 47.5484C39.5549 48.0693 39.4437 48.8031 38.9223 49.1867C36.3217 51.1025 33.4149 52.4684 30.2824 53.248C30.19 53.2709 30.0948 53.2823 30 53.2823Z" fill="white"/>
<path d="M27.8714 38.8193C27.5711 38.8193 27.2717 38.7048 27.0428 38.476L19.1954 30.6285C18.7376 30.1712 18.7376 29.4292 19.1954 28.9714L23.1729 24.9939C23.3926 24.7742 23.6906 24.6506 24.0014 24.6506C24.3123 24.6506 24.6103 24.7742 24.83 24.9939L27.8714 28.0353L35.1695 20.7367C35.6273 20.2794 36.3693 20.2789 36.8271 20.7367L40.8046 24.7142C41.0243 24.9339 41.1479 25.2319 41.1479 25.5428C41.1479 25.8536 41.0243 26.1516 40.8046 26.3713L28.6999 38.476C28.471 38.7048 28.1712 38.8193 27.8714 38.8193ZM21.681 29.8L27.8714 35.9898L38.3185 25.5428L35.998 23.2228L28.6999 30.5214C28.4802 30.7411 28.1822 30.8643 27.8714 30.8643C27.5605 30.8643 27.2625 30.7411 27.0428 30.5214L24.0014 27.48L21.681 29.8Z" fill="white"/>
<path d="M42.0957 45.832C41.7876 45.832 41.485 45.7075 41.2672 45.4887C41.0493 45.2708 40.9238 44.9682 40.9238 44.6602C40.9238 44.3521 41.0493 44.0495 41.2672 43.8316C41.485 43.6137 41.7876 43.4883 42.0957 43.4883C42.4038 43.4883 42.7064 43.6137 42.9243 43.8316C43.1422 44.0495 43.2676 44.3521 43.2676 44.6602C43.2676 44.9682 43.1422 45.2708 42.9243 45.4887C42.7064 45.7075 42.4038 45.832 42.0957 45.832Z" fill="white"/>
</svg>
