<svg width="60" height="60" viewBox="0 0 60 60" fill="none" xmlns="http://www.w3.org/2000/svg">
<path d="M29.9312 36.9062C29.7642 37.8053 29.1354 38.6144 28.3013 39.0908L28.3003 39.0918C27.467 39.5708 26.4431 39.7401 25.4351 39.6631H25.436C25.2228 39.6458 25.005 39.6183 24.7769 39.5879C24.5525 39.558 24.3143 39.5254 24.0767 39.501C23.6003 39.4521 23.0853 39.4321 22.562 39.542H22.561C21.4933 39.7682 20.6312 40.494 19.896 41.0703C19.1633 41.6447 18.5392 42.0888 17.8267 42.1875L17.6831 42.2031C16.5827 42.2722 15.5318 41.4392 14.7612 40.3486L14.7583 40.3447L14.564 40.0576C14.3799 39.7661 14.2298 39.4636 14.1431 39.167C14.03 38.7801 14.031 38.4323 14.1685 38.127C14.1802 38.1244 14.2007 38.1203 14.2329 38.1191C14.298 38.1169 14.3776 38.1235 14.4868 38.1357C14.5831 38.1466 14.72 38.1642 14.8442 38.1699C15.9185 38.2191 16.9945 38.2385 18.0698 38.2285C22.0606 38.1916 26.0413 37.7461 29.9312 36.9062Z" stroke="white"/>
<path d="M34.73 36.0811C35.2679 35.8036 35.8904 35.8035 36.5493 36.0088C37.2115 36.2152 37.8734 36.62 38.4341 37.0889L38.436 37.0908C38.7256 37.3299 39.0094 37.5856 39.3052 37.8506C39.5979 38.1127 39.9023 38.383 40.2183 38.6357C40.8497 39.1408 41.5589 39.6012 42.4067 39.8242L42.4097 39.8252C43.447 40.0925 44.4676 39.9546 45.4253 39.6982C45.9045 39.5699 46.3783 39.4091 46.8364 39.248C47.2994 39.0852 47.7409 38.9234 48.1812 38.7842L48.1821 38.7852C50.196 38.1584 52.4492 38.0753 54.3481 38.752C51.7521 46.5509 44.9417 52.1121 37.3667 54.3193L36.6187 54.5254C35.0735 54.9246 34.3023 55.064 33.7729 55.125C33.5076 55.1556 33.2983 55.1677 33.0659 55.1816C32.8329 55.1957 32.5827 55.2118 32.2563 55.2529C31.8651 55.3022 31.4966 55.4286 31.1802 55.5391C30.8474 55.6552 30.5683 55.7548 30.2847 55.8018C26.9892 56.3462 24.0983 54.2248 23.3872 51.2627C24.297 51.4695 25.1785 51.5672 25.9683 51.3965C27.0335 51.1661 27.8578 50.4696 28.3784 49.168C28.5242 48.8035 28.5834 48.3622 28.6431 48.0527C28.7104 47.7035 28.7866 47.4489 28.9263 47.2598C29.1557 46.9491 29.766 46.5733 31.9214 47.0088C32.5126 47.1282 33.2168 47.1974 33.8667 47.0879C34.5208 46.9777 35.1829 46.6728 35.5591 45.9932V45.9922C35.8578 45.4512 35.8706 44.8776 35.7505 44.3262C35.6328 43.7864 35.3808 43.2326 35.1069 42.6943C34.5372 41.5746 33.8674 40.4862 33.6157 39.3135V39.3125C33.4817 38.6884 33.5051 37.9994 33.6978 37.4033C33.8898 36.8093 34.2369 36.3379 34.73 36.0811Z" stroke="white"/>
<path d="M53.2844 42.4646C49.9117 48.7008 43.4059 53.7955 34.3542 55.5467C22.0329 57.8565 7.55548 49.9133 5.21964 36.1325C5.17451 35.8663 5.02337 35.4479 5.30096 35.2595C5.63017 35.036 7.69545 34.9834 7.97878 35.0484C8.34859 35.1333 8.30038 35.2962 8.47896 35.8495C12.1417 47.2298 25.2575 54.1575 36.8194 51.9899C40.9487 51.2167 44.6819 49.7506 48.1479 47.3172C52.5877 44.2071 52.2218 43.308 53.2844 42.4646Z" fill="white"/>
<path d="M37.7983 21.1035C41.4607 21.0983 44.4328 24.0607 44.438 27.7168C44.4431 31.379 41.4807 34.3513 37.8247 34.3564C34.1624 34.3616 31.1904 31.3991 31.1851 27.7432C31.18 24.0809 34.1423 21.1085 37.7983 21.1035ZM38.1509 25.7158C38.1482 24.4629 36.8841 23.6432 35.7603 24.0742C33.9777 24.7499 34.3877 27.485 36.3901 27.4854C36.6341 27.4854 36.867 27.4355 37.0786 27.3457C36.9942 27.9594 37.3587 28.6297 38.1011 28.748V28.749C38.103 28.7493 38.105 28.7487 38.1069 28.749L38.1089 28.75V28.749C38.8416 28.8693 39.5306 28.2913 39.5308 27.5312C39.5308 26.8467 38.9694 26.3 38.2944 26.2998C38.2097 26.2998 38.1257 26.309 38.0435 26.3262C38.0928 26.19 38.1289 26.047 38.1431 25.8975L38.1509 25.7158Z" stroke="white"/>
<path d="M48.2772 13.593C48.3774 13.8297 48.3941 14.9048 49.2972 14.3021C50.5982 13.4699 52.7259 11.5997 53.7372 10.6039C54.3045 10.0476 55.0081 9.34949 55.2427 8.48217C55.7554 6.58946 54.6045 4.50578 52.6681 3.83488C50.4677 3.07157 48.2919 4.38553 47.6008 6.044C47.2409 6.90586 47.3718 7.81673 47.4917 8.69484C47.5178 8.87731 47.9002 11.9906 48.2772 13.593ZM48.359 6.36041C48.9283 4.9915 50.7073 4.01563 52.4008 4.60952C53.939 5.13846 54.8608 6.78042 54.4572 8.26404C54.2772 8.92402 53.6827 9.50769 53.159 10.0258C52.1429 11.0259 50.2025 12.72 49.0899 13.4622C48.8771 12.2593 48.9752 13.4465 48.3045 8.58031C48.1954 7.81127 48.0863 7.01493 48.359 6.36041Z" fill="white"/>
<path d="M50.7917 8.92365C52.7743 9.58519 54.1498 7.02166 52.6517 5.69447C51.6419 4.80773 50.0883 5.26372 49.6517 6.51825C49.3062 7.48769 49.8081 8.5805 50.7917 8.92365ZM51.4353 6.05456C52.1223 6.05456 52.6439 6.72505 52.4062 7.47279C52.2084 8.03142 51.6227 8.33711 51.059 8.14902C49.9359 7.75147 50.2573 6.05456 51.4353 6.05456Z" fill="white"/>
<path d="M56.2462 28.4516C56.2247 28.2363 56.0337 28.0742 55.8208 28.0861C55.8193 28.0861 55.8178 28.0867 55.8163 28.0867C55.5219 27.7782 55.0452 27.5053 54.4026 27.2723C54.4024 27.2163 54.3915 23.7973 54.3917 23.8533L54.3862 19.0697C54.3753 18.1425 53.6171 17.3898 52.6953 17.3898H51.6862C51.6537 17.1155 51.8244 16.5133 51.3098 15.9989C51.0644 15.7589 50.7426 15.6225 50.4044 15.6225C50.4044 15.6225 50.4044 15.6225 50.3989 15.6225L45.6589 15.6334C44.9553 15.6334 44.3826 16.2115 44.3826 16.9152V17.4062L31.2698 17.428L31.2644 16.2443C31.2644 15.7807 30.888 15.3988 30.4244 15.3988C30.4189 15.3988 30.4189 15.3988 30.4189 15.3988L27.3971 15.4043C26.9281 15.4043 26.5517 15.7861 26.5517 16.2497L26.5571 17.4333L24.6426 17.4388C23.9226 17.4388 23.3171 17.8916 23.0662 18.5189C22.9126 18.0324 23.6086 20.2772 21.4135 13.1789C21.3262 12.9115 21.2335 12.6334 21.1899 12.366C20.9497 11.0134 19.7083 10.9092 18.3317 10.7679L17.8408 8.65706C17.688 8.008 17.1917 7.51155 16.5371 7.3588C11.0008 6.08799 6.74077 8.92978 5.1644 10.2115C4.64621 10.6425 4.42805 11.3133 4.59168 11.9735L5.23531 14.4716C5.06076 14.5806 4.88621 14.6951 4.71712 14.8098C3.52258 15.6225 3.48439 16.5825 3.6644 17.2534C3.74319 17.5268 3.10682 15.3425 8.14802 32.4333C8.14802 32.4388 8.15348 32.4443 8.15348 32.4497C8.15401 32.4514 8.15455 32.4533 8.15508 32.4552C6.48538 33.2073 3.63057 34.7255 4.82076 36.1295C4.82129 36.1298 4.81873 36.1315 4.82076 36.1315C4.9207 36.8816 5.18054 38.1065 5.63348 39.5297C10.1541 53.576 28.5512 61.365 43.7389 52.5934C48.4116 49.9317 52.055 45.8852 53.8789 42.2352C54.468 41.0679 54.9535 39.868 55.3571 38.5806C55.3571 38.5752 55.3571 38.5752 55.3571 38.5752C56.3832 35.259 56.6249 31.9154 56.2462 28.4516ZM45.2008 16.9152C45.2008 16.6588 45.408 16.4516 45.6644 16.4516L50.4044 16.4407C50.5244 16.4407 50.6444 16.4897 50.7317 16.5771C50.9335 16.7787 50.8466 17.0172 50.868 17.2916L45.2008 17.3024V16.9152ZM51.2681 32.8813C52.146 33.4131 52.2402 34.6621 51.449 35.3196C51.0352 35.6637 50.4228 35.8393 50.0624 36.4185C49.5111 37.3046 50.0397 38.3172 50.0733 39.1247C50.1034 39.8404 49.6762 40.5619 49.0344 40.8799C48.3928 41.1974 47.5597 41.1002 47.0089 40.6434C46.4667 40.1926 45.8494 39.027 44.7192 39.1311C44.332 39.1674 44.0142 39.3623 43.734 39.5341C43.4826 39.6888 43.2735 39.8327 43.0594 39.8151C42.6943 39.8026 42.4066 39.3232 42.2593 38.8789C41.5656 36.7821 42.2577 35.2431 42.2488 35.004C45.7441 34.2095 48.7652 33.3272 51.0905 32.4297C51.0463 32.6003 51.1099 32.7853 51.2681 32.8813ZM9.69826 27.2925C9.5856 26.6768 9.66257 25.8413 10.2157 25.3432C10.6182 24.9807 11.264 24.8497 11.8566 25.0082C11.9156 25.0239 11.9728 25.0528 12.0312 25.074C11.1029 25.0999 10.3799 26.1853 10.9949 27.5991C11.2249 28.1279 11.5592 28.8383 12.134 28.8542C11.6469 29.0935 11.1681 29.3474 10.6928 29.6087C10.6588 29.3873 9.8946 28.3642 9.69826 27.2925ZM14.2058 27.8572C14.2271 27.9232 14.2217 27.8948 14.228 27.9122C14.2044 27.9219 14.1805 27.9309 14.1569 27.9408C14.1776 27.916 14.1889 27.8846 14.2058 27.8572ZM22.968 26.3717C22.9682 26.4286 22.9791 30.5469 22.9789 30.4918C21.2974 30.0557 20.0148 31.2615 19.7806 32.8906C19.5666 34.2838 19.9257 35.6415 20.2198 37.0207C19.4104 37.0667 19.0447 37.0906 17.4747 37.1352C17.4167 36.2845 17.0742 34.4704 16.6549 33.6633C15.0771 30.628 11.2553 31.3358 11.3075 34.6399C11.3217 35.5226 11.6218 36.3628 11.8997 37.1134C11.8439 37.1105 11.3129 37.094 10.3571 37.0207C10.2178 36.5654 10.8132 38.5689 8.78659 31.6982C13.033 28.906 17.9246 27.0749 22.968 26.3717ZM17.7794 24.3082C17.769 23.6824 17.9816 22.8708 18.609 22.47C19.0653 22.1784 19.7218 22.1533 20.283 22.4082C20.3386 22.4335 20.3904 22.4715 20.4447 22.5018C19.5012 22.3725 18.6384 23.3488 19.0082 24.8231C19.1097 25.2278 19.2913 25.9017 19.6875 26.151C19.2289 26.2586 18.7744 26.381 18.3204 26.5068C18.0546 25.7907 17.7916 25.0525 17.7794 24.3082ZM22.1335 25.6036C22.1444 25.6766 22.1449 25.6482 22.1498 25.6711C22.1203 25.6757 22.0908 25.68 22.0613 25.6848C22.0893 25.6615 22.1096 25.6309 22.1335 25.6036ZM43.5808 24.2843C46.2275 28.688 43.064 34.4462 37.8262 34.4462C32.5748 34.4462 29.4067 28.7299 32.028 24.3061C34.6559 19.8978 40.9964 19.949 43.5808 24.2843ZM12.7141 37.146C12.7279 37.0748 12.7299 37.0007 12.7028 36.9277C12.4253 36.1801 12.1382 35.4072 12.1256 34.6269C12.105 33.3189 12.9243 32.3262 14.2189 32.5966C13.7967 32.6241 13.5197 32.9594 13.4201 33.3509C13.2395 34.0611 13.6399 35.8344 13.86 36.5938C13.9204 36.8023 13.9969 37.0162 14.1421 37.1734C13.2813 37.1734 12.819 37.1497 12.7141 37.146ZM21.5431 32.5162C21.4668 32.9199 21.5049 33.3343 21.5758 33.7434C21.5856 33.7993 22.1247 36.721 22.1809 36.8899C22.1478 36.894 21.077 36.9751 21.0448 36.9661C20.7708 35.6597 20.3927 34.2945 20.5898 33.011C20.7704 31.7576 21.6834 30.9043 22.9209 31.3336C22.1833 31.2525 21.674 31.8484 21.5431 32.5162ZM53.5844 30.3116C50.6513 31.9015 44.9808 33.4556 42.1462 34.0479C42.1193 34.0616 41.8212 34.1235 41.7917 34.1298C45.1937 32.0271 46.2742 27.6647 44.5135 24.2843L53.5735 24.2679L53.5844 30.3116ZM36.5826 35.1606C35.714 35.3159 38.0521 34.9846 23.808 36.7698C23.8058 35.657 23.7916 27.4302 23.7862 24.317L31.0953 24.3061C28.7985 28.7836 31.5276 34.3337 36.5826 35.1606ZM27.3971 16.2224L30.4462 16.2443L30.4517 17.428L27.3808 17.4333L27.3971 16.2224ZM24.6426 18.257C64.9485 18.1864 8.54429 18.2827 52.6953 18.208C53.1699 18.208 53.5626 18.5952 53.568 19.0697L53.5735 23.4497L44.0226 23.4661C41.1232 19.1479 34.6213 19.0539 31.5808 23.4879L23.7862 23.4989C23.7861 23.4443 23.7804 20.6724 23.7808 20.8479L23.7753 19.1243C23.7753 18.6497 24.1626 18.257 24.6426 18.257ZM5.68259 10.8443C8.60331 8.47115 12.4707 7.26658 16.3517 8.15528C16.7008 8.23704 16.9626 8.49885 17.0444 8.84242L17.4753 10.7134C13.4609 10.5678 9.42342 11.9429 5.9662 14.0189L5.3826 11.7716C5.29531 11.4224 5.40986 11.0679 5.68259 10.8443ZM4.44986 17.0352C4.18814 16.0425 5.02168 15.5461 5.92805 15.0061C9.70651 12.6039 14.4671 11.0602 18.8553 11.6516C19.8371 11.777 20.2735 11.9025 20.3826 12.508C20.4371 12.8297 20.5353 13.1352 20.6335 13.4352C20.6514 13.4932 21.6068 16.5777 21.5891 16.5205C21.2007 16.5633 20.8131 16.6128 20.4264 16.6682C20.2957 15.8504 20.1009 15.1988 19.8118 14.6429C18.2427 11.6276 14.4099 12.2829 14.4651 15.6225C14.4783 16.421 14.7259 17.1826 14.9792 17.8769C14.1203 18.137 13.2702 18.426 12.4323 18.7474C11.928 17.2641 11.0733 15.9205 9.57228 15.5184C7.62494 14.9983 5.99335 16.5342 6.39757 18.7405C6.5593 19.6249 7.00681 20.4186 7.41011 21.1227C6.9074 21.4087 6.41128 21.7062 5.92272 22.0158C5.32935 20.0173 5.17645 19.4719 4.44986 17.0352ZM15.7657 17.6463C15.5215 16.9808 15.2946 16.2982 15.2833 15.6092C15.2729 14.9833 15.4855 14.1718 16.1129 13.771C16.5697 13.4793 17.2262 13.4548 17.7869 13.7092C17.8425 13.7345 17.8943 13.7723 17.9485 13.8027C17.0305 13.6767 16.137 14.6279 16.5122 16.124C16.5989 16.4699 16.7447 17.012 17.0318 17.3191C16.608 17.4213 16.1857 17.5292 15.7657 17.6463ZM8.12655 20.7272C7.7371 20.0479 7.34003 19.346 7.20243 18.5932C7.08951 17.9777 7.16621 17.1422 7.71966 16.6439C8.12262 16.2814 8.76662 16.1501 9.36081 16.3089C9.41994 16.3247 9.4773 16.3536 9.53579 16.3748C8.6096 16.4007 7.8837 17.4856 8.49892 18.9C8.66228 19.2756 8.9445 19.8945 9.36321 20.0882C8.94673 20.293 8.53494 20.5068 8.12655 20.7272ZM6.16286 22.8234C7.30034 22.2404 12.8809 18.2668 21.8327 17.3163C22.2662 18.7101 22.5647 19.6752 22.9626 20.9352C22.9627 20.9922 22.968 25.5992 22.968 25.544C22.9619 25.5448 22.9558 25.546 22.9496 25.547C22.6058 21.9567 19.8525 20.705 18.1685 21.7805C17.406 22.2676 16.9434 23.2413 16.9612 24.3216C16.9753 25.1764 17.2582 25.9916 17.5292 26.725C16.6694 26.9848 15.8225 27.2832 14.9849 27.6071C14.4883 26.0694 13.6299 24.6353 12.0681 24.2177C10.1119 23.6948 8.49134 25.2412 8.89339 27.4398C9.05932 28.3456 9.52514 29.1577 9.93583 29.8744C9.95924 29.9151 9.99682 29.9394 10.0304 29.9685C9.52731 30.2595 9.03528 30.5682 8.54773 30.8838C7.783 28.3347 6.28297 23.2418 6.16286 22.8234ZM13.8925 49.8395C14.1239 48.08 14.9847 46.3748 16.2677 45.1503C16.5505 44.8805 16.9279 44.5662 17.3389 44.5295C17.8942 44.4799 18.4069 44.9572 18.6732 45.3812C19.3015 46.3833 19.5813 48.496 21.2942 48.8827C22.4496 49.1423 23.445 48.323 24.3358 47.88C25.0344 47.5327 25.9761 47.4632 26.3474 48.0171C26.6015 48.3964 26.5426 48.9693 26.1578 49.8306C25.4054 51.5142 25.3131 52.5477 26.9626 53.5926C27.3551 53.8365 27.7901 54.0852 28.0429 54.4079C28.2421 54.6622 28.3433 55.0646 28.1678 55.2985C28.1325 55.3454 28.11 55.3975 28.0975 55.4512C22.8652 55.0481 17.7814 52.9437 13.8925 49.8395ZM54.5771 38.3352C51.1737 49.2644 39.4636 56.0089 28.9802 55.5006C29.202 54.9505 29.0101 54.3158 28.6869 53.9034C28.3447 53.4666 27.8806 53.1999 27.4005 52.9017C26.1683 52.1207 26.2834 51.5548 26.9094 50.1542C27.2279 49.4412 27.5867 48.3972 27.0271 47.562C26.3898 46.6098 25.0077 46.6322 23.9717 47.1473C23.0835 47.5892 22.2677 48.2647 21.4743 48.0848C20.2811 47.8149 20.0363 46.0141 19.3662 44.9466C18.9585 44.2967 18.1946 43.6325 17.2662 43.7145C16.6027 43.7736 16.0823 44.1966 15.7031 44.5585C14.3879 45.8133 13.5029 47.4576 13.1637 49.2358C13.1628 49.235 13.1617 49.2342 13.1608 49.2334C9.17224 45.8397 6.57775 41.2683 5.76985 36.8297C5.76439 36.8188 5.76439 36.8079 5.76439 36.797V36.7922C7.03271 37.3908 8.70683 37.5982 9.86622 37.7679C10.0036 37.8366 10.0031 37.8032 11.1686 37.8999C16.8408 38.3789 23.7343 37.8768 29.3868 37.2071C33.1296 36.7111 36.6079 36.2378 41.3709 35.1991C41.0298 36.4858 41.064 37.8707 41.4827 39.1359C41.7903 40.0641 42.3547 40.6096 43.0317 40.6327C43.8321 40.6656 44.2837 39.9938 44.7951 39.9456C45.4286 39.8843 45.9039 40.7884 46.4861 41.2727C47.2898 41.9396 48.4599 42.0773 49.3977 41.6128C50.3346 41.1489 50.9347 40.1352 50.891 39.0906C50.8779 38.7801 50.8138 38.4754 50.752 38.1806C50.4943 36.9567 50.6429 36.7856 51.4106 36.3266C51.5981 36.2145 51.792 36.0984 51.9721 35.9487C53.1871 34.9391 53.0548 33.017 51.7007 32.1874C52.9131 31.6914 54.6194 30.9117 55.548 29.9929C55.529 30.7261 55.9036 34.0483 54.5771 38.3352Z" fill="white"/>
<path d="M37.2317 32.2037C39.9841 32.6523 42.4795 30.5006 42.4735 27.7147C42.4609 24.5471 39.2917 22.3587 36.3317 23.4765C36.3262 23.4819 36.3262 23.4819 36.3208 23.4819C35.8189 23.6729 35.3662 23.9511 34.968 24.3001C32.0635 26.778 33.3985 31.6164 37.2317 32.2037ZM36.9971 26.3237C36.8062 26.5147 36.5608 26.6128 36.2553 26.5638C35.3773 26.4269 35.2831 25.2246 36.0862 24.9219C36.9679 24.6116 37.6192 25.6802 36.9971 26.3237ZM38.2462 27.851C37.927 27.807 37.865 27.3497 38.1862 27.2291C38.2189 27.2129 38.2517 27.2074 38.2953 27.2074C38.4753 27.2074 38.6226 27.3547 38.6226 27.5292C38.6226 27.7092 38.4753 27.8565 38.2898 27.8565C38.2352 27.8496 38.1916 27.8442 38.2462 27.851Z" fill="white"/>
<path d="M26.6303 22.3485C27.172 22.3477 27.6105 21.9078 27.6096 21.366C27.6087 20.8243 27.1687 20.3859 26.627 20.3867C26.0853 20.3877 25.6468 20.8275 25.6477 21.3694C25.6486 21.9111 26.0885 22.3495 26.6303 22.3485Z" fill="white"/>
<path d="M46.5263 22.5059L50.7426 22.495C51.3069 22.495 51.7354 22.0404 51.7354 21.5023V20.5533C51.7354 20.0216 51.3101 19.5605 50.7426 19.5605C50.6857 19.5606 46.4657 19.5661 46.5208 19.566C46.259 19.566 46.0081 19.6696 45.8226 19.8606C45.3724 20.2978 45.5804 20.8137 45.5336 21.5132C45.5336 22.0586 45.9808 22.5059 46.5263 22.5059ZM46.5263 20.3842C50.8428 20.406 50.7894 20.33 50.8626 20.4279C50.9676 20.5322 50.8889 20.5907 50.9172 21.5023C50.9172 21.6005 50.8408 21.6768 50.7426 21.6768L46.5263 21.6878C46.4281 21.6878 46.3517 21.606 46.3517 21.5079L46.3463 20.5586C46.3463 20.4651 46.4234 20.3842 46.5263 20.3842Z" fill="white"/>
<path d="M8.23987 7.63354C8.59646 7.63354 8.78383 7.20333 8.53657 6.94294L7.60493 5.96043C7.44939 5.79663 7.19024 5.78997 7.02645 5.94498C6.86265 6.10052 6.85573 6.3594 7.011 6.52346C7.89575 7.3998 7.93793 7.63354 8.23987 7.63354Z" fill="white"/>
<path d="M9.87674 6.77079C10.1005 6.7399 10.2571 6.53375 10.2264 6.30977L10.065 5.13363C10.0341 4.90991 9.82853 4.7541 9.60401 4.78393C9.38029 4.81483 9.22369 5.02097 9.25431 5.24496L9.41571 6.42109C9.44542 6.63658 9.64181 6.80057 9.87674 6.77079Z" fill="white"/>
<path d="M48.9171 43.7818C48.7275 43.6598 48.4742 43.7144 48.352 43.9048C46.3851 46.9664 43.4061 49.3005 39.9629 50.4767C39.7493 50.5499 39.6351 50.7824 39.7081 50.9963C39.7824 51.213 40.0179 51.3234 40.2277 51.2509C43.8445 50.0151 46.9742 47.5632 49.0402 44.3469C49.1624 44.1568 49.1073 43.9038 48.9171 43.7818Z" fill="white"/>
<path d="M38.6887 51.2924L37.5014 51.754C37.291 51.836 37.1866 52.073 37.2683 52.2837C37.3514 52.4964 37.5899 52.5975 37.7981 52.5168L38.9849 52.0552C39.1955 51.9732 39.2999 51.7361 39.2182 51.5257C39.1364 51.3148 38.898 51.2109 38.6887 51.2924Z" fill="white"/>
</svg>
