<svg width="61" height="60" viewBox="0 0 61 60" fill="none" xmlns="http://www.w3.org/2000/svg">
<g clip-path="url(#clip0_126_667)">
<path d="M9.79034 47.8216C10.0223 47.5684 10.3635 47.2833 10.8148 46.9661C11.2653 46.6494 11.7553 46.3329 12.2837 46.0156C12.8116 45.6989 13.3467 45.3881 13.888 45.084C14.4293 44.7798 14.893 44.5137 15.2795 44.2856C15.8462 43.9565 16.4006 43.5953 16.9418 43.2021C17.483 42.8093 17.9721 42.3531 18.4107 41.8334C18.8486 41.3141 19.2032 40.7249 19.4737 40.0653C19.7443 39.4064 19.8794 38.6584 19.8794 37.822C19.8794 35.7943 19.1385 34.185 17.6569 32.9932C16.1746 31.8021 14.0426 31.2061 11.2595 31.2061C10.1251 31.2061 9.03677 31.3078 7.99298 31.5103C6.9493 31.7135 5.9889 31.9856 5.1131 32.3278C4.23658 32.6701 3.45084 33.0567 2.75506 33.4875C2.05927 33.9187 1.50491 34.3619 1.09292 34.8181L5.03578 39.3047C5.78291 38.4682 6.55602 37.7904 7.3551 37.2705C8.1537 36.7514 9.09455 36.4911 10.177 36.4911C11.1301 36.4911 11.8646 36.7067 12.3803 37.1375C12.8955 37.5689 13.1535 38.1391 13.1535 38.8485C13.1535 39.2037 13.0502 39.5137 12.8443 39.78C12.6377 40.0461 12.2965 40.3444 11.8198 40.6734C11.3426 41.0032 10.6987 41.3834 9.88696 41.8141C9.07525 42.2455 8.06351 42.7902 6.85244 43.449C5.71822 44.0829 4.77784 44.7293 4.03058 45.388C3.28285 46.0476 2.69024 46.7633 2.25252 47.5364C1.81408 48.3099 1.50491 49.1655 1.32477 50.103C1.14415 51.0411 1.0542 52.1057 1.0542 53.2968H20.3048V47.8216H9.79034Z" fill="white"/>
<path d="M39.4772 47.441V31.5859H35.2638L22.6621 47.4791V52.9163H33.2924V58.1253H39.4772V52.9163H42.8789V47.441H39.4772ZM34.0267 47.4411H28.7696L34.0267 40.7112V47.4411Z" fill="white"/>
<path d="M4.65082 54.6855V56.7211H2.52129V54.6855H1.28711V59.9407H2.52129V57.7868H4.65082V59.9407H5.885V54.6855H4.65082Z" fill="white"/>
<path d="M12.8526 56.3511C12.7274 56.0305 12.5494 55.7442 12.3187 55.4926C12.0878 55.2409 11.8094 55.0389 11.4834 54.8857C11.1571 54.7328 10.796 54.6562 10.3996 54.6562C10.0134 54.6562 9.65716 54.7291 9.33107 54.8746C9.00486 55.0202 8.72274 55.2151 8.48433 55.4592C8.24605 55.7034 8.06031 55.9861 7.92747 56.3068C7.79439 56.6277 7.72803 56.9608 7.72803 57.3061C7.72803 57.6465 7.79201 57.9772 7.91996 58.2979C8.04792 58.6187 8.22711 58.9037 8.45789 59.1528C8.68866 59.4019 8.96709 59.6031 9.29318 59.7559C9.61927 59.9088 9.98039 59.9854 10.3769 59.9854C10.7631 59.9854 11.1193 59.9114 11.4455 59.7632C11.7716 59.6153 12.0525 59.419 12.2883 59.1749C12.5242 58.9307 12.7084 58.648 12.8413 58.3273C12.9743 58.0065 13.0408 57.6735 13.0408 57.328C13.0408 56.9977 12.978 56.6719 12.8526 56.3511ZM11.6978 57.8871C11.64 58.0772 11.5535 58.2474 11.4381 58.3978C11.3228 58.5484 11.1772 58.6705 11.0018 58.7644C10.8261 58.858 10.6204 58.905 10.3846 58.905C10.1589 58.905 9.95823 58.8606 9.78262 58.7719C9.60688 58.6831 9.46022 58.5645 9.34239 58.4166C9.22456 58.2687 9.13556 58.0996 9.07528 57.9096C9.01499 57.7197 8.98497 57.5236 8.98497 57.3212C8.98497 57.1239 9.0138 56.9302 9.07158 56.7401C9.12936 56.5502 9.21693 56.3811 9.33488 56.2331C9.45283 56.0851 9.59819 55.9655 9.7713 55.8742C9.94441 55.7829 10.1489 55.7372 10.3845 55.7372C10.6103 55.7372 10.8096 55.7804 10.9827 55.8668C11.1557 55.9532 11.3025 56.0693 11.4228 56.2146C11.5432 56.3603 11.6336 56.5281 11.6938 56.7179C11.7539 56.9079 11.7841 57.1042 11.7841 57.3063C11.7844 57.5036 11.7555 57.6973 11.6978 57.8871Z" fill="white"/>
<path d="M18.3166 54.6857V57.3723H18.3162C18.3162 57.5649 18.2974 57.7535 18.2598 57.9386C18.2221 58.1236 18.1581 58.2877 18.068 58.4308C17.9777 58.5738 17.8597 58.6887 17.7142 58.7749C17.5689 58.8614 17.3906 58.9045 17.18 58.9045C16.9692 58.9045 16.7924 58.8626 16.6495 58.7787C16.5064 58.6949 16.3897 58.5812 16.2995 58.4381C16.2092 58.2953 16.144 58.1323 16.1038 57.9497C16.0635 57.7671 16.0436 57.5748 16.0436 57.3723V54.6855H14.8096V57.3723C14.8096 57.7178 14.8534 58.0484 14.9412 58.3641C15.029 58.68 15.1671 58.9574 15.3552 59.1969C15.5434 59.4365 15.788 59.6275 16.0889 59.7704C16.39 59.9135 16.7536 59.9851 17.1801 59.9851C17.5914 59.9851 17.9463 59.9174 18.245 59.7816C18.5433 59.6459 18.7892 59.4596 18.9824 59.2228C19.1755 58.9859 19.3185 58.7097 19.4114 58.3938C19.5042 58.0781 19.5507 57.7376 19.5507 57.3724V54.6857H18.3166Z" fill="white"/>
<path d="M24.9157 57.9869C25.051 57.9128 25.1727 57.8228 25.2807 57.7166C25.3885 57.6104 25.48 57.4908 25.5553 57.3577C25.6305 57.2244 25.6883 57.0825 25.7285 56.9319C25.7685 56.7815 25.7886 56.6248 25.7886 56.462C25.7886 56.2447 25.7447 56.0302 25.6568 55.8179C25.569 55.6058 25.4474 55.4159 25.2919 55.2482C25.1363 55.0805 24.952 54.9447 24.7389 54.8409C24.5256 54.7375 24.2936 54.6855 24.0428 54.6855H21.6348V59.9408H22.8688V58.2458H23.674L24.6974 59.9408H26.0895L24.9157 57.9869ZM24.3739 56.9838C24.2686 57.1197 24.143 57.1874 23.9977 57.1874H22.8689V55.7515H23.9602C24.1004 55.7515 24.2311 55.8157 24.3514 55.944C24.4718 56.0724 24.532 56.2451 24.532 56.4622C24.5319 56.6742 24.4793 56.8483 24.3739 56.9838Z" fill="white"/>
<path d="M31.5945 57.7724C31.5166 57.6 31.4064 57.4532 31.2634 57.3322C31.1203 57.2113 30.946 57.1101 30.7404 57.0287C30.5345 56.9473 30.304 56.8722 30.048 56.8029C29.8623 56.7537 29.6993 56.7093 29.559 56.6698C29.4185 56.6304 29.3019 56.5872 29.209 56.5402C29.1161 56.4933 29.0459 56.4402 28.9983 56.381C28.9504 56.3218 28.9267 56.2479 28.9267 56.159C28.9267 55.8679 29.1475 55.7222 29.5889 55.7222C29.7492 55.7222 29.91 55.7445 30.0706 55.7889C30.2309 55.8333 30.379 55.8852 30.5146 55.9443C30.6499 56.0034 30.7628 56.0604 30.8532 56.1145C30.9434 56.1689 30.9962 56.2059 31.0112 56.2256L31.553 55.219C31.4327 55.15 31.3009 55.0811 31.158 55.0117C31.015 54.9427 30.8607 54.8809 30.6951 54.8266C30.5296 54.7724 30.3565 54.7281 30.1759 54.6935C29.9953 54.6591 29.8121 54.6416 29.6266 54.6416C29.3606 54.6416 29.1086 54.6787 28.8704 54.7527C28.6322 54.8266 28.4226 54.9366 28.2422 55.082C28.0616 55.2277 27.9186 55.4066 27.8132 55.6187C27.7079 55.8311 27.6552 56.0753 27.6552 56.3516C27.6552 56.5491 27.6839 56.7217 27.7417 56.8697C27.7995 57.0177 27.8871 57.1485 28.005 57.262C28.123 57.3756 28.2721 57.4756 28.4529 57.5618C28.6335 57.6483 28.8467 57.7283 29.0925 57.8025C29.2781 57.8568 29.4499 57.906 29.6079 57.9504C29.766 57.9948 29.9027 58.043 30.018 58.0948C30.1332 58.1466 30.2238 58.2046 30.2889 58.2687C30.354 58.3328 30.3869 58.4142 30.3869 58.5129C30.3869 58.7745 30.1686 58.9053 29.7322 58.9053C29.5263 58.9053 29.3232 58.8781 29.1226 58.8238C28.9219 58.7695 28.7399 58.7078 28.5769 58.6388C28.4138 58.5697 28.277 58.5007 28.1668 58.4313C28.0565 58.3624 27.9912 58.3154 27.9711 58.2907L27.4292 59.3492C27.5847 59.4526 27.754 59.544 27.9371 59.6229C28.1202 59.7019 28.3098 59.7697 28.5053 59.8265C28.7009 59.8832 28.9014 59.9264 29.1073 59.956C29.3131 59.9856 29.5136 60.0004 29.7093 60.0004C29.9652 60.0004 30.2135 59.9719 30.4544 59.9152C30.6952 59.8585 30.9084 59.7672 31.0941 59.6414C31.2797 59.5156 31.4289 59.3503 31.5418 59.1455C31.6548 58.9408 31.7111 58.6902 31.7111 58.3942C31.711 58.1524 31.6723 57.9452 31.5945 57.7724Z" fill="white"/>
<path d="M34.1339 28.3417C33.7981 27.0314 32.7475 25.998 31.4154 25.6677V9.5H29.5841V25.6678C27.9587 26.0708 26.752 27.5205 26.752 29.2424C26.752 31.2752 28.4333 32.9287 30.4997 32.9287C32.2504 32.9287 33.7241 31.7416 34.1338 30.143H45.0297V28.3417H34.1339ZM30.4998 31.1274C29.4431 31.1274 28.5834 30.2818 28.5834 29.2424C28.5834 28.2031 29.4431 27.3575 30.4998 27.3575C31.5564 27.3575 32.4162 28.2031 32.4162 29.2424C32.4162 30.2818 31.5564 31.1274 30.4998 31.1274Z" fill="white"/>
<path d="M56.8957 42.709C59.0766 38.5817 60.2295 33.9247 60.2295 29.242C60.2295 21.4312 57.1371 14.0879 51.5221 8.56456C45.9068 3.04173 38.441 0 30.5 0C22.559 0 15.0932 3.04173 9.47793 8.56468C3.86293 14.0879 0.770508 21.4313 0.770508 29.2421V30.1429H6.36537V28.3416H2.6166C2.76267 23.907 3.9847 19.736 6.03202 16.0712L9.25443 17.9436L10.1859 16.3927L6.96501 14.5211C9.17293 11.1179 12.123 8.22425 15.5883 6.06002L17.4831 9.23148L19.062 8.31882L17.166 5.14525C20.8782 3.15001 25.0989 1.96055 29.5844 1.81759V5.50315H31.4157V1.81759C35.9238 1.96137 40.1649 3.1615 43.8906 5.17514L41.9869 8.34484L43.5635 9.26101L45.4658 6.09354C48.9257 8.26527 51.868 11.1665 54.0683 14.5749L50.8438 16.4385L51.7717 17.9915L54.9994 16.1261C57.028 19.7775 58.2361 23.9295 58.3815 28.3416H54.6347V30.1429H58.3818C58.2355 34.4752 57.0387 38.675 54.9617 42.4095L51.7455 40.5407L50.8141 42.0916L54.0292 43.9598C52.5423 46.2632 50.7044 48.356 48.5613 50.1519L48.8089 47.9562L46.9888 47.7576L46.3955 53.0186L51.7442 53.6022L51.9461 51.812L49.6968 51.5665C52.6485 49.1047 55.1159 46.0777 56.8957 42.709Z" fill="white"/>
</g>
<defs>
<clipPath id="clip0_126_667">
<rect width="61" height="60" fill="white"/>
</clipPath>
</defs>
</svg>
