<svg width="40" height="40" viewBox="0 0 40 40" fill="none" xmlns="http://www.w3.org/2000/svg">
<path d="M12.1875 6.875C12.7438 6.875 13.2875 6.71005 13.75 6.40101C14.2126 6.09197 14.573 5.65272 14.7859 5.1388C14.9988 4.62488 15.0545 4.05938 14.946 3.51381C14.8374 2.96824 14.5696 2.4671 14.1762 2.07376C13.7829 1.68043 13.2818 1.41256 12.7362 1.30404C12.1906 1.19552 11.6251 1.25122 11.1112 1.46409C10.5973 1.67696 10.158 2.03745 9.84899 2.49996C9.53995 2.96247 9.375 3.50624 9.375 4.0625C9.37583 4.80817 9.67241 5.52306 10.1997 6.05033C10.7269 6.57759 11.4418 6.87417 12.1875 6.875ZM12.1875 2.5C12.4965 2.5 12.7986 2.59164 13.0556 2.76333C13.3125 2.93502 13.5128 3.17905 13.6311 3.46456C13.7493 3.75007 13.7803 4.06423 13.72 4.36733C13.6597 4.67043 13.5109 4.94884 13.2924 5.16736C13.0738 5.38588 12.7954 5.53469 12.4923 5.59498C12.1892 5.65527 11.8751 5.62432 11.5896 5.50606C11.304 5.3878 11.06 5.18753 10.8883 4.93058C10.7166 4.67363 10.625 4.37153 10.625 4.0625C10.625 3.6481 10.7896 3.25067 11.0826 2.95765C11.3757 2.66462 11.7731 2.5 12.1875 2.5Z" fill="#BA6827"/>
<path d="M14.687 10.2586L20.4282 15.9999L21.312 15.1155L15.1289 8.93299C15.0117 8.81582 14.8527 8.75 14.687 8.75C14.5213 8.75 14.3623 8.81582 14.2451 8.93299L7.68262 15.4955L8.56637 16.3792L14.687 10.2586Z" fill="#BA6827"/>
<path d="M23.7495 4.32112L27.6826 8.25424C27.7998 8.37146 27.9587 8.43733 28.1245 8.43737H29.7407L37.9951 16.6917L38.8789 15.808L30.4414 7.37049C30.3242 7.25327 30.1652 7.1874 29.9995 7.18737H28.3832L24.1914 2.99549C24.0742 2.87832 23.9152 2.8125 23.7495 2.8125C23.5838 2.8125 23.4248 2.87832 23.3076 2.99549L16.9014 9.40174L17.7851 10.2855L23.7495 4.32112Z" fill="#BA6827"/>
<path d="M34.3747 23.7511H23.5578L22.1515 20.0011H22.4997C23.3282 20.0001 24.1224 19.6705 24.7083 19.0847C25.2941 18.4989 25.6237 17.7046 25.6247 16.8761C25.6248 16.7908 25.6075 16.7064 25.5738 16.6281C25.5401 16.5497 25.4908 16.4791 25.4288 16.4206C25.3668 16.362 25.2934 16.3168 25.2133 16.2876C25.1332 16.2585 25.0479 16.2461 24.9628 16.2511L14.3378 16.8761C14.2035 16.8842 14.0753 16.9354 13.9724 17.0221C13.8695 17.1088 13.7974 17.2264 13.7667 17.3575C13.736 17.4885 13.7484 17.6259 13.8021 17.7493C13.8558 17.8727 13.9479 17.9755 14.0647 18.0423L18.1603 20.3823L18.9997 28.8136C19.0464 29.2664 19.1751 29.7069 19.3797 30.1136L19.9997 37.553C20.0116 37.6964 20.0726 37.8313 20.1725 37.9349C20.2724 38.0385 20.4049 38.1045 20.5478 38.1217C20.5733 38.1248 20.599 38.1263 20.6247 38.1261C20.7557 38.1259 20.8833 38.0845 20.9895 38.0078C21.0957 37.931 21.1751 37.8229 21.2165 37.6986L22.1915 34.773L22.4997 38.1823C22.5129 38.3283 22.5769 38.4649 22.6807 38.5684C22.7844 38.6719 22.9212 38.7357 23.0672 38.7486C23.0859 38.7486 23.1047 38.7486 23.1228 38.7486C23.2598 38.7485 23.393 38.7033 23.5019 38.6201C23.6108 38.5369 23.6893 38.4202 23.7253 38.288L25.574 31.5098L27.5409 30.9311C27.6427 31.5439 27.9585 32.1007 28.4321 32.5026C28.9058 32.9046 29.5066 33.1255 30.1278 33.1261H31.3747L32.5153 38.2617C32.5454 38.3973 32.6198 38.519 32.7267 38.6077C32.8337 38.6963 32.9671 38.7467 33.1059 38.7511H33.1247C33.2605 38.7512 33.3927 38.707 33.5012 38.6252C33.6097 38.5435 33.6886 38.4286 33.7259 38.298L34.0165 37.2811L33.5478 37.1473L32.5622 32.698L33.2497 32.9736L35.0334 38.3236C35.0748 38.4478 35.1541 38.5559 35.2602 38.6326C35.3663 38.7093 35.4938 38.7507 35.6247 38.7511C35.6584 38.7512 35.692 38.7485 35.7253 38.743C35.8717 38.7191 36.0048 38.6439 36.1009 38.5309C36.1969 38.4179 36.2497 38.2744 36.2497 38.1261V31.2511C36.2503 31.1344 36.2183 31.0199 36.1572 30.9205C36.0961 30.8211 36.0084 30.7407 35.904 30.6886L34.9997 30.2398V27.5011H36.2497C37.0782 27.5001 37.8724 27.1705 38.4583 26.5847C39.0441 25.9989 39.3737 25.2046 39.3747 24.3761C39.3747 24.2103 39.3088 24.0514 39.1916 23.9341C39.0744 23.8169 38.9154 23.7511 38.7497 23.7511H34.3747ZM21.1472 33.9573L20.9947 34.4142L20.7615 31.6261C21.1269 31.853 21.5286 32.0151 21.949 32.1055L22.1484 34.293L21.1472 33.9573ZM23.4334 34.6186L23.2097 32.1542C23.4066 32.1307 23.6014 32.0916 23.7922 32.0373L24.1672 31.9267L23.4334 34.6186ZM28.7578 30.5767L30.1428 30.1692C30.3297 30.8234 30.6924 31.4138 31.1915 31.8761H30.129C29.7778 31.8757 29.4399 31.7408 29.1849 31.4992C28.93 31.2575 28.7771 30.9275 28.7578 30.5767ZM34.9997 34.2748L34.3422 32.3036C34.3135 32.2174 34.2664 32.1384 34.2041 32.0722C34.1419 32.0061 34.0659 31.9543 33.9815 31.9205L32.8209 31.4567C32.3561 31.2725 31.9576 30.9525 31.6773 30.5384C31.397 30.1243 31.248 29.6355 31.2497 29.1355V26.8761H29.9997V28.9086L23.4372 30.838C23.0849 30.9407 22.7144 30.9647 22.3518 30.9081C21.9893 30.8516 21.6436 30.7159 21.3394 30.5108C21.0351 30.3056 20.7798 30.036 20.5915 29.7211C20.4031 29.4062 20.2865 29.0537 20.2497 28.6886L19.3747 19.9386C19.3646 19.8395 19.331 19.7442 19.2766 19.6607C19.2223 19.5772 19.1487 19.5079 19.0622 19.4586L16.5103 18.0011L24.2497 17.5461C24.1136 17.9 23.8736 18.2046 23.5613 18.4196C23.249 18.6347 22.8789 18.7502 22.4997 18.7511H21.2497C21.1487 18.751 21.0491 18.7754 20.9596 18.8223C20.8701 18.8691 20.7933 18.9369 20.7357 19.0199C20.6781 19.1029 20.6415 19.1986 20.6291 19.2989C20.6166 19.3991 20.6286 19.5009 20.664 19.5955L22.539 24.5955C22.5837 24.7147 22.6638 24.8174 22.7684 24.8899C22.8731 24.9624 22.9974 25.0012 23.1247 25.0011H33.7497V30.6261C33.749 30.7428 33.7811 30.8573 33.8421 30.9567C33.9032 31.0561 33.9909 31.1364 34.0953 31.1886L34.9997 31.6373V34.2748ZM36.2497 26.2511H34.9997V25.0011H38.0178C37.8881 25.3664 37.6485 25.6826 37.3319 25.9064C37.0154 26.1302 36.6373 26.2506 36.2497 26.2511Z" fill="#BA6827"/>
<path d="M1.64063 16.7386L4.59438 14.3755H6.25C6.41575 14.3754 6.57469 14.3096 6.69188 14.1924L8.80813 12.0761L9.625 12.688L10.375 11.688L9.125 10.7505C9.00466 10.66 8.85571 10.616 8.70551 10.6265C8.55532 10.6371 8.41399 10.7015 8.3075 10.808L5.99125 13.1255H4.375C4.23303 13.1254 4.09526 13.1737 3.98438 13.2624L0.859375 15.7624L1.64063 16.7386Z" fill="#BA6827"/>
<path d="M0.724609 32.683L1.60836 33.5667L3.66648 31.5086V38.1249H4.91648V31.5086L6.97461 33.5667L7.85836 32.683L4.91648 29.7411V27.7586L6.97461 29.8167L7.85836 28.933L4.91648 25.9911V24.0086L6.97461 26.0667L7.85836 25.183L4.91648 22.2411V20.2586L6.97461 22.3167L7.85836 21.433L4.73336 18.308C4.61615 18.1908 4.45721 18.125 4.29148 18.125C4.12576 18.125 3.96681 18.1908 3.84961 18.308L0.724609 21.433L1.60836 22.3167L3.66648 20.2586V22.2411L0.724609 25.183L1.60836 26.0667L3.66648 24.0086V25.9911L0.724609 28.933L1.60836 29.8167L3.66648 27.7586V29.7411L0.724609 32.683Z" fill="#BA6827"/>
<path d="M7.68262 35.183L8.56637 36.0667L10.6245 34.0086V38.1249H11.8745V34.0086L13.9326 36.0667L14.8164 35.183L11.8745 32.2411V30.2586L13.9326 32.3167L14.8164 31.433L11.8745 28.4911V26.5086L13.9326 28.5667L14.8164 27.683L11.8745 24.7411V22.7586L13.9326 24.8167L14.8164 23.933L11.6914 20.808C11.5742 20.6908 11.4152 20.625 11.2495 20.625C11.0838 20.625 10.9248 20.6908 10.8076 20.808L7.68262 23.933L8.56637 24.8167L10.6245 22.7586V24.7411L7.68262 27.683L8.56637 28.5667L10.6245 26.5086V28.4911L7.68262 31.433L8.56637 32.3167L10.6245 30.2586V32.2411L7.68262 35.183Z" fill="#BA6827"/>
</svg>
