<svg width="40" height="40" viewBox="0 0 40 40" fill="none" xmlns="http://www.w3.org/2000/svg">
<path d="M20 40C19.9506 40 19.9011 39.9954 19.8523 39.986C15.1126 39.0744 10.8093 36.5231 7.73529 32.8018C4.66156 29.0805 2.96875 24.3729 2.96875 19.5462V5.8728C2.96875 5.53131 3.19061 5.22919 3.51654 5.12726L19.7418 0.0439453C19.8239 0.0152587 19.9139 0.00183105 20 0H20.0009C20.0894 0 20.1764 0.0152587 20.2585 0.0439453L36.4835 5.12726C36.8094 5.22949 37.0312 5.53131 37.0312 5.8728V19.5462C37.0312 24.3729 35.3384 29.0805 32.2644 32.8018C29.1907 36.5231 24.8874 39.0744 20.1477 39.986C20.0989 39.9954 20.0494 40 20 40ZM4.53125 6.44653V19.5462C4.53125 28.7106 11.0275 36.6251 20 38.4225C28.9725 36.6251 35.4684 28.7106 35.4684 19.5462V6.44653L20 1.60034L4.53125 6.44653Z" fill="#BA6827"/>
<path d="M20 35.5222C19.9365 35.5222 19.873 35.5146 19.8114 35.4993C16.2842 34.6216 13.1015 32.5562 10.849 29.6836C8.58856 26.8003 7.34375 23.2004 7.34375 19.5469V9.08728C7.34375 8.74579 7.56561 8.44397 7.89124 8.34204L19.7662 4.62164C19.9182 4.57404 20.0815 4.57404 20.2335 4.62164L32.1085 8.34204C32.4341 8.44397 32.6559 8.74579 32.6559 9.08728V19.5469C32.6559 22.2175 31.9943 24.8759 30.7428 27.2346C30.5405 27.6157 30.0677 27.7604 29.6866 27.5583C29.3054 27.356 29.1605 26.8833 29.3625 26.5021C30.495 24.3683 31.0934 21.9633 31.0934 19.5469V9.66132L19.9997 6.18567L8.90625 9.66132V19.5469C8.90625 26.3288 13.4583 32.2175 19.9997 33.9347C21.817 33.4577 23.5056 32.6505 25.0217 31.5339C25.369 31.2781 25.8582 31.3523 26.1139 31.6996C26.3699 32.0469 26.2958 32.5361 25.9482 32.7918C24.2145 34.069 22.2766 34.9796 20.1883 35.4993C20.1266 35.5146 20.0632 35.5222 20 35.5222Z" fill="#BA6827"/>
<path d="M18.5807 25.8776C18.3806 25.8776 18.181 25.8013 18.0284 25.6487L12.7968 20.4171C12.4916 20.1122 12.4916 19.6175 12.7968 19.3123L15.4484 16.6607C15.5949 16.5142 15.7936 16.4318 16.0008 16.4318C16.208 16.4318 16.4067 16.5142 16.5532 16.6607L18.5807 18.6882L23.4462 13.8225C23.7513 13.5176 24.246 13.5173 24.5512 13.8225L27.2029 16.4742C27.3494 16.6207 27.4318 16.8193 27.4318 17.0266C27.4318 17.2338 27.3494 17.4324 27.2029 17.5789L19.1331 25.6487C18.9805 25.8013 18.7806 25.8776 18.5807 25.8776ZM14.4539 19.8647L18.5807 23.9913L25.5455 17.0266L23.9985 15.4799L19.1331 20.3456C18.9866 20.4921 18.788 20.5742 18.5807 20.5742C18.3735 20.5742 18.1749 20.4921 18.0284 20.3456L16.0008 18.3181L14.4539 19.8647Z" fill="#BA6827"/>
<path d="M28.064 30.5547C27.8586 30.5547 27.6569 30.4717 27.5116 30.3258C27.3663 30.1805 27.2827 29.9788 27.2827 29.7734C27.2827 29.5681 27.3663 29.3663 27.5116 29.2211C27.6569 29.0758 27.8586 28.9922 28.064 28.9922C28.2693 28.9922 28.4711 29.0758 28.6163 29.2211C28.7616 29.3663 28.8452 29.5681 28.8452 29.7734C28.8452 29.9788 28.7616 30.1805 28.6163 30.3258C28.4711 30.4717 28.2693 30.5547 28.064 30.5547Z" fill="#BA6827"/>
</svg>
