<svg width="36" height="36" viewBox="0 0 36 36" fill="none" xmlns="http://www.w3.org/2000/svg">
<path d="M17.7212 22.8252C17.5646 23.2707 17.2244 23.6688 16.7847 23.9199H16.7837C16.2635 24.219 15.6157 24.3289 14.9683 24.2793H14.9673C14.8309 24.2681 14.6912 24.2505 14.5405 24.2305C14.3924 24.2107 14.2304 24.1885 14.0688 24.1719C13.7448 24.1386 13.381 24.1237 13.0073 24.2021H13.0063C12.2485 24.3627 11.641 24.8771 11.1616 25.2529C10.6357 25.6653 10.2347 25.94 9.77686 25.9727C9.13419 26.0121 8.48172 25.5209 7.97705 24.8066L7.97412 24.8027L7.8501 24.6191C7.73366 24.4346 7.64169 24.2474 7.58936 24.0684C7.53487 23.8819 7.52866 23.7236 7.56494 23.5869C7.58569 23.5886 7.61071 23.5895 7.64014 23.5928C7.69943 23.5994 7.79929 23.6131 7.88916 23.6172C8.60828 23.6501 9.32855 23.6629 10.0483 23.6562C12.6287 23.6324 15.2021 23.3507 17.7212 22.8252Z" stroke="#BA6827"/>
<path d="M21.2292 22.2061C21.5377 22.0467 21.9045 22.0397 22.3162 22.168C22.7309 22.2972 23.1531 22.5535 23.5154 22.8564L23.5183 22.8584C23.7082 23.0152 23.8944 23.1829 24.0925 23.3604C24.2874 23.5349 24.4931 23.718 24.7078 23.8896C25.1368 24.2328 25.6315 24.5557 26.2292 24.7129L26.2312 24.7139C26.9626 24.9024 27.6757 24.8032 28.3269 24.6289C28.653 24.5416 28.974 24.4328 29.28 24.3252C29.5906 24.216 29.88 24.1092 30.1697 24.0176L30.1707 24.0186C31.4319 23.626 32.828 23.563 34.0193 23.9414C32.2702 28.9973 27.8208 32.6116 22.865 34.0557L22.3708 34.1914C21.3437 34.4568 20.8377 34.5475 20.4958 34.5869C20.3243 34.6067 20.1896 34.6147 20.0339 34.624C19.8776 34.6334 19.7063 34.6447 19.4832 34.6729C19.2024 34.7083 18.9414 34.7991 18.7322 34.8721C18.5067 34.9508 18.3349 35.0106 18.1628 35.0391C16.1526 35.3712 14.3785 34.153 13.825 32.3965C14.351 32.4965 14.8695 32.533 15.3474 32.4297C16.1195 32.2627 16.7095 31.7548 17.074 30.8438C17.179 30.5812 17.2228 30.2599 17.2595 30.0693C17.3039 29.8394 17.3487 29.7021 17.4177 29.6084C17.5062 29.4886 17.8155 29.2155 19.2478 29.5049C19.6523 29.5866 20.144 29.6362 20.6052 29.5586C21.0127 29.49 21.4443 29.3115 21.7361 28.9238L21.8523 28.7451C22.0767 28.3388 22.0825 27.9123 21.9968 27.5186C21.9135 27.1362 21.736 26.7503 21.5525 26.3896C21.1638 25.6257 20.7348 24.9305 20.573 24.1768V24.1758C20.4894 23.7862 20.505 23.3566 20.6238 22.9893C20.7417 22.6246 20.9494 22.3525 21.2292 22.2061Z" stroke="#BA6827"/>
<path d="M33.5232 26.313C31.2747 30.4704 26.9375 33.8669 20.903 35.0344C12.6889 36.5743 3.03723 31.2788 1.48 22.0916C1.44992 21.9141 1.34916 21.6352 1.53421 21.5096C1.75369 21.3606 3.13054 21.3255 3.31943 21.3688C3.56597 21.4254 3.53383 21.5341 3.65288 21.9029C6.09471 29.4898 14.8386 34.1082 22.5465 32.6632C25.2994 32.1477 27.7882 31.1703 30.0988 29.548C33.0587 27.4746 32.8148 26.8753 33.5232 26.313Z" fill="#BA6827"/>
<path d="M23.199 12.2383C25.5486 12.2349 27.4553 14.1354 27.4587 16.4805C27.462 18.83 25.5616 20.7368 23.2166 20.7402C20.8668 20.7436 18.96 18.8423 18.9568 16.4971C18.9538 14.1477 20.8541 12.2416 23.199 12.2383ZM23.6003 15.1455C23.598 14.25 22.7512 13.6469 21.9402 13.8467L21.781 13.8965C20.4279 14.4096 20.7314 16.4932 22.2605 16.4932C22.3591 16.4932 22.455 16.4812 22.5476 16.4609C22.5925 16.8701 22.8804 17.2527 23.3728 17.332V17.333C23.375 17.3334 23.3774 17.3326 23.3796 17.333L23.3806 17.334V17.333C23.9705 17.4289 24.5203 16.965 24.5203 16.3564C24.5202 15.824 24.0982 15.3977 23.5808 15.3711C23.5855 15.342 23.5917 15.3129 23.5945 15.2832L23.6003 15.1455Z" stroke="#BA6827"/>
<path d="M30.1847 7.06396C30.2515 7.22172 30.2627 7.93849 30.8647 7.5367C31.7321 6.98191 33.1505 5.73508 33.8247 5.07124C34.2029 4.70032 34.672 4.23495 34.8284 3.65673C35.1702 2.39492 34.4029 1.00581 33.112 0.558543C31.6451 0.0496649 30.1945 0.925642 29.7338 2.03129C29.4938 2.60586 29.5811 3.21311 29.6611 3.79851C29.6785 3.92016 29.9334 5.99567 30.1847 7.06396ZM30.2393 2.24223C30.6188 1.32962 31.8048 0.679037 32.9338 1.07497C33.9593 1.42759 34.5738 2.52223 34.3047 3.51131C34.1847 3.9513 33.7884 4.34041 33.4393 4.68585C32.7618 5.35253 31.4683 6.48196 30.7265 6.97678C30.5846 6.17481 30.6501 6.96628 30.2029 3.72216C30.1302 3.20947 30.0575 2.67857 30.2393 2.24223Z" fill="#BA6827"/>
<path d="M31.8612 3.95236C33.1829 4.39338 34.1 2.68436 33.1012 1.79957C32.428 1.20841 31.3923 1.5124 31.1012 2.34875C30.8709 2.99505 31.2055 3.72359 31.8612 3.95236ZM32.2903 2.03963C32.7483 2.03963 33.096 2.48662 32.9376 2.98512C32.8057 3.35753 32.4152 3.56133 32.0394 3.43593C31.2907 3.1709 31.5049 2.03963 32.2903 2.03963Z" fill="#BA6827"/>
<path d="M35.4976 16.9704C35.4832 16.8268 35.3559 16.7188 35.2139 16.7267C35.2129 16.7267 35.212 16.7271 35.211 16.7271C35.0147 16.5214 34.6969 16.3395 34.2685 16.1841C34.2684 16.1468 34.2611 13.8675 34.2612 13.9048L34.2576 10.7157C34.2503 10.0976 33.7448 9.5958 33.1303 9.5958H32.4576C32.4359 9.41294 32.5497 9.01147 32.2066 8.66851C32.043 8.50853 31.8285 8.41762 31.603 8.41762C31.603 8.41762 31.603 8.41762 31.5994 8.41762L28.4394 8.4249C27.9703 8.4249 27.5885 8.81028 27.5885 9.27939V9.60672L18.8466 9.62128L18.843 8.83212C18.843 8.52309 18.5921 8.26847 18.283 8.26847C18.2794 8.26847 18.2794 8.26847 18.2794 8.26847L16.2648 8.27211C15.9521 8.27211 15.7012 8.52664 15.7012 8.83576L15.7048 9.62483L14.4285 9.62847C13.9485 9.62847 13.5448 9.93031 13.3776 10.3485C13.2752 10.0242 13.7392 11.5207 12.2757 6.78853C12.2176 6.61027 12.1558 6.4249 12.1267 6.24663C11.9666 5.34489 11.139 5.27543 10.2212 5.1812L9.89392 3.77397C9.79212 3.34127 9.46119 3.0103 9.02483 2.90847C5.33393 2.06126 2.49393 3.95579 1.44302 4.81028C1.09756 5.09757 0.952115 5.54484 1.0612 5.98491L1.49029 7.65031C1.37392 7.72302 1.25756 7.79936 1.14483 7.8758C0.348466 8.41762 0.323009 9.05762 0.443015 9.50489C0.495541 9.68715 0.071297 8.23096 3.4321 19.6248C3.4321 19.6285 3.43574 19.6321 3.43574 19.6357C3.43609 19.6369 3.43645 19.6381 3.4368 19.6394C2.32367 20.1408 0.420462 21.1529 1.21392 22.089C1.21428 22.0891 1.21257 22.0903 1.21392 22.0903C1.28055 22.5903 1.45378 23.4069 1.75574 24.3557C4.76949 33.7199 17.0342 38.9126 27.1594 33.0649C30.2745 31.2904 32.7034 28.5927 33.9194 26.1594C34.3121 25.3812 34.6357 24.5812 34.9048 23.723C34.9048 23.7194 34.9048 23.7194 34.9048 23.7194C35.5889 21.5086 35.75 19.2796 35.4976 16.9704ZM28.1339 9.27939C28.1339 9.10849 28.2721 8.97035 28.443 8.97035L31.603 8.96307C31.683 8.96307 31.763 8.99574 31.8212 9.05398C31.9557 9.18843 31.8978 9.34742 31.9121 9.53037L28.1339 9.53756V9.27939ZM32.1788 19.9235C32.7641 20.278 32.8269 21.1107 32.2994 21.549C32.0236 21.7784 31.6153 21.8955 31.375 22.2816C31.0075 22.8723 31.3599 23.5474 31.3823 24.0858C31.4024 24.5629 31.1176 25.0439 30.6897 25.2559C30.2619 25.4675 29.7065 25.4027 29.3393 25.0982C28.9779 24.7976 28.5663 24.0206 27.8129 24.09C27.5547 24.1142 27.3429 24.2441 27.1561 24.3587C26.9885 24.4618 26.8491 24.5577 26.7064 24.546C26.4629 24.5376 26.2712 24.218 26.173 23.9219C25.7105 22.524 26.1719 21.498 26.1659 21.3386C28.4962 20.809 30.5102 20.2207 32.0604 19.6224C32.031 19.7362 32.0733 19.8595 32.1788 19.9235ZM4.46559 16.1976C4.39048 15.7871 4.4418 15.2301 4.81058 14.8981C5.07887 14.6564 5.50944 14.5691 5.90451 14.6747C5.94381 14.6852 5.98197 14.7045 6.0209 14.7186C5.402 14.7359 4.92005 15.4594 5.33002 16.402C5.48334 16.7546 5.70625 17.2281 6.08941 17.2387C5.7647 17.3983 5.44548 17.5676 5.12863 17.7417C5.10595 17.5941 4.59648 16.9121 4.46559 16.1976ZM7.47063 16.574C7.48478 16.618 7.48122 16.5992 7.48541 16.6107C7.46967 16.6172 7.45376 16.6232 7.43802 16.6298C7.45183 16.6133 7.45935 16.5923 7.47063 16.574ZM13.3121 15.5837C13.3122 15.6217 13.3195 18.3672 13.3194 18.3304C12.1984 18.0397 11.3433 18.8436 11.1872 19.9297C11.0445 20.8585 11.2839 21.7636 11.48 22.6831C10.9403 22.7137 10.6965 22.7297 9.64989 22.7594C9.6112 22.1923 9.38286 20.9829 9.10337 20.4448C8.05146 18.4213 5.50364 18.8932 5.53839 21.0959C5.54791 21.6843 5.74793 22.2445 5.93323 22.7449C5.89601 22.7429 5.542 22.732 4.90484 22.6831C4.81192 22.3796 5.20887 23.7152 3.85781 19.1348C6.68878 17.2733 9.94981 16.0526 13.3121 15.5837ZM9.85302 14.2081C9.84609 13.7908 9.98778 13.2498 10.4061 12.9826C10.7103 12.7882 11.1479 12.7715 11.5221 12.9414C11.5592 12.9583 11.5937 12.9836 11.6299 13.0038C11.0009 12.9176 10.4257 13.5685 10.6722 14.5513C10.7399 14.8211 10.8609 15.2704 11.1251 15.4366C10.8193 15.5083 10.5163 15.5899 10.2137 15.6738C10.0365 15.1964 9.86116 14.7043 9.85302 14.2081ZM12.7557 15.0716C12.763 15.1203 12.7634 15.1014 12.7666 15.1167C12.747 15.1198 12.7273 15.1226 12.7076 15.1258C12.7263 15.1103 12.7398 15.0898 12.7557 15.0716ZM27.0539 14.1921C28.8184 17.128 26.7095 20.9667 23.2176 20.9667C19.7166 20.9667 17.6046 17.1559 19.3521 14.2067C21.104 11.2678 25.331 11.302 27.0539 14.1921ZM6.47615 22.7666C6.48536 22.7191 6.48665 22.6697 6.46861 22.6211C6.28359 22.1227 6.09219 21.6074 6.08384 21.0872C6.07011 20.2152 6.61628 19.5534 7.47937 19.7337C7.19789 19.752 7.01321 19.9755 6.94681 20.2365C6.82645 20.71 7.09336 21.8922 7.24009 22.3984C7.28037 22.5375 7.33136 22.68 7.42812 22.7849C6.85426 22.7849 6.5461 22.769 6.47615 22.7666ZM12.3622 19.68C12.3113 19.9492 12.3367 20.2255 12.384 20.4982C12.3905 20.5354 12.7499 22.4833 12.7874 22.5959C12.7653 22.5986 12.0514 22.6527 12.03 22.6467C11.8473 21.7758 11.5952 20.8656 11.7266 20.0099C11.847 19.1744 12.4557 18.6055 13.2807 18.8917C12.789 18.8376 12.4494 19.2349 12.3622 19.68ZM33.723 18.2103C31.7676 19.2703 27.9873 20.3063 26.0976 20.7012C26.0796 20.7103 25.8809 20.7516 25.8612 20.7558C28.1292 19.354 28.8496 16.4458 27.6758 14.1921L33.7157 14.1812L33.723 18.2103ZM22.3885 21.443C21.8094 21.5465 23.3681 21.3257 13.8721 22.5158C13.8706 21.7739 13.8612 16.2894 13.8576 14.214L18.7303 14.2067C17.1991 17.1916 19.0185 20.8917 22.3885 21.443ZM16.2648 8.81756L18.2976 8.83212L18.3012 9.62128L16.2539 9.62483L16.2648 8.81756ZM14.4285 10.1739C41.2991 10.1269 3.69628 10.1911 33.1303 10.1413C33.4467 10.1413 33.7085 10.3994 33.7121 10.7157L33.7157 13.6357L27.3485 13.6467C25.4155 10.7678 21.081 10.7052 19.0539 13.6612L13.8576 13.6685C13.8575 13.6321 13.8537 11.7842 13.8539 11.9012L13.8503 10.7521C13.8503 10.4357 14.1085 10.1739 14.4285 10.1739ZM1.78847 5.23216C3.73562 3.65004 6.31387 2.84699 8.9012 3.43946C9.13393 3.49397 9.30847 3.66851 9.36301 3.89755L9.65029 5.14489C6.97401 5.04783 4.28236 5.96454 1.97755 7.34855L1.58848 5.85032C1.53029 5.61755 1.60666 5.38122 1.78847 5.23216ZM0.966653 9.35938C0.792177 8.69761 1.34787 8.36665 1.95212 8.00666C4.47109 6.40521 7.64479 5.3761 10.5703 5.77033C11.2248 5.85396 11.5157 5.93759 11.5885 6.34127C11.6248 6.55576 11.6903 6.75941 11.7557 6.95943C11.7677 6.9981 12.4046 9.05444 12.3928 9.01625C12.1339 9.04484 11.8755 9.07777 11.6177 9.11471C11.5305 8.56952 11.4007 8.13512 11.208 7.76456C10.1619 5.75436 7.60671 6.19123 7.6435 8.41762C7.65227 8.94993 7.81735 9.45766 7.98619 9.92055C7.41359 10.0939 6.84687 10.2866 6.2883 10.5009C5.95206 9.51199 5.38231 8.61629 4.3816 8.34819C3.08337 8.00147 1.99565 9.02537 2.26513 10.4963C2.37295 11.0859 2.67129 11.615 2.94015 12.0844C2.60501 12.275 2.27427 12.4734 1.94856 12.6798C1.55298 11.3474 1.45105 10.9839 0.966653 9.35938ZM8.51053 9.76678C8.34776 9.32316 8.19648 8.86808 8.18895 8.40874C8.18203 7.99148 8.32372 7.45047 8.74204 7.18324C9.04655 6.98882 9.48423 6.97248 9.85799 7.14205C9.89508 7.15892 9.92961 7.18413 9.96574 7.20437C9.35377 7.12042 8.7581 7.75456 9.00822 8.75196C9.06604 8.98251 9.16319 9.34393 9.35464 9.54865C9.0721 9.61684 8.79052 9.68875 8.51053 9.76678ZM3.41778 11.8208C3.15815 11.3679 2.89343 10.9 2.8017 10.3981C2.72642 9.98775 2.77756 9.43076 3.14652 9.09855C3.41516 8.85689 3.84449 8.76936 4.24062 8.87518C4.28004 8.88575 4.31828 8.90501 4.35728 8.91913C3.73981 8.93637 3.25588 9.65969 3.66603 10.6026C3.77494 10.853 3.96308 11.2656 4.24222 11.3947C3.96457 11.5313 3.69004 11.6738 3.41778 11.8208ZM2.10865 13.2182C2.86697 12.8296 6.58738 10.1805 12.5552 9.54679C12.8442 10.476 13.0432 11.1194 13.3085 11.9594C13.3085 11.9974 13.3121 15.0687 13.3121 15.032C13.308 15.0325 13.3039 15.0333 13.2998 15.0339C13.0706 12.6404 11.2351 11.8059 10.1124 12.5229C9.60408 12.8477 9.29567 13.4968 9.30756 14.217C9.31697 14.7868 9.50554 15.3303 9.6862 15.8193C9.11303 15.9925 8.5484 16.1914 7.99005 16.4073C7.65893 15.3822 7.08669 14.4261 6.04549 14.1477C4.74137 13.7992 3.66097 14.83 3.92901 16.2958C4.03963 16.8997 4.35018 17.4411 4.62397 17.9189C4.63957 17.946 4.66463 17.9622 4.68702 17.9816C4.35162 18.1756 4.0236 18.3814 3.69857 18.5918C3.18875 16.8924 2.18873 13.4971 2.10865 13.2182ZM7.26175 31.229C7.41598 30.0559 7.98987 28.9191 8.8452 28.1028C9.03377 27.9229 9.28537 27.7134 9.55934 27.6889C9.92954 27.6559 10.2713 27.9741 10.4489 28.2567C10.8678 28.9248 11.0543 30.3333 12.1962 30.5911C12.9665 30.7642 13.6301 30.2179 14.2239 29.9226C14.6897 29.6911 15.3175 29.6447 15.565 30.014C15.7344 30.2669 15.6952 30.6488 15.4386 31.223C14.937 32.3454 14.8755 33.0344 15.9752 33.731C16.2368 33.8936 16.5268 34.0594 16.6953 34.2745C16.8282 34.4441 16.8956 34.7124 16.7786 34.8683C16.7551 34.8995 16.7401 34.9343 16.7317 34.9701C13.2435 34.7014 9.85432 33.2984 7.26175 31.229ZM34.3848 23.5594C32.1159 30.8455 24.3091 35.3418 17.3202 35.003C17.4681 34.6363 17.3402 34.2131 17.1247 33.9382C16.8965 33.647 16.5871 33.4692 16.2671 33.2704C15.4456 32.7498 15.5223 32.3725 15.9397 31.4387C16.152 30.9634 16.3912 30.2674 16.0181 29.7106C15.5933 29.0758 14.6719 29.0907 13.9812 29.4341C13.3891 29.7287 12.8452 30.179 12.3163 30.0591C11.5208 29.8792 11.3576 28.6787 10.9109 27.967C10.6391 27.5337 10.1298 27.0909 9.51087 27.1456C9.06857 27.185 8.72163 27.467 8.46878 27.7083C7.59203 28.5448 7.00203 29.641 6.77589 30.8264C6.77527 30.8259 6.77454 30.8254 6.77392 30.8248C4.11491 28.5624 2.38525 25.5148 1.84665 22.5558C1.84301 22.5485 1.84301 22.5412 1.84301 22.5339V22.5307C2.68856 22.9298 3.80463 23.0681 4.57756 23.1812C4.66912 23.227 4.66884 23.2047 5.44581 23.2692C9.22727 23.5886 13.823 23.2538 17.5913 22.8074C20.0865 22.4767 22.4054 22.1612 25.5807 21.4687C25.3533 22.3264 25.3761 23.2497 25.6552 24.0932C25.8603 24.712 26.2365 25.0756 26.6879 25.0911C27.2215 25.113 27.5225 24.6652 27.8635 24.633C28.2858 24.5922 28.6027 25.1949 28.9908 25.5178C29.5266 25.9624 30.3067 26.0542 30.9319 25.7445C31.5565 25.4352 31.9565 24.7594 31.9274 24.063C31.9187 23.856 31.8759 23.6529 31.8347 23.4563C31.6629 22.6404 31.762 22.5263 32.2738 22.2204C32.3988 22.1456 32.5281 22.0682 32.6481 21.9684C33.4582 21.2953 33.37 20.014 32.4672 19.4609C33.2755 19.1302 34.4131 18.6104 35.0321 17.9979C35.0194 18.4867 35.2692 20.7015 34.3848 23.5594Z" fill="#BA6827"/>
<path d="M22.8211 19.4724C24.6561 19.7714 26.3197 18.337 26.3157 16.4797C26.3072 14.368 24.1944 12.9091 22.2211 13.6542C22.2175 13.6579 22.2175 13.6579 22.2138 13.6579C21.8793 13.7852 21.5775 13.9706 21.312 14.2033C19.3757 15.8552 20.2656 19.0808 22.8211 19.4724ZM22.6647 15.5524C22.5375 15.6797 22.3738 15.7451 22.1702 15.7125C21.5848 15.6212 21.5221 14.8197 22.0575 14.6178C22.6453 14.411 23.0794 15.1234 22.6647 15.5524ZM23.4975 16.5706C23.2847 16.5412 23.2433 16.2364 23.4575 16.156C23.4793 16.1452 23.5011 16.1415 23.5302 16.1415C23.6502 16.1415 23.7484 16.2397 23.7484 16.356C23.7484 16.4761 23.6502 16.5742 23.5266 16.5742C23.4902 16.5697 23.4611 16.566 23.4975 16.5706Z" fill="#BA6827"/>
<path d="M15.7534 12.9016C16.1146 12.9011 16.4069 12.6078 16.4063 12.2466C16.4057 11.8855 16.1124 11.5932 15.7513 11.5938C15.3901 11.5944 15.0978 11.8876 15.0984 12.2488C15.099 12.61 15.3923 12.9023 15.7534 12.9016Z" fill="#BA6827"/>
<path d="M29.0175 13.0066L31.8284 12.9993C32.2046 12.9993 32.4902 12.6962 32.4902 12.3374V11.7048C32.4902 11.3503 32.2067 11.043 31.8284 11.043C31.7905 11.043 28.9771 11.0467 29.0139 11.0466C28.8393 11.0466 28.6721 11.1157 28.5484 11.243C28.2483 11.5344 28.3869 11.8784 28.3557 12.3447C28.3557 12.7084 28.6539 13.0066 29.0175 13.0066ZM29.0175 11.5921C31.8952 11.6066 31.8596 11.556 31.9084 11.6212C31.9784 11.6907 31.9259 11.7297 31.9448 12.3374C31.9448 12.403 31.8939 12.4538 31.8284 12.4538L29.0175 12.4611C28.9521 12.4611 28.9012 12.4066 28.9012 12.3412L28.8975 11.7084C28.8975 11.646 28.949 11.5921 29.0175 11.5921Z" fill="#BA6827"/>
<path d="M3.49333 3.09098C3.73105 3.09098 3.85597 2.80417 3.69113 2.63058L3.07003 1.97557C2.96634 1.86637 2.79358 1.86193 2.68438 1.96527C2.57518 2.06897 2.57057 2.24155 2.67408 2.35093C3.26391 2.93515 3.29204 3.09098 3.49333 3.09098Z" fill="#BA6827"/>
<path d="M4.58449 2.51451C4.73364 2.49392 4.83804 2.35649 4.81763 2.20716L4.71003 1.42307C4.68943 1.27392 4.55236 1.17005 4.40268 1.18994C4.25353 1.21054 4.14912 1.34796 4.16954 1.49729L4.27714 2.28138C4.29694 2.42504 4.42787 2.53437 4.58449 2.51451Z" fill="#BA6827"/>
<path d="M30.6116 27.1879C30.4852 27.1065 30.3163 27.1429 30.2348 27.2699C28.9236 29.3109 26.9376 30.867 24.6421 31.6511C24.4997 31.6999 24.4236 31.8549 24.4722 31.9975C24.5218 32.142 24.6787 32.2156 24.8186 32.1673C27.2298 31.3434 29.3163 29.7088 30.6936 27.5646C30.7751 27.4379 30.7384 27.2692 30.6116 27.1879Z" fill="#BA6827"/>
<path d="M23.7924 32.1982L23.0008 32.5059C22.8606 32.5606 22.791 32.7186 22.8455 32.8591C22.9008 33.0009 23.0599 33.0683 23.1986 33.0144L23.9898 32.7067C24.1303 32.652 24.1999 32.494 24.1454 32.3537C24.0909 32.2131 23.9319 32.1439 23.7924 32.1982Z" fill="#BA6827"/>
</svg>
