<svg width="40" height="40" viewBox="0 0 40 40" fill="none" xmlns="http://www.w3.org/2000/svg">
<g clip-path="url(#clip0_1173_28688)">
<path d="M6.42002 31.8817C6.57213 31.7129 6.79588 31.5229 7.09182 31.3114C7.38721 31.1003 7.70854 30.8893 8.05503 30.6777C8.4012 30.4666 8.75206 30.2594 9.10699 30.0567C9.46199 29.8539 9.76605 29.6764 10.0195 29.5244C10.3911 29.305 10.7546 29.0642 11.1095 28.8021C11.4644 28.5402 11.7851 28.236 12.0727 27.8896C12.3599 27.5434 12.5924 27.1506 12.7697 26.7109C12.9472 26.2716 13.0358 25.7729 13.0358 25.2153C13.0358 23.8635 12.55 22.7906 11.5784 21.9961C10.6064 21.202 9.20839 20.8047 7.38339 20.8047C6.63955 20.8047 5.92588 20.8725 5.24142 21.0075C4.55705 21.143 3.92728 21.3244 3.35298 21.5525C2.77821 21.7807 2.26297 22.0384 1.80672 22.3256C1.35047 22.6131 0.986954 22.9086 0.716797 23.2127L3.30228 26.2038C3.7922 25.6461 4.29915 25.1942 4.82314 24.8477C5.34682 24.5016 5.96377 24.3281 6.67354 24.3281C7.29854 24.3281 7.78018 24.4718 8.11839 24.759C8.4562 25.0466 8.62534 25.4267 8.62534 25.8996C8.62534 26.1364 8.55761 26.3431 8.42261 26.5206C8.28714 26.6981 8.06339 26.8969 7.75081 27.1163C7.43792 27.3361 7.01565 27.5896 6.48338 27.8767C5.95111 28.1643 5.28767 28.5275 4.49353 28.9667C3.74978 29.3893 3.13313 29.8202 2.64313 30.2593C2.15282 30.699 1.76422 31.1762 1.47719 31.6916C1.18969 32.2072 0.986954 32.7776 0.868829 33.4026C0.750391 34.028 0.691406 34.7378 0.691406 35.5319H13.3147V31.8817H6.42002Z" fill="#BA6827"/>
<path d="M25.8866 31.6286V21.0586H23.1237L14.8604 31.654V35.2788H21.831V38.7515H25.8866V35.2788H28.1173V31.6286H25.8866ZM22.3126 31.6287H18.8653L22.3126 27.1421V31.6287Z" fill="#BA6827"/>
<path d="M3.04946 36.457V37.8141H1.65305V36.457H0.84375V39.9605H1.65305V38.5245H3.04946V39.9605H3.85876V36.457H3.04946Z" fill="#BA6827"/>
<path d="M8.42828 37.5674C8.34617 37.3537 8.22945 37.1628 8.07812 36.9951C7.92671 36.8273 7.74421 36.6926 7.53038 36.5905C7.31647 36.4885 7.07968 36.4375 6.81975 36.4375C6.56647 36.4375 6.33288 36.4861 6.11905 36.583C5.90514 36.6802 5.72014 36.8101 5.56381 36.9728C5.40756 37.1356 5.28576 37.3241 5.19865 37.5379C5.11139 37.7518 5.06787 37.9738 5.06787 38.2041C5.06787 38.431 5.10982 38.6515 5.19373 38.8652C5.27764 39.0792 5.39514 39.2692 5.54647 39.4352C5.6978 39.6013 5.88037 39.7354 6.0942 39.8373C6.30803 39.9392 6.54483 39.9902 6.80483 39.9902C7.05811 39.9902 7.29163 39.941 7.50554 39.8421C7.71937 39.7435 7.90359 39.6127 8.0582 39.4499C8.21288 39.2871 8.33367 39.0987 8.42085 38.8849C8.50804 38.671 8.55164 38.449 8.55164 38.2187C8.55164 37.9984 8.51046 37.7813 8.42828 37.5674ZM7.67101 38.5914C7.63312 38.7181 7.5764 38.8316 7.50069 38.9319C7.42507 39.0323 7.3296 39.1137 7.2146 39.1763C7.09936 39.2387 6.96452 39.27 6.80991 39.27C6.66186 39.27 6.5303 39.2404 6.41514 39.1813C6.29991 39.122 6.20374 39.043 6.12647 38.9444C6.0492 38.8458 5.99084 38.7331 5.95131 38.6064C5.91178 38.4798 5.89209 38.3491 5.89209 38.2141C5.89209 38.0826 5.911 37.9534 5.94889 37.8267C5.98678 37.7002 6.0442 37.5874 6.12155 37.4888C6.19889 37.3901 6.2942 37.3103 6.40772 37.2495C6.52124 37.1886 6.6553 37.1581 6.80983 37.1581C6.95788 37.1581 7.08858 37.187 7.2021 37.2445C7.31554 37.3021 7.41179 37.3795 7.49069 37.4764C7.5696 37.5735 7.6289 37.6854 7.66835 37.812C7.7078 37.9386 7.72757 38.0695 7.72757 38.2042C7.7278 38.3357 7.70882 38.4649 7.67101 38.5914Z" fill="#BA6827"/>
<path d="M12.0111 36.4571V38.2482H12.0109C12.0109 38.3766 11.9985 38.5024 11.9739 38.6257C11.9492 38.7491 11.9072 38.8584 11.8481 38.9538C11.7889 39.0492 11.7115 39.1258 11.6161 39.1833C11.5208 39.2409 11.4039 39.2697 11.2658 39.2697C11.1276 39.2697 11.0117 39.2417 10.9179 39.1858C10.8241 39.1299 10.7476 39.0541 10.6885 38.9588C10.6292 38.8635 10.5864 38.7549 10.5601 38.6331C10.5337 38.5114 10.5206 38.3832 10.5206 38.2482V36.457H9.71143V38.2482C9.71143 38.4785 9.74018 38.6989 9.79775 38.9094C9.85533 39.12 9.94588 39.3049 10.0692 39.4646C10.1926 39.6243 10.353 39.7517 10.5503 39.847C10.7478 39.9424 10.9862 39.9901 11.2659 39.9901C11.5356 39.9901 11.7683 39.9449 11.9642 39.8544C12.1598 39.7639 12.321 39.6397 12.4477 39.4819C12.5743 39.3239 12.6681 39.1398 12.729 38.9292C12.7899 38.7188 12.8203 38.4917 12.8203 38.2483V36.4571H12.0111Z" fill="#BA6827"/>
<path d="M16.3384 38.6579C16.4272 38.6085 16.5069 38.5485 16.5778 38.4777C16.6485 38.407 16.7085 38.3272 16.7579 38.2384C16.8072 38.1496 16.8451 38.055 16.8714 37.9546C16.8976 37.8543 16.9109 37.7499 16.9109 37.6413C16.9109 37.4965 16.882 37.3534 16.8244 37.212C16.7669 37.0706 16.6871 36.9439 16.5851 36.8321C16.4831 36.7203 16.3623 36.6298 16.2225 36.5606C16.0826 36.4916 15.9305 36.457 15.7661 36.457H14.187V39.9606H14.9962V38.8306H15.5242L16.1953 39.9606H17.1081L16.3384 38.6579ZM15.9832 37.9892C15.9141 38.0798 15.8318 38.1249 15.7365 38.1249H14.9963V37.1677H15.7119C15.8038 37.1677 15.8895 37.2105 15.9684 37.296C16.0473 37.3816 16.0869 37.4967 16.0869 37.6415C16.0868 37.7828 16.0523 37.8988 15.9832 37.9892Z" fill="#BA6827"/>
<path d="M20.7177 38.513C20.6666 38.3981 20.5943 38.3002 20.5006 38.2195C20.4067 38.1389 20.2924 38.0714 20.1576 38.0172C20.0226 37.9629 19.8714 37.9128 19.7036 37.8666C19.5818 37.8338 19.4749 37.8042 19.3829 37.7779C19.2908 37.7516 19.2143 37.7228 19.1534 37.6915C19.0925 37.6602 19.0465 37.6248 19.0152 37.5854C18.9838 37.5459 18.9683 37.4966 18.9683 37.4373C18.9683 37.2433 19.1131 37.1462 19.4025 37.1462C19.5077 37.1462 19.6131 37.161 19.7184 37.1906C19.8235 37.2202 19.9206 37.2548 20.0095 37.2942C20.0983 37.3337 20.1723 37.3716 20.2316 37.4077C20.2907 37.444 20.3253 37.4687 20.3352 37.4818L20.6905 36.8107C20.6116 36.7647 20.5252 36.7188 20.4314 36.6725C20.3377 36.6265 20.2365 36.5853 20.1279 36.5491C20.0194 36.513 19.9059 36.4834 19.7874 36.4604C19.669 36.4374 19.5489 36.4258 19.4273 36.4258C19.2528 36.4258 19.0876 36.4505 18.9314 36.4998C18.7752 36.5491 18.6377 36.6224 18.5195 36.7194C18.401 36.8165 18.3073 36.9358 18.2381 37.0772C18.1691 37.2188 18.1345 37.3816 18.1345 37.5658C18.1345 37.6974 18.1534 37.8125 18.1913 37.9112C18.2291 38.0099 18.2866 38.097 18.3639 38.1727C18.4413 38.2484 18.5391 38.3151 18.6576 38.3726C18.776 38.4302 18.9159 38.4836 19.077 38.5331C19.1988 38.5692 19.3114 38.602 19.415 38.6317C19.5187 38.6613 19.6083 38.6934 19.6839 38.7279C19.7595 38.7624 19.8188 38.8011 19.8616 38.8438C19.9042 38.8866 19.9258 38.9409 19.9258 39.0067C19.9258 39.181 19.7827 39.2682 19.4965 39.2682C19.3615 39.2682 19.2283 39.2501 19.0967 39.2139C18.9652 39.1777 18.8458 39.1366 18.7389 39.0906C18.632 39.0445 18.5423 38.9985 18.47 38.9523C18.3977 38.9063 18.3548 38.875 18.3416 38.8585L17.9863 39.5642C18.0883 39.6331 18.1993 39.6941 18.3194 39.7467C18.4395 39.7993 18.5638 39.8445 18.692 39.8824C18.8202 39.9202 18.9517 39.949 19.0867 39.9687C19.2216 39.9885 19.3531 39.9983 19.4815 39.9983C19.6493 39.9983 19.8121 39.9793 19.9701 39.9415C20.128 39.9037 20.2677 39.8428 20.3895 39.759C20.5113 39.6751 20.6091 39.5649 20.6831 39.4284C20.7572 39.2919 20.7942 39.1249 20.7942 38.9275C20.7941 38.7663 20.7687 38.6282 20.7177 38.513Z" fill="#BA6827"/>
<path d="M22.3831 18.8932C22.1629 18.0197 21.474 17.3307 20.6005 17.1105V6.33203H19.3996V17.1106C18.3338 17.3793 17.5425 18.3457 17.5425 19.4936C17.5425 20.8488 18.645 21.9512 20 21.9512C21.148 21.9512 22.1144 21.1597 22.383 20.094H29.5279V18.8932H22.3831ZM20.0001 20.7503C19.3072 20.7503 18.7434 20.1865 18.7434 19.4936C18.7434 18.8007 19.3072 18.237 20.0001 18.237C20.693 18.237 21.2567 18.8007 21.2567 19.4936C21.2567 20.1865 20.693 20.7503 20.0001 20.7503Z" fill="#BA6827"/>
<path d="M37.3088 28.4727C38.7389 25.7211 39.4949 22.6165 39.4949 19.4947C39.4949 14.2875 37.4671 9.39191 33.7851 5.70971C30.1029 2.02782 25.2073 0 20.0001 0C14.7929 0 9.89728 2.02782 6.21516 5.70979C2.53319 9.39191 0.505371 14.2876 0.505371 19.4948V20.0952H4.17414V18.8944H1.71592C1.8117 15.938 2.61304 13.1573 3.95554 10.7141L6.0686 11.9624L6.67938 10.9285L4.56734 9.68074C6.01516 7.4119 7.94962 5.48283 10.222 4.04002L11.4645 6.15432L12.4998 5.54588L11.2565 3.43017C13.6907 2.10001 16.4584 1.30704 19.3997 1.21172V3.66876H20.6006V1.21172C23.5567 1.30758 26.3377 2.10766 28.7809 3.45009L27.5325 5.56323L28.5663 6.17401L29.8138 4.06236C32.0825 5.51018 34.0119 7.44433 35.4547 9.7166L33.3403 10.959L33.9488 11.9943L36.0653 10.7507C37.3955 13.185 38.1877 15.953 38.2831 18.8944H35.8261V20.0952H38.2833C38.1873 22.9834 37.4025 25.7833 36.0406 28.273L33.9316 27.0271L33.3208 28.061L35.4291 29.3065C34.4541 30.8422 33.2489 32.2373 31.8436 33.4346L32.006 31.9708L30.8124 31.8384L30.4234 35.3458L33.9307 35.7348L34.0632 34.5413L32.5882 34.3776C34.5237 32.7365 36.1417 30.7185 37.3088 28.4727Z" fill="#BA6827"/>
</g>
<defs>
<clipPath id="clip0_1173_28688">
<rect width="40" height="40" fill="white"/>
</clipPath>
</defs>
</svg>
