<svg width="108" height="26" viewBox="0 0 108 26" fill="none" xmlns="http://www.w3.org/2000/svg">
<path fill-rule="evenodd" clip-rule="evenodd" d="M0.819092 0.570312H5.66482V6.27187H10.5105V9.69239H5.66482V18.2437C5.66482 20.239 5.66482 21.3798 7.37507 21.3798H10.7956V24.8004C9.37037 25.0854 8.51525 25.0854 7.09003 25.0854C1.10413 25.0854 0.819092 23.0901 0.819092 19.6682V0.570312ZM15.0719 6.27117H19.9177V9.69168H20.2027C21.3436 7.69638 23.3389 5.70108 27.0444 5.70108C27.8996 5.70108 28.4696 5.70108 29.0397 5.98613V10.5468C27.6145 10.2618 26.7594 10.2618 25.9043 10.2618C23.3389 10.2618 19.9184 11.4019 19.9184 15.6783V24.8004H15.0726L15.0719 6.27117ZM46.143 17.3878C46.143 21.3791 41.8667 22.2336 39.302 22.2336C37.5917 22.2336 35.3114 21.9485 35.3114 19.3838C35.3114 17.9579 36.1665 17.1028 39.8721 16.5327C43.2933 16.2477 44.7185 15.9626 46.1437 15.3925V17.3878H46.143ZM50.9894 11.687C50.9894 9.40664 50.7044 5.41534 41.0115 5.41534C35.5957 5.41534 31.8895 6.84055 31.3201 11.9713H35.8808C36.1658 9.69098 37.8761 8.83585 41.0115 8.83585C43.862 8.83585 46.4273 9.40594 46.4273 11.4012C46.4273 12.8264 45.5722 13.1115 38.7312 13.6816C35.5957 13.9666 30.1792 14.5367 30.1792 19.6668C30.1792 23.3737 33.0296 25.369 37.8754 25.369C43.2919 25.369 45.5722 23.6588 46.7124 22.8029C46.7124 23.6588 46.9974 25.369 50.1329 25.369C51.8431 25.369 52.699 25.084 53.5534 24.7982V21.3777C53.2684 21.3777 52.4139 21.6614 52.1282 21.6614C51.8424 21.6614 50.9887 21.3777 50.9887 20.5219V11.687H50.9894ZM53.5541 6.27117H58.9713L64.3871 19.9532L70.088 6.27117H75.7889L67.2369 24.7997H61.8211L53.5541 6.27117ZM81.7747 13.6823C82.6306 9.69169 85.7653 8.83585 88.0464 8.83585C90.3274 8.83585 93.4622 9.97602 94.318 13.6823H81.7747ZM99.1631 16.5334V15.9626C99.1631 10.5468 96.0283 5.41534 87.7614 5.41534C81.2047 5.41534 76.6447 9.40593 76.6447 15.6776C76.6447 20.5233 79.7794 25.3697 88.0464 25.3697C95.1725 25.3697 97.7378 21.3791 98.8794 19.3838H93.4622C92.6078 20.8091 91.1819 21.9485 88.0464 21.9485C83.2 21.9485 81.7747 18.8138 81.7747 16.5327L99.1631 16.5334ZM103.154 0.570312H108V24.7997H103.154V0.570312Z" fill="#0093BF"/>
</svg>
