<svg width="124" height="49" viewBox="0 0 124 49" fill="none" xmlns="http://www.w3.org/2000/svg">
<path d="M27.977 8.73257C27.0027 7.27119 25.8246 5.95665 24.4785 4.82883C24.0748 5.28444 23.6401 5.7504 23.2467 6.22672C21.8053 7.92109 20.8723 9.9888 20.5556 12.1911C18.9352 12.2352 17.3261 12.4751 15.7632 12.9055C15.639 8.34944 21.3008 -0.793803 23.9816 0.0552866C26.3726 0.831893 28.8982 3.24455 31.227 6.49594C31.3513 6.69268 31.7239 7.27255 31.8584 7.53142C30.4979 7.60961 29.1797 8.03371 28.0287 8.76363L27.977 8.73257Z" fill="#FBB040"/>
<path d="M63.8626 12.7479C64.5011 12.7465 65.1325 12.8806 65.7154 13.1414C66.2938 13.3965 66.8256 13.7464 67.2887 14.1769C67.7289 14.6323 68.0799 15.1661 68.3237 15.7508C68.5886 16.3508 68.7226 17.0003 68.717 17.6561V21.9637C68.7219 22.0457 68.7076 22.1277 68.6753 22.2032C68.6429 22.2787 68.5934 22.3456 68.5307 22.3986C68.4752 22.4589 68.408 22.5074 68.3334 22.5412C68.2587 22.575 68.1779 22.5934 68.096 22.5953C67.9249 22.5891 67.7624 22.5189 67.6406 22.3986C67.5849 22.3411 67.5416 22.2729 67.5131 22.1981C67.4846 22.1234 67.4717 22.0436 67.475 21.9637V20.7107C67.0037 21.2211 66.4553 21.6543 65.8499 21.9947C65.2216 22.3603 64.5066 22.5499 63.7798 22.5435C63.1235 22.5543 62.4719 22.431 61.8649 22.1811C61.2913 21.9343 60.7684 21.5832 60.3227 21.1456C59.8718 20.7069 59.5191 20.1775 59.2876 19.5924C59.0133 18.9733 58.8756 18.3022 58.884 17.625C58.8828 16.9774 59.0131 16.3362 59.2669 15.7405C59.5032 15.1579 59.8553 14.6295 60.302 14.1872C60.7553 13.7445 61.2894 13.393 61.8753 13.1518C62.4928 12.8807 63.1574 12.7329 63.8315 12.7169M60.1571 17.6457C60.1473 18.1246 60.2339 18.6005 60.4117 19.0453C60.5896 19.49 60.8549 19.8944 61.1921 20.2344C61.5225 20.5637 61.9124 20.8272 62.3411 21.011C62.7891 21.2032 63.2716 21.3019 63.7591 21.301C64.2397 21.3189 64.7188 21.2379 65.1668 21.0628C65.594 20.8764 65.9834 20.6132 66.3157 20.2862C66.6491 19.9548 66.9192 19.5653 67.1127 19.1368C67.3049 18.6719 67.4203 18.1788 67.4543 17.6768C67.4495 16.7139 67.0796 15.7886 66.4192 15.0881C66.0785 14.7619 65.6824 14.4989 65.2496 14.3115C64.7997 14.1266 64.3179 14.0316 63.8315 14.0319C63.3448 14.0274 62.8622 14.1226 62.4135 14.3115C61.9869 14.4991 61.5977 14.7622 61.2646 15.0881C60.9244 15.4217 60.6535 15.8194 60.4676 16.2582C60.2828 16.7083 60.1878 17.1902 60.1881 17.6768L60.1571 17.6457ZM71.2115 17.6768C71.2106 17.0359 71.3409 16.4015 71.5945 15.8129C71.8351 15.2266 72.1866 14.6922 72.6296 14.239C73.5356 13.326 74.7596 12.799 76.0453 12.7686C76.2383 12.7629 76.4265 12.8294 76.5731 12.955C76.6923 13.0767 76.7592 13.2403 76.7595 13.4106C76.7533 13.5798 76.6872 13.7413 76.5731 13.8662C76.4214 13.9804 76.235 14.0389 76.0453 14.0319C75.5691 14.0426 75.1004 14.1519 74.6686 14.3529C74.2432 14.537 73.8568 14.8006 73.5301 15.1295C73.2043 15.4628 72.9413 15.8522 72.7538 16.2789C72.5836 16.7253 72.4959 17.199 72.495 17.6768V22.0258C72.4926 22.1957 72.4261 22.3585 72.3087 22.4814C72.2491 22.5414 72.1781 22.5888 72.0999 22.6208C72.0216 22.6528 71.9378 22.6688 71.8533 22.6678C71.772 22.6678 71.6915 22.6513 71.6168 22.6192C71.5421 22.5872 71.4746 22.5403 71.4185 22.4814C71.3535 22.4252 71.3021 22.3551 71.268 22.2762C71.2339 22.1972 71.2182 22.1117 71.2219 22.0258L71.2115 17.6768ZM82.2867 12.7894C82.9321 12.785 83.571 12.9192 84.1601 13.1828C84.7345 13.4284 85.2576 13.7796 85.7024 14.2183C86.148 14.6654 86.4999 15.197 86.7374 15.7819C87.0085 16.3838 87.1462 17.0373 87.1411 17.6975V21.9844C87.1349 22.1535 87.0689 22.315 86.9548 22.44C86.832 22.5574 86.6693 22.624 86.4994 22.6264C86.4152 22.6295 86.3313 22.6148 86.2532 22.5834C86.175 22.5519 86.1044 22.5044 86.0458 22.4439C85.9872 22.3833 85.9421 22.3111 85.9132 22.2319C85.8844 22.1528 85.8725 22.0684 85.8783 21.9844V20.7418C85.4122 21.2633 84.8631 21.7042 84.2533 22.0465C83.6213 22.4007 82.9075 22.5828 82.1832 22.5746C81.5305 22.5826 80.8828 22.4593 80.2787 22.2122C79.7027 21.964 79.1766 21.6131 78.7261 21.1767C78.2797 20.7383 77.9275 20.2132 77.691 19.6338C77.427 19.0191 77.293 18.3563 77.2977 17.6872C77.2973 17.0306 77.4239 16.3801 77.6703 15.7715C77.9276 15.2035 78.2774 14.6821 78.7054 14.2287C79.1634 13.7967 79.692 13.4464 80.2683 13.1932C80.8933 12.9354 81.5593 12.7916 82.2349 12.7686M78.6226 17.7389C78.6208 18.2267 78.7194 18.7096 78.9124 19.1575C79.0853 19.5847 79.3382 19.9748 79.6576 20.3069C79.9837 20.6462 80.3791 20.9111 80.8169 21.0835C81.2589 21.2822 81.7402 21.3778 82.2246 21.3631C82.6998 21.3734 83.172 21.2853 83.6116 21.1042C84.0651 20.927 84.48 20.6632 84.8329 20.3276C85.1759 20.0084 85.4475 19.6202 85.6299 19.1886C85.8317 18.7304 85.9475 18.239 85.9715 17.7389C85.9715 17.2446 85.873 16.7553 85.6817 16.2996C85.4695 15.8628 85.1822 15.4668 84.8329 15.1295C84.3161 14.623 83.662 14.2794 82.9518 14.1413C82.2415 14.0033 81.5064 14.0769 80.8376 14.3529C80.4059 14.5367 80.0126 14.8001 79.6783 15.1295C79.3435 15.4654 79.0764 15.8627 78.8917 16.2996C78.7027 16.7554 78.6111 17.2456 78.6226 17.7389ZM93.5067 12.7686C94.2335 12.7915 94.9439 12.9905 95.5769 13.3485C96.177 13.6835 96.7188 14.1136 97.1812 14.6221V10.1178C97.1853 9.88457 97.2495 9.65632 97.3675 9.45512C97.5007 9.3539 97.6667 9.30592 97.8333 9.32051C97.9146 9.32051 97.995 9.33703 98.0698 9.36907C98.1445 9.40111 98.212 9.448 98.268 9.5069C98.3951 9.70411 98.4601 9.93501 98.4543 10.1696V17.77C98.4573 18.4235 98.3307 19.0711 98.0817 19.6753C97.8317 20.2535 97.4813 20.7829 97.0466 21.2388C96.5882 21.6752 96.0554 22.0259 95.4734 22.2743C94.8758 22.5195 94.2353 22.6428 93.5895 22.6367C92.921 22.6499 92.2574 22.5193 91.6436 22.2536C91.0628 22.0145 90.5351 21.6626 90.091 21.2181C89.6501 20.7712 89.2987 20.244 89.056 19.6649C88.7858 19.0736 88.648 18.4304 88.6523 17.7803C88.648 17.1236 88.7857 16.4736 89.056 15.8751C89.3019 15.2915 89.6527 14.758 90.091 14.3011C90.5503 13.8707 91.0786 13.5207 91.654 13.2657C92.2359 13.0021 92.868 12.8679 93.5067 12.8722M97.1916 17.8218C97.1732 17.3164 97.0645 16.8184 96.8707 16.3514C96.6759 15.9206 96.406 15.5279 96.0737 15.1917C95.7527 14.8658 95.3689 14.6086 94.9455 14.4358C94.51 14.251 94.0418 14.1559 93.5688 14.1562C93.0755 14.1529 92.5864 14.2479 92.1301 14.4358C91.6901 14.6193 91.2922 14.8906 90.9605 15.2331C90.6313 15.5636 90.3679 15.9536 90.1842 16.3825C89.9983 16.8394 89.9033 17.3284 89.9047 17.8218C89.9003 18.3087 89.9954 18.7915 90.1842 19.2404C90.3679 19.6692 90.6313 20.0592 90.9605 20.3897C91.2922 20.7322 91.6901 21.0035 92.1301 21.1871C92.5864 21.3749 93.0755 21.4699 93.5688 21.4666C94.0487 21.4689 94.5241 21.3738 94.9662 21.1871C95.4061 21.0035 95.8041 20.7322 96.1358 20.3897C96.4649 20.0592 96.7284 19.6692 96.9121 19.2404C97.1009 18.7915 97.196 18.3087 97.1916 17.8218ZM101.083 10.1903C101.079 10.0813 101.099 9.97266 101.142 9.87237C101.185 9.77207 101.25 9.6826 101.332 9.61044C101.401 9.52267 101.489 9.45122 101.589 9.40113C101.69 9.35104 101.8 9.32352 101.911 9.32051C102.022 9.31621 102.132 9.33623 102.234 9.37918C102.336 9.42212 102.427 9.48693 102.501 9.56903C102.582 9.6425 102.645 9.73222 102.688 9.8322C102.731 9.93218 102.752 10.0401 102.75 10.1489C102.751 10.259 102.729 10.3682 102.687 10.4697C102.644 10.5712 102.581 10.6629 102.501 10.7391C102.426 10.8196 102.334 10.8833 102.233 10.9261C102.131 10.9689 102.022 10.9899 101.911 10.9876C101.803 10.9878 101.696 10.9659 101.596 10.9232C101.496 10.8804 101.406 10.8178 101.332 10.7391C101.25 10.6645 101.186 10.5731 101.143 10.4712C101.1 10.3693 101.08 10.2594 101.083 10.1489M101.29 13.4624C101.289 13.3799 101.306 13.2981 101.34 13.2229C101.374 13.1477 101.424 13.081 101.487 13.0275C101.541 12.9689 101.607 12.9221 101.68 12.89C101.753 12.858 101.832 12.8413 101.911 12.8411C101.996 12.8389 102.08 12.8543 102.159 12.8864C102.237 12.9185 102.308 12.9665 102.367 13.0275C102.43 13.081 102.48 13.1477 102.514 13.2229C102.548 13.2981 102.565 13.3799 102.564 13.4624V22.0879C102.566 22.1722 102.55 22.256 102.516 22.3331C102.482 22.4102 102.431 22.4786 102.367 22.5332C102.307 22.5923 102.236 22.6384 102.157 22.6687C102.079 22.699 101.995 22.7128 101.911 22.7092C101.832 22.711 101.754 22.6962 101.681 22.6659C101.608 22.6356 101.542 22.5904 101.487 22.5332C101.423 22.4786 101.372 22.4102 101.338 22.3331C101.304 22.256 101.288 22.1722 101.29 22.0879V13.4624ZM104.861 21.9844C104.866 21.818 104.933 21.6594 105.048 21.5391C105.106 21.4773 105.177 21.4279 105.255 21.3941C105.334 21.3603 105.418 21.3427 105.503 21.3424H109.892C110.269 21.3322 110.629 21.179 110.898 20.9137C111.167 20.6485 111.325 20.291 111.341 19.9134C111.338 19.5307 111.184 19.1647 110.913 18.895C110.641 18.6254 110.274 18.4741 109.892 18.4741H107.511C107.134 18.4675 106.762 18.3902 106.414 18.2463C106.081 18.0935 105.781 17.8752 105.534 17.6043C105.276 17.343 105.072 17.0333 104.934 16.6931C104.778 16.3411 104.701 15.9596 104.706 15.5748C104.705 15.1937 104.782 14.8164 104.934 14.4668C105.067 14.1239 105.272 13.8132 105.534 13.5556C105.788 13.2884 106.1 13.083 106.445 12.955C106.79 12.8014 107.164 12.7237 107.542 12.7272H111.682C111.767 12.7243 111.852 12.7395 111.93 12.7716C112.009 12.8037 112.079 12.8521 112.138 12.9136C112.194 12.9709 112.239 13.0389 112.269 13.1135C112.299 13.1881 112.315 13.268 112.314 13.3485C112.313 13.5169 112.251 13.6791 112.138 13.8041C112.014 13.9198 111.852 13.9862 111.682 13.9905H107.542C107.124 13.9984 106.724 14.1675 106.427 14.4626C106.13 14.7578 105.959 15.1562 105.948 15.5748C105.953 16.0019 106.124 16.4103 106.424 16.7138C106.571 16.8596 106.746 16.9749 106.938 17.0531C107.13 17.1313 107.335 17.1708 107.542 17.1694H109.923C110.28 17.17 110.633 17.2477 110.958 17.3972C111.282 17.5325 111.578 17.7294 111.827 17.9771C112.071 18.2221 112.267 18.51 112.407 18.8262C112.542 19.1553 112.615 19.5062 112.624 19.8616C112.62 20.2177 112.546 20.5695 112.407 20.8971C112.273 21.2224 112.076 21.518 111.827 21.7669C111.573 22.0116 111.279 22.2112 110.958 22.3571C110.628 22.486 110.277 22.5561 109.923 22.5642H105.534C105.366 22.5627 105.204 22.5002 105.079 22.3882C104.967 22.2618 104.901 22.1012 104.892 21.9326L104.861 21.9844ZM115.326 18.2981C115.396 18.7251 115.543 19.1357 115.761 19.5096C115.96 19.8861 116.239 20.2146 116.578 20.4726C116.879 20.7509 117.23 20.9689 117.613 21.1146C118.024 21.2686 118.459 21.3459 118.897 21.3424C119.374 21.3414 119.848 21.2537 120.294 21.0835C120.73 20.9025 121.128 20.6388 121.464 20.3069C121.522 20.2517 121.59 20.2087 121.664 20.1802C121.739 20.1518 121.819 20.1385 121.898 20.1412C122.066 20.1359 122.229 20.1952 122.354 20.3069C122.47 20.4309 122.536 20.593 122.54 20.7625C122.534 20.9317 122.468 21.0931 122.354 21.2181C121.936 21.674 121.419 22.0282 120.843 22.2536C120.221 22.4844 119.56 22.5934 118.897 22.5746C118.244 22.5826 117.596 22.4593 116.992 22.2122C116.415 21.9667 115.888 21.6155 115.44 21.1767C114.99 20.7371 114.637 20.208 114.405 19.6235C114.145 19.0146 114.011 18.3595 114.011 17.6975C114.011 17.0355 114.145 16.3804 114.405 15.7715C114.895 14.591 115.833 13.6528 117.013 13.1621C117.634 12.8897 118.302 12.742 118.98 12.7272C119.616 12.7238 120.247 12.8507 120.832 13.1C121.392 13.3603 121.906 13.71 122.354 14.1355C122.791 14.5733 123.143 15.0897 123.389 15.6576C123.652 16.2494 123.803 16.8849 123.834 17.5318C123.853 17.6285 123.846 17.7285 123.813 17.8214C123.78 17.9144 123.723 17.9967 123.648 18.0599C123.589 18.1214 123.518 18.1698 123.44 18.2019C123.361 18.2341 123.277 18.2492 123.192 18.2463L115.326 18.2981ZM118.938 14.0526C118.507 14.0473 118.078 14.1246 117.675 14.2804C117.294 14.419 116.942 14.63 116.64 14.9017C116.32 15.1734 116.05 15.4993 115.843 15.8647C115.626 16.2257 115.472 16.6215 115.388 17.0348H122.571C122.495 16.6226 122.348 16.2267 122.137 15.8647C121.916 15.5032 121.64 15.1783 121.319 14.9017C121.013 14.636 120.662 14.4258 120.284 14.2804C119.881 14.1246 119.453 14.0473 119.021 14.0526H118.938ZM77.4736 26.6233C77.4687 26.5383 77.4828 26.4532 77.5151 26.3743C77.5473 26.2955 77.5968 26.2249 77.66 26.1677C77.7129 26.1049 77.7798 26.0554 77.8553 26.0231C77.9308 25.9907 78.0127 25.9764 78.0947 25.9813H85.0296C85.1114 25.978 85.1928 25.993 85.2681 26.0252C85.3433 26.0575 85.4103 26.1062 85.4643 26.1677C85.5835 26.2894 85.6504 26.4529 85.6506 26.6233C85.6467 26.7899 85.5802 26.9488 85.4643 27.0686C85.4109 27.1314 85.3442 27.1816 85.269 27.2157C85.1938 27.2497 85.1121 27.2666 85.0296 27.2653H82.1314V37.092C82.1365 37.1785 82.1224 37.2652 82.0902 37.3457C82.058 37.4263 82.0085 37.4987 81.9451 37.5579C81.8896 37.6182 81.8224 37.6667 81.7477 37.7005C81.6731 37.7343 81.5923 37.7527 81.5104 37.7547C81.3453 37.7485 81.1893 37.6779 81.0757 37.5579C81.0123 37.4987 80.9627 37.4263 80.9305 37.3457C80.8983 37.2652 80.8843 37.1785 80.8893 37.092V27.2653H78.0947C78.012 27.2681 77.9297 27.2519 77.8543 27.2178C77.7789 27.1836 77.7124 27.1326 77.66 27.0686C77.5988 27.0121 77.5504 26.9431 77.5183 26.8662C77.4861 26.7894 77.4709 26.7065 77.4736 26.6233ZM85.1227 32.8361C85.1158 32.2001 85.2391 31.5693 85.485 30.9827C85.7396 30.4162 86.0898 29.8978 86.5201 29.4501C86.9619 29.0127 87.4814 28.6616 88.052 28.4147C88.6291 28.1588 89.2528 28.0248 89.884 28.0212C90.0677 28.0119 90.2484 28.0709 90.3912 28.1869C90.4562 28.243 90.5077 28.3132 90.5418 28.3921C90.5758 28.471 90.5916 28.5566 90.5879 28.6425C90.5872 28.7247 90.5693 28.8058 90.5354 28.8807C90.5016 28.9556 90.4524 29.0226 90.3912 29.0774C90.2484 29.1933 90.0677 29.2523 89.884 29.2431C89.4148 29.256 88.9533 29.3653 88.5281 29.564C88.1095 29.7495 87.7301 30.0131 87.4102 30.3407C87.0771 30.6515 86.8187 31.0338 86.6546 31.459C86.4724 31.895 86.3808 32.3636 86.3855 32.8361V37.123C86.3832 37.2869 86.3162 37.4432 86.1992 37.5579C86.1426 37.6154 86.0749 37.6607 86.0001 37.691C85.9253 37.7213 85.8451 37.7359 85.7645 37.7339C85.5964 37.7324 85.4345 37.6699 85.3091 37.5579C85.2539 37.5001 85.2109 37.4318 85.1824 37.3572C85.154 37.2825 85.1407 37.2029 85.1434 37.123L85.1227 32.8361ZM95.4319 28.0937C96.0621 28.0871 96.6865 28.2141 97.264 28.4664C97.8253 28.719 98.337 29.0696 98.7752 29.5019C99.2152 29.9417 99.5666 30.462 99.8103 31.0344C100.072 31.6207 100.206 32.2561 100.204 32.8983V37.0402C100.205 37.1248 100.189 37.2089 100.157 37.2872C100.125 37.3656 100.078 37.4365 100.017 37.4958C99.9595 37.5509 99.8912 37.594 99.8166 37.6225C99.742 37.6509 99.6624 37.6642 99.5825 37.6615C99.5026 37.6648 99.4229 37.6518 99.3482 37.6233C99.2734 37.5948 99.2053 37.5514 99.1478 37.4958C99.0874 37.4365 99.0397 37.3656 99.0076 37.2872C98.9756 37.2089 98.9599 37.1248 98.9615 37.0402V35.8804C98.5052 36.3884 97.9662 36.8155 97.3675 37.1437C96.7402 37.5095 96.0232 37.6924 95.2974 37.6718C94.6812 37.6534 94.0739 37.52 93.5067 37.2783C92.9394 37.0256 92.4209 36.6751 91.9748 36.2429C91.5378 35.8086 91.1867 35.2957 90.9398 34.7311C90.6864 34.1319 90.5595 33.4867 90.5672 32.8361C90.5729 32.2271 90.6996 31.6252 90.9398 31.0655C91.1838 30.4993 91.5353 29.9859 91.9748 29.5537C92.4161 29.1204 92.9314 28.7697 93.4964 28.5182C94.1147 28.2638 94.774 28.1234 95.4423 28.104M91.8196 32.919C91.811 33.3909 91.8991 33.8596 92.0784 34.2962C92.2614 34.7142 92.5172 35.0964 92.834 35.4248C93.1727 35.7434 93.5652 35.9993 93.9932 36.1807C94.4274 36.3707 94.896 36.4694 95.3698 36.4707C95.8356 36.4828 96.2994 36.4055 96.7361 36.2429C97.1605 36.0661 97.547 35.8095 97.8747 35.487C98.2016 35.1619 98.4711 34.7838 98.6717 34.3687C98.8558 33.9166 98.9642 33.4373 98.9926 32.9501C98.9915 32.4693 98.8929 31.9937 98.7027 31.5522C98.3243 30.704 97.646 30.0255 96.7982 29.6469C96.3454 29.4731 95.8652 29.3819 95.3802 29.3777C94.9087 29.3819 94.442 29.4731 94.0036 29.6469C93.5705 29.8282 93.1768 30.0919 92.8443 30.4235C92.5194 30.7315 92.2591 31.1011 92.0784 31.5107C91.8917 31.953 91.7966 32.4286 91.7989 32.9086L91.8196 32.919ZM100.897 28.9945C100.835 28.8347 100.835 28.6573 100.897 28.4975C100.954 28.3428 101.069 28.2164 101.218 28.1454C101.293 28.1072 101.377 28.0873 101.461 28.0873C101.546 28.0873 101.629 28.1072 101.704 28.1454C101.845 28.2127 101.958 28.326 102.025 28.4664L104.81 35.4663L107.677 28.4664C107.77 28.3323 107.895 28.2223 108.039 28.1454C108.11 28.1099 108.188 28.0914 108.267 28.0914C108.346 28.0914 108.424 28.1099 108.494 28.1454C108.636 28.2213 108.748 28.3413 108.815 28.4872C108.867 28.6346 108.867 28.7954 108.815 28.9428C108.744 29.0681 108.686 29.1999 108.639 29.3362C108.525 29.5848 108.36 30.0197 108.111 30.6306L107.076 33.1364C106.662 34.1719 106.114 35.5387 105.472 37.1644C105.423 37.3052 105.337 37.4303 105.224 37.5269C105.167 37.5759 105.101 37.613 105.03 37.6361C104.959 37.6593 104.884 37.6679 104.81 37.6615C104.644 37.6657 104.483 37.6106 104.354 37.5061C104.255 37.4052 104.171 37.29 104.106 37.1644C103.536 35.6526 103.071 34.3894 102.657 33.3435L101.622 30.817C101.353 30.175 101.166 29.7194 101.052 29.4191C100.98 29.2788 100.918 29.1335 100.866 28.9842L100.897 28.9945ZM110.244 33.4781C110.302 33.9 110.446 34.3053 110.668 34.6689C110.863 35.0397 111.13 35.3673 111.455 35.6319C111.759 35.8998 112.11 36.1102 112.49 36.2532C112.91 36.4275 113.36 36.5173 113.815 36.5173C114.269 36.5173 114.72 36.4275 115.14 36.2532C115.557 36.0701 115.939 35.8142 116.268 35.4973C116.325 35.4408 116.393 35.3961 116.468 35.3659C116.542 35.3357 116.622 35.3205 116.702 35.3213C116.871 35.3218 117.033 35.3845 117.158 35.4973C117.271 35.6181 117.333 35.7773 117.333 35.9426C117.333 36.1079 117.271 36.267 117.158 36.3878C116.754 36.8509 116.242 37.2067 115.667 37.4233C115.052 37.6537 114.399 37.7627 113.742 37.7443C113.1 37.7512 112.462 37.6279 111.869 37.3819C111.297 37.1363 110.778 36.785 110.337 36.3464C109.901 35.9035 109.55 35.384 109.302 34.8139C109.047 34.2075 108.917 33.556 108.919 32.8983C108.915 32.257 109.045 31.622 109.302 31.0344C109.542 30.4602 109.894 29.9393 110.337 29.5019C110.783 29.0695 111.301 28.719 111.869 28.4664C112.487 28.2101 113.146 28.063 113.815 28.0315C114.435 28.0338 115.048 28.1642 115.616 28.4147C116.174 28.672 116.685 29.0221 117.127 29.4501C117.561 29.8826 117.912 30.3916 118.162 30.9516C118.418 31.5308 118.565 32.152 118.597 32.7844C118.612 32.8801 118.604 32.9781 118.573 33.07C118.543 33.162 118.49 33.2452 118.421 33.3125C118.297 33.4192 118.139 33.4779 117.976 33.4781H110.244ZM113.784 29.3362C113.356 29.3337 112.931 29.411 112.531 29.564C112.153 29.7098 111.803 29.92 111.496 30.1853C111.189 30.4348 110.923 30.7319 110.709 31.0655C110.502 31.4295 110.356 31.8246 110.275 32.2356H117.344C117.271 31.824 117.128 31.4281 116.92 31.0655C116.699 30.722 116.431 30.4117 116.123 30.1439C115.816 29.8786 115.466 29.6684 115.088 29.5226C114.681 29.3691 114.249 29.2952 113.815 29.3052L113.784 29.3362ZM124 37.123C124.003 37.2048 123.988 37.2863 123.956 37.3616C123.923 37.4368 123.875 37.5039 123.813 37.5579C123.756 37.6145 123.688 37.6591 123.614 37.6893C123.539 37.7196 123.459 37.7347 123.379 37.7339C122.89 37.7498 122.406 37.6502 121.963 37.4433C121.521 37.2364 121.133 36.928 120.832 36.5432C120.593 36.2308 120.408 35.8808 120.284 35.5077C120.17 35.1734 120.104 34.8248 120.087 34.4722V26.7372C120.087 26.6518 120.104 26.5673 120.138 26.4889C120.172 26.4105 120.221 26.3399 120.284 26.2816C120.34 26.2241 120.408 26.1788 120.483 26.1485C120.558 26.1182 120.638 26.1036 120.718 26.1056C120.884 26.1057 121.043 26.1686 121.164 26.2816C121.223 26.3413 121.269 26.4126 121.299 26.491C121.329 26.5694 121.343 26.6532 121.34 26.7372V34.4826C121.345 34.6402 121.369 34.7967 121.412 34.9485C121.469 35.1829 121.564 35.4066 121.691 35.6112C121.859 35.8548 122.074 36.0625 122.323 36.2222C122.639 36.4008 122.995 36.4969 123.358 36.5017C123.438 36.501 123.518 36.5161 123.593 36.5463C123.667 36.5765 123.735 36.6212 123.793 36.6778C123.854 36.7342 123.902 36.8032 123.934 36.8801C123.966 36.9569 123.982 37.0398 123.979 37.123H124ZM54.5677 9.32051C55.1806 9.584 55.7387 9.95977 56.2135 10.4285C56.66 10.8907 57.0117 11.4359 57.2486 12.0335C57.5169 12.6618 57.6543 13.3383 57.6522 14.0216C57.6639 14.7325 57.5264 15.438 57.2486 16.0925C56.9924 16.6974 56.6156 17.2435 56.141 17.6975C55.6652 18.1675 55.1009 18.5386 54.4809 18.7892C53.8609 19.0398 53.1974 19.165 52.5287 19.1575C51.7795 19.1642 51.0426 18.9673 50.3965 18.588C49.7652 18.2376 49.1953 17.7864 48.7093 17.2523V22.0879C48.707 22.1739 48.6876 22.2585 48.652 22.3367C48.6164 22.415 48.5655 22.4853 48.5023 22.5435C48.4447 22.6061 48.374 22.6553 48.2953 22.6875C48.2166 22.7197 48.1318 22.7342 48.0469 22.7299C47.9608 22.7311 47.8753 22.7153 47.7953 22.6833C47.7154 22.6513 47.6426 22.6038 47.5811 22.5435C47.5206 22.4843 47.4729 22.4133 47.4409 22.335C47.4089 22.2566 47.3932 22.1726 47.3948 22.0879V14.0112C47.3848 13.3228 47.5262 12.6405 47.8088 12.0127C48.0795 11.3905 48.4699 10.8276 48.9577 10.356C49.4325 9.9155 49.983 9.56468 50.5828 9.32051C51.194 9.04386 51.8578 8.90258 52.5287 8.90632C53.2431 8.91064 53.9485 9.0659 54.5988 9.36193M56.11 12.5719C55.9213 12.1148 55.6393 11.7022 55.2819 11.3604C54.9356 11.0137 54.524 10.7392 54.0709 10.5527C53.6096 10.343 53.1079 10.2369 52.6011 10.2421C52.0879 10.2392 51.58 10.345 51.1106 10.5527C50.6576 10.7392 50.246 11.0137 49.8996 11.3604C49.5421 11.6977 49.2661 12.112 49.0923 12.5719C48.8806 13.0401 48.7746 13.5492 48.7818 14.063C48.7914 14.5683 48.8968 15.0673 49.0923 15.5334C49.2922 15.9843 49.5728 16.3949 49.9203 16.7449C50.2699 17.085 50.6808 17.3555 51.1313 17.5422C51.5879 17.7292 52.0768 17.8242 52.5701 17.8218C53.0702 17.833 53.5672 17.7393 54.0289 17.5467C54.4906 17.3541 54.9069 17.0668 55.2509 16.7034C55.6011 16.3597 55.8822 15.9519 56.0789 15.5023C56.276 15.0338 56.3746 14.5298 56.3688 14.0216C56.3726 13.5102 56.2741 13.0032 56.0789 12.5305L56.11 12.5719Z" fill="#231F20"/>
<path d="M4.89523 38.7301C10.2802 34.7795 16.5092 32.1348 23.0907 31.0045C29.6721 29.8742 36.4262 30.2892 42.8199 32.2169C37.2202 31.9374 19.2101 28.6342 7.51394 47.6973C7.19809 48.1741 6.71994 48.52 6.16836 48.6706C3.44615 49.1573 -1.66705 45.8438 0.537627 42.9755C1.89039 41.4614 3.34641 40.0428 4.89523 38.7301Z" fill="#1275BC"/>
<path d="M8.08302 17.184C9.82192 15.3615 12.9996 14.5021 16.9017 13.8601C21.7665 13.0317 30.3575 12.7728 30.8544 19.431C31.3615 25.5713 22.6774 31.7635 16.8707 30.3863C12.7304 29.3508 6.0543 19.3378 8.08302 17.184ZM13.3411 20.4871C14.4014 23.0282 16.3833 25.0739 18.8891 26.2133C21.7976 27.4145 27.4076 24.5876 26.6727 21.0359C25.6376 15.9518 18.1749 16.3349 12.5959 18.7268C12.8443 19.3378 13.0617 19.928 13.3411 20.4871Z" fill="#EE1D23"/>
<path d="M32.0449 24.6463C35.7194 24.025 37.9344 17.9985 38.5969 12.9765C37.9965 12.8833 37.0132 12.6451 36.3922 12.5933C34.4187 12.3978 32.4326 12.8097 30.6994 13.7738C29.3033 12.8054 27.6238 12.3316 25.9277 12.4277C26.1927 12.0302 26.4867 11.6529 26.8075 11.299C30.5338 7.59198 41.8573 7.7266 42.6647 10.5949C43.3375 13.0179 42.4163 16.1761 40.9775 19.9141C39.1558 24.4185 35.6573 31.0662 28.9398 29.3991C28.5402 29.3124 28.1538 29.1731 27.7908 28.9849C29.064 28.6018 31.6723 26.1581 32.0139 24.6463H32.0449Z" fill="#00AEEF"/>
</svg>
