<svg width="124" height="20" viewBox="0 0 124 20" fill="none" xmlns="http://www.w3.org/2000/svg">
<path fill-rule="evenodd" clip-rule="evenodd" d="M90.4714 10.9858C90.4714 9.22432 89.9853 7.97046 89.0138 7.19443C88.1029 6.38788 86.5845 5.97039 84.5187 5.94057C82.97 5.94057 81.4813 6.05985 80.025 6.29842C79.7716 6.33285 79.5368 6.44838 79.3569 6.62714C79.2039 6.85849 79.1198 7.1273 79.1142 7.40317V8.56756C79.1142 8.77631 79.2052 8.86646 79.3569 8.86646C81.0125 8.59635 82.6898 8.47633 84.3677 8.50792C85.1572 8.50792 85.9771 8.68685 86.7666 9.0447C87.2831 9.25414 87.5258 9.70144 87.5258 10.388L87.4651 10.7757C87.4347 10.8964 87.3437 10.9858 87.1617 11.0156L82.7273 11.8811C81.2696 12.1495 80.0857 12.5677 79.2355 13.1045C78.446 13.7314 78.0199 14.5969 78.0199 15.762C77.9895 16.2093 78.0199 16.6871 78.2019 17.1948C78.4157 17.7621 78.688 18.2392 79.0217 18.5963C79.3872 19.104 80.0857 19.4334 81.0269 19.672C81.7254 19.7913 82.8183 19.8509 84.3063 19.8807C86.0674 19.9404 87.4347 19.8807 88.3153 19.7316C89.3172 19.5825 89.864 19.4036 90.0763 19.1643C90.2901 18.8959 90.4418 18.6581 90.4721 18.3883V10.9858H90.4714ZM81.0269 15.762C80.9966 15.4624 81.1179 15.1351 81.4213 14.7474C81.7565 14.3882 82.1198 14.1801 82.5156 14.1205L87.4961 13.3146V17.1955L86.9797 17.3148C86.1598 17.4937 85.3096 17.5533 84.3988 17.5235C83.5486 17.5235 82.759 17.4042 82.0302 17.1358C81.3599 16.8952 81.0269 16.4486 81.0269 15.762ZM65.8117 17.2246L65.569 17.0145L63.3211 17.0443L62.1668 16.925L61.529 16.6268L61.2249 16.0297L61.1642 15.194V8.68685L61.438 8.29849H65.0222C65.2042 8.29849 65.3255 8.20903 65.3255 8.0301V6.23878L65.0222 5.94057H61.1649V2.38774C61.1649 2.11935 61.0436 1.99938 60.7698 1.99938H59.4638C58.5833 1.99938 58.1275 2.44738 58.1275 3.37252V15.133C58.1275 16.6552 58.4923 17.7607 59.2204 18.4757C60.0403 19.1921 61.2856 19.5811 62.9556 19.5811H64.0802L65.0215 19.432L65.6896 19.1324L65.8716 18.5353L65.8117 17.2246ZM112.641 6.05985C111.67 6.05985 110.727 6.17913 109.786 6.44821C108.905 6.65696 108.177 7.0155 107.691 7.55227C107.053 8.20902 106.597 8.92542 106.324 9.61268C106.019 10.5968 105.868 11.732 105.838 13.015C105.838 13.8819 105.959 14.8369 106.233 15.8515C106.385 16.6573 106.749 17.4035 107.235 18.1199C107.843 18.9258 108.542 19.4043 109.362 19.6123C110.364 19.8211 111.517 19.9702 112.793 20C114.16 20 115.313 19.9702 116.254 19.9105C117.288 19.7913 117.833 19.672 117.894 19.5229C117.985 19.4632 118.047 19.1935 118.047 18.717L118.017 17.5221C117.985 17.2835 117.894 17.1643 117.712 17.1643C116.194 17.373 114.705 17.4625 113.249 17.4625C112.611 17.5221 112.063 17.4625 111.547 17.373C110.88 17.2537 110.454 17.1344 110.272 16.9839C109.967 16.7454 109.725 16.5366 109.574 16.2988C109.27 15.7911 109.118 15.4021 109.118 15.1039L116.254 13.522C116.953 13.3729 117.47 13.1641 117.803 12.8652C118.229 12.567 118.532 12.1786 118.653 11.7313C118.837 11.3125 118.928 10.775 118.928 10.1189C118.897 9.64181 118.806 9.13416 118.623 8.68616C118.411 8.20902 118.108 7.76102 117.651 7.40248C117.196 7.01412 116.559 6.7159 115.739 6.50646C114.675 6.23947 113.643 6.05985 112.641 6.05985ZM109.725 9.37342C109.998 9.07452 110.363 8.83665 110.88 8.71667C111.7 8.50792 112.367 8.41846 112.884 8.44828C113.886 8.38864 114.645 8.53775 115.162 8.92542C115.618 9.22432 115.861 9.67163 115.891 10.1495C115.921 10.3582 115.891 10.6266 115.8 10.8957C115.739 11.164 115.586 11.3728 115.344 11.4914C115.102 11.6419 114.829 11.7313 114.615 11.7313L108.967 12.7758V12.4477C108.936 11.8208 108.967 11.1932 109.088 10.5961C109.148 10.2694 109.362 9.85055 109.725 9.37342ZM94.1452 6.00021L92.0808 6.05985L91.8381 6.11949L91.7153 6.29842C91.7153 6.32824 91.7457 6.38788 91.7457 6.44752L96.5138 19.104L96.6669 19.4931L97.031 19.5825H99.947L100.311 19.4931L100.554 19.1935L105.505 6.29842C105.445 6.23878 105.322 6.17913 105.14 6.11949C104.564 6.11949 103.743 6.11949 102.589 6.14931L102.286 6.59732L98.732 16.7759H98.5804L95.1493 6.59732L94.7838 6.14931L94.1452 6.00021ZM73.2214 8.86646C73.9185 8.68268 74.5267 8.5641 74.9824 8.56756C75.7903 8.5738 76.3618 8.58282 77.1393 8.68685C77.3228 8.71182 77.4441 8.56618 77.4124 8.20971C77.382 7.88213 77.382 7.55252 77.4124 7.22494C77.4413 6.92742 77.3079 6.70342 77.1393 6.53837C76.9588 6.35665 76.7415 6.21418 76.5015 6.12018C76.4394 6.09522 76.4105 6.09522 76.3801 6.09036L76.1981 6.06054L74.6191 6.03072C73.9509 6.01824 73.1036 6.22352 72.0078 6.44891C70.4302 6.77278 68.9267 8.08697 68.3933 9.55373C68.0215 10.5767 67.9685 11.6426 67.9685 12.6884V19.2552C67.9685 19.4951 68.0596 19.6144 68.2719 19.6144H70.5502C70.7929 19.6144 70.9142 19.4951 70.9142 19.2552V12.6884C70.9142 12.0614 70.9678 11.4623 71.0963 10.8977C71.3517 9.76941 72.1285 9.15427 73.2214 8.86646ZM122.329 0C121.479 0 121.053 0.448002 121.053 1.34332V19.2233C121.053 19.4632 121.144 19.5825 121.358 19.5825H123.636C123.879 19.5825 124 19.4632 124 19.2233V0.298901L123.636 0H122.329ZM6.28774 1.55276C4.28326 1.55276 2.70423 2.08953 1.54995 3.13464C0.487389 4.14993 -0.0290763 5.43292 0.0012625 6.89552C0.0012625 8.20902 0.426711 9.25413 1.21622 10.0593C1.9754 10.836 3.2207 11.4317 5.04244 11.8804L10.5091 13.1038C11.1469 13.1946 11.602 13.3736 11.7847 13.6412C12.0281 13.7904 12.1798 14.0893 12.2101 14.5664C12.2708 15.253 11.6944 15.642 10.5098 15.6718H2.00574C1.39826 15.6718 0.973514 15.8209 0.69976 16.0893C0.426711 16.3591 0.30465 16.7759 0.30465 17.3439V19.2836L0.334989 19.4639L0.638377 19.5534H10.205C12.5432 19.5534 14.3049 19.0159 15.4592 18.0013C16.5218 17.106 17.0686 15.9409 17.1293 14.4187C17.0686 12.9561 16.6735 11.8222 15.9143 11.076C15.0641 10.1508 13.7885 9.52322 12.1791 9.2257L6.50011 7.97185C6.105 7.94203 5.71059 7.7631 5.25481 7.37474L5.04244 7.1653C4.83006 7.07584 4.76939 6.86709 4.79973 6.50855C4.79973 6.12019 4.95142 5.8518 5.25551 5.70269C5.43755 5.52308 5.80232 5.40379 6.28774 5.40379H14.7911C15.884 5.40379 16.4611 4.8365 16.5225 3.73175V1.79132C16.4618 1.6124 16.2791 1.55276 15.915 1.55276H6.28774ZM36.8417 1.55276H30.9249C30.3612 1.55276 29.7812 1.87038 29.4299 2.2955L23.2337 9.79091V1.83571C23.2337 1.6235 23.1088 1.55276 22.9 1.55276H20.439C19.3764 1.55276 18.769 1.91061 18.769 2.627V19.1657C18.769 19.3973 19.0462 19.5534 19.2791 19.5534H21.836C22.5648 19.5534 23.233 19.1782 23.233 18.3883V10.0003L29.4941 18.8758C29.729 19.2087 30.3181 19.5534 30.8106 19.5534H34.5261C34.876 19.5534 35.1392 19.509 35.2549 19.3433C35.3586 19.1955 35.3212 18.957 35.1385 18.6907L29.1244 9.91089L34.4082 3.16516L40.7568 11.8811C41.0912 12.359 41.3036 12.9256 41.3339 13.6419V19.1193C41.3339 19.4251 41.5181 19.5527 41.8532 19.5527H44.3706C45.1531 19.5686 45.7274 19.1546 45.798 18.3876V13.6412C45.8283 13.2536 46.0407 12.7758 46.4055 12.2383L53.7919 2.04515C53.9542 1.82114 54.0092 1.55206 53.6028 1.55206H50.3841C49.7018 1.55206 49.2601 1.64915 48.8657 2.23863L43.6728 9.99965L38.7897 2.46749C38.3607 1.81282 37.8252 1.55276 36.8417 1.55276Z" fill="#2B2F64"/>
</svg>
