<svg width="160" height="23" viewBox="0 0 160 23" fill="none" xmlns="http://www.w3.org/2000/svg">
<path fill-rule="evenodd" clip-rule="evenodd" d="M11.247 3.33195H7.39969V15.3883H3.80909V3.33195H0V0.804688H11.247V3.33195ZM26.284 15.3883H22.2983L18.1496 9.20308H16.6702V15.3883H13.0778V0.804688H18.4728C20.2417 0.804688 21.6137 1.17158 22.5824 1.90626C23.5501 2.64004 24.0353 3.64877 24.0353 4.93333C24.0353 5.88925 23.8032 6.6649 23.3362 7.26303C22.8719 7.86116 22.2519 8.26993 21.4771 8.49207L26.284 15.3883ZM20.442 5.50051C20.442 4.77493 20.2454 4.23233 19.853 3.8709C19.4597 3.5113 18.8989 3.33195 18.1733 3.33195H16.6702V7.64904H18.2908C18.9562 7.64904 19.4815 7.45603 19.8676 7.06729C20.249 6.67856 20.442 6.15691 20.442 5.50051Z" fill="black"/>
<path fill-rule="evenodd" clip-rule="evenodd" d="M41.7561 15.3916H37.703L36.5031 12.918H30.6511L29.6033 15.3916H25.9007L33.213 0.676833H34.3783L41.7561 15.3916ZM35.8176 11.4969L33.497 6.62171L31.2183 11.4969H35.8176ZM55.3829 1.83394L48.2855 15.4981H46.6085L39.4911 1.83394L42.9451 0.570312L47.5599 9.73071L52.0072 0.570312L55.3829 1.83394ZM66.6618 15.3916H56.9743V0.807927H66.3004V3.33519H60.5676V7.20527H66.5171V8.8367H60.5676V12.8652H66.6618V15.3916ZM78.9967 15.3916H69.0561V0.807927H72.6486V12.8652H78.9967V15.3916ZM122.128 15.3916H117.745L113.413 9.64149L112.477 10.4372V15.3916H108.883V0.807927H112.477V6.49608L119.135 0.570312L121.365 2.58411L115.917 7.45472L122.128 15.3916ZM123.933 0.807927H127.524V15.3916H123.933V0.807927ZM144.006 15.3916H142.491L135.007 6.99133V15.3916H131.632V0.807927H133.149L140.634 9.18174V0.807927H144.006V15.3916ZM160 14.2608C159.415 14.6978 158.618 15.0329 157.605 15.2605C156.595 15.4899 155.747 15.6037 155.064 15.6037C152.415 15.6037 150.454 14.8981 149.178 13.4825C147.902 12.0686 147.265 10.3425 147.265 8.30685C147.265 6.34131 147.966 4.57788 149.373 3.01746C150.776 1.45795 152.737 0.677743 155.251 0.677743C155.932 0.677743 156.72 0.786991 157.622 1.00458C158.52 1.22307 159.193 1.48253 159.639 1.78205L159.128 5.36354H158.187V4.12449C157.933 3.91601 157.553 3.73212 157.04 3.5728C156.53 3.4153 155.945 3.33519 155.28 3.33519C153.978 3.33519 152.948 3.8095 152.191 4.75722C151.43 5.70494 151.045 6.79924 151.036 8.04011C151.036 9.52314 151.378 10.7057 152.061 11.5906C152.743 12.4746 153.807 12.9171 155.251 12.9171C155.609 12.9219 155.967 12.8988 156.321 12.8479C156.56 12.8135 156.796 12.7574 157.025 12.6804V8.83579H154.376V7.20436H159.998V14.2608H160ZM83.4395 0.693218H104.485V1.62728H83.4395V0.693218ZM83.8828 14.4156H104.93V15.3488H83.8828V14.4156ZM86.3473 12.3845C86.3473 12.3845 87.8922 11.1564 94.2577 11.1564C100.623 11.1564 102.611 12.3308 102.611 12.3308L103.456 7.52573L101.25 10.3552C101.25 10.3552 100.661 10.1686 100.366 10.1149C100.366 10.1413 99.8129 6.51064 99.8129 6.51064L98.1952 9.74164C98.1952 9.74164 97.496 9.66061 97.0909 9.66061C97.0909 9.68701 96.0985 5.97715 96.0985 5.97715L94.5891 9.5286H93.8526C93.8526 9.50038 92.3805 5.95075 92.3805 5.95075L91.644 9.63421C91.644 9.63421 91.1305 9.71524 90.76 9.74255C90.76 9.71524 88.8108 6.43053 88.8108 6.43053L88.2973 10.2487C88.2973 10.2487 87.7074 10.3552 87.559 10.408C87.559 10.3816 85.0217 7.391 85.0217 7.391L86.3473 12.3845ZM84.9862 5.81874C84.9862 5.99445 84.7869 6.13829 84.5438 6.13829C84.3007 6.13829 84.1032 5.99536 84.1032 5.81874C84.1032 5.64212 84.3007 5.49828 84.5438 5.49828C84.7869 5.49828 84.9862 5.64212 84.9862 5.81874ZM88.6269 4.80365C88.6269 4.98118 88.4312 5.12412 88.1881 5.12412C87.9423 5.12412 87.7475 4.98209 87.7475 4.80365C87.7475 4.62612 87.9432 4.48319 88.1881 4.48319C88.4312 4.48319 88.6269 4.62612 88.6269 4.80365ZM92.6044 4.05622C92.6044 4.23192 92.4032 4.37667 92.1602 4.37667C91.918 4.37667 91.7195 4.23283 91.7195 4.05622C91.7195 3.87869 91.9189 3.73485 92.1602 3.73485C92.4032 3.73485 92.6044 3.87869 92.6044 4.05622ZM96.5018 4.02891C96.5018 4.20552 96.3043 4.34936 96.0612 4.34936C95.8181 4.34936 95.6206 4.20552 95.6206 4.02891C95.6206 3.8532 95.8181 3.70845 96.0612 3.70845C96.3043 3.70845 96.5018 3.8532 96.5018 4.02891ZM100.588 4.77634C100.588 4.95387 100.386 5.09771 100.145 5.09771C99.8994 5.09771 99.7028 4.95387 99.7028 4.77634C99.7028 4.59972 99.9003 4.45679 100.145 4.45679C100.386 4.45679 100.588 4.59972 100.588 4.77634ZM104.451 5.97806C104.451 6.15377 104.252 6.29943 104.009 6.29943C103.763 6.29943 103.566 6.15468 103.566 5.97806C103.566 5.80054 103.764 5.65761 104.009 5.65761C104.253 5.65761 104.451 5.80054 104.451 5.97806ZM18.7368 18.6635C19.7637 18.6635 20.5102 18.6635 20.5102 20.0455C20.5102 21.3829 19.8657 21.4165 19.0518 21.4165H18.2597V18.6644L18.7368 18.6635ZM17.2046 17.9607V22.1175H19.192C19.5297 22.1175 20.4019 22.1175 20.9372 21.6532C21.6045 21.0788 21.6045 20.3286 21.6045 20.0792C21.6045 19.2662 21.3396 18.8829 21.1648 18.6617C20.5995 17.9598 19.7346 17.9598 19.1401 17.9598L17.2046 17.9607ZM22.4976 17.9607H26.3914V18.6635H23.5537V19.5866H26.1938V20.2904H23.5537V21.4156H26.487V22.1185H22.4976V17.9607ZM29.4276 17.9607H30.4827V21.4156H33.1228V22.1185H29.4276V17.9607ZM35.2486 20.4752L35.9596 18.9321L36.6861 20.4752H35.2486ZM38.6371 22.1185L36.5323 17.9616H35.4107L33.365 22.1185H34.4939L34.9273 21.178H37.0239L37.4791 22.1185H38.6371ZM40.5435 20.4752L41.2554 18.9321L41.981 20.4752H40.5435ZM43.9301 22.1185L41.8262 17.9616H40.7046L38.659 22.1185H39.7879L40.2212 21.178H42.3187L42.7739 22.1185H43.9301ZM46.5111 19.8907H48.7917V21.544C48.4839 21.7825 47.6109 22.1895 46.5484 22.1895C44.6566 22.1895 43.8864 21.1207 43.8864 20.0291C43.8864 19.0122 44.5911 17.8915 46.4902 17.8915C47.3405 17.8915 48.4402 18.0891 48.727 19.1114L47.671 19.268C47.4661 18.6936 46.8134 18.6116 46.4975 18.6116C46.0505 18.6116 45.5734 18.7218 45.2657 19.0759C45.0381 19.3427 44.9798 19.6731 44.9798 19.9936C44.9798 20.609 45.2511 21.4693 46.4829 21.4693C47.0983 21.4693 47.5908 21.1953 47.7219 21.1134V20.5908H46.512V19.8907H46.5111ZM50.6252 20.6901C50.6753 20.9049 50.8146 21.4848 51.7686 21.4848C52.5088 21.4848 52.8019 21.1771 52.8019 20.9104C52.8019 20.5617 52.436 20.4852 51.4673 20.3004C50.9475 20.1957 49.7885 19.9699 49.7885 19.0522C49.7885 18.5989 50.1618 17.8915 51.7022 17.8915C52.7291 17.8915 53.6668 18.212 53.7114 19.1506L52.649 19.1861C52.6053 18.9712 52.5243 18.5816 51.6885 18.5816C51.3726 18.5816 50.8009 18.658 50.8009 18.994C50.8009 19.2625 51.1305 19.3782 51.9735 19.5348C52.7719 19.6859 53.858 19.8907 53.858 20.9113C53.858 21.4165 53.4547 21.8399 53.0004 22.0028C52.5316 22.1767 52.0035 22.1895 51.7614 22.1895C51.196 22.1895 49.804 22.1467 49.5983 20.7674L50.6252 20.6901ZM55.8891 18.6635H54.336V17.9607H58.4992V18.6635H56.9452V22.1185H55.8891V18.6635ZM59.2039 17.9607H63.0976V18.6635H60.259V19.5866H62.8982V20.2904H60.259V21.4156H63.1932V22.1185H59.2039V17.9607ZM67.7015 18.6635C68.3324 18.6635 68.5818 18.6635 68.8167 18.8274C68.8913 18.8698 68.9531 18.9314 68.9957 19.0059C69.0383 19.0804 69.0601 19.1649 69.0589 19.2507C69.0589 19.8479 68.3187 19.8479 67.7761 19.8479H67.1889V18.6635H67.7015ZM66.1329 22.1185H67.188V20.5517H67.8854C68.3551 20.5517 68.9196 20.5444 69.2928 20.406C69.6224 20.2831 70.1504 19.9699 70.1504 19.238C70.1504 18.5361 69.6588 18.2174 69.322 18.0891C69.0443 17.9844 68.7575 17.9607 67.8335 17.9607H66.1329V22.1185ZM72.0787 18.6635H72.9071C73.619 18.6635 73.7501 18.6635 73.9486 18.7564C74.0313 18.7917 74.1013 18.8513 74.1496 18.9271C74.1978 19.003 74.222 19.0917 74.219 19.1815C74.219 19.3026 74.1826 19.5694 73.8166 19.6686C73.6327 19.7205 73.1857 19.7205 72.8634 19.7205H72.0787V18.6635ZM71.0235 22.1185H72.0796V20.3832H72.2917C73.0036 20.3832 73.0692 20.4652 73.7083 21.2135L74.4703 22.1185H75.7384L75.1012 21.3055C74.5731 20.6372 74.3674 20.4861 73.9277 20.2904V20.2776C74.1316 20.2594 74.331 20.2139 74.514 20.1493C75.0265 19.9818 75.3133 19.5803 75.3133 19.1287C75.3133 18.7218 75.0638 18.2447 74.4548 18.0654C74.2937 18.0244 74.0378 17.9607 73.2531 17.9607H71.0235V22.1185ZM76.2583 17.9607H77.3143V22.1185H76.2583V17.9607ZM81.3028 17.9607V20.5854C81.3028 20.8876 81.3028 21.3282 81.0169 21.6669C80.6946 22.0493 80.1821 22.1895 79.5657 22.1895C78.5179 22.1895 77.9671 21.7416 77.938 20.8293L78.943 20.7246C78.9722 20.9877 78.9804 21.4693 79.604 21.4693C80.2485 21.4693 80.2485 21.0515 80.2485 20.6445V17.9616L81.3028 17.9607ZM83.2228 20.6901C83.2747 20.9049 83.4149 21.4848 84.3681 21.4848C85.1091 21.4848 85.4014 21.1771 85.4014 20.9104C85.4014 20.5617 85.0354 20.4852 84.0676 20.3004C83.5469 20.1957 82.3889 19.9699 82.3889 19.0522C82.3889 18.5989 82.7621 17.8915 84.3025 17.8915C85.3285 17.8915 86.2672 18.212 86.3118 19.1506L85.2484 19.1861C85.2038 18.9712 85.1237 18.5816 84.288 18.5816C83.9711 18.5816 83.3985 18.658 83.3985 18.994C83.3985 19.2625 83.729 19.3782 84.5738 19.5348C85.3722 19.6859 86.4565 19.8907 86.4565 20.9113C86.4565 21.4165 86.055 21.8399 85.5998 22.0028C85.1301 22.1767 84.6021 22.1895 84.3608 22.1895C83.7973 22.1895 82.4035 22.1467 82.1968 20.7674L83.2228 20.6901ZM89.3024 17.9607H90.3603V22.1185H89.3024V17.9607ZM91.4218 17.9607H92.4478L94.5818 20.7365H94.5955V17.9607H95.5787V22.1185H94.5153L92.4196 19.4064H92.4032V22.1185H91.4218V17.9607ZM98.7314 17.9607H99.7874V19.807L101.936 17.9607H103.358L101.386 19.5812L103.468 22.1185H102.097L100.651 20.1675L99.7874 20.8648V22.1185H98.7314V17.9607ZM103.49 17.9607H104.574L105.36 20.8184H105.375L106.328 17.9607H107.589L108.505 20.8648H108.52L109.311 17.9607H110.384L109.107 22.1185H107.977L106.945 19.0122H106.929L105.895 22.1185H104.744L103.49 17.9607ZM111.848 20.4752L112.561 18.9321L113.285 20.4752H111.848ZM115.238 22.1185L113.133 17.9616H112.011L109.967 22.1185H111.094L111.528 21.178H113.625L114.08 22.1185H115.238ZM115.801 17.9607H116.857V21.4156H119.497V22.1185H115.801V17.9607ZM120.224 17.9607H121.278V22.1185H120.224V17.9607ZM123.485 18.6635H121.931V17.9607H126.097V18.6635H124.541V22.1185H123.485V18.6635ZM126.799 17.9607H130.694V18.6635H127.855V19.5866H130.496V20.2904H127.855V21.4156H130.789V22.1185H126.799V17.9607ZM131.632 17.9607H132.686V22.1185H131.632V17.9607ZM134.895 18.6635H133.339V17.9607H137.505V18.6635H135.949V22.1185H134.895V18.6635Z" fill="black"/>
</svg>
