<svg width="124" height="55" viewBox="0 0 124 55" fill="none" xmlns="http://www.w3.org/2000/svg">
<path fill-rule="evenodd" clip-rule="evenodd" d="M42.1977 44.2661C28.8326 49.8865 16.0919 50.0124 13.8437 44.5159C13.0941 42.6429 13.7191 40.2701 15.4675 37.7714L17.9656 26.1547C5.47535 33.1498 -2.01944 42.2671 0.478599 48.3886C3.47638 55.7568 19.714 56.0067 36.7012 48.887C46.9439 44.6412 55.0631 38.7702 59.3095 33.1498C55.6874 37.1464 49.6918 41.1437 42.1977 44.2661ZM123.512 5.29553C120.639 -1.57425 104.901 -1.82412 88.2879 4.92106C77.4215 9.2928 68.9272 15.5382 65.1812 21.2839H65.431C68.6774 17.1614 75.0481 12.6651 82.9173 9.54267C96.0332 4.29671 108.524 4.29671 110.771 9.66727C111.896 12.2906 110.273 15.6628 106.899 19.1604L102.903 28.0291C117.142 21.2839 126.26 11.541 123.512 5.29553Z" fill="#276DB4"/>
<path fill-rule="evenodd" clip-rule="evenodd" d="M55.563 47.0143L56.4372 42.7671H55.563L55.9375 41.144H56.8117L57.1861 39.0211H59.5596L59.0605 41.144H60.1846L59.8101 42.7671H58.686L57.9364 46.7644C57.8118 47.1395 58.1863 47.1395 58.4355 47.1395H58.9352L58.6854 48.8873C57.9358 48.8873 57.436 49.0126 56.8117 49.0126C55.9375 49.0126 55.3131 48.3889 55.563 47.0143ZM61.933 48.8873H59.5596L61.1834 41.1433H63.3063L63.1817 41.8929C63.8054 41.1433 64.3051 40.8935 65.0547 40.8935L64.555 43.3922C63.3056 43.3922 63.0558 43.766 62.8059 44.8914L61.933 48.8873ZM68.1778 45.1406L68.0532 46.1401C67.9279 46.8897 67.5534 47.1395 67.1783 47.1395C66.8045 47.1395 66.6786 47.0143 66.8045 46.5145C66.9291 46.1407 67.0544 45.8909 67.4282 45.641C67.6781 45.5151 67.9279 45.3905 68.1778 45.1406ZM67.804 48.7627H70.0528C69.9276 48.263 69.9276 48.0131 70.1774 47.2635L70.927 43.1416C71.3022 41.6424 70.5532 40.8928 68.5543 40.8928C66.6799 40.8928 65.5565 42.0162 65.182 43.7653H67.4295V43.3915C67.5548 42.7665 67.8046 42.5179 68.1791 42.5179C68.6789 42.5179 68.6789 42.7665 68.6789 43.0164C68.5543 43.5161 68.305 43.6414 67.9292 43.766L66.3061 44.5156C65.3066 45.0153 64.6829 45.7649 64.4331 46.8897C64.1832 48.5128 64.8069 49.0126 65.9309 49.0126C66.9304 49.0126 67.4302 48.6388 67.8053 48.1377V48.7627H67.804ZM71.676 48.7627V41.0194H74.174L73.7989 44.8907L73.6743 45.6403L73.9242 44.8907L75.4234 41.0194H77.6716L74.4239 48.7627H71.676ZM80.9185 43.5161L80.7939 43.6414H79.6692V43.5161C79.9191 42.7665 80.1689 42.5179 80.5441 42.5179C80.9185 42.5179 81.0438 42.6425 80.9185 43.5161ZM79.1708 48.8873C80.5441 48.8873 82.0433 48.2636 82.543 46.3899L82.6676 45.7649H80.4188L80.2942 46.2647C80.1689 46.8897 79.9191 47.1395 79.5446 47.1395C79.1701 47.1395 79.0448 46.8897 79.1708 46.2647L79.4206 45.2652H82.667L83.1667 43.2662C83.5418 41.3932 82.1672 40.7688 80.7939 40.7688C79.5446 40.7688 77.9214 41.3925 77.5463 43.2662L76.9226 46.3899C76.5468 48.263 77.9214 48.8873 79.1708 48.8873ZM85.0417 38.3954H87.2886L85.1657 48.6388H82.9175L85.0417 38.3954ZM37.0765 36.5217H32.3303L34.7038 25.0303C34.9536 23.9062 34.7038 23.4065 33.8295 23.4065C32.9553 23.4065 32.4556 23.9056 32.2057 25.0303L29.8323 36.5217H25.0861L28.4583 20.0342H32.7055L32.2057 22.1578C33.2052 20.6586 35.2035 19.5345 36.8273 19.5345C38.701 19.5345 40.3249 20.6586 39.8251 23.032L37.0765 36.5217ZM51.5657 17.5362C50.0665 17.5362 49.3169 17.5362 49.067 18.7849L48.8171 19.909H51.066L50.3164 23.1566H48.1928L45.4449 36.5217H40.5734L43.3213 23.2812H41.4483L42.0726 19.909H43.9463L44.3208 18.1599C44.8205 15.412 46.8195 14.038 49.5667 14.038H52.1901L51.5657 17.5362ZM58.1863 18.0353H53.3148L54.189 14.0387H59.0605L58.1863 18.0353ZM54.4389 36.5217H49.5674L52.9403 19.909H57.8118L54.4389 36.5217ZM60.6837 19.7844H64.9315L64.4317 22.0325C65.4312 20.4087 67.4282 19.2846 69.0533 19.2846C70.9264 19.2846 72.5509 20.4087 72.0511 22.9068L69.3032 36.5217H64.5563L66.9291 24.7804C67.179 23.781 66.9291 23.1566 65.9296 23.1566C65.0561 23.1566 64.6816 23.6564 64.4317 24.7804L62.0576 36.5217H57.3114L60.6837 19.7844ZM80.7939 17.9107H75.9225L76.796 13.9141H81.6675L80.7939 17.9107ZM77.0465 36.5217H72.1751L75.5473 19.7844L80.4188 19.6598L77.0465 36.5217ZM90.7868 22.9068H88.1641L86.415 31.9001C86.1652 33.0235 87.5385 32.8996 88.6639 32.8996L88.0388 36.2718C86.7895 36.5217 85.6661 36.5217 84.1669 36.5217C82.2938 36.5217 80.9192 35.3983 81.5442 32.6497L83.5432 22.9068H81.6688L82.2938 19.6591H84.1669L85.0417 15.0375H89.7873L88.9137 19.6591H91.4124L90.7868 22.9068ZM97.7805 37.3959C96.4072 40.8935 94.4082 41.769 91.6603 41.769C91.0366 41.769 90.287 41.769 89.6627 41.6437L90.2864 38.1462C90.6615 38.2715 91.036 38.2715 91.2858 38.2715C92.0355 38.2715 92.4093 37.8963 92.5352 37.272L92.6598 36.7722L92.4099 19.6598L97.2827 19.5352L96.9076 27.1545L96.034 33.0248L97.9071 27.1545L100.53 19.5352H105.151L97.7805 37.3959ZM21.963 14.1639H27.3342L22.7126 36.5217H17.2168L21.963 14.1639Z" fill="#808183"/>
</svg>
